<?xml version="1.0" encoding="utf-8"?>
<!-- Generator: Adobe Illustrator 24.0.2, SVG Export Plug-In . SVG Version: 6.00 Build 0)  -->
<svg version="1.1" id="Layer_1" focusable="false" xmlns="http://www.w3.org/2000/svg" xmlns:xlink="http://www.w3.org/1999/xlink"
	 x="0px" y="0px" viewBox="0 0 650 900" style="enable-background:new 0 0 650 900;" xml:space="preserve">
<style type="text/css">
	.st0{fill:#FFFFFF;}
	.st1{stroke:#EBF0F8;}
	.st2{clip-path:url(#SVGID_2_);}
	.st3{fill:#DE237B;}
	.st4{fill:none;}
	.st5{font-family:'TimesNewRomanPSMT';}
	.st6{font-size:20px;}
	.st7{stroke:#000000;stroke-width:1.393627e-02;stroke-miterlimit:10;}
	.st8{stroke:#000000;stroke-width:9.852944e-03;stroke-miterlimit:10;}
	.st9{stroke:#000000;stroke-width:1.393579e-02;stroke-miterlimit:10;}
	.st10{stroke:#000000;stroke-width:9.852605e-03;stroke-miterlimit:10;}
	.st11{stroke:#000000;stroke-width:1.393558e-02;stroke-miterlimit:10;}
	.st12{stroke:#000000;stroke-width:9.852459e-03;stroke-miterlimit:10;}
	.st13{stroke:#000000;stroke-width:1.393600e-02;stroke-miterlimit:10;}
	.st14{stroke:#000000;stroke-width:9.852756e-03;stroke-miterlimit:10;}
	.st15{stroke:#000000;stroke-width:1.393498e-02;stroke-miterlimit:10;}
	.st16{stroke:#000000;stroke-width:9.852034e-03;stroke-miterlimit:10;}
	.st17{stroke:#000000;stroke-width:1.393551e-02;stroke-miterlimit:10;}
	.st18{stroke:#000000;stroke-width:9.852404e-03;stroke-miterlimit:10;}
	.st19{stroke:#000000;stroke-width:1.393593e-02;stroke-miterlimit:10;}
	.st20{stroke:#000000;stroke-width:9.852702e-03;stroke-miterlimit:10;}
	.st21{stroke:#000000;stroke-width:1.393561e-02;stroke-miterlimit:10;}
	.st22{stroke:#000000;stroke-width:9.852479e-03;stroke-miterlimit:10;}
	.st23{stroke:#000000;stroke-width:1.393612e-02;stroke-miterlimit:10;}
	.st24{stroke:#000000;stroke-width:9.852837e-03;stroke-miterlimit:10;}
	.st25{stroke:#000000;stroke-width:1.393520e-02;stroke-miterlimit:10;}
	.st26{stroke:#000000;stroke-width:9.852188e-03;stroke-miterlimit:10;}
	.st27{font-size:24px;}
</style>
<rect y="0" class="st0" width="650" height="900"/>
<g>
	<g>
		<g>
			<g>
				<path class="st1" d="M204.9,60v760"/>
				<path class="st1" d="M283,60v760"/>
				<path class="st1" d="M361.1,60v760"/>
				<path class="st1" d="M439.2,60v760"/>
				<path class="st1" d="M517.3,60v760"/>
			</g>
			<g>
				<path class="st1" d="M148,777h422"/>
				<path class="st1" d="M148,702.1h422"/>
				<path class="st1" d="M148,627.2h422"/>
				<path class="st1" d="M148,552.3h422"/>
				<path class="st1" d="M148,477.4h422"/>
				<path class="st1" d="M148,402.6h422"/>
				<path class="st1" d="M148,327.7h422"/>
				<path class="st1" d="M148,252.8h422"/>
				<path class="st1" d="M148,177.9h422"/>
				<path class="st1" d="M148,103h422"/>
			</g>
		</g>
		<path class="st1" d="M0,0"/>
		<path class="st1" d="M0,0"/>
		<g>
			<defs>
				<rect id="SVGID_1_" x="148" y="60" width="422" height="760"/>
			</defs>
			<clipPath id="SVGID_2_">
				<use xlink:href="#SVGID_1_"  style="overflow:visible;"/>
			</clipPath>
			<g transform="translate(148,60)" class="st2">
				<g>
					<g>
						<g>
							<path class="st3" d="M30.1,717c0,2.2-1.8,4-4,4s-4-1.8-4-4c0-2.2,1.8-4,4-4S30.1,714.8,30.1,717z"/>
							<path class="st3" d="M47.3,642.1c0,2.2-1.8,4-4,4s-4-1.8-4-4c0-2.2,1.8-4,4-4S47.3,639.9,47.3,642.1z"/>
							<path class="st3" d="M72.6,567.2c0,2.2-1.8,4-4,4s-4-1.8-4-4c0-2.2,1.8-4,4-4S72.6,565,72.6,567.2z"/>
							<path class="st3" d="M92.8,492.3c0,2.2-1.8,4-4,4s-4-1.8-4-4c0-2.2,1.8-4,4-4S92.8,490.1,92.8,492.3z"/>
							<path class="st3" d="M112.4,417.4c0,2.2-1.8,4-4,4s-4-1.8-4-4c0-2.2,1.8-4,4-4S112.4,415.2,112.4,417.4z"/>
							<path class="st3" d="M176.6,342.6c0,2.2-1.8,4-4,4s-4-1.8-4-4c0-2.2,1.8-4,4-4S176.6,340.4,176.6,342.6z"/>
							<path class="st3" d="M257.4,267.7c0,2.2-1.8,4-4,4s-4-1.8-4-4c0-2.2,1.8-4,4-4S257.4,265.5,257.4,267.7z"/>
							<path class="st3" d="M382,192.8c0,2.2-1.8,4-4,4s-4-1.8-4-4s1.8-4,4-4S382,190.6,382,192.8z"/>
							<path class="st3" d="M399.3,117.9c0,2.2-1.8,4-4,4s-4-1.8-4-4s1.8-4,4-4S399.3,115.7,399.3,117.9z"/>
							<path class="st3" d="M399.9,43c0,2.2-1.8,4-4,4s-4-1.8-4-4c0-2.2,1.8-4,4-4S399.9,40.8,399.9,43z"/>
						</g>
					</g>
				</g>
			</g>
		</g>
		<path class="st4" d="M0,0"/>
		<path class="st4" d="M0,0"/>
		<g>
			<g>
				<text transform="matrix(1 0 0 1 177.38 841)" class="st5 st6">0.0193</text>
			</g>
			<g>
				<text transform="matrix(1 0 0 1 255.48 841)" class="st5 st6">0.0194</text>
			</g>
			<g>
				<text transform="matrix(1 0 0 1 333.58 841)" class="st5 st6">0.0195</text>
			</g>
			<g>
				<text transform="matrix(1 0 0 1 411.68 841)" class="st5 st6">0.0196</text>
			</g>
			<g>
				<text transform="matrix(1 0 0 1 489.78 841)" class="st5 st6">0.0197</text>
			</g>
		</g>
		<g>
			<g>
				<g transform="translate(0,777)translate(-20.21044921875,0)" pointer-events="none">
					<g transform="matrix(1 0 0 -1 0 0)">
						<g>
							<path id="MJMATHI-50" class="st7" d="M132.8,10.6c0,0.1-0.3,0.1-1,0.2c-0.3,0-0.5,0-0.6,0c-0.1,0-0.1,0.1-0.1,0.2
								c0,0,0,0.1,0,0.2c0.1,0.2,0.1,0.4,0.2,0.4s1.2,0,3.5,0c2.3,0,3.5,0,3.6-0.1c0.8-0.1,1.4-0.4,1.9-0.9c0.5-0.5,0.8-1.1,0.8-1.9
								c0-1-0.4-1.8-1.2-2.6c-0.8-0.8-1.9-1.4-3.2-1.6c-0.1,0-0.7,0-1.9,0h-1.7l-0.5-2.2c-0.4-1.4-0.5-2.2-0.5-2.3c0,0,0-0.1,0-0.1
								c0,0,0.1,0,0.1-0.1s0.2,0,0.3,0c0.1,0,0.3,0,0.6,0h0.6c0.1-0.1,0.1-0.2,0.1-0.2c0-0.2,0-0.4-0.1-0.6
								c-0.1-0.1-0.2-0.1-0.3-0.1c0,0-0.3,0-0.7,0c-0.4,0-1,0-1.8,0c-0.7,0-1.3,0-1.7,0s-0.6,0-0.6,0c-0.2,0-0.3,0.1-0.3,0.2
								c0,0,0,0.1,0.1,0.3c0,0.2,0.1,0.3,0.1,0.3s0.2,0,0.4,0.1c0.3,0,0.7,0,1.1,0.1c0.2,0,0.3,0.1,0.3,0.2c0,0,0.5,1.8,1.3,5.2
								C132.4,8.6,132.8,10.4,132.8,10.6z M139.2,9.2c0,0.2,0,0.3,0,0.4c0,0.1-0.1,0.2-0.2,0.4c-0.1,0.2-0.2,0.3-0.4,0.4
								c-0.2,0.1-0.5,0.2-0.9,0.3c-0.1,0-0.6,0-1.4,0c-0.2,0-0.4,0-0.6,0s-0.4,0-0.5,0c-0.1,0-0.2,0-0.2,0c-0.2,0-0.3-0.1-0.3-0.2
								c0-0.1-0.1-0.5-0.3-1.4s-0.4-1.7-0.6-2.6c-0.2-0.8-0.3-1.2-0.3-1.3c0,0,0.5,0,1.5,0h0.2h0.4c1.3,0,2.3,0.3,2.9,0.9
								c0.3,0.3,0.6,0.8,0.7,1.5C139.2,8.3,139.2,8.8,139.2,9.2z"/>
						</g>
						<g transform="translate(751,0)">
							<g>
								<path id="MJMAIN-31" class="st7" d="M-606,9.6l-0.2-0.1c-0.2-0.1-0.4-0.1-0.7-0.2c-0.3-0.1-0.7-0.1-1-0.1h-0.3v0.9h0.3
									c0.6,0,1.1,0.1,1.6,0.3c0.5,0.2,0.8,0.3,1,0.4c0.2,0.1,0.4,0.3,0.5,0.4c0,0,0.1,0.1,0.2,0.1c0.1,0,0.2,0,0.3-0.1V5.6l0-5.6
									c0.1-0.1,0.2-0.1,0.2-0.2s0.2,0,0.4-0.1s0.6,0,1.1,0h0.5v-0.9h-0.2c-0.3,0-1.2,0.1-2.9,0.1c-1.6,0-2.6,0-2.8-0.1h-0.2v0.9
									h0.5c0.3,0,0.5,0,0.7,0c0.2,0,0.3,0,0.4,0c0.1,0,0.2,0,0.3,0.1s0.1,0,0.1,0s0,0,0.1,0.1c0.1,0.1,0.1,0.1,0.1,0.1V9.6z"/>
							</g>
							<g transform="translate(500,-150)">
								<g transform="scale(0.707)">
									<path id="MJMATHI-73" class="st8" d="M-1099.2,149.9c0,0.3,0.1,0.6,0.2,0.9c0.1,0.3,0.4,0.6,0.7,0.8
										c0.3,0.2,0.7,0.4,1.2,0.4c0.5,0,0.9-0.1,1.1-0.4c0.2-0.2,0.4-0.5,0.4-0.8c0-0.3-0.1-0.5-0.2-0.6s-0.3-0.2-0.5-0.2
										c-0.1,0-0.2,0-0.3,0.1c-0.1,0.1-0.1,0.2-0.2,0.3c0,0.1,0,0.3,0.1,0.4s0.1,0.2,0.2,0.2s0.1,0.1,0.2,0.1c0,0,0,0,0,0
										c0,0,0,0.1-0.1,0.1c-0.1,0.1-0.2,0.1-0.3,0.1c-0.2,0-0.3,0.1-0.5,0.1c-0.4,0-0.7-0.1-0.9-0.3c-0.2-0.2-0.3-0.5-0.3-0.7
										c0-0.2,0.1-0.4,0.2-0.5s0.4-0.2,0.7-0.2s0.5-0.1,0.7-0.2c0.6-0.3,0.8-0.7,0.8-1.3c0-0.2,0-0.5-0.1-0.7
										c-0.1-0.2-0.2-0.5-0.4-0.7c-0.2-0.2-0.5-0.4-0.8-0.6c-0.3-0.1-0.7-0.2-1.2-0.2c-0.7,0-1.1,0.1-1.4,0.4s-0.4,0.6-0.4,0.9
										c0,0.3,0.1,0.6,0.3,0.7s0.4,0.2,0.6,0.2c0.1,0,0.2,0,0.4-0.1c0.1-0.1,0.2-0.2,0.2-0.4c0-0.2-0.1-0.4-0.2-0.6
										c-0.2-0.2-0.3-0.2-0.4-0.2c0,0,0,0,0,0c0,0,0,0,0,0c0,0,0-0.1,0.1-0.1c0.1,0,0.2-0.1,0.4-0.2c0.2-0.1,0.4-0.1,0.7-0.1
										c0.3,0,0.6,0,0.8,0.1c0.2,0.1,0.4,0.2,0.5,0.4c0.1,0.1,0.2,0.3,0.2,0.4c0,0.1,0.1,0.2,0.1,0.3c0,0.2-0.1,0.4-0.3,0.6
										c-0.2,0.1-0.4,0.2-0.6,0.2s-0.5,0.1-0.7,0.2c-0.3,0.1-0.5,0.3-0.6,0.5C-1099.2,149.4-1099.2,149.6-1099.2,149.9z"/>
								</g>
								<g transform="scale(0.707)">
									<path id="MJMATHI-74" class="st8" d="M-1094.6,151.2c-0.1,0.1-0.1,0.1-0.1,0.1c0,0,0,0.1,0,0.2s0,0.2,0.1,0.2
										c0,0,0.1,0.1,0.1,0.1c0.1,0,0.3,0,0.6,0h0.7l0.2,1c0,0.1,0.1,0.2,0.1,0.4s0.1,0.3,0.1,0.3s0.1,0.2,0.1,0.3s0.1,0.2,0.1,0.2
										c0,0,0.1,0.1,0.1,0.2s0.1,0.1,0.2,0.1s0.2,0,0.2,0c0.2,0,0.3-0.1,0.3-0.1c0.1-0.1,0.1-0.2,0.1-0.2c0-0.1,0-0.3-0.1-0.6
										c-0.1-0.3-0.2-0.7-0.3-1l-0.1-0.5c0,0,0.2,0,0.6,0h0.6c0.1-0.1,0.1-0.1,0.1-0.1c0-0.2-0.1-0.3-0.2-0.5h-1.4l-0.5-1.9
										c-0.3-1.4-0.5-2.1-0.5-2.3c0-0.4,0.1-0.6,0.3-0.6c0.3,0,0.6,0.1,0.9,0.4c0.3,0.3,0.5,0.7,0.7,1.1c0,0.1,0,0.1,0.1,0.1
										c0,0,0.1,0,0.2,0h0.1c0.1,0,0.2,0,0.2-0.1c0,0,0-0.1,0-0.2c0-0.1-0.1-0.3-0.2-0.5s-0.3-0.4-0.4-0.6
										c-0.2-0.2-0.4-0.4-0.6-0.6s-0.5-0.2-0.8-0.2c-0.3,0-0.5,0.1-0.7,0.2s-0.4,0.4-0.5,0.7c0,0.1,0,0.2,0,0.4v0.2l0.4,1.8
										c0.3,1.2,0.4,1.9,0.5,1.9c0,0-0.2,0-0.6,0H-1094.6z"/>
								</g>
								<g transform="scale(0.707)">
									<path id="MJMATHI-64" class="st8" d="M-1085.7,155.1c0,0,0.3,0,0.9,0.1s0.9,0.1,0.9,0.1c0.1,0,0.2,0,0.2-0.1
										c0-0.1-0.3-1.4-0.9-4c-0.6-2.6-0.9-3.9-1-3.9c0-0.1,0-0.1,0-0.2c0-0.4,0.1-0.6,0.4-0.6c0.1,0,0.2,0,0.3,0.1
										c0.2,0.2,0.4,0.6,0.5,1.3c0.1,0.2,0.1,0.3,0.1,0.3c0,0,0.1,0,0.1,0h0.1h0.1c0.1,0,0.2,0,0.2-0.1c0,0,0-0.1,0-0.2
										c-0.1-0.4-0.2-0.8-0.4-1.1c-0.1-0.3-0.3-0.4-0.4-0.5c-0.1-0.1-0.2-0.1-0.4-0.2c-0.1,0-0.2,0-0.3,0c-0.3,0-0.5,0.1-0.7,0.2
										s-0.3,0.3-0.4,0.4l-0.1,0.2c0,0,0,0-0.1,0c0,0,0,0-0.1-0.1c-0.5-0.5-1-0.7-1.5-0.7c-0.5,0-0.9,0.2-1.2,0.5
										c-0.4,0.3-0.5,0.9-0.5,1.7c0,0.4,0.1,0.8,0.3,1.3c0.2,0.4,0.4,0.8,0.6,1.1c0.4,0.5,0.8,0.8,1.2,1c0.4,0.2,0.8,0.3,1.1,0.3
										c0.5,0,0.8-0.2,1.1-0.6c0-0.1,0.1-0.1,0.1-0.1c0,0,0.1,0.5,0.3,1.4c0.2,0.9,0.3,1.4,0.4,1.5c0,0.1,0,0.2-0.1,0.2
										c-0.1,0-0.2,0-0.5,0.1h-0.3c-0.1,0.1-0.1,0.1-0.1,0.1s0,0.1,0,0.2C-1085.8,155-1085.8,155.1-1085.7,155.1z M-1085.9,150.4
										c-0.2,0.7-0.5,1-1,1c-0.3,0-0.6-0.1-0.8-0.4c-0.3-0.3-0.5-0.6-0.6-1.1c-0.2-0.7-0.4-1.4-0.5-2.1c0,0,0-0.1,0-0.1
										c0-0.1,0-0.1,0-0.2c0-0.4,0.1-0.7,0.2-0.8s0.3-0.2,0.5-0.2c0.5,0,0.9,0.3,1.4,0.9l0.1,0.1L-1085.9,150.4z"/>
								</g>
							</g>
						</g>
					</g>
				</g>
			</g>
			<g>
				<g transform="translate(0,702.11)translate(-30.30859375,0)" pointer-events="none">
					<g transform="matrix(1 0 0 -1 0 0)">
						<g>
							<path id="MJMATHI-4D" class="st9" d="M123.4,8.4c0,0.1-0.3,0.1-1,0.1c-0.3,0-0.5,0-0.6,0c-0.1,0-0.1,0.1-0.1,0.2
								c0,0,0,0.1,0,0.2c0,0,0,0.1,0,0.1c0,0,0,0.1,0,0.1s0,0,0,0.1c0,0,0,0.1,0,0.1s0,0,0.1,0c0,0,0.1,0,0.1,0c0,0,0.1,0,0.1,0
								c0.1,0,0.2,0,0.2,0c0.1,0,0.3,0,0.5,0c0.3,0,0.6,0,0.8,0c0.9,0,1.5,0,1.6,0s0.2,0,0.3-0.1c0,0,0.2-1.8,0.7-5.2l0.6-5.2
								l0.4,0.7c0.3,0.4,0.7,1.1,1.1,1.9s1,1.7,1.6,2.6c2.1,3.4,3.1,5.2,3.2,5.2c0,0,0,0,0.1,0.1c0,0,0,0,0.1,0.1l0.1,0h1.7
								c0.2,0,0.4,0,0.7,0s0.4,0,0.5,0c0.4,0,0.6-0.1,0.6-0.2c0-0.1,0-0.2-0.1-0.3c0-0.1-0.1-0.2-0.1-0.2c0-0.1-0.3-0.1-0.7-0.1
								c-0.5,0-0.8,0-0.9-0.1c-0.1,0-0.2-0.1-0.3-0.2c0-0.1-0.5-1.8-1.3-5.2s-1.2-5.2-1.3-5.2c0,0,0-0.1,0-0.1c0,0,0.1,0,0.1-0.1
								c0.1,0,0.2,0,0.3,0s0.3,0,0.6,0h0.6c0.1-0.1,0.1-0.2,0.1-0.2c0-0.2,0-0.4-0.1-0.6c-0.1-0.1-0.2-0.1-0.3-0.1
								c-0.1,0-0.3,0-0.7,0c-0.4,0-1,0-1.6,0c-0.7,0-1.3,0-1.6,0s-0.6,0-0.6,0c-0.2,0-0.3,0.1-0.3,0.2c0,0,0,0.1,0,0.3
								c0,0.2,0.1,0.3,0.1,0.3s0.2,0,0.4,0.1c0.3,0,0.7,0,1.1,0.1c0.2,0,0.3,0.1,0.3,0.2c0,0,0.3,1,0.7,2.7s0.9,3.5,1.3,5.2
								c0.4,1.7,0.6,2.6,0.6,2.6L130,2.7c-2.3-3.9-3.5-5.8-3.6-5.9c0,0,0,0-0.1,0c-0.1,0-0.2-0.1-0.3-0.1c-0.2,0-0.3,0-0.3,0.1
								c0,0-0.3,2-0.7,5.7l-0.7,5.7l-1.2-5c-0.8-3.3-1.2-5-1.2-5.1c0.1-0.4,0.5-0.6,1.3-0.6h0.2c0.1-0.1,0.1-0.1,0.1-0.2
								c0,0,0-0.2-0.1-0.3c0-0.2-0.1-0.3-0.1-0.3c0,0-0.1,0-0.2,0c0,0-0.1,0-0.2,0s-0.3,0-0.6,0c-0.3,0-0.7,0-1.1,0
								c-0.4,0-0.7,0-1.1,0c-0.4,0-0.6,0-0.7,0c-0.2,0-0.3,0-0.3,0c0,0-0.1,0.1-0.1,0.2c0,0,0,0.1,0.1,0.3c0,0.1,0.1,0.2,0.1,0.3
								c0,0.1,0.2,0.1,0.4,0.1c0.8,0,1.4,0.2,1.6,0.7c0,0.1,0.5,1.7,1.2,5S123.4,8.2,123.4,8.4z"/>
						</g>
						<g>
							<path id="MJMATHI-53" class="st9" d="M142.6-2.8c0.7,0,1.4,0.3,1.9,1s0.9,1.4,0.9,2.2c0,0.8-0.3,1.3-0.9,1.6
								c-1.3,0.3-2.1,0.6-2.4,0.7s-0.6,0.2-0.8,0.4c-0.7,0.5-1.1,1.3-1.1,2.2c0,0.8,0.2,1.4,0.6,2.1c0.4,0.6,0.8,1.1,1.2,1.4
								c0.3,0.3,0.8,0.6,1.3,0.7c0.5,0.2,0.9,0.3,1.1,0.3h0.2h0.1c1.1,0,2-0.4,2.5-1.2c0,0,0.1,0.1,0.2,0.2c0.1,0.2,0.3,0.3,0.5,0.5
								c0.2,0.2,0.3,0.3,0.4,0.4c0,0,0,0,0.1,0c0,0,0.1,0,0.1,0c0.2,0,0.2,0,0.2-0.1s-0.2-0.8-0.5-2.2s-0.5-2.1-0.6-2.2
								c0,0-0.1-0.1-0.3-0.1c-0.2,0-0.4,0.1-0.4,0.2c0,0.1,0,0.1,0,0.2c0,0,0,0.2,0,0.4c0,0.2,0,0.4,0,0.5c0,0.4-0.1,0.8-0.2,1.1
								c-0.1,0.3-0.2,0.5-0.3,0.7c-0.1,0.1-0.3,0.3-0.4,0.5c-0.4,0.3-0.9,0.4-1.5,0.4c-0.7,0-1.3-0.3-1.9-0.9s-0.9-1.2-0.9-2
								c0-0.4,0.1-0.7,0.3-1c0.2-0.3,0.4-0.5,0.7-0.6c0,0,0.5-0.1,1.3-0.4c0.8-0.2,1.2-0.3,1.2-0.3c0.4-0.1,0.8-0.4,1.2-0.9
								c0.4-0.5,0.6-1.1,0.6-1.9c0-0.3,0-0.7-0.1-1c-0.1-0.3-0.2-0.6-0.3-0.9s-0.4-0.7-0.6-1.1s-0.7-0.8-1.2-1.1
								c-0.5-0.3-1.1-0.6-1.7-0.7c-0.1,0-0.3,0-0.6,0c-1.2,0-2.1,0.3-2.8,1l-0.2,0.2L139-3c-0.3-0.3-0.4-0.5-0.5-0.6
								c-0.1,0-0.1-0.1-0.2-0.1c-0.2,0-0.2,0-0.2,0.1c0,0,0.3,1.5,1,4.4c0,0.1,0.1,0.1,0.4,0.1h0.2c0.1-0.1,0.1-0.1,0.1-0.2
								c0,0,0-0.1,0-0.2c0-0.1,0-0.2-0.1-0.4c0-0.2,0-0.4,0-0.6c0-0.5,0.1-0.9,0.3-1.2s0.4-0.6,0.8-0.7c0.3-0.2,0.6-0.3,0.9-0.3
								C142-2.8,142.3-2.8,142.6-2.8z"/>
						</g>
						<g transform="translate(1697,0)">
							<g>
								<path id="MJMATHI-46" class="st9" d="M-1547.5-3.3c-0.2,0-0.3,0.1-0.3,0.2c0,0,0,0.1,0.1,0.3c0,0.2,0.1,0.3,0.1,0.3
									c0,0,0.2,0,0.4,0.1c0.3,0,0.7,0,1.1,0.1c0.2,0,0.3,0.1,0.3,0.2c0,0.1,0.4,1.8,1.3,5.2s1.2,5.1,1.3,5.2c0,0.1,0,0.1-0.1,0.1
									c-0.1,0-0.4,0.1-1,0.1h-0.6c-0.1,0.1-0.1,0.1-0.1,0.1c0,0,0,0.1,0,0.3c0,0.2,0.1,0.3,0.2,0.4h9.7c0.1,0,0.1-0.1,0.1-0.2
									c0-0.1-0.1-0.8-0.2-2.1s-0.2-2-0.3-2c0-0.1-0.1-0.1-0.4-0.1h-0.2c-0.1,0.1-0.1,0.1-0.1,0.2c0,0,0,0.2,0.1,0.4s0.1,0.6,0.1,1
									c0,0.4,0,0.7-0.1,0.9c-0.1,0.2-0.2,0.4-0.3,0.6c-0.1,0.1-0.4,0.2-0.7,0.3c-0.3,0-0.6,0.1-0.9,0.1c-0.3,0-0.7,0-1.3,0h-0.4
									c-1,0-1.5,0-1.6-0.1c-0.1,0-0.1-0.1-0.1-0.1c0,0-0.2-0.8-0.6-2.4l-0.6-2.4h1c0,0,0.2,0,0.4,0c0.2,0,0.4,0,0.5,0
									c0.1,0,0.2,0,0.4,0.1s0.3,0.1,0.4,0.1c0.1,0.1,0.2,0.1,0.3,0.2c0.2,0.1,0.3,0.4,0.4,0.6c0.1,0.3,0.2,0.5,0.2,0.7
									c0,0.2,0.1,0.3,0.1,0.3c0,0.1,0.1,0.1,0.3,0.1h0.2c0.1-0.1,0.1-0.1,0.1-0.2c0,0-0.2-0.8-0.6-2.4c-0.4-1.6-0.6-2.4-0.6-2.4
									c0-0.1-0.1-0.1-0.4-0.1h-0.2c-0.1,0.1-0.1,0.1-0.1,0.2c0,0,0,0.2,0.1,0.4c0.1,0.2,0.1,0.5,0.1,0.7c0,0.4-0.1,0.6-0.4,0.7
									c-0.2,0.1-0.8,0.1-1.6,0.1h-1l-0.6-2.4c-0.4-1.5-0.6-2.3-0.6-2.4c0-0.2,0.5-0.3,1.6-0.3h0.4c0.1-0.1,0.1-0.1,0.1-0.1
									c0,0,0-0.1,0-0.4c0-0.2-0.1-0.3-0.2-0.4h-0.3c-0.5,0-1.4,0-2.7,0c-0.8,0-1.4,0-1.8,0S-1547.4-3.2-1547.5-3.3z"/>
							</g>
							<g transform="translate(643,-150)">
								<g transform="scale(0.707)">
									<path id="MJMATHI-73_1_" class="st10" d="M-2178.1,147.7c0,0.3,0.1,0.6,0.2,0.9c0.1,0.3,0.4,0.6,0.7,0.8
										c0.3,0.2,0.7,0.4,1.2,0.4c0.5,0,0.9-0.1,1.1-0.4c0.2-0.2,0.4-0.5,0.4-0.8c0-0.3-0.1-0.5-0.2-0.6c-0.1-0.1-0.3-0.2-0.5-0.2
										c-0.1,0-0.2,0-0.3,0.1s-0.1,0.2-0.2,0.3c0,0.1,0,0.3,0.1,0.4c0.1,0.1,0.1,0.2,0.2,0.2s0.1,0.1,0.2,0.1c0,0,0,0,0,0
										c0,0,0,0.1-0.1,0.1c-0.1,0.1-0.2,0.1-0.3,0.1s-0.3,0.1-0.5,0.1c-0.4,0-0.7-0.1-0.9-0.3c-0.2-0.2-0.3-0.5-0.3-0.7
										c0-0.2,0.1-0.4,0.2-0.5c0.2-0.1,0.4-0.2,0.7-0.2s0.5-0.1,0.7-0.2c0.6-0.3,0.8-0.7,0.8-1.3c0-0.2,0-0.5-0.1-0.7
										c-0.1-0.2-0.2-0.5-0.4-0.7c-0.2-0.2-0.5-0.4-0.8-0.6c-0.3-0.1-0.7-0.2-1.2-0.2c-0.7,0-1.1,0.1-1.4,0.4
										c-0.3,0.3-0.4,0.6-0.4,0.9c0,0.3,0.1,0.6,0.3,0.7c0.2,0.1,0.4,0.2,0.6,0.2c0.1,0,0.2,0,0.4-0.1c0.1-0.1,0.2-0.2,0.2-0.4
										c0-0.2-0.1-0.4-0.2-0.6s-0.3-0.2-0.4-0.2c0,0,0,0,0,0s0,0,0,0c0,0,0-0.1,0.1-0.1c0.1,0,0.2-0.1,0.4-0.2s0.4-0.1,0.7-0.1
										c0.3,0,0.6,0,0.8,0.1c0.2,0.1,0.4,0.2,0.5,0.4c0.1,0.1,0.2,0.3,0.2,0.4c0,0.1,0.1,0.2,0.1,0.3c0,0.2-0.1,0.4-0.3,0.6
										c-0.2,0.1-0.4,0.2-0.6,0.2s-0.5,0.1-0.7,0.2c-0.3,0.1-0.5,0.3-0.6,0.5C-2178.1,147.2-2178.1,147.4-2178.1,147.7z"/>
								</g>
								<g transform="scale(0.707)">
									<path id="MJMATHI-74_1_" class="st10" d="M-2173.5,149c-0.1,0.1-0.1,0.1-0.1,0.1c0,0,0,0.1,0,0.2c0,0.1,0,0.2,0.1,0.2
										c0,0,0.1,0.1,0.1,0.1c0.1,0,0.3,0,0.6,0h0.7l0.2,1c0,0.1,0.1,0.2,0.1,0.4c0,0.2,0.1,0.3,0.1,0.3s0.1,0.2,0.1,0.3
										c0,0.1,0.1,0.2,0.1,0.2s0.1,0.1,0.1,0.2c0,0.1,0.1,0.1,0.2,0.1c0.1,0,0.2,0,0.2,0c0.2,0,0.3-0.1,0.3-0.1
										c0.1-0.1,0.1-0.2,0.1-0.2c0-0.1,0-0.3-0.1-0.6c-0.1-0.3-0.2-0.7-0.3-1l-0.1-0.5c0,0,0.2,0,0.6,0h0.6
										c0.1-0.1,0.1-0.1,0.1-0.1c0-0.2-0.1-0.3-0.2-0.5h-1.4l-0.5-1.9c-0.3-1.4-0.5-2.1-0.5-2.3c0-0.4,0.1-0.6,0.3-0.6
										c0.3,0,0.6,0.1,0.9,0.4c0.3,0.3,0.5,0.7,0.7,1.1c0,0.1,0,0.1,0.1,0.1c0,0,0.1,0,0.2,0h0.1c0.1,0,0.2,0,0.2-0.1
										c0,0,0-0.1,0-0.2c0-0.1-0.1-0.3-0.2-0.5c-0.1-0.2-0.3-0.4-0.4-0.6c-0.2-0.2-0.4-0.4-0.6-0.6c-0.3-0.1-0.5-0.2-0.8-0.2
										c-0.3,0-0.5,0.1-0.7,0.2c-0.2,0.1-0.4,0.4-0.5,0.7c0,0.1,0,0.2,0,0.4v0.2l0.4,1.8c0.3,1.2,0.4,1.9,0.5,1.9c0,0-0.2,0-0.6,0
										H-2173.5z"/>
								</g>
								<g transform="scale(0.707)">
									<path id="MJMATHI-64_1_" class="st10" d="M-2164.6,152.9c0,0,0.3,0,0.9,0.1c0.6,0,0.9,0.1,0.9,0.1c0.1,0,0.2,0,0.2-0.1
										c0-0.1-0.3-1.4-0.9-4c-0.6-2.6-0.9-3.9-1-3.9c0-0.1,0-0.1,0-0.2c0-0.4,0.1-0.6,0.4-0.6c0.1,0,0.2,0,0.3,0.1
										c0.2,0.2,0.4,0.6,0.5,1.3c0.1,0.2,0.1,0.3,0.1,0.3c0,0,0.1,0,0.1,0h0.1h0.1c0.1,0,0.2,0,0.2-0.1c0,0,0-0.1,0-0.2
										c-0.1-0.4-0.2-0.8-0.4-1.1s-0.3-0.4-0.4-0.5c-0.1-0.1-0.2-0.1-0.4-0.2c-0.1,0-0.2,0-0.3,0c-0.3,0-0.5,0.1-0.7,0.2
										s-0.3,0.3-0.4,0.4l-0.1,0.2c0,0,0,0-0.1,0c0,0,0,0-0.1-0.1c-0.5-0.5-1-0.7-1.5-0.7c-0.5,0-0.9,0.2-1.2,0.5
										c-0.4,0.3-0.5,0.9-0.5,1.7c0,0.4,0.1,0.8,0.3,1.3c0.2,0.4,0.4,0.8,0.6,1.1c0.4,0.5,0.8,0.8,1.2,1c0.4,0.2,0.8,0.3,1.1,0.3
										c0.5,0,0.8-0.2,1.1-0.6c0-0.1,0.1-0.1,0.1-0.1c0,0,0.1,0.5,0.3,1.4c0.2,0.9,0.3,1.4,0.4,1.5c0,0.1,0,0.2-0.1,0.2
										c-0.1,0-0.2,0-0.5,0.1h-0.3c-0.1,0.1-0.1,0.1-0.1,0.1s0,0.1,0,0.2C-2164.7,152.8-2164.7,152.9-2164.6,152.9z
										 M-2164.8,148.2c-0.2,0.7-0.5,1-1,1c-0.3,0-0.6-0.1-0.8-0.4c-0.3-0.3-0.5-0.6-0.6-1.1c-0.2-0.7-0.4-1.4-0.5-2.1
										c0,0,0-0.1,0-0.1s0-0.1,0-0.2c0-0.4,0.1-0.7,0.2-0.8s0.3-0.2,0.5-0.2c0.5,0,0.9,0.3,1.4,0.9l0.1,0.1L-2164.8,148.2z"/>
								</g>
							</g>
						</g>
					</g>
				</g>
			</g>
			<g>
				<g transform="translate(0,627.22)translate(-48.978515625,0)" pointer-events="none">
					<g transform="matrix(1 0 0 -1 0 0)">
						<g>
							<path id="MJMATHI-77" class="st11" d="M111.5,3c0,0.3,0.1,0.5,0.3,0.7c0.2,0.2,0.5,0.3,0.8,0.4c0.2,0,0.4-0.1,0.6-0.3
								c0.2-0.2,0.3-0.6,0.3-1.1c0-0.4-0.1-1.1-0.3-2.1c-0.2-0.7-0.3-1.3-0.5-1.7s-0.4-0.9-0.6-1.5s-0.6-1-1-1.3
								c-0.4-0.3-0.8-0.4-1.3-0.4c-0.5,0-1,0.1-1.4,0.3c-0.4,0.2-0.7,0.5-0.9,0.8c0,0,0,0-0.1-0.1c-0.5-0.7-1.1-1-1.8-1
								c-0.3,0-0.6,0-0.9,0.1c-0.3,0.1-0.6,0.2-0.8,0.4c-0.3,0.2-0.5,0.4-0.7,0.7S103-2.4,103-2c0,0.7,0.2,1.6,0.6,2.7
								c0.4,1.1,0.6,1.9,0.6,2.2c0,0,0,0,0,0c0,0.1,0,0.2,0,0.2s0,0.1-0.1,0.1c0,0-0.1,0.1-0.2,0.1h-0.1c-0.3,0-0.5-0.1-0.8-0.4
								s-0.4-0.5-0.5-0.8s-0.2-0.5-0.3-0.8c-0.1-0.2-0.1-0.4-0.1-0.4c0,0-0.1,0-0.3,0h-0.3c-0.1,0.1-0.1,0.1-0.1,0.2
								c0,0.1,0,0.2,0.1,0.5c0.1,0.3,0.2,0.6,0.4,0.9s0.4,0.7,0.8,1S103.6,4,104,4c0.5,0,0.9-0.2,1.2-0.5c0.3-0.3,0.4-0.7,0.4-1.1
								c0-0.2-0.2-0.9-0.6-2s-0.6-2-0.6-2.6c0-0.6,0.1-1,0.4-1.2c0.3-0.2,0.6-0.4,1-0.4c0.5,0,1,0.4,1.4,1.1l0.1,0.2v0.4
								c0,0,0,0.1,0,0.2c0,0.1,0,0.1,0,0.1c0,0,0,0.1,0,0.1c0,0.1,0,0.1,0,0.2c0,0,0,0.1,0.1,0.2c0,0.1,0,0.2,0.1,0.3
								c0,0.1,0,0.2,0.1,0.4c0.1,0.2,0.1,0.4,0.1,0.6c0,0.2,0.1,0.5,0.2,0.8c0.3,1.4,0.5,2.2,0.6,2.3c0.2,0.3,0.4,0.5,0.8,0.5
								c0.2,0,0.4-0.1,0.5-0.2s0.1-0.2,0.1-0.4c0-0.2-0.2-1-0.5-2.4s-0.5-2.2-0.6-2.4c0-0.1,0-0.4,0-0.6v-0.1c0-0.2,0-0.4,0.1-0.5
								c0-0.2,0.1-0.4,0.3-0.5c0.2-0.2,0.5-0.3,0.8-0.3c0.8,0,1.5,0.8,2,2.3c0.1,0.3,0.2,0.7,0.4,1.2c0.1,0.5,0.2,0.9,0.2,1.1
								c0,0.4-0.1,0.7-0.2,1c-0.2,0.2-0.3,0.4-0.5,0.6C111.6,2.6,111.5,2.8,111.5,3z"/>
						</g>
						<g>
							<path id="MJMATHI-53_1_" class="st11" d="M119.5-3.7c0.7,0,1.4,0.3,1.9,1c0.6,0.6,0.9,1.4,0.9,2.2c0,0.8-0.3,1.3-0.9,1.6
								c-1.3,0.3-2.1,0.6-2.4,0.7c-0.4,0.1-0.6,0.2-0.8,0.4c-0.7,0.5-1.1,1.3-1.1,2.2c0,0.8,0.2,1.4,0.6,2.1
								c0.4,0.6,0.8,1.1,1.2,1.4c0.3,0.3,0.8,0.6,1.3,0.7c0.5,0.2,0.9,0.3,1.1,0.3h0.2h0.1c1.1,0,2-0.4,2.5-1.2c0,0,0.1,0.1,0.2,0.2
								c0.1,0.2,0.3,0.3,0.5,0.5c0.2,0.2,0.3,0.3,0.4,0.4c0,0,0,0,0.1,0c0,0,0.1,0,0.1,0c0.2,0,0.2,0,0.2-0.1c0-0.1-0.2-0.8-0.5-2.2
								c-0.3-1.4-0.5-2.1-0.6-2.2c0,0-0.1-0.1-0.3-0.1c-0.2,0-0.4,0.1-0.4,0.2c0,0.1,0,0.1,0,0.2c0,0,0,0.2,0,0.4c0,0.2,0,0.4,0,0.5
								c0,0.4-0.1,0.8-0.2,1.1c-0.1,0.3-0.2,0.5-0.3,0.7c-0.1,0.1-0.3,0.3-0.4,0.5c-0.4,0.3-0.9,0.4-1.5,0.4c-0.7,0-1.3-0.3-1.9-0.9
								c-0.6-0.6-0.9-1.2-0.9-2c0-0.4,0.1-0.7,0.3-1c0.2-0.3,0.4-0.5,0.7-0.6c0,0,0.5-0.1,1.3-0.4s1.2-0.3,1.2-0.3
								c0.4-0.1,0.8-0.4,1.2-0.9c0.4-0.5,0.6-1.1,0.6-1.9c0-0.3,0-0.7-0.1-1c-0.1-0.3-0.2-0.6-0.3-0.9c-0.2-0.3-0.4-0.7-0.6-1.1
								c-0.3-0.4-0.7-0.8-1.2-1.1c-0.5-0.3-1.1-0.6-1.7-0.7c-0.1,0-0.3,0-0.6,0c-1.2,0-2.1,0.3-2.8,1l-0.2,0.2l-0.5-0.6
								c-0.3-0.3-0.4-0.5-0.5-0.6c-0.1,0-0.1-0.1-0.2-0.1c-0.2,0-0.2,0-0.2,0.1c0,0,0.3,1.5,1,4.4c0,0.1,0.1,0.1,0.4,0.1h0.2
								c0.1-0.1,0.1-0.1,0.1-0.2c0,0,0-0.1,0-0.2c0-0.1,0-0.2-0.1-0.4c0-0.2,0-0.4,0-0.6c0-0.5,0.1-0.9,0.3-1.2s0.4-0.6,0.8-0.7
								c0.3-0.2,0.6-0.3,0.9-0.3C118.9-3.7,119.2-3.7,119.5-3.7z"/>
						</g>
						<g>
							<path id="MJMATHI-4D_1_" class="st11" d="M130.7,7.5c0,0.1-0.3,0.1-1,0.1c-0.3,0-0.5,0-0.6,0S129,7.8,129,7.9
								c0,0,0,0.1,0,0.2c0,0,0,0.1,0,0.1c0,0,0,0.1,0,0.1c0,0,0,0,0,0.1c0,0,0,0.1,0,0.1s0,0,0.1,0s0.1,0,0.1,0c0,0,0.1,0,0.1,0
								c0.1,0,0.2,0,0.2,0c0.1,0,0.3,0,0.5,0s0.6,0,0.8,0c0.9,0,1.5,0,1.6,0c0.1,0,0.2,0,0.3-0.1c0,0,0.2-1.8,0.7-5.2l0.6-5.2
								l0.4,0.7c0.3,0.4,0.7,1.1,1.1,1.9c0.5,0.8,1,1.7,1.6,2.6c2.1,3.4,3.1,5.2,3.2,5.2c0,0,0,0,0.1,0.1c0,0,0,0,0.1,0.1l0.1,0h1.7
								c0.2,0,0.4,0,0.7,0c0.3,0,0.4,0,0.5,0c0.4,0,0.6-0.1,0.6-0.2c0-0.1,0-0.2-0.1-0.3s-0.1-0.2-0.1-0.2c0-0.1-0.3-0.1-0.7-0.1
								c-0.5,0-0.8,0-0.9-0.1c-0.1,0-0.2-0.1-0.3-0.2c0-0.1-0.5-1.8-1.3-5.2c-0.8-3.4-1.2-5.2-1.3-5.2c0,0,0-0.1,0-0.1
								s0.1,0,0.1-0.1c0.1,0,0.2,0,0.3,0c0.1,0,0.3,0,0.6,0h0.6c0.1-0.1,0.1-0.2,0.1-0.2c0-0.2,0-0.4-0.1-0.6
								c-0.1-0.1-0.2-0.1-0.3-0.1c-0.1,0-0.3,0-0.7,0s-1,0-1.6,0c-0.7,0-1.3,0-1.6,0c-0.4,0-0.6,0-0.6,0c-0.2,0-0.3,0.1-0.3,0.2
								c0,0,0,0.1,0,0.3c0,0.2,0.1,0.3,0.1,0.3s0.2,0,0.4,0.1c0.3,0,0.7,0,1.1,0.1c0.2,0,0.3,0.1,0.3,0.2c0,0,0.3,1,0.7,2.7
								s0.9,3.5,1.3,5.2s0.6,2.6,0.6,2.6l-3.5-5.7C134.9-2,133.7-4,133.7-4c0,0,0,0-0.1,0c-0.1,0-0.2-0.1-0.3-0.1
								c-0.2,0-0.3,0-0.3,0.1c0,0-0.3,2-0.7,5.7l-0.7,5.7l-1.2-5c-0.8-3.3-1.2-5-1.2-5.1c0.1-0.4,0.5-0.6,1.3-0.6h0.2
								c0.1-0.1,0.1-0.1,0.1-0.2c0,0,0-0.2-0.1-0.3c0-0.2-0.1-0.3-0.1-0.3c0,0-0.1,0-0.2,0c0,0-0.1,0-0.2,0s-0.3,0-0.6,0
								s-0.7,0-1.1,0c-0.4,0-0.7,0-1.1,0c-0.4,0-0.6,0-0.7,0c-0.2,0-0.3,0-0.3,0c0,0-0.1,0.1-0.1,0.2c0,0,0,0.1,0.1,0.3
								c0,0.1,0.1,0.2,0.1,0.3c0,0.1,0.2,0.1,0.4,0.1c0.8,0,1.4,0.2,1.6,0.7c0,0.1,0.5,1.7,1.2,5S130.7,7.4,130.7,7.5z"/>
						</g>
						<g>
							<path id="MJMATHI-49" class="st11" d="M145.2-4.1c-0.2,0-0.3,0.1-0.3,0.2c0,0,0,0.1,0.1,0.3c0.1,0.2,0.1,0.4,0.2,0.4
								c0,0,0.1,0,0.3,0h0.1c0.7,0,1.2,0,1.4,0.1c0,0,0,0,0,0c0.1,0,0.1,0.2,0.2,0.4s0.4,1.5,0.9,3.6c0.1,0.6,0.3,1,0.3,1.3
								c0.8,3.5,1.3,5.2,1.3,5.2c0,0,0,0.1,0,0.1c-0.1,0.1-0.5,0.1-1.3,0.1h-0.4c-0.1,0.1-0.1,0.2-0.1,0.5c0,0.2,0.1,0.3,0.1,0.3
								s0.1,0.1,0.3,0.1h0.1c0.9,0,1.7,0,2.6,0c1.5,0,2.2,0,2.3,0h0.2c0.1-0.1,0.1-0.2,0.1-0.2s0-0.2-0.1-0.3s-0.1-0.3-0.1-0.3
								c0,0-0.2,0-0.4,0c-0.4,0-0.8,0-1.1-0.1c-0.2,0-0.3-0.1-0.3-0.2c-0.1-0.2-0.4-1.4-0.9-3.5c-0.1-0.6-0.3-1.1-0.4-1.7
								c-0.8-3.4-1.3-5.2-1.3-5.2c0-0.1,0.1-0.1,0.2-0.2c0.1,0,0.4,0,0.9-0.1h0.6c0.1-0.1,0.1-0.2,0.1-0.2c0,0,0-0.1-0.1-0.3
								c0-0.2-0.1-0.3-0.2-0.4h-0.3c-0.4,0-1.3,0-2.5,0c-0.4,0-0.8,0-1.2,0c-0.4,0-0.6,0-0.9,0S145.2-4.1,145.2-4.1z"/>
						</g>
						<g transform="translate(2918,0)">
							<g>
								<path id="MJMATHI-3B1" class="st11" d="M-2763.9-1.2c0,1.4,0.5,2.6,1.5,3.7c1,1.1,2.2,1.6,3.4,1.6c0.8,0,1.5-0.2,2-0.7
									s0.8-1.1,1-1.8c0.1-0.4,0.1-0.8,0.1-1.2v-0.5c0.6,0.9,1,1.9,1.3,3.1c0,0.2,0.1,0.3,0.1,0.3s0.1,0,0.3,0.1
									c0.3,0,0.4,0,0.4-0.1c0-0.1-0.1-0.4-0.2-0.7c-0.1-0.4-0.3-0.9-0.6-1.6s-0.7-1.3-1.1-1.9l-0.2-0.3l0-0.4
									c0-0.7,0.1-1.2,0.1-1.4s0.2-0.4,0.3-0.4c0.2,0,0.3,0.1,0.5,0.2c0.1,0.1,0.2,0.3,0.3,0.4c0,0.1,0.1,0.1,0.1,0.1
									c0,0,0.1,0,0.3,0c0.2,0,0.4,0,0.4-0.1c0-0.1,0-0.2-0.1-0.4c-0.1-0.3-0.4-0.5-0.6-0.7c-0.3-0.2-0.5-0.3-0.8-0.3h-0.1
									c-0.8,0-1.3,0.4-1.6,1.3l-0.1,0.1l-0.2-0.1c-0.1-0.1-0.3-0.2-0.5-0.4s-0.5-0.3-0.8-0.4s-0.6-0.3-1-0.4
									c-0.4-0.1-0.8-0.2-1.1-0.2c-0.9,0-1.7,0.3-2.2,0.9S-2763.9-2.1-2763.9-1.2z M-2760.8-3.6c0.6,0,1.2,0.1,1.8,0.4
									s1,0.5,1.3,0.8l0.4,0.4c0,1.8-0.1,2.9-0.1,3.3c-0.2,1.4-0.7,2.1-1.6,2.1c-0.8,0-1.5-0.5-2.2-1.4c-0.3-0.5-0.6-1.2-0.8-2
									c-0.2-0.8-0.3-1.5-0.3-1.9c0-0.6,0.1-1,0.4-1.3S-2761.3-3.6-2760.8-3.6z"/>
							</g>
							<g transform="translate(640,-150)">
								<g transform="scale(0.707)">
									<path id="MJMATHI-6D" class="st12" d="M-3392.8,146.9c0,0.1,0,0.1,0,0.2s0.1,0.3,0.2,0.5c0.1,0.2,0.2,0.4,0.3,0.6
										s0.2,0.3,0.4,0.5c0.2,0.2,0.4,0.2,0.6,0.2c0.2,0,0.4,0,0.5-0.1s0.3-0.1,0.4-0.2c0.1-0.1,0.1-0.2,0.2-0.3
										c0.1-0.1,0.1-0.2,0.1-0.2l0-0.1c0,0,0,0,0,0l0.1,0.1c0.5,0.6,1.1,0.8,1.8,0.8c0.1,0,0.3,0,0.4,0c0.1,0,0.2,0,0.3-0.1
										c0.1,0,0.2-0.1,0.2-0.1c0.1,0,0.1-0.1,0.2-0.2c0.1-0.1,0.1-0.1,0.1-0.2c0-0.1,0.1-0.1,0.1-0.2c0.1-0.1,0.1-0.1,0.1-0.2
										c0,0,0-0.1,0-0.1c0,0,0.1-0.1,0-0.1l0.1,0.1c0.5,0.7,1.2,1,1.9,1c0.5,0,0.8-0.1,1.1-0.4c0.3-0.2,0.4-0.6,0.4-1
										c0-0.4-0.2-1.1-0.5-2.1c-0.3-0.9-0.5-1.5-0.5-1.7c0-0.1,0-0.2,0.1-0.2c0,0,0.1-0.1,0.2-0.1c0.2,0,0.5,0.1,0.7,0.4
										c0.2,0.3,0.4,0.6,0.5,1.1c0,0.1,0.1,0.2,0.1,0.2s0.1,0,0.2,0c0.2,0,0.3,0,0.3-0.1c0,0,0-0.1-0.1-0.2
										c-0.1-0.3-0.2-0.5-0.3-0.7c-0.1-0.2-0.3-0.5-0.6-0.7c-0.3-0.2-0.6-0.4-0.9-0.4c-0.4,0-0.7,0.1-0.9,0.4
										c-0.2,0.2-0.3,0.5-0.3,0.7c0,0.2,0.2,0.7,0.5,1.6s0.5,1.5,0.5,2c0,0.5-0.2,0.8-0.6,0.8h-0.1c-0.7,0-1.3-0.4-1.8-1.3
										l-0.1-0.2l-0.4-1.8c-0.3-1.1-0.4-1.8-0.5-1.8c-0.1-0.2-0.3-0.4-0.5-0.4c-0.1,0-0.2,0-0.3,0.1c-0.1,0.1-0.1,0.1-0.1,0.2
										c0,0,0,0.1,0,0.1c0,0.1,0.1,0.7,0.4,1.9l0.5,1.9c0,0.1,0,0.3,0,0.5c0,0.5-0.2,0.8-0.6,0.8h-0.1c-0.7,0-1.3-0.4-1.8-1.3
										l-0.1-0.2l-0.4-1.8c-0.3-1.1-0.4-1.8-0.5-1.8c-0.1-0.2-0.3-0.4-0.5-0.4c-0.1,0-0.2,0-0.3,0.1c-0.1,0.1-0.1,0.1-0.1,0.2
										c0,0.1,0,0.1,0,0.1c0,0.1,0.2,0.8,0.5,2.1c0.3,1.3,0.5,2,0.5,2.1c0,0.1,0,0.2,0,0.4c0,0.3-0.1,0.5-0.3,0.5
										c-0.2,0-0.3-0.1-0.5-0.4s-0.2-0.5-0.3-0.8c-0.1-0.3-0.1-0.4-0.2-0.5c0,0-0.1,0-0.2,0h-0.2
										C-3392.8,146.8-3392.8,146.8-3392.8,146.9z"/>
								</g>
								<g transform="scale(0.707)">
									<path id="MJMATHI-65" class="st12" d="M-3381.4,145.3c0,0.5,0.1,1,0.2,1.4c0.2,0.4,0.4,0.8,0.6,1c0.3,0.3,0.5,0.5,0.8,0.7
										c0.3,0.2,0.6,0.3,0.9,0.4s0.5,0.1,0.8,0.1h0c0.4,0,0.7-0.1,1-0.3c0.3-0.2,0.4-0.5,0.4-0.9c0-0.8-0.5-1.3-1.4-1.5
										c-0.4-0.1-1-0.2-1.7-0.2c-0.3,0-0.5,0-0.5,0c0,0,0-0.2-0.1-0.5c-0.1-0.3-0.1-0.5-0.1-0.8c0-0.4,0.1-0.7,0.3-1
										s0.4-0.4,0.8-0.4c0.4,0,0.7,0.1,1.2,0.2c0.4,0.2,0.8,0.5,1.2,0.9c0.1,0.1,0.1,0.1,0.2,0.1c0,0,0.1,0,0.2-0.1
										c0.1-0.1,0.1-0.1,0.1-0.2c0,0,0-0.1-0.1-0.2c-0.1-0.1-0.2-0.2-0.4-0.4s-0.4-0.3-0.6-0.4c-0.2-0.1-0.5-0.2-0.8-0.3
										c-0.3-0.1-0.6-0.1-1-0.1c-0.7,0-1.2,0.2-1.5,0.7C-3381.2,144.1-3381.4,144.7-3381.4,145.3z M-3377.2,147.7
										c-0.1,0.5-0.3,0.7-0.9,0.7c-0.3,0-0.5-0.1-0.8-0.2s-0.4-0.3-0.6-0.4c-0.1-0.2-0.3-0.4-0.4-0.5s-0.2-0.3-0.2-0.5
										c0-0.1-0.1-0.2-0.1-0.2c0,0,0.1,0,0.3,0c1,0,1.6,0.1,2,0.3C-3377.4,147-3377.2,147.3-3377.2,147.7z"/>
								</g>
								<g transform="scale(0.707)">
									<path id="MJMATHI-61" class="st12" d="M-3375.6,145.1c0,0.9,0.3,1.7,1,2.5c0.6,0.8,1.4,1.2,2.2,1.2c0.4,0,0.8-0.2,1.1-0.6
										c0.1,0.3,0.3,0.4,0.6,0.4c0.1,0,0.2,0,0.3-0.1s0.1-0.2,0.1-0.3c0-0.1-0.2-0.8-0.5-2.1c-0.3-1.3-0.5-2-0.5-2.2
										c0-0.2,0-0.4,0.1-0.4s0.1-0.1,0.3-0.1c0.1,0,0.2,0,0.3,0.1c0.2,0.2,0.4,0.6,0.5,1.3c0.1,0.2,0.1,0.3,0.1,0.3
										c0,0,0.1,0,0.1,0h0.1c0.2,0,0.2,0,0.2-0.1c0-0.1,0-0.2-0.1-0.4s-0.1-0.4-0.3-0.7c-0.1-0.3-0.3-0.5-0.4-0.7
										c-0.1-0.1-0.2-0.2-0.4-0.3c-0.1,0-0.2,0-0.3,0c-0.3,0-0.5,0.1-0.7,0.2s-0.3,0.3-0.4,0.4l-0.1,0.2c0,0,0,0-0.1,0
										c0,0,0,0-0.1-0.1c-0.5-0.5-1-0.7-1.5-0.7c-0.5,0-0.9,0.2-1.2,0.5C-3375.4,143.8-3375.6,144.4-3375.6,145.1z M-3371.6,147.4
										c0,0.1,0,0.1-0.1,0.3c0,0.1-0.1,0.3-0.3,0.5c-0.2,0.2-0.3,0.3-0.6,0.3c-0.3,0-0.6-0.1-0.8-0.4c-0.3-0.3-0.5-0.6-0.6-1.1
										c-0.2-0.7-0.4-1.4-0.5-2.1c0,0,0-0.1,0-0.1s0-0.1,0-0.2c0-0.4,0.1-0.7,0.2-0.8c0.2-0.1,0.3-0.2,0.5-0.2
										c0.3,0,0.6,0.1,1,0.4c0.3,0.3,0.5,0.5,0.6,0.7c0,0,0.1,0.5,0.3,1.4C-3371.7,146.8-3371.6,147.3-3371.6,147.4z"/>
								</g>
								<g transform="scale(0.707)">
									<path id="MJMATHI-6E" class="st12" d="M-3369,146.9c0,0.1,0,0.1,0,0.2s0.1,0.3,0.2,0.5c0.1,0.2,0.2,0.4,0.3,0.6
										s0.2,0.3,0.4,0.5c0.2,0.2,0.4,0.2,0.6,0.2c0.3,0,0.6-0.1,0.8-0.2c0.2-0.2,0.3-0.3,0.4-0.4c0.1-0.1,0.1-0.2,0.1-0.3
										c0,0,0,0,0,0l0.1,0.1c0.5,0.6,1.1,0.8,1.8,0.8c0.5,0,0.8-0.1,1.1-0.4c0.3-0.2,0.4-0.6,0.4-1c0-0.5-0.2-1.1-0.5-2.1
										c-0.3-0.9-0.5-1.5-0.5-1.7c0-0.2,0.1-0.3,0.2-0.3c0.1,0,0.1,0,0.1,0c0.2,0,0.5,0.2,0.7,0.5c0.2,0.3,0.3,0.6,0.4,1
										c0,0.1,0.1,0.1,0.3,0.1c0.2,0,0.3,0,0.3-0.1c0,0,0-0.1-0.1-0.2c-0.1-0.3-0.2-0.5-0.3-0.7c-0.1-0.2-0.3-0.5-0.6-0.7
										c-0.3-0.2-0.6-0.4-0.9-0.4c-0.4,0-0.7,0.1-0.9,0.4c-0.2,0.2-0.3,0.5-0.3,0.7c0,0.2,0.2,0.7,0.5,1.6s0.5,1.5,0.5,2
										c0,0.5-0.2,0.8-0.6,0.8h-0.1c-0.7,0-1.3-0.4-1.8-1.3l-0.1-0.2l-0.4-1.8c-0.3-1.1-0.4-1.8-0.5-1.8c-0.1-0.2-0.3-0.4-0.5-0.4
										c-0.1,0-0.2,0-0.3,0.1s-0.1,0.1-0.1,0.2c0,0.1,0,0.1,0,0.1c0,0.1,0.2,0.8,0.5,2.1c0.3,1.3,0.5,2,0.5,2.1c0,0,0,0.1,0,0.3
										c0,0.3-0.1,0.5-0.3,0.5c-0.3,0-0.6-0.4-0.8-1.3c-0.1-0.2-0.1-0.3-0.1-0.3c0-0.1-0.1-0.1-0.2-0.1h-0.2
										C-3369,146.8-3369,146.8-3369,146.9z"/>
								</g>
							</g>
						</g>
					</g>
				</g>
			</g>
			<g>
				<g transform="translate(0,552.3299999999999)translate(-35.84326171875,0)" pointer-events="none">
					<g transform="matrix(1 0 0 -1 0 0)">
						<g>
							<path id="MJMATHI-50_1_" class="st13" d="M118.3,7.8c0,0.1-0.3,0.1-1,0.2c-0.3,0-0.5,0-0.6,0s-0.1,0.1-0.1,0.2
								c0,0,0,0.1,0,0.2c0.1,0.2,0.1,0.4,0.2,0.4c0,0,1.2,0,3.5,0c2.3,0,3.5,0,3.6-0.1c0.8-0.1,1.4-0.4,1.9-0.9
								c0.5-0.5,0.8-1.1,0.8-1.9c0-1-0.4-1.8-1.2-2.6c-0.8-0.8-1.9-1.4-3.2-1.6c-0.1,0-0.7,0-1.9,0h-1.7l-0.5-2.2
								c-0.4-1.4-0.5-2.2-0.5-2.3c0,0,0-0.1,0-0.1c0,0,0.1,0,0.1-0.1c0.1,0,0.2,0,0.3,0s0.3,0,0.6,0h0.6c0.1-0.1,0.1-0.2,0.1-0.2
								c0-0.2,0-0.4-0.1-0.6c-0.1-0.1-0.2-0.1-0.3-0.1c0,0-0.3,0-0.7,0c-0.4,0-1,0-1.8,0c-0.7,0-1.3,0-1.7,0c-0.4,0-0.6,0-0.6,0
								c-0.2,0-0.3,0.1-0.3,0.2c0,0,0,0.1,0.1,0.3c0,0.2,0.1,0.3,0.1,0.3c0,0,0.2,0,0.4,0.1c0.3,0,0.7,0,1.1,0.1
								c0.2,0,0.3,0.1,0.3,0.2c0,0,0.5,1.8,1.3,5.2S118.3,7.6,118.3,7.8z M124.7,6.4c0,0.2,0,0.3,0,0.4c0,0.1-0.1,0.2-0.2,0.4
								c-0.1,0.2-0.2,0.3-0.4,0.4s-0.5,0.2-0.9,0.3c-0.1,0-0.6,0-1.4,0c-0.2,0-0.4,0-0.6,0c-0.2,0-0.4,0-0.5,0s-0.2,0-0.2,0
								c-0.2,0-0.3-0.1-0.3-0.2c0-0.1-0.1-0.5-0.3-1.4c-0.2-0.9-0.4-1.7-0.6-2.6c-0.2-0.8-0.3-1.2-0.3-1.3c0,0,0.5,0,1.5,0h0.2h0.4
								c1.3,0,2.3,0.3,2.9,0.9c0.3,0.3,0.6,0.8,0.7,1.5C124.6,5.5,124.7,6,124.7,6.4z"/>
						</g>
						<g>
							<path id="MJMATHI-45" class="st13" d="M135.4,0.1c-0.2,0-0.4,0.1-0.4,0.2c0,0,0,0.2,0.1,0.4c0.1,0.2,0.1,0.5,0.1,0.6
								c0,0.4-0.1,0.6-0.4,0.7c-0.3,0.1-0.8,0.1-1.7,0.1h-0.9c0,0-0.2-0.9-0.6-2.6C131.2-2,131-2.8,131-2.9c0,0,0.1-0.1,0.2-0.1
								c0.1,0,0.6,0,1.4,0c1.1,0,1.9,0,2.2,0c0.4,0,0.7,0.1,1.1,0.2c0.6,0.2,1.1,0.5,1.5,1s0.8,1.3,1.3,2.4c0.1,0.3,0.2,0.4,0.2,0.4
								c0.1,0,0.2,0,0.3,0c0.2,0,0.4-0.1,0.4-0.2c-1.3-3.1-1.9-4.7-2-4.8c0,0-1.7,0-5.1,0H129c-1.2,0-1.8,0.1-1.8,0.2
								c0,0,0,0.1,0.1,0.3c0,0.2,0.1,0.3,0.1,0.3c0,0,0.2,0,0.4,0.1c0.3,0,0.7,0,1.1,0.1c0.2,0,0.3,0.1,0.3,0.2
								c0,0.1,0.4,1.8,1.3,5.2c0.8,3.4,1.2,5.1,1.3,5.2c0,0.1,0,0.1-0.1,0.1c-0.1,0-0.4,0.1-1,0.1h-0.6C130.1,8,130,8,130,8.1
								s0,0.1,0,0.3c0,0.2,0.1,0.3,0.2,0.4h9.9c0.1,0,0.1-0.1,0.1-0.2c0-0.1-0.1-0.8-0.2-2.1s-0.2-2-0.3-2c0-0.1-0.1-0.1-0.4-0.1
								h-0.2c-0.1,0.1-0.1,0.1-0.1,0.2l0.1,0.4c0,0.3,0.1,0.6,0.1,1c0,0.4,0,0.7-0.1,0.9c-0.1,0.2-0.2,0.4-0.3,0.6
								c-0.1,0.1-0.4,0.2-0.6,0.3c-0.3,0.1-0.6,0.1-0.8,0.1c-0.3,0-0.7,0-1.1,0h-0.8c-1.1,0-1.6,0-1.7-0.1c0,0-0.1-0.1-0.1-0.2
								c0,0-0.2-0.8-0.6-2.3s-0.5-2.2-0.6-2.3c0.3,0,0.6,0,0.9,0h0.5c0.8,0,1.3,0.1,1.6,0.3c0.3,0.2,0.6,0.7,0.8,1.5
								c0,0.2,0.1,0.3,0.1,0.3c0,0,0.1,0,0.3,0.1c0.1,0,0.1,0,0.1,0s0.1,0,0.1,0c0,0,0,0,0,0s0,0,0-0.1s0-0.1,0.1-0.1l-0.6-2.4
								c-0.4-1.6-0.6-2.5-0.6-2.5C135.7,0.1,135.6,0.1,135.4,0.1z"/>
						</g>
						<g transform="translate(1516,0)">
							<g>
								<path id="MJMATHI-3B1_1_" class="st13" d="M-1375.1-0.9c0,1.4,0.5,2.6,1.5,3.7c1,1.1,2.2,1.6,3.4,1.6c0.8,0,1.5-0.2,2-0.7
									s0.8-1.1,1-1.8c0.1-0.4,0.1-0.8,0.1-1.2V0c0.6,0.9,1,1.9,1.3,3.1c0,0.2,0.1,0.3,0.1,0.3c0,0,0.1,0,0.3,0.1
									c0.3,0,0.4,0,0.4-0.1c0-0.1-0.1-0.4-0.2-0.7s-0.3-0.9-0.6-1.6c-0.3-0.7-0.7-1.3-1.1-1.9l-0.2-0.3l0-0.4
									c0-0.7,0.1-1.2,0.1-1.4c0.1-0.2,0.2-0.4,0.3-0.4c0.2,0,0.3,0.1,0.5,0.2c0.1,0.1,0.2,0.3,0.3,0.4c0,0.1,0.1,0.1,0.1,0.1
									s0.1,0,0.3,0c0.2,0,0.4,0,0.4-0.1c0-0.1,0-0.2-0.1-0.4c-0.1-0.3-0.4-0.5-0.6-0.7s-0.5-0.3-0.8-0.3h-0.1
									c-0.8,0-1.3,0.4-1.6,1.3l-0.1,0.1l-0.2-0.1c-0.1-0.1-0.3-0.2-0.5-0.4c-0.2-0.1-0.5-0.3-0.8-0.4c-0.3-0.1-0.6-0.3-1-0.4
									c-0.4-0.1-0.8-0.2-1.1-0.2c-0.9,0-1.7,0.3-2.2,0.9S-1375.1-1.8-1375.1-0.9z M-1371.9-3.4c0.6,0,1.2,0.1,1.8,0.4
									s1,0.5,1.3,0.8l0.4,0.4c0,1.8-0.1,2.9-0.1,3.3c-0.2,1.4-0.7,2.1-1.6,2.1c-0.8,0-1.5-0.5-2.2-1.4c-0.3-0.5-0.6-1.2-0.8-2
									c-0.2-0.8-0.3-1.5-0.3-1.9c0-0.6,0.1-1,0.4-1.3C-1372.8-3.2-1372.4-3.3-1371.9-3.4z"/>
							</g>
							<g transform="translate(640,-150)">
								<g transform="scale(0.707)">
									<path id="MJMATHI-6D_1_" class="st14" d="M-2003.9,147.1c0,0.1,0,0.1,0,0.2c0,0.1,0.1,0.3,0.2,0.5c0.1,0.2,0.2,0.4,0.3,0.6
										c0.1,0.2,0.2,0.3,0.4,0.5c0.2,0.2,0.4,0.2,0.6,0.2c0.2,0,0.4,0,0.5-0.1c0.2-0.1,0.3-0.1,0.4-0.2c0.1-0.1,0.1-0.2,0.2-0.3
										s0.1-0.2,0.1-0.2l0-0.1c0,0,0,0,0,0l0.1,0.1c0.5,0.6,1.1,0.8,1.8,0.8c0.1,0,0.3,0,0.4,0c0.1,0,0.2,0,0.3-0.1
										c0.1,0,0.2-0.1,0.2-0.1c0.1,0,0.1-0.1,0.2-0.2s0.1-0.1,0.1-0.2c0-0.1,0.1-0.1,0.1-0.2c0.1-0.1,0.1-0.1,0.1-0.2
										c0,0,0-0.1,0-0.1c0,0,0.1-0.1,0-0.1l0.1,0.1c0.5,0.7,1.2,1,1.9,1c0.5,0,0.8-0.1,1.1-0.4c0.3-0.2,0.4-0.6,0.4-1
										c0-0.4-0.2-1.1-0.5-2.1c-0.3-0.9-0.5-1.5-0.5-1.7c0-0.1,0-0.2,0.1-0.2s0.1-0.1,0.2-0.1c0.2,0,0.5,0.1,0.7,0.4
										s0.4,0.6,0.5,1.1c0,0.1,0.1,0.2,0.1,0.2c0,0,0.1,0,0.2,0c0.2,0,0.3,0,0.3-0.1c0,0,0-0.1-0.1-0.2c-0.1-0.3-0.2-0.5-0.3-0.7
										s-0.3-0.5-0.6-0.7c-0.3-0.2-0.6-0.4-0.9-0.4c-0.4,0-0.7,0.1-0.9,0.4c-0.2,0.2-0.3,0.5-0.3,0.7c0,0.2,0.2,0.7,0.5,1.6
										s0.5,1.5,0.5,2c0,0.5-0.2,0.8-0.6,0.8h-0.1c-0.7,0-1.3-0.4-1.8-1.3l-0.1-0.2l-0.4-1.8c-0.3-1.1-0.4-1.8-0.5-1.8
										c-0.1-0.2-0.3-0.4-0.5-0.4c-0.1,0-0.2,0-0.3,0.1s-0.1,0.1-0.1,0.2c0,0,0,0.1,0,0.1c0,0.1,0.1,0.7,0.4,1.9l0.5,1.9
										c0,0.1,0,0.3,0,0.5c0,0.5-0.2,0.8-0.6,0.8h-0.1c-0.7,0-1.3-0.4-1.8-1.3l-0.1-0.2l-0.4-1.8c-0.3-1.1-0.4-1.8-0.5-1.8
										c-0.1-0.2-0.3-0.4-0.5-0.4c-0.1,0-0.2,0-0.3,0.1c-0.1,0.1-0.1,0.1-0.1,0.2c0,0.1,0,0.1,0,0.1c0,0.1,0.2,0.8,0.5,2.1
										c0.3,1.3,0.5,2,0.5,2.1c0,0.1,0,0.2,0,0.4c0,0.3-0.1,0.5-0.3,0.5c-0.2,0-0.3-0.1-0.5-0.4s-0.2-0.5-0.3-0.8
										c-0.1-0.3-0.1-0.4-0.2-0.5c0,0-0.1,0-0.2,0h-0.2C-2003.9,147.1-2003.9,147.1-2003.9,147.1z"/>
								</g>
								<g transform="scale(0.707)">
									<path id="MJMATHI-65_1_" class="st14" d="M-1992.6,145.6c0,0.5,0.1,1,0.2,1.4c0.2,0.4,0.4,0.8,0.6,1
										c0.3,0.3,0.5,0.5,0.8,0.7c0.3,0.2,0.6,0.3,0.9,0.4c0.3,0.1,0.5,0.1,0.8,0.1h0c0.4,0,0.7-0.1,1-0.3c0.3-0.2,0.4-0.5,0.4-0.9
										c0-0.8-0.5-1.3-1.4-1.5c-0.4-0.1-1-0.2-1.7-0.2c-0.3,0-0.5,0-0.5,0c0,0,0-0.2-0.1-0.5s-0.1-0.5-0.1-0.8
										c0-0.4,0.1-0.7,0.3-1c0.2-0.2,0.4-0.4,0.8-0.4c0.4,0,0.7,0.1,1.2,0.2c0.4,0.2,0.8,0.5,1.2,0.9c0.1,0.1,0.1,0.1,0.2,0.1
										c0,0,0.1,0,0.2-0.1s0.1-0.1,0.1-0.2s0-0.1-0.1-0.2c-0.1-0.1-0.2-0.2-0.4-0.4c-0.2-0.1-0.4-0.3-0.6-0.4
										c-0.2-0.1-0.5-0.2-0.8-0.3s-0.6-0.1-1-0.1c-0.7,0-1.2,0.2-1.5,0.7S-1992.6,144.9-1992.6,145.6z M-1988.3,148
										c-0.1,0.5-0.3,0.7-0.9,0.7c-0.3,0-0.5-0.1-0.8-0.2c-0.2-0.1-0.4-0.3-0.6-0.4s-0.3-0.4-0.4-0.5c-0.1-0.2-0.2-0.3-0.2-0.5
										c0-0.1-0.1-0.2-0.1-0.2c0,0,0.1,0,0.3,0c1,0,1.6,0.1,2,0.3C-1988.5,147.3-1988.4,147.6-1988.3,148z"/>
								</g>
								<g transform="scale(0.707)">
									<path id="MJMATHI-61_1_" class="st14" d="M-1986.7,145.4c0,0.9,0.3,1.7,1,2.5s1.4,1.2,2.2,1.2c0.4,0,0.8-0.2,1.1-0.6
										c0.1,0.3,0.3,0.4,0.6,0.4c0.1,0,0.2,0,0.3-0.1c0.1-0.1,0.1-0.2,0.1-0.3c0-0.1-0.2-0.8-0.5-2.1c-0.3-1.3-0.5-2-0.5-2.2
										c0-0.2,0-0.4,0.1-0.4c0.1-0.1,0.1-0.1,0.3-0.1c0.1,0,0.2,0,0.3,0.1c0.2,0.2,0.4,0.6,0.5,1.3c0.1,0.2,0.1,0.3,0.1,0.3
										c0,0,0.1,0,0.1,0h0.1c0.2,0,0.2,0,0.2-0.1c0-0.1,0-0.2-0.1-0.4c0-0.2-0.1-0.4-0.3-0.7c-0.1-0.3-0.3-0.5-0.4-0.7
										c-0.1-0.1-0.2-0.2-0.4-0.3c-0.1,0-0.2,0-0.3,0c-0.3,0-0.5,0.1-0.7,0.2s-0.3,0.3-0.4,0.4l-0.1,0.2c0,0,0,0-0.1,0
										c0,0,0,0-0.1-0.1c-0.5-0.5-1-0.7-1.5-0.7c-0.5,0-0.9,0.2-1.2,0.5C-1986.6,144.1-1986.7,144.7-1986.7,145.4z M-1982.7,147.7
										c0,0.1,0,0.1-0.1,0.3c0,0.1-0.1,0.3-0.3,0.5c-0.2,0.2-0.3,0.3-0.6,0.3c-0.3,0-0.6-0.1-0.8-0.4c-0.3-0.3-0.5-0.6-0.6-1.1
										c-0.2-0.7-0.4-1.4-0.5-2.1c0,0,0-0.1,0-0.1c0-0.1,0-0.1,0-0.2c0-0.4,0.1-0.7,0.2-0.8c0.2-0.1,0.3-0.2,0.5-0.2
										c0.3,0,0.6,0.1,1,0.4c0.3,0.3,0.5,0.5,0.6,0.7c0,0,0.1,0.5,0.3,1.4C-1982.8,147.1-1982.7,147.6-1982.7,147.7z"/>
								</g>
								<g transform="scale(0.707)">
									<path id="MJMATHI-6E_1_" class="st14" d="M-1980.2,147.1c0,0.1,0,0.1,0,0.2s0.1,0.3,0.2,0.5c0.1,0.2,0.2,0.4,0.3,0.6
										c0.1,0.2,0.2,0.3,0.4,0.5c0.2,0.2,0.4,0.2,0.6,0.2c0.3,0,0.6-0.1,0.8-0.2c0.2-0.2,0.3-0.3,0.4-0.4c0.1-0.1,0.1-0.2,0.1-0.3
										c0,0,0,0,0,0l0.1,0.1c0.5,0.6,1.1,0.8,1.8,0.8c0.5,0,0.8-0.1,1.1-0.4c0.3-0.2,0.4-0.6,0.4-1c0-0.5-0.2-1.1-0.5-2.1
										c-0.3-0.9-0.5-1.5-0.5-1.7c0-0.2,0.1-0.3,0.2-0.3c0.1,0,0.1,0,0.1,0c0.2,0,0.5,0.2,0.7,0.5s0.3,0.6,0.4,1
										c0,0.1,0.1,0.1,0.3,0.1c0.2,0,0.3,0,0.3-0.1c0,0,0-0.1-0.1-0.2c-0.1-0.3-0.2-0.5-0.3-0.7s-0.3-0.5-0.6-0.7
										c-0.3-0.2-0.6-0.4-0.9-0.4c-0.4,0-0.7,0.1-0.9,0.4c-0.2,0.2-0.3,0.5-0.3,0.7c0,0.2,0.2,0.7,0.5,1.6s0.5,1.5,0.5,2
										c0,0.5-0.2,0.8-0.6,0.8h-0.1c-0.7,0-1.3-0.4-1.8-1.3l-0.1-0.2l-0.4-1.8c-0.3-1.1-0.4-1.8-0.5-1.8c-0.1-0.2-0.3-0.4-0.5-0.4
										c-0.1,0-0.2,0-0.3,0.1c-0.1,0.1-0.1,0.1-0.1,0.2c0,0.1,0,0.1,0,0.1c0,0.1,0.2,0.8,0.5,2.1c0.3,1.3,0.5,2,0.5,2.1
										c0,0,0,0.1,0,0.3c0,0.3-0.1,0.5-0.3,0.5c-0.3,0-0.6-0.4-0.8-1.3c-0.1-0.2-0.1-0.3-0.1-0.3c0-0.1-0.1-0.1-0.2-0.1h-0.2
										C-1980.2,147.1-1980.2,147.1-1980.2,147.1z"/>
								</g>
							</g>
						</g>
					</g>
				</g>
			</g>
			<g>
				<g transform="translate(0,477.44)translate(-40.6181640625,0)" pointer-events="none">
					<g transform="matrix(1 0 0 -1 0 0)">
						<g>
							<path id="MJMATHI-77_1_" class="st15" d="M119.3-0.6c0,0.3,0.1,0.5,0.3,0.7s0.5,0.3,0.8,0.4c0.2,0,0.4-0.1,0.6-0.3
								c0.2-0.2,0.3-0.6,0.3-1.1c0-0.4-0.1-1.1-0.3-2.1c-0.2-0.7-0.3-1.3-0.5-1.7c-0.1-0.4-0.4-0.9-0.6-1.5c-0.3-0.6-0.6-1-1-1.3
								c-0.4-0.3-0.8-0.4-1.3-0.4c-0.5,0-1,0.1-1.4,0.3s-0.7,0.5-0.9,0.8c0,0,0,0-0.1-0.1c-0.5-0.7-1.1-1-1.8-1
								c-0.3,0-0.6,0-0.9,0.1c-0.3,0.1-0.6,0.2-0.8,0.4c-0.3,0.2-0.5,0.4-0.7,0.7c-0.2,0.3-0.3,0.7-0.3,1.2c0,0.7,0.2,1.6,0.6,2.7
								c0.4,1.1,0.6,1.9,0.6,2.2c0,0,0,0,0,0c0,0.1,0,0.2,0,0.2s0,0.1-0.1,0.1s-0.1,0.1-0.2,0.1h-0.1c-0.3,0-0.5-0.1-0.8-0.4
								s-0.4-0.5-0.5-0.8s-0.2-0.5-0.3-0.8s-0.1-0.4-0.1-0.4s-0.1,0-0.3,0h-0.3c-0.1,0.1-0.1,0.1-0.1,0.2c0,0.1,0,0.2,0.1,0.5
								c0.1,0.3,0.2,0.6,0.4,0.9s0.4,0.7,0.8,1c0.3,0.3,0.7,0.4,1.2,0.4c0.5,0,0.9-0.2,1.2-0.5c0.3-0.3,0.4-0.7,0.4-1.1
								c0-0.2-0.2-0.9-0.6-2s-0.6-2-0.6-2.6c0-0.6,0.1-1,0.4-1.2c0.3-0.2,0.6-0.4,1-0.4c0.5,0,1,0.4,1.4,1.1l0.1,0.2v0.4
								c0,0,0,0.1,0,0.2c0,0.1,0,0.1,0,0.1c0,0,0,0.1,0,0.1c0,0.1,0,0.1,0,0.2c0,0,0,0.1,0.1,0.2s0,0.2,0.1,0.3c0,0.1,0,0.2,0.1,0.4
								c0.1,0.2,0.1,0.4,0.1,0.6c0,0.2,0.1,0.5,0.2,0.8c0.3,1.4,0.5,2.2,0.6,2.3c0.2,0.3,0.4,0.5,0.8,0.5c0.2,0,0.4-0.1,0.5-0.2
								c0.1-0.1,0.1-0.2,0.1-0.4c0-0.2-0.2-1-0.5-2.4s-0.5-2.2-0.6-2.4c0-0.1,0-0.4,0-0.6v-0.1c0-0.2,0-0.4,0.1-0.5
								c0-0.2,0.1-0.4,0.3-0.5s0.5-0.3,0.8-0.3c0.8,0,1.5,0.8,2,2.3c0.1,0.3,0.2,0.7,0.4,1.2c0.1,0.5,0.2,0.9,0.2,1.1
								c0,0.4-0.1,0.7-0.2,1c-0.2,0.2-0.3,0.4-0.5,0.6C119.4-0.9,119.3-0.8,119.3-0.6z"/>
						</g>
						<g>
							<path id="MJMATHI-53_2_" class="st15" d="M127.3-7.3c0.7,0,1.4,0.3,1.9,1c0.6,0.6,0.9,1.4,0.9,2.2c0,0.8-0.3,1.3-0.9,1.6
								c-1.3,0.3-2.1,0.6-2.4,0.7s-0.6,0.2-0.8,0.4c-0.7,0.5-1.1,1.3-1.1,2.2c0,0.8,0.2,1.4,0.6,2.1c0.4,0.6,0.8,1.1,1.2,1.4
								c0.3,0.3,0.8,0.6,1.3,0.7c0.5,0.2,0.9,0.3,1.1,0.3h0.2h0.1c1.1,0,2-0.4,2.5-1.2c0,0,0.1,0.1,0.2,0.2s0.3,0.3,0.5,0.5
								c0.2,0.2,0.3,0.3,0.4,0.4c0,0,0,0,0.1,0c0,0,0.1,0,0.1,0c0.2,0,0.2,0,0.2-0.1c0-0.1-0.2-0.8-0.5-2.2
								c-0.3-1.4-0.5-2.1-0.6-2.2s-0.1-0.1-0.3-0.1c-0.2,0-0.4,0.1-0.4,0.2c0,0.1,0,0.1,0,0.2c0,0,0,0.2,0,0.4c0,0.2,0,0.4,0,0.5
								c0,0.4-0.1,0.8-0.2,1.1s-0.2,0.5-0.3,0.7s-0.3,0.3-0.4,0.5c-0.4,0.3-0.9,0.4-1.5,0.4c-0.7,0-1.3-0.3-1.9-0.9s-0.9-1.2-0.9-2
								c0-0.4,0.1-0.7,0.3-1s0.4-0.5,0.7-0.6c0,0,0.5-0.1,1.3-0.4c0.8-0.2,1.2-0.3,1.2-0.3c0.4-0.1,0.8-0.4,1.2-0.9s0.6-1.1,0.6-1.9
								c0-0.3,0-0.7-0.1-1c-0.1-0.3-0.2-0.6-0.3-0.9s-0.4-0.7-0.6-1.1s-0.7-0.8-1.2-1.1s-1.1-0.6-1.7-0.7c-0.1,0-0.3,0-0.6,0
								c-1.2,0-2.1,0.3-2.8,1l-0.2,0.2l-0.5-0.6c-0.3-0.3-0.4-0.5-0.5-0.6c-0.1,0-0.1-0.1-0.2-0.1c-0.2,0-0.2,0-0.2,0.1
								c0,0,0.3,1.5,1,4.4c0,0.1,0.1,0.1,0.4,0.1h0.2c0.1-0.1,0.1-0.1,0.1-0.2c0,0,0-0.1,0-0.2c0-0.1,0-0.2-0.1-0.4
								c0-0.2,0-0.4,0-0.6c0-0.5,0.1-0.9,0.3-1.2c0.2-0.3,0.4-0.6,0.8-0.7c0.3-0.2,0.6-0.3,0.9-0.3C126.6-7.2,126.9-7.3,127.3-7.3z"
								/>
						</g>
						<g>
							<path id="MJMATHI-4D_2_" class="st15" d="M138.5,4c0,0.1-0.3,0.1-1,0.1c-0.3,0-0.5,0-0.6,0c-0.1,0-0.1,0.1-0.1,0.2
								c0,0,0,0.1,0,0.2c0,0,0,0.1,0,0.1c0,0,0,0.1,0,0.1c0,0,0,0,0,0.1c0,0,0,0.1,0,0.1c0,0,0,0,0.1,0c0,0,0.1,0,0.1,0s0.1,0,0.1,0
								s0.2,0,0.2,0c0.1,0,0.3,0,0.5,0s0.6,0,0.8,0c0.9,0,1.5,0,1.6,0s0.2,0,0.3-0.1c0,0,0.2-1.8,0.7-5.2l0.6-5.2l0.4,0.7
								c0.3,0.4,0.7,1.1,1.1,1.9c0.5,0.8,1,1.7,1.6,2.6c2.1,3.4,3.1,5.2,3.2,5.2c0,0,0,0,0.1,0.1c0,0,0,0,0.1,0.1l0.1,0h1.7
								c0.2,0,0.4,0,0.7,0c0.3,0,0.4,0,0.5,0c0.4,0,0.6-0.1,0.6-0.2c0-0.1,0-0.2-0.1-0.3c0-0.1-0.1-0.2-0.1-0.2
								c0-0.1-0.3-0.1-0.7-0.1c-0.5,0-0.8,0-0.9-0.1s-0.2-0.1-0.3-0.2c0-0.1-0.5-1.8-1.3-5.2c-0.8-3.4-1.2-5.2-1.3-5.2
								c0,0,0-0.1,0-0.1c0,0,0.1,0,0.1-0.1c0.1,0,0.2,0,0.3,0s0.3,0,0.6,0h0.6c0.1-0.1,0.1-0.2,0.1-0.2c0-0.2,0-0.4-0.1-0.6
								c-0.1-0.1-0.2-0.1-0.3-0.1c-0.1,0-0.3,0-0.7,0c-0.4,0-1,0-1.6,0c-0.7,0-1.3,0-1.6,0s-0.6,0-0.6,0c-0.2,0-0.3,0.1-0.3,0.2
								c0,0,0,0.1,0,0.3c0,0.2,0.1,0.3,0.1,0.3c0,0,0.2,0,0.4,0.1c0.3,0,0.7,0,1.1,0.1c0.2,0,0.3,0.1,0.3,0.2c0,0,0.3,1,0.7,2.7
								c0.4,1.8,0.9,3.5,1.3,5.2s0.6,2.6,0.6,2.6l-3.5-5.7c-2.3-3.9-3.5-5.8-3.6-5.9c0,0,0,0-0.1,0c-0.1,0-0.2-0.1-0.3-0.1
								c-0.2,0-0.3,0-0.3,0.1c0,0-0.3,2-0.7,5.7l-0.7,5.7l-1.2-5c-0.8-3.3-1.2-5-1.2-5.1c0.1-0.4,0.5-0.6,1.3-0.6h0.2
								c0.1-0.1,0.1-0.1,0.1-0.2s0-0.2-0.1-0.3c0-0.2-0.1-0.3-0.1-0.3c0,0-0.1,0-0.2,0c0,0-0.1,0-0.2,0s-0.3,0-0.6,0s-0.7,0-1.1,0
								c-0.4,0-0.7,0-1.1,0s-0.6,0-0.7,0c-0.2,0-0.3,0-0.3,0c0,0-0.1,0.1-0.1,0.2c0,0,0,0.1,0.1,0.3c0,0.1,0.1,0.2,0.1,0.3
								c0,0.1,0.2,0.1,0.4,0.1c0.8,0,1.4,0.2,1.6,0.7c0,0.1,0.5,1.7,1.2,5C138.1,2.1,138.5,3.8,138.5,4z"/>
						</g>
						<g>
							<path id="MJMATHI-49_1_" class="st15" d="M152.9-7.7c-0.2,0-0.3,0.1-0.3,0.2c0,0,0,0.1,0.1,0.3c0.1,0.2,0.1,0.4,0.2,0.4
								c0,0,0.1,0,0.3,0h0.1c0.7,0,1.2,0,1.4,0.1c0,0,0,0,0,0c0.1,0,0.1,0.2,0.2,0.4c0.1,0.3,0.4,1.5,0.9,3.6c0.1,0.6,0.3,1,0.3,1.3
								c0.8,3.5,1.3,5.2,1.3,5.2c0,0,0,0.1,0,0.1c-0.1,0.1-0.5,0.1-1.3,0.1h-0.4c-0.1,0.1-0.1,0.2-0.1,0.5c0,0.2,0.1,0.3,0.1,0.3
								c0,0,0.1,0.1,0.3,0.1h0.1c0.9,0,1.7,0,2.6,0c1.5,0,2.2,0,2.3,0h0.2c0.1-0.1,0.1-0.2,0.1-0.2s0-0.2-0.1-0.3
								c0-0.2-0.1-0.3-0.1-0.3c0,0-0.2,0-0.4,0c-0.4,0-0.8,0-1.1-0.1c-0.2,0-0.3-0.1-0.3-0.2c-0.1-0.2-0.4-1.4-0.9-3.5
								c-0.1-0.6-0.3-1.1-0.4-1.7c-0.8-3.4-1.3-5.2-1.3-5.2c0-0.1,0.1-0.1,0.2-0.2c0.1,0,0.4,0,0.9-0.1h0.6c0.1-0.1,0.1-0.2,0.1-0.2
								s0-0.1-0.1-0.3c0-0.2-0.1-0.3-0.2-0.4h-0.3c-0.4,0-1.3,0-2.5,0c-0.4,0-0.8,0-1.2,0c-0.4,0-0.6,0-0.9,0
								C153.1-7.7,153-7.7,152.9-7.7z"/>
						</g>
						<g transform="translate(2918,0)">
							<g>
								<path id="MJMATHI-3B3" class="st15" d="M-2756.2-3.1c-0.2,0-0.4,0.1-0.4,0.2c0,0.2,0.1,0.5,0.3,0.9c0.2,0.4,0.4,0.7,0.7,1.1
									c0.3,0.4,0.7,0.7,1.1,1c0.5,0.3,0.9,0.4,1.4,0.4c0.3,0,0.5,0,0.6,0c0.6-0.1,1-0.5,1.4-1c0.4-0.5,0.7-1.3,1-2.4
									c0.2-0.7,0.3-1.3,0.3-1.6c0,0,0-0.1,0-0.1l0.2,0.5c0.2,0.6,0.5,1.3,0.8,2c0.3,0.7,0.6,1.3,0.8,1.7s0.3,0.7,0.4,0.7
									c0,0,0.1,0,0.3,0h0.2c0.1-0.1,0.1-0.1,0.1-0.2c0,0-0.1-0.3-0.4-0.8s-0.6-1.3-1.1-2.4s-0.9-2.2-1.3-3.3
									c-0.1-0.2-0.1-0.6-0.2-1.2c-0.1-0.6-0.2-1.3-0.4-2c-0.2-0.8-0.4-1.4-0.5-1.7c-0.1-0.3-0.3-0.5-0.5-0.5
									c-0.2,0-0.3,0.2-0.3,0.5c0,0.6,0.3,2,1,4.1l0.1,0.4l0,0.3c0,0.1,0,0.3,0,0.6c0,1.9-0.3,3.3-1,4c-0.5,0.5-1,0.7-1.7,0.7
									c-0.6,0-1.1-0.2-1.6-0.5c-0.5-0.3-0.8-0.7-1-1.3c0-0.1,0-0.2-0.1-0.2C-2756-3.1-2756-3.1-2756.2-3.1z"/>
							</g>
							<g transform="translate(518,-150)">
								<g transform="scale(0.707)">
									<path id="MJMATHI-73_2_" class="st16" d="M-3263.8,143.3c0,0.3,0.1,0.6,0.2,0.9c0.1,0.3,0.4,0.6,0.7,0.8
										c0.3,0.2,0.7,0.4,1.2,0.4c0.5,0,0.9-0.1,1.1-0.4c0.2-0.2,0.4-0.5,0.4-0.8c0-0.3-0.1-0.5-0.2-0.6c-0.1-0.1-0.3-0.2-0.5-0.2
										c-0.1,0-0.2,0-0.3,0.1s-0.1,0.2-0.2,0.3c0,0.1,0,0.3,0.1,0.4c0.1,0.1,0.1,0.2,0.2,0.2s0.1,0.1,0.2,0.1c0,0,0,0,0,0
										c0,0,0,0.1-0.1,0.1s-0.2,0.1-0.3,0.1c-0.2,0-0.3,0.1-0.5,0.1c-0.4,0-0.7-0.1-0.9-0.3c-0.2-0.2-0.3-0.5-0.3-0.7
										c0-0.2,0.1-0.4,0.2-0.5s0.4-0.2,0.7-0.2s0.5-0.1,0.7-0.2c0.6-0.3,0.8-0.7,0.8-1.3c0-0.2,0-0.5-0.1-0.7s-0.2-0.5-0.4-0.7
										s-0.5-0.4-0.8-0.6c-0.3-0.1-0.7-0.2-1.2-0.2c-0.7,0-1.1,0.1-1.4,0.4c-0.3,0.3-0.4,0.6-0.4,0.9c0,0.3,0.1,0.6,0.3,0.7
										c0.2,0.1,0.4,0.2,0.6,0.2c0.1,0,0.2,0,0.4-0.1c0.1-0.1,0.2-0.2,0.2-0.4c0-0.2-0.1-0.4-0.2-0.6c-0.2-0.2-0.3-0.2-0.4-0.2
										c0,0,0,0,0,0c0,0,0,0,0,0c0,0,0-0.1,0.1-0.1s0.2-0.1,0.4-0.2c0.2-0.1,0.4-0.1,0.7-0.1c0.3,0,0.6,0,0.8,0.1
										c0.2,0.1,0.4,0.2,0.5,0.4c0.1,0.1,0.2,0.3,0.2,0.4s0.1,0.2,0.1,0.3c0,0.2-0.1,0.4-0.3,0.6s-0.4,0.2-0.6,0.2
										c-0.2,0-0.5,0.1-0.7,0.2c-0.3,0.1-0.5,0.3-0.6,0.5C-3263.8,142.8-3263.8,143-3263.8,143.3z"/>
								</g>
								<g transform="scale(0.707)">
									<path id="MJMATHI-74_2_" class="st16" d="M-3259.2,144.6c-0.1,0.1-0.1,0.1-0.1,0.1c0,0,0,0.1,0,0.2s0,0.2,0.1,0.2
										c0,0,0.1,0.1,0.1,0.1s0.3,0,0.6,0h0.7l0.2,1c0,0.1,0.1,0.2,0.1,0.4c0,0.2,0.1,0.3,0.1,0.3c0,0.1,0.1,0.2,0.1,0.3
										c0,0.1,0.1,0.2,0.1,0.2c0,0,0.1,0.1,0.1,0.2c0,0.1,0.1,0.1,0.2,0.1c0.1,0,0.2,0,0.2,0c0.2,0,0.3-0.1,0.3-0.1
										c0.1-0.1,0.1-0.2,0.1-0.2c0-0.1,0-0.3-0.1-0.6c-0.1-0.3-0.2-0.7-0.3-1l-0.1-0.5c0,0,0.2,0,0.6,0h0.6
										c0.1-0.1,0.1-0.1,0.1-0.1c0-0.2-0.1-0.3-0.2-0.5h-1.4l-0.5-1.9c-0.3-1.4-0.5-2.1-0.5-2.3c0-0.4,0.1-0.6,0.3-0.6
										c0.3,0,0.6,0.1,0.9,0.4c0.3,0.3,0.5,0.7,0.7,1.1c0,0.1,0,0.1,0.1,0.1c0,0,0.1,0,0.2,0h0.1c0.1,0,0.2,0,0.2-0.1
										c0,0,0-0.1,0-0.2c0-0.1-0.1-0.3-0.2-0.5c-0.1-0.2-0.3-0.4-0.4-0.6c-0.2-0.2-0.4-0.4-0.6-0.6c-0.3-0.1-0.5-0.2-0.8-0.2
										c-0.3,0-0.5,0.1-0.7,0.2c-0.2,0.1-0.4,0.4-0.5,0.7c0,0.1,0,0.2,0,0.4v0.2l0.4,1.8c0.3,1.2,0.4,1.9,0.5,1.9c0,0-0.2,0-0.6,0
										H-3259.2z"/>
								</g>
								<g transform="scale(0.707)">
									<path id="MJMATHI-64_2_" class="st16" d="M-3250.3,148.5c0,0,0.3,0,0.9,0.1c0.6,0,0.9,0.1,0.9,0.1c0.1,0,0.2,0,0.2-0.1
										c0-0.1-0.3-1.4-0.9-4c-0.6-2.6-0.9-3.9-1-3.9c0-0.1,0-0.1,0-0.2c0-0.4,0.1-0.6,0.4-0.6c0.1,0,0.2,0,0.3,0.1
										c0.2,0.2,0.4,0.6,0.5,1.3c0.1,0.2,0.1,0.3,0.1,0.3c0,0,0.1,0,0.1,0h0.1h0.1c0.1,0,0.2,0,0.2-0.1c0,0,0-0.1,0-0.2
										c-0.1-0.4-0.2-0.8-0.4-1.1c-0.1-0.3-0.3-0.4-0.4-0.5c-0.1-0.1-0.2-0.1-0.4-0.2c-0.1,0-0.2,0-0.3,0c-0.3,0-0.5,0.1-0.7,0.2
										c-0.2,0.1-0.3,0.3-0.4,0.4l-0.1,0.2c0,0,0,0-0.1,0c0,0,0,0-0.1-0.1c-0.5-0.5-1-0.7-1.5-0.7c-0.5,0-0.9,0.2-1.2,0.5
										s-0.5,0.9-0.5,1.7c0,0.4,0.1,0.8,0.3,1.3s0.4,0.8,0.6,1.1c0.4,0.5,0.8,0.8,1.2,1c0.4,0.2,0.8,0.3,1.1,0.3
										c0.5,0,0.8-0.2,1.1-0.6c0-0.1,0.1-0.1,0.1-0.1c0,0,0.1,0.5,0.3,1.4s0.3,1.4,0.4,1.5c0,0.1,0,0.2-0.1,0.2s-0.2,0-0.5,0.1
										h-0.3c-0.1,0.1-0.1,0.1-0.1,0.1c0,0,0,0.1,0,0.2C-3250.4,148.4-3250.4,148.5-3250.3,148.5z M-3250.5,143.8
										c-0.2,0.7-0.5,1-1,1c-0.3,0-0.6-0.1-0.8-0.4c-0.3-0.3-0.5-0.6-0.6-1.1c-0.2-0.7-0.4-1.4-0.5-2.1c0,0,0-0.1,0-0.1
										s0-0.1,0-0.2c0-0.4,0.1-0.7,0.2-0.8s0.3-0.2,0.5-0.2c0.5,0,0.9,0.3,1.4,0.9l0.1,0.1L-3250.5,143.8z"/>
								</g>
							</g>
						</g>
					</g>
				</g>
			</g>
			<g>
				<g transform="translate(0,402.56)translate(-29.1650390625,0)" pointer-events="none">
					<g transform="matrix(1 0 0 -1 0 0)">
						<g>
							<path id="MJMATHI-43" class="st17" d="M119.9,0.2c0,1.4,0.4,2.8,1.2,4.1s1.8,2.3,3,3.1s2.4,1.2,3.7,1.2
								c1.1,0,1.9-0.3,2.6-0.9c0.1-0.1,0.2-0.2,0.3-0.3c0.1-0.1,0.1-0.1,0.1-0.2l0-0.1c0,0,0.2,0.2,0.5,0.5c0.1,0.1,0.2,0.2,0.3,0.3
								c0.1,0.1,0.2,0.2,0.3,0.3c0.1,0.1,0.2,0.2,0.2,0.2l0.3,0.3h0.1c0.2,0,0.3,0,0.3-0.1c0,0-0.2-0.9-0.6-2.5
								c-0.4-1.7-0.6-2.6-0.6-2.6c0-0.1-0.1-0.1-0.1-0.1c0,0-0.1,0-0.3,0h-0.3c-0.1,0.1-0.1,0.1-0.1,0.2c0,0,0,0.1,0,0.1
								c0,0.1,0,0.2,0,0.4s0,0.4,0,0.6c0,0.9-0.2,1.6-0.6,2.3c-0.4,0.7-1,1-2,1c-0.3,0-0.6,0-1-0.1c-0.4-0.1-0.8-0.2-1.3-0.4
								c-0.5-0.2-1-0.6-1.5-1c-0.5-0.5-0.9-1.1-1.3-1.7c-0.4-0.7-0.7-1.5-0.9-2.5c-0.2-0.9-0.3-1.7-0.3-2.3c0-1.4,0.5-2.4,1.4-3
								c0.6-0.4,1.3-0.6,2.1-0.6c1.1,0,2.1,0.4,2.9,1.3c0.8,0.8,1.4,1.8,1.7,2.7c0,0.2,0.1,0.3,0.1,0.3c0,0,0.1,0,0.3,0
								c0.2,0,0.4-0.1,0.4-0.2c0-0.1,0-0.1,0-0.2c-0.3-1.3-1.1-2.5-2.2-3.4c-1.1-1-2.4-1.4-3.7-1.4c-1.4,0-2.5,0.5-3.4,1.4
								C120.4-2.6,119.9-1.4,119.9,0.2z"/>
						</g>
						<g>
							<path id="MJMATHI-4E" class="st17" d="M136.9,7.3c0,0-0.1,0-0.1,0c-0.3,0-0.5,0-0.5,0c-0.1,0-0.1,0.1-0.1,0.2
								c0,0.3,0.1,0.5,0.2,0.6c0,0,0.6,0,1.7,0c0.9,0,1.4,0,1.6,0c0.1,0,0.2,0,0.3-0.1c2.5-6.1,3.8-9.3,3.9-9.4l1,3.9
								c0.6,2.6,1,4,1,4.2c0,0.3-0.4,0.5-1.1,0.6c-0.3,0-0.4,0.1-0.4,0.2c0,0,0,0.1,0,0.2c0,0.2,0.1,0.3,0.1,0.4
								c0,0,0.1,0.1,0.2,0.1c0,0,0.2,0,0.6,0c0.3,0,0.8,0,1.5,0c0.6,0,1.1,0,1.4,0c0.3,0,0.5,0,0.5,0c0.2,0,0.3-0.1,0.3-0.2
								c0-0.3,0-0.5-0.1-0.6c0-0.1-0.2-0.1-0.4-0.1c-0.8,0-1.4-0.3-1.6-0.7l-2.7-10.9c0-0.1-0.1-0.1-0.4-0.1c-0.2,0-0.3,0-0.3,0
								c0,0-0.8,1.9-2.3,5.6l-2.3,5.5l-1.2-4.8c-0.8-3.2-1.2-4.8-1.2-4.9c0.1-0.4,0.5-0.6,1.3-0.6h0.2c0.1-0.1,0.1-0.1,0.1-0.1
								s0-0.2,0-0.4c0-0.2-0.1-0.3-0.2-0.4h-0.2c-0.4,0-1,0-1.9,0c-0.3,0-0.6,0-0.9,0c-0.3,0-0.5,0-0.7,0s-0.3,0-0.3,0
								c-0.2,0-0.3,0.1-0.3,0.2c0,0,0,0.1,0.1,0.3c0,0.1,0.1,0.2,0.1,0.3c0,0.1,0.2,0.1,0.4,0.1c0.8,0,1.3,0.3,1.6,0.7
								c0,0.1,0.5,1.8,1.3,5.1l1.2,5C137.8,7.3,137.5,7.3,136.9,7.3z"/>
						</g>
						<g transform="translate(1649,0)">
							<g>
								<path id="MJMATHI-56" class="st17" d="M-1499.5,7.5c0,0.3,0.1,0.5,0.2,0.6h0.2c0.5,0,1.1-0.1,1.9-0.1c1.4,0,2.2,0,2.5,0.1
									h0.2c0.1-0.1,0.1-0.1,0.1-0.2s0-0.1,0-0.3c-0.1-0.2-0.1-0.3-0.2-0.4h-0.4c-0.3,0-0.4,0-0.5,0c-0.3-0.1-0.5-0.2-0.6-0.3
									c0,0,0.2-1.6,0.5-4.7c0.3-3.1,0.5-4.6,0.5-4.7l1.3,2.2c0.9,1.4,1.7,2.9,2.6,4.4c0.9,1.5,1.3,2.2,1.3,2.3
									c0,0.1,0.1,0.2,0.1,0.3c0,0.3-0.3,0.5-0.8,0.5c-0.2,0-0.3,0.1-0.3,0.2c0,0,0,0.1,0,0.2c0,0.2,0.1,0.3,0.1,0.3
									c0,0,0.1,0.1,0.2,0.1c0,0,0.1,0,0.2,0s0.3,0,0.6,0c0.3,0,0.7,0,1.1,0c0.8,0,1.3,0,1.6,0h0.1c0.1-0.1,0.1-0.2,0.1-0.2
									c0-0.2-0.1-0.4-0.2-0.6c0,0-0.1-0.1-0.3-0.1c-0.2,0-0.3,0-0.4,0c-0.1,0-0.3,0-0.4-0.1c-0.1,0-0.2-0.1-0.3-0.1
									c-0.1,0-0.1-0.1-0.2-0.1c-0.1-0.1-0.1-0.1-0.2-0.1c0,0-0.1-0.1-0.1-0.2c0-0.1-0.1-0.1-0.1-0.1l-3.5-5.7
									c-2.2-3.6-3.3-5.4-3.3-5.5c0,0-0.1-0.1-0.1-0.1l-0.3,0h-0.1c-0.2,0-0.3,0-0.3,0.1c0,0.1-0.3,2.1-0.7,5.9
									c-0.5,3.9-0.7,5.9-0.7,5.9c-0.1,0.1-0.4,0.2-1.1,0.2h-0.3C-1499.4,7.4-1499.5,7.4-1499.5,7.5z"/>
							</g>
							<g transform="translate(583,-150)">
								<g transform="scale(0.707)">
									<path id="MJMATHI-73_3_" class="st18" d="M-2071.3,146.5c0,0.3,0.1,0.6,0.2,0.9c0.1,0.3,0.4,0.6,0.7,0.8
										c0.3,0.2,0.7,0.4,1.2,0.4c0.5,0,0.9-0.1,1.1-0.4s0.4-0.5,0.4-0.8c0-0.3-0.1-0.5-0.2-0.6c-0.1-0.1-0.3-0.2-0.5-0.2
										c-0.1,0-0.2,0-0.3,0.1s-0.1,0.2-0.2,0.3c0,0.1,0,0.3,0.1,0.4c0.1,0.1,0.1,0.2,0.2,0.2s0.1,0.1,0.2,0.1c0,0,0,0,0,0
										c0,0,0,0.1-0.1,0.1c-0.1,0.1-0.2,0.1-0.3,0.1s-0.3,0.1-0.5,0.1c-0.4,0-0.7-0.1-0.9-0.3c-0.2-0.2-0.3-0.5-0.3-0.7
										c0-0.2,0.1-0.4,0.2-0.5c0.2-0.1,0.4-0.2,0.7-0.2c0.3-0.1,0.5-0.1,0.7-0.2c0.6-0.3,0.8-0.7,0.8-1.3c0-0.2,0-0.5-0.1-0.7
										c-0.1-0.2-0.2-0.5-0.4-0.7c-0.2-0.2-0.5-0.4-0.8-0.6s-0.7-0.2-1.2-0.2c-0.7,0-1.1,0.1-1.4,0.4c-0.3,0.3-0.4,0.6-0.4,0.9
										c0,0.3,0.1,0.6,0.3,0.7c0.2,0.1,0.4,0.2,0.6,0.2c0.1,0,0.2,0,0.4-0.1c0.1-0.1,0.2-0.2,0.2-0.4c0-0.2-0.1-0.4-0.2-0.6
										s-0.3-0.2-0.4-0.2c0,0,0,0,0,0c0,0,0,0,0,0c0,0,0-0.1,0.1-0.1c0.1,0,0.2-0.1,0.4-0.2s0.4-0.1,0.7-0.1c0.3,0,0.6,0,0.8,0.1
										s0.4,0.2,0.5,0.4c0.1,0.1,0.2,0.3,0.2,0.4c0,0.1,0.1,0.2,0.1,0.3c0,0.2-0.1,0.4-0.3,0.6c-0.2,0.1-0.4,0.2-0.6,0.2
										c-0.2,0-0.5,0.1-0.7,0.2c-0.3,0.1-0.5,0.3-0.6,0.5C-2071.2,146-2071.3,146.2-2071.3,146.5z"/>
								</g>
								<g transform="scale(0.707)">
									<path id="MJMATHI-74_3_" class="st18" d="M-2066.7,147.8c-0.1,0.1-0.1,0.1-0.1,0.1c0,0,0,0.1,0,0.2c0,0.1,0,0.2,0.1,0.2
										c0,0,0.1,0.1,0.1,0.1c0.1,0,0.3,0,0.6,0h0.7l0.2,1c0,0.1,0.1,0.2,0.1,0.4c0,0.2,0.1,0.3,0.1,0.3s0.1,0.2,0.1,0.3
										c0,0.1,0.1,0.2,0.1,0.2c0,0,0.1,0.1,0.1,0.2c0,0.1,0.1,0.1,0.2,0.1c0.1,0,0.2,0,0.2,0c0.2,0,0.3-0.1,0.3-0.1
										c0.1-0.1,0.1-0.2,0.1-0.2c0-0.1,0-0.3-0.1-0.6c-0.1-0.3-0.2-0.7-0.3-1l-0.1-0.5c0,0,0.2,0,0.6,0h0.6
										c0.1-0.1,0.1-0.1,0.1-0.1c0-0.2-0.1-0.3-0.2-0.5h-1.4l-0.5-1.9c-0.3-1.4-0.5-2.1-0.5-2.3c0-0.4,0.1-0.6,0.3-0.6
										c0.3,0,0.6,0.1,0.9,0.4s0.5,0.7,0.7,1.1c0,0.1,0,0.1,0.1,0.1c0,0,0.1,0,0.2,0h0.1c0.1,0,0.2,0,0.2-0.1c0,0,0-0.1,0-0.2
										c0-0.1-0.1-0.3-0.2-0.5c-0.1-0.2-0.3-0.4-0.4-0.6c-0.2-0.2-0.4-0.4-0.6-0.6c-0.3-0.1-0.5-0.2-0.8-0.2
										c-0.3,0-0.5,0.1-0.7,0.2c-0.2,0.1-0.4,0.4-0.5,0.7c0,0.1,0,0.2,0,0.4v0.2l0.4,1.8c0.3,1.2,0.4,1.9,0.5,1.9c0,0-0.2,0-0.6,0
										H-2066.7z"/>
								</g>
								<g transform="scale(0.707)">
									<path id="MJMATHI-64_3_" class="st18" d="M-2057.8,151.7c0,0,0.3,0,0.9,0.1c0.6,0,0.9,0.1,0.9,0.1c0.1,0,0.2,0,0.2-0.1
										c0-0.1-0.3-1.4-0.9-4s-0.9-3.9-1-3.9c0-0.1,0-0.1,0-0.2c0-0.4,0.1-0.6,0.4-0.6c0.1,0,0.2,0,0.3,0.1
										c0.2,0.2,0.4,0.6,0.5,1.3c0.1,0.2,0.1,0.3,0.1,0.3c0,0,0.1,0,0.1,0h0.1h0.1c0.1,0,0.2,0,0.2-0.1c0,0,0-0.1,0-0.2
										c-0.1-0.4-0.2-0.8-0.4-1.1s-0.3-0.4-0.4-0.5c-0.1-0.1-0.2-0.1-0.4-0.2c-0.1,0-0.2,0-0.3,0c-0.3,0-0.5,0.1-0.7,0.2
										c-0.2,0.1-0.3,0.3-0.4,0.4l-0.1,0.2c0,0,0,0-0.1,0c0,0,0,0-0.1-0.1c-0.5-0.5-1-0.7-1.5-0.7c-0.5,0-0.9,0.2-1.2,0.5
										s-0.5,0.9-0.5,1.7c0,0.4,0.1,0.8,0.3,1.3s0.4,0.8,0.6,1.1c0.4,0.5,0.8,0.8,1.2,1s0.8,0.3,1.1,0.3c0.5,0,0.8-0.2,1.1-0.6
										c0-0.1,0.1-0.1,0.1-0.1c0,0,0.1,0.5,0.3,1.4c0.2,0.9,0.3,1.4,0.4,1.5c0,0.1,0,0.2-0.1,0.2c-0.1,0-0.2,0-0.5,0.1h-0.3
										c-0.1,0.1-0.1,0.1-0.1,0.1c0,0,0,0.1,0,0.2C-2057.9,151.6-2057.8,151.7-2057.8,151.7z M-2057.9,147c-0.2,0.7-0.5,1-1,1
										c-0.3,0-0.6-0.1-0.8-0.4c-0.3-0.3-0.5-0.6-0.6-1.1c-0.2-0.7-0.4-1.4-0.5-2.1c0,0,0-0.1,0-0.1s0-0.1,0-0.2
										c0-0.4,0.1-0.7,0.2-0.8c0.2-0.1,0.3-0.2,0.5-0.2c0.5,0,0.9,0.3,1.4,0.9l0.1,0.1L-2057.9,147z"/>
								</g>
							</g>
						</g>
					</g>
				</g>
			</g>
			<g>
				<g transform="translate(0,327.67)translate(-16.49365234375,0)" pointer-events="none">
					<g transform="matrix(1 0 0 -1 0 0)">
						<g>
							<path id="MJMATHI-4B" class="st19" d="M136.3,4.9c0,0.1-0.3,0.1-1,0.2c-0.3,0-0.5,0-0.5,0s-0.1,0.1-0.1,0.2c0,0,0,0.1,0,0.3
								c0.1,0.2,0.1,0.4,0.2,0.4c0,0,0.1,0,0.2,0h0.1c0.5,0,1.3,0,2.4,0c0.4,0,0.8,0,1.1,0s0.6,0,0.8,0c0.2,0,0.3,0,0.4,0
								c0.2,0,0.3,0,0.3-0.1c0-0.1,0-0.1-0.1-0.3c0,0,0-0.1,0-0.1s0-0.1,0-0.1c0,0,0,0,0-0.1c0,0,0,0-0.1-0.1c0,0,0,0-0.1,0
								c0,0-0.1,0-0.1,0c-0.1,0-0.1,0-0.2,0c0,0-0.1,0-0.3,0c-0.5,0-0.8,0-0.9-0.1c-0.1,0-0.2-0.1-0.3-0.2l-1.5-5.9
								c0,0,1.1,0.9,3.3,2.7s3.3,2.7,3.4,2.7c0.2,0.2,0.3,0.3,0.3,0.4c0,0.2-0.1,0.3-0.4,0.3c-0.2,0-0.3,0.1-0.3,0.2
								c0,0,0,0.1,0.1,0.3s0.1,0.2,0.1,0.3c0,0.1,0.1,0.1,0.3,0.1c0,0,0.3,0,0.6,0c0.4,0,0.8,0,1.4,0c0.3,0,0.6,0,0.9,0
								c0.3,0,0.5,0,0.5,0c0.2,0,0.4-0.1,0.4-0.2c0-0.3,0-0.5-0.1-0.6c0-0.1-0.1-0.1-0.3-0.1c-0.9-0.1-1.7-0.4-2.4-0.9
								c-0.2-0.1-0.6-0.4-1.3-1c-0.6-0.5-1.2-1-1.8-1.5L140.3,1l0.2-0.4c0.1-0.3,0.3-0.7,0.5-1.2s0.4-1.1,0.6-1.6
								c0.9-2.2,1.4-3.3,1.4-3.4c0,0,0.1,0,0.1-0.1c0.2-0.1,0.5-0.2,0.9-0.2h0.4c0.1-0.1,0.1-0.2,0.1-0.2c0,0,0-0.1-0.1-0.3
								c0-0.2-0.1-0.3-0.2-0.4h-0.2c-0.5,0-1,0.1-1.7,0.1c-1.5,0-2.3,0-2.5-0.1h-0.2c-0.1,0.1-0.1,0.1-0.1,0.2c0,0,0,0.1,0,0.3
								c0,0.2,0.1,0.3,0.1,0.3c0,0,0.1,0.1,0.2,0.1h0.1c0.6,0,0.9,0.2,0.9,0.5c0,0-0.2,0.5-0.5,1.3s-0.5,1.3-0.6,1.4l-1,2.6l-1.2-1
								l-1.2-1L136-3.8c-0.3-1.1-0.4-1.7-0.4-1.8c0-0.1,0-0.1,0.1-0.2c0.1,0,0.4,0,0.9-0.1h0.6c0.1-0.1,0.1-0.2,0.1-0.2
								c0-0.2,0-0.4-0.1-0.6c-0.1-0.1-0.2-0.1-0.3-0.1c0,0-0.3,0-0.7,0c-0.4,0-1,0-1.8,0c-0.7,0-1.3,0-1.7,0c-0.4,0-0.6,0-0.6,0
								c-0.2,0-0.3,0.1-0.3,0.2c0,0,0,0.1,0.1,0.3c0,0.2,0.1,0.3,0.1,0.3s0.2,0,0.4,0.1c0.3,0,0.7,0,1.1,0.1c0.2,0,0.3,0.1,0.3,0.2
								c0,0,0.5,1.8,1.3,5.2C135.9,2.9,136.3,4.7,136.3,4.9z"/>
						</g>
						<g transform="translate(849,-150)">
							<g transform="scale(0.707)">
								<path id="MJMATHI-73_4_" class="st20" d="M-700.9,144.3c0,0.3,0.1,0.6,0.2,0.9c0.1,0.3,0.4,0.6,0.7,0.8s0.7,0.4,1.2,0.4
									c0.5,0,0.9-0.1,1.1-0.4c0.2-0.2,0.4-0.5,0.4-0.8c0-0.3-0.1-0.5-0.2-0.6c-0.1-0.1-0.3-0.2-0.5-0.2c-0.1,0-0.2,0-0.3,0.1
									c-0.1,0.1-0.1,0.2-0.2,0.3c0,0.1,0,0.3,0.1,0.4c0.1,0.1,0.1,0.2,0.2,0.2s0.1,0.1,0.2,0.1c0,0,0,0,0,0c0,0,0,0.1-0.1,0.1
									c-0.1,0.1-0.2,0.1-0.3,0.1s-0.3,0.1-0.5,0.1c-0.4,0-0.7-0.1-0.9-0.3c-0.2-0.2-0.3-0.5-0.3-0.7c0-0.2,0.1-0.4,0.2-0.5
									c0.2-0.1,0.4-0.2,0.7-0.2s0.5-0.1,0.7-0.2c0.6-0.3,0.8-0.7,0.8-1.3c0-0.2,0-0.5-0.1-0.7s-0.2-0.5-0.4-0.7s-0.5-0.4-0.8-0.6
									c-0.3-0.1-0.7-0.2-1.2-0.2c-0.7,0-1.1,0.1-1.4,0.4c-0.3,0.3-0.4,0.6-0.4,0.9c0,0.3,0.1,0.6,0.3,0.7c0.2,0.1,0.4,0.2,0.6,0.2
									c0.1,0,0.2,0,0.4-0.1c0.1-0.1,0.2-0.2,0.2-0.4c0-0.2-0.1-0.4-0.2-0.6s-0.3-0.2-0.4-0.2c0,0,0,0,0,0c0,0,0,0,0,0
									c0,0,0-0.1,0.1-0.1s0.2-0.1,0.4-0.2s0.4-0.1,0.7-0.1c0.3,0,0.6,0,0.8,0.1c0.2,0.1,0.4,0.2,0.5,0.4c0.1,0.1,0.2,0.3,0.2,0.4
									c0,0.1,0.1,0.2,0.1,0.3c0,0.2-0.1,0.4-0.3,0.6s-0.4,0.2-0.6,0.2c-0.2,0-0.5,0.1-0.7,0.2c-0.3,0.1-0.5,0.3-0.6,0.5
									C-700.9,143.7-700.9,144-700.9,144.3z"/>
							</g>
							<g transform="scale(0.707)">
								<path id="MJMATHI-74_4_" class="st20" d="M-696.3,145.5c-0.1,0.1-0.1,0.1-0.1,0.1c0,0,0,0.1,0,0.2c0,0.1,0,0.2,0.1,0.2
									c0,0,0.1,0.1,0.1,0.1s0.3,0,0.6,0h0.7l0.2,1c0,0.1,0.1,0.2,0.1,0.4c0,0.2,0.1,0.3,0.1,0.3c0,0.1,0.1,0.2,0.1,0.3
									c0,0.1,0.1,0.2,0.1,0.2c0,0,0.1,0.1,0.1,0.2c0,0.1,0.1,0.1,0.2,0.1s0.2,0,0.2,0c0.2,0,0.3-0.1,0.3-0.1s0.1-0.2,0.1-0.2
									c0-0.1,0-0.3-0.1-0.6c-0.1-0.3-0.2-0.7-0.3-1l-0.1-0.5c0,0,0.2,0,0.6,0h0.6c0.1-0.1,0.1-0.1,0.1-0.1c0-0.2-0.1-0.3-0.2-0.5
									h-1.4l-0.5-1.9c-0.3-1.4-0.5-2.1-0.5-2.3c0-0.4,0.1-0.6,0.3-0.6c0.3,0,0.6,0.1,0.9,0.4c0.3,0.3,0.5,0.7,0.7,1.1
									c0,0.1,0,0.1,0.1,0.1c0,0,0.1,0,0.2,0h0.1c0.1,0,0.2,0,0.2-0.1c0,0,0-0.1,0-0.2c0-0.1-0.1-0.3-0.2-0.5
									c-0.1-0.2-0.3-0.4-0.4-0.6c-0.2-0.2-0.4-0.4-0.6-0.6c-0.3-0.1-0.5-0.2-0.8-0.2c-0.3,0-0.5,0.1-0.7,0.2
									c-0.2,0.1-0.4,0.4-0.5,0.7c0,0.1,0,0.2,0,0.4v0.2l0.4,1.8c0.3,1.2,0.4,1.9,0.5,1.9c0,0-0.2,0-0.6,0H-696.3z"/>
							</g>
							<g transform="scale(0.707)">
								<path id="MJMATHI-64_4_" class="st20" d="M-687.4,149.5c0,0,0.3,0,0.9,0.1s0.9,0.1,0.9,0.1c0.1,0,0.2,0,0.2-0.1
									c0-0.1-0.3-1.4-0.9-4c-0.6-2.6-0.9-3.9-1-3.9s0-0.1,0-0.2c0-0.4,0.1-0.6,0.4-0.6c0.1,0,0.2,0,0.3,0.1
									c0.2,0.2,0.4,0.6,0.5,1.3c0.1,0.2,0.1,0.3,0.1,0.3c0,0,0.1,0,0.1,0h0.1h0.1c0.1,0,0.2,0,0.2-0.1c0,0,0-0.1,0-0.2
									c-0.1-0.4-0.2-0.8-0.4-1.1c-0.1-0.3-0.3-0.4-0.4-0.5c-0.1-0.1-0.2-0.1-0.4-0.2c-0.1,0-0.2,0-0.3,0c-0.3,0-0.5,0.1-0.7,0.2
									c-0.2,0.1-0.3,0.3-0.4,0.4l-0.1,0.2c0,0,0,0-0.1,0c0,0,0,0-0.1-0.1c-0.5-0.5-1-0.7-1.5-0.7c-0.5,0-0.9,0.2-1.2,0.5
									c-0.4,0.3-0.5,0.9-0.5,1.7c0,0.4,0.1,0.8,0.3,1.3s0.4,0.8,0.6,1.1c0.4,0.5,0.8,0.8,1.2,1c0.4,0.2,0.8,0.3,1.1,0.3
									c0.5,0,0.8-0.2,1.1-0.6c0-0.1,0.1-0.1,0.1-0.1c0,0,0.1,0.5,0.3,1.4c0.2,0.9,0.3,1.4,0.4,1.5c0,0.1,0,0.2-0.1,0.2
									c-0.1,0-0.2,0-0.5,0.1h-0.3c-0.1,0.1-0.1,0.1-0.1,0.1c0,0,0,0.1,0,0.2C-687.6,149.4-687.5,149.5-687.4,149.5z M-687.6,144.8
									c-0.2,0.7-0.5,1-1,1c-0.3,0-0.6-0.1-0.8-0.4c-0.3-0.3-0.5-0.6-0.6-1.1c-0.2-0.7-0.4-1.4-0.5-2.1c0,0,0-0.1,0-0.1
									s0-0.1,0-0.2c0-0.4,0.1-0.7,0.2-0.8c0.2-0.1,0.3-0.2,0.5-0.2c0.5,0,0.9,0.3,1.4,0.9l0.1,0.1L-687.6,144.8z"/>
							</g>
						</g>
					</g>
				</g>
			</g>
			<g>
				<g transform="translate(0,252.78)translate(-17.31982421875,0)" pointer-events="none">
					<g transform="matrix(1 0 0 -1 0 0)">
						<g>
							<path id="MJMAIN-7C" class="st21" d="M131.3-7.2L131.3-7.2c-0.2,0-0.3,0.1-0.4,0.3v9l0,9c0.1,0.2,0.2,0.2,0.3,0.2
								c0.2,0,0.3-0.1,0.4-0.3V-7C131.6-7.1,131.5-7.2,131.3-7.2L131.3-7.2z"/>
						</g>
						<g>
							<path id="MJMATHI-3B8" class="st21" d="M134.4,1.1c0,1.3,0.2,2.6,0.7,4c0.5,1.4,1.1,2.6,1.9,3.6c0.8,1,1.6,1.6,2.5,1.7
								c0,0,0.1,0,0.1,0s0.2,0,0.2,0c0.6,0,1.1-0.4,1.5-0.9c0.5-0.7,0.7-1.7,0.7-3c0-1.4-0.3-2.9-0.8-4.3s-1.2-2.7-2.1-3.6
								c-0.8-0.9-1.6-1.4-2.4-1.4h-0.1c-0.4,0-0.8,0.1-1.1,0.4c-0.3,0.2-0.5,0.6-0.7,1c-0.2,0.4-0.3,0.8-0.3,1.2
								C134.5,0.2,134.4,0.7,134.4,1.1z M140.7,7.9c0,1.3-0.3,1.9-1,1.9c-0.4,0-0.8-0.3-1.3-0.8s-0.7-1.2-1-1.9s-0.5-1.3-0.6-1.9
								c-0.1-0.5-0.2-0.8-0.2-0.9c0.6,0,1.2,0,1.7,0l1.7,0c0,0,0.1,0.2,0.1,0.6s0.2,0.9,0.3,1.5C140.6,7,140.7,7.5,140.7,7.9z
								 M135.8-0.2c0-1.3,0.3-2,1-2c0.2,0,0.4,0.1,0.6,0.2s0.4,0.4,0.7,0.7s0.6,0.9,0.9,1.6s0.6,1.6,0.9,2.7l0.1,0.3h-3.5
								c0,0-0.1-0.3-0.2-0.7c-0.1-0.4-0.2-0.9-0.3-1.4S135.8,0.2,135.8-0.2z"/>
						</g>
						<g transform="translate(748,0)">
							<g>
								<path id="MJMAIN-7C_1_" class="st21" d="M-603.3-7.2L-603.3-7.2c-0.2,0-0.3,0.1-0.4,0.3v9l0,9c0.1,0.2,0.2,0.2,0.3,0.2
									c0.2,0,0.3-0.1,0.4-0.3V-7C-603-7.1-603.1-7.2-603.3-7.2L-603.3-7.2z"/>
							</g>
							<g transform="translate(278,-286)">
								<g transform="scale(0.707)">
									<path id="MJMATHI-73_5_" class="st22" d="M-877.1,281.9c0,0.3,0.1,0.6,0.2,0.9c0.1,0.3,0.4,0.6,0.7,0.8s0.7,0.4,1.2,0.4
										c0.5,0,0.9-0.1,1.1-0.4c0.2-0.2,0.4-0.5,0.4-0.8c0-0.3-0.1-0.5-0.2-0.6c-0.1-0.1-0.3-0.2-0.5-0.2c-0.1,0-0.2,0-0.3,0.1
										c-0.1,0.1-0.1,0.2-0.2,0.3c0,0.1,0,0.3,0.1,0.4c0.1,0.1,0.1,0.2,0.2,0.2c0.1,0.1,0.1,0.1,0.2,0.1c0,0,0,0,0,0
										c0,0,0,0.1-0.1,0.1c-0.1,0.1-0.2,0.1-0.3,0.1s-0.3,0.1-0.5,0.1c-0.4,0-0.7-0.1-0.9-0.3s-0.3-0.5-0.3-0.7
										c0-0.2,0.1-0.4,0.2-0.5c0.2-0.1,0.4-0.2,0.7-0.2s0.5-0.1,0.7-0.2c0.6-0.3,0.8-0.7,0.8-1.3c0-0.2,0-0.5-0.1-0.7
										c-0.1-0.2-0.2-0.5-0.4-0.7c-0.2-0.2-0.5-0.4-0.8-0.6c-0.3-0.1-0.7-0.2-1.2-0.2c-0.7,0-1.1,0.1-1.4,0.4
										c-0.3,0.3-0.4,0.6-0.4,0.9c0,0.3,0.1,0.6,0.3,0.7c0.2,0.1,0.4,0.2,0.6,0.2c0.1,0,0.2,0,0.4-0.1c0.1-0.1,0.2-0.2,0.2-0.4
										c0-0.2-0.1-0.4-0.2-0.6c-0.2-0.2-0.3-0.2-0.4-0.2c0,0,0,0,0,0s0,0,0,0c0,0,0-0.1,0.1-0.1s0.2-0.1,0.4-0.2
										c0.2-0.1,0.4-0.1,0.7-0.1c0.3,0,0.6,0,0.8,0.1c0.2,0.1,0.4,0.2,0.5,0.4c0.1,0.1,0.2,0.3,0.2,0.4c0,0.1,0.1,0.2,0.1,0.3
										c0,0.2-0.1,0.4-0.3,0.6c-0.2,0.1-0.4,0.2-0.6,0.2c-0.2,0-0.5,0.1-0.7,0.2c-0.3,0.1-0.5,0.3-0.6,0.5
										C-877.1,281.3-877.1,281.6-877.1,281.9z"/>
								</g>
								<g transform="scale(0.707)">
									<path id="MJMATHI-74_5_" class="st22" d="M-872.5,283.1c-0.1,0.1-0.1,0.1-0.1,0.1c0,0,0,0.1,0,0.2c0,0.1,0,0.2,0.1,0.2
										c0,0,0.1,0.1,0.1,0.1s0.3,0,0.6,0h0.7l0.2,1c0,0.1,0.1,0.2,0.1,0.4c0,0.2,0.1,0.3,0.1,0.3c0,0.1,0.1,0.2,0.1,0.3
										c0,0.1,0.1,0.2,0.1,0.2s0.1,0.1,0.1,0.2c0,0.1,0.1,0.1,0.2,0.1s0.2,0,0.2,0c0.2,0,0.3-0.1,0.3-0.1s0.1-0.2,0.1-0.2
										c0-0.1,0-0.3-0.1-0.6c-0.1-0.3-0.2-0.7-0.3-1l-0.1-0.5c0,0,0.2,0,0.6,0h0.6c0.1-0.1,0.1-0.1,0.1-0.1c0-0.2-0.1-0.3-0.2-0.5
										h-1.4l-0.5-1.9c-0.3-1.4-0.5-2.1-0.5-2.3c0-0.4,0.1-0.6,0.3-0.6c0.3,0,0.6,0.1,0.9,0.4c0.3,0.3,0.5,0.7,0.7,1.1
										c0,0.1,0,0.1,0.1,0.1c0,0,0.1,0,0.2,0h0.1c0.1,0,0.2,0,0.2-0.1c0,0,0-0.1,0-0.2c0-0.1-0.1-0.3-0.2-0.5
										c-0.1-0.2-0.3-0.4-0.4-0.6c-0.2-0.2-0.4-0.4-0.6-0.6c-0.3-0.1-0.5-0.2-0.8-0.2c-0.3,0-0.5,0.1-0.7,0.2
										c-0.2,0.1-0.4,0.4-0.5,0.7c0,0.1,0,0.2,0,0.4v0.2l0.4,1.8c0.3,1.2,0.4,1.9,0.5,1.9c0,0-0.2,0-0.6,0H-872.5z"/>
								</g>
								<g transform="scale(0.707)">
									<path id="MJMATHI-64_5_" class="st22" d="M-863.6,287c0,0,0.3,0,0.9,0.1c0.6,0,0.9,0.1,0.9,0.1c0.1,0,0.2,0,0.2-0.1
										c0-0.1-0.3-1.4-0.9-4c-0.6-2.6-0.9-3.9-1-3.9c0-0.1,0-0.1,0-0.2c0-0.4,0.1-0.6,0.4-0.6c0.1,0,0.2,0,0.3,0.1
										c0.2,0.2,0.4,0.6,0.5,1.3c0.1,0.2,0.1,0.3,0.1,0.3c0,0,0.1,0,0.1,0h0.1h0.1c0.1,0,0.2,0,0.2-0.1c0,0,0-0.1,0-0.2
										c-0.1-0.4-0.2-0.8-0.4-1.1s-0.3-0.4-0.4-0.5s-0.2-0.1-0.4-0.2c-0.1,0-0.2,0-0.3,0c-0.3,0-0.5,0.1-0.7,0.2
										c-0.2,0.1-0.3,0.3-0.4,0.4l-0.1,0.2c0,0,0,0-0.1,0c0,0,0,0-0.1-0.1c-0.5-0.5-1-0.7-1.5-0.7c-0.5,0-0.9,0.2-1.2,0.5
										c-0.4,0.3-0.5,0.9-0.5,1.7c0,0.4,0.1,0.8,0.3,1.3c0.2,0.4,0.4,0.8,0.6,1.1c0.4,0.5,0.8,0.8,1.2,1c0.4,0.2,0.8,0.3,1.1,0.3
										c0.5,0,0.8-0.2,1.1-0.6c0-0.1,0.1-0.1,0.1-0.1c0,0,0.1,0.5,0.3,1.4c0.2,0.9,0.3,1.4,0.4,1.5c0,0.1,0,0.2-0.1,0.2
										c-0.1,0-0.2,0-0.5,0.1h-0.3c-0.1,0.1-0.1,0.1-0.1,0.1s0,0.1,0,0.2C-863.7,287-863.7,287-863.6,287z M-863.8,282.4
										c-0.2,0.7-0.5,1-1,1c-0.3,0-0.6-0.1-0.8-0.4c-0.3-0.3-0.5-0.6-0.6-1.1c-0.2-0.7-0.4-1.4-0.5-2.1c0,0,0-0.1,0-0.1
										c0-0.1,0-0.1,0-0.2c0-0.4,0.1-0.7,0.2-0.8s0.3-0.2,0.5-0.2c0.5,0,0.9,0.3,1.4,0.9l0.1,0.1L-863.8,282.4z"/>
								</g>
							</g>
						</g>
					</g>
				</g>
			</g>
			<g>
				<g transform="translate(0,177.89)translate(-25.51220703125,0)" pointer-events="none">
					<g transform="matrix(1 0 0 -1 0 0)">
						<g>
							<path id="MJMAIN-7C_2_" class="st23" d="M123.7-10.1L123.7-10.1c-0.2,0-0.3,0.1-0.4,0.3v9l0,9c0.1,0.2,0.2,0.2,0.3,0.2
								c0.2,0,0.3-0.1,0.4-0.3v-18C124-10.1,123.9-10.1,123.7-10.1L123.7-10.1z"/>
						</g>
						<g>
							<path id="MJMATHI-3B2" class="st23" d="M126.7-9.1c-0.1,0.1-0.1,0.1-0.1,0.1c0,0,0.5,2,1.4,5.9c0.9,3.9,1.4,6,1.5,6.1
								c0.3,0.8,0.6,1.6,1,2.2s0.8,1.1,1.2,1.4c0.7,0.6,1.4,0.9,2.2,0.9h0c0.7,0,1.4-0.2,1.8-0.7s0.7-1.1,0.7-1.8
								c0-1.3-0.6-2.4-1.9-3.2l0.2-0.2c0.6-0.6,0.9-1.4,0.9-2.4c0-1.4-0.5-2.6-1.5-3.5s-2.2-1.4-3.4-1.4c-0.4,0-0.7,0-1,0.1
								c-0.3,0.1-0.5,0.2-0.7,0.4c-0.2,0.1-0.3,0.3-0.4,0.4c-0.1,0.1-0.2,0.3-0.2,0.4s-0.1,0.1-0.1,0.1L127.3-9
								c0-0.1-0.1-0.1-0.4-0.1H126.7z M132.5,2.5c0.5,0,0.9-0.1,1.3-0.2l0.1,0.1c0,0,0.1,0.1,0.1,0.1c0,0,0.1,0.1,0.2,0.2
								c0.1,0.1,0.2,0.2,0.2,0.3c0.1,0.1,0.1,0.2,0.2,0.3c0.1,0.1,0.1,0.3,0.2,0.4c0.1,0.2,0.1,0.3,0.2,0.5c0,0.2,0.1,0.4,0.1,0.7
								c0,0.1,0,0.3,0,0.6c0,0.2,0,0.4,0,0.4c-0.2,0.6-0.6,0.9-1.4,0.9c-0.5,0-1-0.1-1.4-0.4s-0.8-0.7-1.1-1.1
								c-0.3-0.5-0.5-0.9-0.7-1.3c-0.2-0.4-0.3-0.7-0.4-1.1c-0.1-0.2-0.3-1.1-0.7-2.7c-0.4-1.6-0.6-2.5-0.6-2.6c0-0.1,0-0.2,0-0.4
								c0-0.6,0.1-1.1,0.4-1.5c0.4-0.5,0.9-0.8,1.6-0.8c0.5,0,1,0.2,1.6,0.5c0.6,0.3,1,0.8,1.4,1.6c0.2,0.4,0.3,0.9,0.4,1.4
								c0.1,0.5,0.1,0.9,0.1,1.2c0,0.7-0.2,1.3-0.6,1.7c-0.5-0.2-1-0.3-1.3-0.3h-0.2c-0.9,0-1.4,0.2-1.4,0.6c0,0.1,0,0.2,0.1,0.3
								C131,2.3,131.6,2.5,132.5,2.5z"/>
						</g>
						<g transform="translate(852,0)">
							<g>
								<path id="MJMAIN-7C_3_" class="st23" d="M-713-10.1L-713-10.1c-0.2,0-0.3,0.1-0.4,0.3v9l0,9c0.1,0.2,0.2,0.2,0.3,0.2
									c0.2,0,0.3-0.1,0.4-0.3v-18C-712.8-10.1-712.9-10.1-713-10.1L-713-10.1z"/>
							</g>
							<g transform="translate(278,-286)">
								<g transform="scale(0.707)">
									<path id="MJMATHI-6D_2_" class="st24" d="M-988.3,278.9c0,0.1,0,0.1,0,0.2s0.1,0.3,0.2,0.5c0.1,0.2,0.2,0.4,0.3,0.6
										c0.1,0.2,0.2,0.3,0.4,0.5c0.2,0.2,0.4,0.2,0.6,0.2s0.4,0,0.5-0.1c0.2-0.1,0.3-0.1,0.4-0.2c0.1-0.1,0.1-0.2,0.2-0.3
										s0.1-0.2,0.1-0.2l0-0.1c0,0,0,0,0,0l0.1,0.1c0.5,0.6,1.1,0.8,1.8,0.8c0.1,0,0.3,0,0.4,0c0.1,0,0.2,0,0.3-0.1
										c0.1,0,0.2-0.1,0.2-0.1s0.1-0.1,0.2-0.2c0.1-0.1,0.1-0.1,0.1-0.2c0-0.1,0.1-0.1,0.1-0.2c0.1-0.1,0.1-0.1,0.1-0.2
										s0-0.1,0-0.1c0,0,0.1-0.1,0-0.1l0.1,0.1c0.5,0.7,1.2,1,1.9,1c0.5,0,0.8-0.1,1.1-0.4c0.3-0.2,0.4-0.6,0.4-1
										c0-0.4-0.2-1.1-0.5-2.1c-0.3-0.9-0.5-1.5-0.5-1.7c0-0.1,0-0.2,0.1-0.2c0,0,0.1-0.1,0.2-0.1c0.2,0,0.5,0.1,0.7,0.4
										s0.4,0.6,0.5,1.1c0,0.1,0.1,0.2,0.1,0.2c0,0,0.1,0,0.2,0c0.2,0,0.3,0,0.3-0.1c0,0,0-0.1-0.1-0.2c-0.1-0.3-0.2-0.5-0.3-0.7
										c-0.1-0.2-0.3-0.5-0.6-0.7c-0.3-0.2-0.6-0.4-0.9-0.4c-0.4,0-0.7,0.1-0.9,0.4c-0.2,0.2-0.3,0.5-0.3,0.7
										c0,0.2,0.2,0.7,0.5,1.6c0.3,0.9,0.5,1.5,0.5,2c0,0.5-0.2,0.8-0.6,0.8h-0.1c-0.7,0-1.3-0.4-1.8-1.3l-0.1-0.2l-0.4-1.8
										c-0.3-1.1-0.4-1.8-0.5-1.8c-0.1-0.2-0.3-0.4-0.5-0.4c-0.1,0-0.2,0-0.3,0.1c-0.1,0.1-0.1,0.1-0.1,0.2c0,0,0,0.1,0,0.1
										c0,0.1,0.1,0.7,0.4,1.9l0.5,1.9c0,0.1,0,0.3,0,0.5c0,0.5-0.2,0.8-0.6,0.8h-0.1c-0.7,0-1.3-0.4-1.8-1.3l-0.1-0.2l-0.4-1.8
										c-0.3-1.1-0.4-1.8-0.5-1.8c-0.1-0.2-0.3-0.4-0.5-0.4c-0.1,0-0.2,0-0.3,0.1c-0.1,0.1-0.1,0.1-0.1,0.2s0,0.1,0,0.1
										c0,0.1,0.2,0.8,0.5,2.1c0.3,1.3,0.5,2,0.5,2.1c0,0.1,0,0.2,0,0.4c0,0.3-0.1,0.5-0.3,0.5c-0.2,0-0.3-0.1-0.5-0.4
										c-0.1-0.2-0.2-0.5-0.3-0.8c-0.1-0.3-0.1-0.4-0.2-0.5c0,0-0.1,0-0.2,0h-0.2C-988.2,278.9-988.3,278.9-988.3,278.9z"/>
								</g>
								<g transform="scale(0.707)">
									<path id="MJMATHI-65_2_" class="st24" d="M-976.9,277.4c0,0.5,0.1,1,0.2,1.4c0.2,0.4,0.4,0.8,0.6,1
										c0.3,0.3,0.5,0.5,0.8,0.7s0.6,0.3,0.9,0.4s0.5,0.1,0.8,0.1h0c0.4,0,0.7-0.1,1-0.3c0.3-0.2,0.4-0.5,0.4-0.9
										c0-0.8-0.5-1.3-1.4-1.5c-0.4-0.1-1-0.2-1.7-0.2c-0.3,0-0.5,0-0.5,0c0,0,0-0.2-0.1-0.5c-0.1-0.3-0.1-0.5-0.1-0.8
										c0-0.4,0.1-0.7,0.3-1s0.4-0.4,0.8-0.4c0.4,0,0.7,0.1,1.2,0.2s0.8,0.5,1.2,0.9c0.1,0.1,0.1,0.1,0.2,0.1c0,0,0.1,0,0.2-0.1
										c0.1-0.1,0.1-0.1,0.1-0.2c0,0,0-0.1-0.1-0.2c-0.1-0.1-0.2-0.2-0.4-0.4s-0.4-0.3-0.6-0.4s-0.5-0.2-0.8-0.3
										c-0.3-0.1-0.6-0.1-1-0.1c-0.7,0-1.2,0.2-1.5,0.7C-976.7,276.2-976.9,276.7-976.9,277.4z M-972.7,279.8
										c-0.1,0.5-0.3,0.7-0.9,0.7c-0.3,0-0.5-0.1-0.8-0.2c-0.2-0.1-0.4-0.3-0.6-0.4s-0.3-0.4-0.4-0.5c-0.1-0.2-0.2-0.3-0.2-0.5
										c0-0.1-0.1-0.2-0.1-0.2c0,0,0.1,0,0.3,0c1,0,1.6,0.1,2,0.3C-972.9,279.1-972.7,279.4-972.7,279.8z"/>
								</g>
								<g transform="scale(0.707)">
									<path id="MJMATHI-61_2_" class="st24" d="M-971.1,277.2c0,0.9,0.3,1.7,1,2.5c0.6,0.8,1.4,1.2,2.2,1.2
										c0.4,0,0.8-0.2,1.1-0.6c0.1,0.3,0.3,0.4,0.6,0.4c0.1,0,0.2,0,0.3-0.1c0.1-0.1,0.1-0.2,0.1-0.3c0-0.1-0.2-0.8-0.5-2.1
										c-0.3-1.3-0.5-2-0.5-2.2c0-0.2,0-0.4,0.1-0.4c0.1-0.1,0.1-0.1,0.3-0.1c0.1,0,0.2,0,0.3,0.1c0.2,0.2,0.4,0.6,0.5,1.3
										c0.1,0.2,0.1,0.3,0.1,0.3c0,0,0.1,0,0.1,0h0.1c0.2,0,0.2,0,0.2-0.1c0-0.1,0-0.2-0.1-0.4s-0.1-0.4-0.3-0.7
										c-0.1-0.3-0.3-0.5-0.4-0.7c-0.1-0.1-0.2-0.2-0.4-0.3c-0.1,0-0.2,0-0.3,0c-0.3,0-0.5,0.1-0.7,0.2s-0.3,0.3-0.4,0.4l-0.1,0.2
										c0,0,0,0-0.1,0c0,0,0,0-0.1-0.1c-0.5-0.5-1-0.7-1.5-0.7c-0.5,0-0.9,0.2-1.2,0.5S-971.1,276.5-971.1,277.2z M-967,279.5
										c0,0.1,0,0.1-0.1,0.3s-0.1,0.3-0.3,0.5s-0.3,0.3-0.6,0.3c-0.3,0-0.6-0.1-0.8-0.4c-0.3-0.3-0.5-0.6-0.6-1.1
										c-0.2-0.7-0.4-1.4-0.5-2.1c0,0,0-0.1,0-0.1c0-0.1,0-0.1,0-0.2c0-0.4,0.1-0.7,0.2-0.8c0.2-0.1,0.3-0.2,0.5-0.2
										c0.3,0,0.6,0.1,1,0.4c0.3,0.3,0.5,0.5,0.6,0.7c0,0,0.1,0.5,0.3,1.4C-967.2,278.9-967,279.4-967,279.5z"/>
								</g>
								<g transform="scale(0.707)">
									<path id="MJMATHI-6E_2_" class="st24" d="M-964.5,278.9c0,0.1,0,0.1,0,0.2s0.1,0.3,0.2,0.5c0.1,0.2,0.2,0.4,0.3,0.6
										c0.1,0.2,0.2,0.3,0.4,0.5c0.2,0.2,0.4,0.2,0.6,0.2c0.3,0,0.6-0.1,0.8-0.2c0.2-0.2,0.3-0.3,0.4-0.4s0.1-0.2,0.1-0.3
										c0,0,0,0,0,0l0.1,0.1c0.5,0.6,1.1,0.8,1.8,0.8c0.5,0,0.8-0.1,1.1-0.4c0.3-0.2,0.4-0.6,0.4-1c0-0.5-0.2-1.1-0.5-2.1
										c-0.3-0.9-0.5-1.5-0.5-1.7c0-0.2,0.1-0.3,0.2-0.3c0.1,0,0.1,0,0.1,0c0.2,0,0.5,0.2,0.7,0.5c0.2,0.3,0.3,0.6,0.4,1
										c0,0.1,0.1,0.1,0.3,0.1c0.2,0,0.3,0,0.3-0.1c0,0,0-0.1-0.1-0.2c-0.1-0.3-0.2-0.5-0.3-0.7c-0.1-0.2-0.3-0.5-0.6-0.7
										c-0.3-0.2-0.6-0.4-0.9-0.4c-0.4,0-0.7,0.1-0.9,0.4c-0.2,0.2-0.3,0.5-0.3,0.7c0,0.2,0.2,0.7,0.5,1.6s0.5,1.5,0.5,2
										c0,0.5-0.2,0.8-0.6,0.8h-0.1c-0.7,0-1.3-0.4-1.8-1.3l-0.1-0.2l-0.4-1.8c-0.3-1.1-0.4-1.8-0.5-1.8c-0.1-0.2-0.3-0.4-0.5-0.4
										c-0.1,0-0.2,0-0.3,0.1c-0.1,0.1-0.1,0.1-0.1,0.2c0,0.1,0,0.1,0,0.1c0,0.1,0.2,0.8,0.5,2.1c0.3,1.3,0.5,2,0.5,2.1
										c0,0,0,0.1,0,0.3c0,0.3-0.1,0.5-0.3,0.5c-0.3,0-0.6-0.4-0.8-1.3c-0.1-0.2-0.1-0.3-0.1-0.3c0-0.1-0.1-0.1-0.2-0.1h-0.2
										C-964.5,278.9-964.5,278.9-964.5,278.9z"/>
								</g>
							</g>
						</g>
					</g>
				</g>
			</g>
			<g>
				<g transform="translate(0,103)translate(-24.54443359375,0)" pointer-events="none">
					<g transform="matrix(1 0 0 -1 0 0)">
						<g>
							<path id="MJMAIN-7C_4_" class="st25" d="M124.6-7.9L124.6-7.9c-0.2,0-0.3,0.1-0.4,0.3v9l0,9c0.1,0.2,0.2,0.2,0.3,0.2
								c0.2,0,0.3-0.1,0.4-0.3v-18C124.9-7.8,124.8-7.9,124.6-7.9L124.6-7.9z"/>
						</g>
						<g>
							<path id="MJMATHI-3B8_1_" class="st25" d="M127.7,0.4c0,1.3,0.2,2.6,0.7,4c0.5,1.4,1.1,2.6,1.9,3.6c0.8,1,1.6,1.6,2.5,1.7
								c0,0,0.1,0,0.1,0s0.2,0,0.2,0c0.6,0,1.1-0.4,1.5-0.9c0.5-0.7,0.7-1.7,0.7-3c0-1.4-0.3-2.9-0.8-4.3s-1.2-2.7-2.1-3.6
								c-0.8-0.9-1.6-1.4-2.4-1.4H130c-0.4,0-0.8,0.1-1.1,0.4s-0.5,0.6-0.7,1c-0.2,0.4-0.3,0.8-0.3,1.2S127.7,0,127.7,0.4z M134,7.2
								c0,1.3-0.3,1.9-1,1.9c-0.4,0-0.8-0.3-1.3-0.8c-0.4-0.6-0.7-1.2-1-1.9s-0.5-1.3-0.6-1.9c-0.1-0.5-0.2-0.8-0.2-0.9
								c0.6,0,1.2,0,1.7,0l1.7,0c0,0,0.1,0.2,0.1,0.6s0.2,0.9,0.3,1.5C133.9,6.3,134,6.8,134,7.2z M129.1-0.9c0-1.3,0.3-2,1-2
								c0.2,0,0.4,0.1,0.6,0.2c0.2,0.1,0.4,0.4,0.7,0.7c0.3,0.3,0.6,0.9,0.9,1.6c0.3,0.7,0.6,1.6,0.9,2.7l0.1,0.3h-3.5
								c0,0-0.1-0.3-0.2-0.7s-0.2-0.9-0.3-1.4C129.2,0,129.1-0.4,129.1-0.9z"/>
						</g>
						<g transform="translate(748,0)">
							<g>
								<path id="MJMAIN-7C_5_" class="st25" d="M-610-7.9L-610-7.9c-0.2,0-0.3,0.1-0.4,0.3v9l0,9c0.1,0.2,0.2,0.2,0.3,0.2
									c0.2,0,0.3-0.1,0.4-0.3v-18C-609.7-7.8-609.8-7.9-610-7.9L-610-7.9z"/>
							</g>
							<g transform="translate(278,-286)">
								<g transform="scale(0.707)">
									<path id="MJMATHI-6D_3_" class="st26" d="M-885.2,281.2c0,0.1,0,0.1,0,0.2s0.1,0.3,0.2,0.5c0.1,0.2,0.2,0.4,0.3,0.6
										c0.1,0.2,0.2,0.3,0.4,0.5c0.2,0.2,0.4,0.2,0.6,0.2c0.2,0,0.4,0,0.5-0.1s0.3-0.1,0.4-0.2s0.1-0.2,0.2-0.3s0.1-0.2,0.1-0.2
										l0-0.1c0,0,0,0,0,0l0.1,0.1c0.5,0.6,1.1,0.8,1.8,0.8c0.1,0,0.3,0,0.4,0c0.1,0,0.2,0,0.3-0.1c0.1,0,0.2-0.1,0.2-0.1
										s0.1-0.1,0.2-0.2c0.1-0.1,0.1-0.1,0.1-0.2s0.1-0.1,0.1-0.2c0.1-0.1,0.1-0.1,0.1-0.2s0-0.1,0-0.1c0,0,0.1-0.1,0-0.1l0.1,0.1
										c0.5,0.7,1.2,1,1.9,1c0.5,0,0.8-0.1,1.1-0.4s0.4-0.6,0.4-1c0-0.4-0.2-1.1-0.5-2.1c-0.3-0.9-0.5-1.5-0.5-1.7
										c0-0.1,0-0.2,0.1-0.2c0,0,0.1-0.1,0.2-0.1c0.2,0,0.5,0.1,0.7,0.4c0.2,0.3,0.4,0.6,0.5,1.1c0,0.1,0.1,0.2,0.1,0.2
										c0,0,0.1,0,0.2,0c0.2,0,0.3,0,0.3-0.1c0,0,0-0.1-0.1-0.2c-0.1-0.3-0.2-0.5-0.3-0.7c-0.1-0.2-0.3-0.5-0.6-0.7
										s-0.6-0.4-0.9-0.4c-0.4,0-0.7,0.1-0.9,0.4s-0.3,0.5-0.3,0.7c0,0.2,0.2,0.7,0.5,1.6s0.5,1.5,0.5,2c0,0.5-0.2,0.8-0.6,0.8
										h-0.1c-0.7,0-1.3-0.4-1.8-1.3l-0.1-0.2l-0.4-1.8c-0.3-1.1-0.4-1.8-0.5-1.8c-0.1-0.2-0.3-0.4-0.5-0.4c-0.1,0-0.2,0-0.3,0.1
										c-0.1,0.1-0.1,0.1-0.1,0.2c0,0,0,0.1,0,0.1c0,0.1,0.1,0.7,0.4,1.9l0.5,1.9c0,0.1,0,0.3,0,0.5c0,0.5-0.2,0.8-0.6,0.8h-0.1
										c-0.7,0-1.3-0.4-1.8-1.3l-0.1-0.2l-0.4-1.8c-0.3-1.1-0.4-1.8-0.5-1.8c-0.1-0.2-0.3-0.4-0.5-0.4c-0.1,0-0.2,0-0.3,0.1
										c-0.1,0.1-0.1,0.1-0.1,0.2c0,0.1,0,0.1,0,0.1c0,0.1,0.2,0.8,0.5,2.1c0.3,1.3,0.5,2,0.5,2.1c0,0.1,0,0.2,0,0.4
										c0,0.3-0.1,0.5-0.3,0.5c-0.2,0-0.3-0.1-0.5-0.4s-0.2-0.5-0.3-0.8c-0.1-0.3-0.1-0.4-0.2-0.5c0,0-0.1,0-0.2,0h-0.2
										C-885.2,281.1-885.2,281.1-885.2,281.2z"/>
								</g>
								<g transform="scale(0.707)">
									<path id="MJMATHI-65_3_" class="st26" d="M-873.9,279.6c0,0.5,0.1,1,0.2,1.4c0.2,0.4,0.4,0.8,0.6,1
										c0.3,0.3,0.5,0.5,0.8,0.7c0.3,0.2,0.6,0.3,0.9,0.4c0.3,0.1,0.5,0.1,0.8,0.1h0c0.4,0,0.7-0.1,1-0.3c0.3-0.2,0.4-0.5,0.4-0.9
										c0-0.8-0.5-1.3-1.4-1.5c-0.4-0.1-1-0.2-1.7-0.2c-0.3,0-0.5,0-0.5,0c0,0,0-0.2-0.1-0.5c-0.1-0.3-0.1-0.5-0.1-0.8
										c0-0.4,0.1-0.7,0.3-1c0.2-0.2,0.4-0.4,0.8-0.4c0.4,0,0.7,0.1,1.2,0.2c0.4,0.2,0.8,0.5,1.2,0.9c0.1,0.1,0.1,0.1,0.2,0.1
										c0,0,0.1,0,0.2-0.1c0.1-0.1,0.1-0.1,0.1-0.2c0,0,0-0.1-0.1-0.2c-0.1-0.1-0.2-0.2-0.4-0.4c-0.2-0.1-0.4-0.3-0.6-0.4
										c-0.2-0.1-0.5-0.2-0.8-0.3c-0.3-0.1-0.6-0.1-1-0.1c-0.7,0-1.2,0.2-1.5,0.7C-873.7,278.4-873.9,279-873.9,279.6z
										 M-869.6,282c-0.1,0.5-0.3,0.7-0.9,0.7c-0.3,0-0.5-0.1-0.8-0.2c-0.2-0.1-0.4-0.3-0.6-0.4c-0.1-0.2-0.3-0.4-0.4-0.5
										c-0.1-0.2-0.2-0.3-0.2-0.5c0-0.1-0.1-0.2-0.1-0.2c0,0,0.1,0,0.3,0c1,0,1.6,0.1,2,0.3C-869.8,281.3-869.7,281.6-869.6,282z"
										/>
								</g>
								<g transform="scale(0.707)">
									<path id="MJMATHI-61_3_" class="st26" d="M-868,279.5c0,0.9,0.3,1.7,1,2.5c0.6,0.8,1.4,1.2,2.2,1.2c0.4,0,0.8-0.2,1.1-0.6
										c0.1,0.3,0.3,0.4,0.6,0.4c0.1,0,0.2,0,0.3-0.1c0.1-0.1,0.1-0.2,0.1-0.3c0-0.1-0.2-0.8-0.5-2.1s-0.5-2-0.5-2.2
										c0-0.2,0-0.4,0.1-0.4c0.1-0.1,0.1-0.1,0.3-0.1c0.1,0,0.2,0,0.3,0.1c0.2,0.2,0.4,0.6,0.5,1.3c0.1,0.2,0.1,0.3,0.1,0.3
										c0,0,0.1,0,0.1,0h0.1c0.2,0,0.2,0,0.2-0.1c0-0.1,0-0.2-0.1-0.4s-0.1-0.4-0.3-0.7c-0.1-0.3-0.3-0.5-0.4-0.7
										c-0.1-0.1-0.2-0.2-0.4-0.3c-0.1,0-0.2,0-0.3,0c-0.3,0-0.5,0.1-0.7,0.2c-0.2,0.1-0.3,0.3-0.4,0.4l-0.1,0.2c0,0,0,0-0.1,0
										c0,0,0,0-0.1-0.1c-0.5-0.5-1-0.7-1.5-0.7c-0.5,0-0.9,0.2-1.2,0.5C-867.9,278.1-868,278.7-868,279.5z M-864,281.7
										c0,0.1,0,0.1-0.1,0.3s-0.1,0.3-0.3,0.5c-0.2,0.2-0.3,0.3-0.6,0.3c-0.3,0-0.6-0.1-0.8-0.4c-0.3-0.3-0.5-0.6-0.6-1.1
										c-0.2-0.7-0.4-1.4-0.5-2.1c0,0,0-0.1,0-0.1c0-0.1,0-0.1,0-0.2c0-0.4,0.1-0.7,0.2-0.8s0.3-0.2,0.5-0.2c0.3,0,0.6,0.1,1,0.4
										c0.3,0.3,0.5,0.5,0.6,0.7c0,0,0.1,0.5,0.3,1.4C-864.1,281.1-864,281.6-864,281.7z"/>
								</g>
								<g transform="scale(0.707)">
									<path id="MJMATHI-6E_3_" class="st26" d="M-861.5,281.2c0,0.1,0,0.1,0,0.2c0,0.1,0.1,0.3,0.2,0.5c0.1,0.2,0.2,0.4,0.3,0.6
										c0.1,0.2,0.2,0.3,0.4,0.5c0.2,0.2,0.4,0.2,0.6,0.2c0.3,0,0.6-0.1,0.8-0.2s0.3-0.3,0.4-0.4s0.1-0.2,0.1-0.3c0,0,0,0,0,0
										l0.1,0.1c0.5,0.6,1.1,0.8,1.8,0.8c0.5,0,0.8-0.1,1.1-0.4s0.4-0.6,0.4-1c0-0.5-0.2-1.1-0.5-2.1c-0.3-0.9-0.5-1.5-0.5-1.7
										c0-0.2,0.1-0.3,0.2-0.3c0.1,0,0.1,0,0.1,0c0.2,0,0.5,0.2,0.7,0.5s0.3,0.6,0.4,1c0,0.1,0.1,0.1,0.3,0.1c0.2,0,0.3,0,0.3-0.1
										c0,0,0-0.1-0.1-0.2c-0.1-0.3-0.2-0.5-0.3-0.7c-0.1-0.2-0.3-0.5-0.6-0.7s-0.6-0.4-0.9-0.4c-0.4,0-0.7,0.1-0.9,0.4
										s-0.3,0.5-0.3,0.7c0,0.2,0.2,0.7,0.5,1.6s0.5,1.5,0.5,2c0,0.5-0.2,0.8-0.6,0.8h-0.1c-0.7,0-1.3-0.4-1.8-1.3l-0.1-0.2
										l-0.4-1.8c-0.3-1.1-0.4-1.8-0.5-1.8c-0.1-0.2-0.3-0.4-0.5-0.4c-0.1,0-0.2,0-0.3,0.1c-0.1,0.1-0.1,0.1-0.1,0.2s0,0.1,0,0.1
										c0,0.1,0.2,0.8,0.5,2.1c0.3,1.3,0.5,2,0.5,2.1c0,0,0,0.1,0,0.3c0,0.3-0.1,0.5-0.3,0.5c-0.3,0-0.6-0.4-0.8-1.3
										c-0.1-0.2-0.1-0.3-0.1-0.3c0-0.1-0.1-0.1-0.2-0.1h-0.2C-861.5,281.1-861.5,281.1-861.5,281.2z"/>
								</g>
							</g>
						</g>
					</g>
				</g>
			</g>
		</g>
	</g>
</g>
<g>
	<g>
		<text transform="matrix(1 0 0 1 265.3789 876.8)" class="st5 st27">Feature Importance</text>
	</g>
	<g transform="translate(9.130859375,0)">
		<text transform="matrix(6.123234e-17 -1 1 6.123234e-17 11.869 479.9846)" class="st5 st27">Markers</text>
	</g>
</g>
</svg>
