<?xml version="1.0" encoding="utf-8"?>
<!-- Generator: Adobe Illustrator 24.0.2, SVG Export Plug-In . SVG Version: 6.00 Build 0)  -->
<svg version="1.1" id="Layer_1" focusable="false" xmlns="http://www.w3.org/2000/svg" xmlns:xlink="http://www.w3.org/1999/xlink"
	 x="0px" y="0px" viewBox="0 0 650 900" style="enable-background:new 0 0 650 900;" xml:space="preserve">
<style type="text/css">
	.st0{fill:#FFFFFF;}
	.st1{stroke:#EBF0F8;}
	.st2{clip-path:url(#SVGID_2_);}
	.st3{fill:#42B9B2;}
	.st4{fill:none;}
	.st5{font-family:'TimesNewRomanPSMT';}
	.st6{font-size:20px;}
	.st7{stroke:#000000;stroke-width:1.393605e-02;stroke-miterlimit:10;}
	.st8{stroke:#000000;stroke-width:9.852790e-03;stroke-miterlimit:10;}
	.st9{stroke:#000000;stroke-width:1.393600e-02;stroke-miterlimit:10;}
	.st10{stroke:#000000;stroke-width:9.852756e-03;stroke-miterlimit:10;}
	.st11{stroke:#000000;stroke-width:1.393479e-02;stroke-miterlimit:10;}
	.st12{stroke:#000000;stroke-width:9.851899e-03;stroke-miterlimit:10;}
	.st13{stroke:#000000;stroke-width:1.393430e-02;stroke-miterlimit:10;}
	.st14{stroke:#000000;stroke-width:9.851549e-03;stroke-miterlimit:10;}
	.st15{stroke:#000000;stroke-width:1.393503e-02;stroke-miterlimit:10;}
	.st16{stroke:#000000;stroke-width:9.852064e-03;stroke-miterlimit:10;}
	.st17{stroke:#000000;stroke-width:1.393582e-02;stroke-miterlimit:10;}
	.st18{stroke:#000000;stroke-width:9.852624e-03;stroke-miterlimit:10;}
	.st19{stroke:#000000;stroke-width:1.393490e-02;stroke-miterlimit:10;}
	.st20{stroke:#000000;stroke-width:9.851974e-03;stroke-miterlimit:10;}
	.st21{stroke:#000000;stroke-width:1.393611e-02;stroke-miterlimit:10;}
	.st22{stroke:#000000;stroke-width:9.852829e-03;stroke-miterlimit:10;}
	.st23{stroke:#000000;stroke-width:1.393640e-02;stroke-miterlimit:10;}
	.st24{stroke:#000000;stroke-width:9.853035e-03;stroke-miterlimit:10;}
	.st25{stroke:#000000;stroke-width:1.393472e-02;stroke-miterlimit:10;}
	.st26{stroke:#000000;stroke-width:9.851844e-03;stroke-miterlimit:10;}
	.st27{font-size:24px;}
</style>
<rect y="0" class="st0" width="650" height="900"/>
<g>
	<g>
		<g>
			<g>
				<path class="st1" d="M219.5,60v760"/>
				<path class="st1" d="M304.8,60v760"/>
				<path class="st1" d="M390.1,60v760"/>
				<path class="st1" d="M475.4,60v760"/>
				<path class="st1" d="M560.7,60v760"/>
			</g>
			<g>
				<path class="st1" d="M139,777h431"/>
				<path class="st1" d="M139,702.1h431"/>
				<path class="st1" d="M139,627.2h431"/>
				<path class="st1" d="M139,552.3h431"/>
				<path class="st1" d="M139,477.4h431"/>
				<path class="st1" d="M139,402.6h431"/>
				<path class="st1" d="M139,327.7h431"/>
				<path class="st1" d="M139,252.8h431"/>
				<path class="st1" d="M139,177.9h431"/>
				<path class="st1" d="M139,103h431"/>
			</g>
		</g>
		<path class="st1" d="M0,0"/>
		<path class="st1" d="M0,0"/>
		<g>
			<defs>
				<rect id="SVGID_1_" x="139" y="60" width="431" height="760"/>
			</defs>
			<clipPath id="SVGID_2_">
				<use xlink:href="#SVGID_1_"  style="overflow:visible;"/>
			</clipPath>
			<g transform="translate(139,60)" class="st2">
				<g>
					<g>
						<g>
							<path class="st3" d="M30.5,717c0,2.2-1.8,4-4,4s-4-1.8-4-4c0-2.2,1.8-4,4-4S30.5,714.8,30.5,717z"/>
							<path class="st3" d="M32.3,642.1c0,2.2-1.8,4-4,4s-4-1.8-4-4c0-2.2,1.8-4,4-4S32.3,639.9,32.3,642.1z"/>
							<path class="st3" d="M74.9,567.2c0,2.2-1.8,4-4,4s-4-1.8-4-4c0-2.2,1.8-4,4-4S74.9,565,74.9,567.2z"/>
							<path class="st3" d="M77.7,492.3c0,2.2-1.8,4-4,4s-4-1.8-4-4c0-2.2,1.8-4,4-4S77.7,490.1,77.7,492.3z"/>
							<path class="st3" d="M79.3,417.4c0,2.2-1.8,4-4,4s-4-1.8-4-4c0-2.2,1.8-4,4-4S79.3,415.2,79.3,417.4z"/>
							<path class="st3" d="M139.6,342.6c0,2.2-1.8,4-4,4s-4-1.8-4-4c0-2.2,1.8-4,4-4S139.6,340.4,139.6,342.6z"/>
							<path class="st3" d="M204.2,267.7c0,2.2-1.8,4-4,4s-4-1.8-4-4c0-2.2,1.8-4,4-4S204.2,265.5,204.2,267.7z"/>
							<path class="st3" d="M249.4,192.8c0,2.2-1.8,4-4,4s-4-1.8-4-4s1.8-4,4-4S249.4,190.6,249.4,192.8z"/>
							<path class="st3" d="M263.9,117.9c0,2.2-1.8,4-4,4s-4-1.8-4-4s1.8-4,4-4S263.9,115.7,263.9,117.9z"/>
							<path class="st3" d="M408.5,43c0,2.2-1.8,4-4,4s-4-1.8-4-4c0-2.2,1.8-4,4-4S408.5,40.8,408.5,43z"/>
						</g>
					</g>
				</g>
			</g>
		</g>
		<path class="st4" d="M0,0"/>
		<path class="st4" d="M0,0"/>
		<g>
			<g>
				<text transform="matrix(1 0 0 1 192 841)" class="st5 st6">0.0195</text>
			</g>
			<g>
				<text transform="matrix(1 0 0 1 287.29 841)" class="st5 st6">0.02</text>
			</g>
			<g>
				<text transform="matrix(1 0 0 1 362.58 841)" class="st5 st6">0.0205</text>
			</g>
			<g>
				<text transform="matrix(1 0 0 1 452.88 841)" class="st5 st6">0.021</text>
			</g>
			<g>
				<text transform="matrix(1 0 0 1 533.17 841)" class="st5 st6">0.0215</text>
			</g>
		</g>
		<g>
			<g transform="translate(0,777)translate(-44.99462890625,0)" pointer-events="none">
				<g transform="matrix(1 0 0 -1 0 0)">
					<g>
						<path id="MJMATHI-53" class="st7" d="M100.5-6.5c0.7,0,1.4,0.3,2,1s0.9,1.4,0.9,2.3c0,0.8-0.3,1.4-1,1.7
							c-1.3,0.3-2.2,0.6-2.6,0.7s-0.6,0.3-0.8,0.4C98.4,0.1,98,0.9,98,1.9c0,0.8,0.2,1.5,0.6,2.1c0.4,0.6,0.8,1.1,1.2,1.4
							c0.4,0.3,0.8,0.6,1.3,0.8c0.5,0.2,0.9,0.3,1.2,0.3h0.2h0.1c1.2,0,2.1-0.4,2.6-1.2c0,0,0.1,0.1,0.2,0.2s0.3,0.3,0.5,0.6
							c0.2,0.2,0.3,0.3,0.4,0.4c0,0,0,0,0.1,0c0,0,0.1,0,0.1,0c0.2,0,0.2,0,0.2-0.1s-0.2-0.9-0.5-2.3c-0.4-1.4-0.6-2.2-0.6-2.2
							c-0.1-0.1-0.2-0.1-0.3-0.1c-0.3,0-0.4,0.1-0.4,0.2c0,0.1,0,0.1,0,0.2c0,0,0,0.2,0,0.4c0,0.2,0,0.4,0,0.5
							c0,0.4-0.1,0.8-0.2,1.1c-0.1,0.3-0.2,0.6-0.3,0.7c-0.1,0.2-0.3,0.3-0.5,0.5c-0.5,0.3-1,0.4-1.5,0.4c-0.7,0-1.4-0.3-2-0.9
							s-0.9-1.3-0.9-2c0-0.4,0.1-0.7,0.3-1c0.2-0.3,0.4-0.5,0.8-0.6c0.1,0,0.5-0.1,1.3-0.4s1.3-0.3,1.3-0.3c0.4-0.1,0.8-0.4,1.2-0.9
							c0.4-0.5,0.6-1.1,0.6-1.9c0-0.3-0.1-0.7-0.2-1.1c-0.1-0.3-0.2-0.6-0.3-0.9s-0.4-0.7-0.7-1.1s-0.7-0.8-1.2-1.1
							c-0.5-0.4-1.1-0.6-1.8-0.7c-0.2,0-0.4,0-0.6,0c-1.2,0-2.2,0.3-2.9,1l-0.2,0.2l-0.5-0.6c-0.3-0.3-0.5-0.5-0.5-0.6
							S96-7.3,95.9-7.3c-0.2,0-0.2,0.1-0.2,0.2c0,0,0.4,1.5,1.1,4.5c0,0.1,0.2,0.1,0.4,0.1h0.2c0.1-0.1,0.1-0.1,0.1-0.2
							c0,0,0-0.1,0-0.2c0-0.1,0-0.2-0.1-0.4c0-0.2-0.1-0.4,0-0.6c0-0.5,0.1-0.9,0.3-1.3c0.2-0.3,0.5-0.6,0.8-0.8
							c0.3-0.2,0.7-0.3,1-0.3C99.8-6.4,100.1-6.5,100.5-6.5z"/>
					</g>
					<g>
						<path id="MJMATHI-45" class="st7" d="M116.1-2.9c-0.3,0-0.4,0.1-0.4,0.2c0,0.1,0,0.2,0.1,0.5c0.1,0.3,0.1,0.5,0.1,0.7
							c0,0.4-0.1,0.6-0.4,0.7c-0.3,0.1-0.9,0.1-1.8,0.1h-1c0,0-0.2-0.9-0.7-2.6s-0.6-2.6-0.6-2.7c0-0.1,0.1-0.1,0.2-0.1s0.6,0,1.5,0
							c1.2,0,2,0,2.3,0s0.8,0.1,1.1,0.2c0.6,0.2,1.1,0.6,1.5,1.1s0.8,1.3,1.3,2.5c0.1,0.3,0.2,0.4,0.2,0.5c0.1,0,0.2,0,0.3,0
							c0.3,0,0.4-0.1,0.4-0.2c-1.3-3.2-2-4.9-2.1-4.9c0,0-1.8,0-5.4,0h-3.6c-1.3,0-1.9,0.1-1.9,0.2c0,0,0,0.1,0.1,0.3
							c0.1,0.2,0.1,0.3,0.2,0.3c0.1,0,0.2,0,0.4,0.1c0.3,0,0.7,0,1.1,0.1c0.2,0,0.3,0.1,0.4,0.2c0,0.1,0.5,1.8,1.3,5.3
							c0.9,3.5,1.3,5.3,1.3,5.3c0,0.1,0,0.1-0.1,0.1c-0.1,0-0.4,0.1-1,0.1h-0.6c-0.1,0.1-0.1,0.1-0.1,0.2c0,0,0,0.1,0,0.3
							c0.1,0.2,0.1,0.3,0.2,0.4h10.4c0.1-0.1,0.1-0.1,0.1-0.2c0-0.1-0.1-0.8-0.2-2.1s-0.3-2.1-0.3-2.1c0-0.1-0.2-0.1-0.4-0.1h-0.2
							C120,1.5,120,1.6,120,1.7l0.1,0.4c0,0.3,0.1,0.6,0.1,1c0,0.4,0,0.7-0.1,1c-0.1,0.3-0.2,0.5-0.4,0.6S119.3,4.9,119,5
							s-0.6,0.1-0.9,0.1c-0.3,0-0.7,0-1.2,0H116c-1.1,0-1.7,0-1.8-0.1c-0.1,0-0.1-0.1-0.1-0.2c0,0-0.2-0.8-0.6-2.3s-0.6-2.3-0.6-2.3
							c0.3,0,0.6,0,0.9,0h0.5c0.8,0,1.4,0.1,1.7,0.3s0.6,0.7,0.8,1.5c0.1,0.2,0.1,0.3,0.1,0.3c0,0,0.1,0,0.3,0.1c0.1,0,0.1,0,0.2,0
							c0,0,0.1,0,0.1,0c0,0,0,0,0,0s0,0,0-0.1c0-0.1,0-0.1,0.1-0.1l-0.6-2.5c-0.4-1.7-0.6-2.5-0.7-2.6
							C116.4-2.9,116.3-2.9,116.1-2.9z"/>
					</g>
					<g>
						<path id="MJMATHI-46" class="st7" d="M122.2-6.9c-0.2,0-0.3,0.1-0.3,0.2c0,0,0,0.1,0.1,0.3c0.1,0.2,0.1,0.3,0.2,0.3
							c0.1,0,0.2,0,0.4,0.1c0.3,0,0.7,0,1.1,0.1c0.2,0,0.3,0.1,0.4,0.2c0,0.1,0.5,1.8,1.3,5.3c0.9,3.5,1.3,5.3,1.3,5.3
							c0,0.1,0,0.1-0.1,0.1c-0.1,0-0.4,0.1-1,0.1H125c-0.1,0.1-0.1,0.1-0.1,0.2c0,0,0,0.1,0,0.3C125,5.8,125,6,125.1,6h10.2
							c0.1-0.1,0.1-0.1,0.1-0.2c0-0.1-0.1-0.8-0.2-2.1s-0.3-2.1-0.3-2.1c0-0.1-0.2-0.1-0.4-0.1h-0.2c-0.1,0.1-0.1,0.1-0.1,0.2
							c0,0,0,0.2,0.1,0.5c0,0.3,0.1,0.6,0.1,1s0,0.7-0.1,0.9s-0.2,0.4-0.4,0.6s-0.4,0.3-0.7,0.3c-0.3,0.1-0.6,0.1-1,0.1
							c-0.3,0-0.8,0-1.4,0h-0.4c-1,0-1.6,0-1.6-0.1c-0.1,0-0.1-0.1-0.1-0.2c0,0-0.2-0.8-0.6-2.5L127.3,0h1c0,0,0.2,0,0.4,0
							c0.3,0,0.4,0,0.5,0c0.1,0,0.2,0,0.4,0.1c0.2,0,0.3,0.1,0.5,0.1c0.1,0.1,0.2,0.1,0.3,0.2c0.2,0.2,0.3,0.4,0.4,0.6
							c0.1,0.3,0.2,0.5,0.2,0.7s0.1,0.3,0.1,0.3c0,0.1,0.2,0.1,0.4,0.1h0.2c0.1-0.1,0.1-0.1,0.1-0.2c0,0-0.2-0.9-0.6-2.5
							c-0.4-1.6-0.6-2.5-0.6-2.5c0-0.1-0.2-0.1-0.4-0.1h-0.2C130-3,130-3,130-2.9c0,0,0,0.2,0.1,0.4c0.1,0.2,0.1,0.5,0.1,0.8
							c0,0.4-0.1,0.6-0.4,0.7c-0.3,0.1-0.8,0.1-1.7,0.1h-1l-0.6-2.4c-0.4-1.6-0.6-2.4-0.6-2.5c0-0.2,0.6-0.3,1.7-0.3h0.5
							c0.1-0.1,0.1-0.1,0.1-0.1s0-0.1,0-0.4c-0.1-0.2-0.1-0.3-0.2-0.4h-0.3c-0.5,0-1.5,0-2.8,0c-0.8,0-1.4,0-1.9,0
							S122.2-6.9,122.2-6.9z"/>
					</g>
					<g transform="translate(2159,0)">
						<g>
							<path id="MJMAIN-39" class="st7" d="M-2017-1.5c-0.6-1-1.4-1.4-2.3-1.4c-1,0-1.8,0.4-2.4,1.1c-0.6,0.7-1,1.5-1.1,2.4
								c0,0.2,0,0.5,0,0.8v0.2c0,1.2,0.4,2.2,1.3,3.1c0.8,0.8,1.6,1.1,2.5,1.1c0,0,0.1,0,0.1,0s0.1,0,0.2,0h0.1c0.2,0,0.3,0,0.5,0
								s0.4-0.1,0.7-0.2c0.3-0.1,0.6-0.3,0.9-0.6c0.3-0.3,0.6-0.7,0.8-1.1c0.5-1.1,0.8-2.5,0.8-4.3c0-1.8-0.4-3.3-1.1-4.5
								c-0.4-0.7-1-1.3-1.6-1.7c-0.6-0.4-1.3-0.6-2-0.6c-0.8,0-1.4,0.2-1.9,0.6c-0.5,0.4-0.7,0.9-0.8,1.6s0.3,1.1,1,1.1
								c0.3,0,0.5-0.1,0.7-0.3c0.2-0.2,0.3-0.4,0.3-0.7c0-0.2-0.1-0.4-0.2-0.6s-0.2-0.3-0.3-0.3c-0.1,0-0.2-0.1-0.2-0.1l-0.1,0
								c0,0,0-0.1,0.1-0.1c0.1-0.1,0.3-0.1,0.5-0.2c0.2-0.1,0.5-0.1,0.8-0.1h0.1c0.8,0,1.4,0.4,1.9,1.2c0.5,0.7,0.7,1.9,0.7,3.7
								V-1.5z M-2019-2.2c0.6,0,1.1,0.3,1.5,0.9c0.4,0.6,0.6,1.5,0.6,2.5c0,1-0.1,1.7-0.2,2.1c0,0.1-0.1,0.3-0.1,0.4
								c-0.1,0.1-0.1,0.3-0.3,0.5c-0.1,0.2-0.3,0.4-0.6,0.5c-0.3,0.1-0.5,0.2-0.9,0.2c-0.5,0-0.9-0.2-1.2-0.5
								c-0.3-0.3-0.4-0.6-0.5-1s-0.1-1-0.1-2c0-1.1,0-1.8,0.1-2.1s0.2-0.7,0.4-0.9C-2020.1-2-2019.6-2.2-2019-2.2z"/>
						</g>
						<g>
							<path id="MJMAIN-35" class="st7" d="M-2011.1-3.9c0-0.3-0.1-0.6-0.3-0.8c-0.2-0.2-0.4-0.3-0.7-0.3h-0.1
								c0.6-1,1.3-1.5,2.3-1.5c0.9,0,1.5,0.4,1.9,1.1c0.2,0.4,0.4,1.2,0.4,2.4c0,1.3-0.2,2.2-0.5,2.6c-0.3,0.4-0.7,0.6-1.1,0.6h-0.1
								c-1,0-1.7-0.4-2.2-1.3c-0.1-0.1-0.1-0.1-0.1-0.2s-0.1,0-0.3,0c-0.2,0-0.3,0-0.4,0.1c0,0.1,0,1.2,0,3.3v2.5c0,0.6,0,1,0.1,1
								c0,0,0.1,0,0.1,0c0,0,0.1-0.1,0.4-0.2s0.6-0.2,1-0.3c0.4-0.1,0.9-0.2,1.4-0.2c0.9,0,1.7,0.2,2.6,0.5c0.1,0.1,0.2,0.1,0.2,0.1
								c0.1,0,0.2-0.1,0.2-0.3V5.2c-1-1.2-2.3-1.8-3.9-1.8c-0.4,0-0.7,0-1.1,0.1l-0.2,0V0.2c0.2,0.2,0.4,0.3,0.6,0.4
								s0.4,0.2,0.7,0.3c0.3,0.1,0.6,0.2,1,0.2c1,0,1.9-0.4,2.6-1.2c0.7-0.8,1.1-1.8,1.1-2.9c0-1.2-0.4-2.2-1.2-3
								c-0.8-0.8-1.8-1.2-2.9-1.3c-1,0-1.8,0.3-2.5,1c-0.6,0.7-0.9,1.5-0.9,2.3c0,0.3,0.1,0.5,0.2,0.7s0.3,0.3,0.4,0.3
								s0.3,0.1,0.4,0.1c0.3,0,0.6-0.1,0.8-0.3C-2011.2-3.4-2011.1-3.6-2011.1-3.9z"/>
						</g>
						<g transform="translate(1001,-150)">
							<g transform="scale(0.707)">
								<path id="MJMATHI-6D" class="st8" d="M-3005.4,144.1c0,0.1,0,0.1,0,0.2s0.1,0.3,0.2,0.5c0.1,0.3,0.2,0.5,0.3,0.6
									c0.1,0.2,0.2,0.3,0.4,0.5c0.2,0.2,0.4,0.2,0.6,0.2c0.2,0,0.4,0,0.6-0.1c0.2-0.1,0.3-0.1,0.4-0.2c0.1-0.1,0.2-0.2,0.2-0.3
									s0.1-0.2,0.1-0.3l0-0.1c0,0,0,0,0,0l0.1,0.1c0.5,0.6,1.2,0.9,1.9,0.9c0.2,0,0.3,0,0.4,0s0.2,0,0.3-0.1s0.2-0.1,0.3-0.1
									s0.1-0.1,0.2-0.2s0.1-0.1,0.1-0.2c0-0.1,0.1-0.1,0.1-0.2c0.1-0.1,0.1-0.1,0.1-0.2s0-0.1,0-0.1c0,0,0.1-0.1,0-0.1l0.1,0.1
									c0.6,0.7,1.2,1,2,1c0.5,0,0.9-0.1,1.2-0.4c0.3-0.2,0.4-0.6,0.5-1.1c0-0.5-0.2-1.2-0.5-2.1c-0.3-1-0.5-1.5-0.5-1.7
									c0-0.1,0-0.2,0.1-0.3c0,0,0.1-0.1,0.2-0.1c0.2,0,0.5,0.1,0.7,0.4s0.4,0.6,0.5,1.1c0,0.1,0.1,0.2,0.1,0.2c0,0,0.1,0,0.2,0
									c0.2,0,0.3,0,0.3-0.1c0,0,0-0.1-0.1-0.2c-0.1-0.3-0.2-0.5-0.3-0.8c-0.1-0.3-0.3-0.5-0.6-0.8c-0.3-0.3-0.6-0.4-0.9-0.4
									c-0.4,0-0.7,0.1-0.9,0.4c-0.2,0.2-0.3,0.5-0.3,0.8c0,0.2,0.2,0.7,0.5,1.6c0.3,0.9,0.5,1.6,0.5,2c0,0.5-0.2,0.8-0.6,0.8h-0.1
									c-0.8,0-1.4-0.5-1.9-1.4l-0.1-0.2l-0.4-1.8c-0.3-1.2-0.5-1.8-0.5-1.9c-0.1-0.2-0.3-0.4-0.6-0.4c-0.1,0-0.2,0-0.3,0.1
									s-0.1,0.1-0.1,0.2c0,0,0,0.1,0,0.1c0,0.1,0.2,0.7,0.5,1.9l0.5,2c0,0.1,0,0.3,0,0.5c0,0.5-0.2,0.8-0.6,0.8h-0.1
									c-0.8,0-1.4-0.5-1.9-1.4l-0.1-0.2l-0.4-1.8c-0.3-1.2-0.5-1.8-0.5-1.9c-0.1-0.2-0.3-0.4-0.6-0.4c-0.1,0-0.2,0-0.3,0.1
									c-0.1,0.1-0.1,0.1-0.1,0.2c0,0.1,0,0.1,0,0.1c0,0.1,0.2,0.9,0.5,2.2c0.3,1.4,0.5,2.1,0.5,2.2c0,0.1,0,0.3,0,0.4
									c0,0.3-0.1,0.5-0.3,0.5c-0.2,0-0.4-0.1-0.5-0.4c-0.1-0.3-0.2-0.5-0.3-0.8c-0.1-0.3-0.1-0.5-0.2-0.5c0,0-0.1,0-0.2,0h-0.2
									C-3005.4,144-3005.4,144.1-3005.4,144.1z"/>
							</g>
							<g transform="scale(0.707)">
								<path id="MJMATHI-65" class="st8" d="M-2993.5,142.5c0,0.5,0.1,1,0.3,1.4c0.2,0.4,0.4,0.8,0.7,1s0.6,0.5,0.9,0.7
									c0.3,0.2,0.6,0.3,0.9,0.4s0.6,0.1,0.8,0.1h0c0.4,0,0.7-0.1,1-0.3c0.3-0.2,0.4-0.5,0.4-0.9c0-0.8-0.5-1.3-1.5-1.6
									c-0.4-0.1-1-0.2-1.8-0.2c-0.3,0-0.5,0-0.5,0c0,0,0-0.2-0.1-0.5c-0.1-0.3-0.1-0.6-0.1-0.8c0-0.4,0.1-0.8,0.3-1
									c0.2-0.2,0.5-0.4,0.8-0.4c0.4,0,0.8,0.1,1.2,0.3s0.9,0.5,1.2,0.9c0.1,0.1,0.1,0.1,0.2,0.1c0,0,0.1,0,0.2-0.1
									c0.1-0.1,0.1-0.1,0.1-0.2s0-0.1-0.1-0.2c-0.1-0.1-0.2-0.2-0.4-0.4c-0.2-0.1-0.4-0.3-0.6-0.4s-0.5-0.2-0.8-0.3
									c-0.3-0.1-0.7-0.1-1-0.1c-0.7,0-1.2,0.2-1.6,0.7C-2993.3,141.3-2993.5,141.8-2993.5,142.5z M-2989,145
									c-0.1,0.5-0.4,0.7-0.9,0.7c-0.3,0-0.6-0.1-0.8-0.2c-0.2-0.1-0.4-0.3-0.6-0.5s-0.3-0.4-0.4-0.6c-0.1-0.2-0.2-0.3-0.2-0.5
									c0-0.1-0.1-0.2-0.1-0.3c0,0,0.1,0,0.3,0c1,0,1.7,0.1,2.1,0.3C-2989.3,144.3-2989.1,144.6-2989,145z"/>
							</g>
							<g transform="scale(0.707)">
								<path id="MJMATHI-61" class="st8" d="M-2987.4,142.3c0,0.9,0.3,1.8,1,2.6c0.7,0.8,1.4,1.2,2.3,1.2c0.5,0,0.9-0.2,1.2-0.7
									c0.1,0.3,0.3,0.4,0.6,0.4c0.1,0,0.2,0,0.3-0.1c0.1-0.1,0.1-0.2,0.1-0.3c0-0.1-0.2-0.8-0.5-2.2c-0.3-1.3-0.5-2.1-0.5-2.2
									c0-0.2,0-0.4,0.1-0.4c0.1-0.1,0.2-0.1,0.3-0.1c0.1,0,0.2,0,0.3,0.1c0.2,0.2,0.4,0.6,0.5,1.3c0.1,0.2,0.1,0.3,0.1,0.3
									c0,0,0.1,0,0.1,0h0.1c0.2,0,0.3,0,0.3-0.1c0-0.1,0-0.2-0.1-0.4c0-0.2-0.1-0.4-0.3-0.7c-0.1-0.3-0.3-0.5-0.4-0.7
									c-0.1-0.1-0.3-0.2-0.4-0.3c-0.1,0-0.2,0-0.3,0c-0.3,0-0.6,0.1-0.8,0.2c-0.2,0.1-0.3,0.3-0.4,0.4l-0.1,0.2c0,0,0,0-0.1,0
									c0,0,0,0-0.1-0.1c-0.5-0.5-1.1-0.8-1.6-0.8c-0.5,0-0.9,0.2-1.3,0.5C-2987.2,141-2987.4,141.6-2987.4,142.3z M-2983.1,144.6
									c0,0.1,0,0.2-0.1,0.3c0,0.1-0.1,0.3-0.3,0.5c-0.2,0.2-0.4,0.3-0.6,0.3c-0.3,0-0.6-0.1-0.9-0.4c-0.3-0.3-0.5-0.6-0.7-1.1
									c-0.3-0.7-0.4-1.4-0.5-2.2c0,0,0-0.1,0-0.1s0-0.1,0-0.2c0-0.4,0.1-0.7,0.2-0.8c0.2-0.2,0.4-0.2,0.6-0.2c0.3,0,0.7,0.1,1,0.4
									c0.3,0.3,0.5,0.5,0.6,0.7c0,0,0.1,0.5,0.4,1.4C-2983.2,144.1-2983.1,144.6-2983.1,144.6z"/>
							</g>
							<g transform="scale(0.707)">
								<path id="MJMATHI-6E" class="st8" d="M-2980.5,144.1c0,0.1,0,0.1,0,0.2s0.1,0.3,0.2,0.5s0.2,0.5,0.3,0.6
									c0.1,0.2,0.2,0.3,0.4,0.5c0.2,0.2,0.4,0.2,0.6,0.2c0.3,0,0.6-0.1,0.8-0.2c0.2-0.2,0.3-0.3,0.4-0.5c0.1-0.1,0.1-0.2,0.1-0.3
									c0,0,0,0,0,0l0.1,0.1c0.5,0.6,1.2,0.9,1.9,0.9c0.5,0,0.9-0.1,1.2-0.4c0.3-0.2,0.4-0.6,0.5-1.1c0-0.5-0.2-1.2-0.5-2.1
									s-0.5-1.5-0.5-1.7c0-0.2,0.1-0.3,0.2-0.3c0.1,0,0.1,0,0.1,0c0.3,0,0.5,0.2,0.7,0.5c0.2,0.3,0.4,0.7,0.5,1.1
									c0,0.1,0.1,0.1,0.3,0.1c0.2,0,0.3,0,0.3-0.1c0,0,0-0.1-0.1-0.2c-0.1-0.3-0.2-0.5-0.3-0.8c-0.1-0.3-0.3-0.5-0.6-0.8
									c-0.3-0.3-0.6-0.4-0.9-0.4c-0.4,0-0.7,0.1-0.9,0.4s-0.3,0.5-0.3,0.8c0,0.2,0.2,0.7,0.5,1.6c0.3,0.9,0.5,1.6,0.5,2
									c0,0.5-0.2,0.8-0.6,0.8h-0.1c-0.8,0-1.4-0.5-1.9-1.4l-0.1-0.2l-0.4-1.8c-0.3-1.2-0.5-1.8-0.5-1.9c-0.1-0.2-0.3-0.4-0.6-0.4
									c-0.1,0-0.2,0-0.3,0.1c-0.1,0.1-0.1,0.1-0.1,0.2c0,0.1,0,0.1,0,0.1c0,0.1,0.2,0.8,0.5,2.2s0.5,2.1,0.5,2.2c0,0,0,0.1,0,0.3
									c0,0.3-0.1,0.5-0.3,0.5c-0.3,0-0.6-0.4-0.8-1.3c-0.1-0.2-0.1-0.3-0.1-0.3c0-0.1-0.1-0.1-0.3-0.1h-0.2
									C-2980.4,144-2980.5,144.1-2980.5,144.1z"/>
							</g>
						</g>
					</g>
				</g>
			</g>
		</g>
		<g>
			<g transform="translate(0,702.11)translate(-35.84326171875,0)" pointer-events="none">
				<g transform="matrix(1 0 0 -1 0 0)">
					<g>
						<path id="MJMATHI-50" class="st9" d="M109.9,7c0,0.1-0.4,0.1-1.1,0.2c-0.3,0-0.5,0-0.6,0s-0.1,0.1-0.1,0.2c0,0,0,0.1,0,0.2
							c0.1,0.3,0.1,0.4,0.2,0.4c0,0,1.3,0,3.7,0c2.4,0,3.7,0,3.8-0.1c0.8-0.1,1.5-0.5,2-0.9s0.8-1.1,0.8-1.9c0-1-0.4-1.9-1.2-2.7
							c-0.9-0.9-2-1.4-3.4-1.6c-0.1,0-0.7,0-2,0h-1.8l-0.6-2.3c-0.4-1.5-0.6-2.3-0.6-2.3c0-0.1,0-0.1,0-0.1s0.1,0,0.1-0.1
							c0.1,0,0.2-0.1,0.3,0c0.1,0,0.3,0,0.6,0h0.6c0.1-0.1,0.1-0.2,0.1-0.2c0-0.2,0-0.4-0.1-0.6c-0.1-0.1-0.2-0.1-0.3-0.1
							c0,0-0.3,0-0.7,0c-0.4,0-1.1,0-1.9,0c-0.8,0-1.4,0-1.8,0c-0.4,0-0.6,0-0.7,0c-0.2,0-0.3,0.1-0.3,0.2c0,0,0,0.1,0.1,0.3
							c0.1,0.2,0.1,0.3,0.2,0.3c0.1,0,0.2,0,0.4,0.1c0.3,0,0.7,0,1.1,0.1c0.2,0,0.3,0.1,0.4,0.2c0,0.1,0.5,1.8,1.4,5.3
							C109.4,5,109.9,6.8,109.9,7z M116.6,5.6c0,0.2,0,0.3,0,0.4c0,0.1-0.1,0.2-0.2,0.4c-0.1,0.2-0.2,0.3-0.5,0.4S115.4,7,115,7.1
							c-0.1,0-0.6,0-1.5,0c-0.2,0-0.4,0-0.7,0c-0.2,0-0.4,0-0.5,0c-0.1,0-0.2,0-0.2,0c-0.2,0-0.3-0.1-0.3-0.2c0-0.1-0.1-0.6-0.4-1.5
							c-0.2-0.9-0.4-1.8-0.7-2.6s-0.3-1.3-0.3-1.3c0,0,0.5,0,1.5,0h0.2h0.4c1.4,0,2.4,0.3,3,1c0.3,0.3,0.6,0.8,0.8,1.5
							C116.5,4.7,116.6,5.2,116.6,5.6z"/>
					</g>
					<g>
						<path id="MJMATHI-45_1_" class="st9" d="M127.9-0.9c-0.3,0-0.4,0.1-0.4,0.2c0,0.1,0,0.2,0.1,0.5c0.1,0.3,0.1,0.5,0.1,0.7
							c0,0.4-0.1,0.6-0.4,0.7c-0.3,0.1-0.9,0.1-1.8,0.1h-1c0,0-0.2-0.9-0.7-2.6c-0.4-1.7-0.6-2.6-0.6-2.7s0.1-0.1,0.2-0.1
							c0.1,0,0.6,0,1.5,0c1.2,0,2,0,2.3,0s0.8,0.1,1.1,0.2c0.6,0.2,1.1,0.6,1.5,1.1s0.8,1.3,1.3,2.5c0.1,0.3,0.2,0.4,0.2,0.5
							c0.1,0,0.2,0,0.3,0c0.3,0,0.4-0.1,0.4-0.2c-1.3-3.2-2-4.9-2.1-4.9c0,0-1.8,0-5.4,0h-3.6c-1.3,0-1.9,0.1-1.9,0.2
							c0,0,0,0.1,0.1,0.3c0.1,0.2,0.1,0.3,0.2,0.3c0.1,0,0.2,0,0.4,0.1c0.3,0,0.7,0,1.1,0.1c0.2,0,0.3,0.1,0.4,0.2
							c0,0.1,0.5,1.8,1.3,5.3s1.3,5.3,1.3,5.3c0,0.1,0,0.1-0.1,0.1c-0.1,0-0.4,0.1-1,0.1h-0.6c-0.1,0.1-0.1,0.1-0.1,0.2s0,0.1,0,0.3
							c0.1,0.2,0.1,0.3,0.2,0.4h10.4c0.1-0.1,0.1-0.1,0.1-0.2c0-0.1-0.1-0.8-0.2-2.1c-0.2-1.4-0.3-2.1-0.3-2.1
							c0-0.1-0.2-0.1-0.4-0.1h-0.2c-0.1,0.1-0.1,0.1-0.1,0.2l0.1,0.4c0,0.3,0.1,0.6,0.1,1c0,0.4,0,0.7-0.1,1s-0.2,0.5-0.4,0.6
							s-0.4,0.2-0.7,0.3c-0.3,0.1-0.6,0.1-0.9,0.1s-0.7,0-1.2,0h-0.9c-1.1,0-1.7,0-1.8-0.1c-0.1,0-0.1-0.1-0.1-0.2
							c0,0-0.2-0.8-0.6-2.3s-0.6-2.3-0.6-2.3c0.3,0,0.6,0,0.9,0h0.5c0.8,0,1.4,0.1,1.7,0.3c0.3,0.2,0.6,0.7,0.8,1.5
							c0.1,0.2,0.1,0.3,0.1,0.3c0,0,0.1,0,0.3,0.1c0.1,0,0.1,0,0.2,0s0.1,0,0.1,0c0,0,0,0,0,0s0,0,0-0.1s0-0.1,0.1-0.1l-0.6-2.5
							c-0.4-1.7-0.6-2.5-0.7-2.6C128.2-0.9,128.1-0.9,127.9-0.9z"/>
					</g>
					<g transform="translate(1516,0)">
						<g>
							<path id="MJMATHI-3B1" class="st9" d="M-1382.3-2c0,1.4,0.5,2.7,1.6,3.8s2.3,1.6,3.6,1.6c0.9,0,1.6-0.3,2.1-0.8
								c0.5-0.5,0.9-1.1,1.1-1.9c0.1-0.4,0.1-0.8,0.1-1.3V-1c0.6,0.9,1.1,2,1.4,3.2c0.1,0.2,0.1,0.3,0.1,0.3s0.1,0,0.3,0.1
								c0.3,0,0.4-0.1,0.4-0.2c0-0.1-0.1-0.4-0.2-0.7s-0.3-0.9-0.7-1.6c-0.3-0.7-0.7-1.3-1.2-1.9l-0.2-0.3l0-0.5
								c0-0.7,0.1-1.2,0.2-1.4c0.1-0.3,0.2-0.4,0.4-0.4c0.2,0,0.3,0.1,0.5,0.2c0.2,0.1,0.3,0.3,0.3,0.4c0,0.1,0.1,0.1,0.1,0.2
								c0,0,0.1,0,0.3,0c0.3,0,0.4-0.1,0.4-0.2c0-0.1,0-0.2-0.1-0.4c-0.2-0.3-0.4-0.5-0.7-0.7c-0.3-0.2-0.6-0.3-0.8-0.3h-0.1
								c-0.8,0-1.4,0.5-1.7,1.4l-0.1,0.1l-0.2-0.2c-0.1-0.1-0.3-0.2-0.6-0.4c-0.3-0.2-0.5-0.3-0.8-0.4c-0.3-0.1-0.7-0.3-1.1-0.4
								c-0.4-0.1-0.8-0.2-1.2-0.2c-1,0-1.8,0.3-2.3,1S-1382.3-2.8-1382.3-2z M-1379-4.4c0.6,0,1.2,0.1,1.8,0.4
								c0.6,0.3,1.1,0.5,1.4,0.8l0.5,0.4c0,1.8-0.1,2.9-0.1,3.4c-0.2,1.5-0.8,2.2-1.7,2.2c-0.9,0-1.6-0.5-2.3-1.4
								c-0.3-0.5-0.6-1.2-0.8-2.1s-0.3-1.5-0.3-2c0-0.6,0.2-1.1,0.5-1.4C-1379.9-4.3-1379.5-4.4-1379-4.4z"/>
						</g>
						<g transform="translate(640,-150)">
							<g transform="scale(0.707)">
								<path id="MJMATHI-6D_1_" class="st10" d="M-2010.6,146.1c0,0.1,0,0.1,0,0.2c0,0.1,0.1,0.3,0.2,0.5c0.1,0.3,0.2,0.5,0.3,0.6
									c0.1,0.2,0.2,0.3,0.4,0.5c0.2,0.2,0.4,0.2,0.6,0.2c0.2,0,0.4,0,0.6-0.1c0.2-0.1,0.3-0.1,0.4-0.2c0.1-0.1,0.2-0.2,0.2-0.3
									c0.1-0.1,0.1-0.2,0.1-0.3l0-0.1c0,0,0,0,0,0l0.1,0.1c0.5,0.6,1.2,0.9,1.9,0.9c0.2,0,0.3,0,0.4,0c0.1,0,0.2,0,0.3-0.1
									c0.1,0,0.2-0.1,0.3-0.1c0.1,0,0.1-0.1,0.2-0.2s0.1-0.1,0.1-0.2c0-0.1,0.1-0.1,0.1-0.2s0.1-0.1,0.1-0.2c0,0,0-0.1,0-0.1
									s0.1-0.1,0-0.1l0.1,0.1c0.6,0.7,1.2,1,2,1c0.5,0,0.9-0.1,1.2-0.4c0.3-0.2,0.4-0.6,0.5-1.1c0-0.5-0.2-1.2-0.5-2.1
									c-0.3-1-0.5-1.5-0.5-1.7c0-0.1,0-0.2,0.1-0.3c0,0,0.1-0.1,0.2-0.1c0.2,0,0.5,0.1,0.7,0.4s0.4,0.6,0.5,1.1
									c0,0.1,0.1,0.2,0.1,0.2c0,0,0.1,0,0.2,0c0.2,0,0.3,0,0.3-0.1c0,0,0-0.1-0.1-0.2c-0.1-0.3-0.2-0.5-0.3-0.8
									c-0.1-0.3-0.3-0.5-0.6-0.8c-0.3-0.3-0.6-0.4-0.9-0.4c-0.4,0-0.7,0.1-0.9,0.4s-0.3,0.5-0.3,0.8c0,0.2,0.2,0.7,0.5,1.6
									c0.3,0.9,0.5,1.6,0.5,2c0,0.5-0.2,0.8-0.6,0.8h-0.1c-0.8,0-1.4-0.5-1.9-1.4l-0.1-0.2l-0.4-1.8c-0.3-1.2-0.5-1.8-0.5-1.9
									c-0.1-0.2-0.3-0.4-0.6-0.4c-0.1,0-0.2,0-0.3,0.1c-0.1,0.1-0.1,0.1-0.1,0.2c0,0,0,0.1,0,0.1c0,0.1,0.2,0.7,0.5,1.9l0.5,2
									c0,0.1,0,0.3,0,0.5c0,0.5-0.2,0.8-0.6,0.8h-0.1c-0.8,0-1.4-0.5-1.9-1.4l-0.1-0.2l-0.4-1.8c-0.3-1.2-0.5-1.8-0.5-1.9
									c-0.1-0.2-0.3-0.4-0.6-0.4c-0.1,0-0.2,0-0.3,0.1c-0.1,0.1-0.1,0.1-0.1,0.2c0,0.1,0,0.1,0,0.1c0,0.1,0.2,0.9,0.5,2.2
									c0.3,1.4,0.5,2.1,0.5,2.2c0,0.1,0,0.3,0,0.4c0,0.3-0.1,0.5-0.3,0.5c-0.2,0-0.4-0.1-0.5-0.4c-0.1-0.3-0.2-0.5-0.3-0.8
									c-0.1-0.3-0.1-0.5-0.2-0.5c0,0-0.1,0-0.2,0h-0.2C-2010.6,146-2010.6,146-2010.6,146.1z"/>
							</g>
							<g transform="scale(0.707)">
								<path id="MJMATHI-65_1_" class="st10" d="M-1998.7,144.5c0,0.5,0.1,1,0.3,1.4c0.2,0.4,0.4,0.8,0.7,1
									c0.3,0.3,0.6,0.5,0.9,0.7c0.3,0.2,0.6,0.3,0.9,0.4c0.3,0.1,0.6,0.1,0.8,0.1h0c0.4,0,0.7-0.1,1-0.3c0.3-0.2,0.4-0.5,0.4-0.9
									c0-0.8-0.5-1.3-1.5-1.6c-0.4-0.1-1-0.2-1.8-0.2c-0.3,0-0.5,0-0.5,0c0,0,0-0.2-0.1-0.5c-0.1-0.3-0.1-0.6-0.1-0.8
									c0-0.4,0.1-0.8,0.3-1s0.5-0.4,0.8-0.4c0.4,0,0.8,0.1,1.2,0.3s0.9,0.5,1.2,0.9c0.1,0.1,0.1,0.1,0.2,0.1c0,0,0.1,0,0.2-0.1
									c0.1-0.1,0.1-0.1,0.1-0.2c0,0,0-0.1-0.1-0.2c-0.1-0.1-0.2-0.2-0.4-0.4c-0.2-0.1-0.4-0.3-0.6-0.4c-0.2-0.1-0.5-0.2-0.8-0.3
									c-0.3-0.1-0.7-0.1-1-0.1c-0.7,0-1.2,0.2-1.6,0.7C-1998.4,143.3-1998.6,143.8-1998.7,144.5z M-1994.2,147
									c-0.1,0.5-0.4,0.7-0.9,0.7c-0.3,0-0.6-0.1-0.8-0.2s-0.4-0.3-0.6-0.5s-0.3-0.4-0.4-0.6c-0.1-0.2-0.2-0.3-0.2-0.5
									s-0.1-0.2-0.1-0.3c0,0,0.1,0,0.3,0c1,0,1.7,0.1,2.1,0.3S-1994.2,146.6-1994.2,147z"/>
							</g>
							<g transform="scale(0.707)">
								<path id="MJMATHI-61_1_" class="st10" d="M-1992.5,144.3c0,0.9,0.3,1.8,1,2.6s1.4,1.2,2.3,1.2c0.5,0,0.9-0.2,1.2-0.7
									c0.1,0.3,0.3,0.4,0.6,0.4c0.1,0,0.2,0,0.3-0.1c0.1-0.1,0.1-0.2,0.1-0.3c0-0.1-0.2-0.8-0.5-2.2c-0.3-1.3-0.5-2.1-0.5-2.2
									c0-0.2,0-0.4,0.1-0.4s0.2-0.1,0.3-0.1c0.1,0,0.2,0,0.3,0.1c0.2,0.2,0.4,0.6,0.5,1.3c0.1,0.2,0.1,0.3,0.1,0.3
									c0,0,0.1,0,0.1,0h0.1c0.2,0,0.3,0,0.3-0.1c0-0.1,0-0.2-0.1-0.4c0-0.2-0.1-0.4-0.3-0.7c-0.1-0.3-0.3-0.5-0.4-0.7
									c-0.1-0.1-0.3-0.2-0.4-0.3c-0.1,0-0.2,0-0.3,0c-0.3,0-0.6,0.1-0.8,0.2c-0.2,0.1-0.3,0.3-0.4,0.4l-0.1,0.2c0,0,0,0-0.1,0
									c0,0,0,0-0.1-0.1c-0.5-0.5-1.1-0.8-1.6-0.8c-0.5,0-0.9,0.2-1.3,0.5C-1992.3,143-1992.5,143.5-1992.5,144.3z M-1988.3,146.6
									c0,0.1,0,0.2-0.1,0.3c0,0.1-0.1,0.3-0.3,0.5c-0.2,0.2-0.4,0.3-0.6,0.3c-0.3,0-0.6-0.1-0.9-0.4c-0.3-0.3-0.5-0.6-0.7-1.1
									c-0.3-0.7-0.4-1.4-0.5-2.2c0,0,0-0.1,0-0.1s0-0.1,0-0.2c0-0.4,0.1-0.7,0.2-0.8s0.4-0.2,0.6-0.2c0.3,0,0.7,0.1,1,0.4
									c0.3,0.3,0.5,0.5,0.6,0.7c0,0,0.1,0.5,0.4,1.4C-1988.4,146.1-1988.3,146.6-1988.3,146.6z"/>
							</g>
							<g transform="scale(0.707)">
								<path id="MJMATHI-6E_1_" class="st10" d="M-1985.6,146.1c0,0.1,0,0.1,0,0.2c0,0.1,0.1,0.3,0.2,0.5c0.1,0.3,0.2,0.5,0.3,0.6
									c0.1,0.2,0.2,0.3,0.4,0.5c0.2,0.2,0.4,0.2,0.6,0.2c0.3,0,0.6-0.1,0.8-0.2c0.2-0.2,0.3-0.3,0.4-0.5c0.1-0.1,0.1-0.2,0.1-0.3
									c0,0,0,0,0,0l0.1,0.1c0.5,0.6,1.2,0.9,1.9,0.9c0.5,0,0.9-0.1,1.2-0.4c0.3-0.2,0.4-0.6,0.5-1.1s-0.2-1.2-0.5-2.1
									c-0.3-0.9-0.5-1.5-0.5-1.7c0-0.2,0.1-0.3,0.2-0.3c0.1,0,0.1,0,0.1,0c0.3,0,0.5,0.2,0.7,0.5c0.2,0.3,0.4,0.7,0.5,1.1
									c0,0.1,0.1,0.1,0.3,0.1c0.2,0,0.3,0,0.3-0.1c0,0,0-0.1-0.1-0.2c-0.1-0.3-0.2-0.5-0.3-0.8s-0.3-0.5-0.6-0.8
									c-0.3-0.3-0.6-0.4-0.9-0.4c-0.4,0-0.7,0.1-0.9,0.4c-0.2,0.2-0.3,0.5-0.3,0.8c0,0.2,0.2,0.7,0.5,1.6c0.3,0.9,0.5,1.6,0.5,2
									c0,0.5-0.2,0.8-0.6,0.8h-0.1c-0.8,0-1.4-0.5-1.9-1.4l-0.1-0.2l-0.4-1.8c-0.3-1.2-0.5-1.8-0.5-1.9c-0.1-0.2-0.3-0.4-0.6-0.4
									c-0.1,0-0.2,0-0.3,0.1c-0.1,0.1-0.1,0.1-0.1,0.2c0,0.1,0,0.1,0,0.1c0,0.1,0.2,0.8,0.5,2.2s0.5,2.1,0.5,2.2c0,0,0,0.1,0,0.3
									c0,0.3-0.1,0.5-0.3,0.5c-0.3,0-0.6-0.4-0.8-1.3c-0.1-0.2-0.1-0.3-0.1-0.3c0-0.1-0.1-0.1-0.3-0.1h-0.2
									C-1985.6,146-1985.6,146-1985.6,146.1z"/>
							</g>
						</g>
					</g>
				</g>
			</g>
		</g>
		<g>
			<g transform="translate(0,627.22)translate(-24.37646484375,0)" pointer-events="none">
				<g transform="matrix(1 0 0 -1 0 0)">
					<g>
						<path id="MJMAIN-7C" class="st11" d="M117.3-7L117.3-7c-0.2,0-0.3,0.1-0.4,0.3v9.2l0,9.2c0.1,0.2,0.2,0.2,0.4,0.2
							c0.2,0,0.3-0.1,0.4-0.3V-6.7C117.5-6.9,117.4-7,117.3-7L117.3-7z"/>
					</g>
					<g>
						<path id="MJMATHI-3B4" class="st11" d="M123.6,9.3c0,0.6,0.2,1.1,0.6,1.5c0.4,0.4,0.9,0.6,1.4,0.6c0.2,0,0.5-0.1,0.9-0.2
							c0.4-0.1,0.8-0.2,1.1-0.2c0.3-0.1,0.5-0.1,0.5-0.1c0.2-0.1,0.3-0.3,0.3-0.5c0-0.2-0.1-0.4-0.2-0.6s-0.4-0.3-0.7-0.3
							c-0.3,0-0.6,0.2-1,0.6c-0.4,0.4-0.8,0.6-1.1,0.6c-0.3,0-0.6-0.1-0.7-0.3s-0.3-0.4-0.3-0.6c0-0.6,0.6-1.6,1.9-3.1
							c0.8-1.1,1.3-2.1,1.3-3.3c0-1.6-0.4-2.9-1.2-4s-1.6-1.7-2.5-1.7h-0.1c-0.9,0-1.6,0.3-2.2,0.9c-0.6,0.6-0.8,1.3-0.9,2.2
							c0,1.7,0.7,3.1,2.2,4.4c0.5,0.4,1.1,0.7,1.9,1c0,0,0,0.1-0.1,0.3s-0.2,0.4-0.3,0.6s-0.2,0.5-0.3,0.8c-0.1,0.3-0.2,0.6-0.2,0.9
							C123.6,8.8,123.6,9.1,123.6,9.3z M122,0.2c0-0.6,0.2-1.1,0.5-1.4c0.3-0.4,0.7-0.5,1.3-0.5c0.4,0,0.7,0.2,1,0.5
							c0.3,0.3,0.5,0.7,0.7,1.1c0.2,0.5,0.3,0.9,0.3,1.3s0.1,0.7,0.1,1c0,0.4,0,0.9-0.1,1.3s-0.2,0.7-0.3,0.9
							c-0.1,0.2-0.3,0.5-0.5,1.1l-0.2-0.1c-0.6-0.2-1-0.5-1.4-1c-0.4-0.5-0.7-1-0.9-1.6s-0.3-1.1-0.4-1.5C122,0.8,122,0.4,122,0.2z"
							/>
					</g>
					<g transform="translate(730,0)">
						<g>
							<path id="MJMAIN-7C_1_" class="st11" d="M-599-7L-599-7c-0.2,0-0.3,0.1-0.4,0.3v9.2l0,9.2c0.1,0.2,0.2,0.2,0.4,0.2
								c0.2,0,0.3-0.1,0.4-0.3V-6.7C-598.7-6.9-598.8-7-599-7L-599-7z"/>
						</g>
						<g transform="translate(278,-286)">
							<g transform="scale(0.707)">
								<path id="MJMATHI-6D_2_" class="st12" d="M-874.1,282.1c0,0.1,0,0.1,0,0.2c0,0.1,0.1,0.3,0.2,0.5c0.1,0.3,0.2,0.5,0.3,0.6
									c0.1,0.2,0.2,0.3,0.4,0.5c0.2,0.2,0.4,0.2,0.6,0.2s0.4,0,0.6-0.1c0.2-0.1,0.3-0.1,0.4-0.2s0.2-0.2,0.2-0.3
									c0.1-0.1,0.1-0.2,0.1-0.3l0-0.1c0,0,0,0,0,0l0.1,0.1c0.5,0.6,1.2,0.9,1.9,0.9c0.2,0,0.3,0,0.4,0s0.2,0,0.3-0.1
									c0.1,0,0.2-0.1,0.3-0.1c0.1,0,0.1-0.1,0.2-0.2c0.1-0.1,0.1-0.1,0.1-0.2c0-0.1,0.1-0.1,0.1-0.2c0.1-0.1,0.1-0.1,0.1-0.2
									c0,0,0-0.1,0-0.1c0,0,0.1-0.1,0-0.1l0.1,0.1c0.6,0.7,1.2,1,2,1c0.5,0,0.9-0.1,1.2-0.4s0.4-0.6,0.5-1.1
									c0-0.5-0.2-1.2-0.5-2.1c-0.3-1-0.5-1.5-0.5-1.7c0-0.1,0-0.2,0.1-0.3c0,0,0.1-0.1,0.2-0.1c0.2,0,0.5,0.1,0.7,0.4
									c0.2,0.3,0.4,0.6,0.5,1.1c0,0.1,0.1,0.2,0.1,0.2c0,0,0.1,0,0.2,0c0.2,0,0.3,0,0.3-0.1c0,0,0-0.1-0.1-0.2
									c-0.1-0.3-0.2-0.5-0.3-0.8c-0.1-0.3-0.3-0.5-0.6-0.8s-0.6-0.4-0.9-0.4c-0.4,0-0.7,0.1-0.9,0.4c-0.2,0.2-0.3,0.5-0.3,0.8
									c0,0.2,0.2,0.7,0.5,1.6c0.3,0.9,0.5,1.6,0.5,2c0,0.5-0.2,0.8-0.6,0.8h-0.1c-0.8,0-1.4-0.5-1.9-1.4l-0.1-0.2l-0.4-1.8
									c-0.3-1.2-0.5-1.8-0.5-1.9c-0.1-0.2-0.3-0.4-0.6-0.4c-0.1,0-0.2,0-0.3,0.1c-0.1,0.1-0.1,0.1-0.1,0.2s0,0.1,0,0.1
									c0,0.1,0.2,0.7,0.5,1.9l0.5,2c0,0.1,0,0.3,0,0.5c0,0.5-0.2,0.8-0.6,0.8h-0.1c-0.8,0-1.4-0.5-1.9-1.4l-0.1-0.2l-0.4-1.8
									c-0.3-1.2-0.5-1.8-0.5-1.9c-0.1-0.2-0.3-0.4-0.6-0.4c-0.1,0-0.2,0-0.3,0.1s-0.1,0.1-0.1,0.2s0,0.1,0,0.1
									c0,0.1,0.2,0.9,0.5,2.2c0.3,1.4,0.5,2.1,0.5,2.2c0,0.1,0,0.3,0,0.4c0,0.3-0.1,0.5-0.3,0.5c-0.2,0-0.4-0.1-0.5-0.4
									c-0.1-0.3-0.2-0.5-0.3-0.8s-0.1-0.5-0.2-0.5c0,0-0.1,0-0.2,0h-0.2C-874,282.1-874.1,282.1-874.1,282.1z"/>
							</g>
							<g transform="scale(0.707)">
								<path id="MJMATHI-65_2_" class="st12" d="M-862.1,280.5c0,0.5,0.1,1,0.3,1.4s0.4,0.8,0.7,1s0.6,0.5,0.9,0.7
									c0.3,0.2,0.6,0.3,0.9,0.4c0.3,0.1,0.6,0.1,0.8,0.1h0c0.4,0,0.7-0.1,1-0.3s0.4-0.5,0.4-0.9c0-0.8-0.5-1.3-1.5-1.6
									c-0.4-0.1-1-0.2-1.8-0.2c-0.3,0-0.5,0-0.5,0c0,0,0-0.2-0.1-0.5s-0.1-0.6-0.1-0.8c0-0.4,0.1-0.8,0.3-1
									c0.2-0.2,0.5-0.4,0.8-0.4c0.4,0,0.8,0.1,1.2,0.3s0.9,0.5,1.2,0.9c0.1,0.1,0.1,0.1,0.2,0.1c0,0,0.1,0,0.2-0.1
									s0.1-0.1,0.1-0.2c0,0,0-0.1-0.1-0.2c-0.1-0.1-0.2-0.2-0.4-0.4s-0.4-0.3-0.6-0.4c-0.2-0.1-0.5-0.2-0.8-0.3
									c-0.3-0.1-0.7-0.1-1-0.1c-0.7,0-1.2,0.2-1.6,0.7C-861.9,279.3-862.1,279.9-862.1,280.5z M-857.7,283
									c-0.1,0.5-0.4,0.7-0.9,0.7c-0.3,0-0.6-0.1-0.8-0.2c-0.2-0.1-0.4-0.3-0.6-0.5c-0.2-0.2-0.3-0.4-0.4-0.6
									c-0.1-0.2-0.2-0.3-0.2-0.5c0-0.1-0.1-0.2-0.1-0.3c0,0,0.1,0,0.3,0c1,0,1.7,0.1,2.1,0.3C-857.9,282.3-857.7,282.6-857.7,283z
									"/>
							</g>
							<g transform="scale(0.707)">
								<path id="MJMATHI-61_2_" class="st12" d="M-856,280.4c0,0.9,0.3,1.8,1,2.6s1.4,1.2,2.3,1.2c0.5,0,0.9-0.2,1.2-0.7
									c0.1,0.3,0.3,0.4,0.6,0.4c0.1,0,0.2,0,0.3-0.1c0.1-0.1,0.1-0.2,0.1-0.3c0-0.1-0.2-0.8-0.5-2.2c-0.3-1.3-0.5-2.1-0.5-2.2
									c0-0.2,0-0.4,0.1-0.4c0.1-0.1,0.2-0.1,0.3-0.1c0.1,0,0.2,0,0.3,0.1c0.2,0.2,0.4,0.6,0.5,1.3c0.1,0.2,0.1,0.3,0.1,0.3
									c0,0,0.1,0,0.1,0h0.1c0.2,0,0.3,0,0.3-0.1c0-0.1,0-0.2-0.1-0.4s-0.1-0.4-0.3-0.7c-0.1-0.3-0.3-0.5-0.4-0.7
									c-0.1-0.1-0.3-0.2-0.4-0.3c-0.1,0-0.2,0-0.3,0c-0.3,0-0.6,0.1-0.8,0.2c-0.2,0.1-0.3,0.3-0.4,0.4l-0.1,0.2c0,0,0,0-0.1,0
									c0,0,0,0-0.1-0.1c-0.5-0.5-1.1-0.8-1.6-0.8c-0.5,0-0.9,0.2-1.3,0.5C-855.8,279.1-856,279.6-856,280.4z M-851.7,282.7
									c0,0.1,0,0.2-0.1,0.3c0,0.1-0.1,0.3-0.3,0.5s-0.4,0.3-0.6,0.3c-0.3,0-0.6-0.1-0.9-0.4c-0.3-0.3-0.5-0.6-0.7-1.1
									c-0.3-0.7-0.4-1.4-0.5-2.2c0,0,0-0.1,0-0.1c0-0.1,0-0.1,0-0.2c0-0.4,0.1-0.7,0.2-0.8c0.2-0.2,0.4-0.2,0.6-0.2
									c0.3,0,0.7,0.1,1,0.4c0.3,0.3,0.5,0.5,0.6,0.7c0,0,0.1,0.5,0.4,1.4S-851.7,282.6-851.7,282.7z"/>
							</g>
							<g transform="scale(0.707)">
								<path id="MJMATHI-6E_2_" class="st12" d="M-849.1,282.1c0,0.1,0,0.1,0,0.2c0,0.1,0.1,0.3,0.2,0.5c0.1,0.3,0.2,0.5,0.3,0.6
									c0.1,0.2,0.2,0.3,0.4,0.5c0.2,0.2,0.4,0.2,0.6,0.2c0.3,0,0.6-0.1,0.8-0.2c0.2-0.2,0.3-0.3,0.4-0.5c0.1-0.1,0.1-0.2,0.1-0.3
									c0,0,0,0,0,0l0.1,0.1c0.5,0.6,1.2,0.9,1.9,0.9c0.5,0,0.9-0.1,1.2-0.4s0.4-0.6,0.5-1.1c0-0.5-0.2-1.2-0.5-2.1
									s-0.5-1.5-0.5-1.7c0-0.2,0.1-0.3,0.2-0.3c0.1,0,0.1,0,0.1,0c0.3,0,0.5,0.2,0.7,0.5c0.2,0.3,0.4,0.7,0.5,1.1
									c0,0.1,0.1,0.1,0.3,0.1c0.2,0,0.3,0,0.3-0.1c0,0,0-0.1-0.1-0.2c-0.1-0.3-0.2-0.5-0.3-0.8c-0.1-0.3-0.3-0.5-0.6-0.8
									c-0.3-0.3-0.6-0.4-0.9-0.4c-0.4,0-0.7,0.1-0.9,0.4c-0.2,0.2-0.3,0.5-0.3,0.8c0,0.2,0.2,0.7,0.5,1.6c0.3,0.9,0.5,1.6,0.5,2
									c0,0.5-0.2,0.8-0.6,0.8h-0.1c-0.8,0-1.4-0.5-1.9-1.4l-0.1-0.2l-0.4-1.8c-0.3-1.2-0.5-1.8-0.5-1.9c-0.1-0.2-0.3-0.4-0.6-0.4
									c-0.1,0-0.2,0-0.3,0.1s-0.1,0.1-0.1,0.2s0,0.1,0,0.1c0,0.1,0.2,0.8,0.5,2.2c0.3,1.3,0.5,2.1,0.5,2.2c0,0,0,0.1,0,0.3
									c0,0.3-0.1,0.5-0.3,0.5c-0.3,0-0.6-0.4-0.8-1.3c-0.1-0.2-0.1-0.3-0.1-0.3c0-0.1-0.1-0.1-0.3-0.1h-0.2
									C-849.1,282.1-849.1,282.1-849.1,282.1z"/>
							</g>
						</g>
					</g>
				</g>
			</g>
		</g>
		<g>
			<g transform="translate(0,552.3299999999999)translate(-20.14892578125,0)" pointer-events="none">
				<g transform="matrix(1 0 0 -1 0 0)">
					<g>
						<path id="MJMATHI-3B8" class="st13" d="M121.2,0.5c0,1.3,0.2,2.7,0.7,4.1c0.5,1.4,1.2,2.7,2,3.7c0.8,1,1.7,1.6,2.6,1.8
							c0,0,0.1,0,0.2,0c0.1,0,0.2,0,0.2,0c0.7-0.1,1.2-0.4,1.6-0.9c0.5-0.8,0.7-1.8,0.7-3.1c0-1.5-0.3-2.9-0.8-4.4s-1.3-2.7-2.2-3.7
							s-1.7-1.4-2.5-1.4h-0.1c-0.5,0-0.8,0.1-1.2,0.4s-0.6,0.6-0.7,1c-0.2,0.4-0.3,0.8-0.4,1.3S121.2,0,121.2,0.5z M127.8,7.4
							c0,1.3-0.3,1.9-1,1.9c-0.5,0-0.9-0.3-1.3-0.9c-0.4-0.6-0.8-1.2-1.1-1.9s-0.5-1.4-0.6-1.9c-0.2-0.5-0.2-0.9-0.2-1
							c0.6,0,1.2,0,1.8,0l1.8,0c0,0,0.1,0.2,0.2,0.6c0.1,0.4,0.2,0.9,0.3,1.5C127.8,6.5,127.8,7,127.8,7.4z M122.7-0.8
							c0-1.3,0.3-2,1-2c0.2,0,0.4,0.1,0.6,0.2c0.2,0.1,0.5,0.4,0.8,0.7s0.6,0.9,0.9,1.7s0.6,1.7,0.9,2.8l0.1,0.3h-3.7
							c0,0-0.1-0.3-0.2-0.7s-0.2-0.9-0.3-1.5S122.7-0.4,122.7-0.8z"/>
					</g>
					<g transform="translate(469,-150)">
						<g transform="scale(0.707)">
							<path id="MJMATHI-6D_3_" class="st14" d="M-339.3,147.7c0,0.1,0,0.1,0,0.2c0,0.1,0.1,0.3,0.2,0.5s0.2,0.5,0.3,0.6
								c0.1,0.2,0.2,0.3,0.4,0.5s0.4,0.2,0.6,0.2c0.2,0,0.4,0,0.6-0.1c0.2-0.1,0.3-0.1,0.4-0.2c0.1-0.1,0.2-0.2,0.2-0.3
								c0.1-0.1,0.1-0.2,0.1-0.3l0-0.1c0,0,0,0,0,0l0.1,0.1c0.5,0.6,1.2,0.9,1.9,0.9c0.2,0,0.3,0,0.4,0c0.1,0,0.2,0,0.3-0.1
								c0.1,0,0.2-0.1,0.3-0.1c0.1,0,0.1-0.1,0.2-0.2c0.1-0.1,0.1-0.1,0.1-0.2c0-0.1,0.1-0.1,0.1-0.2c0.1-0.1,0.1-0.1,0.1-0.2
								c0,0,0-0.1,0-0.1s0.1-0.1,0-0.1l0.1,0.1c0.6,0.7,1.2,1,2,1c0.5,0,0.9-0.1,1.2-0.4s0.4-0.6,0.5-1.1c0-0.5-0.2-1.2-0.5-2.1
								c-0.3-1-0.5-1.5-0.5-1.7c0-0.1,0-0.2,0.1-0.3c0,0,0.1-0.1,0.2-0.1c0.2,0,0.5,0.1,0.7,0.4c0.2,0.3,0.4,0.6,0.5,1.1
								c0,0.1,0.1,0.2,0.1,0.2c0,0,0.1,0,0.2,0c0.2,0,0.3,0,0.3-0.1c0,0,0-0.1-0.1-0.2c-0.1-0.3-0.2-0.5-0.3-0.8
								c-0.1-0.3-0.3-0.5-0.6-0.8c-0.3-0.3-0.6-0.4-0.9-0.4c-0.4,0-0.7,0.1-0.9,0.4c-0.2,0.2-0.3,0.5-0.3,0.8c0,0.2,0.2,0.7,0.5,1.6
								s0.5,1.6,0.5,2c0,0.5-0.2,0.8-0.6,0.8h-0.1c-0.8,0-1.4-0.5-1.9-1.4l-0.1-0.2l-0.4-1.8c-0.3-1.2-0.5-1.8-0.5-1.9
								c-0.1-0.2-0.3-0.4-0.6-0.4c-0.1,0-0.2,0-0.3,0.1c-0.1,0.1-0.1,0.1-0.1,0.2c0,0,0,0.1,0,0.1c0,0.1,0.2,0.7,0.5,1.9l0.5,2
								c0,0.1,0,0.3,0,0.5c0,0.5-0.2,0.8-0.6,0.8h-0.1c-0.8,0-1.4-0.5-1.9-1.4l-0.1-0.2l-0.4-1.8c-0.3-1.2-0.5-1.8-0.5-1.9
								c-0.1-0.2-0.3-0.4-0.6-0.4c-0.1,0-0.2,0-0.3,0.1s-0.1,0.1-0.1,0.2s0,0.1,0,0.1c0,0.1,0.2,0.9,0.5,2.2
								c0.3,1.4,0.5,2.1,0.5,2.2c0,0.1,0,0.3,0,0.4c0,0.3-0.1,0.5-0.3,0.5c-0.2,0-0.4-0.1-0.5-0.4c-0.1-0.3-0.2-0.5-0.3-0.8
								c-0.1-0.3-0.1-0.5-0.2-0.5c0,0-0.1,0-0.2,0h-0.2C-339.3,147.6-339.3,147.7-339.3,147.7z"/>
						</g>
						<g transform="scale(0.707)">
							<path id="MJMATHI-65_3_" class="st14" d="M-327.3,146.1c0,0.5,0.1,1,0.3,1.4s0.4,0.8,0.7,1c0.3,0.3,0.6,0.5,0.9,0.7
								s0.6,0.3,0.9,0.4c0.3,0.1,0.6,0.1,0.8,0.1h0c0.4,0,0.7-0.1,1-0.3c0.3-0.2,0.4-0.5,0.4-0.9c0-0.8-0.5-1.3-1.5-1.6
								c-0.4-0.1-1-0.2-1.8-0.2c-0.3,0-0.5,0-0.5,0c0,0,0-0.2-0.1-0.5c-0.1-0.3-0.1-0.6-0.1-0.8c0-0.4,0.1-0.8,0.3-1
								c0.2-0.2,0.5-0.4,0.8-0.4c0.4,0,0.8,0.1,1.2,0.3c0.5,0.2,0.9,0.5,1.2,0.9c0.1,0.1,0.1,0.1,0.2,0.1c0,0,0.1,0,0.2-0.1
								c0.1-0.1,0.1-0.1,0.1-0.2c0,0,0-0.1-0.1-0.2c-0.1-0.1-0.2-0.2-0.4-0.4c-0.2-0.1-0.4-0.3-0.6-0.4s-0.5-0.2-0.8-0.3
								c-0.3-0.1-0.7-0.1-1-0.1c-0.7,0-1.2,0.2-1.6,0.7C-327.1,144.9-327.3,145.4-327.3,146.1z M-322.9,148.6
								c-0.1,0.5-0.4,0.7-0.9,0.7c-0.3,0-0.6-0.1-0.8-0.2c-0.2-0.1-0.4-0.3-0.6-0.5s-0.3-0.4-0.4-0.6c-0.1-0.2-0.2-0.3-0.2-0.5
								s-0.1-0.2-0.1-0.3c0,0,0.1,0,0.3,0c1,0,1.7,0.1,2.1,0.3C-323.1,147.9-322.9,148.2-322.9,148.6z"/>
						</g>
						<g transform="scale(0.707)">
							<path id="MJMATHI-61_3_" class="st14" d="M-321.2,145.9c0,0.9,0.3,1.8,1,2.6c0.7,0.8,1.4,1.2,2.3,1.2c0.5,0,0.9-0.2,1.2-0.7
								c0.1,0.3,0.3,0.4,0.6,0.4c0.1,0,0.2,0,0.3-0.1c0.1-0.1,0.1-0.2,0.1-0.3c0-0.1-0.2-0.8-0.5-2.2c-0.3-1.3-0.5-2.1-0.5-2.2
								c0-0.2,0-0.4,0.1-0.4c0.1-0.1,0.2-0.1,0.3-0.1c0.1,0,0.2,0,0.3,0.1c0.2,0.2,0.4,0.6,0.5,1.3c0.1,0.2,0.1,0.3,0.1,0.3
								c0,0,0.1,0,0.1,0h0.1c0.2,0,0.3,0,0.3-0.1c0-0.1,0-0.2-0.1-0.4s-0.1-0.4-0.3-0.7s-0.3-0.5-0.4-0.7c-0.1-0.1-0.3-0.2-0.4-0.3
								c-0.1,0-0.2,0-0.3,0c-0.3,0-0.6,0.1-0.8,0.2s-0.3,0.3-0.4,0.4l-0.1,0.2c0,0,0,0-0.1,0c0,0,0,0-0.1-0.1
								c-0.5-0.5-1.1-0.8-1.6-0.8c-0.5,0-0.9,0.2-1.3,0.5C-321,144.6-321.2,145.2-321.2,145.9z M-317,148.2c0,0.1,0,0.2-0.1,0.3
								s-0.1,0.3-0.3,0.5c-0.2,0.2-0.4,0.3-0.6,0.3c-0.3,0-0.6-0.1-0.9-0.4c-0.3-0.3-0.5-0.6-0.7-1.1c-0.3-0.7-0.4-1.4-0.5-2.2
								c0,0,0-0.1,0-0.1c0-0.1,0-0.1,0-0.2c0-0.4,0.1-0.7,0.2-0.8c0.2-0.2,0.4-0.2,0.6-0.2c0.3,0,0.7,0.1,1,0.4s0.5,0.5,0.6,0.7
								c0,0,0.1,0.5,0.4,1.4C-317.1,147.7-317,148.2-317,148.2z"/>
						</g>
						<g transform="scale(0.707)">
							<path id="MJMATHI-6E_3_" class="st14" d="M-314.3,147.7c0,0.1,0,0.1,0,0.2c0,0.1,0.1,0.3,0.2,0.5c0.1,0.3,0.2,0.5,0.3,0.6
								c0.1,0.2,0.2,0.3,0.4,0.5s0.4,0.2,0.6,0.2c0.3,0,0.6-0.1,0.8-0.2s0.3-0.3,0.4-0.5c0.1-0.1,0.1-0.2,0.1-0.3c0,0,0,0,0,0
								l0.1,0.1c0.5,0.6,1.2,0.9,1.9,0.9c0.5,0,0.9-0.1,1.2-0.4s0.4-0.6,0.5-1.1c0-0.5-0.2-1.2-0.5-2.1s-0.5-1.5-0.5-1.7
								c0-0.2,0.1-0.3,0.2-0.3c0.1,0,0.1,0,0.1,0c0.3,0,0.5,0.2,0.7,0.5s0.4,0.7,0.5,1.1c0,0.1,0.1,0.1,0.3,0.1c0.2,0,0.3,0,0.3-0.1
								c0,0,0-0.1-0.1-0.2c-0.1-0.3-0.2-0.5-0.3-0.8c-0.1-0.3-0.3-0.5-0.6-0.8c-0.3-0.3-0.6-0.4-0.9-0.4c-0.4,0-0.7,0.1-0.9,0.4
								s-0.3,0.5-0.3,0.8c0,0.2,0.2,0.7,0.5,1.6s0.5,1.6,0.5,2c0,0.5-0.2,0.8-0.6,0.8h-0.1c-0.8,0-1.4-0.5-1.9-1.4l-0.1-0.2
								l-0.4-1.8c-0.3-1.2-0.5-1.8-0.5-1.9c-0.1-0.2-0.3-0.4-0.6-0.4c-0.1,0-0.2,0-0.3,0.1s-0.1,0.1-0.1,0.2s0,0.1,0,0.1
								c0,0.1,0.2,0.8,0.5,2.2c0.3,1.3,0.5,2.1,0.5,2.2c0,0,0,0.1,0,0.3c0,0.3-0.1,0.5-0.3,0.5c-0.3,0-0.6-0.4-0.8-1.3
								c-0.1-0.2-0.1-0.3-0.1-0.3c0-0.1-0.1-0.1-0.3-0.1h-0.2C-314.3,147.6-314.3,147.7-314.3,147.7z"/>
						</g>
					</g>
				</g>
			</g>
		</g>
		<g>
			<g transform="translate(0,477.44)translate(-34.70751953125,0)" pointer-events="none">
				<g transform="matrix(1 0 0 -1 0 0)">
					<g>
						<path id="MJMATHI-50_1_" class="st15" d="M111,5c0,0.1-0.4,0.1-1.1,0.2c-0.3,0-0.5,0-0.6,0c-0.1,0-0.1,0.1-0.1,0.2
							c0,0,0,0.1,0,0.2c0.1,0.3,0.1,0.4,0.2,0.4c0,0,1.3,0,3.7,0c2.4,0,3.7,0,3.8-0.1c0.8-0.1,1.5-0.5,2-0.9s0.8-1.1,0.8-1.9
							c0-1-0.4-1.9-1.2-2.7c-0.9-0.9-2-1.4-3.4-1.6c-0.1,0-0.7,0-2,0h-1.8l-0.6-2.3c-0.4-1.5-0.6-2.3-0.6-2.3c0-0.1,0-0.1,0-0.1
							s0.1,0,0.1-0.1c0.1,0,0.2-0.1,0.3,0c0.1,0,0.3,0,0.6,0h0.6c0.1-0.1,0.1-0.2,0.1-0.2c0-0.2,0-0.4-0.1-0.6
							c-0.1-0.1-0.2-0.1-0.3-0.1c0,0-0.3,0-0.7,0c-0.4,0-1.1,0-1.9,0c-0.8,0-1.4,0-1.8,0c-0.4,0-0.6,0-0.7,0c-0.2,0-0.3,0.1-0.3,0.2
							c0,0,0,0.1,0.1,0.3c0.1,0.2,0.1,0.3,0.2,0.3c0.1,0,0.2,0,0.4,0.1c0.3,0,0.7,0,1.1,0.1c0.2,0,0.3,0.1,0.4,0.2
							c0,0.1,0.5,1.8,1.4,5.3S111,4.8,111,5z M117.8,3.6c0,0.2,0,0.3,0,0.4c0,0.1-0.1,0.2-0.2,0.4c-0.1,0.2-0.2,0.3-0.5,0.4
							s-0.5,0.2-0.9,0.3c-0.1,0-0.6,0-1.5,0c-0.2,0-0.4,0-0.7,0c-0.2,0-0.4,0-0.5,0c-0.1,0-0.2,0-0.2,0c-0.2,0-0.3-0.1-0.3-0.2
							c0-0.1-0.1-0.6-0.4-1.5s-0.4-1.8-0.7-2.6c-0.2-0.8-0.3-1.3-0.3-1.3c0,0,0.5,0,1.5,0h0.2h0.4c1.4,0,2.4,0.3,3,1
							c0.3,0.3,0.6,0.8,0.8,1.5C117.7,2.6,117.8,3.2,117.8,3.6z"/>
					</g>
					<g>
						<path id="MJMATHI-45_2_" class="st15" d="M129.1-2.9c-0.3,0-0.4,0.1-0.4,0.2c0,0.1,0,0.2,0.1,0.5s0.1,0.5,0.1,0.7
							c0,0.4-0.1,0.6-0.4,0.7c-0.3,0.1-0.9,0.1-1.8,0.1h-1c0,0-0.2-0.9-0.7-2.6c-0.4-1.7-0.6-2.6-0.6-2.7c0-0.1,0.1-0.1,0.2-0.1
							c0.1,0,0.6,0,1.5,0c1.2,0,2,0,2.3,0s0.8,0.1,1.1,0.2c0.6,0.2,1.1,0.6,1.5,1.1s0.8,1.3,1.3,2.5c0.1,0.3,0.2,0.4,0.2,0.5
							c0.1,0,0.2,0,0.3,0c0.3,0,0.4-0.1,0.4-0.2c-1.3-3.2-2-4.9-2.1-4.9c0,0-1.8,0-5.4,0h-3.6c-1.3,0-1.9,0.1-1.9,0.2
							c0,0,0,0.1,0.1,0.3c0.1,0.2,0.1,0.3,0.2,0.3c0.1,0,0.2,0,0.4,0.1c0.3,0,0.7,0,1.1,0.1c0.2,0,0.3,0.1,0.4,0.2
							c0,0.1,0.5,1.8,1.3,5.3s1.3,5.3,1.3,5.3c0,0.1,0,0.1-0.1,0.1c-0.1,0-0.4,0.1-1,0.1h-0.6c-0.1,0.1-0.1,0.1-0.1,0.2s0,0.1,0,0.3
							c0.1,0.2,0.1,0.3,0.2,0.4h10.4c0.1-0.1,0.1-0.1,0.1-0.2c0-0.1-0.1-0.8-0.2-2.1s-0.3-2.1-0.3-2.1c0-0.1-0.2-0.1-0.4-0.1h-0.2
							C133,1.5,133,1.5,133,1.6l0.1,0.4c0,0.3,0.1,0.6,0.1,1c0,0.4,0,0.7-0.1,1s-0.2,0.5-0.4,0.6c-0.2,0.1-0.4,0.2-0.7,0.3
							C131.6,5,131.3,5,131,5c-0.3,0-0.7,0-1.2,0h-0.9c-1.1,0-1.7,0-1.8-0.1c-0.1,0-0.1-0.1-0.1-0.2c0,0-0.2-0.8-0.6-2.3
							s-0.6-2.3-0.6-2.3c0.3,0,0.6,0,0.9,0h0.5c0.8,0,1.4,0.1,1.7,0.3c0.3,0.2,0.6,0.7,0.8,1.5c0.1,0.2,0.1,0.3,0.1,0.3
							c0,0,0.1,0,0.3,0.1c0.1,0,0.1,0,0.2,0s0.1,0,0.1,0c0,0,0,0,0,0s0,0,0-0.1c0-0.1,0-0.1,0.1-0.1L130-0.3
							c-0.4-1.7-0.6-2.5-0.7-2.6C129.3-2.9,129.2-2.9,129.1-2.9z"/>
					</g>
					<g transform="translate(1516,0)">
						<g>
							<path id="MJMATHI-3B3" class="st15" d="M-1381.2-2.2c-0.3,0-0.4,0.1-0.4,0.2c0,0.2,0.1,0.5,0.3,0.9s0.4,0.8,0.8,1.2
								s0.7,0.7,1.2,1s1,0.4,1.5,0.4c0.3,0,0.5,0,0.6,0c0.6-0.1,1.1-0.5,1.5-1s0.7-1.4,1-2.5c0.2-0.8,0.3-1.3,0.3-1.6
								c0-0.1,0-0.1,0-0.1l0.2,0.5c0.3,0.6,0.5,1.3,0.8,2s0.6,1.3,0.8,1.7s0.4,0.7,0.4,0.7c0,0,0.1,0,0.3,0h0.2
								c0.1-0.1,0.1-0.1,0.1-0.2c0-0.1-0.1-0.3-0.4-0.8s-0.6-1.3-1.1-2.4s-0.9-2.2-1.4-3.4c-0.1-0.2-0.2-0.6-0.2-1.2s-0.2-1.3-0.4-2
								c-0.2-0.8-0.4-1.4-0.5-1.7s-0.3-0.5-0.5-0.5c-0.2,0-0.3,0.2-0.3,0.5c0,0.6,0.3,2,1,4.2l0.1,0.4l0,0.3c0,0.1,0,0.3,0,0.6
								c0,2-0.4,3.4-1.1,4.1c-0.5,0.5-1.1,0.7-1.8,0.7c-0.6,0-1.2-0.2-1.7-0.5s-0.9-0.8-1.1-1.3c0-0.1-0.1-0.2-0.1-0.2
								C-1380.9-2.2-1381-2.2-1381.2-2.2z"/>
						</g>
						<g transform="translate(518,-150)">
							<g transform="scale(0.707)">
								<path id="MJMATHI-6D_4_" class="st16" d="M-1889.7,144c0,0.1,0,0.1,0,0.2c0,0.1,0.1,0.3,0.2,0.5s0.2,0.5,0.3,0.6
									c0.1,0.2,0.2,0.3,0.4,0.5c0.2,0.2,0.4,0.2,0.6,0.2s0.4,0,0.6-0.1c0.2-0.1,0.3-0.1,0.4-0.2c0.1-0.1,0.2-0.2,0.2-0.3
									c0.1-0.1,0.1-0.2,0.1-0.3l0-0.1c0,0,0,0,0,0l0.1,0.1c0.5,0.6,1.2,0.9,1.9,0.9c0.2,0,0.3,0,0.4,0c0.1,0,0.2,0,0.3-0.1
									c0.1,0,0.2-0.1,0.3-0.1c0.1,0,0.1-0.1,0.2-0.2c0.1-0.1,0.1-0.1,0.1-0.2c0-0.1,0.1-0.1,0.1-0.2c0.1-0.1,0.1-0.1,0.1-0.2
									c0,0,0-0.1,0-0.1c0,0,0.1-0.1,0-0.1l0.1,0.1c0.6,0.7,1.2,1,2,1c0.5,0,0.9-0.1,1.2-0.4s0.4-0.6,0.5-1.1
									c0-0.5-0.2-1.2-0.5-2.1s-0.5-1.5-0.5-1.7c0-0.1,0-0.2,0.1-0.3c0,0,0.1-0.1,0.2-0.1c0.2,0,0.5,0.1,0.7,0.4s0.4,0.6,0.5,1.1
									c0,0.1,0.1,0.2,0.1,0.2c0,0,0.1,0,0.2,0c0.2,0,0.3,0,0.3-0.1c0,0,0-0.1-0.1-0.2c-0.1-0.3-0.2-0.5-0.3-0.8
									c-0.1-0.3-0.3-0.5-0.6-0.8s-0.6-0.4-0.9-0.4c-0.4,0-0.7,0.1-0.9,0.4s-0.3,0.5-0.3,0.8c0,0.2,0.2,0.7,0.5,1.6
									c0.3,0.9,0.5,1.6,0.5,2c0,0.5-0.2,0.8-0.6,0.8h-0.1c-0.8,0-1.4-0.5-1.9-1.4l-0.1-0.2l-0.4-1.8c-0.3-1.2-0.5-1.8-0.5-1.9
									c-0.1-0.2-0.3-0.4-0.6-0.4c-0.1,0-0.2,0-0.3,0.1c-0.1,0.1-0.1,0.1-0.1,0.2c0,0,0,0.1,0,0.1c0,0.1,0.2,0.7,0.5,1.9l0.5,2
									c0,0.1,0,0.3,0,0.5c0,0.5-0.2,0.8-0.6,0.8h-0.1c-0.8,0-1.4-0.5-1.9-1.4l-0.1-0.2l-0.4-1.8c-0.3-1.2-0.5-1.8-0.5-1.9
									c-0.1-0.2-0.3-0.4-0.6-0.4c-0.1,0-0.2,0-0.3,0.1c-0.1,0.1-0.1,0.1-0.1,0.2c0,0.1,0,0.1,0,0.1c0,0.1,0.2,0.9,0.5,2.2
									c0.3,1.4,0.5,2.1,0.5,2.2c0,0.1,0,0.3,0,0.4c0,0.3-0.1,0.5-0.3,0.5c-0.2,0-0.4-0.1-0.5-0.4c-0.1-0.3-0.2-0.5-0.3-0.8
									s-0.1-0.5-0.2-0.5c0,0-0.1,0-0.2,0h-0.2C-1889.7,144-1889.7,144-1889.7,144z"/>
							</g>
							<g transform="scale(0.707)">
								<path id="MJMATHI-65_4_" class="st16" d="M-1877.8,142.4c0,0.5,0.1,1,0.3,1.4c0.2,0.4,0.4,0.8,0.7,1
									c0.3,0.3,0.6,0.5,0.9,0.7c0.3,0.2,0.6,0.3,0.9,0.4c0.3,0.1,0.6,0.1,0.8,0.1h0c0.4,0,0.7-0.1,1-0.3s0.4-0.5,0.4-0.9
									c0-0.8-0.5-1.3-1.5-1.6c-0.4-0.1-1-0.2-1.8-0.2c-0.3,0-0.5,0-0.5,0c0,0,0-0.2-0.1-0.5s-0.1-0.6-0.1-0.8c0-0.4,0.1-0.8,0.3-1
									c0.2-0.2,0.5-0.4,0.8-0.4c0.4,0,0.8,0.1,1.2,0.3s0.9,0.5,1.2,0.9c0.1,0.1,0.1,0.1,0.2,0.1c0,0,0.1,0,0.2-0.1
									c0.1-0.1,0.1-0.1,0.1-0.2c0,0,0-0.1-0.1-0.2s-0.2-0.2-0.4-0.4c-0.2-0.1-0.4-0.3-0.6-0.4c-0.2-0.1-0.5-0.2-0.8-0.3
									c-0.3-0.1-0.7-0.1-1-0.1c-0.7,0-1.2,0.2-1.6,0.7C-1877.6,141.2-1877.8,141.8-1877.8,142.4z M-1873.3,144.9
									c-0.1,0.5-0.4,0.7-0.9,0.7c-0.3,0-0.6-0.1-0.8-0.2c-0.2-0.1-0.4-0.3-0.6-0.5s-0.3-0.4-0.4-0.6c-0.1-0.2-0.2-0.3-0.2-0.5
									c0-0.1-0.1-0.2-0.1-0.3c0,0,0.1,0,0.3,0c1,0,1.7,0.1,2.1,0.3C-1873.5,144.2-1873.3,144.5-1873.3,144.9z"/>
							</g>
							<g transform="scale(0.707)">
								<path id="MJMATHI-61_4_" class="st16" d="M-1871.6,142.3c0,0.9,0.3,1.8,1,2.6c0.7,0.8,1.4,1.2,2.3,1.2
									c0.5,0,0.9-0.2,1.2-0.7c0.1,0.3,0.3,0.4,0.6,0.4c0.1,0,0.2,0,0.3-0.1s0.1-0.2,0.1-0.3c0-0.1-0.2-0.8-0.5-2.2
									c-0.3-1.3-0.5-2.1-0.5-2.2c0-0.2,0-0.4,0.1-0.4c0.1-0.1,0.2-0.1,0.3-0.1c0.1,0,0.2,0,0.3,0.1c0.2,0.2,0.4,0.6,0.5,1.3
									c0.1,0.2,0.1,0.3,0.1,0.3c0,0,0.1,0,0.1,0h0.1c0.2,0,0.3,0,0.3-0.1c0-0.1,0-0.2-0.1-0.4c0-0.2-0.1-0.4-0.3-0.7
									s-0.3-0.5-0.4-0.7c-0.1-0.1-0.3-0.2-0.4-0.3c-0.1,0-0.2,0-0.3,0c-0.3,0-0.6,0.1-0.8,0.2c-0.2,0.1-0.3,0.3-0.4,0.4l-0.1,0.2
									c0,0,0,0-0.1,0c0,0,0,0-0.1-0.1c-0.5-0.5-1.1-0.8-1.6-0.8c-0.5,0-0.9,0.2-1.3,0.5C-1871.5,140.9-1871.6,141.5-1871.6,142.3z
									 M-1867.4,144.6c0,0.1,0,0.2-0.1,0.3c0,0.1-0.1,0.3-0.3,0.5s-0.4,0.3-0.6,0.3c-0.3,0-0.6-0.1-0.9-0.4
									c-0.3-0.3-0.5-0.6-0.7-1.1c-0.3-0.7-0.4-1.4-0.5-2.2c0,0,0-0.1,0-0.1c0-0.1,0-0.1,0-0.2c0-0.4,0.1-0.7,0.2-0.8
									s0.4-0.2,0.6-0.2c0.3,0,0.7,0.1,1,0.4c0.3,0.3,0.5,0.5,0.6,0.7c0,0,0.1,0.5,0.4,1.4C-1867.5,144-1867.4,144.5-1867.4,144.6z
									"/>
							</g>
							<g transform="scale(0.707)">
								<path id="MJMATHI-6E_4_" class="st16" d="M-1864.7,144c0,0.1,0,0.1,0,0.2c0,0.1,0.1,0.3,0.2,0.5s0.2,0.5,0.3,0.6
									c0.1,0.2,0.2,0.3,0.4,0.5c0.2,0.2,0.4,0.2,0.6,0.2c0.3,0,0.6-0.1,0.8-0.2c0.2-0.2,0.3-0.3,0.4-0.5c0.1-0.1,0.1-0.2,0.1-0.3
									c0,0,0,0,0,0l0.1,0.1c0.5,0.6,1.2,0.9,1.9,0.9c0.5,0,0.9-0.1,1.2-0.4c0.3-0.2,0.4-0.6,0.5-1.1c0-0.5-0.2-1.2-0.5-2.1
									c-0.3-0.9-0.5-1.5-0.5-1.7c0-0.2,0.1-0.3,0.2-0.3c0.1,0,0.1,0,0.1,0c0.3,0,0.5,0.2,0.7,0.5s0.4,0.7,0.5,1.1
									c0,0.1,0.1,0.1,0.3,0.1c0.2,0,0.3,0,0.3-0.1c0,0,0-0.1-0.1-0.2c-0.1-0.3-0.2-0.5-0.3-0.8c-0.1-0.3-0.3-0.5-0.6-0.8
									c-0.3-0.3-0.6-0.4-0.9-0.4c-0.4,0-0.7,0.1-0.9,0.4c-0.2,0.2-0.3,0.5-0.3,0.8c0,0.2,0.2,0.7,0.5,1.6s0.5,1.6,0.5,2
									c0,0.5-0.2,0.8-0.6,0.8h-0.1c-0.8,0-1.4-0.5-1.9-1.4l-0.1-0.2l-0.4-1.8c-0.3-1.2-0.5-1.8-0.5-1.9c-0.1-0.2-0.3-0.4-0.6-0.4
									c-0.1,0-0.2,0-0.3,0.1c-0.1,0.1-0.1,0.1-0.1,0.2c0,0.1,0,0.1,0,0.1c0,0.1,0.2,0.8,0.5,2.2c0.3,1.3,0.5,2.1,0.5,2.2
									c0,0,0,0.1,0,0.3c0,0.3-0.1,0.5-0.3,0.5c-0.3,0-0.6-0.4-0.8-1.3c-0.1-0.2-0.1-0.3-0.1-0.3c0-0.1-0.1-0.1-0.3-0.1h-0.2
									C-1864.7,144-1864.7,144-1864.7,144z"/>
							</g>
						</g>
					</g>
				</g>
			</g>
		</g>
		<g>
			<g transform="translate(0,402.56)translate(-35.1552734375,0)" pointer-events="none">
				<g transform="matrix(1 0 0 -1 0 0)">
					<g>
						<path id="MJMATHI-50_2_" class="st17" d="M110.6,6.8c0,0.1-0.4,0.1-1.1,0.2c-0.3,0-0.5,0-0.6,0s-0.1,0.1-0.1,0.2
							c0,0,0,0.1,0,0.2c0.1,0.3,0.1,0.4,0.2,0.4c0,0,1.3,0,3.7,0c2.4,0,3.7,0,3.8-0.1c0.8-0.1,1.5-0.5,2-0.9s0.8-1.1,0.8-1.9
							c0-1-0.4-1.9-1.2-2.7c-0.9-0.9-2-1.4-3.4-1.6c-0.1,0-0.7,0-2,0H111l-0.6-2.3c-0.4-1.5-0.6-2.3-0.6-2.3c0-0.1,0-0.1,0-0.1
							c0,0,0.1,0,0.1-0.1s0.2-0.1,0.3,0c0.1,0,0.3,0,0.6,0h0.6c0.1-0.1,0.1-0.2,0.1-0.2c0-0.2,0-0.4-0.1-0.6
							c-0.1-0.1-0.2-0.1-0.3-0.1c0,0-0.3,0-0.7,0c-0.4,0-1.1,0-1.9,0c-0.8,0-1.4,0-1.8,0c-0.4,0-0.6,0-0.7,0c-0.2,0-0.3,0.1-0.3,0.2
							c0,0,0,0.1,0.1,0.3c0.1,0.2,0.1,0.3,0.2,0.3c0.1,0,0.2,0,0.4,0.1c0.3,0,0.7,0,1.1,0.1c0.2,0,0.3,0.1,0.4,0.2
							c0,0.1,0.5,1.8,1.4,5.3C110.1,4.8,110.6,6.7,110.6,6.8z M117.3,5.4c0,0.2,0,0.3,0,0.4c0,0.1-0.1,0.2-0.2,0.4s-0.2,0.3-0.5,0.4
							c-0.2,0.1-0.5,0.2-0.9,0.3c-0.1,0-0.6,0-1.5,0c-0.2,0-0.4,0-0.7,0c-0.2,0-0.4,0-0.5,0c-0.1,0-0.2,0-0.2,0
							c-0.2,0-0.3-0.1-0.3-0.2c0-0.1-0.1-0.6-0.4-1.5c-0.2-0.9-0.4-1.8-0.7-2.6c-0.2-0.8-0.3-1.3-0.3-1.3c0,0,0.5,0,1.5,0h0.2h0.4
							c1.4,0,2.4,0.3,3,1c0.3,0.3,0.6,0.8,0.8,1.5S117.3,5,117.3,5.4z"/>
					</g>
					<g>
						<path id="MJMATHI-45_3_" class="st17" d="M128.6-1c-0.3,0-0.4,0.1-0.4,0.2c0,0.1,0,0.2,0.1,0.5c0.1,0.3,0.1,0.5,0.1,0.7
							c0,0.4-0.1,0.6-0.4,0.7c-0.3,0.1-0.9,0.1-1.8,0.1h-1c0,0-0.2-0.9-0.7-2.6s-0.6-2.6-0.6-2.7c0-0.1,0.1-0.1,0.2-0.1
							c0.1,0,0.6,0,1.5,0c1.2,0,2,0,2.3,0c0.4,0,0.8,0.1,1.1,0.2c0.6,0.2,1.1,0.6,1.5,1.1s0.8,1.3,1.3,2.5c0.1,0.3,0.2,0.4,0.2,0.5
							c0.1,0,0.2,0,0.3,0c0.3,0,0.4-0.1,0.4-0.2c-1.3-3.2-2-4.9-2.1-4.9c0,0-1.8,0-5.4,0h-3.6c-1.3,0-1.9,0.1-1.9,0.2
							c0,0,0,0.1,0.1,0.3c0.1,0.2,0.1,0.3,0.2,0.3c0.1,0,0.2,0,0.4,0.1c0.3,0,0.7,0,1.1,0.1c0.2,0,0.3,0.1,0.4,0.2
							c0,0.1,0.5,1.8,1.3,5.3s1.3,5.3,1.3,5.3c0,0.1,0,0.1-0.1,0.1c-0.1,0-0.4,0.1-1,0.1H123c-0.1,0.1-0.1,0.1-0.1,0.2
							c0,0,0,0.1,0,0.3c0.1,0.2,0.1,0.3,0.2,0.4h10.4c0.1-0.1,0.1-0.1,0.1-0.2c0-0.1-0.1-0.8-0.2-2.1s-0.3-2.1-0.3-2.1
							c0-0.1-0.2-0.1-0.4-0.1h-0.2c-0.1,0.1-0.1,0.1-0.1,0.2l0.1,0.4c0,0.3,0.1,0.6,0.1,1c0,0.4,0,0.7-0.1,1s-0.2,0.5-0.4,0.6
							s-0.4,0.2-0.7,0.3c-0.3,0.1-0.6,0.1-0.9,0.1c-0.3,0-0.7,0-1.2,0h-0.9c-1.1,0-1.7,0-1.8-0.1c-0.1,0-0.1-0.1-0.1-0.2
							c0,0-0.2-0.8-0.6-2.3c-0.4-1.5-0.6-2.3-0.6-2.3c0.3,0,0.6,0,0.9,0h0.5c0.8,0,1.4,0.1,1.7,0.3s0.6,0.7,0.8,1.5
							c0.1,0.2,0.1,0.3,0.1,0.3c0,0,0.1,0,0.3,0.1c0.1,0,0.1,0,0.2,0s0.1,0,0.1,0c0,0,0,0,0,0s0,0,0-0.1c0-0.1,0-0.1,0.1-0.1
							l-0.6-2.5c-0.4-1.7-0.6-2.5-0.7-2.6C128.9-1,128.8-1,128.6-1z"/>
					</g>
					<g transform="translate(1516,0)">
						<g>
							<path id="MJMATHI-3B2" class="st17" d="M-1381.7-8.8c-0.1,0.1-0.1,0.1-0.1,0.2c0,0,0.5,2.1,1.5,6.1c1,4,1.5,6.1,1.6,6.3
								c0.3,0.9,0.6,1.6,1.1,2.3s0.9,1.1,1.2,1.4c0.7,0.6,1.5,0.9,2.3,0.9h0c0.8,0,1.4-0.2,1.9-0.7c0.5-0.5,0.8-1.1,0.8-1.8
								c0-1.3-0.7-2.4-2-3.3l0.2-0.2c0.6-0.6,1-1.5,1-2.5c0-1.4-0.5-2.6-1.6-3.6s-2.3-1.4-3.6-1.4c-0.4,0-0.7,0.1-1,0.2
								c-0.3,0.1-0.5,0.2-0.7,0.4s-0.3,0.3-0.4,0.4c-0.1,0.2-0.2,0.3-0.2,0.4c-0.1,0.1-0.1,0.1-0.1,0.1l-1.2-4.8
								c0-0.1-0.2-0.1-0.4-0.1H-1381.7z M-1375.6,3.1c0.5,0,1-0.1,1.4-0.2l0.1,0.1c0.1,0.1,0.1,0.1,0.1,0.1s0.1,0.1,0.2,0.2
								c0.1,0.1,0.2,0.2,0.2,0.3s0.1,0.2,0.2,0.3c0.1,0.1,0.2,0.3,0.2,0.5c0.1,0.2,0.1,0.3,0.2,0.6s0.1,0.4,0.2,0.7
								c0,0.1,0,0.3,0,0.6c0,0.2,0,0.4,0,0.4c-0.2,0.6-0.7,1-1.4,1c-0.5,0-1-0.2-1.5-0.5c-0.5-0.3-0.8-0.7-1.2-1.2
								c-0.3-0.5-0.5-0.9-0.7-1.3c-0.2-0.4-0.3-0.8-0.4-1.1c-0.1-0.2-0.3-1.1-0.7-2.8c-0.4-1.7-0.6-2.5-0.6-2.7c0-0.1,0-0.2,0-0.4
								c0-0.6,0.1-1.1,0.4-1.5c0.4-0.5,0.9-0.8,1.6-0.8c0.5,0,1.1,0.2,1.7,0.5c0.6,0.3,1.1,0.9,1.4,1.6c0.2,0.4,0.4,0.9,0.5,1.5
								c0.1,0.5,0.2,1,0.2,1.2c0,0.7-0.2,1.3-0.7,1.8c-0.5-0.2-1-0.3-1.4-0.3h-0.2c-1,0-1.5,0.2-1.5,0.6c0,0.1,0,0.2,0.1,0.3
								C-1377.1,2.9-1376.6,3.1-1375.6,3.1z"/>
						</g>
						<g transform="translate(566,-150)">
							<g transform="scale(0.707)">
								<path id="MJMATHI-6D_5_" class="st18" d="M-1937.3,145.9c0,0.1,0,0.1,0,0.2c0,0.1,0.1,0.3,0.2,0.5s0.2,0.5,0.3,0.6
									c0.1,0.2,0.2,0.3,0.4,0.5s0.4,0.2,0.6,0.2c0.2,0,0.4,0,0.6-0.1c0.2-0.1,0.3-0.1,0.4-0.2c0.1-0.1,0.2-0.2,0.2-0.3
									s0.1-0.2,0.1-0.3l0-0.1c0,0,0,0,0,0l0.1,0.1c0.5,0.6,1.2,0.9,1.9,0.9c0.2,0,0.3,0,0.4,0c0.1,0,0.2,0,0.3-0.1
									s0.2-0.1,0.3-0.1c0.1,0,0.1-0.1,0.2-0.2s0.1-0.1,0.1-0.2c0-0.1,0.1-0.1,0.1-0.2s0.1-0.1,0.1-0.2c0,0,0-0.1,0-0.1
									c0,0,0.1-0.1,0-0.1l0.1,0.1c0.6,0.7,1.2,1,2,1c0.5,0,0.9-0.1,1.2-0.4s0.4-0.6,0.5-1.1c0-0.5-0.2-1.2-0.5-2.1
									c-0.3-1-0.5-1.5-0.5-1.7c0-0.1,0-0.2,0.1-0.3c0,0,0.1-0.1,0.2-0.1c0.2,0,0.5,0.1,0.7,0.4c0.2,0.3,0.4,0.6,0.5,1.1
									c0,0.1,0.1,0.2,0.1,0.2c0,0,0.1,0,0.2,0c0.2,0,0.3,0,0.3-0.1c0,0,0-0.1-0.1-0.2c-0.1-0.3-0.2-0.5-0.3-0.8
									c-0.1-0.3-0.3-0.5-0.6-0.8c-0.3-0.3-0.6-0.4-0.9-0.4c-0.4,0-0.7,0.1-0.9,0.4c-0.2,0.2-0.3,0.5-0.3,0.8
									c0,0.2,0.2,0.7,0.5,1.6c0.3,0.9,0.5,1.6,0.5,2c0,0.5-0.2,0.8-0.6,0.8h-0.1c-0.8,0-1.4-0.5-1.9-1.4l-0.1-0.2l-0.4-1.8
									c-0.3-1.2-0.5-1.8-0.5-1.9c-0.1-0.2-0.3-0.4-0.6-0.4c-0.1,0-0.2,0-0.3,0.1c-0.1,0.1-0.1,0.1-0.1,0.2c0,0,0,0.1,0,0.1
									c0,0.1,0.2,0.7,0.5,1.9l0.5,2c0,0.1,0,0.3,0,0.5c0,0.5-0.2,0.8-0.6,0.8h-0.1c-0.8,0-1.4-0.5-1.9-1.4l-0.1-0.2l-0.4-1.8
									c-0.3-1.2-0.5-1.8-0.5-1.9c-0.1-0.2-0.3-0.4-0.6-0.4c-0.1,0-0.2,0-0.3,0.1c-0.1,0.1-0.1,0.1-0.1,0.2c0,0.1,0,0.1,0,0.1
									c0,0.1,0.2,0.9,0.5,2.2c0.3,1.4,0.5,2.1,0.5,2.2c0,0.1,0,0.3,0,0.4c0,0.3-0.1,0.5-0.3,0.5c-0.2,0-0.4-0.1-0.5-0.4
									c-0.1-0.3-0.2-0.5-0.3-0.8c-0.1-0.3-0.1-0.5-0.2-0.5c0,0-0.1,0-0.2,0h-0.2C-1937.3,145.8-1937.3,145.9-1937.3,145.9z"/>
							</g>
							<g transform="scale(0.707)">
								<path id="MJMATHI-65_5_" class="st18" d="M-1925.3,144.3c0,0.5,0.1,1,0.3,1.4s0.4,0.8,0.7,1c0.3,0.3,0.6,0.5,0.9,0.7
									c0.3,0.2,0.6,0.3,0.9,0.4c0.3,0.1,0.6,0.1,0.8,0.1h0c0.4,0,0.7-0.1,1-0.3c0.3-0.2,0.4-0.5,0.4-0.9c0-0.8-0.5-1.3-1.5-1.6
									c-0.4-0.1-1-0.2-1.8-0.2c-0.3,0-0.5,0-0.5,0c0,0,0-0.2-0.1-0.5s-0.1-0.6-0.1-0.8c0-0.4,0.1-0.8,0.3-1s0.5-0.4,0.8-0.4
									c0.4,0,0.8,0.1,1.2,0.3c0.5,0.2,0.9,0.5,1.2,0.9c0.1,0.1,0.1,0.1,0.2,0.1c0,0,0.1,0,0.2-0.1c0.1-0.1,0.1-0.1,0.1-0.2
									s0-0.1-0.1-0.2c-0.1-0.1-0.2-0.2-0.4-0.4c-0.2-0.1-0.4-0.3-0.6-0.4c-0.2-0.1-0.5-0.2-0.8-0.3c-0.3-0.1-0.7-0.1-1-0.1
									c-0.7,0-1.2,0.2-1.6,0.7C-1925.1,143.1-1925.3,143.7-1925.3,144.3z M-1920.9,146.8c-0.1,0.5-0.4,0.7-0.9,0.7
									c-0.3,0-0.6-0.1-0.8-0.2c-0.2-0.1-0.4-0.3-0.6-0.5c-0.2-0.2-0.3-0.4-0.4-0.6c-0.1-0.2-0.2-0.3-0.2-0.5s-0.1-0.2-0.1-0.3
									c0,0,0.1,0,0.3,0c1,0,1.7,0.1,2.1,0.3C-1921.1,146.1-1920.9,146.4-1920.9,146.8z"/>
							</g>
							<g transform="scale(0.707)">
								<path id="MJMATHI-61_5_" class="st18" d="M-1919.2,144.2c0,0.9,0.3,1.8,1,2.6c0.7,0.8,1.4,1.2,2.3,1.2
									c0.5,0,0.9-0.2,1.2-0.7c0.1,0.3,0.3,0.4,0.6,0.4c0.1,0,0.2,0,0.3-0.1s0.1-0.2,0.1-0.3c0-0.1-0.2-0.8-0.5-2.2
									c-0.3-1.3-0.5-2.1-0.5-2.2c0-0.2,0-0.4,0.1-0.4s0.2-0.1,0.3-0.1c0.1,0,0.2,0,0.3,0.1c0.2,0.2,0.4,0.6,0.5,1.3
									c0.1,0.2,0.1,0.3,0.1,0.3c0,0,0.1,0,0.1,0h0.1c0.2,0,0.3,0,0.3-0.1c0-0.1,0-0.2-0.1-0.4s-0.1-0.4-0.3-0.7
									c-0.1-0.3-0.3-0.5-0.4-0.7c-0.1-0.1-0.3-0.2-0.4-0.3c-0.1,0-0.2,0-0.3,0c-0.3,0-0.6,0.1-0.8,0.2s-0.3,0.3-0.4,0.4l-0.1,0.2
									c0,0,0,0-0.1,0c0,0,0,0-0.1-0.1c-0.5-0.5-1.1-0.8-1.6-0.8c-0.5,0-0.9,0.2-1.3,0.5C-1919,142.8-1919.2,143.4-1919.2,144.2z
									 M-1915,146.5c0,0.1,0,0.2-0.1,0.3c0,0.1-0.1,0.3-0.3,0.5c-0.2,0.2-0.4,0.3-0.6,0.3c-0.3,0-0.6-0.1-0.9-0.4
									c-0.3-0.3-0.5-0.6-0.7-1.1c-0.3-0.7-0.4-1.4-0.5-2.2c0,0,0-0.1,0-0.1s0-0.1,0-0.2c0-0.4,0.1-0.7,0.2-0.8s0.4-0.2,0.6-0.2
									c0.3,0,0.7,0.1,1,0.4c0.3,0.3,0.5,0.5,0.6,0.7c0,0,0.1,0.5,0.4,1.4C-1915.1,145.9-1915,146.4-1915,146.5z"/>
							</g>
							<g transform="scale(0.707)">
								<path id="MJMATHI-6E_5_" class="st18" d="M-1912.3,145.9c0,0.1,0,0.1,0,0.2c0,0.1,0.1,0.3,0.2,0.5c0.1,0.3,0.2,0.5,0.3,0.6
									c0.1,0.2,0.2,0.3,0.4,0.5s0.4,0.2,0.6,0.2c0.3,0,0.6-0.1,0.8-0.2s0.3-0.3,0.4-0.5c0.1-0.1,0.1-0.2,0.1-0.3c0,0,0,0,0,0
									l0.1,0.1c0.5,0.6,1.2,0.9,1.9,0.9c0.5,0,0.9-0.1,1.2-0.4c0.3-0.2,0.4-0.6,0.5-1.1c0-0.5-0.2-1.2-0.5-2.1
									c-0.3-0.9-0.5-1.5-0.5-1.7c0-0.2,0.1-0.3,0.2-0.3c0.1,0,0.1,0,0.1,0c0.3,0,0.5,0.2,0.7,0.5s0.4,0.7,0.5,1.1
									c0,0.1,0.1,0.1,0.3,0.1c0.2,0,0.3,0,0.3-0.1c0,0,0-0.1-0.1-0.2c-0.1-0.3-0.2-0.5-0.3-0.8c-0.1-0.3-0.3-0.5-0.6-0.8
									c-0.3-0.3-0.6-0.4-0.9-0.4c-0.4,0-0.7,0.1-0.9,0.4s-0.3,0.5-0.3,0.8c0,0.2,0.2,0.7,0.5,1.6c0.3,0.9,0.5,1.6,0.5,2
									c0,0.5-0.2,0.8-0.6,0.8h-0.1c-0.8,0-1.4-0.5-1.9-1.4l-0.1-0.2l-0.4-1.8c-0.3-1.2-0.5-1.8-0.5-1.9c-0.1-0.2-0.3-0.4-0.6-0.4
									c-0.1,0-0.2,0-0.3,0.1c-0.1,0.1-0.1,0.1-0.1,0.2c0,0.1,0,0.1,0,0.1c0,0.1,0.2,0.8,0.5,2.2c0.3,1.3,0.5,2.1,0.5,2.2
									c0,0,0,0.1,0,0.3c0,0.3-0.1,0.5-0.3,0.5c-0.3,0-0.6-0.4-0.8-1.3c-0.1-0.2-0.1-0.3-0.1-0.3c0-0.1-0.1-0.1-0.3-0.1h-0.2
									C-1912.3,145.8-1912.3,145.9-1912.3,145.9z"/>
							</g>
						</g>
					</g>
				</g>
			</g>
		</g>
		<g>
			<g transform="translate(0,327.67)translate(-26.13232421875,0)" pointer-events="none">
				<g transform="matrix(1 0 0 -1 0 0)">
					<g>
						<path id="MJMAIN-7C_2_" class="st19" d="M115.5-3.9L115.5-3.9c-0.2,0-0.3,0.1-0.4,0.3v9.2l0,9.2c0.1,0.2,0.2,0.2,0.4,0.2
							c0.2,0,0.3-0.1,0.4-0.3V-3.7C115.7-3.8,115.6-3.9,115.5-3.9L115.5-3.9z"/>
					</g>
					<g>
						<path id="MJMATHI-3B1_1_" class="st19" d="M118.7,3.8c0,1.4,0.5,2.7,1.6,3.8c1.1,1.1,2.3,1.6,3.6,1.6c0.9,0,1.6-0.3,2.1-0.8
							c0.5-0.5,0.9-1.1,1.1-1.9c0.1-0.4,0.1-0.8,0.1-1.3V4.8c0.6,0.9,1.1,2,1.4,3.2c0.1,0.2,0.1,0.3,0.1,0.3s0.1,0,0.3,0.1
							c0.3,0,0.4-0.1,0.4-0.2c0-0.1-0.1-0.4-0.2-0.7s-0.3-0.9-0.7-1.6c-0.3-0.7-0.7-1.3-1.2-1.9l-0.2-0.3l0-0.5
							c0-0.7,0.1-1.2,0.2-1.4s0.2-0.4,0.4-0.4c0.2,0,0.3,0.1,0.5,0.2s0.3,0.3,0.3,0.4c0,0.1,0.1,0.1,0.1,0.2s0.1,0,0.3,0
							c0.3,0,0.4-0.1,0.4-0.2c0-0.1,0-0.2-0.1-0.4c-0.2-0.3-0.4-0.5-0.7-0.7c-0.3-0.2-0.6-0.3-0.8-0.3h-0.1c-0.8,0-1.4,0.5-1.7,1.4
							l-0.1,0.1L125.6,2c-0.1-0.1-0.3-0.2-0.6-0.4s-0.5-0.3-0.8-0.4s-0.7-0.3-1.1-0.4s-0.8-0.2-1.2-0.2c-1,0-1.8,0.3-2.3,1
							C119,2.2,118.7,2.9,118.7,3.8z M122,1.3c0.6,0,1.2,0.1,1.8,0.4c0.6,0.3,1.1,0.5,1.4,0.8l0.5,0.4c0,1.8-0.1,2.9-0.1,3.4
							c-0.2,1.5-0.8,2.2-1.7,2.2c-0.9,0-1.6-0.5-2.3-1.4c-0.3-0.5-0.6-1.2-0.8-2.1c-0.2-0.9-0.3-1.5-0.3-2c0-0.6,0.2-1.1,0.5-1.4
							C121.1,1.5,121.5,1.3,122,1.3z"/>
					</g>
					<g transform="translate(919,0)">
						<g>
							<path id="MJMAIN-7C_3_" class="st19" d="M-786.2-3.9L-786.2-3.9c-0.2,0-0.3,0.1-0.4,0.3v9.2l0,9.2c0.1,0.2,0.2,0.2,0.4,0.2
								c0.2,0,0.3-0.1,0.4-0.3V-3.7C-785.9-3.8-786-3.9-786.2-3.9L-786.2-3.9z"/>
						</g>
						<g transform="translate(278,-286)">
							<g transform="scale(0.707)">
								<path id="MJMATHI-6D_6_" class="st20" d="M-1061.3,285.2c0,0.1,0,0.1,0,0.2c0,0.1,0.1,0.3,0.2,0.5c0.1,0.3,0.2,0.5,0.3,0.6
									c0.1,0.2,0.2,0.3,0.4,0.5c0.2,0.2,0.4,0.2,0.6,0.2c0.2,0,0.4,0,0.6-0.1c0.2-0.1,0.3-0.1,0.4-0.2s0.2-0.2,0.2-0.3
									s0.1-0.2,0.1-0.3l0-0.1c0,0,0,0,0,0l0.1,0.1c0.5,0.6,1.2,0.9,1.9,0.9c0.2,0,0.3,0,0.4,0c0.1,0,0.2,0,0.3-0.1
									c0.1,0,0.2-0.1,0.3-0.1c0.1,0,0.1-0.1,0.2-0.2c0.1-0.1,0.1-0.1,0.1-0.2c0-0.1,0.1-0.1,0.1-0.2c0.1-0.1,0.1-0.1,0.1-0.2
									c0,0,0-0.1,0-0.1c0,0,0.1-0.1,0-0.1l0.1,0.1c0.6,0.7,1.2,1,2,1c0.5,0,0.9-0.1,1.2-0.4c0.3-0.2,0.4-0.6,0.5-1.1
									c0-0.5-0.2-1.2-0.5-2.1c-0.3-1-0.5-1.5-0.5-1.7c0-0.1,0-0.2,0.1-0.3c0,0,0.1-0.1,0.2-0.1c0.2,0,0.5,0.1,0.7,0.4
									c0.2,0.3,0.4,0.6,0.5,1.1c0,0.1,0.1,0.2,0.1,0.2s0.1,0,0.2,0c0.2,0,0.3,0,0.3-0.1c0,0,0-0.1-0.1-0.2
									c-0.1-0.3-0.2-0.5-0.3-0.8c-0.1-0.3-0.3-0.5-0.6-0.8c-0.3-0.3-0.6-0.4-0.9-0.4c-0.4,0-0.7,0.1-0.9,0.4
									c-0.2,0.2-0.3,0.5-0.3,0.8c0,0.2,0.2,0.7,0.5,1.6c0.3,0.9,0.5,1.6,0.5,2c0,0.5-0.2,0.8-0.6,0.8h-0.1c-0.8,0-1.4-0.5-1.9-1.4
									l-0.1-0.2l-0.4-1.8c-0.3-1.2-0.5-1.8-0.5-1.9c-0.1-0.2-0.3-0.4-0.6-0.4c-0.1,0-0.2,0-0.3,0.1c-0.1,0.1-0.1,0.1-0.1,0.2
									c0,0,0,0.1,0,0.1c0,0.1,0.2,0.7,0.5,1.9l0.5,2c0,0.1,0,0.3,0,0.5c0,0.5-0.2,0.8-0.6,0.8h-0.1c-0.8,0-1.4-0.5-1.9-1.4
									l-0.1-0.2l-0.4-1.8c-0.3-1.2-0.5-1.8-0.5-1.9c-0.1-0.2-0.3-0.4-0.6-0.4c-0.1,0-0.2,0-0.3,0.1c-0.1,0.1-0.1,0.1-0.1,0.2
									s0,0.1,0,0.1c0,0.1,0.2,0.9,0.5,2.2c0.3,1.4,0.5,2.1,0.5,2.2c0,0.1,0,0.3,0,0.4c0,0.3-0.1,0.5-0.3,0.5
									c-0.2,0-0.4-0.1-0.5-0.4c-0.1-0.3-0.2-0.5-0.3-0.8c-0.1-0.3-0.1-0.5-0.2-0.5c0,0-0.1,0-0.2,0h-0.2
									C-1061.3,285.2-1061.3,285.2-1061.3,285.2z"/>
							</g>
							<g transform="scale(0.707)">
								<path id="MJMATHI-65_6_" class="st20" d="M-1049.4,283.6c0,0.5,0.1,1,0.3,1.4c0.2,0.4,0.4,0.8,0.7,1
									c0.3,0.3,0.6,0.5,0.9,0.7c0.3,0.2,0.6,0.3,0.9,0.4c0.3,0.1,0.6,0.1,0.8,0.1h0c0.4,0,0.7-0.1,1-0.3s0.4-0.5,0.4-0.9
									c0-0.8-0.5-1.3-1.5-1.6c-0.4-0.1-1-0.2-1.8-0.2c-0.3,0-0.5,0-0.5,0c0,0,0-0.2-0.1-0.5c-0.1-0.3-0.1-0.6-0.1-0.8
									c0-0.4,0.1-0.8,0.3-1c0.2-0.2,0.5-0.4,0.8-0.4c0.4,0,0.8,0.1,1.2,0.3c0.5,0.2,0.9,0.5,1.2,0.9c0.1,0.1,0.1,0.1,0.2,0.1
									c0,0,0.1,0,0.2-0.1c0.1-0.1,0.1-0.1,0.1-0.2c0,0,0-0.1-0.1-0.2c-0.1-0.1-0.2-0.2-0.4-0.4c-0.2-0.1-0.4-0.3-0.6-0.4
									c-0.2-0.1-0.5-0.2-0.8-0.3c-0.3-0.1-0.7-0.1-1-0.1c-0.7,0-1.2,0.2-1.6,0.7C-1049.2,282.4-1049.4,283-1049.4,283.6z
									 M-1044.9,286.1c-0.1,0.5-0.4,0.7-0.9,0.7c-0.3,0-0.6-0.1-0.8-0.2c-0.2-0.1-0.4-0.3-0.6-0.5s-0.3-0.4-0.4-0.6
									c-0.1-0.2-0.2-0.3-0.2-0.5c0-0.1-0.1-0.2-0.1-0.3c0,0,0.1,0,0.3,0c1,0,1.7,0.1,2.1,0.3S-1044.9,285.7-1044.9,286.1z"/>
							</g>
							<g transform="scale(0.707)">
								<path id="MJMATHI-61_6_" class="st20" d="M-1043.2,283.5c0,0.9,0.3,1.8,1,2.6c0.7,0.8,1.4,1.2,2.3,1.2
									c0.5,0,0.9-0.2,1.2-0.7c0.1,0.3,0.3,0.4,0.6,0.4c0.1,0,0.2,0,0.3-0.1c0.1-0.1,0.1-0.2,0.1-0.3c0-0.1-0.2-0.8-0.5-2.2
									c-0.3-1.3-0.5-2.1-0.5-2.2c0-0.2,0-0.4,0.1-0.4c0.1-0.1,0.2-0.1,0.3-0.1c0.1,0,0.2,0,0.3,0.1c0.2,0.2,0.4,0.6,0.5,1.3
									c0.1,0.2,0.1,0.3,0.1,0.3c0,0,0.1,0,0.1,0h0.1c0.2,0,0.3,0,0.3-0.1c0-0.1,0-0.2-0.1-0.4s-0.1-0.4-0.3-0.7
									c-0.1-0.3-0.3-0.5-0.4-0.7c-0.1-0.1-0.3-0.2-0.4-0.3c-0.1,0-0.2,0-0.3,0c-0.3,0-0.6,0.1-0.8,0.2s-0.3,0.3-0.4,0.4l-0.1,0.2
									c0,0,0,0-0.1,0c0,0,0,0-0.1-0.1c-0.5-0.5-1.1-0.8-1.6-0.8c-0.5,0-0.9,0.2-1.3,0.5C-1043,282.1-1043.2,282.7-1043.2,283.5z
									 M-1039,285.8c0,0.1,0,0.2-0.1,0.3s-0.1,0.3-0.3,0.5c-0.2,0.2-0.4,0.3-0.6,0.3c-0.3,0-0.6-0.1-0.9-0.4
									c-0.3-0.3-0.5-0.6-0.7-1.1c-0.3-0.7-0.4-1.4-0.5-2.2c0,0,0-0.1,0-0.1c0-0.1,0-0.1,0-0.2c0-0.4,0.1-0.7,0.2-0.8
									c0.2-0.2,0.4-0.2,0.6-0.2c0.3,0,0.7,0.1,1,0.4c0.3,0.3,0.5,0.5,0.6,0.7c0,0,0.1,0.5,0.4,1.4
									C-1039.1,285.2-1039,285.7-1039,285.8z"/>
							</g>
							<g transform="scale(0.707)">
								<path id="MJMATHI-6E_6_" class="st20" d="M-1036.3,285.2c0,0.1,0,0.1,0,0.2c0,0.1,0.1,0.3,0.2,0.5c0.1,0.3,0.2,0.5,0.3,0.6
									s0.2,0.3,0.4,0.5c0.2,0.2,0.4,0.2,0.6,0.2c0.3,0,0.6-0.1,0.8-0.2c0.2-0.2,0.3-0.3,0.4-0.5c0.1-0.1,0.1-0.2,0.1-0.3
									c0,0,0,0,0,0l0.1,0.1c0.5,0.6,1.2,0.9,1.9,0.9c0.5,0,0.9-0.1,1.2-0.4c0.3-0.2,0.4-0.6,0.5-1.1c0-0.5-0.2-1.2-0.5-2.1
									c-0.3-0.9-0.5-1.5-0.5-1.7c0-0.2,0.1-0.3,0.2-0.3c0.1,0,0.1,0,0.1,0c0.3,0,0.5,0.2,0.7,0.5c0.2,0.3,0.4,0.7,0.5,1.1
									c0,0.1,0.1,0.1,0.3,0.1c0.2,0,0.3,0,0.3-0.1c0,0,0-0.1-0.1-0.2c-0.1-0.3-0.2-0.5-0.3-0.8c-0.1-0.3-0.3-0.5-0.6-0.8
									c-0.3-0.3-0.6-0.4-0.9-0.4c-0.4,0-0.7,0.1-0.9,0.4c-0.2,0.2-0.3,0.5-0.3,0.8c0,0.2,0.2,0.7,0.5,1.6c0.3,0.9,0.5,1.6,0.5,2
									c0,0.5-0.2,0.8-0.6,0.8h-0.1c-0.8,0-1.4-0.5-1.9-1.4l-0.1-0.2l-0.4-1.8c-0.3-1.2-0.5-1.8-0.5-1.9c-0.1-0.2-0.3-0.4-0.6-0.4
									c-0.1,0-0.2,0-0.3,0.1c-0.1,0.1-0.1,0.1-0.1,0.2c0,0.1,0,0.1,0,0.1c0,0.1,0.2,0.8,0.5,2.2s0.5,2.1,0.5,2.2c0,0,0,0.1,0,0.3
									c0,0.3-0.1,0.5-0.3,0.5c-0.3,0-0.6-0.4-0.8-1.3c-0.1-0.2-0.1-0.3-0.1-0.3c0-0.1-0.1-0.1-0.3-0.1h-0.2
									C-1036.3,285.2-1036.3,285.2-1036.3,285.2z"/>
							</g>
						</g>
					</g>
				</g>
			</g>
		</g>
		<g>
			<g transform="translate(0,252.78)translate(-21.1640625,0)" pointer-events="none">
				<g transform="matrix(1 0 0 -1 0 0)">
					<g>
						<path id="MJMATHI-3B2_1_" class="st21" d="M120.3-0.6c-0.1,0.1-0.1,0.1-0.1,0.2c0,0,0.5,2.1,1.5,6.1s1.5,6.1,1.6,6.3
							c0.3,0.9,0.6,1.6,1.1,2.3s0.9,1.1,1.2,1.4c0.7,0.6,1.5,0.9,2.3,0.9h0c0.8,0,1.4-0.2,1.9-0.7c0.5-0.5,0.8-1.1,0.8-1.8
							c0-1.3-0.7-2.4-2-3.3l0.2-0.2c0.6-0.6,1-1.5,1-2.5c0-1.4-0.5-2.6-1.6-3.6c-1.1-0.9-2.3-1.4-3.6-1.4c-0.4,0-0.7,0.1-1,0.2
							c-0.3,0.1-0.5,0.2-0.7,0.4c-0.2,0.1-0.3,0.3-0.4,0.4c-0.1,0.2-0.2,0.3-0.2,0.4s-0.1,0.1-0.1,0.1l-1.2-4.8
							c0-0.1-0.2-0.1-0.4-0.1H120.3z M126.4,11.3c0.5,0,1-0.1,1.4-0.2l0.1,0.1c0.1,0.1,0.1,0.1,0.1,0.1s0.1,0.1,0.2,0.2
							c0.1,0.1,0.2,0.2,0.2,0.3s0.1,0.2,0.2,0.3c0.1,0.1,0.2,0.3,0.2,0.5c0.1,0.2,0.1,0.3,0.2,0.6s0.1,0.4,0.2,0.7
							c0,0.1,0,0.3,0,0.6c0,0.2,0,0.4,0,0.4c-0.2,0.6-0.7,1-1.4,1c-0.5,0-1-0.2-1.5-0.5c-0.5-0.3-0.8-0.7-1.2-1.2
							c-0.3-0.5-0.5-0.9-0.7-1.3c-0.2-0.4-0.3-0.8-0.4-1.1c-0.1-0.2-0.3-1.1-0.7-2.8s-0.6-2.5-0.6-2.7c0-0.1,0-0.2,0-0.4
							c0-0.6,0.1-1.1,0.4-1.5c0.4-0.5,0.9-0.8,1.6-0.8c0.5,0,1.1,0.2,1.7,0.5c0.6,0.3,1.1,0.9,1.4,1.6c0.2,0.4,0.4,0.9,0.5,1.5
							c0.1,0.5,0.2,1,0.2,1.2c0,0.7-0.2,1.3-0.7,1.8c-0.5-0.2-1-0.3-1.4-0.3h-0.2c-1,0-1.5,0.2-1.5,0.6c0,0.1,0,0.2,0.1,0.3
							C124.9,11.1,125.4,11.3,126.4,11.3z"/>
					</g>
					<g transform="translate(566,-150)">
						<g transform="scale(0.707)">
							<path id="MJMATHI-6D_7_" class="st22" d="M-435.3,154.1c0,0.1,0,0.1,0,0.2c0,0.1,0.1,0.3,0.2,0.5c0.1,0.3,0.2,0.5,0.3,0.6
								c0.1,0.2,0.2,0.3,0.4,0.5c0.2,0.2,0.4,0.2,0.6,0.2c0.2,0,0.4,0,0.6-0.1c0.2-0.1,0.3-0.1,0.4-0.2s0.2-0.2,0.2-0.3
								c0.1-0.1,0.1-0.2,0.1-0.3l0-0.1c0,0,0,0,0,0l0.1,0.1c0.5,0.6,1.2,0.9,1.9,0.9c0.2,0,0.3,0,0.4,0c0.1,0,0.2,0,0.3-0.1
								c0.1,0,0.2-0.1,0.3-0.1s0.1-0.1,0.2-0.2c0.1-0.1,0.1-0.1,0.1-0.2c0-0.1,0.1-0.1,0.1-0.2s0.1-0.1,0.1-0.2c0,0,0-0.1,0-0.1
								c0,0,0.1-0.1,0-0.1l0.1,0.1c0.6,0.7,1.2,1,2,1c0.5,0,0.9-0.1,1.2-0.4c0.3-0.2,0.4-0.6,0.5-1.1c0-0.5-0.2-1.2-0.5-2.1
								s-0.5-1.5-0.5-1.7c0-0.1,0-0.2,0.1-0.3s0.1-0.1,0.2-0.1c0.2,0,0.5,0.1,0.7,0.4c0.2,0.3,0.4,0.6,0.5,1.1
								c0,0.1,0.1,0.2,0.1,0.2s0.1,0,0.2,0c0.2,0,0.3,0,0.3-0.1c0,0,0-0.1-0.1-0.2c-0.1-0.3-0.2-0.5-0.3-0.8
								c-0.1-0.3-0.3-0.5-0.6-0.8c-0.3-0.3-0.6-0.4-0.9-0.4c-0.4,0-0.7,0.1-0.9,0.4c-0.2,0.2-0.3,0.5-0.3,0.8c0,0.2,0.2,0.7,0.5,1.6
								c0.3,0.9,0.5,1.6,0.5,2c0,0.5-0.2,0.8-0.6,0.8h-0.1c-0.8,0-1.4-0.5-1.9-1.4l-0.1-0.2l-0.4-1.8c-0.3-1.2-0.5-1.8-0.5-1.9
								c-0.1-0.2-0.3-0.4-0.6-0.4c-0.1,0-0.2,0-0.3,0.1c-0.1,0.1-0.1,0.1-0.1,0.2s0,0.1,0,0.1c0,0.1,0.2,0.7,0.5,1.9l0.5,2
								c0,0.1,0,0.3,0,0.5c0,0.5-0.2,0.8-0.6,0.8h-0.1c-0.8,0-1.4-0.5-1.9-1.4l-0.1-0.2l-0.4-1.8c-0.3-1.2-0.5-1.8-0.5-1.9
								c-0.1-0.2-0.3-0.4-0.6-0.4c-0.1,0-0.2,0-0.3,0.1c-0.1,0.1-0.1,0.1-0.1,0.2c0,0.1,0,0.1,0,0.1c0,0.1,0.2,0.9,0.5,2.2
								c0.3,1.4,0.5,2.1,0.5,2.2c0,0.1,0,0.3,0,0.4c0,0.3-0.1,0.5-0.3,0.5c-0.2,0-0.4-0.1-0.5-0.4c-0.1-0.3-0.2-0.5-0.3-0.8
								c-0.1-0.3-0.1-0.5-0.2-0.5c0,0-0.1,0-0.2,0h-0.2C-435.3,154.1-435.3,154.1-435.3,154.1z"/>
						</g>
						<g transform="scale(0.707)">
							<path id="MJMATHI-65_7_" class="st22" d="M-423.3,152.5c0,0.5,0.1,1,0.3,1.4s0.4,0.8,0.7,1c0.3,0.3,0.6,0.5,0.9,0.7
								c0.3,0.2,0.6,0.3,0.9,0.4c0.3,0.1,0.6,0.1,0.8,0.1h0c0.4,0,0.7-0.1,1-0.3c0.3-0.2,0.4-0.5,0.4-0.9c0-0.8-0.5-1.3-1.5-1.6
								c-0.4-0.1-1-0.2-1.8-0.2c-0.3,0-0.5,0-0.5,0c0,0,0-0.2-0.1-0.5c-0.1-0.3-0.1-0.6-0.1-0.8c0-0.4,0.1-0.8,0.3-1
								c0.2-0.2,0.5-0.4,0.8-0.4c0.4,0,0.8,0.1,1.2,0.3c0.5,0.2,0.9,0.5,1.2,0.9c0.1,0.1,0.1,0.1,0.2,0.1c0,0,0.1,0,0.2-0.1
								c0.1-0.1,0.1-0.1,0.1-0.2c0,0,0-0.1-0.1-0.2c-0.1-0.1-0.2-0.2-0.4-0.4c-0.2-0.1-0.4-0.3-0.6-0.4s-0.5-0.2-0.8-0.3
								c-0.3-0.1-0.7-0.1-1-0.1c-0.7,0-1.2,0.2-1.6,0.7C-423.1,151.3-423.3,151.9-423.3,152.5z M-418.9,155
								c-0.1,0.5-0.4,0.7-0.9,0.7c-0.3,0-0.6-0.1-0.8-0.2c-0.2-0.1-0.4-0.3-0.6-0.5c-0.2-0.2-0.3-0.4-0.4-0.6
								c-0.1-0.2-0.2-0.3-0.2-0.5s-0.1-0.2-0.1-0.3c0,0,0.1,0,0.3,0c1,0,1.7,0.1,2.1,0.3S-418.9,154.6-418.9,155z"/>
						</g>
						<g transform="scale(0.707)">
							<path id="MJMATHI-61_7_" class="st22" d="M-417.2,152.4c0,0.9,0.3,1.8,1,2.6c0.7,0.8,1.4,1.2,2.3,1.2c0.5,0,0.9-0.2,1.2-0.7
								c0.1,0.3,0.3,0.4,0.6,0.4c0.1,0,0.2,0,0.3-0.1c0.1-0.1,0.1-0.2,0.1-0.3c0-0.1-0.2-0.8-0.5-2.2c-0.3-1.3-0.5-2.1-0.5-2.2
								c0-0.2,0-0.4,0.1-0.4c0.1-0.1,0.2-0.1,0.3-0.1c0.1,0,0.2,0,0.3,0.1c0.2,0.2,0.4,0.6,0.5,1.3c0.1,0.2,0.1,0.3,0.1,0.3
								c0,0,0.1,0,0.1,0h0.1c0.2,0,0.3,0,0.3-0.1c0-0.1,0-0.2-0.1-0.4c0-0.2-0.1-0.4-0.3-0.7c-0.1-0.3-0.3-0.5-0.4-0.7
								c-0.1-0.1-0.3-0.2-0.4-0.3c-0.1,0-0.2,0-0.3,0c-0.3,0-0.6,0.1-0.8,0.2s-0.3,0.3-0.4,0.4l-0.1,0.2c0,0,0,0-0.1,0
								c0,0,0,0-0.1-0.1c-0.5-0.5-1.1-0.8-1.6-0.8c-0.5,0-0.9,0.2-1.3,0.5C-417,151-417.2,151.6-417.2,152.4z M-412.9,154.7
								c0,0.1,0,0.2-0.1,0.3c0,0.1-0.1,0.3-0.3,0.5c-0.2,0.2-0.4,0.3-0.6,0.3c-0.3,0-0.6-0.1-0.9-0.4c-0.3-0.3-0.5-0.6-0.7-1.1
								c-0.3-0.7-0.4-1.4-0.5-2.2c0,0,0-0.1,0-0.1s0-0.1,0-0.2c0-0.4,0.1-0.7,0.2-0.8c0.2-0.2,0.4-0.2,0.6-0.2c0.3,0,0.7,0.1,1,0.4
								c0.3,0.3,0.5,0.5,0.6,0.7c0,0,0.1,0.5,0.4,1.4C-413.1,154.1-413,154.6-412.9,154.7z"/>
						</g>
						<g transform="scale(0.707)">
							<path id="MJMATHI-6E_7_" class="st22" d="M-410.3,154.1c0,0.1,0,0.1,0,0.2c0,0.1,0.1,0.3,0.2,0.5c0.1,0.3,0.2,0.5,0.3,0.6
								c0.1,0.2,0.2,0.3,0.4,0.5c0.2,0.2,0.4,0.2,0.6,0.2c0.3,0,0.6-0.1,0.8-0.2c0.2-0.2,0.3-0.3,0.4-0.5c0.1-0.1,0.1-0.2,0.1-0.3
								c0,0,0,0,0,0l0.1,0.1c0.5,0.6,1.2,0.9,1.9,0.9c0.5,0,0.9-0.1,1.2-0.4c0.3-0.2,0.4-0.6,0.5-1.1c0-0.5-0.2-1.2-0.5-2.1
								c-0.3-0.9-0.5-1.5-0.5-1.7c0-0.2,0.1-0.3,0.2-0.3c0.1,0,0.1,0,0.1,0c0.3,0,0.5,0.2,0.7,0.5c0.2,0.3,0.4,0.7,0.5,1.1
								c0,0.1,0.1,0.1,0.3,0.1c0.2,0,0.3,0,0.3-0.1c0,0,0-0.1-0.1-0.2c-0.1-0.3-0.2-0.5-0.3-0.8c-0.1-0.3-0.3-0.5-0.6-0.8
								c-0.3-0.3-0.6-0.4-0.9-0.4c-0.4,0-0.7,0.1-0.9,0.4c-0.2,0.2-0.3,0.5-0.3,0.8c0,0.2,0.2,0.7,0.5,1.6c0.3,0.9,0.5,1.6,0.5,2
								c0,0.5-0.2,0.8-0.6,0.8h-0.1c-0.8,0-1.4-0.5-1.9-1.4l-0.1-0.2l-0.4-1.8c-0.3-1.2-0.5-1.8-0.5-1.9c-0.1-0.2-0.3-0.4-0.6-0.4
								c-0.1,0-0.2,0-0.3,0.1c-0.1,0.1-0.1,0.1-0.1,0.2c0,0.1,0,0.1,0,0.1c0,0.1,0.2,0.8,0.5,2.2c0.3,1.3,0.5,2.1,0.5,2.2
								c0,0,0,0.1,0,0.3c0,0.3-0.1,0.5-0.3,0.5c-0.3,0-0.6-0.4-0.8-1.3c-0.1-0.2-0.1-0.3-0.1-0.3c0-0.1-0.1-0.1-0.3-0.1h-0.2
								C-410.3,154.1-410.3,154.1-410.3,154.1z"/>
						</g>
					</g>
				</g>
			</g>
		</g>
		<g>
			<g transform="translate(0,177.89)translate(-21.74951171875,0)" pointer-events="none">
				<g transform="matrix(1 0 0 -1 0 0)">
					<g>
						<path id="MJMATHI-3B1_2_" class="st23" d="M119.6,0.7c0,1.4,0.5,2.7,1.6,3.8s2.3,1.6,3.6,1.6c0.9,0,1.6-0.3,2.1-0.8
							s0.9-1.1,1.1-1.9c0.1-0.4,0.1-0.8,0.1-1.3V1.7c0.6,0.9,1.1,2,1.4,3.2c0.1,0.2,0.1,0.3,0.1,0.3c0,0,0.1,0,0.3,0.1
							c0.3,0,0.4-0.1,0.4-0.2c0-0.1-0.1-0.4-0.2-0.7s-0.3-0.9-0.7-1.6s-0.7-1.3-1.2-1.9l-0.2-0.3l0-0.5c0-0.7,0.1-1.2,0.2-1.4
							c0.1-0.3,0.2-0.4,0.4-0.4c0.2,0,0.3,0.1,0.5,0.2s0.3,0.3,0.3,0.4c0,0.1,0.1,0.1,0.1,0.2c0,0,0.1,0,0.3,0
							c0.3,0,0.4-0.1,0.4-0.2c0-0.1,0-0.2-0.1-0.4c-0.2-0.3-0.4-0.5-0.7-0.7c-0.3-0.2-0.6-0.3-0.8-0.3h-0.1c-0.8,0-1.4,0.5-1.7,1.4
							l-0.1,0.1l-0.2-0.2c-0.1-0.1-0.3-0.2-0.6-0.4s-0.5-0.3-0.8-0.4s-0.7-0.3-1.1-0.4c-0.4-0.1-0.8-0.2-1.2-0.2c-1,0-1.8,0.3-2.3,1
							C119.9-0.9,119.6-0.1,119.6,0.7z M122.9-1.8c0.6,0,1.2,0.1,1.8,0.4s1.1,0.5,1.4,0.8l0.5,0.4c0,1.8-0.1,2.9-0.1,3.4
							c-0.2,1.5-0.8,2.2-1.7,2.2c-0.9,0-1.6-0.5-2.3-1.4c-0.3-0.5-0.6-1.2-0.8-2.1c-0.2-0.9-0.3-1.5-0.3-2c0-0.6,0.2-1.1,0.5-1.4
							S122.4-1.7,122.9-1.8z"/>
					</g>
					<g transform="translate(640,-150)">
						<g transform="scale(0.707)">
							<path id="MJMATHI-6D_8_" class="st24" d="M-508.7,148.8c0,0.1,0,0.1,0,0.2s0.1,0.3,0.2,0.5s0.2,0.5,0.3,0.6
								c0.1,0.2,0.2,0.3,0.4,0.5c0.2,0.2,0.4,0.2,0.6,0.2c0.2,0,0.4,0,0.6-0.1c0.2-0.1,0.3-0.1,0.4-0.2c0.1-0.1,0.2-0.2,0.2-0.3
								c0.1-0.1,0.1-0.2,0.1-0.3l0-0.1c0,0,0,0,0,0l0.1,0.1c0.5,0.6,1.2,0.9,1.9,0.9c0.2,0,0.3,0,0.4,0c0.1,0,0.2,0,0.3-0.1
								s0.2-0.1,0.3-0.1s0.1-0.1,0.2-0.2c0.1-0.1,0.1-0.1,0.1-0.2c0-0.1,0.1-0.1,0.1-0.2s0.1-0.1,0.1-0.2s0-0.1,0-0.1s0.1-0.1,0-0.1
								l0.1,0.1c0.6,0.7,1.2,1,2,1c0.5,0,0.9-0.1,1.2-0.4c0.3-0.2,0.4-0.6,0.5-1.1c0-0.5-0.2-1.2-0.5-2.1c-0.3-1-0.5-1.5-0.5-1.7
								c0-0.1,0-0.2,0.1-0.3s0.1-0.1,0.2-0.1c0.2,0,0.5,0.1,0.7,0.4c0.2,0.3,0.4,0.6,0.5,1.1c0,0.1,0.1,0.2,0.1,0.2c0,0,0.1,0,0.2,0
								c0.2,0,0.3,0,0.3-0.1c0,0,0-0.1-0.1-0.2c-0.1-0.3-0.2-0.5-0.3-0.8c-0.1-0.3-0.3-0.5-0.6-0.8c-0.3-0.3-0.6-0.4-0.9-0.4
								c-0.4,0-0.7,0.1-0.9,0.4c-0.2,0.2-0.3,0.5-0.3,0.8c0,0.2,0.2,0.7,0.5,1.6s0.5,1.6,0.5,2c0,0.5-0.2,0.8-0.6,0.8h-0.1
								c-0.8,0-1.4-0.5-1.9-1.4l-0.1-0.2l-0.4-1.8c-0.3-1.2-0.5-1.8-0.5-1.9c-0.1-0.2-0.3-0.4-0.6-0.4c-0.1,0-0.2,0-0.3,0.1
								c-0.1,0.1-0.1,0.1-0.1,0.2s0,0.1,0,0.1c0,0.1,0.2,0.7,0.5,1.9l0.5,2c0,0.1,0,0.3,0,0.5c0,0.5-0.2,0.8-0.6,0.8h-0.1
								c-0.8,0-1.4-0.5-1.9-1.4l-0.1-0.2l-0.4-1.8c-0.3-1.2-0.5-1.8-0.5-1.9c-0.1-0.2-0.3-0.4-0.6-0.4c-0.1,0-0.2,0-0.3,0.1
								c-0.1,0.1-0.1,0.1-0.1,0.2s0,0.1,0,0.1c0,0.1,0.2,0.9,0.5,2.2c0.3,1.4,0.5,2.1,0.5,2.2c0,0.1,0,0.3,0,0.4
								c0,0.3-0.1,0.5-0.3,0.5c-0.2,0-0.4-0.1-0.5-0.4s-0.2-0.5-0.3-0.8c-0.1-0.3-0.1-0.5-0.2-0.5c0,0-0.1,0-0.2,0h-0.2
								C-508.7,148.7-508.7,148.7-508.7,148.8z"/>
						</g>
						<g transform="scale(0.707)">
							<path id="MJMATHI-65_8_" class="st24" d="M-496.7,147.2c0,0.5,0.1,1,0.3,1.4s0.4,0.8,0.7,1s0.6,0.5,0.9,0.7s0.6,0.3,0.9,0.4
								c0.3,0.1,0.6,0.1,0.8,0.1h0c0.4,0,0.7-0.1,1-0.3c0.3-0.2,0.4-0.5,0.4-0.9c0-0.8-0.5-1.3-1.5-1.6c-0.4-0.1-1-0.2-1.8-0.2
								c-0.3,0-0.5,0-0.5,0c0,0,0-0.2-0.1-0.5c-0.1-0.3-0.1-0.6-0.1-0.8c0-0.4,0.1-0.8,0.3-1c0.2-0.2,0.5-0.4,0.8-0.4
								c0.4,0,0.8,0.1,1.2,0.3c0.5,0.2,0.9,0.5,1.2,0.9c0.1,0.1,0.1,0.1,0.2,0.1c0,0,0.1,0,0.2-0.1s0.1-0.1,0.1-0.2s0-0.1-0.1-0.2
								s-0.2-0.2-0.4-0.4c-0.2-0.1-0.4-0.3-0.6-0.4c-0.2-0.1-0.5-0.2-0.8-0.3s-0.7-0.1-1-0.1c-0.7,0-1.2,0.2-1.6,0.7
								C-496.5,145.9-496.7,146.5-496.7,147.2z M-492.3,149.6c-0.1,0.5-0.4,0.7-0.9,0.7c-0.3,0-0.6-0.1-0.8-0.2s-0.4-0.3-0.6-0.5
								c-0.2-0.2-0.3-0.4-0.4-0.6c-0.1-0.2-0.2-0.3-0.2-0.5c0-0.1-0.1-0.2-0.1-0.3c0,0,0.1,0,0.3,0c1,0,1.7,0.1,2.1,0.3
								C-492.5,148.9-492.3,149.2-492.3,149.6z"/>
						</g>
						<g transform="scale(0.707)">
							<path id="MJMATHI-61_8_" class="st24" d="M-490.6,147c0,0.9,0.3,1.8,1,2.6c0.7,0.8,1.4,1.2,2.3,1.2c0.5,0,0.9-0.2,1.2-0.7
								c0.1,0.3,0.3,0.4,0.6,0.4c0.1,0,0.2,0,0.3-0.1c0.1-0.1,0.1-0.2,0.1-0.3c0-0.1-0.2-0.8-0.5-2.2c-0.3-1.3-0.5-2.1-0.5-2.2
								c0-0.2,0-0.4,0.1-0.4c0.1-0.1,0.2-0.1,0.3-0.1c0.1,0,0.2,0,0.3,0.1c0.2,0.2,0.4,0.6,0.5,1.3c0.1,0.2,0.1,0.3,0.1,0.3
								c0,0,0.1,0,0.1,0h0.1c0.2,0,0.3,0,0.3-0.1c0-0.1,0-0.2-0.1-0.4s-0.1-0.4-0.3-0.7c-0.1-0.3-0.3-0.5-0.4-0.7
								c-0.1-0.1-0.3-0.2-0.4-0.3c-0.1,0-0.2,0-0.3,0c-0.3,0-0.6,0.1-0.8,0.2c-0.2,0.1-0.3,0.3-0.4,0.4l-0.1,0.2c0,0,0,0-0.1,0
								c0,0,0,0-0.1-0.1c-0.5-0.5-1.1-0.8-1.6-0.8c-0.5,0-0.9,0.2-1.3,0.5C-490.4,145.7-490.6,146.2-490.6,147z M-486.4,149.3
								c0,0.1,0,0.2-0.1,0.3c0,0.1-0.1,0.3-0.3,0.5s-0.4,0.3-0.6,0.3c-0.3,0-0.6-0.1-0.9-0.4c-0.3-0.3-0.5-0.6-0.7-1.1
								c-0.3-0.7-0.4-1.4-0.5-2.2c0,0,0-0.1,0-0.1s0-0.1,0-0.2c0-0.4,0.1-0.7,0.2-0.8s0.4-0.2,0.6-0.2c0.3,0,0.7,0.1,1,0.4
								c0.3,0.3,0.5,0.5,0.6,0.7c0,0,0.1,0.5,0.4,1.4C-486.5,148.7-486.4,149.2-486.4,149.3z"/>
						</g>
						<g transform="scale(0.707)">
							<path id="MJMATHI-6E_8_" class="st24" d="M-483.7,148.8c0,0.1,0,0.1,0,0.2s0.1,0.3,0.2,0.5c0.1,0.3,0.2,0.5,0.3,0.6
								c0.1,0.2,0.2,0.3,0.4,0.5c0.2,0.2,0.4,0.2,0.6,0.2c0.3,0,0.6-0.1,0.8-0.2c0.2-0.2,0.3-0.3,0.4-0.5c0.1-0.1,0.1-0.2,0.1-0.3
								c0,0,0,0,0,0l0.1,0.1c0.5,0.6,1.2,0.9,1.9,0.9c0.5,0,0.9-0.1,1.2-0.4c0.3-0.2,0.4-0.6,0.5-1.1s-0.2-1.2-0.5-2.1
								c-0.3-0.9-0.5-1.5-0.5-1.7c0-0.2,0.1-0.3,0.2-0.3c0.1,0,0.1,0,0.1,0c0.3,0,0.5,0.2,0.7,0.5s0.4,0.7,0.5,1.1
								c0,0.1,0.1,0.1,0.3,0.1c0.2,0,0.3,0,0.3-0.1c0,0,0-0.1-0.1-0.2c-0.1-0.3-0.2-0.5-0.3-0.8s-0.3-0.5-0.6-0.8s-0.6-0.4-0.9-0.4
								c-0.4,0-0.7,0.1-0.9,0.4c-0.2,0.2-0.3,0.5-0.3,0.8c0,0.2,0.2,0.7,0.5,1.6c0.3,0.9,0.5,1.6,0.5,2c0,0.5-0.2,0.8-0.6,0.8h-0.1
								c-0.8,0-1.4-0.5-1.9-1.4l-0.1-0.2l-0.4-1.8c-0.3-1.2-0.5-1.8-0.5-1.9c-0.1-0.2-0.3-0.4-0.6-0.4c-0.1,0-0.2,0-0.3,0.1
								c-0.1,0.1-0.1,0.1-0.1,0.2s0,0.1,0,0.1c0,0.1,0.2,0.8,0.5,2.2c0.3,1.3,0.5,2.1,0.5,2.2c0,0,0,0.1,0,0.3
								c0,0.3-0.1,0.5-0.3,0.5c-0.3,0-0.6-0.4-0.8-1.3c-0.1-0.2-0.1-0.3-0.1-0.3c0-0.1-0.1-0.1-0.3-0.1h-0.2
								C-483.7,148.7-483.7,148.7-483.7,148.8z"/>
						</g>
					</g>
				</g>
			</g>
		</g>
		<g>
			<g transform="translate(0,103)translate(-34.25146484375,0)" pointer-events="none">
				<g transform="matrix(1 0 0 -1 0 0)">
					<g>
						<path id="MJMATHI-50_3_" class="st25" d="M111.5,8.6c0,0.1-0.4,0.1-1.1,0.2c-0.3,0-0.5,0-0.6,0c-0.1,0-0.1,0.1-0.1,0.2
							c0,0,0,0.1,0,0.2c0.1,0.3,0.1,0.4,0.2,0.4s1.3,0,3.7,0c2.4,0,3.7,0,3.8-0.1c0.8-0.1,1.5-0.5,2-0.9c0.5-0.5,0.8-1.1,0.8-1.9
							c0-1-0.4-1.9-1.2-2.7c-0.9-0.9-2-1.4-3.4-1.6c-0.1,0-0.7,0-2,0h-1.8l-0.6-2.3c-0.4-1.5-0.6-2.3-0.6-2.3c0-0.1,0-0.1,0-0.1
							s0.1,0,0.1-0.1c0.1,0,0.2-0.1,0.3,0c0.1,0,0.3,0,0.6,0h0.6c0.1-0.1,0.1-0.2,0.1-0.2c0-0.2,0-0.4-0.1-0.6
							c-0.1-0.1-0.2-0.1-0.3-0.1c0,0-0.3,0-0.7,0c-0.4,0-1.1,0-1.9,0c-0.8,0-1.4,0-1.8,0s-0.6,0-0.7,0c-0.2,0-0.3,0.1-0.3,0.2
							c0,0,0,0.1,0.1,0.3c0.1,0.2,0.1,0.3,0.2,0.3c0.1,0,0.2,0,0.4,0.1c0.3,0,0.7,0,1.1,0.1c0.2,0,0.3,0.1,0.4,0.2
							c0,0.1,0.5,1.8,1.4,5.3C111.1,6.6,111.5,8.4,111.5,8.6z M118.3,7.2c0,0.2,0,0.3,0,0.4c0,0.1-0.1,0.2-0.2,0.4
							c-0.1,0.2-0.2,0.3-0.5,0.4s-0.5,0.2-0.9,0.3c-0.1,0-0.6,0-1.5,0c-0.2,0-0.4,0-0.7,0s-0.4,0-0.5,0c-0.1,0-0.2,0-0.2,0
							c-0.2,0-0.3-0.1-0.3-0.2c0-0.1-0.1-0.6-0.4-1.5s-0.4-1.8-0.7-2.6S112,3.2,112,3.2c0,0,0.5,0,1.5,0h0.2h0.4c1.4,0,2.4,0.3,3,1
							c0.3,0.3,0.6,0.8,0.8,1.5C118.2,6.3,118.3,6.8,118.3,7.2z"/>
					</g>
					<g>
						<path id="MJMATHI-45_4_" class="st25" d="M129.5,0.7c-0.3,0-0.4,0.1-0.4,0.2c0,0.1,0,0.2,0.1,0.5c0.1,0.3,0.1,0.5,0.1,0.7
							c0,0.4-0.1,0.6-0.4,0.7c-0.3,0.1-0.9,0.1-1.8,0.1h-1c0,0-0.2-0.9-0.7-2.6s-0.6-2.6-0.6-2.7s0.1-0.1,0.2-0.1s0.6,0,1.5,0
							c1.2,0,2,0,2.3,0c0.4,0,0.8,0.1,1.1,0.2c0.6,0.2,1.1,0.6,1.5,1.1s0.8,1.3,1.3,2.5c0.1,0.3,0.2,0.4,0.2,0.5c0.1,0,0.2,0,0.3,0
							c0.3,0,0.4-0.1,0.4-0.2c-1.3-3.2-2-4.9-2.1-4.9c0,0-1.8,0-5.4,0h-3.6c-1.3,0-1.9,0.1-1.9,0.2c0,0,0,0.1,0.1,0.3
							c0.1,0.2,0.1,0.3,0.2,0.3c0.1,0,0.2,0,0.4,0.1c0.3,0,0.7,0,1.1,0.1c0.2,0,0.3,0.1,0.4,0.2c0,0.1,0.5,1.8,1.3,5.3
							s1.3,5.3,1.3,5.3c0,0.1,0,0.1-0.1,0.1c-0.1,0-0.4,0.1-1,0.1H124c-0.1,0.1-0.1,0.1-0.1,0.2c0,0,0,0.1,0,0.3
							c0.1,0.2,0.1,0.3,0.2,0.4h10.4c0.1-0.1,0.1-0.1,0.1-0.2c0-0.1-0.1-0.8-0.2-2.1c-0.2-1.4-0.3-2.1-0.3-2.1
							c0-0.1-0.2-0.1-0.4-0.1h-0.2c-0.1,0.1-0.1,0.1-0.1,0.2l0.1,0.4c0,0.3,0.1,0.6,0.1,1c0,0.4,0,0.7-0.1,1
							c-0.1,0.3-0.2,0.5-0.4,0.6c-0.2,0.1-0.4,0.2-0.7,0.3c-0.3,0.1-0.6,0.1-0.9,0.1s-0.7,0-1.2,0h-0.9c-1.1,0-1.7,0-1.8-0.1
							c-0.1,0-0.1-0.1-0.1-0.2c0,0-0.2-0.8-0.6-2.3s-0.6-2.3-0.6-2.3c0.3,0,0.6,0,0.9,0h0.5c0.8,0,1.4,0.1,1.7,0.3
							c0.3,0.2,0.6,0.7,0.8,1.5c0.1,0.2,0.1,0.3,0.1,0.3c0,0,0.1,0,0.3,0.1c0.1,0,0.1,0,0.2,0c0,0,0.1,0,0.1,0c0,0,0,0,0,0
							s0,0,0-0.1c0-0.1,0-0.1,0.1-0.1l-0.6-2.5c-0.4-1.7-0.6-2.5-0.7-2.6C129.8,0.7,129.7,0.7,129.5,0.7z"/>
					</g>
					<g transform="translate(1516,0)">
						<g>
							<path id="MJMATHI-3B8_1_" class="st25" d="M-1380.7,0.4c0,1.3,0.2,2.7,0.7,4.1s1.2,2.7,2,3.7s1.7,1.6,2.6,1.8
								c0,0,0.1,0,0.2,0s0.2,0,0.2,0c0.7-0.1,1.2-0.4,1.6-0.9c0.5-0.8,0.7-1.8,0.7-3.1c0-1.5-0.3-2.9-0.8-4.4s-1.3-2.7-2.2-3.7
								s-1.7-1.4-2.5-1.4h-0.1c-0.5,0-0.8,0.1-1.2,0.4s-0.6,0.6-0.7,1s-0.3,0.8-0.4,1.3S-1380.7,0-1380.7,0.4z M-1374.1,7.4
								c0,1.3-0.3,1.9-1,1.9c-0.5,0-0.9-0.3-1.3-0.9s-0.8-1.2-1.1-1.9s-0.5-1.4-0.6-1.9s-0.2-0.9-0.2-1c0.6,0,1.2,0,1.8,0l1.8,0
								c0,0,0.1,0.2,0.2,0.6s0.2,0.9,0.3,1.5S-1374.1,7-1374.1,7.4z M-1379.2-0.9c0-1.3,0.3-2,1-2c0.2,0,0.4,0.1,0.6,0.2
								c0.2,0.1,0.5,0.4,0.8,0.7s0.6,0.9,0.9,1.7s0.6,1.7,0.9,2.8l0.1,0.3h-3.7c0,0-0.1-0.3-0.2-0.7s-0.2-0.9-0.3-1.5
								S-1379.2-0.4-1379.2-0.9z"/>
						</g>
						<g transform="translate(469,-150)">
							<g transform="scale(0.707)">
								<path id="MJMATHI-6D_9_" class="st26" d="M-1841.2,147.6c0,0.1,0,0.1,0,0.2c0,0.1,0.1,0.3,0.2,0.5s0.2,0.5,0.3,0.6
									c0.1,0.2,0.2,0.3,0.4,0.5c0.2,0.2,0.4,0.2,0.6,0.2c0.2,0,0.4,0,0.6-0.1c0.2-0.1,0.3-0.1,0.4-0.2c0.1-0.1,0.2-0.2,0.2-0.3
									c0.1-0.1,0.1-0.2,0.1-0.3l0-0.1c0,0,0,0,0,0l0.1,0.1c0.5,0.6,1.2,0.9,1.9,0.9c0.2,0,0.3,0,0.4,0c0.1,0,0.2,0,0.3-0.1
									c0.1,0,0.2-0.1,0.3-0.1c0.1,0,0.1-0.1,0.2-0.2c0.1-0.1,0.1-0.1,0.1-0.2c0-0.1,0.1-0.1,0.1-0.2c0.1-0.1,0.1-0.1,0.1-0.2
									s0-0.1,0-0.1c0,0,0.1-0.1,0-0.1l0.1,0.1c0.6,0.7,1.2,1,2,1c0.5,0,0.9-0.1,1.2-0.4c0.3-0.2,0.4-0.6,0.5-1.1
									c0-0.5-0.2-1.2-0.5-2.1c-0.3-1-0.5-1.5-0.5-1.7c0-0.1,0-0.2,0.1-0.3c0,0,0.1-0.1,0.2-0.1c0.2,0,0.5,0.1,0.7,0.4
									s0.4,0.6,0.5,1.1c0,0.1,0.1,0.2,0.1,0.2c0,0,0.1,0,0.2,0c0.2,0,0.3,0,0.3-0.1c0,0,0-0.1-0.1-0.2c-0.1-0.3-0.2-0.5-0.3-0.8
									c-0.1-0.3-0.3-0.5-0.6-0.8s-0.6-0.4-0.9-0.4c-0.4,0-0.7,0.1-0.9,0.4c-0.2,0.2-0.3,0.5-0.3,0.8c0,0.2,0.2,0.7,0.5,1.6
									c0.3,0.9,0.5,1.6,0.5,2c0,0.5-0.2,0.8-0.6,0.8h-0.1c-0.8,0-1.4-0.5-1.9-1.4l-0.1-0.2l-0.4-1.8c-0.3-1.2-0.5-1.8-0.5-1.9
									c-0.1-0.2-0.3-0.4-0.6-0.4c-0.1,0-0.2,0-0.3,0.1c-0.1,0.1-0.1,0.1-0.1,0.2c0,0,0,0.1,0,0.1c0,0.1,0.2,0.7,0.5,1.9l0.5,2
									c0,0.1,0,0.3,0,0.5c0,0.5-0.2,0.8-0.6,0.8h-0.1c-0.8,0-1.4-0.5-1.9-1.4l-0.1-0.2l-0.4-1.8c-0.3-1.2-0.5-1.8-0.5-1.9
									c-0.1-0.2-0.3-0.4-0.6-0.4c-0.1,0-0.2,0-0.3,0.1s-0.1,0.1-0.1,0.2c0,0.1,0,0.1,0,0.1c0,0.1,0.2,0.9,0.5,2.2
									c0.3,1.4,0.5,2.1,0.5,2.2c0,0.1,0,0.3,0,0.4c0,0.3-0.1,0.5-0.3,0.5c-0.2,0-0.4-0.1-0.5-0.4s-0.2-0.5-0.3-0.8
									c-0.1-0.3-0.1-0.5-0.2-0.5c0,0-0.1,0-0.2,0h-0.2C-1841.2,147.6-1841.2,147.6-1841.2,147.6z"/>
							</g>
							<g transform="scale(0.707)">
								<path id="MJMATHI-65_9_" class="st26" d="M-1829.2,146c0,0.5,0.1,1,0.3,1.4s0.4,0.8,0.7,1c0.3,0.3,0.6,0.5,0.9,0.7
									c0.3,0.2,0.6,0.3,0.9,0.4c0.3,0.1,0.6,0.1,0.8,0.1h0c0.4,0,0.7-0.1,1-0.3s0.4-0.5,0.4-0.9c0-0.8-0.5-1.3-1.5-1.6
									c-0.4-0.1-1-0.2-1.8-0.2c-0.3,0-0.5,0-0.5,0c0,0,0-0.2-0.1-0.5c-0.1-0.3-0.1-0.6-0.1-0.8c0-0.4,0.1-0.8,0.3-1
									c0.2-0.2,0.5-0.4,0.8-0.4c0.4,0,0.8,0.1,1.2,0.3s0.9,0.5,1.2,0.9c0.1,0.1,0.1,0.1,0.2,0.1c0,0,0.1,0,0.2-0.1
									c0.1-0.1,0.1-0.1,0.1-0.2s0-0.1-0.1-0.2s-0.2-0.2-0.4-0.4c-0.2-0.1-0.4-0.3-0.6-0.4c-0.2-0.1-0.5-0.2-0.8-0.3
									c-0.3-0.1-0.7-0.1-1-0.1c-0.7,0-1.2,0.2-1.6,0.7C-1829,144.8-1829.2,145.4-1829.2,146z M-1824.8,148.5
									c-0.1,0.5-0.4,0.7-0.9,0.7c-0.3,0-0.6-0.1-0.8-0.2s-0.4-0.3-0.6-0.5s-0.3-0.4-0.4-0.6c-0.1-0.2-0.2-0.3-0.2-0.5
									c0-0.1-0.1-0.2-0.1-0.3c0,0,0.1,0,0.3,0c1,0,1.7,0.1,2.1,0.3C-1825,147.8-1824.8,148.1-1824.8,148.5z"/>
							</g>
							<g transform="scale(0.707)">
								<path id="MJMATHI-61_9_" class="st26" d="M-1823.1,145.9c0,0.9,0.3,1.8,1,2.6c0.7,0.8,1.4,1.2,2.3,1.2
									c0.5,0,0.9-0.2,1.2-0.7c0.1,0.3,0.3,0.4,0.6,0.4c0.1,0,0.2,0,0.3-0.1s0.1-0.2,0.1-0.3c0-0.1-0.2-0.8-0.5-2.2
									c-0.3-1.3-0.5-2.1-0.5-2.2c0-0.2,0-0.4,0.1-0.4c0.1-0.1,0.2-0.1,0.3-0.1c0.1,0,0.2,0,0.3,0.1c0.2,0.2,0.4,0.6,0.5,1.3
									c0.1,0.2,0.1,0.3,0.1,0.3c0,0,0.1,0,0.1,0h0.1c0.2,0,0.3,0,0.3-0.1c0-0.1,0-0.2-0.1-0.4c0-0.2-0.1-0.4-0.3-0.7
									c-0.1-0.3-0.3-0.5-0.4-0.7c-0.1-0.1-0.3-0.2-0.4-0.3c-0.1,0-0.2,0-0.3,0c-0.3,0-0.6,0.1-0.8,0.2c-0.2,0.1-0.3,0.3-0.4,0.4
									l-0.1,0.2c0,0,0,0-0.1,0c0,0,0,0-0.1-0.1c-0.5-0.5-1.1-0.8-1.6-0.8c-0.5,0-0.9,0.2-1.3,0.5
									C-1822.9,144.5-1823.1,145.1-1823.1,145.9z M-1818.9,148.2c0,0.1,0,0.2-0.1,0.3c0,0.1-0.1,0.3-0.3,0.5
									c-0.2,0.2-0.4,0.3-0.6,0.3c-0.3,0-0.6-0.1-0.9-0.4c-0.3-0.3-0.5-0.6-0.7-1.1c-0.3-0.7-0.4-1.4-0.5-2.2c0,0,0-0.1,0-0.1
									s0-0.1,0-0.2c0-0.4,0.1-0.7,0.2-0.8c0.2-0.2,0.4-0.2,0.6-0.2c0.3,0,0.7,0.1,1,0.4s0.5,0.5,0.6,0.7c0,0,0.1,0.5,0.4,1.4
									C-1819,147.6-1818.9,148.1-1818.9,148.2z"/>
							</g>
							<g transform="scale(0.707)">
								<path id="MJMATHI-6E_9_" class="st26" d="M-1816.2,147.6c0,0.1,0,0.1,0,0.2c0,0.1,0.1,0.3,0.2,0.5s0.2,0.5,0.3,0.6
									c0.1,0.2,0.2,0.3,0.4,0.5c0.2,0.2,0.4,0.2,0.6,0.2c0.3,0,0.6-0.1,0.8-0.2c0.2-0.2,0.3-0.3,0.4-0.5c0.1-0.1,0.1-0.2,0.1-0.3
									c0,0,0,0,0,0l0.1,0.1c0.5,0.6,1.2,0.9,1.9,0.9c0.5,0,0.9-0.1,1.2-0.4c0.3-0.2,0.4-0.6,0.5-1.1c0-0.5-0.2-1.2-0.5-2.1
									s-0.5-1.5-0.5-1.7c0-0.2,0.1-0.3,0.2-0.3c0.1,0,0.1,0,0.1,0c0.3,0,0.5,0.2,0.7,0.5c0.2,0.3,0.4,0.7,0.5,1.1
									c0,0.1,0.1,0.1,0.3,0.1c0.2,0,0.3,0,0.3-0.1c0,0,0-0.1-0.1-0.2c-0.1-0.3-0.2-0.5-0.3-0.8c-0.1-0.3-0.3-0.5-0.6-0.8
									c-0.3-0.3-0.6-0.4-0.9-0.4c-0.4,0-0.7,0.1-0.9,0.4c-0.2,0.2-0.3,0.5-0.3,0.8c0,0.2,0.2,0.7,0.5,1.6c0.3,0.9,0.5,1.6,0.5,2
									c0,0.5-0.2,0.8-0.6,0.8h-0.1c-0.8,0-1.4-0.5-1.9-1.4l-0.1-0.2l-0.4-1.8c-0.3-1.2-0.5-1.8-0.5-1.9c-0.1-0.2-0.3-0.4-0.6-0.4
									c-0.1,0-0.2,0-0.3,0.1s-0.1,0.1-0.1,0.2c0,0.1,0,0.1,0,0.1c0,0.1,0.2,0.8,0.5,2.2c0.3,1.3,0.5,2.1,0.5,2.2c0,0,0,0.1,0,0.3
									c0,0.3-0.1,0.5-0.3,0.5c-0.3,0-0.6-0.4-0.8-1.3c-0.1-0.2-0.1-0.3-0.1-0.3c0-0.1-0.1-0.1-0.3-0.1h-0.2
									C-1816.2,147.6-1816.2,147.6-1816.2,147.6z"/>
							</g>
						</g>
					</g>
				</g>
			</g>
		</g>
	</g>
</g>
<g>
	<g>
		<text transform="matrix(1 0 0 1 260.8789 876.8)" class="st5 st27">Feature Importance</text>
	</g>
	<g transform="translate(9.1162109375,0)">
		<text transform="matrix(6.123234e-17 -1 1 6.123234e-17 11.8836 479.9846)" class="st5 st27">Markers</text>
	</g>
</g>
</svg>
