<?xml version="1.0" encoding="utf-8"?>
<!-- Generator: Adobe Illustrator 24.0.2, SVG Export Plug-In . SVG Version: 6.00 Build 0)  -->
<svg version="1.1" id="Layer_1" focusable="false" xmlns="http://www.w3.org/2000/svg" xmlns:xlink="http://www.w3.org/1999/xlink"
	 x="0px" y="0px" viewBox="0 0 800 800" style="enable-background:new 0 0 800 800;" xml:space="preserve">
<style type="text/css">
	.st0{fill:#FFFFFF;}
	.st1{fill:none;stroke:#EBF0F8;}
	.st2{clip-path:url(#SVGID_4_);fill:none;stroke:#808080;stroke-width:2;stroke-miterlimit:2;stroke-dasharray:9,9;}
	.st3{fill:#808080;}
	.st4{clip-path:url(#SVGID_6_);}
	.st5{fill:#F38A31;fill-opacity:0.2;}
	.st6{clip-path:url(#SVGID_8_);fill:none;stroke:#F38A31;stroke-width:2;stroke-miterlimit:2;}
	.st7{fill:none;stroke:#F38A31;stroke-miterlimit:2;}
	.st8{clip-path:url(#SVGID_10_);}
	.st9{fill:#9AC529;fill-opacity:0.2;}
	.st10{clip-path:url(#SVGID_12_);fill:none;stroke:#9AC529;stroke-width:2;stroke-miterlimit:2;}
	.st11{fill:none;stroke:#9AC529;stroke-miterlimit:2;}
	.st12{fill:#9AC529;}
	.st13{clip-path:url(#SVGID_14_);}
	.st14{fill:#42B9B2;fill-opacity:0.2;}
	.st15{clip-path:url(#SVGID_16_);fill:none;stroke:#42B9B2;stroke-width:2;stroke-miterlimit:2;}
	.st16{fill:#42B9B2;}
	.st17{display:none;fill:#42B9B2;}
	.st18{fill:none;stroke:#42B9B2;stroke-miterlimit:2;}
	.st19{clip-path:url(#SVGID_18_);}
	.st20{fill:#DE237B;fill-opacity:0.2;}
	.st21{clip-path:url(#SVGID_20_);fill:none;stroke:#DE237B;stroke-width:2;stroke-miterlimit:2;}
	.st22{fill:none;stroke:#DE237B;stroke-miterlimit:2;}
	.st23{fill:#DE237B;}
	.st24{stroke:#000000;stroke-width:1.393593e-02;stroke-miterlimit:10;}
	.st25{stroke:#000000;stroke-width:9.852702e-03;stroke-miterlimit:10;}
	.st26{stroke:#000000;stroke-width:1.393612e-02;stroke-miterlimit:10;}
	.st27{stroke:#000000;stroke-width:9.852837e-03;stroke-miterlimit:10;}
	.st28{stroke:#000000;stroke-width:1.393520e-02;stroke-miterlimit:10;}
	.st29{stroke:#000000;stroke-width:9.852188e-03;stroke-miterlimit:10;}
	.st30{stroke:#000000;stroke-width:1.393561e-02;stroke-miterlimit:10;}
	.st31{stroke:#000000;stroke-width:9.852479e-03;stroke-miterlimit:10;}
	.st32{stroke:#000000;stroke-width:1.393551e-02;stroke-miterlimit:10;}
	.st33{stroke:#000000;stroke-width:9.852404e-03;stroke-miterlimit:10;}
	.st34{stroke:#000000;stroke-width:1.393572e-02;stroke-miterlimit:10;}
	.st35{stroke:#000000;stroke-width:9.852555e-03;stroke-miterlimit:10;}
	.st36{font-family:'TimesNewRomanPSMT';}
	.st37{font-size:12px;}
	.st38{clip-path:url(#SVGID_22_);}
	.st39{font-size:25px;}
	.st40{fill:none;stroke:#808080;stroke-width:2;stroke-dasharray:9,9;}
	.st41{fill-opacity:0;}
	.st42{fill:none;stroke:#F38A31;stroke-width:2;}
	.st43{fill:none;stroke:#F38A31;}
	.st44{fill:none;stroke:#9AC529;stroke-width:2;}
	.st45{fill:none;stroke:#9AC529;}
	.st46{fill:none;stroke:#42B9B2;stroke-width:2;}
	.st47{fill:none;stroke:#DE237B;stroke-width:2;}
	.st48{fill:none;stroke:#DE237B;}
	.st49{fill:#808BA4;}
	.st50{font-size:15px;}
</style>
<rect y="0" class="st0" width="800" height="800"/>
<g>
	<g>
		<g>
			<path class="st0" d="M525.3,409.5c0-121.8-98.7-220.5-220.5-220.5S84.3,287.7,84.3,409.5S183,630,304.8,630
				S525.3,531.2,525.3,409.5z"/>
		</g>
		<g>
			<path class="st1" d="M304.8,409.5h220.5"/>
			<path class="st1" d="M304.8,409.5l110.2-191"/>
			<path class="st1" d="M304.8,409.5l-110.2-191"/>
			<path class="st1" d="M304.8,409.5H84.3"/>
			<path class="st1" d="M304.8,409.5l-110.2,191"/>
			<path class="st1" d="M304.8,409.5l110.2,191"/>
		</g>
		<g transform="translate(300.5,409.99999999999994)">
			<path class="st1" d="M37.7-0.5C37.7-19,22.8-34,4.3-34S-29.1-19-29.1-0.6c0,0,0,0,0,0c0,18.5,15,33.4,33.4,33.4
				S37.7,17.9,37.7-0.5C37.7-0.5,37.7-0.5,37.7-0.5z"/>
			<path class="st1" d="M71.1-0.5c0-36.9-29.9-66.8-66.8-66.8S-62.5-37.5-62.5-0.6c0,0,0,0,0,0c0,36.9,29.9,66.8,66.8,66.8
				S71.1,36.4,71.1-0.5C71.1-0.5,71.1-0.5,71.1-0.5z"/>
			<path class="st1" d="M104.5-0.5c0-55.4-44.9-100.2-100.2-100.2C-51-100.8-95.9-55.9-95.9-0.6c0,0,0,0,0,0
				c0,55.4,44.9,100.2,100.2,100.2C59.6,99.7,104.5,54.8,104.5-0.5C104.5-0.5,104.5-0.5,104.5-0.5z"/>
			<path class="st1" d="M137.9-0.5c0-73.8-59.8-133.7-133.6-133.7S-129.3-74.4-129.3-0.6c0,0,0,0,0,0.1
				c0,73.8,59.8,133.7,133.6,133.7S137.9,73.3,137.9-0.5C137.9-0.5,137.9-0.5,137.9-0.5z"/>
			<path class="st1" d="M171.4-0.5c0-92.3-74.8-167.1-167.1-167.1S-162.7-92.8-162.7-0.5S-88,166.5,4.3,166.5S171.4,91.7,171.4-0.5z
				"/>
			<path class="st1" d="M204.8-0.5C204.8-111.2,115.1-201,4.3-201S-196.1-111.3-196.1-0.6c0,0,0,0.1,0,0.1
				c0,110.7,89.7,200.5,200.4,200.5S204.7,110.2,204.8-0.5C204.8-0.5,204.8-0.5,204.8-0.5z"/>
		</g>
		<g transform="translate(80,189.49999999999994)">
			<g>
				<g>
					<g>
						<defs>
							<circle id="SVGID_1_" cx="224.8" cy="220" r="220.5"/>
						</defs>
						<clipPath id="SVGID_2_">
							<use xlink:href="#SVGID_1_"  style="overflow:visible;"/>
						</clipPath>
					</g>
					<g>
						<g>
							<defs>
								<circle id="SVGID_3_" cx="224.8" cy="220" r="220.5"/>
							</defs>
							<clipPath id="SVGID_4_">
								<use xlink:href="#SVGID_3_"  style="overflow:visible;"/>
							</clipPath>
							<path class="st2" d="M325,220l-50.1-86.8H174.7L124.6,220l50.1,86.8h100.2"/>
						</g>
					</g>
					<g>
						<path class="st3" d="M328,220c0,1.7-1.3,3-3,3c-1.7,0-3-1.3-3-3c0-1.7,1.3-3,3-3C326.7,217,328,218.3,328,220z"/>
						<path class="st3" d="M277.9,133.2c0,1.7-1.3,3-3,3c-1.7,0-3-1.3-3-3c0-1.7,1.3-3,3-3C276.6,130.2,277.9,131.5,277.9,133.2z"/>
						<path class="st3" d="M177.7,133.2c0,1.7-1.3,3-3,3c-1.7,0-3-1.3-3-3c0-1.7,1.3-3,3-3C176.3,130.2,177.7,131.5,177.7,133.2z"/>
						<path class="st3" d="M127.6,220c0,1.7-1.3,3-3,3c-1.7,0-3-1.3-3-3c0-1.7,1.3-3,3-3C126.2,217,127.6,218.3,127.6,220z"/>
						<path class="st3" d="M177.7,306.8c0,1.7-1.3,3-3,3c-1.7,0-3-1.3-3-3c0-1.7,1.3-3,3-3C176.3,303.8,177.7,305.1,177.7,306.8z"/>
						<path class="st3" d="M277.9,306.8c0,1.7-1.3,3-3,3c-1.7,0-3-1.3-3-3c0-1.7,1.3-3,3-3C276.6,303.8,277.9,305.1,277.9,306.8z"/>
					</g>
				</g>
				<g>
					<g>
						<defs>
							<circle id="SVGID_5_" cx="224.8" cy="220" r="220.5"/>
						</defs>
						<clipPath id="SVGID_6_">
							<use xlink:href="#SVGID_5_"  style="overflow:visible;"/>
						</clipPath>
						<g class="st4">
							<g>
								<path class="st5" d="M342.5,220l-82.8-60.5L151.4,92.9L111.8,220l81.5,54.6l89.6,46L342.5,220z"/>
							</g>
						</g>
					</g>
					<g>
						<g>
							<defs>
								<circle id="SVGID_7_" cx="224.8" cy="220" r="220.5"/>
							</defs>
							<clipPath id="SVGID_8_">
								<use xlink:href="#SVGID_7_"  style="overflow:visible;"/>
							</clipPath>
							<path class="st6" d="M342.5,220l-82.8-60.5L151.4,92.9L111.8,220l81.5,54.6l89.6,46"/>
						</g>
					</g>
					<g>
						<path class="st7" d="M347.5,220c0,2.8-2.2,5-5,5c-2.8,0-5-2.2-5-5s2.2-5,5-5C345.3,215,347.5,217.2,347.5,220z"/>
						<path class="st7" d="M264.8,159.4c0,2.8-2.2,5-5,5s-5-2.2-5-5s2.2-5,5-5S264.8,156.7,264.8,159.4z"/>
						<path class="st7" d="M156.4,92.9c0,2.8-2.2,5-5,5c-2.8,0-5-2.2-5-5c0-2.8,2.2-5,5-5C154.2,87.9,156.4,90.1,156.4,92.9z"/>
						<path class="st7" d="M116.8,220c0,2.8-2.2,5-5,5c-2.8,0-5-2.2-5-5s2.2-5,5-5C114.6,215,116.8,217.2,116.8,220z"/>
						<path class="st7" d="M198.3,274.6c0,2.8-2.2,5-5,5c-2.8,0-5-2.2-5-5c0-2.8,2.2-5,5-5C196,269.6,198.3,271.8,198.3,274.6z"/>
						<path class="st7" d="M287.9,320.6c0,2.8-2.2,5-5,5c-2.8,0-5-2.2-5-5c0-2.8,2.2-5,5-5C285.7,315.6,287.9,317.8,287.9,320.6z"/>
					</g>
				</g>
				<g>
					<g>
						<defs>
							<circle id="SVGID_9_" cx="224.8" cy="220" r="220.5"/>
						</defs>
						<clipPath id="SVGID_10_">
							<use xlink:href="#SVGID_9_"  style="overflow:visible;"/>
						</clipPath>
						<g class="st8">
							<g>
								<path class="st9" d="M348.2,220l-94-50.9L127.5,51.4L41.6,220l164,33.3l61.1,39.2L348.2,220z"/>
							</g>
						</g>
					</g>
					<g>
						<g>
							<defs>
								<circle id="SVGID_11_" cx="224.8" cy="220" r="220.5"/>
							</defs>
							<clipPath id="SVGID_12_">
								<use xlink:href="#SVGID_11_"  style="overflow:visible;"/>
							</clipPath>
							<path class="st10" d="M348.2,220l-94-50.9L127.5,51.4L41.6,220l164,33.3l61.1,39.2"/>
						</g>
					</g>
					<g>
						<path class="st11" d="M353.2,220c0,2.8-2.2,5-5,5c-2.8,0-5-2.2-5-5s2.2-5,5-5C350.9,215,353.2,217.2,353.2,220z"/>
						<path class="st11" d="M259.2,169c0,2.8-2.2,5-5,5c-2.8,0-5-2.2-5-5s2.2-5,5-5C257,164,259.2,166.3,259.2,169z"/>
						<path class="st12" d="M123.7,51.4l-1.9-3.3h3.8l1.9-3.3l1.9,3.3h3.8l-1.9,3.3l1.9,3.3h-3.8l-1.9,3.3l-1.9-3.3h-3.8L123.7,51.4
							z"/>
						<path class="st12" d="M46.6,220c0,2.8-2.2,5-5,5c-2.8,0-5-2.2-5-5s2.2-5,5-5C44.4,215,46.6,217.2,46.6,220z"/>
						<path class="st12" d="M210.6,253.2c0,2.8-2.2,5-5,5c-2.8,0-5-2.2-5-5c0-2.8,2.2-5,5-5C208.3,248.2,210.6,250.5,210.6,253.2z"
							/>
						<path class="st11" d="M271.7,292.5c0,2.8-2.2,5-5,5c-2.8,0-5-2.2-5-5c0-2.8,2.2-5,5-5C269.4,287.5,271.7,289.7,271.7,292.5z"
							/>
					</g>
				</g>
				<g>
					<g>
						<defs>
							<circle id="SVGID_13_" cx="224.8" cy="220" r="220.5"/>
						</defs>
						<clipPath id="SVGID_14_">
							<use xlink:href="#SVGID_13_"  style="overflow:visible;"/>
						</clipPath>
						<g class="st13">
							<g>
								<path class="st14" d="M418.6,220H224.8L137.6,69L15.8,220l201,13.9l79.9,110.6L418.6,220z"/>
							</g>
						</g>
					</g>
					<g>
						<g>
							<defs>
								<circle id="SVGID_15_" cx="224.8" cy="220" r="220.5"/>
							</defs>
							<clipPath id="SVGID_16_">
								<use xlink:href="#SVGID_15_"  style="overflow:visible;"/>
							</clipPath>
							<path class="st15" d="M418.6,220H224.8L137.6,69L15.8,220l201,13.9l79.9,110.6"/>
						</g>
					</g>
					<g>
						<path class="st16" d="M414.8,220l-1.9-3.3h3.8l1.9-3.3l1.9,3.3h3.8l-1.9,3.3l1.9,3.3h-3.8l-1.9,3.3l-1.9-3.3h-3.8L414.8,220z"
							/>
						<path class="st17" d="M221,220l-1.9-3.3h3.8l1.9-3.3l1.9,3.3h3.8l-1.9,3.3l1.9,3.3h-3.8l-1.9,3.3l-1.9-3.3h-3.8L221,220z"/>
						<path class="st16" d="M142.6,69c0,2.8-2.2,5-5,5c-2.8,0-5-2.2-5-5c0-2.8,2.2-5,5-5C140.4,64,142.6,66.2,142.6,69z"/>
						<path class="st16" d="M12,220l-1.9-3.3h3.8l1.9-3.3l1.9,3.3h3.8l-1.9,3.3l1.9,3.3h-3.8l-1.9,3.3l-1.9-3.3h-3.8L12,220z"/>
						<path class="st16" d="M213,233.9l-1.9-3.3h3.8l1.9-3.3l1.9,3.3h3.8l-1.9,3.3l1.9,3.3h-3.8l-1.9,3.3l-1.9-3.3h-3.8L213,233.9z"
							/>
						<path class="st18" d="M301.7,344.5c0,2.8-2.2,5-5,5c-2.8,0-5-2.2-5-5c0-2.8,2.2-5,5-5C299.5,339.5,301.7,341.7,301.7,344.5z"
							/>
					</g>
				</g>
				<g>
					<g>
						<defs>
							<circle id="SVGID_17_" cx="224.8" cy="220" r="220.5"/>
						</defs>
						<clipPath id="SVGID_18_">
							<use xlink:href="#SVGID_17_"  style="overflow:visible;"/>
						</clipPath>
						<g class="st19">
							<g>
								<path class="st20" d="M369.9,220l-123.8-36.9L126,48.7L96.9,220l70.3,99.7l155,69.2L369.9,220z"/>
							</g>
						</g>
					</g>
					<g>
						<g>
							<defs>
								<circle id="SVGID_19_" cx="224.8" cy="220" r="220.5"/>
							</defs>
							<clipPath id="SVGID_20_">
								<use xlink:href="#SVGID_19_"  style="overflow:visible;"/>
							</clipPath>
							<path class="st21" d="M369.9,220l-123.8-36.9L126,48.7L96.9,220l70.3,99.7l155,69.2"/>
						</g>
					</g>
					<g>
						<path class="st22" d="M374.9,220c0,2.8-2.2,5-5,5c-2.8,0-5-2.2-5-5s2.2-5,5-5C372.7,215,374.9,217.2,374.9,220z"/>
						<path class="st23" d="M251.1,183.1c0,2.8-2.2,5-5,5c-2.8,0-5-2.2-5-5s2.2-5,5-5C248.9,178.1,251.1,180.3,251.1,183.1z"/>
						<path class="st23" d="M122.2,48.7l-1.9-3.3h3.8l1.9-3.3l1.9,3.3h3.8l-1.9,3.3l1.9,3.3h-3.8l-1.9,3.3l-1.9-3.3h-3.8L122.2,48.7
							z"/>
						<path class="st22" d="M101.9,220c0,2.8-2.2,5-5,5c-2.8,0-5-2.2-5-5s2.2-5,5-5C99.7,215,101.9,217.2,101.9,220z"/>
						<path class="st22" d="M172.2,319.7c0,2.8-2.2,5-5,5c-2.8,0-5-2.2-5-5c0-2.8,2.2-5,5-5C170,314.7,172.2,316.9,172.2,319.7z"/>
						<path class="st23" d="M318.5,388.8l-1.9-3.3h3.8l1.9-3.3l1.9,3.3h3.8l-1.9,3.3l1.9,3.3h-3.8l-1.9,3.3l-1.9-3.3h-3.8
							L318.5,388.8z"/>
					</g>
				</g>
			</g>
		</g>
		<g>
			<path class="st1" d="M525.3,409.5c0-121.8-98.7-220.5-220.5-220.5S84.3,287.7,84.3,409.5S183,630,304.8,630
				S525.3,531.2,525.3,409.5z"/>
		</g>
		<g>
			<line class="st1" x1="304.8" y1="409.5" x2="525.3" y2="409.5"/>
		</g>
		<g>
			<g pointer-events="none" transform="translate(521,409.99999999999994)translate(16.4931640625,0)">
				<g transform="matrix(1 0 0 -1 0 0)">
					<g>
						<path id="MJMATHI-4B" class="st24" d="M20.5,12.2c0,0.1-0.5,0.2-1.6,0.3c-0.4,0-0.7,0-0.8,0c-0.1,0-0.2,0.1-0.2,0.3
							c0,0,0,0.2,0.1,0.4c0.1,0.4,0.2,0.6,0.3,0.6c0,0,0.1,0,0.3,0h0.1c0.8,0,2-0.1,3.8-0.1c0.6,0,1.2,0,1.8,0s1,0,1.3,0
							c0.3,0,0.5,0,0.6,0c0.3,0,0.5-0.1,0.5-0.2c0-0.1,0-0.2-0.1-0.4c0,0,0-0.1,0-0.2s0-0.1,0-0.2s0-0.1-0.1-0.1s0-0.1-0.1-0.1
							c0,0-0.1,0-0.1-0.1c0,0-0.1,0-0.2,0c-0.1,0-0.2,0-0.3,0c-0.1,0-0.2,0-0.4,0c-0.7,0-1.2,0-1.4-0.1c-0.2,0-0.4-0.1-0.5-0.3
							l-2.3-8.9c0,0,1.7,1.3,5.1,4s5.1,4.1,5.2,4.1c0.3,0.3,0.4,0.5,0.4,0.6c0,0.3-0.2,0.4-0.7,0.5c-0.3,0-0.4,0.1-0.4,0.3
							c0,0,0,0.2,0.1,0.4s0.1,0.4,0.1,0.4c0.1,0.1,0.2,0.1,0.5,0.1c0.1,0,0.4,0,1,0c0.6,0,1.3,0,2.2,0c0.4,0,0.9,0,1.3,0
							c0.5,0,0.7,0,0.8,0c0.4,0,0.6-0.1,0.6-0.3c0-0.4-0.1-0.7-0.2-0.8c-0.1-0.1-0.2-0.1-0.5-0.1c-1.4-0.1-2.7-0.6-3.8-1.4
							c-0.3-0.2-0.9-0.7-2-1.4c-1-0.8-1.9-1.5-2.8-2.2l-1.3-1L27,5.7c0.2-0.4,0.4-1,0.8-1.9s0.7-1.6,1-2.4c1.4-3.3,2.1-5,2.2-5.1
							c0,0,0.1-0.1,0.1-0.1c0.3-0.2,0.7-0.3,1.4-0.3h0.6c0.1-0.1,0.2-0.2,0.2-0.3c0,0,0-0.2-0.1-0.5C33.1-5,33-5.2,32.9-5.3h-0.3
							c-0.7,0.1-1.6,0.1-2.6,0.1c-2.3,0-3.5,0-3.8-0.1h-0.3c-0.1,0.1-0.2,0.2-0.2,0.3s0,0.2,0.1,0.5c0.1,0.2,0.1,0.4,0.2,0.4
							s0.1,0.1,0.3,0.1h0.1c0.9,0,1.4,0.2,1.4,0.7c0,0.1-0.3,0.7-0.8,2S26.1,0.5,26,0.7l-1.6,3.8l-1.9-1.5l-1.9-1.5L20-1
							c-0.4-1.7-0.6-2.6-0.6-2.7c0-0.1,0.1-0.2,0.2-0.3C19.7-4,20.2-4,21-4.1h0.9C22-4.2,22-4.3,22-4.4c0-0.3-0.1-0.6-0.2-0.8
							c-0.1-0.1-0.2-0.1-0.4-0.1c-0.1,0-0.4,0-1,0c-0.6,0-1.6,0-2.8,0c-1.2,0-2,0-2.6,0c-0.6,0-0.9,0-1,0c-0.3,0-0.5,0.1-0.5,0.3
							c0,0,0,0.2,0.1,0.4c0.1,0.3,0.1,0.5,0.2,0.5c0.1,0,0.3,0.1,0.6,0.1c0.5,0,1.1,0,1.7,0.1c0.3,0.1,0.4,0.2,0.5,0.3
							c0.1,0.1,0.7,2.7,2,7.7C19.8,9.2,20.5,11.9,20.5,12.2z"/>
					</g>
					<g transform="translate(849,-150)">
						<g transform="scale(0.707)">
							<path id="MJMATHI-73" class="st25" d="M-810.2,146.2c0,0.4,0.1,0.8,0.3,1.3s0.6,0.8,1.1,1.2c0.5,0.4,1.2,0.5,1.9,0.5
								c0.8,0,1.4-0.2,1.8-0.5c0.4-0.4,0.6-0.7,0.6-1.2c0-0.4-0.1-0.7-0.3-0.9s-0.5-0.3-0.7-0.3c-0.2,0-0.3,0.1-0.5,0.2
								c-0.1,0.1-0.2,0.3-0.2,0.5c0,0.2,0.1,0.4,0.2,0.6s0.2,0.3,0.3,0.4c0.1,0.1,0.2,0.1,0.3,0.1c0,0,0,0,0,0c0,0,0,0.1-0.1,0.2
								c-0.1,0.1-0.3,0.2-0.5,0.2c-0.2,0.1-0.5,0.1-0.8,0.1c-0.6,0-1.1-0.2-1.4-0.5c-0.3-0.3-0.4-0.7-0.5-1c0-0.3,0.1-0.6,0.4-0.7
								c0.2-0.1,0.6-0.2,1.1-0.3c0.5-0.1,0.8-0.2,1-0.3c0.9-0.4,1.3-1,1.3-1.9c0-0.4-0.1-0.7-0.2-1.1c-0.1-0.4-0.4-0.7-0.7-1.1
								c-0.3-0.4-0.7-0.7-1.2-0.9c-0.5-0.2-1.2-0.3-1.9-0.3c-1,0-1.7,0.2-2.1,0.6c-0.4,0.4-0.6,0.8-0.7,1.3c0,0.5,0.1,0.9,0.4,1.1
								s0.6,0.3,0.9,0.3c0.2,0,0.4-0.1,0.6-0.2c0.2-0.1,0.3-0.3,0.3-0.6c0-0.3-0.1-0.6-0.4-0.9s-0.4-0.4-0.6-0.4c0,0,0,0-0.1,0
								s0,0,0,0c0,0,0.1-0.1,0.2-0.2s0.3-0.2,0.6-0.3c0.3-0.1,0.7-0.2,1.1-0.1c0.5,0,0.9,0.1,1.2,0.2c0.3,0.1,0.6,0.3,0.7,0.6
								c0.2,0.2,0.3,0.4,0.3,0.6s0.1,0.3,0.1,0.5c0,0.4-0.1,0.6-0.4,0.8c-0.3,0.2-0.6,0.3-0.9,0.3c-0.4,0-0.7,0.1-1.2,0.3
								c-0.4,0.2-0.7,0.4-0.9,0.7C-810.1,145.4-810.2,145.7-810.2,146.2z"/>
						</g>
						<g transform="scale(0.707)">
							<path id="MJMATHI-74" class="st25" d="M-803.1,148.1c-0.1,0.1-0.1,0.2-0.1,0.2c0,0.1,0,0.2,0.1,0.3c0,0.2,0.1,0.2,0.1,0.3
								c0,0.1,0.1,0.1,0.2,0.1c0.1,0,0.4,0,1,0h1l0.4,1.6c0,0.1,0.1,0.3,0.1,0.6s0.1,0.4,0.1,0.5c0,0.1,0.1,0.2,0.1,0.4
								c0,0.2,0.1,0.3,0.2,0.3c0.1,0.1,0.1,0.1,0.2,0.2c0.1,0.1,0.2,0.2,0.3,0.2c0.1,0,0.2,0,0.4,0c0.2,0,0.4-0.1,0.5-0.2
								c0.1-0.1,0.1-0.3,0.1-0.4c0-0.1-0.1-0.4-0.2-0.9c-0.1-0.5-0.2-1-0.4-1.6l-0.2-0.7c0,0,0.3,0,1,0h1c0.1-0.1,0.1-0.2,0.1-0.2
								c0-0.3-0.1-0.5-0.3-0.7h-2.1l-0.7-2.9c-0.5-2.1-0.8-3.2-0.8-3.4c0-0.6,0.2-0.8,0.5-0.8c0.5,0,0.9,0.2,1.3,0.7s0.8,1,1,1.7
								c0,0.1,0.1,0.1,0.1,0.1c0,0,0.1,0,0.3,0h0.1c0.2,0,0.3-0.1,0.3-0.2c0,0,0-0.1-0.1-0.2c-0.1-0.2-0.2-0.5-0.4-0.7
								s-0.4-0.6-0.7-0.9c-0.3-0.3-0.6-0.6-1-0.8s-0.8-0.3-1.2-0.3c-0.4,0-0.8,0.1-1.1,0.3c-0.4,0.2-0.6,0.5-0.8,1
								c0,0.1,0,0.3,0,0.5v0.4l0.7,2.8c0.5,1.9,0.7,2.8,0.7,2.8c0,0-0.3,0-1,0H-803.1z"/>
						</g>
						<g transform="scale(0.707)">
							<path id="MJMATHI-64" class="st25" d="M-789.2,153.9c0,0,0.5,0,1.4,0.1c0.9,0.1,1.4,0.1,1.4,0.1c0.2,0,0.2-0.1,0.2-0.2
								c0-0.1-0.5-2.1-1.4-6s-1.5-5.9-1.5-5.9c0-0.1,0-0.2,0-0.3c0-0.6,0.2-0.8,0.6-0.8c0.1,0,0.2,0.1,0.4,0.2
								c0.3,0.3,0.5,0.9,0.8,1.9c0.1,0.3,0.1,0.4,0.2,0.4c0,0,0.1,0,0.2,0h0.1h0.1c0.2,0,0.3-0.1,0.3-0.2c0-0.1,0-0.2-0.1-0.3
								c-0.2-0.7-0.4-1.2-0.6-1.6c-0.2-0.4-0.4-0.7-0.6-0.8c-0.1-0.1-0.3-0.2-0.6-0.3c-0.1,0-0.3,0-0.5,0c-0.4,0-0.8,0.1-1.1,0.3
								c-0.3,0.2-0.5,0.4-0.6,0.6l-0.1,0.3c0,0,0,0-0.1,0c0,0-0.1-0.1-0.1-0.1c-0.8-0.7-1.6-1.1-2.4-1.1c-0.7,0-1.4,0.3-1.9,0.8
								s-0.8,1.4-0.8,2.5c0,0.6,0.1,1.3,0.4,1.9s0.6,1.2,0.9,1.7c0.6,0.7,1.2,1.3,1.9,1.6c0.6,0.3,1.2,0.4,1.7,0.4
								c0.7,0,1.3-0.3,1.7-0.8c0.1-0.1,0.1-0.1,0.1-0.1c0,0.1,0.2,0.8,0.5,2.1s0.5,2.1,0.6,2.2c0,0.2,0,0.3-0.1,0.3
								c-0.1,0-0.3,0.1-0.8,0.1h-0.4c-0.1,0.1-0.1,0.1-0.1,0.2s0,0.2,0,0.4C-789.4,153.8-789.3,153.9-789.2,153.9z M-789.5,146.9
								c-0.3,1-0.8,1.6-1.5,1.6c-0.5,0-0.9-0.2-1.3-0.6c-0.4-0.4-0.7-0.9-1-1.6c-0.4-1-0.7-2.1-0.8-3.2c0,0,0-0.1,0-0.2
								c0-0.1,0-0.2,0-0.2c0-0.6,0.1-1,0.4-1.2s0.5-0.3,0.8-0.4c0.7,0,1.4,0.5,2.2,1.4l0.2,0.2L-789.5,146.9z"/>
						</g>
					</g>
				</g>
			</g>
		</g>
		<g>
			<g pointer-events="none" transform="translate(410.75,219.04139846553124)translate(25.51220703125,0)">
				<g transform="matrix(1 0 0 -1 0 0)">
					<g>
						<path id="MJMAIN-7C" class="st26" d="M-33.3,25.2L-33.3,25.2c-0.3,0-0.4,0.1-0.6,0.4v13.5l0,13.5c0.2,0.2,0.4,0.4,0.5,0.4
							c0.2,0,0.4-0.1,0.6-0.4v-27C-32.9,25.3-33,25.2-33.3,25.2L-33.3,25.2z"/>
					</g>
					<g>
						<path id="MJMATHI-3B2" class="st26" d="M-28.6,26.7c-0.1,0.1-0.2,0.2-0.2,0.2c0,0.1,0.7,3,2.2,8.9c1.5,5.9,2.2,9,2.3,9.2
							c0.4,1.3,0.9,2.4,1.6,3.3s1.3,1.6,1.8,2.1c1,0.9,2.2,1.3,3.3,1.3h0.1c1.2,0,2.1-0.4,2.8-1.1s1.1-1.6,1.1-2.7
							c0-2-1-3.6-2.9-4.8l0.4-0.4c0.9-0.9,1.4-2.2,1.4-3.7c0-2.1-0.8-3.8-2.4-5.2s-3.4-2.1-5.3-2.1c-0.6,0-1.1,0.1-1.5,0.2
							c-0.4,0.1-0.8,0.3-1.1,0.5c-0.3,0.2-0.5,0.4-0.6,0.6c-0.1,0.2-0.3,0.4-0.3,0.5c-0.1,0.1-0.1,0.2-0.1,0.2l-1.8-7.1
							c0-0.1-0.2-0.2-0.6-0.2H-28.6z M-19.6,44.1c0.7,0,1.4-0.1,2.1-0.3l0.1,0.1c0.1,0.1,0.1,0.1,0.2,0.2s0.1,0.1,0.3,0.3
							s0.2,0.3,0.3,0.4s0.2,0.3,0.3,0.5s0.2,0.4,0.3,0.7s0.2,0.5,0.3,0.8c0.1,0.3,0.1,0.6,0.2,1c0,0.2,0.1,0.5,0.1,0.9
							c0,0.3,0,0.5,0,0.6c-0.3,0.9-1,1.4-2.1,1.4c-0.8,0-1.5-0.2-2.2-0.7c-0.7-0.4-1.3-1-1.7-1.7s-0.8-1.3-1.1-1.9s-0.5-1.1-0.6-1.6
							c-0.1-0.3-0.4-1.7-1.1-4.1c-0.6-2.4-0.9-3.7-0.9-3.9c0-0.1,0-0.3,0-0.6c0-0.9,0.2-1.6,0.6-2.2c0.6-0.8,1.4-1.2,2.4-1.2
							c0.8,0,1.6,0.2,2.5,0.7s1.6,1.3,2.1,2.4c0.3,0.6,0.5,1.3,0.7,2.1s0.2,1.4,0.2,1.8c0,1.1-0.3,1.9-1,2.6
							c-0.8-0.3-1.5-0.4-2.1-0.4H-20c-1.5,0-2.2,0.3-2.2,0.9c0,0.1,0,0.3,0.1,0.4C-21.9,43.9-21,44.1-19.6,44.1z"/>
					</g>
					<g transform="translate(852,0)">
						<g>
							<path id="MJMAIN-7C_1_" class="st26" d="M-861.5,25.2L-861.5,25.2c-0.3,0-0.4,0.1-0.6,0.4v13.5l0,13.5
								c0.2,0.2,0.4,0.4,0.5,0.4c0.2,0,0.4-0.1,0.6-0.4v-27C-861.1,25.3-861.3,25.2-861.5,25.2L-861.5,25.2z"/>
						</g>
						<g transform="translate(278,-286)">
							<g transform="scale(0.707)">
								<path id="MJMATHI-6D" class="st27" d="M-1135.2,315.8c0,0.1,0,0.2,0.1,0.3c0,0.1,0.1,0.4,0.2,0.7c0.1,0.4,0.3,0.7,0.4,0.9
									s0.3,0.5,0.6,0.7c0.3,0.2,0.6,0.3,0.9,0.3c0.3,0,0.6-0.1,0.8-0.1s0.5-0.2,0.6-0.4c0.1-0.2,0.2-0.3,0.3-0.4
									c0.1-0.1,0.1-0.3,0.2-0.4l0-0.1c0,0,0,0,0,0l0.2,0.2c0.8,0.8,1.7,1.3,2.8,1.3c0.2,0,0.4,0,0.6,0s0.4-0.1,0.5-0.1
									c0.2-0.1,0.3-0.1,0.4-0.2c0.1-0.1,0.2-0.1,0.3-0.2s0.2-0.2,0.2-0.3s0.1-0.2,0.2-0.3c0.1-0.1,0.1-0.2,0.1-0.2
									c0-0.1,0-0.1,0.1-0.2c0.1-0.1,0.1-0.1,0-0.1l0.2,0.2c0.8,1,1.8,1.5,2.9,1.5c0.7,0,1.3-0.2,1.7-0.5c0.4-0.4,0.7-0.9,0.7-1.6
									c0-0.7-0.2-1.7-0.7-3.1c-0.5-1.4-0.7-2.2-0.7-2.5c0-0.2,0-0.3,0.1-0.4c0.1-0.1,0.2-0.1,0.3-0.1c0.4,0,0.7,0.2,1,0.6
									s0.6,0.9,0.8,1.6c0,0.1,0.1,0.2,0.1,0.3s0.1,0,0.3,0c0.3,0,0.4-0.1,0.4-0.2c0,0,0-0.1-0.1-0.3c-0.1-0.4-0.2-0.8-0.4-1.1
									c-0.2-0.4-0.5-0.7-0.9-1.1c-0.4-0.4-0.9-0.5-1.4-0.5c-0.6,0-1.1,0.2-1.3,0.5s-0.4,0.7-0.4,1.1c0,0.2,0.2,1,0.7,2.4
									c0.5,1.3,0.7,2.3,0.7,3c0,0.8-0.3,1.2-0.9,1.2h-0.1c-1.1,0-2.1-0.7-2.9-2l-0.1-0.2l-0.7-2.6c-0.4-1.7-0.7-2.6-0.7-2.8
									c-0.2-0.4-0.5-0.5-0.8-0.5c-0.2,0-0.3,0-0.4,0.1s-0.2,0.2-0.2,0.2c0,0.1-0.1,0.1-0.1,0.2c0,0.1,0.2,1.1,0.7,2.8l0.7,2.9
									c0,0.2,0.1,0.4,0.1,0.7c0,0.8-0.3,1.2-0.9,1.2h-0.1c-1.1,0-2.1-0.7-2.9-2l-0.1-0.2l-0.7-2.6c-0.4-1.7-0.7-2.6-0.7-2.8
									c-0.2-0.4-0.5-0.5-0.8-0.5c-0.2,0-0.3,0-0.4,0.1c-0.1,0.1-0.2,0.2-0.2,0.2s-0.1,0.1,0,0.2c0,0.2,0.2,1.2,0.7,3.2
									c0.5,2,0.8,3.1,0.8,3.2c0,0.2,0.1,0.4,0.1,0.5c0,0.5-0.2,0.7-0.5,0.7c-0.3,0-0.5-0.2-0.7-0.6c-0.2-0.4-0.3-0.8-0.5-1.2
									s-0.2-0.7-0.2-0.7c0,0-0.1,0-0.3,0h-0.3C-1135.2,315.7-1135.2,315.7-1135.2,315.8z"/>
							</g>
							<g transform="scale(0.707)">
								<path id="MJMATHI-65" class="st27" d="M-1117.6,313.4c0,0.7,0.1,1.4,0.4,2c0.2,0.6,0.6,1.1,1,1.5c0.4,0.4,0.8,0.7,1.3,1
									s0.9,0.5,1.4,0.6c0.4,0.1,0.8,0.2,1.2,0.2h0.1c0.6,0,1.1-0.1,1.5-0.4c0.4-0.3,0.7-0.7,0.7-1.3c0-1.2-0.7-2-2.2-2.3
									c-0.6-0.2-1.5-0.3-2.6-0.3c-0.5,0-0.7,0-0.7,0c0,0,0-0.3-0.1-0.7c-0.1-0.4-0.1-0.8-0.1-1.1c0-0.6,0.1-1.1,0.4-1.5
									s0.7-0.5,1.2-0.6c0.6,0,1.2,0.1,1.8,0.4c0.7,0.3,1.3,0.7,1.8,1.3c0.1,0.1,0.2,0.2,0.2,0.2c0.1,0,0.1-0.1,0.3-0.2
									c0.1-0.1,0.2-0.2,0.2-0.3c0-0.1,0-0.2-0.2-0.3c-0.1-0.1-0.3-0.3-0.6-0.5c-0.3-0.2-0.6-0.4-0.9-0.6s-0.8-0.4-1.2-0.5
									c-0.5-0.1-1-0.2-1.5-0.2c-1,0-1.8,0.3-2.4,1C-1117.3,311.7-1117.6,312.5-1117.6,313.4z M-1111,317.1c-0.1,0.7-0.5,1-1.3,1
									c-0.4,0-0.8-0.1-1.2-0.3c-0.4-0.2-0.7-0.4-0.9-0.7c-0.2-0.3-0.4-0.5-0.6-0.8c-0.2-0.3-0.3-0.5-0.3-0.7
									c-0.1-0.2-0.1-0.3-0.1-0.4c0,0,0.1,0,0.4,0c1.5,0,2.5,0.2,3.1,0.5C-1111.3,316-1111,316.5-1111,317.1z"/>
							</g>
							<g transform="scale(0.707)">
								<path id="MJMATHI-61" class="st27" d="M-1108.5,313.2c0,1.3,0.5,2.6,1.5,3.8c1,1.2,2.1,1.8,3.4,1.8c0.7,0,1.3-0.3,1.8-1
									c0.2,0.4,0.5,0.6,0.9,0.6c0.2,0,0.3-0.1,0.5-0.2s0.2-0.2,0.2-0.4c0-0.2-0.2-1.2-0.7-3.2c-0.5-1.9-0.7-3-0.7-3.3
									c0-0.3,0-0.5,0.1-0.7c0.1-0.1,0.2-0.2,0.4-0.2c0.1,0,0.2,0.1,0.4,0.2c0.3,0.3,0.5,0.9,0.8,1.9c0.1,0.3,0.1,0.4,0.2,0.4
									c0,0,0.1,0,0.2,0h0.1c0.2,0,0.4-0.1,0.4-0.2c0-0.1,0-0.3-0.1-0.5s-0.2-0.6-0.4-1.1c-0.2-0.4-0.4-0.8-0.6-1
									c-0.2-0.2-0.4-0.3-0.6-0.4c-0.1,0-0.3,0-0.5,0c-0.4,0-0.8,0.1-1.1,0.3c-0.3,0.2-0.5,0.4-0.6,0.6l-0.1,0.3c0,0,0,0-0.1,0
									c0,0-0.1-0.1-0.1-0.1c-0.8-0.7-1.6-1.1-2.4-1.1c-0.7,0-1.4,0.3-1.9,0.8C-1108.2,311.2-1108.5,312.1-1108.5,313.2z
									 M-1102.2,316.6c0,0.1,0,0.2-0.1,0.4c-0.1,0.2-0.2,0.4-0.5,0.7c-0.2,0.2-0.5,0.4-0.9,0.4c-0.5,0-0.9-0.2-1.3-0.6
									c-0.4-0.4-0.7-0.9-1-1.6c-0.4-1-0.7-2.1-0.8-3.2c0,0,0-0.1,0-0.2c0-0.1,0-0.2,0-0.2c0-0.6,0.1-1,0.4-1.2
									c0.2-0.2,0.5-0.3,0.8-0.4c0.5,0,1,0.2,1.5,0.7s0.8,0.8,0.9,1c0,0.1,0.2,0.8,0.5,2.1
									C-1102.4,315.8-1102.3,316.5-1102.2,316.6z"/>
							</g>
							<g transform="scale(0.707)">
								<path id="MJMATHI-6E" class="st27" d="M-1098.3,315.8c0,0.1,0,0.2,0.1,0.3s0.1,0.4,0.2,0.7c0.1,0.4,0.3,0.7,0.4,0.9
									s0.3,0.5,0.7,0.7c0.3,0.2,0.6,0.3,0.9,0.3c0.5,0,0.9-0.1,1.2-0.4c0.3-0.2,0.5-0.5,0.6-0.7c0.1-0.2,0.1-0.3,0.1-0.4
									c0,0,0,0,0,0l0.2,0.2c0.8,0.8,1.7,1.3,2.7,1.3c0.7,0,1.3-0.2,1.7-0.5s0.7-0.9,0.7-1.6c0-0.7-0.2-1.7-0.7-3.1
									s-0.8-2.2-0.7-2.5c0-0.3,0.1-0.5,0.3-0.5c0.1,0,0.1,0,0.2,0c0.4,0.1,0.7,0.3,1,0.7c0.3,0.4,0.5,1,0.7,1.6
									c0,0.1,0.2,0.2,0.4,0.2c0.3,0,0.4-0.1,0.4-0.2c0,0,0-0.1-0.1-0.3c-0.1-0.4-0.2-0.8-0.4-1.1c-0.2-0.4-0.5-0.7-0.9-1.1
									c-0.4-0.4-0.9-0.5-1.4-0.5c-0.6,0-1.1,0.2-1.3,0.5s-0.4,0.7-0.4,1.1c0,0.2,0.2,1,0.7,2.4c0.5,1.3,0.7,2.3,0.7,3
									c0,0.8-0.3,1.2-0.9,1.2h-0.1c-1.1,0-2.1-0.7-2.9-2l-0.1-0.2l-0.7-2.6c-0.4-1.7-0.7-2.6-0.7-2.8c-0.2-0.4-0.5-0.5-0.8-0.5
									c-0.2,0-0.3,0-0.4,0.1c-0.1,0.1-0.2,0.2-0.2,0.2c0,0.1-0.1,0.1,0,0.2c0,0.2,0.2,1.2,0.7,3.2c0.5,2,0.8,3,0.8,3.2
									c0,0.1,0,0.2,0,0.5c0,0.5-0.2,0.8-0.5,0.8c-0.5,0-0.9-0.7-1.2-2c-0.1-0.3-0.1-0.4-0.1-0.4c0-0.1-0.2-0.1-0.4-0.1h-0.3
									C-1098.3,315.7-1098.3,315.7-1098.3,315.8z"/>
							</g>
						</g>
					</g>
				</g>
			</g>
		</g>
		<g>
			<g pointer-events="none" transform="translate(190.25000000000006,219.04139846553122)translate(-24.5439453125,0)">
				<g transform="matrix(1 0 0 -1 0 0)">
					<g>
						<path id="MJMAIN-7C_2_" class="st28" d="M-39.5,23.7L-39.5,23.7c-0.3,0-0.4,0.1-0.6,0.4v13.5l0,13.5c0.2,0.2,0.4,0.4,0.5,0.4
							c0.2,0,0.4-0.1,0.6-0.4v-27C-39.1,23.8-39.3,23.7-39.5,23.7L-39.5,23.7z"/>
					</g>
					<g>
						<path id="MJMATHI-3B8" class="st28" d="M-34.7,36.2c0,1.9,0.4,3.9,1.1,6c0.7,2.1,1.7,3.9,3,5.4s2.5,2.4,3.9,2.6
							c0,0,0.1,0,0.2,0c0.1,0,0.2,0,0.3,0c1-0.1,1.8-0.5,2.3-1.4c0.7-1.1,1.1-2.6,1.1-4.5c0-2.1-0.4-4.3-1.3-6.5s-1.9-4-3.2-5.4
							c-1.3-1.4-2.5-2.1-3.7-2.1h-0.2c-0.7,0-1.2,0.2-1.7,0.6c-0.5,0.4-0.8,0.9-1.1,1.5c-0.2,0.6-0.4,1.2-0.5,1.9
							C-34.6,34.9-34.7,35.5-34.7,36.2z M-25,46.4c0,1.9-0.5,2.8-1.5,2.8c-0.7,0-1.3-0.4-2-1.3s-1.2-1.8-1.6-2.8s-0.7-2-0.9-2.8
							s-0.3-1.3-0.4-1.4c0.9,0,1.8,0,2.7,0l2.7,0c0,0,0.1,0.3,0.2,0.9s0.3,1.3,0.4,2.2S-25,45.8-25,46.4z M-32.5,34.3
							c0-2,0.5-3,1.5-3c0.3,0,0.6,0.1,0.9,0.3s0.7,0.5,1.1,1.1c0.4,0.5,0.9,1.3,1.3,2.4c0.4,1.1,0.9,2.5,1.3,4.1l0.1,0.5h-5.4
							c0-0.1-0.1-0.4-0.3-1.1c-0.2-0.7-0.3-1.4-0.4-2.2C-32.4,35.6-32.5,34.9-32.5,34.3z"/>
					</g>
					<g transform="translate(748,0)">
						<g>
							<path id="MJMAIN-7C_3_" class="st28" d="M-766.7,23.7L-766.7,23.7c-0.3,0-0.4,0.1-0.6,0.4v13.5l0,13.5
								c0.2,0.2,0.4,0.4,0.5,0.4c0.2,0,0.4-0.1,0.6-0.4v-27C-766.3,23.8-766.4,23.7-766.7,23.7L-766.7,23.7z"/>
						</g>
						<g transform="translate(278,-286)">
							<g transform="scale(0.707)">
								<path id="MJMATHI-6D_1_" class="st29" d="M-1040.4,314.3c0,0.1,0,0.2,0.1,0.3c0,0.1,0.1,0.4,0.2,0.7
									c0.1,0.4,0.3,0.7,0.4,0.9c0.1,0.2,0.3,0.5,0.6,0.7c0.3,0.2,0.6,0.3,0.9,0.3c0.3,0,0.6-0.1,0.8-0.1c0.3-0.1,0.5-0.2,0.6-0.4
									c0.1-0.2,0.2-0.3,0.3-0.4c0.1-0.1,0.1-0.3,0.2-0.4l0-0.1c0,0,0,0,0,0l0.2,0.2c0.8,0.8,1.7,1.3,2.8,1.3c0.2,0,0.4,0,0.6,0
									c0.2,0,0.4-0.1,0.5-0.1c0.2-0.1,0.3-0.1,0.4-0.2c0.1-0.1,0.2-0.1,0.3-0.2c0.1-0.1,0.2-0.2,0.2-0.3c0-0.1,0.1-0.2,0.2-0.3
									c0.1-0.1,0.1-0.2,0.1-0.2s0-0.1,0.1-0.2c0.1-0.1,0.1-0.1,0-0.1l0.2,0.2c0.8,1,1.8,1.5,2.9,1.5c0.7,0,1.3-0.2,1.7-0.5
									c0.4-0.4,0.7-0.9,0.7-1.6c0-0.7-0.2-1.7-0.7-3.1c-0.5-1.4-0.7-2.2-0.7-2.5c0-0.2,0-0.3,0.1-0.4c0.1-0.1,0.2-0.1,0.3-0.1
									c0.4,0,0.7,0.2,1,0.6c0.3,0.4,0.6,0.9,0.8,1.6c0,0.1,0.1,0.2,0.1,0.3c0,0,0.1,0,0.3,0c0.3,0,0.4-0.1,0.4-0.2
									c0,0,0-0.1-0.1-0.3c-0.1-0.4-0.2-0.8-0.4-1.1c-0.2-0.4-0.5-0.7-0.9-1.1c-0.4-0.4-0.9-0.5-1.4-0.5c-0.6,0-1.1,0.2-1.3,0.5
									s-0.4,0.7-0.4,1.1c0,0.2,0.2,1,0.7,2.4c0.5,1.3,0.7,2.3,0.7,3c0,0.8-0.3,1.2-0.9,1.2h-0.1c-1.1,0-2.1-0.7-2.9-2l-0.1-0.2
									l-0.7-2.6c-0.4-1.7-0.7-2.6-0.7-2.8c-0.2-0.4-0.5-0.5-0.8-0.5c-0.2,0-0.3,0-0.4,0.1c-0.1,0.1-0.2,0.2-0.2,0.2
									s-0.1,0.1-0.1,0.2c0,0.1,0.2,1.1,0.7,2.8l0.7,2.9c0,0.2,0.1,0.4,0.1,0.7c0,0.8-0.3,1.2-0.9,1.2h-0.1c-1.1,0-2.1-0.7-2.9-2
									l-0.1-0.2l-0.7-2.6c-0.4-1.7-0.7-2.6-0.7-2.8c-0.2-0.4-0.5-0.5-0.8-0.5c-0.2,0-0.3,0-0.4,0.1c-0.1,0.1-0.2,0.2-0.2,0.2
									c0,0.1-0.1,0.1,0,0.2c0,0.2,0.2,1.2,0.7,3.2c0.5,2,0.8,3.1,0.8,3.2c0,0.2,0.1,0.4,0.1,0.5c0,0.5-0.2,0.7-0.5,0.7
									c-0.3,0-0.5-0.2-0.7-0.6c-0.2-0.4-0.3-0.8-0.5-1.2c-0.1-0.4-0.2-0.7-0.2-0.7c0,0-0.1,0-0.3,0h-0.3
									C-1040.4,314.2-1040.4,314.3-1040.4,314.3z"/>
							</g>
							<g transform="scale(0.707)">
								<path id="MJMATHI-65_1_" class="st29" d="M-1022.7,312c0,0.7,0.1,1.4,0.4,2c0.2,0.6,0.6,1.1,1,1.5c0.4,0.4,0.8,0.7,1.3,1
									c0.5,0.3,0.9,0.5,1.4,0.6c0.4,0.1,0.8,0.2,1.2,0.2h0.1c0.6,0,1.1-0.1,1.5-0.4c0.4-0.3,0.7-0.7,0.7-1.3c0-1.2-0.7-2-2.2-2.3
									c-0.6-0.2-1.5-0.3-2.6-0.3c-0.5,0-0.7,0-0.7,0c0,0,0-0.3-0.1-0.7c-0.1-0.4-0.1-0.8-0.1-1.1c0-0.6,0.1-1.1,0.4-1.5
									s0.7-0.5,1.2-0.6c0.6,0,1.2,0.1,1.8,0.4c0.7,0.3,1.3,0.7,1.8,1.3c0.1,0.1,0.2,0.2,0.2,0.2c0.1,0,0.1-0.1,0.3-0.2
									s0.2-0.2,0.2-0.3s0-0.2-0.2-0.3c-0.1-0.1-0.3-0.3-0.6-0.5c-0.3-0.2-0.6-0.4-0.9-0.6s-0.8-0.4-1.2-0.5
									c-0.5-0.1-1-0.2-1.5-0.2c-1,0-1.8,0.3-2.4,1C-1022.4,310.2-1022.7,311-1022.7,312z M-1016.2,315.6c-0.1,0.7-0.5,1-1.3,1
									c-0.4,0-0.8-0.1-1.2-0.3s-0.7-0.4-0.9-0.7c-0.2-0.3-0.4-0.5-0.6-0.8c-0.2-0.3-0.3-0.5-0.3-0.7c-0.1-0.2-0.1-0.3-0.1-0.4
									c0,0,0.1,0,0.4,0c1.5,0,2.5,0.2,3.1,0.5S-1016.2,315-1016.2,315.6z"/>
							</g>
							<g transform="scale(0.707)">
								<path id="MJMATHI-61_1_" class="st29" d="M-1013.7,311.7c0,1.3,0.5,2.6,1.5,3.8c1,1.2,2.1,1.8,3.4,1.8c0.7,0,1.3-0.3,1.8-1
									c0.2,0.4,0.5,0.6,0.9,0.6c0.2,0,0.3-0.1,0.5-0.2c0.1-0.1,0.2-0.2,0.2-0.4c0-0.2-0.2-1.2-0.7-3.2c-0.5-1.9-0.7-3-0.7-3.3
									c0-0.3,0-0.5,0.1-0.7c0.1-0.1,0.2-0.2,0.4-0.2c0.1,0,0.2,0.1,0.4,0.2c0.3,0.3,0.5,0.9,0.8,1.9c0.1,0.3,0.1,0.4,0.2,0.4
									c0,0,0.1,0,0.2,0h0.1c0.2,0,0.4-0.1,0.4-0.2c0-0.1,0-0.3-0.1-0.5c-0.1-0.3-0.2-0.6-0.4-1.1s-0.4-0.8-0.6-1
									c-0.2-0.2-0.4-0.3-0.6-0.4c-0.1,0-0.3,0-0.5,0c-0.4,0-0.8,0.1-1.1,0.3s-0.5,0.4-0.6,0.6l-0.1,0.3c0,0,0,0-0.1,0
									c0,0-0.1-0.1-0.1-0.1c-0.8-0.7-1.6-1.1-2.4-1.1c-0.7,0-1.4,0.3-1.9,0.8C-1013.4,309.8-1013.7,310.6-1013.7,311.7z
									 M-1007.4,315.1c0,0.1,0,0.2-0.1,0.4c-0.1,0.2-0.2,0.4-0.5,0.7c-0.2,0.2-0.5,0.4-0.9,0.4c-0.5,0-0.9-0.2-1.3-0.6
									c-0.4-0.4-0.7-0.9-1-1.6c-0.4-1-0.7-2.1-0.8-3.2c0,0,0-0.1,0-0.2c0-0.1,0-0.2,0-0.2c0-0.6,0.1-1,0.4-1.2
									c0.2-0.2,0.5-0.3,0.8-0.4c0.5,0,1,0.2,1.5,0.7c0.5,0.4,0.8,0.8,0.9,1c0,0.1,0.2,0.8,0.5,2.1
									C-1007.6,314.3-1007.4,315-1007.4,315.1z"/>
							</g>
							<g transform="scale(0.707)">
								<path id="MJMATHI-6E_1_" class="st29" d="M-1003.5,314.3c0,0.1,0,0.2,0.1,0.3c0,0.1,0.1,0.4,0.2,0.7
									c0.1,0.4,0.3,0.7,0.4,0.9c0.1,0.2,0.3,0.5,0.7,0.7s0.6,0.3,0.9,0.3c0.5,0,0.9-0.1,1.2-0.4c0.3-0.2,0.5-0.5,0.6-0.7
									c0.1-0.2,0.1-0.3,0.1-0.4c0,0,0,0,0,0l0.2,0.2c0.8,0.8,1.7,1.3,2.7,1.3c0.7,0,1.3-0.2,1.7-0.5c0.4-0.4,0.7-0.9,0.7-1.6
									s-0.2-1.7-0.7-3.1s-0.8-2.2-0.7-2.5c0-0.3,0.1-0.5,0.3-0.5c0.1,0,0.1,0,0.2,0c0.4,0.1,0.7,0.3,1,0.7c0.3,0.4,0.5,1,0.7,1.6
									c0,0.1,0.2,0.2,0.4,0.2c0.3,0,0.4-0.1,0.4-0.2c0,0,0-0.1-0.1-0.3c-0.1-0.4-0.2-0.8-0.4-1.1c-0.2-0.4-0.5-0.7-0.9-1.1
									c-0.4-0.4-0.9-0.5-1.4-0.5c-0.6,0-1.1,0.2-1.3,0.5c-0.3,0.4-0.4,0.7-0.4,1.1c0,0.2,0.2,1,0.7,2.4c0.5,1.3,0.7,2.3,0.7,3
									c0,0.8-0.3,1.2-0.9,1.2h-0.1c-1.1,0-2.1-0.7-2.9-2l-0.1-0.2l-0.7-2.6c-0.4-1.7-0.7-2.6-0.7-2.8c-0.2-0.4-0.5-0.5-0.8-0.5
									c-0.2,0-0.3,0-0.4,0.1c-0.1,0.1-0.2,0.2-0.2,0.2c0,0.1-0.1,0.1,0,0.2c0,0.2,0.2,1.2,0.7,3.2c0.5,2,0.8,3,0.8,3.2
									c0,0.1,0,0.2,0,0.5c0,0.5-0.2,0.8-0.5,0.8c-0.5,0-0.9-0.7-1.2-2c-0.1-0.3-0.1-0.4-0.1-0.4c0-0.1-0.2-0.1-0.4-0.1h-0.3
									C-1003.4,314.2-1003.5,314.3-1003.5,314.3z"/>
							</g>
						</g>
					</g>
				</g>
			</g>
		</g>
		<g>
			<g pointer-events="none" transform="translate(80,409.99999999999994)translate(-17.31982421875,0)">
				<g transform="matrix(1 0 0 -1 0 0)">
					<g>
						<path id="MJMAIN-7C_4_" class="st30" d="M-39.3-7.2L-39.3-7.2c-0.3,0-0.4,0.1-0.6,0.4V6.8l0,13.5c0.2,0.2,0.4,0.4,0.5,0.4
							c0.2,0,0.4-0.1,0.6-0.4v-27C-38.8-7-39-7.2-39.3-7.2L-39.3-7.2z"/>
					</g>
					<g>
						<path id="MJMATHI-3B8_1_" class="st30" d="M-34.4,5.4c0,1.9,0.4,3.9,1.1,6c0.7,2.1,1.7,3.9,3,5.4s2.5,2.4,3.9,2.6
							c0,0,0.1,0,0.2,0c0.1,0,0.2,0,0.3,0c1-0.1,1.8-0.5,2.3-1.4c0.7-1.1,1.1-2.6,1.1-4.5c0-2.1-0.4-4.3-1.3-6.5
							c-0.8-2.2-1.9-4-3.2-5.4c-1.3-1.4-2.5-2.1-3.7-2.1h-0.2c-0.7,0-1.2,0.2-1.7,0.6c-0.5,0.4-0.8,0.9-1.1,1.5s-0.4,1.2-0.5,1.9
							C-34.3,4-34.4,4.7-34.4,5.4z M-24.7,15.6c0,1.9-0.5,2.8-1.5,2.8c-0.7,0-1.3-0.4-2-1.3c-0.6-0.8-1.2-1.8-1.6-2.8
							c-0.4-1.1-0.7-2-0.9-2.8c-0.2-0.8-0.3-1.3-0.4-1.4c0.9,0,1.8,0,2.7,0l2.7,0c0,0,0.1,0.3,0.2,0.9s0.3,1.3,0.4,2.2
							C-24.8,14.2-24.7,14.9-24.7,15.6z M-32.2,3.5c0-2,0.5-3,1.5-3c0.3,0,0.6,0.1,0.9,0.3s0.7,0.5,1.1,1.1s0.9,1.3,1.3,2.4
							s0.9,2.5,1.3,4.1l0.1,0.5h-5.4c0-0.1-0.1-0.4-0.3-1.1s-0.3-1.4-0.4-2.2S-32.2,4.1-32.2,3.5z"/>
					</g>
					<g transform="translate(748,0)">
						<g>
							<path id="MJMAIN-7C_5_" class="st30" d="M-766.4-7.2L-766.4-7.2c-0.3,0-0.4,0.1-0.6,0.4V6.8l0,13.5c0.2,0.2,0.4,0.4,0.5,0.4
								c0.2,0,0.4-0.1,0.6-0.4v-27C-766-7-766.2-7.2-766.4-7.2L-766.4-7.2z"/>
						</g>
						<g transform="translate(278,-286)">
							<g transform="scale(0.707)">
								<path id="MJMATHI-73_1_" class="st31" d="M-1037.9,283.5c0,0.4,0.1,0.8,0.3,1.3c0.2,0.4,0.6,0.8,1.1,1.2
									c0.5,0.4,1.2,0.5,1.9,0.5c0.8,0,1.4-0.2,1.8-0.5c0.4-0.4,0.6-0.7,0.6-1.2c0-0.4-0.1-0.7-0.3-0.9c-0.2-0.2-0.5-0.3-0.7-0.3
									c-0.2,0-0.3,0.1-0.5,0.2s-0.2,0.3-0.2,0.5c0,0.2,0.1,0.4,0.2,0.6c0.1,0.2,0.2,0.3,0.3,0.4s0.2,0.1,0.3,0.1c0,0,0,0,0,0
									c0,0,0,0.1-0.1,0.2s-0.3,0.2-0.5,0.2c-0.2,0.1-0.5,0.1-0.8,0.1c-0.6,0-1.1-0.2-1.4-0.5c-0.3-0.3-0.4-0.7-0.5-1
									c0-0.3,0.1-0.6,0.4-0.7c0.2-0.1,0.6-0.2,1.1-0.3s0.8-0.2,1-0.3c0.9-0.4,1.3-1,1.3-1.9c0-0.4-0.1-0.7-0.2-1.1
									s-0.4-0.7-0.7-1.1s-0.7-0.7-1.2-0.9c-0.5-0.2-1.2-0.3-1.9-0.3c-1,0-1.7,0.2-2.1,0.6c-0.4,0.4-0.6,0.8-0.7,1.3
									c0,0.5,0.1,0.9,0.4,1.1c0.3,0.2,0.6,0.3,0.9,0.3c0.2,0,0.4-0.1,0.6-0.2s0.3-0.3,0.3-0.6c0-0.3-0.1-0.6-0.4-0.9
									s-0.4-0.4-0.6-0.4c0,0,0,0-0.1,0c0,0,0,0,0,0c0,0,0.1-0.1,0.2-0.2c0.1-0.1,0.3-0.2,0.6-0.3s0.7-0.2,1.1-0.1
									c0.5,0,0.9,0.1,1.2,0.2s0.6,0.3,0.7,0.6c0.2,0.2,0.3,0.4,0.3,0.6c0.1,0.2,0.1,0.3,0.1,0.5c0,0.4-0.1,0.6-0.4,0.8
									c-0.3,0.2-0.6,0.3-0.9,0.3c-0.4,0-0.7,0.1-1.2,0.3c-0.4,0.2-0.7,0.4-0.9,0.7C-1037.8,282.7-1037.9,283.1-1037.9,283.5z"/>
							</g>
							<g transform="scale(0.707)">
								<path id="MJMATHI-74_1_" class="st31" d="M-1030.8,285.4c-0.1,0.1-0.1,0.2-0.1,0.2c0,0.1,0,0.2,0.1,0.3
									c0,0.2,0.1,0.2,0.1,0.3c0,0.1,0.1,0.1,0.2,0.1c0.1,0,0.4,0,1,0h1l0.4,1.6c0,0.1,0.1,0.3,0.1,0.6c0.1,0.2,0.1,0.4,0.1,0.5
									s0.1,0.2,0.1,0.4c0,0.2,0.1,0.3,0.2,0.3c0.1,0.1,0.1,0.1,0.2,0.2s0.2,0.2,0.3,0.2c0.1,0,0.2,0,0.4,0c0.2,0,0.4-0.1,0.5-0.2
									s0.1-0.3,0.1-0.4c0-0.1-0.1-0.4-0.2-0.9c-0.1-0.5-0.2-1-0.4-1.6l-0.2-0.7c0,0,0.3,0,1,0h1c0.1-0.1,0.1-0.2,0.1-0.2
									c0-0.3-0.1-0.5-0.3-0.7h-2.1l-0.7-2.9c-0.5-2.1-0.8-3.2-0.8-3.4c0-0.6,0.2-0.8,0.5-0.8c0.5,0,0.9,0.2,1.3,0.7s0.8,1,1,1.7
									c0,0.1,0.1,0.1,0.1,0.1c0,0,0.1,0,0.3,0h0.1c0.2,0,0.3-0.1,0.3-0.2c0,0,0-0.1-0.1-0.2c-0.1-0.2-0.2-0.5-0.4-0.7
									s-0.4-0.6-0.7-0.9c-0.3-0.3-0.6-0.6-1-0.8c-0.4-0.2-0.8-0.3-1.2-0.3c-0.4,0-0.8,0.1-1.1,0.3s-0.6,0.5-0.8,1
									c0,0.1,0,0.3,0,0.5v0.4l0.7,2.8c0.5,1.9,0.7,2.8,0.7,2.8c0,0-0.3,0-1,0H-1030.8z"/>
							</g>
							<g transform="scale(0.707)">
								<path id="MJMATHI-64_1_" class="st31" d="M-1016.9,291.3c0,0,0.5,0,1.4,0.1c0.9,0.1,1.4,0.1,1.4,0.1c0.2,0,0.2-0.1,0.2-0.2
									c0-0.1-0.5-2.1-1.4-6s-1.5-5.9-1.5-5.9c0-0.1,0-0.2,0-0.3c0-0.6,0.2-0.8,0.6-0.8c0.1,0,0.2,0.1,0.4,0.2
									c0.3,0.3,0.5,0.9,0.8,1.9c0.1,0.3,0.1,0.4,0.2,0.4c0,0,0.1,0,0.2,0h0.1h0.1c0.2,0,0.3-0.1,0.3-0.2c0-0.1,0-0.2-0.1-0.3
									c-0.2-0.7-0.4-1.2-0.6-1.6c-0.2-0.4-0.4-0.7-0.6-0.8c-0.1-0.1-0.3-0.2-0.6-0.3c-0.1,0-0.3,0-0.5,0c-0.4,0-0.8,0.1-1.1,0.3
									c-0.3,0.2-0.5,0.4-0.6,0.6l-0.1,0.3c0,0,0,0-0.1,0c0,0-0.1-0.1-0.1-0.1c-0.8-0.7-1.6-1.1-2.4-1.1c-0.7,0-1.4,0.3-1.9,0.8
									c-0.6,0.5-0.8,1.4-0.8,2.5c0,0.6,0.1,1.3,0.4,1.9c0.3,0.7,0.6,1.2,0.9,1.7c0.6,0.7,1.2,1.3,1.9,1.6s1.2,0.4,1.7,0.4
									c0.7,0,1.3-0.3,1.7-0.8c0.1-0.1,0.1-0.1,0.1-0.1c0,0.1,0.2,0.8,0.5,2.1c0.3,1.4,0.5,2.1,0.6,2.2c0,0.2,0,0.3-0.1,0.3
									c-0.1,0-0.3,0.1-0.8,0.1h-0.4c-0.1,0.1-0.1,0.1-0.1,0.2s0,0.2,0,0.4C-1017.1,291.1-1017,291.3-1016.9,291.3z M-1017.2,284.2
									c-0.3,1-0.8,1.6-1.5,1.6c-0.5,0-0.9-0.2-1.3-0.6s-0.7-0.9-1-1.6c-0.4-1-0.7-2.1-0.8-3.2c0,0,0-0.1,0-0.2s0-0.2,0-0.2
									c0-0.6,0.1-1,0.4-1.2c0.2-0.2,0.5-0.3,0.8-0.4c0.7,0,1.4,0.5,2.2,1.4l0.2,0.2L-1017.2,284.2z"/>
							</g>
						</g>
					</g>
				</g>
			</g>
		</g>
		<g>
			<g pointer-events="none" transform="translate(190.2499999999999,600.9586015344687)translate(-29.1650390625,0)">
				<g transform="matrix(1 0 0 -1 0 0)">
					<g>
						<path id="MJMATHI-43" class="st32" d="M-21.1-32.4c0,2.1,0.6,4.2,1.9,6.2s2.8,3.5,4.7,4.7c1.9,1.2,3.8,1.7,5.7,1.8
							c1.7,0,3-0.5,4-1.4c0.2-0.2,0.3-0.3,0.4-0.5c0.1-0.1,0.2-0.2,0.2-0.3l0-0.1c0.1,0,0.3,0.2,0.8,0.7c0.1,0.1,0.3,0.2,0.4,0.4
							c0.1,0.1,0.3,0.3,0.4,0.4c0.1,0.1,0.2,0.3,0.3,0.3l0.4,0.4h0.2c0.3,0,0.4-0.1,0.4-0.2c0-0.1-0.3-1.3-0.9-3.8
							c-0.7-2.6-1-3.9-1-3.9c0-0.1-0.1-0.1-0.1-0.2c-0.1,0-0.2,0-0.5-0.1h-0.4c-0.1,0.1-0.2,0.2-0.2,0.3c0,0,0,0.1,0,0.2
							c0,0.1,0,0.3,0.1,0.6c0,0.3,0,0.6,0,0.9c0,1.3-0.3,2.5-0.9,3.5s-1.6,1.5-3,1.5c-0.5,0-1-0.1-1.6-0.2c-0.6-0.1-1.2-0.4-2-0.7
							c-0.8-0.3-1.6-0.8-2.3-1.6c-0.8-0.7-1.4-1.6-2-2.6c-0.6-1.1-1.1-2.3-1.4-3.7c-0.4-1.4-0.5-2.6-0.5-3.5c0-2.1,0.7-3.6,2.1-4.6
							c0.9-0.6,2-0.9,3.3-0.9c1.7,0,3.2,0.6,4.5,1.9c1.3,1.3,2.2,2.6,2.6,4.1c0.1,0.2,0.1,0.4,0.2,0.4c0,0,0.2,0.1,0.4,0.1
							c0.4,0,0.6-0.1,0.6-0.3c0-0.1,0-0.2,0-0.3c-0.5-2-1.7-3.7-3.5-5.1c-1.8-1.4-3.7-2.1-5.7-2.1c-2.1,0-3.9,0.7-5.3,2.1
							S-21.1-34.7-21.1-32.4z"/>
					</g>
					<g>
						<path id="MJMATHI-4E" class="st32" d="M5.2-21.7c-0.1,0-0.1,0-0.2,0c-0.5,0-0.7,0-0.8,0C4-21.6,4-21.5,4-21.4
							c0,0.5,0.1,0.8,0.3,0.9c0,0,0.9,0,2.7,0c1.4,0,2.2,0,2.5,0s0.3-0.1,0.4-0.2c3.9-9.2,5.9-13.9,6-14.2l1.5,5.9
							c1,3.9,1.5,6,1.5,6.3c0,0.5-0.6,0.8-1.8,0.9c-0.4,0-0.7,0.1-0.7,0.3c0,0,0,0.1,0.1,0.3c0.1,0.3,0.1,0.5,0.2,0.5
							s0.1,0.1,0.3,0.1c0.1,0,0.3,0,0.9,0s1.3,0,2.3-0.1c0.9,0,1.6,0,2.1,0s0.8,0,0.8,0c0.3,0,0.4-0.1,0.4-0.3
							c0-0.4-0.1-0.7-0.2-0.8c0-0.1-0.2-0.1-0.6-0.1c-1.3-0.1-2.1-0.4-2.5-1.1l-4.2-16.4c0-0.1-0.2-0.2-0.6-0.2
							c-0.3,0-0.4,0-0.5,0.1c-0.1,0.1-1.3,2.9-3.6,8.4l-3.5,8.3l-1.8-7.2c-1.2-4.8-1.8-7.2-1.8-7.4c0.1-0.6,0.8-0.9,2-0.9h0.3
							c0.1-0.1,0.2-0.2,0.2-0.2c0-0.1,0-0.2-0.1-0.5c-0.1-0.2-0.2-0.4-0.3-0.5H5.9c-0.6,0-1.6,0.1-3,0.1c-0.5,0-1,0-1.4,0
							s-0.8,0-1,0s-0.4,0-0.5,0c-0.3,0-0.4,0.1-0.4,0.3c0,0.1,0,0.2,0.1,0.4s0.1,0.4,0.1,0.4c0,0.1,0.3,0.2,0.6,0.2
							c1.3,0.1,2.1,0.4,2.5,1.1c0.1,0.1,0.7,2.7,2,7.7l1.9,7.6C6.7-21.8,6.2-21.7,5.2-21.7z"/>
					</g>
					<g transform="translate(1649,0)">
						<g>
							<path id="MJMATHI-56" class="st32" d="M-1624.1-21.4c0,0.4,0.1,0.7,0.4,1h0.3c0.8-0.1,1.8-0.1,2.9-0.1c2.2,0,3.5,0,3.9,0.1
								h0.3c0.1-0.1,0.2-0.2,0.2-0.3s0-0.2-0.1-0.5c-0.1-0.3-0.2-0.5-0.3-0.5h-0.6c-0.4,0-0.7-0.1-0.8-0.1c-0.5-0.1-0.8-0.2-0.9-0.4
								c0,0,0.3-2.4,0.8-7c0.5-4.6,0.8-7,0.8-7l2,3.3c1.4,2.2,2.7,4.4,4.1,6.6s2.1,3.4,2.1,3.4c0.1,0.1,0.1,0.3,0.1,0.4
								c0,0.4-0.4,0.7-1.2,0.8c-0.3,0-0.5,0.1-0.5,0.3c0,0,0,0.1,0.1,0.4c0.1,0.3,0.1,0.4,0.2,0.5s0.2,0.1,0.4,0.1c0,0,0.1,0,0.3,0
								s0.5,0,0.9,0s1,0,1.8,0c1.3,0,2.1,0,2.4,0.1h0.2c0.1-0.1,0.2-0.2,0.2-0.3c0-0.3-0.1-0.6-0.3-0.9c-0.1-0.1-0.2-0.1-0.5-0.1
								c-0.2,0-0.5,0-0.7-0.1c-0.2,0-0.4-0.1-0.6-0.1s-0.3-0.1-0.4-0.2c-0.1-0.1-0.2-0.1-0.3-0.2s-0.2-0.2-0.3-0.2s-0.1-0.1-0.2-0.3
								c-0.1-0.1-0.1-0.2-0.2-0.2l-5.4-8.6c-3.3-5.4-5.1-8.2-5.2-8.3c-0.1,0-0.1-0.1-0.2-0.1l-0.5,0h-0.2c-0.3,0-0.5,0.1-0.5,0.2
								c-0.1,0.1-0.4,3.1-1.1,8.9c-0.7,5.9-1.1,8.9-1.1,8.9c-0.1,0.2-0.7,0.3-1.7,0.3h-0.5C-1624.1-21.6-1624.1-21.5-1624.1-21.4z"
								/>
						</g>
						<g transform="translate(583,-150)">
							<g transform="scale(0.707)">
								<path id="MJMATHI-73_2_" class="st33" d="M-2189.7,112.1c0,0.4,0.1,0.8,0.3,1.3c0.2,0.4,0.6,0.8,1.1,1.2
									c0.5,0.4,1.2,0.5,1.9,0.5c0.8,0,1.4-0.2,1.8-0.5c0.4-0.4,0.6-0.7,0.6-1.2c0-0.4-0.1-0.7-0.3-0.9c-0.2-0.2-0.5-0.3-0.7-0.3
									c-0.2,0-0.3,0.1-0.5,0.2c-0.1,0.1-0.2,0.3-0.2,0.5c0,0.2,0.1,0.4,0.2,0.6c0.1,0.2,0.2,0.3,0.3,0.4c0.1,0.1,0.2,0.1,0.3,0.1
									c0,0,0,0,0,0c0,0,0,0.1-0.1,0.2c-0.1,0.1-0.3,0.2-0.5,0.2c-0.2,0.1-0.5,0.1-0.8,0.1c-0.6,0-1.1-0.2-1.4-0.5
									c-0.3-0.3-0.4-0.7-0.5-1c0-0.3,0.1-0.6,0.4-0.7c0.2-0.1,0.6-0.2,1.1-0.3s0.8-0.2,1-0.3c0.9-0.4,1.3-1,1.3-1.9
									c0-0.4-0.1-0.7-0.2-1.1c-0.1-0.4-0.4-0.7-0.7-1.1c-0.3-0.4-0.7-0.7-1.2-0.9c-0.5-0.2-1.2-0.3-1.9-0.3c-1,0-1.7,0.2-2.1,0.6
									s-0.6,0.8-0.7,1.3c0,0.5,0.1,0.9,0.4,1.1s0.6,0.3,0.9,0.3c0.2,0,0.4-0.1,0.6-0.2c0.2-0.1,0.3-0.3,0.3-0.6
									c0-0.3-0.1-0.6-0.4-0.9s-0.4-0.4-0.6-0.4c0,0,0,0-0.1,0s0,0,0,0c0,0,0.1-0.1,0.2-0.2c0.1-0.1,0.3-0.2,0.6-0.3
									c0.3-0.1,0.7-0.2,1.1-0.1c0.5,0,0.9,0.1,1.2,0.2s0.6,0.3,0.7,0.6s0.3,0.4,0.3,0.6c0.1,0.2,0.1,0.3,0.1,0.5
									c0,0.4-0.1,0.6-0.4,0.8c-0.3,0.2-0.6,0.3-0.9,0.3c-0.4,0-0.7,0.1-1.2,0.3s-0.7,0.4-0.9,0.7
									C-2189.6,111.3-2189.7,111.6-2189.7,112.1z"/>
							</g>
							<g transform="scale(0.707)">
								<path id="MJMATHI-74_2_" class="st33" d="M-2182.6,114c-0.1,0.1-0.1,0.2-0.1,0.2c0,0.1,0,0.2,0.1,0.3c0,0.2,0.1,0.2,0.1,0.3
									c0,0.1,0.1,0.1,0.2,0.1s0.4,0,1,0h1l0.4,1.6c0,0.1,0.1,0.3,0.1,0.6c0.1,0.2,0.1,0.4,0.1,0.5c0,0.1,0.1,0.2,0.1,0.4
									c0,0.2,0.1,0.3,0.2,0.3s0.1,0.1,0.2,0.2c0.1,0.1,0.2,0.2,0.3,0.2c0.1,0,0.2,0,0.4,0c0.2,0,0.4-0.1,0.5-0.2s0.1-0.3,0.1-0.4
									c0-0.1-0.1-0.4-0.2-0.9c-0.1-0.5-0.2-1-0.4-1.6l-0.2-0.7c0,0,0.3,0,1,0h1c0.1-0.1,0.1-0.2,0.1-0.2c0-0.3-0.1-0.5-0.3-0.7
									h-2.1l-0.7-2.9c-0.5-2.1-0.8-3.2-0.8-3.4c0-0.6,0.2-0.8,0.5-0.8c0.5,0,0.9,0.2,1.3,0.7c0.4,0.4,0.8,1,1,1.7
									c0,0.1,0.1,0.1,0.1,0.1c0,0,0.1,0,0.3,0h0.1c0.2,0,0.3-0.1,0.3-0.2c0,0,0-0.1-0.1-0.2c-0.1-0.2-0.2-0.5-0.4-0.7
									c-0.2-0.3-0.4-0.6-0.7-0.9c-0.3-0.3-0.6-0.6-1-0.8s-0.8-0.3-1.2-0.3c-0.4,0-0.8,0.1-1.1,0.3c-0.4,0.2-0.6,0.5-0.8,1
									c0,0.1,0,0.3,0,0.5v0.4l0.7,2.8c0.5,1.9,0.7,2.8,0.7,2.8c0,0-0.3,0-1,0H-2182.6z"/>
							</g>
							<g transform="scale(0.707)">
								<path id="MJMATHI-64_2_" class="st33" d="M-2168.7,119.8c0,0,0.5,0,1.4,0.1s1.4,0.1,1.4,0.1c0.2,0,0.2-0.1,0.2-0.2
									c0-0.1-0.5-2.1-1.4-6c-1-3.9-1.5-5.9-1.5-5.9c0-0.1,0-0.2,0-0.3c0-0.6,0.2-0.8,0.6-0.8c0.1,0,0.2,0.1,0.4,0.2
									c0.3,0.3,0.5,0.9,0.8,1.9c0.1,0.3,0.1,0.4,0.2,0.4c0,0,0.1,0,0.2,0h0.1h0.1c0.2,0,0.3-0.1,0.3-0.2c0-0.1,0-0.2-0.1-0.3
									c-0.2-0.7-0.4-1.2-0.6-1.6c-0.2-0.4-0.4-0.7-0.6-0.8c-0.1-0.1-0.3-0.2-0.6-0.3c-0.1,0-0.3,0-0.5,0c-0.4,0-0.8,0.1-1.1,0.3
									c-0.3,0.2-0.5,0.4-0.6,0.6l-0.1,0.3c0,0,0,0-0.1,0c0,0-0.1-0.1-0.1-0.1c-0.8-0.7-1.6-1.1-2.4-1.1c-0.7,0-1.4,0.3-1.9,0.8
									s-0.8,1.4-0.8,2.5c0,0.6,0.1,1.3,0.4,1.9c0.3,0.7,0.6,1.2,0.9,1.7c0.6,0.7,1.2,1.3,1.9,1.6s1.2,0.4,1.7,0.4
									c0.7,0,1.3-0.3,1.7-0.8c0.1-0.1,0.1-0.1,0.1-0.1c0,0.1,0.2,0.8,0.5,2.1c0.3,1.4,0.5,2.1,0.6,2.2c0,0.2,0,0.3-0.1,0.3
									c-0.1,0-0.3,0.1-0.8,0.1h-0.4c-0.1,0.1-0.1,0.1-0.1,0.2c0,0,0,0.2,0,0.4C-2168.9,119.7-2168.8,119.8-2168.7,119.8z
									 M-2169,112.8c-0.3,1-0.8,1.6-1.5,1.6c-0.5,0-0.9-0.2-1.3-0.6c-0.4-0.4-0.7-0.9-1-1.6c-0.4-1-0.7-2.1-0.8-3.2
									c0,0,0-0.1,0-0.2s0-0.2,0-0.2c0-0.6,0.1-1,0.4-1.2c0.2-0.2,0.5-0.3,0.8-0.4c0.7,0,1.4,0.5,2.2,1.4l0.2,0.2L-2169,112.8z"/>
							</g>
						</g>
					</g>
				</g>
			</g>
		</g>
		<g>
			<g pointer-events="none" transform="translate(410.75,600.9586015344687)translate(27.4345703125,0)">
				<g transform="matrix(1 0 0 -1 0 0)">
					<g>
						<path id="MJMATHI-50" class="st34" d="M-20.3-20.6c0,0.1-0.5,0.2-1.6,0.3c-0.4,0-0.7,0-0.9,0c-0.1,0-0.2,0.1-0.2,0.3
							c0,0,0,0.1,0.1,0.3c0.1,0.4,0.2,0.6,0.3,0.6c0.1,0,1.9,0.1,5.4,0.1c3.5,0,5.4,0,5.7-0.1c1.2-0.2,2.2-0.7,3-1.4
							c0.8-0.7,1.2-1.6,1.2-2.8c0-1.4-0.6-2.7-1.8-3.9c-1.3-1.3-2.9-2.1-5-2.4c-0.1,0-1.1,0-2.9-0.1h-2.6l-0.8-3.3
							c-0.6-2.2-0.8-3.3-0.8-3.4c0-0.1,0-0.1,0-0.1s0.1-0.1,0.2-0.1s0.3-0.1,0.5-0.1s0.5,0,0.9-0.1h0.9c0.1-0.2,0.2-0.3,0.2-0.3
							c0-0.3-0.1-0.6-0.2-0.8c-0.1-0.1-0.2-0.1-0.4-0.1c-0.1,0-0.4,0-1,0s-1.6,0-2.8,0c-1.2,0-2,0-2.6,0c-0.6,0-0.9,0-1,0
							c-0.3,0-0.5,0.1-0.5,0.3c0,0,0,0.2,0.1,0.4c0.1,0.3,0.1,0.5,0.2,0.5c0.1,0,0.3,0.1,0.6,0.1c0.5,0,1.1,0,1.7,0.1
							c0.3,0.1,0.4,0.2,0.5,0.3c0.1,0.1,0.7,2.7,2,7.7C-20.9-23.5-20.3-20.8-20.3-20.6z M-10.3-22.6c0,0.2,0,0.4-0.1,0.6
							c0,0.1-0.1,0.4-0.3,0.6c-0.1,0.3-0.4,0.5-0.7,0.6c-0.3,0.1-0.8,0.3-1.4,0.4c-0.1,0-0.9,0-2.2,0.1c-0.3,0-0.6,0-1,0
							c-0.3,0-0.6,0-0.8,0c-0.2,0-0.3,0-0.3,0c-0.2,0-0.4-0.1-0.5-0.3c0-0.1-0.2-0.8-0.5-2.1s-0.6-2.6-1-3.8
							c-0.3-1.2-0.5-1.9-0.5-1.9c0,0,0.8-0.1,2.3-0.1h0.3h0.6c2.1,0,3.6,0.5,4.5,1.4c0.5,0.5,0.9,1.2,1.1,2.2
							C-10.4-24-10.3-23.2-10.3-22.6z"/>
					</g>
					<g transform="translate(751,0)">
						<g>
							<path id="MJMAIN-31" class="st34" d="M-752.4-21.9l-0.4-0.1c-0.3-0.1-0.6-0.2-1.1-0.3c-0.5-0.1-1-0.2-1.6-0.2h-0.5v1.3h0.5
								c0.9,0,1.7,0.2,2.4,0.4c0.7,0.2,1.3,0.5,1.6,0.7c0.3,0.2,0.6,0.4,0.8,0.6c0,0.1,0.1,0.1,0.3,0.1c0.2,0,0.3-0.1,0.5-0.2V-28
								l0-8.4c0.1-0.1,0.2-0.2,0.3-0.3c0.1,0,0.3-0.1,0.7-0.1s0.9-0.1,1.7-0.1h0.7v-1.3h-0.3c-0.4,0.1-1.9,0.1-4.4,0.1
								c-2.5,0-4,0-4.4-0.1h-0.3v1.3h0.7c0.4,0,0.8,0,1.1,0c0.3,0,0.5,0,0.7,0s0.3,0,0.4,0.1s0.2,0.1,0.2,0.1c0,0,0.1,0,0.2,0.1
								c0.1,0.1,0.1,0.1,0.2,0.1V-21.9z"/>
						</g>
						<g transform="translate(500,-150)">
							<g transform="scale(0.707)">
								<path id="MJMATHI-6D_2_" class="st35" d="M-1244,113.4c0,0.1,0,0.2,0.1,0.3c0,0.1,0.1,0.4,0.2,0.7c0.1,0.4,0.3,0.7,0.4,0.9
									s0.3,0.5,0.6,0.7c0.3,0.2,0.6,0.3,0.9,0.3c0.3,0,0.6-0.1,0.8-0.1s0.5-0.2,0.6-0.4c0.1-0.2,0.2-0.3,0.3-0.4
									c0.1-0.1,0.1-0.3,0.2-0.4l0-0.1c0,0,0,0,0,0l0.2,0.2c0.8,0.8,1.7,1.3,2.8,1.3c0.2,0,0.4,0,0.6,0c0.2,0,0.4-0.1,0.5-0.1
									c0.2-0.1,0.3-0.1,0.4-0.2c0.1-0.1,0.2-0.1,0.3-0.2s0.2-0.2,0.2-0.3s0.1-0.2,0.2-0.3c0.1-0.1,0.1-0.2,0.1-0.2
									c0-0.1,0-0.1,0.1-0.2c0.1-0.1,0.1-0.1,0-0.1l0.2,0.2c0.8,1,1.8,1.5,2.9,1.5c0.7,0,1.3-0.2,1.7-0.5c0.4-0.4,0.7-0.9,0.7-1.6
									c0-0.7-0.2-1.7-0.7-3.1c-0.5-1.4-0.7-2.2-0.7-2.5c0-0.2,0-0.3,0.1-0.4c0.1-0.1,0.2-0.1,0.3-0.1c0.4,0,0.7,0.2,1,0.6
									c0.3,0.4,0.6,0.9,0.8,1.6c0,0.1,0.1,0.2,0.1,0.3c0,0,0.1,0,0.3,0c0.3,0,0.4-0.1,0.4-0.2c0,0,0-0.1-0.1-0.3
									c-0.1-0.4-0.2-0.8-0.4-1.1c-0.2-0.4-0.5-0.7-0.9-1.1s-0.9-0.5-1.4-0.5c-0.6,0-1.1,0.2-1.3,0.5s-0.4,0.7-0.4,1.1
									c0,0.2,0.2,1,0.7,2.4c0.5,1.3,0.7,2.3,0.7,3c0,0.8-0.3,1.2-0.9,1.2h-0.1c-1.1,0-2.1-0.7-2.9-2l-0.1-0.2l-0.7-2.6
									c-0.4-1.7-0.7-2.6-0.7-2.8c-0.2-0.4-0.5-0.5-0.8-0.5c-0.2,0-0.3,0-0.4,0.1c-0.1,0.1-0.2,0.2-0.2,0.2c0,0.1-0.1,0.1-0.1,0.2
									c0,0.1,0.2,1.1,0.7,2.8l0.7,2.9c0,0.2,0.1,0.4,0.1,0.7c0,0.8-0.3,1.2-0.9,1.2h-0.1c-1.1,0-2.1-0.7-2.9-2l-0.1-0.2l-0.7-2.6
									c-0.4-1.7-0.7-2.6-0.7-2.8c-0.2-0.4-0.5-0.5-0.8-0.5c-0.2,0-0.3,0-0.4,0.1c-0.1,0.1-0.2,0.2-0.2,0.2c0,0.1-0.1,0.1,0,0.2
									c0,0.2,0.2,1.2,0.7,3.2c0.5,2,0.8,3.1,0.8,3.2c0,0.2,0.1,0.4,0.1,0.5c0,0.5-0.2,0.7-0.5,0.7c-0.3,0-0.5-0.2-0.7-0.6
									s-0.3-0.8-0.5-1.2c-0.1-0.4-0.2-0.7-0.2-0.7c0,0-0.1,0-0.3,0h-0.3C-1243.9,113.3-1244,113.4-1244,113.4z"/>
							</g>
							<g transform="scale(0.707)">
								<path id="MJMATHI-65_2_" class="st35" d="M-1226.3,111.1c0,0.7,0.1,1.4,0.4,2c0.2,0.6,0.6,1.1,1,1.5c0.4,0.4,0.8,0.7,1.3,1
									c0.5,0.3,0.9,0.5,1.4,0.6c0.4,0.1,0.8,0.2,1.2,0.2h0.1c0.6,0,1.1-0.1,1.5-0.4c0.4-0.3,0.7-0.7,0.7-1.3c0-1.2-0.7-2-2.2-2.3
									c-0.6-0.2-1.5-0.3-2.6-0.3c-0.5,0-0.7,0-0.7,0c0,0,0-0.3-0.1-0.7c-0.1-0.4-0.1-0.8-0.1-1.1c0-0.6,0.1-1.1,0.4-1.5
									c0.3-0.4,0.7-0.5,1.2-0.6s1.2,0.1,1.8,0.4c0.7,0.3,1.3,0.7,1.8,1.3c0.1,0.1,0.2,0.2,0.2,0.2c0.1,0,0.1-0.1,0.3-0.2
									c0.1-0.1,0.2-0.2,0.2-0.3c0-0.1,0-0.2-0.2-0.3s-0.3-0.3-0.6-0.5c-0.3-0.2-0.6-0.4-0.9-0.6s-0.8-0.4-1.2-0.5
									c-0.5-0.1-1-0.2-1.5-0.2c-1,0-1.8,0.3-2.4,1C-1226,109.3-1226.3,110.1-1226.3,111.1z M-1219.7,114.7c-0.1,0.7-0.5,1-1.3,1
									c-0.4,0-0.8-0.1-1.2-0.3c-0.4-0.2-0.7-0.4-0.9-0.7c-0.2-0.3-0.4-0.5-0.6-0.8c-0.2-0.3-0.3-0.5-0.3-0.7
									c-0.1-0.2-0.1-0.3-0.1-0.4c0,0,0.1,0,0.4,0c1.5,0,2.5,0.2,3.1,0.5C-1220.1,113.7-1219.8,114.1-1219.7,114.7z"/>
							</g>
							<g transform="scale(0.707)">
								<path id="MJMATHI-61_2_" class="st35" d="M-1217.2,110.9c0,1.3,0.5,2.6,1.5,3.8s2.1,1.8,3.4,1.8c0.7,0,1.3-0.3,1.8-1
									c0.2,0.4,0.5,0.6,0.9,0.6c0.2,0,0.3-0.1,0.5-0.2c0.1-0.1,0.2-0.2,0.2-0.4c0-0.2-0.2-1.2-0.7-3.2c-0.5-1.9-0.7-3-0.7-3.3
									c0-0.3,0-0.5,0.1-0.7c0.1-0.1,0.2-0.2,0.4-0.2c0.1,0,0.2,0.1,0.4,0.2c0.3,0.3,0.5,0.9,0.8,1.9c0.1,0.3,0.1,0.4,0.2,0.4
									c0,0,0.1,0,0.2,0h0.1c0.2,0,0.4-0.1,0.4-0.2c0-0.1,0-0.3-0.1-0.5s-0.2-0.6-0.4-1.1s-0.4-0.8-0.6-1c-0.2-0.2-0.4-0.3-0.6-0.4
									c-0.1,0-0.3,0-0.5,0c-0.4,0-0.8,0.1-1.1,0.3s-0.5,0.4-0.6,0.6l-0.1,0.3c0,0,0,0-0.1,0c0,0-0.1-0.1-0.1-0.1
									c-0.8-0.7-1.6-1.1-2.4-1.1c-0.7,0-1.4,0.3-1.9,0.8C-1217,108.9-1217.2,109.7-1217.2,110.9z M-1211,114.2
									c0,0.1,0,0.2-0.1,0.4c-0.1,0.2-0.2,0.4-0.5,0.7c-0.2,0.2-0.5,0.4-0.9,0.4c-0.5,0-0.9-0.2-1.3-0.6s-0.7-0.9-1-1.6
									c-0.4-1-0.7-2.1-0.8-3.2c0,0,0-0.1,0-0.2s0-0.2,0-0.2c0-0.6,0.1-1,0.4-1.2c0.2-0.2,0.5-0.3,0.8-0.4c0.5,0,1,0.2,1.5,0.7
									c0.5,0.4,0.8,0.8,0.9,1c0,0.1,0.2,0.8,0.5,2.1C-1211.2,113.4-1211,114.1-1211,114.2z"/>
							</g>
							<g transform="scale(0.707)">
								<path id="MJMATHI-6E_2_" class="st35" d="M-1207.1,113.4c0,0.1,0,0.2,0.1,0.3c0,0.1,0.1,0.4,0.2,0.7
									c0.1,0.4,0.3,0.7,0.4,0.9s0.3,0.5,0.7,0.7c0.3,0.2,0.6,0.3,0.9,0.3c0.5,0,0.9-0.1,1.2-0.4c0.3-0.2,0.5-0.5,0.6-0.7
									c0.1-0.2,0.1-0.3,0.1-0.4c0,0,0,0,0,0l0.2,0.2c0.8,0.8,1.7,1.3,2.7,1.3c0.7,0,1.3-0.2,1.7-0.5c0.4-0.4,0.7-0.9,0.7-1.6
									c0-0.7-0.2-1.7-0.7-3.1c-0.5-1.4-0.8-2.2-0.7-2.5c0-0.3,0.1-0.5,0.3-0.5c0.1,0,0.1,0,0.2,0c0.4,0.1,0.7,0.3,1,0.7
									c0.3,0.4,0.5,1,0.7,1.6c0,0.1,0.2,0.2,0.4,0.2c0.3,0,0.4-0.1,0.4-0.2c0,0,0-0.1-0.1-0.3c-0.1-0.4-0.2-0.8-0.4-1.1
									c-0.2-0.4-0.5-0.7-0.9-1.1c-0.4-0.4-0.9-0.5-1.4-0.5c-0.6,0-1.1,0.2-1.3,0.5s-0.4,0.7-0.4,1.1c0,0.2,0.2,1,0.7,2.4
									c0.5,1.3,0.7,2.3,0.7,3c0,0.8-0.3,1.2-0.9,1.2h-0.1c-1.1,0-2.1-0.7-2.9-2l-0.1-0.2l-0.7-2.6c-0.4-1.7-0.7-2.6-0.7-2.8
									c-0.2-0.4-0.5-0.5-0.8-0.5c-0.2,0-0.3,0-0.4,0.1c-0.1,0.1-0.2,0.2-0.2,0.2c0,0.1-0.1,0.1,0,0.2c0,0.2,0.2,1.2,0.7,3.2
									c0.5,2,0.8,3,0.8,3.2c0,0.1,0,0.2,0,0.5c0,0.5-0.2,0.8-0.5,0.8c-0.5,0-0.9-0.7-1.2-2c-0.1-0.3-0.1-0.4-0.1-0.4
									c0-0.1-0.2-0.1-0.4-0.1h-0.3C-1207,113.3-1207.1,113.4-1207.1,113.4z"/>
							</g>
						</g>
					</g>
				</g>
			</g>
		</g>
		<g transform="translate(300.5,409.99999999999994)">
			<g>
				<text transform="matrix(0.8192 0.5736 -0.5736 0.8192 1.4347 11.0541)" class="st36 st37">0.35</text>
			</g>
			<g>
				<text transform="matrix(0.8192 0.5736 -0.5736 0.8192 34.8448 11.0541)" class="st36 st37">0.4</text>
			</g>
			<g>
				<text transform="matrix(0.8192 0.5736 -0.5736 0.8192 68.255 11.0541)" class="st36 st37">0.45</text>
			</g>
			<g>
				<text transform="matrix(0.8192 0.5736 -0.5736 0.8192 101.6647 11.0541)" class="st36 st37">0.5</text>
			</g>
			<g>
				<text transform="matrix(0.8192 0.5736 -0.5736 0.8192 135.0748 11.0541)" class="st36 st37">0.55</text>
			</g>
			<g>
				<text transform="matrix(0.8192 0.5736 -0.5736 0.8192 168.485 11.0541)" class="st36 st37">0.6</text>
			</g>
			<g>
				<text transform="matrix(0.8192 0.5736 -0.5736 0.8192 201.8849 11.0541)" class="st36 st37">0.65</text>
			</g>
		</g>
	</g>
</g>
<g>
	<g pointer-events="all" transform="translate(529.8199999999999,100)">
		<rect x="0" y="0" shape-rendering="crispEdges" class="st0" width="258" height="188"/>
		<g>
			<defs>
				<rect id="SVGID_21_" x="0" y="0" width="258" height="188"/>
			</defs>
			<clipPath id="SVGID_22_">
				<use xlink:href="#SVGID_21_"  style="overflow:visible;"/>
			</clipPath>
			<g transform="" class="st38">
				<g>
					<g transform="translate(0,22.75)">
						<text transform="matrix(1 0 0 1 40 9.75)" class="st36 st39">Chance: AUC = 0.5</text>
						<g>
							<g>
								<path class="st40" d="M5,0h30"/>
							</g>
							<g>
								<g>
									<path class="st3" d="M23,0c0,1.7-1.3,3-3,3s-3-1.3-3-3s1.3-3,3-3S23-1.7,23,0z"/>
								</g>
							</g>
						</g>
						<rect x="0" y="-17.7" class="st41" width="252.6" height="35.5"/>
					</g>
					<g transform="translate(0,58.25)">
						<text transform="matrix(1 0 0 1 40 9.75)" class="st36 st39">about-task vs on-task</text>
						<g>
							<g>
								<path class="st5" d="M5,0h30v6H5V0z"/>
							</g>
							<g>
								<path class="st42" d="M5,0h30"/>
							</g>
							<g>
								<g>
									<path class="st43" d="M25,0c0,2.8-2.2,5-5,5s-5-2.2-5-5s2.2-5,5-5S25-2.8,25,0z"/>
								</g>
							</g>
						</g>
						<rect x="0" y="-17.7" class="st41" width="252.6" height="35.5"/>
					</g>
					<g transform="translate(0,93.75)">
						<text transform="matrix(1 0 0 1 40 9.75)" class="st36 st39">distracted vs on-task</text>
						<g>
							<g>
								<path class="st9" d="M5,0h30v6H5V0z"/>
							</g>
							<g>
								<path class="st44" d="M5,0h30"/>
							</g>
							<g>
								<g>
									<path class="st45" d="M25,0c0,2.8-2.2,5-5,5s-5-2.2-5-5s2.2-5,5-5S25-2.8,25,0z"/>
								</g>
							</g>
						</g>
						<rect x="0" y="-17.7" class="st41" width="252.6" height="35.5"/>
					</g>
					<g transform="translate(0,129.25)">
						<text transform="matrix(1 0 0 1 40 9.75)" class="st36 st39">dTUT vs on-task</text>
						<g>
							<g>
								<path class="st14" d="M5,0h30v6H5V0z"/>
							</g>
							<g>
								<path class="st46" d="M5,0h30"/>
							</g>
							<g>
								<g>
									<path class="st16" d="M16.2,0l-1.9-3.3h3.8L20-6.6l1.9,3.3h3.8L23.8,0l1.9,3.3h-3.8L20,6.6l-1.9-3.3h-3.8L16.2,0z"/>
								</g>
							</g>
						</g>
						<rect x="0" y="-17.7" class="st41" width="252.6" height="35.5"/>
					</g>
					<g transform="translate(0,164.75)">
						<text transform="matrix(1 0 0 1 40 9.75)" class="st36 st39">sTUT vs on-task</text>
						<g>
							<g>
								<path class="st20" d="M5,0h30v6H5V0z"/>
							</g>
							<g>
								<path class="st47" d="M5,0h30"/>
							</g>
							<g>
								<g>
									<path class="st48" d="M25,0c0,2.8-2.2,5-5,5s-5-2.2-5-5s2.2-5,5-5S25-2.8,25,0z"/>
								</g>
							</g>
						</g>
						<rect x="0" y="-17.7" class="st41" width="252.6" height="35.5"/>
					</g>
				</g>
			</g>
		</g>
		<polygon class="st49" points="0,0 0,0 0,0 0,0 0,0 0,0 0,0 0,0 		"/>
	</g>
	<g>
		<text transform="matrix(1 0 0 1 394.915 441.0479)" class="st36 st50">AUC</text>
	</g>
</g>
</svg>
