<?xml version="1.0" encoding="utf-8"?>
<!-- Generator: Adobe Illustrator 24.0.2, SVG Export Plug-In . SVG Version: 6.00 Build 0)  -->
<svg version="1.1" id="Layer_1" focusable="false" xmlns="http://www.w3.org/2000/svg" xmlns:xlink="http://www.w3.org/1999/xlink"
	 x="0px" y="0px" viewBox="0 0 800 800" style="enable-background:new 0 0 800 800;" xml:space="preserve">
<style type="text/css">
	.st0{fill:#FFFFFF;}
	.st1{fill:none;stroke:#EBF0F8;}
	.st2{clip-path:url(#SVGID_4_);fill:none;stroke:#808080;stroke-width:2;stroke-miterlimit:2;stroke-dasharray:9,9;}
	.st3{clip-path:url(#SVGID_10_);}
	.st4{fill:#42B9B2;fill-opacity:0.2;}
	.st5{clip-path:url(#SVGID_12_);fill:none;stroke:#42B9B2;stroke-width:2;stroke-miterlimit:2;}
	.st6{fill:#42B9B2;}
	.st7{fill:none;stroke:#42B9B2;stroke-miterlimit:2;}
	.st8{clip-path:url(#SVGID_14_);}
	.st9{fill:#DE237B;fill-opacity:0.2;}
	.st10{clip-path:url(#SVGID_16_);fill:none;stroke:#DE237B;stroke-width:2;stroke-miterlimit:2;}
	.st11{fill:none;stroke:#DE237B;stroke-miterlimit:2;}
	.st12{fill:#DE237B;}
	.st13{stroke:#000000;stroke-width:1.393582e-02;stroke-miterlimit:10;}
	.st14{stroke:#000000;stroke-width:9.852624e-03;stroke-miterlimit:10;}
	.st15{stroke:#000000;stroke-width:1.393503e-02;stroke-miterlimit:10;}
	.st16{stroke:#000000;stroke-width:9.852064e-03;stroke-miterlimit:10;}
	.st17{stroke:#000000;stroke-width:1.393472e-02;stroke-miterlimit:10;}
	.st18{stroke:#000000;stroke-width:9.851844e-03;stroke-miterlimit:10;}
	.st19{stroke:#000000;stroke-width:1.393640e-02;stroke-miterlimit:10;}
	.st20{stroke:#000000;stroke-width:9.853035e-03;stroke-miterlimit:10;}
	.st21{stroke:#000000;stroke-width:1.393393e-02;stroke-miterlimit:10;}
	.st22{stroke:#000000;stroke-width:9.851291e-03;stroke-miterlimit:10;}
	.st23{stroke:#000000;stroke-width:1.393611e-02;stroke-miterlimit:10;}
	.st24{stroke:#000000;stroke-width:9.852829e-03;stroke-miterlimit:10;}
	.st25{stroke:#000000;stroke-width:1.393490e-02;stroke-miterlimit:10;}
	.st26{stroke:#000000;stroke-width:9.851974e-03;stroke-miterlimit:10;}
	.st27{stroke:#000000;stroke-width:1.393517e-02;stroke-miterlimit:10;}
	.st28{stroke:#000000;stroke-width:9.852169e-03;stroke-miterlimit:10;}
	.st29{stroke:#000000;stroke-width:1.393479e-02;stroke-miterlimit:10;}
	.st30{stroke:#000000;stroke-width:9.851899e-03;stroke-miterlimit:10;}
	.st31{stroke:#000000;stroke-width:1.393520e-02;stroke-miterlimit:10;}
	.st32{stroke:#000000;stroke-width:9.852188e-03;stroke-miterlimit:10;}
	.st33{stroke:#000000;stroke-width:1.393561e-02;stroke-miterlimit:10;}
	.st34{stroke:#000000;stroke-width:9.852479e-03;stroke-miterlimit:10;}
	.st35{font-family:'TimesNewRomanPSMT';}
	.st36{font-size:12px;}
	.st37{clip-path:url(#SVGID_18_);}
	.st38{font-size:15.2236px;}
	.st39{fill:none;stroke:#808080;stroke-width:2;stroke-dasharray:9,9;}
	.st40{fill-opacity:0;}
	.st41{fill:none;stroke:#42B9B2;stroke-width:2;}
	.st42{fill:none;stroke:#DE237B;stroke-width:2;}
	.st43{fill:none;stroke:#DE237B;}
	.st44{fill:#808BA4;}
	.st45{font-size:15px;}
</style>
<g>
	<g>
		<g>
			<path class="st0" d="M636,410c0-153.5-124.5-278-278-278S80,256.5,80,410s124.5,278,278,278S636,563.5,636,410z"/>
		</g>
		<g>
			<path class="st1" d="M358,410h278"/>
			<path class="st1" d="M358,410l233.9-150.3"/>
			<path class="st1" d="M358,410l115.5-252.9"/>
			<path class="st1" d="M358,410l-39.6-275.2"/>
			<path class="st1" d="M358,410L175.9,199.9"/>
			<path class="st1" d="M358,410L91.3,331.7"/>
			<path class="st1" d="M358,410L91.3,488.3"/>
			<path class="st1" d="M358,410L175.9,620.1"/>
			<path class="st1" d="M358,410l-39.6,275.2"/>
			<path class="st1" d="M358,410l115.5,252.9"/>
			<path class="st1" d="M358,410l233.9,150.3"/>
		</g>
		<g transform="translate(358,410)">
			<path class="st1" d="M44.8,0c0-24.8-20.1-44.8-44.8-44.8S-44.8-24.8-44.8,0S-24.8,44.8,0,44.8S44.8,24.8,44.8,0z"/>
			<path class="st1" d="M89.7,0c0-49.5-40.2-89.7-89.7-89.7S-89.7-49.5-89.7,0S-49.5,89.7,0,89.7S89.7,49.5,89.7,0z"/>
			<path class="st1" d="M134.5,0c0-74.3-60.2-134.5-134.5-134.5S-134.5-74.3-134.5,0S-74.3,134.5,0,134.5S134.5,74.3,134.5,0z"/>
			<path class="st1" d="M179.4,0c0-99.1-80.3-179.4-179.4-179.4S-179.4-99.1-179.4,0S-99.1,179.4,0,179.4S179.4,99.1,179.4,0z"/>
			<path class="st1" d="M224.2,0c0-123.8-100.4-224.2-224.2-224.2S-224.2-123.8-224.2,0S-123.8,224.2,0,224.2S224.2,123.8,224.2,0z"
				/>
			<path class="st1" d="M269,0c0-148.6-120.4-269-269-269c-148.6,0-269,120.4-269,269c0,0,0,0,0,0c0,148.6,120.4,269,269,269
				C148.6,269.1,269,148.6,269,0C269,0,269,0,269,0z"/>
		</g>
		<g transform="translate(80,132)">
			<g>
				<g>
					<g>
						<defs>
							<circle id="SVGID_1_" cx="278" cy="278" r="278"/>
						</defs>
						<clipPath id="SVGID_2_">
							<use xlink:href="#SVGID_1_"  style="overflow:visible;"/>
						</clipPath>
					</g>
					<g>
						<g>
							<defs>
								<circle id="SVGID_3_" cx="278" cy="278" r="278"/>
							</defs>
							<clipPath id="SVGID_4_">
								<use xlink:href="#SVGID_3_"  style="overflow:visible;"/>
							</clipPath>
							<path class="st2" d="M412.5,278l-21.4-72.7l-57.3-49.6l-75-10.8l-68.9,31.5l-41,63.8v75.8l41,63.8l68.9,31.5l75-10.8
								l57.3-49.6"/>
						</g>
					</g>
					<g>
						<defs>
							<circle id="SVGID_5_" cx="278" cy="278" r="278"/>
						</defs>
						<clipPath id="SVGID_6_">
							<use xlink:href="#SVGID_5_"  style="overflow:visible;"/>
						</clipPath>
					</g>
					<g>
						<defs>
							<circle id="SVGID_7_" cx="278" cy="278" r="278"/>
						</defs>
						<clipPath id="SVGID_8_">
							<use xlink:href="#SVGID_7_"  style="overflow:visible;"/>
						</clipPath>
					</g>
				</g>
				<g>
					<g>
						<defs>
							<circle id="SVGID_9_" cx="278" cy="278" r="278"/>
						</defs>
						<clipPath id="SVGID_10_">
							<use xlink:href="#SVGID_9_"  style="overflow:visible;"/>
						</clipPath>
						<g class="st3">
							<g>
								<path class="st4" d="M350.6,278l-3.5-44.5l33.3-180l-134.1,4.3l-86.6,83.7l-76.2,79.4L69.3,339.3l86.8,79.4l114.1-86.3
									l59.5,58.7l39.5-54.5L350.6,278z"/>
							</g>
						</g>
					</g>
					<g>
						<g>
							<defs>
								<circle id="SVGID_11_" cx="278" cy="278" r="278"/>
							</defs>
							<clipPath id="SVGID_12_">
								<use xlink:href="#SVGID_11_"  style="overflow:visible;"/>
							</clipPath>
							<path class="st5" d="M350.6,278l-3.5-44.5l33.3-180l-134.1,4.3l-86.6,83.7l-76.2,79.4L69.3,339.3l86.8,79.4l114.1-86.3
								l59.5,58.7l39.5-54.5"/>
						</g>
					</g>
					<g>
						<path class="st6" d="M355.6,278c0,2.8-2.2,5-5,5s-5-2.2-5-5c0-2.8,2.2-5,5-5S355.6,275.2,355.6,278z"/>
						<path class="st6" d="M352.2,233.6c0,2.8-2.2,5-5,5s-5-2.2-5-5s2.2-5,5-5S352.2,230.8,352.2,233.6z"/>
						<path class="st6" d="M376.7,53.6l-1.9-3.3h3.8l1.9-3.3l1.9,3.3h3.8l-1.9,3.3l1.9,3.3h-3.8l-1.9,3.3l-1.9-3.3h-3.8L376.7,53.6z
							"/>
						<path class="st6" d="M242.6,57.8l-1.9-3.3h3.8l1.9-3.3l1.9,3.3h3.8l-1.9,3.3l1.9,3.3h-3.8l-1.9,3.3l-1.9-3.3h-3.8L242.6,57.8z
							"/>
						<path class="st6" d="M164.8,141.6c0,2.8-2.2,5-5,5s-5-2.2-5-5s2.2-5,5-5S164.8,138.8,164.8,141.6z"/>
						<path class="st6" d="M79.8,220.9l-1.9-3.3h3.8l1.9-3.3l1.9,3.3h3.8l-1.9,3.3l1.9,3.3h-3.8l-1.9,3.3l-1.9-3.3h-3.8L79.8,220.9z
							"/>
						<path class="st6" d="M65.5,339.3l-1.9-3.3h3.8l1.9-3.3l1.9,3.3H75l-1.9,3.3l1.9,3.3h-3.8l-1.9,3.3l-1.9-3.3h-3.8L65.5,339.3z"
							/>
						<path class="st6" d="M161.1,418.7c0,2.8-2.2,5-5,5s-5-2.2-5-5c0-2.8,2.2-5,5-5S161.1,415.9,161.1,418.7z"/>
						<path class="st6" d="M266.4,332.4l-1.9-3.3h3.8l1.9-3.3l1.9,3.3h3.8l-1.9,3.3l1.9,3.3h-3.8l-1.9,3.3l-1.9-3.3h-3.8
							L266.4,332.4z"/>
						<path class="st7" d="M334.6,391.1c0,2.8-2.2,5-5,5s-5-2.2-5-5c0-2.8,2.2-5,5-5S334.6,388.3,334.6,391.1z"/>
						<path class="st7" d="M374.1,336.6c0,2.8-2.2,5-5,5s-5-2.2-5-5c0-2.8,2.2-5,5-5S374.1,333.8,374.1,336.6z"/>
					</g>
				</g>
				<g>
					<g>
						<defs>
							<circle id="SVGID_13_" cx="278" cy="278" r="278"/>
						</defs>
						<clipPath id="SVGID_14_">
							<use xlink:href="#SVGID_13_"  style="overflow:visible;"/>
						</clipPath>
						<g class="st8">
							<g>
								<path class="st9" d="M428.6,278l-25-80.7l-82.3-14l-59.1-15.1l-56.1,27l-7.6,59.6l-8.4,49.1l-0.1,75.8l67.6,40.4l117.9,71.5
									l90.8-92.5L428.6,278z"/>
							</g>
						</g>
					</g>
					<g>
						<g>
							<defs>
								<circle id="SVGID_15_" cx="278" cy="278" r="278"/>
							</defs>
							<clipPath id="SVGID_16_">
								<use xlink:href="#SVGID_15_"  style="overflow:visible;"/>
							</clipPath>
							<path class="st10" d="M428.6,278l-25-80.7l-82.3-14l-59.1-15.1l-56.1,27l-7.6,59.6l-8.4,49.1l-0.1,75.8l67.6,40.4l117.9,71.5
								l90.8-92.5"/>
						</g>
					</g>
					<g>
						<path class="st11" d="M433.6,278c0,2.8-2.2,5-5,5s-5-2.2-5-5c0-2.8,2.2-5,5-5S433.6,275.2,433.6,278z"/>
						<path class="st11" d="M408.6,197.3c0,2.8-2.2,5-5,5s-5-2.2-5-5s2.2-5,5-5S408.6,194.5,408.6,197.3z"/>
						<path class="st11" d="M326.3,183.3c0,2.8-2.2,5-5,5s-5-2.2-5-5s2.2-5,5-5S326.3,180.5,326.3,183.3z"/>
						<path class="st11" d="M267.2,168.1c0,2.8-2.2,5-5,5s-5-2.2-5-5s2.2-5,5-5S267.2,165.4,267.2,168.1z"/>
						<path class="st11" d="M211.1,195.1c0,2.8-2.2,5-5,5s-5-2.2-5-5s2.2-5,5-5S211.1,192.3,211.1,195.1z"/>
						<path class="st11" d="M203.5,254.7c0,2.8-2.2,5-5,5s-5-2.2-5-5s2.2-5,5-5S203.5,251.9,203.5,254.7z"/>
						<path class="st11" d="M195.1,303.8c0,2.8-2.2,5-5,5s-5-2.2-5-5c0-2.8,2.2-5,5-5S195.1,301,195.1,303.8z"/>
						<path class="st11" d="M195,379.6c0,2.8-2.2,5-5,5s-5-2.2-5-5c0-2.8,2.2-5,5-5S195,376.8,195,379.6z"/>
						<path class="st11" d="M262.6,420c0,2.8-2.2,5-5,5c-2.8,0-5-2.2-5-5c0-2.8,2.2-5,5-5C260.3,415,262.6,417.2,262.6,420z"/>
						<path class="st12" d="M380.5,491.5c0,2.8-2.2,5-5,5s-5-2.2-5-5c0-2.8,2.2-5,5-5S380.5,488.7,380.5,491.5z"/>
						<path class="st12" d="M471.3,399c0,2.8-2.2,5-5,5s-5-2.2-5-5c0-2.8,2.2-5,5-5S471.3,396.3,471.3,399z"/>
					</g>
				</g>
			</g>
		</g>
		<g>
			<path class="st1" d="M636,410c0-153.5-124.5-278-278-278S80,256.5,80,410s124.5,278,278,278S636,563.5,636,410z"/>
		</g>
		<g>
			<line class="st1" x1="358" y1="410" x2="636" y2="410"/>
		</g>
		<g>
			<g>
				<g pointer-events="none" transform="translate(636,410)translate(35.1552734375,0)">
					<g transform="matrix(1 0 0 -1 0 0)">
						<g>
							<path id="MJMATHI-50" class="st13" d="M-1.7,10.5c0,0.1-0.5,0.2-1.6,0.3c-0.4,0-0.7,0-0.9,0c-0.1,0-0.2,0.1-0.2,0.3
								c0,0,0,0.1,0.1,0.3c0.1,0.4,0.2,0.6,0.3,0.6c0.1,0,1.9,0.1,5.4,0.1c3.5,0,5.4,0,5.7-0.1c1.2-0.2,2.2-0.7,3-1.4
								c0.8-0.7,1.2-1.6,1.2-2.8c0-1.4-0.6-2.7-1.8-3.9c-1.3-1.3-2.9-2.1-5-2.4c-0.1,0-1.1,0-2.9-0.1h-2.6l-0.8-3.3
								c-0.6-2.2-0.8-3.3-0.8-3.4c0-0.1,0-0.1,0-0.1c0,0,0.1-0.1,0.2-0.1c0.1-0.1,0.3-0.1,0.5-0.1c0.2,0,0.5,0,0.9-0.1h0.9
								C-0.2-5.9-0.1-6-0.1-6c0-0.3-0.1-0.6-0.2-0.8C-0.4-7-0.6-7-0.8-7c-0.1,0-0.4,0-1,0c-0.6,0-1.6,0-2.8,0c-1.2,0-2,0-2.6,0
								s-0.9,0-1,0c-0.3,0-0.5,0.1-0.5,0.3c0,0,0,0.2,0.1,0.4C-8.6-6-8.5-5.8-8.4-5.8c0.1,0,0.3,0.1,0.6,0.1c0.5,0,1.1,0,1.7,0.1
								c0.3,0.1,0.4,0.2,0.5,0.3c0.1,0.1,0.7,2.7,2,7.7S-1.7,10.2-1.7,10.5z M8.3,8.4c0,0.2,0,0.4-0.1,0.6S8.1,9.4,8,9.6
								c-0.1,0.3-0.4,0.5-0.7,0.6C7,10.4,6.5,10.5,6,10.7c-0.1,0-0.9,0-2.2,0.1c-0.3,0-0.6,0-1,0s-0.6,0-0.8,0c-0.2,0-0.3,0-0.3,0
								c-0.2,0-0.4-0.1-0.5-0.3c0-0.1-0.2-0.8-0.5-2.1C0.3,7-0.1,5.7-0.4,4.5s-0.5-1.9-0.5-1.9c0,0,0.8-0.1,2.3-0.1h0.3h0.6
								c2.1,0,3.6,0.5,4.5,1.4c0.5,0.5,0.9,1.2,1.1,2.2C8.2,7.1,8.3,7.9,8.3,8.4z"/>
						</g>
						<g>
							<path id="MJMATHI-45" class="st13" d="M25-1.1c-0.4,0-0.6,0.1-0.6,0.4c0,0.1,0,0.3,0.1,0.7c0.1,0.4,0.1,0.7,0.1,1
								c0,0.6-0.2,0.9-0.6,1.1s-1.3,0.2-2.7,0.2H20c0,0-0.3-1.3-1-3.8C18.4-4.2,18-5.5,18-5.6c0-0.1,0.1-0.1,0.3-0.1
								c0.2,0,0.9,0,2.2-0.1c1.7,0,2.9,0,3.5,0.1c0.6,0,1.1,0.2,1.7,0.4C26.6-5,27.4-4.5,28-3.7c0.6,0.7,1.3,2,2,3.7
								c0.2,0.4,0.3,0.6,0.4,0.7c0.1,0,0.3,0.1,0.4,0.1c0.4,0,0.6-0.1,0.6-0.4c-2-4.7-3-7.1-3.1-7.2c-0.1,0-2.7-0.1-8-0.1H15
								c-1.9,0-2.8,0.1-2.8,0.3c0,0,0,0.2,0.1,0.4c0.1,0.3,0.1,0.5,0.2,0.5c0.1,0,0.3,0.1,0.6,0.1c0.5,0,1.1,0,1.7,0.1
								c0.3,0.1,0.4,0.2,0.5,0.3c0,0.1,0.7,2.7,2,7.8s1.9,7.7,2,7.8c0,0.1,0,0.2-0.1,0.2c-0.1,0.1-0.6,0.1-1.5,0.1h-0.9
								c-0.1,0.1-0.2,0.2-0.2,0.2c0,0,0,0.2,0.1,0.5c0.1,0.3,0.2,0.5,0.3,0.6h15.4c0.1-0.1,0.2-0.2,0.2-0.3c0-0.1-0.1-1.1-0.4-3.1
								s-0.4-3-0.4-3.1c0-0.1-0.2-0.2-0.6-0.2h-0.3c-0.1,0.1-0.2,0.2-0.2,0.4l0.1,0.6c0.1,0.4,0.1,0.9,0.1,1.4c0,0.6-0.1,1-0.2,1.4
								c-0.1,0.4-0.3,0.7-0.5,0.9s-0.5,0.4-1,0.4c-0.4,0.1-0.9,0.2-1.3,0.2s-1,0.1-1.8,0.1h-1.3c-1.6,0-2.5,0-2.6-0.1
								c-0.1,0-0.1-0.1-0.2-0.3c0-0.1-0.3-1.2-0.9-3.4s-0.8-3.4-0.9-3.4c0.4,0,0.9,0,1.3,0h0.7c1.2,0,2.1,0.1,2.5,0.4s0.9,1,1.3,2.3
								c0.1,0.3,0.1,0.5,0.2,0.5c0,0,0.2,0.1,0.5,0.1c0.1,0,0.2,0,0.2,0c0.1,0,0.1,0,0.1,0c0,0,0.1,0,0.1,0s0,0,0.1-0.1
								c0-0.1,0.1-0.1,0.1-0.1l-0.9-3.7c-0.6-2.5-0.9-3.7-1-3.8C25.4-1,25.2-1.1,25-1.1z"/>
						</g>
						<g transform="translate(1516,0)">
							<g>
								<path id="MJMATHI-3B2" class="st13" d="M-1482.6-12.4c-0.1,0.1-0.2,0.2-0.2,0.2c0,0.1,0.7,3,2.2,8.9s2.2,9,2.3,9.2
									c0.4,1.3,0.9,2.4,1.6,3.3c0.7,0.9,1.3,1.6,1.8,2.1c1,0.9,2.2,1.3,3.3,1.3h0.1c1.2,0,2.1-0.4,2.8-1.1
									c0.7-0.7,1.1-1.6,1.1-2.7c0-2-1-3.6-2.9-4.8l0.4-0.4c0.9-0.9,1.4-2.2,1.4-3.7c0-2.1-0.8-3.8-2.4-5.2s-3.4-2.1-5.3-2.1
									c-0.6,0-1.1,0.1-1.5,0.2c-0.4,0.1-0.8,0.3-1.1,0.5s-0.5,0.4-0.6,0.6c-0.1,0.2-0.3,0.4-0.3,0.5c-0.1,0.1-0.1,0.2-0.1,0.2
									l-1.8-7.1c0-0.1-0.2-0.2-0.6-0.2H-1482.6z M-1473.6,5c0.7,0,1.4-0.1,2.1-0.3l0.1,0.1c0.1,0.1,0.1,0.1,0.2,0.2
									s0.1,0.1,0.3,0.3c0.1,0.1,0.2,0.3,0.3,0.4s0.2,0.3,0.3,0.5c0.1,0.2,0.2,0.4,0.3,0.7c0.1,0.2,0.2,0.5,0.3,0.8
									c0.1,0.3,0.1,0.6,0.2,1c0,0.2,0.1,0.5,0.1,0.9c0,0.3,0,0.5,0,0.6c-0.3,0.9-1,1.4-2.1,1.4c-0.8,0-1.5-0.2-2.2-0.7
									c-0.7-0.4-1.3-1-1.7-1.7c-0.4-0.7-0.8-1.3-1.1-1.9c-0.3-0.6-0.5-1.1-0.6-1.6c-0.1-0.3-0.4-1.7-1.1-4.1s-0.9-3.7-0.9-3.9
									c0-0.1,0-0.3,0-0.6c0-0.9,0.2-1.6,0.6-2.2c0.6-0.8,1.4-1.2,2.4-1.2c0.8,0,1.6,0.2,2.5,0.7s1.6,1.3,2.1,2.4
									c0.3,0.6,0.5,1.3,0.7,2.1c0.1,0.8,0.2,1.4,0.2,1.8c0,1.1-0.3,1.9-1,2.6c-0.8-0.3-1.5-0.4-2.1-0.4h-0.3
									c-1.5,0-2.2,0.3-2.2,0.9c0,0.1,0,0.3,0.1,0.4C-1475.9,4.8-1475,5-1473.6,5z"/>
							</g>
							<g transform="translate(566,-150)">
								<g transform="scale(0.707)">
									<path id="MJMATHI-6D" class="st14" d="M-2033.2,144.5c0,0.1,0,0.2,0.1,0.3c0,0.1,0.1,0.4,0.2,0.7c0.1,0.4,0.3,0.7,0.4,0.9
										c0.1,0.2,0.3,0.5,0.6,0.7c0.3,0.2,0.6,0.3,0.9,0.3c0.3,0,0.6-0.1,0.8-0.1c0.3-0.1,0.5-0.2,0.6-0.4c0.1-0.2,0.2-0.3,0.3-0.4
										c0.1-0.1,0.1-0.3,0.2-0.4l0-0.1c0,0,0,0,0,0l0.2,0.2c0.8,0.8,1.7,1.3,2.8,1.3c0.2,0,0.4,0,0.6,0c0.2,0,0.4-0.1,0.5-0.1
										c0.2-0.1,0.3-0.1,0.4-0.2c0.1-0.1,0.2-0.1,0.3-0.2c0.1-0.1,0.2-0.2,0.2-0.3c0-0.1,0.1-0.2,0.2-0.3c0.1-0.1,0.1-0.2,0.1-0.2
										c0-0.1,0-0.1,0.1-0.2s0.1-0.1,0-0.1l0.2,0.2c0.8,1,1.8,1.5,2.9,1.5c0.7,0,1.3-0.2,1.7-0.5c0.4-0.4,0.7-0.9,0.7-1.6
										c0-0.7-0.2-1.7-0.7-3.1c-0.5-1.4-0.7-2.2-0.7-2.5c0-0.2,0-0.3,0.1-0.4c0.1-0.1,0.2-0.1,0.3-0.1c0.4,0,0.7,0.2,1,0.6
										c0.3,0.4,0.6,0.9,0.8,1.6c0,0.1,0.1,0.2,0.1,0.3c0,0,0.1,0,0.3,0c0.3,0,0.4-0.1,0.4-0.2c0,0,0-0.1-0.1-0.3
										c-0.1-0.4-0.2-0.8-0.4-1.1c-0.2-0.4-0.5-0.7-0.9-1.1s-0.9-0.5-1.4-0.5c-0.6,0-1.1,0.2-1.3,0.5s-0.4,0.7-0.4,1.1
										c0,0.2,0.2,1,0.7,2.4c0.5,1.3,0.7,2.3,0.7,3c0,0.8-0.3,1.2-0.9,1.2h-0.1c-1.1,0-2.1-0.7-2.9-2l-0.1-0.2l-0.7-2.6
										c-0.4-1.7-0.7-2.6-0.7-2.8c-0.2-0.4-0.5-0.5-0.8-0.5c-0.2,0-0.3,0-0.4,0.1c-0.1,0.1-0.2,0.2-0.2,0.2c0,0.1-0.1,0.1-0.1,0.2
										c0,0.1,0.2,1.1,0.7,2.8l0.7,2.9c0,0.2,0.1,0.4,0.1,0.7c0,0.8-0.3,1.2-0.9,1.2h-0.1c-1.1,0-2.1-0.7-2.9-2l-0.1-0.2l-0.7-2.6
										c-0.4-1.7-0.7-2.6-0.7-2.8c-0.2-0.4-0.5-0.5-0.8-0.5c-0.2,0-0.3,0-0.4,0.1s-0.2,0.2-0.2,0.2c0,0.1-0.1,0.1,0,0.2
										c0,0.2,0.2,1.2,0.7,3.2c0.5,2,0.8,3.1,0.8,3.2c0,0.2,0.1,0.4,0.1,0.5c0,0.5-0.2,0.7-0.5,0.7c-0.3,0-0.5-0.2-0.7-0.6
										c-0.2-0.4-0.3-0.8-0.5-1.2c-0.1-0.4-0.2-0.7-0.2-0.7c0,0-0.1,0-0.3,0h-0.3C-2033.2,144.4-2033.2,144.4-2033.2,144.5z"/>
								</g>
								<g transform="scale(0.707)">
									<path id="MJMATHI-65" class="st14" d="M-2015.6,142.1c0,0.7,0.1,1.4,0.4,2c0.2,0.6,0.6,1.1,1,1.5c0.4,0.4,0.8,0.7,1.3,1
										s0.9,0.5,1.4,0.6c0.4,0.1,0.8,0.2,1.2,0.2h0.1c0.6,0,1.1-0.1,1.5-0.4c0.4-0.3,0.7-0.7,0.7-1.3c0-1.2-0.7-2-2.2-2.3
										c-0.6-0.2-1.5-0.3-2.6-0.3c-0.5,0-0.7,0-0.7,0c0,0,0-0.3-0.1-0.7s-0.1-0.8-0.1-1.1c0-0.6,0.1-1.1,0.4-1.5s0.7-0.5,1.2-0.6
										c0.6,0,1.2,0.1,1.8,0.4c0.7,0.3,1.3,0.7,1.8,1.3c0.1,0.1,0.2,0.2,0.2,0.2c0.1,0,0.1-0.1,0.3-0.2c0.1-0.1,0.2-0.2,0.2-0.3
										c0-0.1,0-0.2-0.2-0.3c-0.1-0.1-0.3-0.3-0.6-0.5c-0.3-0.2-0.6-0.4-0.9-0.6s-0.8-0.4-1.2-0.5c-0.5-0.1-1-0.2-1.5-0.2
										c-1,0-1.8,0.3-2.4,1C-2015.3,140.3-2015.5,141.2-2015.6,142.1z M-2009,145.8c-0.1,0.7-0.5,1-1.3,1c-0.4,0-0.8-0.1-1.2-0.3
										c-0.4-0.2-0.7-0.4-0.9-0.7c-0.2-0.3-0.4-0.5-0.6-0.8c-0.2-0.3-0.3-0.5-0.3-0.7c-0.1-0.2-0.1-0.3-0.1-0.4c0,0,0.1,0,0.4,0
										c1.5,0,2.5,0.2,3.1,0.5C-2009.3,144.7-2009,145.2-2009,145.8z"/>
								</g>
								<g transform="scale(0.707)">
									<path id="MJMATHI-61" class="st14" d="M-2006.5,141.9c0,1.3,0.5,2.6,1.5,3.8s2.1,1.8,3.4,1.8c0.7,0,1.3-0.3,1.8-1
										c0.2,0.4,0.5,0.6,0.9,0.6c0.2,0,0.3-0.1,0.5-0.2c0.1-0.1,0.2-0.2,0.2-0.4c0-0.2-0.2-1.2-0.7-3.2c-0.5-1.9-0.7-3-0.7-3.3
										c0-0.3,0-0.5,0.1-0.7c0.1-0.1,0.2-0.2,0.4-0.2c0.1,0,0.2,0.1,0.4,0.2c0.3,0.3,0.5,0.9,0.8,1.9c0.1,0.3,0.1,0.4,0.2,0.4
										c0,0,0.1,0,0.2,0h0.1c0.2,0,0.4-0.1,0.4-0.2c0-0.1,0-0.3-0.1-0.5c-0.1-0.3-0.2-0.6-0.4-1.1c-0.2-0.4-0.4-0.8-0.6-1
										c-0.2-0.2-0.4-0.3-0.6-0.4c-0.1,0-0.3,0-0.5,0c-0.4,0-0.8,0.1-1.1,0.3c-0.3,0.2-0.5,0.4-0.6,0.6l-0.1,0.3c0,0,0,0-0.1,0
										c0,0-0.1-0.1-0.1-0.1c-0.8-0.7-1.6-1.1-2.4-1.1c-0.7,0-1.4,0.3-1.9,0.8C-2006.2,139.9-2006.5,140.8-2006.5,141.9z
										 M-2000.2,145.3c0,0.1,0,0.2-0.1,0.4s-0.2,0.4-0.5,0.7c-0.2,0.2-0.5,0.4-0.9,0.4c-0.5,0-0.9-0.2-1.3-0.6s-0.7-0.9-1-1.6
										c-0.4-1-0.7-2.1-0.8-3.2c0,0,0-0.1,0-0.2c0-0.1,0-0.2,0-0.2c0-0.6,0.1-1,0.4-1.2s0.5-0.3,0.8-0.4c0.5,0,1,0.2,1.5,0.7
										c0.5,0.4,0.8,0.8,0.9,1c0,0.1,0.2,0.8,0.5,2.1C-2000.4,144.4-2000.2,145.2-2000.2,145.3z"/>
								</g>
								<g transform="scale(0.707)">
									<path id="MJMATHI-6E" class="st14" d="M-1996.3,144.5c0,0.1,0,0.2,0.1,0.3c0,0.1,0.1,0.4,0.2,0.7c0.1,0.4,0.3,0.7,0.4,0.9
										c0.1,0.2,0.3,0.5,0.7,0.7c0.3,0.2,0.6,0.3,0.9,0.3c0.5,0,0.9-0.1,1.2-0.4c0.3-0.2,0.5-0.5,0.6-0.7s0.1-0.3,0.1-0.4
										c0,0,0,0,0,0l0.2,0.2c0.8,0.8,1.7,1.3,2.7,1.3c0.7,0,1.3-0.2,1.7-0.5c0.4-0.4,0.7-0.9,0.7-1.6c0-0.7-0.2-1.7-0.7-3.1
										s-0.8-2.2-0.7-2.5c0-0.3,0.1-0.5,0.3-0.5c0.1,0,0.1,0,0.2,0c0.4,0.1,0.7,0.3,1,0.7s0.5,1,0.7,1.6c0,0.1,0.2,0.2,0.4,0.2
										c0.3,0,0.4-0.1,0.4-0.2c0,0,0-0.1-0.1-0.3c-0.1-0.4-0.2-0.8-0.4-1.1c-0.2-0.4-0.5-0.7-0.9-1.1c-0.4-0.4-0.9-0.5-1.4-0.5
										c-0.6,0-1.1,0.2-1.3,0.5s-0.4,0.7-0.4,1.1c0,0.2,0.2,1,0.7,2.4c0.5,1.3,0.7,2.3,0.7,3c0,0.8-0.3,1.2-0.9,1.2h-0.1
										c-1.1,0-2.1-0.7-2.9-2l-0.1-0.2l-0.7-2.6c-0.4-1.7-0.7-2.6-0.7-2.8c-0.2-0.4-0.5-0.5-0.8-0.5c-0.2,0-0.3,0-0.4,0.1
										c-0.1,0.1-0.2,0.2-0.2,0.2s-0.1,0.1,0,0.2c0,0.2,0.2,1.2,0.7,3.2c0.5,2,0.8,3,0.8,3.2c0,0.1,0,0.2,0,0.5
										c0,0.5-0.2,0.8-0.5,0.8c-0.5,0-0.9-0.7-1.2-2c-0.1-0.3-0.1-0.4-0.1-0.4c0-0.1-0.2-0.1-0.4-0.1h-0.3
										C-1996.2,144.4-1996.3,144.4-1996.3,144.5z"/>
								</g>
							</g>
						</g>
					</g>
				</g>
			</g>
			<g>
				<g pointer-events="none" transform="translate(591.8684821270683,259.7018527473439)translate(34.70751953125,0)">
					<g transform="matrix(1 0 0 -1 0 0)">
						<g>
							<path id="MJMATHI-50_1_" class="st15" d="M-18.1,40.9c0,0.1-0.5,0.2-1.6,0.3c-0.4,0-0.7,0-0.9,0c-0.1,0-0.2,0.1-0.2,0.3
								c0,0,0,0.1,0.1,0.3c0.1,0.4,0.2,0.6,0.3,0.6s1.9,0.1,5.4,0.1c3.5,0,5.4,0,5.7-0.1c1.2-0.2,2.2-0.7,3-1.4s1.2-1.6,1.2-2.8
								c0-1.4-0.6-2.7-1.8-3.9c-1.3-1.3-2.9-2.1-5-2.4c-0.1,0-1.1,0-2.9-0.1h-2.6l-0.8-3.3c-0.6-2.2-0.8-3.3-0.8-3.4
								c0-0.1,0-0.1,0-0.1c0,0,0.1-0.1,0.2-0.1c0.1-0.1,0.3-0.1,0.5-0.1c0.2,0,0.5,0,0.9-0.1h0.9c0.1-0.2,0.2-0.3,0.2-0.3
								c0-0.3-0.1-0.6-0.2-0.8c-0.1-0.1-0.2-0.1-0.4-0.1c-0.1,0-0.4,0-1,0c-0.6,0-1.6,0-2.8,0c-1.2,0-2,0-2.6,0c-0.6,0-0.9,0-1,0
								c-0.3,0-0.5,0.1-0.5,0.3c0,0,0,0.2,0.1,0.4c0.1,0.3,0.1,0.5,0.2,0.5c0.1,0,0.3,0.1,0.6,0.1c0.5,0,1.1,0,1.7,0.1
								c0.3,0.1,0.4,0.2,0.5,0.3c0.1,0.1,0.7,2.7,2,7.7S-18.1,40.7-18.1,40.9z M-8.2,38.9c0,0.2,0,0.4-0.1,0.6s-0.1,0.4-0.3,0.6
								s-0.4,0.5-0.7,0.6c-0.3,0.1-0.8,0.3-1.4,0.4c-0.1,0-0.9,0-2.2,0.1c-0.3,0-0.6,0-1,0c-0.3,0-0.6,0-0.8,0s-0.3,0-0.3,0
								c-0.2,0-0.4-0.1-0.5-0.3c0-0.1-0.2-0.8-0.5-2.1c-0.3-1.3-0.6-2.6-1-3.8c-0.3-1.2-0.5-1.9-0.5-1.9c0,0,0.8-0.1,2.3-0.1h0.3
								h0.6c2.1,0,3.6,0.5,4.5,1.4c0.5,0.5,0.9,1.2,1.1,2.2C-8.3,37.5-8.2,38.3-8.2,38.9z"/>
						</g>
						<g>
							<path id="MJMATHI-45_1_" class="st15" d="M8.5,29.4c-0.4,0-0.6,0.1-0.6,0.4c0,0.1,0,0.3,0.1,0.7s0.1,0.7,0.1,1
								c0,0.6-0.2,0.9-0.6,1.1c-0.4,0.1-1.3,0.2-2.7,0.2H3.5c0,0-0.3-1.3-1-3.8S1.6,25,1.6,24.9s0.1-0.1,0.3-0.1
								c0.2,0,0.9,0,2.2-0.1c1.7,0,2.9,0,3.5,0.1c0.6,0,1.1,0.2,1.7,0.4c0.9,0.3,1.7,0.8,2.3,1.6s1.3,2,2,3.7
								c0.2,0.4,0.3,0.6,0.4,0.7c0.1,0,0.3,0.1,0.4,0.1c0.4,0,0.6-0.1,0.6-0.4c-2-4.7-3-7.1-3.1-7.2c-0.1,0-2.7-0.1-8-0.1h-5.3
								c-1.9,0-2.8,0.1-2.8,0.3c0,0,0,0.2,0.1,0.4c0.1,0.3,0.1,0.5,0.2,0.5c0.1,0,0.3,0.1,0.6,0.1c0.5,0,1.1,0,1.7,0.1
								c0.3,0.1,0.4,0.2,0.5,0.3c0,0.1,0.7,2.7,2,7.8c1.3,5.1,1.9,7.7,2,7.8c0,0.1,0,0.2-0.1,0.2C2.5,41,2,41.1,1.1,41.1H0.3
								c-0.1,0.1-0.2,0.2-0.2,0.2c0,0,0,0.2,0.1,0.5c0.1,0.3,0.2,0.5,0.3,0.6h15.4c0.1-0.1,0.2-0.2,0.2-0.3c0-0.1-0.1-1.1-0.4-3.1
								s-0.4-3-0.4-3.1c0-0.1-0.2-0.2-0.6-0.2h-0.3c-0.1,0.1-0.2,0.2-0.2,0.4l0.1,0.6c0.1,0.4,0.1,0.9,0.1,1.4c0,0.6-0.1,1-0.2,1.4
								c-0.1,0.4-0.3,0.7-0.5,0.9c-0.2,0.2-0.5,0.4-1,0.4c-0.4,0.1-0.9,0.2-1.3,0.2c-0.4,0-1,0.1-1.8,0.1H8.3c-1.6,0-2.5,0-2.6-0.1
								c-0.1,0-0.1-0.1-0.2-0.3c0-0.1-0.3-1.2-0.9-3.4c-0.6-2.2-0.8-3.4-0.9-3.4c0.4,0,0.9,0,1.3,0h0.7c1.2,0,2.1,0.1,2.5,0.4
								c0.5,0.3,0.9,1,1.3,2.3c0.1,0.3,0.1,0.5,0.2,0.5c0,0,0.2,0.1,0.5,0.1c0.1,0,0.2,0,0.2,0c0.1,0,0.1,0,0.1,0c0,0,0.1,0,0.1,0
								s0,0,0.1-0.1c0-0.1,0.1-0.1,0.1-0.1L10,33.2c-0.6-2.5-0.9-3.7-1-3.8C8.9,29.4,8.7,29.4,8.5,29.4z"/>
						</g>
						<g transform="translate(1516,0)">
							<g>
								<path id="MJMATHI-3B3" class="st15" d="M-1499,30.4c-0.4,0-0.6,0.1-0.6,0.3c0,0.3,0.1,0.7,0.4,1.3s0.7,1.1,1.1,1.7
									c0.5,0.6,1,1.1,1.8,1.5s1.4,0.6,2.1,0.6c0.5,0,0.8,0,0.9,0c0.9-0.2,1.6-0.7,2.2-1.5c0.6-0.8,1.1-2,1.5-3.7
									c0.3-1.1,0.4-1.9,0.4-2.4c0-0.1,0-0.1,0-0.1l0.3,0.8c0.4,0.9,0.8,1.9,1.3,3c0.5,1,0.9,1.9,1.2,2.5s0.5,1,0.6,1.1
									c0,0,0.2,0,0.4,0h0.4c0.1-0.1,0.2-0.2,0.2-0.3c0-0.1-0.2-0.5-0.6-1.2c-0.4-0.7-0.9-1.9-1.6-3.5c-0.7-1.6-1.4-3.3-2-5
									c-0.1-0.3-0.2-0.9-0.4-1.8c-0.1-0.9-0.3-1.9-0.6-3c-0.3-1.2-0.5-2-0.8-2.5c-0.2-0.5-0.5-0.7-0.8-0.7c-0.3,0-0.5,0.3-0.5,0.8
									c0,0.9,0.5,3,1.5,6.1l0.2,0.5l0,0.5c0,0.2,0,0.5,0,0.9c0,2.9-0.5,4.9-1.6,6c-0.7,0.7-1.6,1.1-2.6,1.1
									c-0.9,0-1.7-0.2-2.5-0.7c-0.7-0.5-1.3-1.1-1.6-1.9c0-0.2-0.1-0.3-0.1-0.3C-1498.6,30.4-1498.8,30.4-1499,30.4z"/>
							</g>
							<g transform="translate(518,-150)">
								<g transform="scale(0.707)">
									<path id="MJMATHI-6D_1_" class="st16" d="M-2003,174.9c0,0.1,0,0.2,0.1,0.3c0,0.1,0.1,0.4,0.2,0.7s0.3,0.7,0.4,0.9
										c0.1,0.2,0.3,0.5,0.6,0.7c0.3,0.2,0.6,0.3,0.9,0.3c0.3,0,0.6-0.1,0.8-0.1s0.5-0.2,0.6-0.4c0.1-0.2,0.2-0.3,0.3-0.4
										s0.1-0.3,0.2-0.4l0-0.1c0,0,0,0,0,0l0.2,0.2c0.8,0.8,1.7,1.3,2.8,1.3c0.2,0,0.4,0,0.6,0c0.2,0,0.4-0.1,0.5-0.1
										c0.2-0.1,0.3-0.1,0.4-0.2c0.1-0.1,0.2-0.1,0.3-0.2s0.2-0.2,0.2-0.3s0.1-0.2,0.2-0.3c0.1-0.1,0.1-0.2,0.1-0.2
										c0-0.1,0-0.1,0.1-0.2c0.1-0.1,0.1-0.1,0-0.1l0.2,0.2c0.8,1,1.8,1.5,2.9,1.5c0.7,0,1.3-0.2,1.7-0.5c0.4-0.4,0.7-0.9,0.7-1.6
										c0-0.7-0.2-1.7-0.7-3.1c-0.5-1.4-0.7-2.2-0.7-2.5c0-0.2,0-0.3,0.1-0.4c0.1-0.1,0.2-0.1,0.3-0.1c0.4,0,0.7,0.2,1,0.6
										c0.3,0.4,0.6,0.9,0.8,1.6c0,0.1,0.1,0.2,0.1,0.3c0,0,0.1,0,0.3,0c0.3,0,0.4-0.1,0.4-0.2c0,0,0-0.1-0.1-0.3
										c-0.1-0.4-0.2-0.8-0.4-1.1c-0.2-0.4-0.5-0.7-0.9-1.1c-0.4-0.4-0.9-0.5-1.4-0.5c-0.6,0-1.1,0.2-1.3,0.5s-0.4,0.7-0.4,1.1
										c0,0.2,0.2,1,0.7,2.4c0.5,1.3,0.7,2.3,0.7,3c0,0.8-0.3,1.2-0.9,1.2h-0.1c-1.1,0-2.1-0.7-2.9-2l-0.1-0.2l-0.7-2.6
										c-0.4-1.7-0.7-2.6-0.7-2.8c-0.2-0.4-0.5-0.5-0.8-0.5c-0.2,0-0.3,0-0.4,0.1c-0.1,0.1-0.2,0.2-0.2,0.2c0,0.1-0.1,0.1-0.1,0.2
										c0,0.1,0.2,1.1,0.7,2.8l0.7,2.9c0,0.2,0.1,0.4,0.1,0.7c0,0.8-0.3,1.2-0.9,1.2h-0.1c-1.1,0-2.1-0.7-2.9-2l-0.1-0.2l-0.7-2.6
										c-0.4-1.7-0.7-2.6-0.7-2.8c-0.2-0.4-0.5-0.5-0.8-0.5c-0.2,0-0.3,0-0.4,0.1c-0.1,0.1-0.2,0.2-0.2,0.2s-0.1,0.1,0,0.2
										c0,0.2,0.2,1.2,0.7,3.2c0.5,2,0.8,3.1,0.8,3.2c0,0.2,0.1,0.4,0.1,0.5c0,0.5-0.2,0.7-0.5,0.7c-0.3,0-0.5-0.2-0.7-0.6
										c-0.2-0.4-0.3-0.8-0.5-1.2s-0.2-0.7-0.2-0.7c0,0-0.1,0-0.3,0h-0.3C-2003,174.8-2003,174.9-2003,174.9z"/>
								</g>
								<g transform="scale(0.707)">
									<path id="MJMATHI-65_1_" class="st16" d="M-1985.4,172.6c0,0.7,0.1,1.4,0.4,2c0.2,0.6,0.6,1.1,1,1.5c0.4,0.4,0.8,0.7,1.3,1
										c0.5,0.3,0.9,0.5,1.4,0.6c0.4,0.1,0.8,0.2,1.2,0.2h0.1c0.6,0,1.1-0.1,1.5-0.4c0.4-0.3,0.7-0.7,0.7-1.3c0-1.2-0.7-2-2.2-2.3
										c-0.6-0.2-1.5-0.3-2.6-0.3c-0.5,0-0.7,0-0.7,0c0,0,0-0.3-0.1-0.7c-0.1-0.4-0.1-0.8-0.1-1.1c0-0.6,0.1-1.1,0.4-1.5
										c0.3-0.4,0.7-0.5,1.2-0.6c0.6,0,1.2,0.1,1.8,0.4c0.7,0.3,1.3,0.7,1.8,1.3c0.1,0.1,0.2,0.2,0.2,0.2c0.1,0,0.1-0.1,0.3-0.2
										c0.1-0.1,0.2-0.2,0.2-0.3c0-0.1,0-0.2-0.2-0.3c-0.1-0.1-0.3-0.3-0.6-0.5s-0.6-0.4-0.9-0.6c-0.3-0.2-0.8-0.4-1.2-0.5
										c-0.5-0.1-1-0.2-1.5-0.2c-1,0-1.8,0.3-2.4,1S-1985.4,171.6-1985.4,172.6z M-1978.8,176.2c-0.1,0.7-0.5,1-1.3,1
										c-0.4,0-0.8-0.1-1.2-0.3c-0.4-0.2-0.7-0.4-0.9-0.7c-0.2-0.3-0.4-0.5-0.6-0.8c-0.2-0.3-0.3-0.5-0.3-0.7
										c-0.1-0.2-0.1-0.3-0.1-0.4c0,0,0.1,0,0.4,0c1.5,0,2.5,0.2,3.1,0.5C-1979.1,175.2-1978.8,175.6-1978.8,176.2z"/>
								</g>
								<g transform="scale(0.707)">
									<path id="MJMATHI-61_1_" class="st16" d="M-1976.3,172.3c0,1.3,0.5,2.6,1.5,3.8c1,1.2,2.1,1.8,3.4,1.8c0.7,0,1.3-0.3,1.8-1
										c0.2,0.4,0.5,0.6,0.9,0.6c0.2,0,0.3-0.1,0.5-0.2s0.2-0.2,0.2-0.4c0-0.2-0.2-1.2-0.7-3.2c-0.5-1.9-0.7-3-0.7-3.3
										c0-0.3,0-0.5,0.1-0.7c0.1-0.1,0.2-0.2,0.4-0.2c0.1,0,0.2,0.1,0.4,0.2c0.3,0.3,0.5,0.9,0.8,1.9c0.1,0.3,0.1,0.4,0.2,0.4
										c0,0,0.1,0,0.2,0h0.1c0.2,0,0.4-0.1,0.4-0.2c0-0.1,0-0.3-0.1-0.5c-0.1-0.3-0.2-0.6-0.4-1.1c-0.2-0.4-0.4-0.8-0.6-1
										c-0.2-0.2-0.4-0.3-0.6-0.4c-0.1,0-0.3,0-0.5,0c-0.4,0-0.8,0.1-1.1,0.3c-0.3,0.2-0.5,0.4-0.6,0.6l-0.1,0.3c0,0,0,0-0.1,0
										c0,0-0.1-0.1-0.1-0.1c-0.8-0.7-1.6-1.1-2.4-1.1c-0.7,0-1.4,0.3-1.9,0.8C-1976,170.4-1976.3,171.2-1976.3,172.3z
										 M-1970,175.7c0,0.1,0,0.2-0.1,0.4s-0.2,0.4-0.5,0.7c-0.2,0.2-0.5,0.4-0.9,0.4c-0.5,0-0.9-0.2-1.3-0.6
										c-0.4-0.4-0.7-0.9-1-1.6c-0.4-1-0.7-2.1-0.8-3.2c0,0,0-0.1,0-0.2s0-0.2,0-0.2c0-0.6,0.1-1,0.4-1.2s0.5-0.3,0.8-0.4
										c0.5,0,1,0.2,1.5,0.7c0.5,0.4,0.8,0.8,0.9,1c0,0.1,0.2,0.8,0.5,2.1C-1970.2,174.9-1970,175.6-1970,175.7z"/>
								</g>
								<g transform="scale(0.707)">
									<path id="MJMATHI-6E_1_" class="st16" d="M-1966.1,174.9c0,0.1,0,0.2,0.1,0.3c0,0.1,0.1,0.4,0.2,0.7s0.3,0.7,0.4,0.9
										c0.1,0.2,0.3,0.5,0.7,0.7s0.6,0.3,0.9,0.3c0.5,0,0.9-0.1,1.2-0.4c0.3-0.2,0.5-0.5,0.6-0.7c0.1-0.2,0.1-0.3,0.1-0.4
										c0,0,0,0,0,0l0.2,0.2c0.8,0.8,1.7,1.3,2.7,1.3c0.7,0,1.3-0.2,1.7-0.5c0.4-0.4,0.7-0.9,0.7-1.6c0-0.7-0.2-1.7-0.7-3.1
										s-0.8-2.2-0.7-2.5c0-0.3,0.1-0.5,0.3-0.5c0.1,0,0.1,0,0.2,0c0.4,0.1,0.7,0.3,1,0.7s0.5,1,0.7,1.6c0,0.1,0.2,0.2,0.4,0.2
										c0.3,0,0.4-0.1,0.4-0.2c0,0,0-0.1-0.1-0.3c-0.1-0.4-0.2-0.8-0.4-1.1c-0.2-0.4-0.5-0.7-0.9-1.1c-0.4-0.4-0.9-0.5-1.4-0.5
										c-0.6,0-1.1,0.2-1.3,0.5c-0.3,0.4-0.4,0.7-0.4,1.1c0,0.2,0.2,1,0.7,2.4c0.5,1.3,0.7,2.3,0.7,3c0,0.8-0.3,1.2-0.9,1.2h-0.1
										c-1.1,0-2.1-0.7-2.9-2l-0.1-0.2l-0.7-2.6c-0.4-1.7-0.7-2.6-0.7-2.8c-0.2-0.4-0.5-0.5-0.8-0.5c-0.2,0-0.3,0-0.4,0.1
										s-0.2,0.2-0.2,0.2s-0.1,0.1,0,0.2c0,0.2,0.2,1.2,0.7,3.2s0.8,3,0.8,3.2c0,0.1,0,0.2,0,0.5c0,0.5-0.2,0.8-0.5,0.8
										c-0.5,0-0.9-0.7-1.2-2c-0.1-0.3-0.1-0.4-0.1-0.4c0-0.1-0.2-0.1-0.4-0.1h-0.3C-1966.1,174.8-1966.1,174.9-1966.1,174.9z"/>
								</g>
							</g>
						</g>
					</g>
				</g>
			</g>
			<g>
				<g pointer-events="none" transform="translate(473.4853736145244,157.1223052914439)translate(34.2509765625,0)">
					<g transform="matrix(1 0 0 -1 0 0)">
						<g>
							<path id="MJMATHI-50_2_" class="st17" d="M-46.4,59.6c0,0.1-0.5,0.2-1.6,0.3c-0.4,0-0.7,0-0.9,0c-0.1,0-0.2,0.1-0.2,0.3
								c0,0,0,0.1,0.1,0.3c0.1,0.4,0.2,0.6,0.3,0.6c0.1,0,1.9,0.1,5.4,0.1c3.5,0,5.4,0,5.7-0.1c1.2-0.2,2.2-0.7,3-1.4
								c0.8-0.7,1.2-1.6,1.2-2.8c0-1.4-0.6-2.7-1.8-3.9c-1.3-1.3-2.9-2.1-5-2.4c-0.1,0-1.1,0-2.9-0.1h-2.6l-0.8-3.3
								c-0.6-2.2-0.8-3.3-0.8-3.4c0-0.1,0-0.1,0-0.1c0,0,0.1-0.1,0.2-0.1c0.1-0.1,0.3-0.1,0.5-0.1c0.2,0,0.5,0,0.9-0.1h0.9
								c0.1-0.2,0.2-0.3,0.2-0.3c0-0.3-0.1-0.6-0.2-0.8c-0.1-0.1-0.2-0.1-0.4-0.1c-0.1,0-0.4,0-1,0c-0.6,0-1.6,0-2.8,0
								c-1.2,0-2,0-2.6,0c-0.6,0-0.9,0-1,0c-0.3,0-0.5,0.1-0.5,0.3c0,0,0,0.2,0.1,0.4c0.1,0.3,0.1,0.5,0.2,0.5
								c0.1,0,0.3,0.1,0.6,0.1c0.5,0,1.1,0,1.7,0.1c0.3,0.1,0.4,0.2,0.5,0.3c0.1,0.1,0.7,2.7,2,7.7S-46.4,59.3-46.4,59.6z
								 M-36.5,57.5c0,0.2,0,0.4-0.1,0.6c0,0.1-0.1,0.4-0.3,0.6s-0.4,0.5-0.7,0.6s-0.8,0.3-1.4,0.4c-0.1,0-0.9,0-2.2,0.1
								c-0.3,0-0.6,0-1,0c-0.3,0-0.6,0-0.8,0c-0.2,0-0.3,0-0.3,0c-0.2,0-0.4-0.1-0.5-0.3c0-0.1-0.2-0.8-0.5-2.1
								c-0.3-1.3-0.6-2.6-1-3.8c-0.3-1.2-0.5-1.9-0.5-1.9c0,0,0.8-0.1,2.3-0.1h0.3h0.6c2.1,0,3.6,0.5,4.5,1.4
								c0.5,0.5,0.9,1.2,1.1,2.2C-36.6,56.2-36.5,56.9-36.5,57.5z"/>
						</g>
						<g>
							<path id="MJMATHI-45_2_" class="st17" d="M-19.8,48c-0.4,0-0.6,0.1-0.6,0.4c0,0.1,0,0.3,0.1,0.7c0.1,0.4,0.1,0.7,0.1,1
								c0,0.6-0.2,0.9-0.6,1.1c-0.4,0.1-1.3,0.2-2.7,0.2h-1.4c0,0-0.3-1.3-1-3.8c-0.6-2.5-0.9-3.8-0.9-3.9s0.1-0.1,0.3-0.1
								s0.9,0,2.2-0.1c1.7,0,2.9,0,3.5,0.1c0.6,0,1.1,0.2,1.7,0.4c0.9,0.3,1.7,0.8,2.3,1.6s1.3,2,2,3.7c0.2,0.4,0.3,0.6,0.4,0.7
								c0.1,0,0.3,0.1,0.4,0.1c0.4,0,0.6-0.1,0.6-0.4c-2-4.7-3-7.1-3.1-7.2c-0.1,0-2.7-0.1-8-0.1h-5.3c-1.9,0-2.8,0.1-2.8,0.3
								c0,0,0,0.2,0.1,0.4c0.1,0.3,0.1,0.5,0.2,0.5c0.1,0,0.3,0.1,0.6,0.1c0.5,0,1.1,0,1.7,0.1c0.3,0.1,0.4,0.2,0.5,0.3
								c0,0.1,0.7,2.7,2,7.8c1.3,5.1,1.9,7.7,2,7.8c0,0.1,0,0.2-0.1,0.2c-0.1,0.1-0.6,0.1-1.5,0.1H-28c-0.1,0.1-0.2,0.2-0.2,0.2
								s0,0.2,0.1,0.5c0.1,0.3,0.2,0.5,0.3,0.6h15.4c0.1-0.1,0.2-0.2,0.2-0.3c0-0.1-0.1-1.1-0.4-3.1c-0.2-2-0.4-3-0.4-3.1
								c0-0.1-0.2-0.2-0.6-0.2h-0.3c-0.1,0.1-0.2,0.2-0.2,0.4l0.1,0.6c0.1,0.4,0.1,0.9,0.1,1.4c0,0.6-0.1,1-0.2,1.4
								c-0.1,0.4-0.3,0.7-0.5,0.9c-0.2,0.2-0.5,0.4-1,0.4c-0.4,0.1-0.9,0.2-1.3,0.2c-0.4,0-1,0.1-1.8,0.1H-20c-1.6,0-2.5,0-2.6-0.1
								c-0.1,0-0.1-0.1-0.2-0.3c0-0.1-0.3-1.2-0.9-3.4c-0.6-2.2-0.8-3.4-0.9-3.4c0.4,0,0.9,0,1.3,0h0.7c1.2,0,2.1,0.1,2.5,0.4
								c0.5,0.3,0.9,1,1.3,2.3c0.1,0.3,0.1,0.5,0.2,0.5s0.2,0.1,0.5,0.1c0.1,0,0.2,0,0.2,0c0.1,0,0.1,0,0.1,0c0,0,0.1,0,0.1,0
								s0,0,0.1-0.1c0-0.1,0.1-0.1,0.1-0.1l-0.9-3.7c-0.6-2.5-0.9-3.7-1-3.8C-19.4,48-19.5,48-19.8,48z"/>
						</g>
						<g transform="translate(1516,0)">
							<g>
								<path id="MJMATHI-3B8" class="st17" d="M-1527.2,47.6c0,1.9,0.4,3.9,1.1,6c0.7,2.1,1.7,3.9,3,5.4c1.2,1.5,2.5,2.4,3.9,2.6
									c0,0,0.1,0,0.2,0c0.1,0,0.2,0,0.3,0c1-0.1,1.8-0.5,2.3-1.4c0.7-1.1,1.1-2.6,1.1-4.5c0-2.1-0.4-4.3-1.3-6.5
									c-0.8-2.2-1.9-4-3.2-5.4c-1.3-1.4-2.5-2.1-3.7-2.1h-0.2c-0.7,0-1.2,0.2-1.7,0.6s-0.8,0.9-1.1,1.5c-0.2,0.6-0.4,1.2-0.5,1.9
									C-1527.1,46.3-1527.2,47-1527.2,47.6z M-1517.5,57.8c0,1.9-0.5,2.8-1.5,2.8c-0.7,0-1.3-0.4-2-1.3s-1.2-1.8-1.6-2.8
									c-0.4-1.1-0.7-2-0.9-2.8c-0.2-0.8-0.3-1.3-0.4-1.4c0.9,0,1.8,0,2.7,0l2.7,0c0,0,0.1,0.3,0.2,0.9c0.1,0.6,0.3,1.3,0.4,2.2
									C-1517.6,56.4-1517.5,57.2-1517.5,57.8z M-1525,45.7c0-2,0.5-3,1.5-3c0.3,0,0.6,0.1,0.9,0.3c0.3,0.2,0.7,0.5,1.1,1.1
									s0.9,1.3,1.3,2.4c0.4,1.1,0.9,2.5,1.3,4.1l0.1,0.5h-5.4c0-0.1-0.1-0.4-0.3-1.1c-0.2-0.7-0.3-1.4-0.4-2.2
									C-1525,47.1-1525,46.4-1525,45.7z"/>
							</g>
							<g transform="translate(469,-150)">
								<g transform="scale(0.707)">
									<path id="MJMATHI-6D_2_" class="st18" d="M-1983.7,193.5c0,0.1,0,0.2,0.1,0.3c0,0.1,0.1,0.4,0.2,0.7s0.3,0.7,0.4,0.9
										c0.1,0.2,0.3,0.5,0.6,0.7c0.3,0.2,0.6,0.3,0.9,0.3s0.6-0.1,0.8-0.1c0.3-0.1,0.5-0.2,0.6-0.4c0.1-0.2,0.2-0.3,0.3-0.4
										c0.1-0.1,0.1-0.3,0.2-0.4l0-0.1c0,0,0,0,0,0l0.2,0.2c0.8,0.8,1.7,1.3,2.8,1.3c0.2,0,0.4,0,0.6,0c0.2,0,0.4-0.1,0.5-0.1
										c0.2-0.1,0.3-0.1,0.4-0.2c0.1-0.1,0.2-0.1,0.3-0.2c0.1-0.1,0.2-0.2,0.2-0.3c0-0.1,0.1-0.2,0.2-0.3c0.1-0.1,0.1-0.2,0.1-0.2
										c0-0.1,0-0.1,0.1-0.2c0.1-0.1,0.1-0.1,0-0.1l0.2,0.2c0.8,1,1.8,1.5,2.9,1.5c0.7,0,1.3-0.2,1.7-0.5c0.4-0.4,0.7-0.9,0.7-1.6
										c0-0.7-0.2-1.7-0.7-3.1c-0.5-1.4-0.7-2.2-0.7-2.5c0-0.2,0-0.3,0.1-0.4c0.1-0.1,0.2-0.1,0.3-0.1c0.4,0,0.7,0.2,1,0.6
										c0.3,0.4,0.6,0.9,0.8,1.6c0,0.1,0.1,0.2,0.1,0.3c0,0,0.1,0,0.3,0c0.3,0,0.4-0.1,0.4-0.2c0,0,0-0.1-0.1-0.3
										c-0.1-0.4-0.2-0.8-0.4-1.1c-0.2-0.4-0.5-0.7-0.9-1.1c-0.4-0.4-0.9-0.5-1.4-0.5c-0.6,0-1.1,0.2-1.3,0.5
										c-0.3,0.4-0.4,0.7-0.4,1.1c0,0.2,0.2,1,0.7,2.4c0.5,1.3,0.7,2.3,0.7,3c0,0.8-0.3,1.2-0.9,1.2h-0.1c-1.1,0-2.1-0.7-2.9-2
										l-0.1-0.2l-0.7-2.6c-0.4-1.7-0.7-2.6-0.7-2.8c-0.2-0.4-0.5-0.5-0.8-0.5c-0.2,0-0.3,0-0.4,0.1c-0.1,0.1-0.2,0.2-0.2,0.2
										c0,0.1-0.1,0.1-0.1,0.2c0,0.1,0.2,1.1,0.7,2.8l0.7,2.9c0,0.2,0.1,0.4,0.1,0.7c0,0.8-0.3,1.2-0.9,1.2h-0.1
										c-1.1,0-2.1-0.7-2.9-2l-0.1-0.2l-0.7-2.6c-0.4-1.7-0.7-2.6-0.7-2.8c-0.2-0.4-0.5-0.5-0.8-0.5c-0.2,0-0.3,0-0.4,0.1
										s-0.2,0.2-0.2,0.2c0,0.1-0.1,0.1,0,0.2c0,0.2,0.2,1.2,0.7,3.2c0.5,2,0.8,3.1,0.8,3.2c0,0.2,0.1,0.4,0.1,0.5
										c0,0.5-0.2,0.7-0.5,0.7c-0.3,0-0.5-0.2-0.7-0.6c-0.2-0.4-0.3-0.8-0.5-1.2c-0.1-0.4-0.2-0.7-0.2-0.7c0,0-0.1,0-0.3,0h-0.3
										C-1983.7,193.4-1983.7,193.5-1983.7,193.5z"/>
								</g>
								<g transform="scale(0.707)">
									<path id="MJMATHI-65_2_" class="st18" d="M-1966,191.2c0,0.7,0.1,1.4,0.4,2c0.2,0.6,0.6,1.1,1,1.5s0.8,0.7,1.3,1
										c0.5,0.3,0.9,0.5,1.4,0.6c0.4,0.1,0.8,0.2,1.2,0.2h0.1c0.6,0,1.1-0.1,1.5-0.4s0.7-0.7,0.7-1.3c0-1.2-0.7-2-2.2-2.3
										c-0.6-0.2-1.5-0.3-2.6-0.3c-0.5,0-0.7,0-0.7,0c0,0,0-0.3-0.1-0.7c-0.1-0.4-0.1-0.8-0.1-1.1c0-0.6,0.1-1.1,0.4-1.5
										c0.3-0.4,0.7-0.5,1.2-0.6c0.6,0,1.2,0.1,1.8,0.4s1.3,0.7,1.8,1.3c0.1,0.1,0.2,0.2,0.2,0.2c0.1,0,0.1-0.1,0.3-0.2
										c0.1-0.1,0.2-0.2,0.2-0.3c0-0.1,0-0.2-0.2-0.3s-0.3-0.3-0.6-0.5c-0.3-0.2-0.6-0.4-0.9-0.6c-0.3-0.2-0.8-0.4-1.2-0.5
										c-0.5-0.1-1-0.2-1.5-0.2c-1,0-1.8,0.3-2.4,1S-1966,190.2-1966,191.2z M-1959.5,194.8c-0.1,0.7-0.5,1-1.3,1
										c-0.4,0-0.8-0.1-1.2-0.3s-0.7-0.4-0.9-0.7c-0.2-0.3-0.4-0.5-0.6-0.8c-0.2-0.3-0.3-0.5-0.3-0.7c-0.1-0.2-0.1-0.3-0.1-0.4
										c0,0,0.1,0,0.4,0c1.5,0,2.5,0.2,3.1,0.5C-1959.8,193.8-1959.5,194.3-1959.5,194.8z"/>
								</g>
								<g transform="scale(0.707)">
									<path id="MJMATHI-61_2_" class="st18" d="M-1957,191c0,1.3,0.5,2.6,1.5,3.8c1,1.2,2.1,1.8,3.4,1.8c0.7,0,1.3-0.3,1.8-1
										c0.2,0.4,0.5,0.6,0.9,0.6c0.2,0,0.3-0.1,0.5-0.2c0.1-0.1,0.2-0.2,0.2-0.4c0-0.2-0.2-1.2-0.7-3.2c-0.5-1.9-0.7-3-0.7-3.3
										c0-0.3,0-0.5,0.1-0.7c0.1-0.1,0.2-0.2,0.4-0.2c0.1,0,0.2,0.1,0.4,0.2c0.3,0.3,0.5,0.9,0.8,1.9c0.1,0.3,0.1,0.4,0.2,0.4
										c0,0,0.1,0,0.2,0h0.1c0.2,0,0.4-0.1,0.4-0.2c0-0.1,0-0.3-0.1-0.5c-0.1-0.3-0.2-0.6-0.4-1.1c-0.2-0.4-0.4-0.8-0.6-1
										c-0.2-0.2-0.4-0.3-0.6-0.4c-0.1,0-0.3,0-0.5,0c-0.4,0-0.8,0.1-1.1,0.3s-0.5,0.4-0.6,0.6l-0.1,0.3c0,0,0,0-0.1,0
										c0,0-0.1-0.1-0.1-0.1c-0.8-0.7-1.6-1.1-2.4-1.1c-0.7,0-1.4,0.3-1.9,0.8C-1956.7,189-1957,189.8-1957,191z M-1950.7,194.3
										c0,0.1,0,0.2-0.1,0.4c-0.1,0.2-0.2,0.4-0.5,0.7c-0.2,0.2-0.5,0.4-0.9,0.4c-0.5,0-0.9-0.2-1.3-0.6c-0.4-0.4-0.7-0.9-1-1.6
										c-0.4-1-0.7-2.1-0.8-3.2c0,0,0-0.1,0-0.2s0-0.2,0-0.2c0-0.6,0.1-1,0.4-1.2c0.2-0.2,0.5-0.3,0.8-0.4c0.5,0,1,0.2,1.5,0.7
										c0.5,0.4,0.8,0.8,0.9,1c0,0.1,0.2,0.8,0.5,2.1C-1950.9,193.5-1950.7,194.2-1950.7,194.3z"/>
								</g>
								<g transform="scale(0.707)">
									<path id="MJMATHI-6E_2_" class="st18" d="M-1946.8,193.5c0,0.1,0,0.2,0.1,0.3c0,0.1,0.1,0.4,0.2,0.7
										c0.1,0.4,0.3,0.7,0.4,0.9c0.1,0.2,0.3,0.5,0.7,0.7c0.3,0.2,0.6,0.3,0.9,0.3c0.5,0,0.9-0.1,1.2-0.4c0.3-0.2,0.5-0.5,0.6-0.7
										c0.1-0.2,0.1-0.3,0.1-0.4c0,0,0,0,0,0l0.2,0.2c0.8,0.8,1.7,1.3,2.7,1.3c0.7,0,1.3-0.2,1.7-0.5c0.4-0.4,0.7-0.9,0.7-1.6
										c0-0.7-0.2-1.7-0.7-3.1c-0.5-1.4-0.8-2.2-0.7-2.5c0-0.3,0.1-0.5,0.3-0.5c0.1,0,0.1,0,0.2,0c0.4,0.1,0.7,0.3,1,0.7
										c0.3,0.4,0.5,1,0.7,1.6c0,0.1,0.2,0.2,0.4,0.2c0.3,0,0.4-0.1,0.4-0.2c0,0,0-0.1-0.1-0.3c-0.1-0.4-0.2-0.8-0.4-1.1
										c-0.2-0.4-0.5-0.7-0.9-1.1c-0.4-0.4-0.9-0.5-1.4-0.5c-0.6,0-1.1,0.2-1.3,0.5c-0.3,0.4-0.4,0.7-0.4,1.1c0,0.2,0.2,1,0.7,2.4
										c0.5,1.3,0.7,2.3,0.7,3c0,0.8-0.3,1.2-0.9,1.2h-0.1c-1.1,0-2.1-0.7-2.9-2l-0.1-0.2l-0.7-2.6c-0.4-1.7-0.7-2.6-0.7-2.8
										c-0.2-0.4-0.5-0.5-0.8-0.5c-0.2,0-0.3,0-0.4,0.1c-0.1,0.1-0.2,0.2-0.2,0.2c0,0.1-0.1,0.1,0,0.2c0,0.2,0.2,1.2,0.7,3.2
										c0.5,2,0.8,3,0.8,3.2c0,0.1,0,0.2,0,0.5c0,0.5-0.2,0.8-0.5,0.8c-0.5,0-0.9-0.7-1.2-2c-0.1-0.3-0.1-0.4-0.1-0.4
										c0-0.1-0.2-0.1-0.4-0.1h-0.3C-1946.7,193.4-1946.8,193.5-1946.8,193.5z"/>
								</g>
							</g>
						</g>
					</g>
				</g>
			</g>
			<g>
				<g pointer-events="none" transform="translate(318.43647496002677,134.8296391571007)translate(-21.74951171875,0)">
					<g transform="matrix(1 0 0 -1 0 0)">
						<g>
							<path id="MJMATHI-3B1" class="st19" d="M-13.5,42.8c0,2.1,0.8,4,2.4,5.6s3.4,2.4,5.3,2.4c1.3,0,2.3-0.4,3.1-1.1
								c0.8-0.7,1.3-1.7,1.6-2.7c0.1-0.5,0.2-1.2,0.2-1.9v-0.8c0.9,1.4,1.6,2.9,2.1,4.6c0.1,0.3,0.1,0.4,0.2,0.4
								c0,0,0.2,0.1,0.4,0.1c0.4,0,0.6-0.1,0.6-0.2c0-0.2-0.1-0.5-0.3-1.1s-0.5-1.3-1-2.4c-0.5-1-1.1-2-1.7-2.8l-0.3-0.4l0-0.7
								c0-1,0.1-1.7,0.2-2.1c0.1-0.4,0.3-0.6,0.5-0.6c0.3,0,0.5,0.1,0.7,0.3c0.2,0.2,0.4,0.4,0.5,0.6c0,0.1,0.1,0.2,0.1,0.2
								s0.2,0,0.4,0.1c0.4,0,0.6-0.1,0.6-0.2c0-0.1-0.1-0.3-0.2-0.5c-0.2-0.4-0.5-0.8-1-1.1c-0.4-0.3-0.8-0.4-1.2-0.4h-0.2
								c-1.2,0-2.1,0.7-2.5,2L-3,40.4l-0.3-0.2c-0.2-0.1-0.5-0.3-0.8-0.6c-0.4-0.2-0.8-0.4-1.3-0.6c-0.5-0.2-1-0.4-1.6-0.6
								s-1.2-0.3-1.8-0.3c-1.5,0-2.6,0.5-3.5,1.4C-13.1,40.5-13.5,41.6-13.5,42.8z M-8.6,39.2c0.9,0,1.8,0.2,2.7,0.6
								c0.9,0.4,1.6,0.8,2,1.2l0.7,0.6c0,2.7-0.1,4.3-0.2,5c-0.3,2.1-1.1,3.2-2.6,3.2c-1.3,0-2.4-0.7-3.4-2c-0.5-0.7-0.9-1.7-1.2-3
								c-0.3-1.3-0.5-2.2-0.5-2.9c0-0.9,0.2-1.6,0.7-2S-9.3,39.2-8.6,39.2z"/>
						</g>
						<g transform="translate(640,-150)">
							<g transform="scale(0.707)">
								<path id="MJMATHI-6D_3_" class="st20" d="M-636.2,189.9c0,0.1,0,0.2,0.1,0.3c0,0.1,0.1,0.4,0.2,0.7c0.1,0.4,0.3,0.7,0.4,0.9
									c0.1,0.2,0.3,0.5,0.6,0.7c0.3,0.2,0.6,0.3,0.9,0.3c0.3,0,0.6-0.1,0.8-0.1c0.3-0.1,0.5-0.2,0.6-0.4c0.1-0.2,0.2-0.3,0.3-0.4
									c0.1-0.1,0.1-0.3,0.2-0.4l0-0.1c0,0,0,0,0,0l0.2,0.2c0.8,0.8,1.7,1.3,2.8,1.3c0.2,0,0.4,0,0.6,0c0.2,0,0.4-0.1,0.5-0.1
									s0.3-0.1,0.4-0.2c0.1-0.1,0.2-0.1,0.3-0.2c0.1-0.1,0.2-0.2,0.2-0.3c0-0.1,0.1-0.2,0.2-0.3c0.1-0.1,0.1-0.2,0.1-0.2
									c0-0.1,0-0.1,0.1-0.2s0.1-0.1,0-0.1l0.2,0.2c0.8,1,1.8,1.5,2.9,1.5c0.7,0,1.3-0.2,1.7-0.5c0.4-0.4,0.7-0.9,0.7-1.6
									c0-0.7-0.2-1.7-0.7-3.1s-0.7-2.2-0.7-2.5c0-0.2,0-0.3,0.1-0.4s0.2-0.1,0.3-0.1c0.4,0,0.7,0.2,1,0.6c0.3,0.4,0.6,0.9,0.8,1.6
									c0,0.1,0.1,0.2,0.1,0.3c0,0,0.1,0,0.3,0c0.3,0,0.4-0.1,0.4-0.2c0,0,0-0.1-0.1-0.3c-0.1-0.4-0.2-0.8-0.4-1.1
									c-0.2-0.4-0.5-0.7-0.9-1.1c-0.4-0.4-0.9-0.5-1.4-0.5c-0.6,0-1.1,0.2-1.3,0.5c-0.3,0.4-0.4,0.7-0.4,1.1c0,0.2,0.2,1,0.7,2.4
									c0.5,1.3,0.7,2.3,0.7,3c0,0.8-0.3,1.2-0.9,1.2h-0.1c-1.1,0-2.1-0.7-2.9-2l-0.1-0.2l-0.7-2.6c-0.4-1.7-0.7-2.6-0.7-2.8
									c-0.2-0.4-0.5-0.5-0.8-0.5c-0.2,0-0.3,0-0.4,0.1s-0.2,0.2-0.2,0.2c0,0.1-0.1,0.1-0.1,0.2c0,0.1,0.2,1.1,0.7,2.8l0.7,2.9
									c0,0.2,0.1,0.4,0.1,0.7c0,0.8-0.3,1.2-0.9,1.2h-0.1c-1.1,0-2.1-0.7-2.9-2l-0.1-0.2l-0.7-2.6c-0.4-1.7-0.7-2.6-0.7-2.8
									c-0.2-0.4-0.5-0.5-0.8-0.5c-0.2,0-0.3,0-0.4,0.1c-0.1,0.1-0.2,0.2-0.2,0.2c0,0.1-0.1,0.1,0,0.2c0,0.2,0.2,1.2,0.7,3.2
									c0.5,2,0.8,3.1,0.8,3.2c0,0.2,0.1,0.4,0.1,0.5c0,0.5-0.2,0.7-0.5,0.7c-0.3,0-0.5-0.2-0.7-0.6c-0.2-0.4-0.3-0.8-0.5-1.2
									s-0.2-0.7-0.2-0.7c0,0-0.1,0-0.3,0h-0.3C-636.1,189.8-636.2,189.9-636.2,189.9z"/>
							</g>
							<g transform="scale(0.707)">
								<path id="MJMATHI-65_3_" class="st20" d="M-618.5,187.6c0,0.7,0.1,1.4,0.4,2c0.2,0.6,0.6,1.1,1,1.5s0.8,0.7,1.3,1
									c0.5,0.3,0.9,0.5,1.4,0.6c0.4,0.1,0.8,0.2,1.2,0.2h0.1c0.6,0,1.1-0.1,1.5-0.4c0.4-0.3,0.7-0.7,0.7-1.3c0-1.2-0.7-2-2.2-2.3
									c-0.6-0.2-1.5-0.3-2.6-0.3c-0.5,0-0.7,0-0.7,0c0,0,0-0.3-0.1-0.7c-0.1-0.4-0.1-0.8-0.1-1.1c0-0.6,0.1-1.1,0.4-1.5
									c0.3-0.4,0.7-0.5,1.2-0.6s1.2,0.1,1.8,0.4c0.7,0.3,1.3,0.7,1.8,1.3c0.1,0.1,0.2,0.2,0.2,0.2c0.1,0,0.1-0.1,0.3-0.2
									c0.1-0.1,0.2-0.2,0.2-0.3c0-0.1,0-0.2-0.2-0.3c-0.1-0.1-0.3-0.3-0.6-0.5c-0.3-0.2-0.6-0.4-0.9-0.6c-0.3-0.2-0.8-0.4-1.2-0.5
									c-0.5-0.1-1-0.2-1.5-0.2c-1,0-1.8,0.3-2.4,1C-618.2,185.8-618.5,186.6-618.5,187.6z M-611.9,191.2c-0.1,0.7-0.5,1-1.3,1
									c-0.4,0-0.8-0.1-1.2-0.3c-0.4-0.2-0.7-0.4-0.9-0.7c-0.2-0.3-0.4-0.5-0.6-0.8c-0.2-0.3-0.3-0.5-0.3-0.7
									c-0.1-0.2-0.1-0.3-0.1-0.4c0,0,0.1,0,0.4,0c1.5,0,2.5,0.2,3.1,0.5C-612.3,190.2-612,190.6-611.9,191.2z"/>
							</g>
							<g transform="scale(0.707)">
								<path id="MJMATHI-61_3_" class="st20" d="M-609.4,187.4c0,1.3,0.5,2.6,1.5,3.8c1,1.2,2.1,1.8,3.4,1.8c0.7,0,1.3-0.3,1.8-1
									c0.2,0.4,0.5,0.6,0.9,0.6c0.2,0,0.3-0.1,0.5-0.2c0.1-0.1,0.2-0.2,0.2-0.4c0-0.2-0.2-1.2-0.7-3.2c-0.5-1.9-0.7-3-0.7-3.3
									c0-0.3,0-0.5,0.1-0.7c0.1-0.1,0.2-0.2,0.4-0.2c0.1,0,0.2,0.1,0.4,0.2c0.3,0.3,0.5,0.9,0.8,1.9c0.1,0.3,0.1,0.4,0.2,0.4
									c0,0,0.1,0,0.2,0h0.1c0.2,0,0.4-0.1,0.4-0.2c0-0.1,0-0.3-0.1-0.5c-0.1-0.3-0.2-0.6-0.4-1.1c-0.2-0.4-0.4-0.8-0.6-1
									c-0.2-0.2-0.4-0.3-0.6-0.4c-0.1,0-0.3,0-0.5,0c-0.4,0-0.8,0.1-1.1,0.3c-0.3,0.2-0.5,0.4-0.6,0.6l-0.1,0.3c0,0,0,0-0.1,0
									c0,0-0.1-0.1-0.1-0.1c-0.8-0.7-1.6-1.1-2.4-1.1c-0.7,0-1.4,0.3-1.9,0.8C-609.2,185.4-609.4,186.2-609.4,187.4z
									 M-603.2,190.7c0,0.1,0,0.2-0.1,0.4c-0.1,0.2-0.2,0.4-0.5,0.7c-0.2,0.2-0.5,0.4-0.9,0.4c-0.5,0-0.9-0.2-1.3-0.6
									c-0.4-0.4-0.7-0.9-1-1.6c-0.4-1-0.7-2.1-0.8-3.2c0,0,0-0.1,0-0.2c0-0.1,0-0.2,0-0.2c0-0.6,0.1-1,0.4-1.2
									c0.2-0.2,0.5-0.3,0.8-0.4c0.5,0,1,0.2,1.5,0.7s0.8,0.8,0.9,1c0,0.1,0.2,0.8,0.5,2.1S-603.2,190.6-603.2,190.7z"/>
							</g>
							<g transform="scale(0.707)">
								<path id="MJMATHI-6E_3_" class="st20" d="M-599.3,189.9c0,0.1,0,0.2,0.1,0.3c0,0.1,0.1,0.4,0.2,0.7c0.1,0.4,0.3,0.7,0.4,0.9
									c0.1,0.2,0.3,0.5,0.7,0.7c0.3,0.2,0.6,0.3,0.9,0.3c0.5,0,0.9-0.1,1.2-0.4c0.3-0.2,0.5-0.5,0.6-0.7c0.1-0.2,0.1-0.3,0.1-0.4
									c0,0,0,0,0,0l0.2,0.2c0.8,0.8,1.7,1.3,2.7,1.3c0.7,0,1.3-0.2,1.7-0.5c0.4-0.4,0.7-0.9,0.7-1.6c0-0.7-0.2-1.7-0.7-3.1
									c-0.5-1.4-0.8-2.2-0.7-2.5c0-0.3,0.1-0.5,0.3-0.5c0.1,0,0.1,0,0.2,0c0.4,0.1,0.7,0.3,1,0.7c0.3,0.4,0.5,1,0.7,1.6
									c0,0.1,0.2,0.2,0.4,0.2c0.3,0,0.4-0.1,0.4-0.2c0,0,0-0.1-0.1-0.3c-0.1-0.4-0.2-0.8-0.4-1.1s-0.5-0.7-0.9-1.1
									c-0.4-0.4-0.9-0.5-1.4-0.5c-0.6,0-1.1,0.2-1.3,0.5c-0.3,0.4-0.4,0.7-0.4,1.1c0,0.2,0.2,1,0.7,2.4s0.7,2.3,0.7,3
									c0,0.8-0.3,1.2-0.9,1.2h-0.1c-1.1,0-2.1-0.7-2.9-2l-0.1-0.2l-0.7-2.6c-0.4-1.7-0.7-2.6-0.7-2.8c-0.2-0.4-0.5-0.5-0.8-0.5
									c-0.2,0-0.3,0-0.4,0.1c-0.1,0.1-0.2,0.2-0.2,0.2s-0.1,0.1,0,0.2c0,0.2,0.2,1.2,0.7,3.2s0.8,3,0.8,3.2c0,0.1,0,0.2,0,0.5
									c0,0.5-0.2,0.8-0.5,0.8c-0.5,0-0.9-0.7-1.2-2c-0.1-0.3-0.1-0.4-0.1-0.4c0-0.1-0.2-0.1-0.4-0.1h-0.3
									C-599.2,189.8-599.3,189.9-599.3,189.9z"/>
							</g>
						</g>
					</g>
				</g>
			</g>
			<g>
				<g pointer-events="none" transform="translate(175.94871596321076,199.90161832951617)translate(-14.52197265625,0)">
					<g transform="matrix(1 0 0 -1 0 0)">
						<g>
							<path id="MJMATHI-3B1_1_" class="st21" d="M-43.5,23.8c0,2.1,0.8,4,2.4,5.6c1.6,1.6,3.4,2.4,5.3,2.4c1.3,0,2.3-0.4,3.1-1.1
								c0.8-0.7,1.3-1.7,1.6-2.7c0.1-0.5,0.2-1.2,0.2-1.9v-0.8c0.9,1.4,1.6,2.9,2.1,4.6c0.1,0.3,0.1,0.4,0.2,0.4s0.2,0.1,0.4,0.1
								c0.4,0,0.6-0.1,0.6-0.2c0-0.2-0.1-0.5-0.3-1.1c-0.2-0.6-0.5-1.3-1-2.4c-0.5-1-1.1-2-1.7-2.8l-0.3-0.4l0-0.7
								c0-1,0.1-1.7,0.2-2.1c0.1-0.4,0.3-0.6,0.5-0.6c0.3,0,0.5,0.1,0.7,0.3c0.2,0.2,0.4,0.4,0.5,0.6c0,0.1,0.1,0.2,0.1,0.2
								c0.1,0,0.2,0,0.4,0.1c0.4,0,0.6-0.1,0.6-0.2c0-0.1-0.1-0.3-0.2-0.5c-0.2-0.4-0.5-0.8-1-1.1s-0.8-0.4-1.2-0.4h-0.2
								c-1.2,0-2.1,0.7-2.5,2l-0.1,0.2l-0.3-0.2c-0.2-0.1-0.5-0.3-0.8-0.6c-0.4-0.2-0.8-0.4-1.3-0.6c-0.5-0.2-1-0.4-1.6-0.6
								c-0.6-0.2-1.2-0.3-1.8-0.3c-1.5,0-2.6,0.5-3.5,1.4C-43,21.5-43.5,22.5-43.5,23.8z M-38.6,20.2c0.9,0,1.8,0.2,2.7,0.6
								s1.6,0.8,2,1.2l0.7,0.6c0,2.7-0.1,4.3-0.2,5c-0.3,2.1-1.1,3.2-2.6,3.2c-1.3,0-2.4-0.7-3.4-2c-0.5-0.7-0.9-1.7-1.2-3
								c-0.3-1.3-0.5-2.2-0.5-2.9c0-0.9,0.2-1.6,0.7-2C-39.9,20.4-39.3,20.2-38.6,20.2z"/>
						</g>
						<g transform="translate(640,-150)">
							<g transform="scale(0.707)">
								<path id="MJMATHI-73" class="st22" d="M-664,171c0,0.4,0.1,0.8,0.3,1.3c0.2,0.4,0.6,0.8,1.1,1.2s1.2,0.5,1.9,0.5
									c0.8,0,1.4-0.2,1.8-0.5s0.6-0.7,0.6-1.2c0-0.4-0.1-0.7-0.3-0.9c-0.2-0.2-0.5-0.3-0.7-0.3c-0.2,0-0.3,0.1-0.5,0.2
									c-0.1,0.1-0.2,0.3-0.2,0.5c0,0.2,0.1,0.4,0.2,0.6c0.1,0.2,0.2,0.3,0.3,0.4c0.1,0.1,0.2,0.1,0.3,0.1c0,0,0,0,0,0
									c0,0,0,0.1-0.1,0.2c-0.1,0.1-0.3,0.2-0.5,0.2c-0.2,0.1-0.5,0.1-0.8,0.1c-0.6,0-1.1-0.2-1.4-0.5c-0.3-0.3-0.4-0.7-0.5-1
									c0-0.3,0.1-0.6,0.4-0.7s0.6-0.2,1.1-0.3c0.5-0.1,0.8-0.2,1-0.3c0.9-0.4,1.3-1,1.3-1.9c0-0.4-0.1-0.7-0.2-1.1
									s-0.4-0.7-0.7-1.1c-0.3-0.4-0.7-0.7-1.2-0.9c-0.5-0.2-1.2-0.3-1.9-0.3c-1,0-1.7,0.2-2.1,0.6c-0.4,0.4-0.6,0.8-0.7,1.3
									c0,0.5,0.1,0.9,0.4,1.1s0.6,0.3,0.9,0.3c0.2,0,0.4-0.1,0.6-0.2s0.3-0.3,0.3-0.6c0-0.3-0.1-0.6-0.4-0.9
									c-0.2-0.2-0.4-0.4-0.6-0.4c0,0,0,0-0.1,0s0,0,0,0c0,0,0.1-0.1,0.2-0.2c0.1-0.1,0.3-0.2,0.6-0.3c0.3-0.1,0.7-0.2,1.1-0.1
									c0.5,0,0.9,0.1,1.2,0.2c0.3,0.1,0.6,0.3,0.7,0.6c0.2,0.2,0.3,0.4,0.3,0.6c0.1,0.2,0.1,0.3,0.1,0.5c0,0.4-0.1,0.6-0.4,0.8
									c-0.3,0.2-0.6,0.3-0.9,0.3c-0.4,0-0.7,0.1-1.2,0.3c-0.4,0.2-0.7,0.4-0.9,0.7C-663.9,170.1-664,170.5-664,171z"/>
							</g>
							<g transform="scale(0.707)">
								<path id="MJMATHI-74" class="st22" d="M-656.8,172.8c-0.1,0.1-0.1,0.2-0.1,0.2c0,0.1,0,0.2,0.1,0.3c0,0.2,0.1,0.2,0.1,0.3
									c0,0.1,0.1,0.1,0.2,0.1c0.1,0,0.4,0,1,0h1l0.4,1.6c0,0.1,0.1,0.3,0.1,0.6c0.1,0.2,0.1,0.4,0.1,0.5c0,0.1,0.1,0.2,0.1,0.4
									s0.1,0.3,0.2,0.3s0.1,0.1,0.2,0.2s0.2,0.2,0.3,0.2s0.2,0,0.4,0c0.2,0,0.4-0.1,0.5-0.2c0.1-0.1,0.1-0.3,0.1-0.4
									c0-0.1-0.1-0.4-0.2-0.9s-0.2-1-0.4-1.6l-0.2-0.7c0,0,0.3,0,1,0h1c0.1-0.1,0.1-0.2,0.1-0.2c0-0.3-0.1-0.5-0.3-0.7h-2.1
									l-0.7-2.9c-0.5-2.1-0.8-3.2-0.8-3.4c0-0.6,0.2-0.8,0.5-0.8c0.5,0,0.9,0.2,1.3,0.7c0.4,0.4,0.8,1,1,1.7
									c0,0.1,0.1,0.1,0.1,0.1s0.1,0,0.3,0h0.1c0.2,0,0.3-0.1,0.3-0.2c0,0,0-0.1-0.1-0.2c-0.1-0.2-0.2-0.5-0.4-0.7
									c-0.2-0.3-0.4-0.6-0.7-0.9c-0.3-0.3-0.6-0.6-1-0.8s-0.8-0.3-1.2-0.3c-0.4,0-0.8,0.1-1.1,0.3c-0.4,0.2-0.6,0.5-0.8,1
									c0,0.1,0,0.3,0,0.5v0.4l0.7,2.8c0.5,1.9,0.7,2.8,0.7,2.8c0,0-0.3,0-1,0H-656.8z"/>
							</g>
							<g transform="scale(0.707)">
								<path id="MJMATHI-64" class="st22" d="M-643,178.7c0,0,0.5,0,1.4,0.1c0.9,0.1,1.4,0.1,1.4,0.1c0.2,0,0.2-0.1,0.2-0.2
									c0-0.1-0.5-2.1-1.4-6c-1-3.9-1.5-5.9-1.5-5.9c0-0.1,0-0.2,0-0.3c0-0.6,0.2-0.8,0.6-0.8c0.1,0,0.2,0.1,0.4,0.2
									c0.3,0.3,0.5,0.9,0.8,1.9c0.1,0.3,0.1,0.4,0.2,0.4c0,0,0.1,0,0.2,0h0.1h0.1c0.2,0,0.3-0.1,0.3-0.2c0-0.1,0-0.2-0.1-0.3
									c-0.2-0.7-0.4-1.2-0.6-1.6c-0.2-0.4-0.4-0.7-0.6-0.8c-0.1-0.1-0.3-0.2-0.6-0.3c-0.1,0-0.3,0-0.5,0c-0.4,0-0.8,0.1-1.1,0.3
									c-0.3,0.2-0.5,0.4-0.6,0.6l-0.1,0.3c0,0,0,0-0.1,0c0,0-0.1-0.1-0.1-0.1c-0.8-0.7-1.6-1.1-2.4-1.1c-0.7,0-1.4,0.3-1.9,0.8
									c-0.6,0.5-0.8,1.4-0.8,2.5c0,0.6,0.1,1.3,0.4,1.9c0.3,0.7,0.6,1.2,0.9,1.7c0.6,0.7,1.2,1.3,1.9,1.6c0.6,0.3,1.2,0.4,1.7,0.4
									c0.7,0,1.3-0.3,1.7-0.8c0.1-0.1,0.1-0.1,0.1-0.1c0,0.1,0.2,0.8,0.5,2.1c0.3,1.4,0.5,2.1,0.6,2.2c0,0.2,0,0.3-0.1,0.3
									c-0.1,0-0.3,0.1-0.8,0.1h-0.4c-0.1,0.1-0.1,0.1-0.1,0.2c0,0,0,0.2,0,0.4C-643.2,178.6-643.1,178.7-643,178.7z M-643.3,171.7
									c-0.3,1-0.8,1.6-1.5,1.6c-0.5,0-0.9-0.2-1.3-0.6c-0.4-0.4-0.7-0.9-1-1.6c-0.4-1-0.7-2.1-0.8-3.2c0,0,0-0.1,0-0.2
									c0-0.1,0-0.2,0-0.2c0-0.6,0.1-1,0.4-1.2c0.2-0.2,0.5-0.3,0.8-0.4c0.7,0,1.4,0.5,2.2,1.4l0.2,0.2L-643.3,171.7z"/>
							</g>
						</g>
					</g>
				</g>
			</g>
			<g>
				<g pointer-events="none" transform="translate(91.26095333516975,331.67834919808257)translate(-21.1640625,0)">
					<g transform="matrix(1 0 0 -1 0 0)">
						<g>
							<path id="MJMATHI-3B2_1_" class="st23" d="M-55.7,3.4c-0.1,0.1-0.2,0.2-0.2,0.2c0,0.1,0.7,3,2.2,8.9s2.2,9,2.3,9.2
								c0.4,1.3,0.9,2.4,1.6,3.3c0.7,0.9,1.3,1.6,1.8,2.1c1,0.9,2.2,1.3,3.3,1.3h0.1c1.2,0,2.1-0.4,2.8-1.1s1.1-1.6,1.1-2.7
								c0-2-1-3.6-2.9-4.8l0.4-0.4c0.9-0.9,1.4-2.2,1.4-3.7c0-2.1-0.8-3.8-2.4-5.2s-3.4-2.1-5.3-2.1c-0.6,0-1.1,0.1-1.5,0.2
								c-0.4,0.1-0.8,0.3-1.1,0.5s-0.5,0.4-0.6,0.6s-0.3,0.4-0.3,0.5c-0.1,0.1-0.1,0.2-0.1,0.2l-1.8-7.1c0-0.1-0.2-0.2-0.6-0.2
								H-55.7z M-46.7,20.8c0.7,0,1.4-0.1,2.1-0.3l0.1,0.1c0.1,0.1,0.1,0.1,0.2,0.2c0.1,0.1,0.1,0.1,0.3,0.3s0.2,0.3,0.3,0.4
								s0.2,0.3,0.3,0.5c0.1,0.2,0.2,0.4,0.3,0.7c0.1,0.2,0.2,0.5,0.3,0.8s0.1,0.6,0.2,1c0,0.2,0.1,0.5,0.1,0.9c0,0.3,0,0.5,0,0.6
								c-0.3,0.9-1,1.4-2.1,1.4c-0.8,0-1.5-0.2-2.2-0.7s-1.3-1-1.7-1.7c-0.4-0.7-0.8-1.3-1.1-1.9c-0.3-0.6-0.5-1.1-0.6-1.6
								c-0.1-0.3-0.4-1.7-1.1-4.1s-0.9-3.7-0.9-3.9c0-0.1,0-0.3,0-0.6c0-0.9,0.2-1.6,0.6-2.2c0.6-0.8,1.4-1.2,2.4-1.2
								c0.8,0,1.6,0.2,2.5,0.7c0.9,0.5,1.6,1.3,2.1,2.4c0.3,0.6,0.5,1.3,0.7,2.1c0.1,0.8,0.2,1.4,0.2,1.8c0,1.1-0.3,1.9-1,2.6
								c-0.8-0.3-1.5-0.4-2.1-0.4h-0.3c-1.5,0-2.2,0.3-2.2,0.9c0,0.1,0,0.3,0.1,0.4C-49,20.6-48.1,20.8-46.7,20.8z"/>
						</g>
						<g transform="translate(566,-150)">
							<g transform="scale(0.707)">
								<path id="MJMATHI-6D_4_" class="st24" d="M-606.3,160.3c0,0.1,0,0.2,0.1,0.3c0,0.1,0.1,0.4,0.2,0.7c0.1,0.4,0.3,0.7,0.4,0.9
									s0.3,0.5,0.6,0.7c0.3,0.2,0.6,0.3,0.9,0.3s0.6-0.1,0.8-0.1s0.5-0.2,0.6-0.4c0.1-0.2,0.2-0.3,0.3-0.4
									c0.1-0.1,0.1-0.3,0.2-0.4l0-0.1c0,0,0,0,0,0l0.2,0.2c0.8,0.8,1.7,1.3,2.8,1.3c0.2,0,0.4,0,0.6,0c0.2,0,0.4-0.1,0.5-0.1
									s0.3-0.1,0.4-0.2c0.1-0.1,0.2-0.1,0.3-0.2c0.1-0.1,0.2-0.2,0.2-0.3c0-0.1,0.1-0.2,0.2-0.3c0.1-0.1,0.1-0.2,0.1-0.2
									c0-0.1,0-0.1,0.1-0.2c0.1-0.1,0.1-0.1,0-0.1l0.2,0.2c0.8,1,1.8,1.5,2.9,1.5c0.7,0,1.3-0.2,1.7-0.5c0.4-0.4,0.7-0.9,0.7-1.6
									c0-0.7-0.2-1.7-0.7-3.1s-0.7-2.2-0.7-2.5c0-0.2,0-0.3,0.1-0.4s0.2-0.1,0.3-0.1c0.4,0,0.7,0.2,1,0.6c0.3,0.4,0.6,0.9,0.8,1.6
									c0,0.1,0.1,0.2,0.1,0.3s0.1,0,0.3,0c0.3,0,0.4-0.1,0.4-0.2c0,0,0-0.1-0.1-0.3c-0.1-0.4-0.2-0.8-0.4-1.1
									c-0.2-0.4-0.5-0.7-0.9-1.1c-0.4-0.4-0.9-0.5-1.4-0.5c-0.6,0-1.1,0.2-1.3,0.5s-0.4,0.7-0.4,1.1c0,0.2,0.2,1,0.7,2.4
									c0.5,1.3,0.7,2.3,0.7,3c0,0.8-0.3,1.2-0.9,1.2h-0.1c-1.1,0-2.1-0.7-2.9-2l-0.1-0.2l-0.7-2.6c-0.4-1.7-0.7-2.6-0.7-2.8
									c-0.2-0.4-0.5-0.5-0.8-0.5c-0.2,0-0.3,0-0.4,0.1c-0.1,0.1-0.2,0.2-0.2,0.2c0,0.1-0.1,0.1-0.1,0.2c0,0.1,0.2,1.1,0.7,2.8
									l0.7,2.9c0,0.2,0.1,0.4,0.1,0.7c0,0.8-0.3,1.2-0.9,1.2h-0.1c-1.1,0-2.1-0.7-2.9-2l-0.1-0.2l-0.7-2.6
									c-0.4-1.7-0.7-2.6-0.7-2.8c-0.2-0.4-0.5-0.5-0.8-0.5c-0.2,0-0.3,0-0.4,0.1c-0.1,0.1-0.2,0.2-0.2,0.2s-0.1,0.1,0,0.2
									c0,0.2,0.2,1.2,0.7,3.2c0.5,2,0.8,3.1,0.8,3.2c0,0.2,0.1,0.4,0.1,0.5c0,0.5-0.2,0.7-0.5,0.7c-0.3,0-0.5-0.2-0.7-0.6
									c-0.2-0.4-0.3-0.8-0.5-1.2c-0.1-0.4-0.2-0.7-0.2-0.7c0,0-0.1,0-0.3,0h-0.3C-606.3,160.2-606.3,160.2-606.3,160.3z"/>
							</g>
							<g transform="scale(0.707)">
								<path id="MJMATHI-65_4_" class="st24" d="M-588.7,157.9c0,0.7,0.1,1.4,0.4,2c0.2,0.6,0.6,1.1,1,1.5c0.4,0.4,0.8,0.7,1.3,1
									s0.9,0.5,1.4,0.6c0.4,0.1,0.8,0.2,1.2,0.2h0.1c0.6,0,1.1-0.1,1.5-0.4c0.4-0.3,0.7-0.7,0.7-1.3c0-1.2-0.7-2-2.2-2.3
									c-0.6-0.2-1.5-0.3-2.6-0.3c-0.5,0-0.7,0-0.7,0c0,0,0-0.3-0.1-0.7c-0.1-0.4-0.1-0.8-0.1-1.1c0-0.6,0.1-1.1,0.4-1.5
									s0.7-0.5,1.2-0.6s1.2,0.1,1.8,0.4s1.3,0.7,1.8,1.3c0.1,0.1,0.2,0.2,0.2,0.2c0.1,0,0.1-0.1,0.3-0.2s0.2-0.2,0.2-0.3
									c0-0.1,0-0.2-0.2-0.3c-0.1-0.1-0.3-0.3-0.6-0.5c-0.3-0.2-0.6-0.4-0.9-0.6c-0.3-0.2-0.8-0.4-1.2-0.5c-0.5-0.1-1-0.2-1.5-0.2
									c-1,0-1.8,0.3-2.4,1S-588.7,157-588.7,157.9z M-582.1,161.6c-0.1,0.7-0.5,1-1.3,1c-0.4,0-0.8-0.1-1.2-0.3s-0.7-0.4-0.9-0.7
									c-0.2-0.3-0.4-0.5-0.6-0.8c-0.2-0.3-0.3-0.5-0.3-0.7c-0.1-0.2-0.1-0.3-0.1-0.4c0,0,0.1,0,0.4,0c1.5,0,2.5,0.2,3.1,0.5
									C-582.4,160.5-582.1,161-582.1,161.6z"/>
							</g>
							<g transform="scale(0.707)">
								<path id="MJMATHI-61_4_" class="st24" d="M-579.6,157.7c0,1.3,0.5,2.6,1.5,3.8s2.1,1.8,3.4,1.8c0.7,0,1.3-0.3,1.8-1
									c0.2,0.4,0.5,0.6,0.9,0.6c0.2,0,0.3-0.1,0.5-0.2c0.1-0.1,0.2-0.2,0.2-0.4c0-0.2-0.2-1.2-0.7-3.2c-0.5-1.9-0.7-3-0.7-3.3
									c0-0.3,0-0.5,0.1-0.7s0.2-0.2,0.4-0.2c0.1,0,0.2,0.1,0.4,0.2c0.3,0.3,0.5,0.9,0.8,1.9c0.1,0.3,0.1,0.4,0.2,0.4
									c0,0,0.1,0,0.2,0h0.1c0.2,0,0.4-0.1,0.4-0.2c0-0.1,0-0.3-0.1-0.5s-0.2-0.6-0.4-1.1c-0.2-0.4-0.4-0.8-0.6-1
									c-0.2-0.2-0.4-0.3-0.6-0.4c-0.1,0-0.3,0-0.5,0c-0.4,0-0.8,0.1-1.1,0.3c-0.3,0.2-0.5,0.4-0.6,0.6l-0.1,0.3c0,0,0,0-0.1,0
									c0,0-0.1-0.1-0.1-0.1c-0.8-0.7-1.6-1.1-2.4-1.1c-0.7,0-1.4,0.3-1.9,0.8S-579.6,156.6-579.6,157.7z M-573.3,161.1
									c0,0.1,0,0.2-0.1,0.4c-0.1,0.2-0.2,0.4-0.5,0.7c-0.2,0.2-0.5,0.4-0.9,0.4c-0.5,0-0.9-0.2-1.3-0.6c-0.4-0.4-0.7-0.9-1-1.6
									c-0.4-1-0.7-2.1-0.8-3.2c0,0,0-0.1,0-0.2c0-0.1,0-0.2,0-0.2c0-0.6,0.1-1,0.4-1.2s0.5-0.3,0.8-0.4c0.5,0,1,0.2,1.5,0.7
									c0.5,0.4,0.8,0.8,0.9,1c0,0.1,0.2,0.8,0.5,2.1S-573.3,161-573.3,161.1z"/>
							</g>
							<g transform="scale(0.707)">
								<path id="MJMATHI-6E_4_" class="st24" d="M-569.4,160.3c0,0.1,0,0.2,0.1,0.3c0,0.1,0.1,0.4,0.2,0.7c0.1,0.4,0.3,0.7,0.4,0.9
									s0.3,0.5,0.7,0.7c0.3,0.2,0.6,0.3,0.9,0.3c0.5,0,0.9-0.1,1.2-0.4s0.5-0.5,0.6-0.7c0.1-0.2,0.1-0.3,0.1-0.4c0,0,0,0,0,0
									l0.2,0.2c0.8,0.8,1.7,1.3,2.7,1.3c0.7,0,1.3-0.2,1.7-0.5c0.4-0.4,0.7-0.9,0.7-1.6c0-0.7-0.2-1.7-0.7-3.1
									c-0.5-1.4-0.8-2.2-0.7-2.5c0-0.3,0.1-0.5,0.3-0.5c0.1,0,0.1,0,0.2,0c0.4,0.1,0.7,0.3,1,0.7c0.3,0.4,0.5,1,0.7,1.6
									c0,0.1,0.2,0.2,0.4,0.2c0.3,0,0.4-0.1,0.4-0.2c0,0,0-0.1-0.1-0.3c-0.1-0.4-0.2-0.8-0.4-1.1c-0.2-0.4-0.5-0.7-0.9-1.1
									c-0.4-0.4-0.9-0.5-1.4-0.5c-0.6,0-1.1,0.2-1.3,0.5s-0.4,0.7-0.4,1.1c0,0.2,0.2,1,0.7,2.4s0.7,2.3,0.7,3
									c0,0.8-0.3,1.2-0.9,1.2h-0.1c-1.1,0-2.1-0.7-2.9-2l-0.1-0.2l-0.7-2.6c-0.4-1.7-0.7-2.6-0.7-2.8c-0.2-0.4-0.5-0.5-0.8-0.5
									c-0.2,0-0.3,0-0.4,0.1c-0.1,0.1-0.2,0.2-0.2,0.2s-0.1,0.1,0,0.2c0,0.2,0.2,1.2,0.7,3.2s0.8,3,0.8,3.2c0,0.1,0,0.2,0,0.5
									c0,0.5-0.2,0.8-0.5,0.8c-0.5,0-0.9-0.7-1.2-2c-0.1-0.3-0.1-0.4-0.1-0.4c0-0.1-0.2-0.1-0.4-0.1h-0.3
									C-569.4,160.2-569.4,160.2-569.4,160.3z"/>
							</g>
						</g>
					</g>
				</g>
			</g>
			<g>
				<g pointer-events="none" transform="translate(91.26095333516969,488.3216508019174)translate(-26.13232421875,0)">
					<g transform="matrix(1 0 0 -1 0 0)">
						<g>
							<path id="MJMAIN-7C" class="st25" d="M-53.1-25.2L-53.1-25.2c-0.3,0-0.4,0.1-0.6,0.4v13.5l0,13.5c0.2,0.2,0.4,0.4,0.5,0.4
								c0.2,0,0.4-0.1,0.6-0.4v-27C-52.7-25.1-52.9-25.2-53.1-25.2L-53.1-25.2z"/>
						</g>
						<g>
							<path id="MJMATHI-3B1_2_" class="st25" d="M-48.3-14c0,2.1,0.8,4,2.4,5.6c1.6,1.6,3.4,2.4,5.3,2.4c1.3,0,2.3-0.4,3.1-1.1
								s1.3-1.7,1.6-2.7c0.1-0.5,0.2-1.2,0.2-1.9v-0.8c0.9,1.4,1.6,2.9,2.1,4.6c0.1,0.3,0.1,0.4,0.2,0.4c0,0,0.2,0.1,0.4,0.1
								c0.4,0,0.6-0.1,0.6-0.2c0-0.2-0.1-0.5-0.3-1.1c-0.2-0.6-0.5-1.3-1-2.4s-1.1-2-1.7-2.8l-0.3-0.4l0-0.7c0-1,0.1-1.7,0.2-2.1
								c0.1-0.4,0.3-0.6,0.5-0.6c0.3,0,0.5,0.1,0.7,0.3c0.2,0.2,0.4,0.4,0.5,0.6c0,0.1,0.1,0.2,0.1,0.2s0.2,0,0.4,0.1
								c0.4,0,0.6-0.1,0.6-0.2c0-0.1-0.1-0.3-0.2-0.5c-0.2-0.4-0.5-0.8-1-1.1c-0.4-0.3-0.8-0.4-1.2-0.4h-0.2c-1.2,0-2.1,0.7-2.5,2
								l-0.1,0.2l-0.3-0.2c-0.2-0.1-0.5-0.3-0.8-0.6c-0.4-0.2-0.8-0.4-1.3-0.6s-1-0.4-1.6-0.6s-1.2-0.3-1.8-0.3
								c-1.5,0-2.6,0.5-3.5,1.4S-48.3-15.2-48.3-14z M-43.5-17.6c0.9,0,1.8,0.2,2.7,0.6c0.9,0.4,1.6,0.8,2,1.2l0.7,0.6
								c0,2.7-0.1,4.3-0.2,5C-38.5-8.1-39.3-7-40.8-7c-1.3,0-2.4-0.7-3.4-2c-0.5-0.7-0.9-1.7-1.2-3s-0.5-2.2-0.5-2.9
								c0-0.9,0.2-1.6,0.7-2S-44.1-17.6-43.5-17.6z"/>
						</g>
						<g transform="translate(919,0)">
							<g>
								<path id="MJMAIN-7C_1_" class="st25" d="M-946.5-25.2L-946.5-25.2c-0.3,0-0.4,0.1-0.6,0.4v13.5l0,13.5
									c0.2,0.2,0.4,0.4,0.5,0.4c0.2,0,0.4-0.1,0.6-0.4v-27C-946.1-25.1-946.3-25.2-946.5-25.2L-946.5-25.2z"/>
							</g>
							<g transform="translate(278,-286)">
								<g transform="scale(0.707)">
									<path id="MJMATHI-6D_5_" class="st26" d="M-1220.2,265.4c0,0.1,0,0.2,0.1,0.3c0,0.1,0.1,0.4,0.2,0.7
										c0.1,0.4,0.3,0.7,0.4,0.9c0.1,0.2,0.3,0.5,0.6,0.7c0.3,0.2,0.6,0.3,0.9,0.3c0.3,0,0.6-0.1,0.8-0.1c0.3-0.1,0.5-0.2,0.6-0.4
										c0.1-0.2,0.2-0.3,0.3-0.4c0.1-0.1,0.1-0.3,0.2-0.4l0-0.1c0,0,0,0,0,0l0.2,0.2c0.8,0.8,1.7,1.3,2.8,1.3c0.2,0,0.4,0,0.6,0
										c0.2,0,0.4-0.1,0.5-0.1s0.3-0.1,0.4-0.2c0.1-0.1,0.2-0.1,0.3-0.2s0.2-0.2,0.2-0.3c0-0.1,0.1-0.2,0.2-0.3
										c0.1-0.1,0.1-0.2,0.1-0.2s0-0.1,0.1-0.2s0.1-0.1,0-0.1l0.2,0.2c0.8,1,1.8,1.5,2.9,1.5c0.7,0,1.3-0.2,1.7-0.5
										c0.4-0.4,0.7-0.9,0.7-1.6c0-0.7-0.2-1.7-0.7-3.1s-0.7-2.2-0.7-2.5c0-0.2,0-0.3,0.1-0.4c0.1-0.1,0.2-0.1,0.3-0.1
										c0.4,0,0.7,0.2,1,0.6s0.6,0.9,0.8,1.6c0,0.1,0.1,0.2,0.1,0.3c0,0,0.1,0,0.3,0c0.3,0,0.4-0.1,0.4-0.2c0,0,0-0.1-0.1-0.3
										c-0.1-0.4-0.2-0.8-0.4-1.1c-0.2-0.4-0.5-0.7-0.9-1.1c-0.4-0.4-0.9-0.5-1.4-0.5c-0.6,0-1.1,0.2-1.3,0.5s-0.4,0.7-0.4,1.1
										c0,0.2,0.2,1,0.7,2.4s0.7,2.3,0.7,3c0,0.8-0.3,1.2-0.9,1.2h-0.1c-1.1,0-2.1-0.7-2.9-2l-0.1-0.2l-0.7-2.6
										c-0.4-1.7-0.7-2.6-0.7-2.8c-0.2-0.4-0.5-0.5-0.8-0.5c-0.2,0-0.3,0-0.4,0.1s-0.2,0.2-0.2,0.2c0,0.1-0.1,0.1-0.1,0.2
										c0,0.1,0.2,1.1,0.7,2.8l0.7,2.9c0,0.2,0.1,0.4,0.1,0.7c0,0.8-0.3,1.2-0.9,1.2h-0.1c-1.1,0-2.1-0.7-2.9-2l-0.1-0.2l-0.7-2.6
										c-0.4-1.7-0.7-2.6-0.7-2.8c-0.2-0.4-0.5-0.5-0.8-0.5c-0.2,0-0.3,0-0.4,0.1c-0.1,0.1-0.2,0.2-0.2,0.2c0,0.1-0.1,0.1,0,0.2
										c0,0.2,0.2,1.2,0.7,3.2c0.5,2,0.8,3.1,0.8,3.2c0,0.2,0.1,0.4,0.1,0.5c0,0.5-0.2,0.7-0.5,0.7c-0.3,0-0.5-0.2-0.7-0.6
										c-0.2-0.4-0.3-0.8-0.5-1.2c-0.1-0.4-0.2-0.7-0.2-0.7c0,0-0.1,0-0.3,0h-0.3C-1220.2,265.3-1220.2,265.3-1220.2,265.4z"/>
								</g>
								<g transform="scale(0.707)">
									<path id="MJMATHI-65_5_" class="st26" d="M-1202.6,263c0,0.7,0.1,1.4,0.4,2c0.2,0.6,0.6,1.1,1,1.5c0.4,0.4,0.8,0.7,1.3,1
										c0.5,0.3,0.9,0.5,1.4,0.6c0.4,0.1,0.8,0.2,1.2,0.2h0.1c0.6,0,1.1-0.1,1.5-0.4c0.4-0.3,0.7-0.7,0.7-1.3c0-1.2-0.7-2-2.2-2.3
										c-0.6-0.2-1.5-0.3-2.6-0.3c-0.5,0-0.7,0-0.7,0c0,0,0-0.3-0.1-0.7c-0.1-0.4-0.1-0.8-0.1-1.1c0-0.6,0.1-1.1,0.4-1.5
										c0.3-0.4,0.7-0.5,1.2-0.6c0.6,0,1.2,0.1,1.8,0.4c0.7,0.3,1.3,0.7,1.8,1.3c0.1,0.1,0.2,0.2,0.2,0.2c0.1,0,0.1-0.1,0.3-0.2
										c0.1-0.1,0.2-0.2,0.2-0.3c0-0.1,0-0.2-0.2-0.3s-0.3-0.3-0.6-0.5s-0.6-0.4-0.9-0.6c-0.3-0.2-0.8-0.4-1.2-0.5
										c-0.5-0.1-1-0.2-1.5-0.2c-1,0-1.8,0.3-2.4,1C-1202.3,261.2-1202.6,262.1-1202.6,263z M-1196,266.7c-0.1,0.7-0.5,1-1.3,1
										c-0.4,0-0.8-0.1-1.2-0.3c-0.4-0.2-0.7-0.4-0.9-0.7c-0.2-0.3-0.4-0.5-0.6-0.8c-0.2-0.3-0.3-0.5-0.3-0.7
										c-0.1-0.2-0.1-0.3-0.1-0.4c0,0,0.1,0,0.4,0c1.5,0,2.5,0.2,3.1,0.5C-1196.3,265.6-1196,266.1-1196,266.7z"/>
								</g>
								<g transform="scale(0.707)">
									<path id="MJMATHI-61_5_" class="st26" d="M-1193.5,262.8c0,1.3,0.5,2.6,1.5,3.8s2.1,1.8,3.4,1.8c0.7,0,1.3-0.3,1.8-1
										c0.2,0.4,0.5,0.6,0.9,0.6c0.2,0,0.3-0.1,0.5-0.2c0.1-0.1,0.2-0.2,0.2-0.4c0-0.2-0.2-1.2-0.7-3.2c-0.5-1.9-0.7-3-0.7-3.3
										c0-0.3,0-0.5,0.1-0.7c0.1-0.1,0.2-0.2,0.4-0.2c0.1,0,0.2,0.1,0.4,0.2c0.3,0.3,0.5,0.9,0.8,1.9c0.1,0.3,0.1,0.4,0.2,0.4
										c0,0,0.1,0,0.2,0h0.1c0.2,0,0.4-0.1,0.4-0.2c0-0.1,0-0.3-0.1-0.5s-0.2-0.6-0.4-1.1c-0.2-0.4-0.4-0.8-0.6-1
										c-0.2-0.2-0.4-0.3-0.6-0.4c-0.1,0-0.3,0-0.5,0c-0.4,0-0.8,0.1-1.1,0.3c-0.3,0.2-0.5,0.4-0.6,0.6l-0.1,0.3c0,0,0,0-0.1,0
										c0,0-0.1-0.1-0.1-0.1c-0.8-0.7-1.6-1.1-2.4-1.1c-0.7,0-1.4,0.3-1.9,0.8C-1193.2,260.8-1193.5,261.7-1193.5,262.8z
										 M-1187.2,266.2c0,0.1,0,0.2-0.1,0.4s-0.2,0.4-0.5,0.7c-0.2,0.2-0.5,0.4-0.9,0.4c-0.5,0-0.9-0.2-1.3-0.6
										c-0.4-0.4-0.7-0.9-1-1.6c-0.4-1-0.7-2.1-0.8-3.2c0,0,0-0.1,0-0.2c0-0.1,0-0.2,0-0.2c0-0.6,0.1-1,0.4-1.2
										c0.2-0.2,0.5-0.3,0.8-0.4c0.5,0,1,0.2,1.5,0.7c0.5,0.4,0.8,0.8,0.9,1c0,0.1,0.2,0.8,0.5,2.1
										C-1187.4,265.3-1187.2,266.1-1187.2,266.2z"/>
								</g>
								<g transform="scale(0.707)">
									<path id="MJMATHI-6E_5_" class="st26" d="M-1183.3,265.4c0,0.1,0,0.2,0.1,0.3c0,0.1,0.1,0.4,0.2,0.7
										c0.1,0.4,0.3,0.7,0.4,0.9c0.1,0.2,0.3,0.5,0.7,0.7s0.6,0.3,0.9,0.3c0.5,0,0.9-0.1,1.2-0.4c0.3-0.2,0.5-0.5,0.6-0.7
										c0.1-0.2,0.1-0.3,0.1-0.4c0,0,0,0,0,0l0.2,0.2c0.8,0.8,1.7,1.3,2.7,1.3c0.7,0,1.3-0.2,1.7-0.5c0.4-0.4,0.7-0.9,0.7-1.6
										s-0.2-1.7-0.7-3.1s-0.8-2.2-0.7-2.5c0-0.3,0.1-0.5,0.3-0.5c0.1,0,0.1,0,0.2,0c0.4,0.1,0.7,0.3,1,0.7c0.3,0.4,0.5,1,0.7,1.6
										c0,0.1,0.2,0.2,0.4,0.2c0.3,0,0.4-0.1,0.4-0.2c0,0,0-0.1-0.1-0.3c-0.1-0.4-0.2-0.8-0.4-1.1c-0.2-0.4-0.5-0.7-0.9-1.1
										c-0.4-0.4-0.9-0.5-1.4-0.5c-0.6,0-1.1,0.2-1.3,0.5s-0.4,0.7-0.4,1.1c0,0.2,0.2,1,0.7,2.4s0.7,2.3,0.7,3
										c0,0.8-0.3,1.2-0.9,1.2h-0.1c-1.1,0-2.1-0.7-2.9-2l-0.1-0.2l-0.7-2.6c-0.4-1.7-0.7-2.6-0.7-2.8c-0.2-0.4-0.5-0.5-0.8-0.5
										c-0.2,0-0.3,0-0.4,0.1c-0.1,0.1-0.2,0.2-0.2,0.2c0,0.1-0.1,0.1,0,0.2c0,0.2,0.2,1.2,0.7,3.2c0.5,2,0.8,3,0.8,3.2
										c0,0.1,0,0.2,0,0.5c0,0.5-0.2,0.8-0.5,0.8c-0.5,0-0.9-0.7-1.2-2c-0.1-0.3-0.1-0.4-0.1-0.4c0-0.1-0.2-0.1-0.4-0.1h-0.3
										C-1183.3,265.3-1183.3,265.3-1183.3,265.4z"/>
								</g>
							</g>
						</g>
					</g>
				</g>
			</g>
			<g>
				<g pointer-events="none" transform="translate(175.9487159632107,620.0983816704838)translate(-18.908203125,0)">
					<g transform="matrix(1 0 0 -1 0 0)">
						<g>
							<path id="MJMAIN-7C_2_" class="st27" d="M-34.1-39.9L-34.1-39.9c-0.3,0-0.4,0.1-0.6,0.4V-26l0,13.5c0.2,0.2,0.4,0.4,0.5,0.4
								c0.2,0,0.4-0.1,0.6-0.4v-27C-33.7-39.8-33.9-39.9-34.1-39.9L-34.1-39.9z"/>
						</g>
						<g>
							<path id="MJMATHI-3B1_3_" class="st27" d="M-29.3-28.6c0,2.1,0.8,4,2.4,5.6c1.6,1.6,3.4,2.4,5.3,2.4c1.3,0,2.3-0.4,3.1-1.1
								c0.8-0.7,1.3-1.7,1.6-2.7c0.1-0.5,0.2-1.2,0.2-1.9v-0.8c0.9,1.4,1.6,2.9,2.1,4.6c0.1,0.3,0.1,0.4,0.2,0.4s0.2,0.1,0.4,0.1
								c0.4,0,0.6-0.1,0.6-0.2c0-0.2-0.1-0.5-0.3-1.1s-0.5-1.3-1-2.4c-0.5-1-1.1-2-1.7-2.8l-0.3-0.4l0-0.7c0-1,0.1-1.7,0.2-2.1
								s0.3-0.6,0.5-0.6c0.3,0,0.5,0.1,0.7,0.3c0.2,0.2,0.4,0.4,0.5,0.6c0,0.1,0.1,0.2,0.1,0.2c0.1,0,0.2,0,0.4,0.1
								c0.4,0,0.6-0.1,0.6-0.2c0-0.1-0.1-0.3-0.2-0.5c-0.2-0.4-0.5-0.8-1-1.1c-0.4-0.3-0.8-0.4-1.2-0.4h-0.2c-1.2,0-2.1,0.7-2.5,2
								l-0.1,0.2l-0.3-0.2c-0.2-0.1-0.5-0.3-0.8-0.6s-0.8-0.4-1.3-0.6c-0.5-0.2-1-0.4-1.6-0.6c-0.6-0.2-1.2-0.3-1.8-0.3
								c-1.5,0-2.6,0.5-3.5,1.4C-28.9-31-29.3-29.9-29.3-28.6z M-24.5-32.3c0.9,0,1.8,0.2,2.7,0.6c0.9,0.4,1.6,0.8,2,1.2l0.7,0.6
								c0,2.7-0.1,4.3-0.2,5c-0.3,2.1-1.1,3.2-2.6,3.2c-1.3,0-2.4-0.7-3.4-2c-0.5-0.7-0.9-1.7-1.2-3s-0.5-2.2-0.5-2.9
								c0-0.9,0.2-1.6,0.7-2C-25.7-32-25.2-32.2-24.5-32.3z"/>
						</g>
						<g transform="translate(919,0)">
							<g>
								<path id="MJMAIN-7C_3_" class="st27" d="M-927.5-39.9L-927.5-39.9c-0.3,0-0.4,0.1-0.6,0.4V-26l0,13.5
									c0.2,0.2,0.4,0.4,0.5,0.4c0.2,0,0.4-0.1,0.6-0.4v-27C-927.1-39.8-927.3-39.9-927.5-39.9L-927.5-39.9z"/>
							</g>
							<g transform="translate(278,-286)">
								<g transform="scale(0.707)">
									<path id="MJMATHI-73_1_" class="st28" d="M-1199.1,250.7c0,0.4,0.1,0.8,0.3,1.3c0.2,0.4,0.6,0.8,1.1,1.2s1.2,0.5,1.9,0.5
										c0.8,0,1.4-0.2,1.8-0.5s0.6-0.7,0.6-1.2c0-0.4-0.1-0.7-0.3-0.9c-0.2-0.2-0.5-0.3-0.7-0.3c-0.2,0-0.3,0.1-0.5,0.2
										c-0.1,0.1-0.2,0.3-0.2,0.5c0,0.2,0.1,0.4,0.2,0.6c0.1,0.2,0.2,0.3,0.3,0.4s0.2,0.1,0.3,0.1c0,0,0,0,0,0c0,0,0,0.1-0.1,0.2
										c-0.1,0.1-0.3,0.2-0.5,0.2c-0.2,0.1-0.5,0.1-0.8,0.1c-0.6,0-1.1-0.2-1.4-0.5c-0.3-0.3-0.4-0.7-0.5-1c0-0.3,0.1-0.6,0.4-0.7
										c0.2-0.1,0.6-0.2,1.1-0.3c0.5-0.1,0.8-0.2,1-0.3c0.9-0.4,1.3-1,1.3-1.9c0-0.4-0.1-0.7-0.2-1.1s-0.4-0.7-0.7-1.1
										c-0.3-0.4-0.7-0.7-1.2-0.9c-0.5-0.2-1.2-0.3-1.9-0.3c-1,0-1.7,0.2-2.1,0.6c-0.4,0.4-0.6,0.8-0.7,1.3c0,0.5,0.1,0.9,0.4,1.1
										c0.3,0.2,0.6,0.3,0.9,0.3c0.2,0,0.4-0.1,0.6-0.2s0.3-0.3,0.3-0.6c0-0.3-0.1-0.6-0.4-0.9s-0.4-0.4-0.6-0.4c0,0,0,0-0.1,0
										c0,0,0,0,0,0c0,0,0.1-0.1,0.2-0.2c0.1-0.1,0.3-0.2,0.6-0.3c0.3-0.1,0.7-0.2,1.1-0.1c0.5,0,0.9,0.1,1.2,0.2s0.6,0.3,0.7,0.6
										s0.3,0.4,0.3,0.6c0.1,0.2,0.1,0.3,0.1,0.5c0,0.4-0.1,0.6-0.4,0.8c-0.3,0.2-0.6,0.3-0.9,0.3c-0.4,0-0.7,0.1-1.2,0.3
										c-0.4,0.2-0.7,0.4-0.9,0.7C-1199,249.9-1199.1,250.3-1199.1,250.7z"/>
								</g>
								<g transform="scale(0.707)">
									<path id="MJMATHI-74_1_" class="st28" d="M-1191.9,252.6c-0.1,0.1-0.1,0.2-0.1,0.2c0,0.1,0,0.2,0.1,0.3
										c0,0.2,0.1,0.2,0.1,0.3c0,0.1,0.1,0.1,0.2,0.1c0.1,0,0.4,0,1,0h1l0.4,1.6c0,0.1,0.1,0.3,0.1,0.6c0.1,0.2,0.1,0.4,0.1,0.5
										c0,0.1,0.1,0.2,0.1,0.4c0,0.2,0.1,0.3,0.2,0.3s0.1,0.1,0.2,0.2c0.1,0.1,0.2,0.2,0.3,0.2c0.1,0,0.2,0,0.4,0
										c0.2,0,0.4-0.1,0.5-0.2c0.1-0.1,0.1-0.3,0.1-0.4c0-0.1-0.1-0.4-0.2-0.9c-0.1-0.5-0.2-1-0.4-1.6l-0.2-0.7c0,0,0.3,0,1,0h1
										c0.1-0.1,0.1-0.2,0.1-0.2c0-0.3-0.1-0.5-0.3-0.7h-2.1l-0.7-2.9c-0.5-2.1-0.8-3.2-0.8-3.4c0-0.6,0.2-0.8,0.5-0.8
										c0.5,0,0.9,0.2,1.3,0.7c0.4,0.4,0.8,1,1,1.7c0,0.1,0.1,0.1,0.1,0.1c0,0,0.1,0,0.3,0h0.1c0.2,0,0.3-0.1,0.3-0.2
										c0,0,0-0.1-0.1-0.2c-0.1-0.2-0.2-0.5-0.4-0.7s-0.4-0.6-0.7-0.9c-0.3-0.3-0.6-0.6-1-0.8c-0.4-0.2-0.8-0.3-1.2-0.3
										c-0.4,0-0.8,0.1-1.1,0.3c-0.4,0.2-0.6,0.5-0.8,1c0,0.1,0,0.3,0,0.5v0.4l0.7,2.8c0.5,1.9,0.7,2.8,0.7,2.8c0,0-0.3,0-1,0
										H-1191.9z"/>
								</g>
								<g transform="scale(0.707)">
									<path id="MJMATHI-64_1_" class="st28" d="M-1178.1,258.5c0,0,0.5,0,1.4,0.1c0.9,0.1,1.4,0.1,1.4,0.1c0.2,0,0.2-0.1,0.2-0.2
										c0-0.1-0.5-2.1-1.4-6c-1-3.9-1.5-5.9-1.5-5.9c0-0.1,0-0.2,0-0.3c0-0.6,0.2-0.8,0.6-0.8c0.1,0,0.2,0.1,0.4,0.2
										c0.3,0.3,0.5,0.9,0.8,1.9c0.1,0.3,0.1,0.4,0.2,0.4c0,0,0.1,0,0.2,0h0.1h0.1c0.2,0,0.3-0.1,0.3-0.2c0-0.1,0-0.2-0.1-0.3
										c-0.2-0.7-0.4-1.2-0.6-1.6c-0.2-0.4-0.4-0.7-0.6-0.8c-0.1-0.1-0.3-0.2-0.6-0.3c-0.1,0-0.3,0-0.5,0c-0.4,0-0.8,0.1-1.1,0.3
										s-0.5,0.4-0.6,0.6l-0.1,0.3c0,0,0,0-0.1,0c0,0-0.1-0.1-0.1-0.1c-0.8-0.7-1.6-1.1-2.4-1.1c-0.7,0-1.4,0.3-1.9,0.8
										c-0.6,0.5-0.8,1.4-0.8,2.5c0,0.6,0.1,1.3,0.4,1.9c0.3,0.7,0.6,1.2,0.9,1.7c0.6,0.7,1.2,1.3,1.9,1.6
										c0.6,0.3,1.2,0.4,1.7,0.4c0.7,0,1.3-0.3,1.7-0.8c0.1-0.1,0.1-0.1,0.1-0.1c0,0.1,0.2,0.8,0.5,2.1c0.3,1.4,0.5,2.1,0.6,2.2
										c0,0.2,0,0.3-0.1,0.3c-0.1,0-0.3,0.1-0.8,0.1h-0.4c-0.1,0.1-0.1,0.1-0.1,0.2c0,0,0,0.2,0,0.4
										C-1178.3,258.4-1178.2,258.5-1178.1,258.5z M-1178.3,251.5c-0.3,1-0.8,1.6-1.5,1.6c-0.5,0-0.9-0.2-1.3-0.6
										c-0.4-0.4-0.7-0.9-1-1.6c-0.4-1-0.7-2.1-0.8-3.2c0,0,0-0.1,0-0.2s0-0.2,0-0.2c0-0.6,0.1-1,0.4-1.2c0.2-0.2,0.5-0.3,0.8-0.4
										c0.7,0,1.4,0.5,2.2,1.4l0.2,0.2L-1178.3,251.5z"/>
								</g>
							</g>
						</g>
					</g>
				</g>
			</g>
			<g>
				<g pointer-events="none" transform="translate(318.4364749600267,685.1703608428993)translate(-24.37646484375,0)">
					<g transform="matrix(1 0 0 -1 0 0)">
						<g>
							<path id="MJMAIN-7C_4_" class="st29" d="M-1.8-47.8L-1.8-47.8c-0.3,0-0.4,0.1-0.6,0.4v13.5l0,13.5c0.2,0.2,0.4,0.4,0.5,0.4
								c0.2,0,0.4-0.1,0.6-0.4v-27C-1.4-47.7-1.6-47.8-1.8-47.8L-1.8-47.8z"/>
						</g>
						<g>
							<path id="MJMATHI-3B4" class="st29" d="M7.5-23.9c0,0.9,0.3,1.6,0.9,2.1s1.3,0.8,2.1,0.9c0.3,0,0.8-0.1,1.4-0.2
								s1.1-0.2,1.6-0.3c0.4-0.1,0.7-0.2,0.7-0.2c0.3-0.1,0.5-0.4,0.5-0.8c0-0.3-0.1-0.7-0.4-0.9s-0.6-0.4-1-0.4
								c-0.4,0-0.9,0.3-1.5,0.8c-0.6,0.5-1.2,0.8-1.7,0.8c-0.5,0-0.8-0.1-1.1-0.4s-0.4-0.5-0.4-0.8c0-0.8,0.9-2.4,2.8-4.6
								c1.2-1.6,1.9-3.1,1.9-4.8c0-2.3-0.6-4.3-1.7-5.9s-2.4-2.5-3.8-2.5H7.5c-1.3,0-2.4,0.4-3.2,1.3S3.1-37.9,3-36.6
								c0,2.5,1.1,4.6,3.2,6.4c0.7,0.6,1.7,1.1,2.8,1.4c0,0-0.1,0.2-0.2,0.4c-0.1,0.3-0.3,0.6-0.4,0.9c-0.1,0.3-0.3,0.7-0.4,1.1
								c-0.1,0.4-0.3,0.8-0.4,1.3C7.5-24.6,7.5-24.2,7.5-23.9z M5.2-37.2c0-0.9,0.2-1.6,0.7-2.1s1.1-0.8,1.9-0.8
								c0.5,0,1,0.2,1.4,0.7c0.4,0.4,0.8,1,1,1.7s0.4,1.3,0.5,1.9c0.1,0.6,0.2,1.1,0.2,1.5c0,0.7-0.1,1.3-0.2,1.8
								c-0.1,0.6-0.3,1-0.4,1.3c-0.1,0.3-0.4,0.8-0.7,1.6l-0.3-0.1c-0.8-0.3-1.5-0.8-2.1-1.5c-0.6-0.7-1-1.5-1.3-2.4
								c-0.3-0.9-0.4-1.6-0.5-2.1C5.2-36.4,5.2-36.9,5.2-37.2z"/>
						</g>
						<g transform="translate(730,0)">
							<g>
								<path id="MJMAIN-7C_5_" class="st29" d="M-711.5-47.8L-711.5-47.8c-0.3,0-0.4,0.1-0.6,0.4v13.5l0,13.5
									c0.2,0.2,0.4,0.4,0.5,0.4c0.2,0,0.4-0.1,0.6-0.4v-27C-711.1-47.7-711.3-47.8-711.5-47.8L-711.5-47.8z"/>
							</g>
							<g transform="translate(278,-286)">
								<g transform="scale(0.707)">
									<path id="MJMATHI-6D_6_" class="st30" d="M-985.2,242.8c0,0.1,0,0.2,0.1,0.3c0,0.1,0.1,0.4,0.2,0.7
										c0.1,0.4,0.3,0.7,0.4,0.9c0.1,0.2,0.3,0.5,0.6,0.7c0.3,0.2,0.6,0.3,0.9,0.3c0.3,0,0.6-0.1,0.8-0.1c0.3-0.1,0.5-0.2,0.6-0.4
										c0.1-0.2,0.2-0.3,0.3-0.4c0.1-0.1,0.1-0.3,0.2-0.4l0-0.1c0,0,0,0,0,0l0.2,0.2c0.8,0.8,1.7,1.3,2.8,1.3c0.2,0,0.4,0,0.6,0
										c0.2,0,0.4-0.1,0.5-0.1c0.2-0.1,0.3-0.1,0.4-0.2c0.1-0.1,0.2-0.1,0.3-0.2c0.1-0.1,0.2-0.2,0.2-0.3c0-0.1,0.1-0.2,0.2-0.3
										s0.1-0.2,0.1-0.2c0-0.1,0-0.1,0.1-0.2c0.1-0.1,0.1-0.1,0-0.1l0.2,0.2c0.8,1,1.8,1.5,2.9,1.5c0.7,0,1.3-0.2,1.7-0.5
										c0.4-0.4,0.7-0.9,0.7-1.6c0-0.7-0.2-1.7-0.7-3.1c-0.5-1.4-0.7-2.2-0.7-2.5c0-0.2,0-0.3,0.1-0.4c0.1-0.1,0.2-0.1,0.3-0.1
										c0.4,0,0.7,0.2,1,0.6s0.6,0.9,0.8,1.6c0,0.1,0.1,0.2,0.1,0.3c0,0,0.1,0,0.3,0c0.3,0,0.4-0.1,0.4-0.2c0,0,0-0.1-0.1-0.3
										c-0.1-0.4-0.2-0.8-0.4-1.1c-0.2-0.4-0.5-0.7-0.9-1.1s-0.9-0.5-1.4-0.5c-0.6,0-1.1,0.2-1.3,0.5c-0.3,0.4-0.4,0.7-0.4,1.1
										c0,0.2,0.2,1,0.7,2.4s0.7,2.3,0.7,3c0,0.8-0.3,1.2-0.9,1.2h-0.1c-1.1,0-2.1-0.7-2.9-2l-0.1-0.2l-0.7-2.6
										c-0.4-1.7-0.7-2.6-0.7-2.8c-0.2-0.4-0.5-0.5-0.8-0.5c-0.2,0-0.3,0-0.4,0.1c-0.1,0.1-0.2,0.2-0.2,0.2c0,0.1-0.1,0.1-0.1,0.2
										c0,0.1,0.2,1.1,0.7,2.8l0.7,2.9c0,0.2,0.1,0.4,0.1,0.7c0,0.8-0.3,1.2-0.9,1.2h-0.1c-1.1,0-2.1-0.7-2.9-2l-0.1-0.2l-0.7-2.6
										c-0.4-1.7-0.7-2.6-0.7-2.8c-0.2-0.4-0.5-0.5-0.8-0.5c-0.2,0-0.3,0-0.4,0.1c-0.1,0.1-0.2,0.2-0.2,0.2c0,0.1-0.1,0.1,0,0.2
										c0,0.2,0.2,1.2,0.7,3.2c0.5,2,0.8,3.1,0.8,3.2c0,0.2,0.1,0.4,0.1,0.5c0,0.5-0.2,0.7-0.5,0.7c-0.3,0-0.5-0.2-0.7-0.6
										c-0.2-0.4-0.3-0.8-0.5-1.2c-0.1-0.4-0.2-0.7-0.2-0.7c0,0-0.1,0-0.3,0h-0.3C-985.2,242.7-985.2,242.8-985.2,242.8z"/>
								</g>
								<g transform="scale(0.707)">
									<path id="MJMATHI-65_6_" class="st30" d="M-967.6,240.5c0,0.7,0.1,1.4,0.4,2c0.2,0.6,0.6,1.1,1,1.5s0.8,0.7,1.3,1
										c0.5,0.3,0.9,0.5,1.4,0.6c0.4,0.1,0.8,0.2,1.2,0.2h0.1c0.6,0,1.1-0.1,1.5-0.4c0.4-0.3,0.7-0.7,0.7-1.3c0-1.2-0.7-2-2.2-2.3
										c-0.6-0.2-1.5-0.3-2.6-0.3c-0.5,0-0.7,0-0.7,0c0,0,0-0.3-0.1-0.7c-0.1-0.4-0.1-0.8-0.1-1.1c0-0.6,0.1-1.1,0.4-1.5
										c0.3-0.4,0.7-0.5,1.2-0.6c0.6,0,1.2,0.1,1.8,0.4c0.7,0.3,1.3,0.7,1.8,1.3c0.1,0.1,0.2,0.2,0.2,0.2c0.1,0,0.1-0.1,0.3-0.2
										s0.2-0.2,0.2-0.3c0-0.1,0-0.2-0.2-0.3s-0.3-0.3-0.6-0.5s-0.6-0.4-0.9-0.6s-0.8-0.4-1.2-0.5c-0.5-0.1-1-0.2-1.5-0.2
										c-1,0-1.8,0.3-2.4,1C-967.3,238.7-967.5,239.5-967.6,240.5z M-961,244.1c-0.1,0.7-0.5,1-1.3,1c-0.4,0-0.8-0.1-1.2-0.3
										s-0.7-0.4-0.9-0.7c-0.2-0.3-0.4-0.5-0.6-0.8c-0.2-0.3-0.3-0.5-0.3-0.7s-0.1-0.3-0.1-0.4c0,0,0.1,0,0.4,0
										c1.5,0,2.5,0.2,3.1,0.5S-961,243.6-961,244.1z"/>
								</g>
								<g transform="scale(0.707)">
									<path id="MJMATHI-61_6_" class="st30" d="M-958.5,240.3c0,1.3,0.5,2.6,1.5,3.8c1,1.2,2.1,1.8,3.4,1.8c0.7,0,1.3-0.3,1.8-1
										c0.2,0.4,0.5,0.6,0.9,0.6c0.2,0,0.3-0.1,0.5-0.2s0.2-0.2,0.2-0.4c0-0.2-0.2-1.2-0.7-3.2c-0.5-1.9-0.7-3-0.7-3.3
										c0-0.3,0-0.5,0.1-0.7c0.1-0.1,0.2-0.2,0.4-0.2c0.1,0,0.2,0.1,0.4,0.2c0.3,0.3,0.5,0.9,0.8,1.9c0.1,0.3,0.1,0.4,0.2,0.4
										c0,0,0.1,0,0.2,0h0.1c0.2,0,0.4-0.1,0.4-0.2c0-0.1,0-0.3-0.1-0.5c-0.1-0.3-0.2-0.6-0.4-1.1c-0.2-0.4-0.4-0.8-0.6-1
										c-0.2-0.2-0.4-0.3-0.6-0.4c-0.1,0-0.3,0-0.5,0c-0.4,0-0.8,0.1-1.1,0.3s-0.5,0.4-0.6,0.6l-0.1,0.3c0,0,0,0-0.1,0
										c0,0-0.1-0.1-0.1-0.1c-0.8-0.7-1.6-1.1-2.4-1.1c-0.7,0-1.4,0.3-1.9,0.8S-958.5,239.1-958.5,240.3z M-952.2,243.6
										c0,0.1,0,0.2-0.1,0.4c-0.1,0.2-0.2,0.4-0.5,0.7c-0.2,0.2-0.5,0.4-0.9,0.4c-0.5,0-0.9-0.2-1.3-0.6s-0.7-0.9-1-1.6
										c-0.4-1-0.7-2.1-0.8-3.2c0,0,0-0.1,0-0.2s0-0.2,0-0.2c0-0.6,0.1-1,0.4-1.2s0.5-0.3,0.8-0.4c0.5,0,1,0.2,1.5,0.7
										s0.8,0.8,0.9,1c0,0.1,0.2,0.8,0.5,2.1C-952.4,242.8-952.2,243.5-952.2,243.6z"/>
								</g>
								<g transform="scale(0.707)">
									<path id="MJMATHI-6E_6_" class="st30" d="M-948.3,242.8c0,0.1,0,0.2,0.1,0.3c0,0.1,0.1,0.4,0.2,0.7
										c0.1,0.4,0.3,0.7,0.4,0.9c0.1,0.2,0.3,0.5,0.7,0.7c0.3,0.2,0.6,0.3,0.9,0.3c0.5,0,0.9-0.1,1.2-0.4c0.3-0.2,0.5-0.5,0.6-0.7
										c0.1-0.2,0.1-0.3,0.1-0.4c0,0,0,0,0,0l0.2,0.2c0.8,0.8,1.7,1.3,2.7,1.3c0.7,0,1.3-0.2,1.7-0.5c0.4-0.4,0.7-0.9,0.7-1.6
										c0-0.7-0.2-1.7-0.7-3.1c-0.5-1.4-0.8-2.2-0.7-2.5c0-0.3,0.1-0.5,0.3-0.5c0.1,0,0.1,0,0.2,0c0.4,0.1,0.7,0.3,1,0.7
										s0.5,1,0.7,1.6c0,0.1,0.2,0.2,0.4,0.2c0.3,0,0.4-0.1,0.4-0.2c0,0,0-0.1-0.1-0.3c-0.1-0.4-0.2-0.8-0.4-1.1
										c-0.2-0.4-0.5-0.7-0.9-1.1s-0.9-0.5-1.4-0.5c-0.6,0-1.1,0.2-1.3,0.5c-0.3,0.4-0.4,0.7-0.4,1.1c0,0.2,0.2,1,0.7,2.4
										c0.5,1.3,0.7,2.3,0.7,3c0,0.8-0.3,1.2-0.9,1.2h-0.1c-1.1,0-2.1-0.7-2.9-2l-0.1-0.2l-0.7-2.6c-0.4-1.7-0.7-2.6-0.7-2.8
										c-0.2-0.4-0.5-0.5-0.8-0.5c-0.2,0-0.3,0-0.4,0.1s-0.2,0.2-0.2,0.2s-0.1,0.1,0,0.2c0,0.2,0.2,1.2,0.7,3.2s0.8,3,0.8,3.2
										c0,0.1,0,0.2,0,0.5c0,0.5-0.2,0.8-0.5,0.8c-0.5,0-0.9-0.7-1.2-2c-0.1-0.3-0.1-0.4-0.1-0.4c0-0.1-0.2-0.1-0.4-0.1h-0.3
										C-948.2,242.7-948.3,242.8-948.3,242.8z"/>
								</g>
							</g>
						</g>
					</g>
				</g>
			</g>
			<g>
				<g pointer-events="none" transform="translate(473.4853736145243,662.8776947085562)translate(24.54443359375,0)">
					<g transform="matrix(1 0 0 -1 0 0)">
						<g>
							<path id="MJMAIN-7C_6_" class="st31" d="M-14.7-40.1L-14.7-40.1c-0.3,0-0.4,0.1-0.6,0.4v13.5l0,13.5c0.2,0.2,0.4,0.4,0.5,0.4
								c0.2,0,0.4-0.1,0.6-0.4v-27C-14.3-39.9-14.5-40.1-14.7-40.1L-14.7-40.1z"/>
						</g>
						<g>
							<path id="MJMATHI-3B8_1_" class="st31" d="M-9.9-27.6c0,1.9,0.4,3.9,1.1,6c0.7,2.1,1.7,3.9,3,5.4s2.5,2.4,3.9,2.6
								c0,0,0.1,0,0.2,0s0.2,0,0.3,0c1-0.1,1.8-0.5,2.3-1.4C1.7-16,2-17.5,2-19.3c0-2.1-0.4-4.3-1.3-6.5s-1.9-4-3.2-5.4
								c-1.3-1.4-2.5-2.1-3.7-2.1h-0.2c-0.7,0-1.2,0.2-1.7,0.6c-0.5,0.4-0.8,0.9-1.1,1.5c-0.2,0.6-0.4,1.2-0.5,1.9
								S-9.9-28.2-9.9-27.6z M-0.2-17.4c0,1.9-0.5,2.8-1.5,2.8c-0.7,0-1.3-0.4-2-1.3c-0.6-0.8-1.2-1.8-1.6-2.8
								c-0.4-1.1-0.7-2-0.9-2.8c-0.2-0.8-0.3-1.3-0.4-1.4c0.9,0,1.8,0,2.7,0l2.7,0c0,0,0.1,0.3,0.2,0.9c0.1,0.6,0.3,1.3,0.4,2.2
								S-0.2-18-0.2-17.4z M-7.7-29.5c0-2,0.5-3,1.5-3c0.3,0,0.6,0.1,0.9,0.3c0.3,0.2,0.7,0.5,1.1,1.1c0.4,0.5,0.9,1.3,1.3,2.4
								s0.9,2.5,1.3,4.1l0.1,0.5h-5.4c0-0.1-0.1-0.4-0.3-1.1c-0.2-0.7-0.3-1.4-0.4-2.2C-7.6-28.1-7.7-28.8-7.7-29.5z"/>
						</g>
						<g transform="translate(748,0)">
							<g>
								<path id="MJMAIN-7C_7_" class="st31" d="M-741.9-40.1L-741.9-40.1c-0.3,0-0.4,0.1-0.6,0.4v13.5l0,13.5
									c0.2,0.2,0.4,0.4,0.5,0.4c0.2,0,0.4-0.1,0.6-0.4v-27C-741.5-39.9-741.6-40.1-741.9-40.1L-741.9-40.1z"/>
							</g>
							<g transform="translate(278,-286)">
								<g transform="scale(0.707)">
									<path id="MJMATHI-6D_7_" class="st32" d="M-1015.6,250.5c0,0.1,0,0.2,0.1,0.3c0,0.1,0.1,0.4,0.2,0.7
										c0.1,0.4,0.3,0.7,0.4,0.9s0.3,0.5,0.6,0.7s0.6,0.3,0.9,0.3s0.6-0.1,0.8-0.1c0.3-0.1,0.5-0.2,0.6-0.4
										c0.1-0.2,0.2-0.3,0.3-0.4c0.1-0.1,0.1-0.3,0.2-0.4l0-0.1c0,0,0,0,0,0l0.2,0.2c0.8,0.8,1.7,1.3,2.8,1.3c0.2,0,0.4,0,0.6,0
										c0.2,0,0.4-0.1,0.5-0.1c0.2-0.1,0.3-0.1,0.4-0.2c0.1-0.1,0.2-0.1,0.3-0.2c0.1-0.1,0.2-0.2,0.2-0.3c0-0.1,0.1-0.2,0.2-0.3
										c0.1-0.1,0.1-0.2,0.1-0.2c0-0.1,0-0.1,0.1-0.2c0.1-0.1,0.1-0.1,0-0.1l0.2,0.2c0.8,1,1.8,1.5,2.9,1.5c0.7,0,1.3-0.2,1.7-0.5
										c0.4-0.4,0.7-0.9,0.7-1.6c0-0.7-0.2-1.7-0.7-3.1c-0.5-1.4-0.7-2.2-0.7-2.5c0-0.2,0-0.3,0.1-0.4c0.1-0.1,0.2-0.1,0.3-0.1
										c0.4,0,0.7,0.2,1,0.6c0.3,0.4,0.6,0.9,0.8,1.6c0,0.1,0.1,0.2,0.1,0.3s0.1,0,0.3,0c0.3,0,0.4-0.1,0.4-0.2c0,0,0-0.1-0.1-0.3
										c-0.1-0.4-0.2-0.8-0.4-1.1c-0.2-0.4-0.5-0.7-0.9-1.1s-0.9-0.5-1.4-0.5c-0.6,0-1.1,0.2-1.3,0.5c-0.3,0.4-0.4,0.7-0.4,1.1
										c0,0.2,0.2,1,0.7,2.4c0.5,1.3,0.7,2.3,0.7,3c0,0.8-0.3,1.2-0.9,1.2h-0.1c-1.1,0-2.1-0.7-2.9-2l-0.1-0.2l-0.7-2.6
										c-0.4-1.7-0.7-2.6-0.7-2.8c-0.2-0.4-0.5-0.5-0.8-0.5c-0.2,0-0.3,0-0.4,0.1c-0.1,0.1-0.2,0.2-0.2,0.2c0,0.1-0.1,0.1-0.1,0.2
										c0,0.1,0.2,1.1,0.7,2.8l0.7,2.9c0,0.2,0.1,0.4,0.1,0.7c0,0.8-0.3,1.2-0.9,1.2h-0.1c-1.1,0-2.1-0.7-2.9-2l-0.1-0.2l-0.7-2.6
										c-0.4-1.7-0.7-2.6-0.7-2.8c-0.2-0.4-0.5-0.5-0.8-0.5c-0.2,0-0.3,0-0.4,0.1c-0.1,0.1-0.2,0.2-0.2,0.2c0,0.1-0.1,0.1,0,0.2
										c0,0.2,0.2,1.2,0.7,3.2c0.5,2,0.8,3.1,0.8,3.2c0,0.2,0.1,0.4,0.1,0.5c0,0.5-0.2,0.7-0.5,0.7c-0.3,0-0.5-0.2-0.7-0.6
										c-0.2-0.4-0.3-0.8-0.5-1.2c-0.1-0.4-0.2-0.7-0.2-0.7c0,0-0.1,0-0.3,0h-0.3C-1015.6,250.4-1015.6,250.5-1015.6,250.5z"/>
								</g>
								<g transform="scale(0.707)">
									<path id="MJMATHI-65_7_" class="st32" d="M-997.9,248.2c0,0.7,0.1,1.4,0.4,2s0.6,1.1,1,1.5s0.8,0.7,1.3,1
										c0.5,0.3,0.9,0.5,1.4,0.6c0.4,0.1,0.8,0.2,1.2,0.2h0.1c0.6,0,1.1-0.1,1.5-0.4c0.4-0.3,0.7-0.7,0.7-1.3c0-1.2-0.7-2-2.2-2.3
										c-0.6-0.2-1.5-0.3-2.6-0.3c-0.5,0-0.7,0-0.7,0c0,0,0-0.3-0.1-0.7c-0.1-0.4-0.1-0.8-0.1-1.1c0-0.6,0.1-1.1,0.4-1.5
										c0.3-0.4,0.7-0.5,1.2-0.6c0.6,0,1.2,0.1,1.8,0.4c0.7,0.3,1.3,0.7,1.8,1.3c0.1,0.1,0.2,0.2,0.2,0.2c0.1,0,0.1-0.1,0.3-0.2
										s0.2-0.2,0.2-0.3c0-0.1,0-0.2-0.2-0.3c-0.1-0.1-0.3-0.3-0.6-0.5c-0.3-0.2-0.6-0.4-0.9-0.6c-0.3-0.2-0.8-0.4-1.2-0.5
										c-0.5-0.1-1-0.2-1.5-0.2c-1,0-1.8,0.3-2.4,1C-997.6,246.4-997.9,247.2-997.9,248.2z M-991.4,251.8c-0.1,0.7-0.5,1-1.3,1
										c-0.4,0-0.8-0.1-1.2-0.3c-0.4-0.2-0.7-0.4-0.9-0.7c-0.2-0.3-0.4-0.5-0.6-0.8s-0.3-0.5-0.3-0.7c-0.1-0.2-0.1-0.3-0.1-0.4
										c0,0,0.1,0,0.4,0c1.5,0,2.5,0.2,3.1,0.5C-991.7,250.8-991.4,251.3-991.4,251.8z"/>
								</g>
								<g transform="scale(0.707)">
									<path id="MJMATHI-61_7_" class="st32" d="M-988.9,248c0,1.3,0.5,2.6,1.5,3.8c1,1.2,2.1,1.8,3.4,1.8c0.7,0,1.3-0.3,1.8-1
										c0.2,0.4,0.5,0.6,0.9,0.6c0.2,0,0.3-0.1,0.5-0.2c0.1-0.1,0.2-0.2,0.2-0.4c0-0.2-0.2-1.2-0.7-3.2s-0.7-3-0.7-3.3
										c0-0.3,0-0.5,0.1-0.7s0.2-0.2,0.4-0.2c0.1,0,0.2,0.1,0.4,0.2c0.3,0.3,0.5,0.9,0.8,1.9c0.1,0.3,0.1,0.4,0.2,0.4
										c0,0,0.1,0,0.2,0h0.1c0.2,0,0.4-0.1,0.4-0.2c0-0.1,0-0.3-0.1-0.5c-0.1-0.3-0.2-0.6-0.4-1.1c-0.2-0.4-0.4-0.8-0.6-1
										c-0.2-0.2-0.4-0.3-0.6-0.4c-0.1,0-0.3,0-0.5,0c-0.4,0-0.8,0.1-1.1,0.3c-0.3,0.2-0.5,0.4-0.6,0.6l-0.1,0.3c0,0,0,0-0.1,0
										c0,0-0.1-0.1-0.1-0.1c-0.8-0.7-1.6-1.1-2.4-1.1c-0.7,0-1.4,0.3-1.9,0.8S-988.9,246.8-988.9,248z M-982.6,251.4
										c0,0.1,0,0.2-0.1,0.4s-0.2,0.4-0.5,0.7c-0.2,0.2-0.5,0.4-0.9,0.4c-0.5,0-0.9-0.2-1.3-0.6c-0.4-0.4-0.7-0.9-1-1.6
										c-0.4-1-0.7-2.1-0.8-3.2c0,0,0-0.1,0-0.2s0-0.2,0-0.2c0-0.6,0.1-1,0.4-1.2s0.5-0.3,0.8-0.4c0.5,0,1,0.2,1.5,0.7
										c0.5,0.4,0.8,0.8,0.9,1c0,0.1,0.2,0.8,0.5,2.1C-982.8,250.5-982.6,251.3-982.6,251.4z"/>
								</g>
								<g transform="scale(0.707)">
									<path id="MJMATHI-6E_7_" class="st32" d="M-978.7,250.5c0,0.1,0,0.2,0.1,0.3c0,0.1,0.1,0.4,0.2,0.7s0.3,0.7,0.4,0.9
										c0.1,0.2,0.3,0.5,0.7,0.7s0.6,0.3,0.9,0.3c0.5,0,0.9-0.1,1.2-0.4s0.5-0.5,0.6-0.7s0.1-0.3,0.1-0.4c0,0,0,0,0,0l0.2,0.2
										c0.8,0.8,1.7,1.3,2.7,1.3c0.7,0,1.3-0.2,1.7-0.5c0.4-0.4,0.7-0.9,0.7-1.6c0-0.7-0.2-1.7-0.7-3.1s-0.8-2.2-0.7-2.5
										c0-0.3,0.1-0.5,0.3-0.5c0.1,0,0.1,0,0.2,0c0.4,0.1,0.7,0.3,1,0.7c0.3,0.4,0.5,1,0.7,1.6c0,0.1,0.2,0.2,0.4,0.2
										c0.3,0,0.4-0.1,0.4-0.2c0,0,0-0.1-0.1-0.3c-0.1-0.4-0.2-0.8-0.4-1.1s-0.5-0.7-0.9-1.1s-0.9-0.5-1.4-0.5
										c-0.6,0-1.1,0.2-1.3,0.5s-0.4,0.7-0.4,1.1c0,0.2,0.2,1,0.7,2.4c0.5,1.3,0.7,2.3,0.7,3c0,0.8-0.3,1.2-0.9,1.2h-0.1
										c-1.1,0-2.1-0.7-2.9-2l-0.1-0.2l-0.7-2.6c-0.4-1.7-0.7-2.6-0.7-2.8c-0.2-0.4-0.5-0.5-0.8-0.5c-0.2,0-0.3,0-0.4,0.1
										c-0.1,0.1-0.2,0.2-0.2,0.2c0,0.1-0.1,0.1,0,0.2c0,0.2,0.2,1.2,0.7,3.2c0.5,2,0.8,3,0.8,3.2c0,0.1,0,0.2,0,0.5
										c0,0.5-0.2,0.8-0.5,0.8c-0.5,0-0.9-0.7-1.2-2c-0.1-0.3-0.1-0.4-0.1-0.4c0-0.1-0.2-0.1-0.4-0.1h-0.3
										C-978.6,250.4-978.7,250.5-978.7,250.5z"/>
								</g>
							</g>
						</g>
					</g>
				</g>
			</g>
			<g>
				<g pointer-events="none" transform="translate(591.8684821270683,560.2981472526561)translate(17.3203125,0)">
					<g transform="matrix(1 0 0 -1 0 0)">
						<g>
							<path id="MJMAIN-7C_8_" class="st33" d="M12.6-33.3L12.6-33.3c-0.3,0-0.4,0.1-0.6,0.4v13.5l0,13.5c0.2,0.2,0.4,0.4,0.5,0.4
								c0.2,0,0.4-0.1,0.6-0.4v-27C13-33.2,12.9-33.3,12.6-33.3L12.6-33.3z"/>
						</g>
						<g>
							<path id="MJMATHI-3B8_2_" class="st33" d="M17.5-20.8c0,1.9,0.4,3.9,1.1,6s1.7,3.9,3,5.4S24-7,25.4-6.8c0,0,0.1,0,0.2,0
								c0.1,0,0.2,0,0.3,0c1-0.1,1.8-0.5,2.3-1.4c0.7-1.1,1.1-2.6,1.1-4.5c0-2.1-0.4-4.3-1.3-6.5c-0.8-2.2-1.9-4-3.2-5.4
								s-2.5-2.1-3.7-2.1H21c-0.7,0-1.2,0.2-1.7,0.6s-0.8,0.9-1.1,1.5c-0.2,0.6-0.4,1.2-0.5,1.9S17.5-21.5,17.5-20.8z M27.2-10.6
								c0,1.9-0.5,2.8-1.5,2.8c-0.7,0-1.3-0.4-2-1.3c-0.6-0.8-1.2-1.8-1.6-2.8c-0.4-1.1-0.7-2-0.9-2.8s-0.3-1.3-0.4-1.4
								c0.9,0,1.8,0,2.7,0l2.7,0c0,0,0.1,0.3,0.2,0.9s0.3,1.3,0.4,2.2C27.1-12,27.2-11.3,27.2-10.6z M19.6-22.7c0-2,0.5-3,1.5-3
								c0.3,0,0.6,0.1,0.9,0.3c0.3,0.2,0.7,0.5,1.1,1.1c0.4,0.5,0.9,1.3,1.3,2.4c0.4,1.1,0.9,2.5,1.3,4.1l0.1,0.5h-5.4
								c0-0.1-0.1-0.4-0.3-1.1c-0.2-0.7-0.3-1.4-0.4-2.2C19.7-21.4,19.6-22.1,19.6-22.7z"/>
						</g>
						<g transform="translate(748,0)">
							<g>
								<path id="MJMAIN-7C_9_" class="st33" d="M-714.5-33.3L-714.5-33.3c-0.3,0-0.4,0.1-0.6,0.4v13.5l0,13.5
									c0.2,0.2,0.4,0.4,0.5,0.4c0.2,0,0.4-0.1,0.6-0.4v-27C-714.1-33.2-714.3-33.3-714.5-33.3L-714.5-33.3z"/>
							</g>
							<g transform="translate(278,-286)">
								<g transform="scale(0.707)">
									<path id="MJMATHI-73_2_" class="st34" d="M-986.1,257.3c0,0.4,0.1,0.8,0.3,1.3s0.6,0.8,1.1,1.2c0.5,0.4,1.2,0.5,1.9,0.5
										c0.8,0,1.4-0.2,1.8-0.5c0.4-0.4,0.6-0.7,0.6-1.2c0-0.4-0.1-0.7-0.3-0.9s-0.5-0.3-0.7-0.3c-0.2,0-0.3,0.1-0.5,0.2
										c-0.1,0.1-0.2,0.3-0.2,0.5c0,0.2,0.1,0.4,0.2,0.6c0.1,0.2,0.2,0.3,0.3,0.4c0.1,0.1,0.2,0.1,0.3,0.1c0,0,0,0,0,0
										c0,0,0,0.1-0.1,0.2c-0.1,0.1-0.3,0.2-0.5,0.2s-0.5,0.1-0.8,0.1c-0.6,0-1.1-0.2-1.4-0.5s-0.4-0.7-0.5-1
										c0-0.3,0.1-0.6,0.4-0.7c0.2-0.1,0.6-0.2,1.1-0.3c0.5-0.1,0.8-0.2,1-0.3c0.9-0.4,1.3-1,1.3-1.9c0-0.4-0.1-0.7-0.2-1.1
										c-0.1-0.4-0.4-0.7-0.7-1.1s-0.7-0.7-1.2-0.9c-0.5-0.2-1.2-0.3-1.9-0.3c-1,0-1.7,0.2-2.1,0.6c-0.4,0.4-0.6,0.8-0.7,1.3
										c0,0.5,0.1,0.9,0.4,1.1c0.3,0.2,0.6,0.3,0.9,0.3c0.2,0,0.4-0.1,0.6-0.2c0.2-0.1,0.3-0.3,0.3-0.6c0-0.3-0.1-0.6-0.4-0.9
										c-0.2-0.2-0.4-0.4-0.6-0.4c0,0,0,0-0.1,0s0,0,0,0c0,0,0.1-0.1,0.2-0.2c0.1-0.1,0.3-0.2,0.6-0.3c0.3-0.1,0.7-0.2,1.1-0.1
										c0.5,0,0.9,0.1,1.2,0.2s0.6,0.3,0.7,0.6c0.2,0.2,0.3,0.4,0.3,0.6s0.1,0.3,0.1,0.5c0,0.4-0.1,0.6-0.4,0.8s-0.6,0.3-0.9,0.3
										c-0.4,0-0.7,0.1-1.2,0.3c-0.4,0.2-0.7,0.4-0.9,0.7C-986,256.5-986.1,256.9-986.1,257.3z"/>
								</g>
								<g transform="scale(0.707)">
									<path id="MJMATHI-74_2_" class="st34" d="M-978.9,259.2c-0.1,0.1-0.1,0.2-0.1,0.2c0,0.1,0,0.2,0.1,0.3
										c0,0.2,0.1,0.2,0.1,0.3c0,0.1,0.1,0.1,0.2,0.1s0.4,0,1,0h1l0.4,1.6c0,0.1,0.1,0.3,0.1,0.6c0.1,0.2,0.1,0.4,0.1,0.5
										c0,0.1,0.1,0.2,0.1,0.4c0,0.2,0.1,0.3,0.2,0.3s0.1,0.1,0.2,0.2c0.1,0.1,0.2,0.2,0.3,0.2s0.2,0,0.4,0c0.2,0,0.4-0.1,0.5-0.2
										c0.1-0.1,0.1-0.3,0.1-0.4c0-0.1-0.1-0.4-0.2-0.9c-0.1-0.5-0.2-1-0.4-1.6l-0.2-0.7c0,0,0.3,0,1,0h1c0.1-0.1,0.1-0.2,0.1-0.2
										c0-0.3-0.1-0.5-0.3-0.7h-2.1l-0.7-2.9c-0.5-2.1-0.8-3.2-0.8-3.4c0-0.6,0.2-0.8,0.5-0.8c0.5,0,0.9,0.2,1.3,0.7
										c0.4,0.4,0.8,1,1,1.7c0,0.1,0.1,0.1,0.1,0.1c0,0,0.1,0,0.3,0h0.1c0.2,0,0.3-0.1,0.3-0.2c0,0,0-0.1-0.1-0.2
										c-0.1-0.2-0.2-0.5-0.4-0.7s-0.4-0.6-0.7-0.9c-0.3-0.3-0.6-0.6-1-0.8s-0.8-0.3-1.2-0.3c-0.4,0-0.8,0.1-1.1,0.3
										c-0.4,0.2-0.6,0.5-0.8,1c0,0.1,0,0.3,0,0.5v0.4l0.7,2.8c0.5,1.9,0.7,2.8,0.7,2.8c0,0-0.3,0-1,0H-978.9z"/>
								</g>
								<g transform="scale(0.707)">
									<path id="MJMATHI-64_2_" class="st34" d="M-965.1,265.1c0,0,0.5,0,1.4,0.1c0.9,0.1,1.4,0.1,1.4,0.1c0.2,0,0.2-0.1,0.2-0.2
										c0-0.1-0.5-2.1-1.4-6c-1-3.9-1.5-5.9-1.5-5.9c0-0.1,0-0.2,0-0.3c0-0.6,0.2-0.8,0.6-0.8c0.1,0,0.2,0.1,0.4,0.2
										c0.3,0.3,0.5,0.9,0.8,1.9c0.1,0.3,0.1,0.4,0.2,0.4c0,0,0.1,0,0.2,0h0.1h0.1c0.2,0,0.3-0.1,0.3-0.2c0-0.1,0-0.2-0.1-0.3
										c-0.2-0.7-0.4-1.2-0.6-1.6s-0.4-0.7-0.6-0.8c-0.1-0.1-0.3-0.2-0.6-0.3c-0.1,0-0.3,0-0.5,0c-0.4,0-0.8,0.1-1.1,0.3
										c-0.3,0.2-0.5,0.4-0.6,0.6l-0.1,0.3c0,0,0,0-0.1,0c0,0-0.1-0.1-0.1-0.1c-0.8-0.7-1.6-1.1-2.4-1.1c-0.7,0-1.4,0.3-1.9,0.8
										c-0.6,0.5-0.8,1.4-0.8,2.5c0,0.6,0.1,1.3,0.4,1.9c0.3,0.7,0.6,1.2,0.9,1.7c0.6,0.7,1.2,1.3,1.9,1.6
										c0.6,0.3,1.2,0.4,1.7,0.4c0.7,0,1.3-0.3,1.7-0.8c0.1-0.1,0.1-0.1,0.1-0.1c0,0.1,0.2,0.8,0.5,2.1c0.3,1.4,0.5,2.1,0.6,2.2
										c0,0.2,0,0.3-0.1,0.3c-0.1,0-0.3,0.1-0.8,0.1h-0.4c-0.1,0.1-0.1,0.1-0.1,0.2s0,0.2,0,0.4
										C-965.3,265-965.2,265.1-965.1,265.1z M-965.4,258c-0.3,1-0.8,1.6-1.5,1.6c-0.5,0-0.9-0.2-1.3-0.6c-0.4-0.4-0.7-0.9-1-1.6
										c-0.4-1-0.7-2.1-0.8-3.2c0,0,0-0.1,0-0.2s0-0.2,0-0.2c0-0.6,0.1-1,0.4-1.2c0.2-0.2,0.5-0.3,0.8-0.4c0.7,0,1.4,0.5,2.2,1.4
										l0.2,0.2L-965.4,258z"/>
								</g>
							</g>
						</g>
					</g>
				</g>
			</g>
		</g>
		<g transform="translate(358,410)">
			<g>
				<text transform="matrix(0.8192 0.5736 -0.5736 0.8192 -2.8681 11.5959)" class="st35 st36">0.35</text>
			</g>
			<g>
				<text transform="matrix(0.8192 0.5736 -0.5736 0.8192 41.9723 11.5959)" class="st35 st36">0.4</text>
			</g>
			<g>
				<text transform="matrix(0.8192 0.5736 -0.5736 0.8192 86.8121 11.5959)" class="st35 st36">0.45</text>
			</g>
			<g>
				<text transform="matrix(0.8192 0.5736 -0.5736 0.8192 131.652 11.5959)" class="st35 st36">0.5</text>
			</g>
			<g>
				<text transform="matrix(0.8192 0.5736 -0.5736 0.8192 176.482 11.5959)" class="st35 st36">0.55</text>
			</g>
			<g>
				<text transform="matrix(0.8192 0.5736 -0.5736 0.8192 221.3219 11.5959)" class="st35 st36">0.6</text>
			</g>
			<g>
				<text transform="matrix(0.8192 0.5736 -0.5736 0.8192 266.1622 11.5959)" class="st35 st36">0.65</text>
			</g>
		</g>
	</g>
</g>
<g>
	<g pointer-events="all" transform="translate(647.12,100)">
		<rect x="0" y="0" shape-rendering="crispEdges" class="st0" width="141" height="67"/>
		<g>
			<defs>
				<rect id="SVGID_17_" x="-35.3" y="-14.1" width="173.9" height="85"/>
			</defs>
			<clipPath id="SVGID_18_">
				<use xlink:href="#SVGID_17_"  style="overflow:visible;"/>
			</clipPath>
			<g transform="" class="st37">
				<g>
					<g transform="translate(0,14.5)">
						<text transform="matrix(0.9723 0 0 1 14.0712 -4.2547)" class="st35 st38">Chance: AUC = 0.5</text>
						<g>
							<g>
								<path class="st39" d="M-29.1-10.2h37"/>
							</g>
						</g>
						<rect x="-35.3" y="-22.2" class="st40" width="167" height="24.1"/>
					</g>
					<g transform="translate(0,33.5)">
						<text transform="matrix(0.9723 0 0 1 14.0712 0.8493)" class="st35 st38">dTUT vs sTUT</text>
						<g>
							<g>
								<path class="st4" d="M-29.1-5.1h37v7.6h-37V-5.1z"/>
							</g>
							<g>
								<path class="st41" d="M-29.1-5.1h37"/>
							</g>
							<g>
								<g>
									<path class="st6" d="M-4.4-5.1c0,3.5-2.8,6.3-6.2,6.3s-6.2-2.8-6.2-6.3s2.8-6.3,6.2-6.3S-4.4-8.6-4.4-5.1z"/>
								</g>
							</g>
						</g>
						<rect x="-35.3" y="-17.1" class="st40" width="167" height="24.1"/>
					</g>
					<g transform="translate(0,52.5)">
						<text transform="matrix(0.9723 0 0 1 14.0712 5.9533)" class="st35 st38">OT vs TUT</text>
						<g>
							<g>
								<path class="st9" d="M-29.1,0h37v7.6h-37V0z"/>
							</g>
							<g>
								<path class="st42" d="M-29.1,0h37"/>
							</g>
							<g>
								<g>
									<path class="st43" d="M-4.4,0c0,3.5-2.8,6.3-6.2,6.3s-6.2-2.8-6.2-6.3s2.8-6.3,6.2-6.3S-4.4-3.5-4.4,0z"/>
								</g>
							</g>
						</g>
						<rect x="-35.3" y="-12" class="st40" width="167" height="24.1"/>
					</g>
				</g>
			</g>
		</g>
		<polygon class="st44" points="0,0 0,0 0,0 0,0 0,0 0,0 0,0 0,0 		"/>
	</g>
	<g>
		<text transform="matrix(1 0 0 1 481.165 441.0479)" class="st35 st45">AUC</text>
	</g>
</g>
</svg>
