<?xml version="1.0" encoding="utf-8"?>
<!-- Generator: Adobe Illustrator 24.0.2, SVG Export Plug-In . SVG Version: 6.00 Build 0)  -->
<svg version="1.1" id="Layer_1" focusable="false" xmlns="http://www.w3.org/2000/svg" xmlns:xlink="http://www.w3.org/1999/xlink"
	 x="0px" y="0px" viewBox="0 0 600 600" style="enable-background:new 0 0 600 600;" xml:space="preserve">
<style type="text/css">
	.st0{fill:#FFFFFF;}
	.st1{fill:#FFFFFF;stroke:#ACACAD;stroke-miterlimit:10;}
	.st2{fill:none;stroke:#CACACC;}
	.st3{fill:none;stroke:#D1D1D3;}
	.st4{clip-path:url(#SVGID_2_);fill:none;stroke:#808080;stroke-width:2;stroke-miterlimit:2;stroke-dasharray:9,9;}
	.st5{clip-path:url(#SVGID_4_);}
	.st6{fill:#42B9B2;fill-opacity:0.2;}
	.st7{clip-path:url(#SVGID_6_);fill:none;stroke:#42B9B2;stroke-width:2;stroke-miterlimit:2;}
	.st8{fill:#42B9B2;}
	.st9{display:none;fill:#42B9B2;}
	.st10{fill:none;stroke:#42B9B2;stroke-miterlimit:2;}
	.st11{clip-path:url(#SVGID_8_);}
	.st12{fill:#DE237B;fill-opacity:0.2;}
	.st13{clip-path:url(#SVGID_10_);fill:none;stroke:#DE237B;stroke-width:2;stroke-miterlimit:2;}
	.st14{fill:none;stroke:#DE237B;stroke-miterlimit:2;}
	.st15{fill:#DE237B;}
	.st16{clip-path:url(#SVGID_12_);}
	.st17{fill:#F38A31;fill-opacity:0.2;}
	.st18{clip-path:url(#SVGID_14_);fill:none;stroke:#F38A31;stroke-width:2;stroke-miterlimit:2;}
	.st19{fill:none;stroke:#F38A31;stroke-miterlimit:2;}
	.st20{fill:#F38A31;}
	.st21{fill:none;stroke:#EBF0F8;}
	.st22{fill:#566E91;}
	.st23{font-family:'Verdana';}
	.st24{font-size:18px;}
	.st25{fill:#EF3030;stroke:#2A3F5F;stroke-width:1.393611e-02;stroke-miterlimit:10;}
	.st26{display:none;}
	.st27{display:inline;}
	.st28{fill:#EF3030;stroke:#2A3F5F;stroke-width:6.965951e-03;stroke-miterlimit:7.07;}
	.st29{fill:#2D4CC1;stroke:#2A3F5F;stroke-width:1.393612e-02;stroke-miterlimit:10;}
	.st30{fill:#2D4CC1;stroke:#2A3F5F;stroke-width:6.965956e-03;stroke-miterlimit:7.07;}
	.st31{fill:#2D4CC1;stroke:#2A3F5F;stroke-width:1.393547e-02;stroke-miterlimit:10;}
	.st32{fill:#2D4CC1;stroke:#2A3F5F;stroke-width:6.965631e-03;stroke-miterlimit:7.07;}
	.st33{fill:#EF3030;stroke:#2A3F5F;stroke-width:1.393430e-02;stroke-miterlimit:10;}
	.st34{fill:#EF3030;stroke:#2A3F5F;stroke-width:6.965045e-03;stroke-miterlimit:7.07;}
	.st35{fill:#2D4CC1;stroke:#2A3F5F;stroke-width:1.393520e-02;stroke-miterlimit:10;}
	.st36{fill:#2D4CC1;stroke:#2A3F5F;stroke-width:6.965497e-03;stroke-miterlimit:7.07;}
	.st37{fill:#2D4CC1;stroke:#2A3F5F;stroke-width:1.393490e-02;stroke-miterlimit:10;}
	.st38{fill:#2D4CC1;stroke:#2A3F5F;stroke-width:6.965346e-03;stroke-miterlimit:7.07;}
	.st39{fill:#9AC529;stroke:#375F2A;stroke-width:1.393524e-02;stroke-miterlimit:10;}
	.st40{fill:#9AC529;stroke:#375F2A;stroke-width:6.965515e-03;stroke-miterlimit:7.07;}
	.st41{fill:#9AC529;stroke:#2A3F5F;stroke-width:1.393572e-02;stroke-miterlimit:10;}
	.st42{fill:#9AC529;stroke:#2A3F5F;stroke-width:6.965756e-03;stroke-miterlimit:7.07;}
	.st43{fill:#2A3F5F;}
	.st44{fill:none;stroke:#808080;stroke-width:2;stroke-dasharray:9,9;}
	.st45{fill-opacity:0;}
	.st46{fill:none;stroke:#42B9B2;stroke-width:2;}
	.st47{fill:none;stroke:#DE237B;stroke-width:2;}
	.st48{fill:none;stroke:#DE237B;}
	.st49{fill:none;stroke:#F38A31;stroke-width:2;}
	.st50{fill:none;stroke:#F38A31;}
	.st51{fill:#808BA4;}
	.st52{fill:#808080;}
	.st53{fill:none;stroke:#808080;}
	.st54{fill:#9AC529;}
	.st55{fill:#2D4CC1;}
	.st56{fill:#E73433;}
	.st57{fill:#626E7F;}
</style>
<rect x="-100" y="-52.3" class="st0" width="811" height="753.3"/>
<g>
	<g>
		<g>
			<path class="st1" d="M566.8,285.1c0-150.2-123.3-272-275.2-272S16.3,134.9,16.3,285.1s123.3,272,275.2,272
				S566.8,435.3,566.8,285.1z"/>
		</g>
		<g>
			<path class="st2" d="M291.5,285.1h275.2"/>
			<path class="st2" d="M291.5,285.1L486.1,92.8"/>
			<path class="st2" d="M291.5,285.1v-272"/>
			<path class="st2" d="M291.5,285.1L96.9,92.8"/>
			<path class="st2" d="M291.5,285.1H16.3"/>
			<path class="st2" d="M291.5,285.1L96.9,477.3"/>
			<path class="st2" d="M291.5,285.1v272"/>
			<path class="st2" d="M291.5,285.1l194.6,192.3"/>
		</g>
		<g transform="translate(222,310)">
			<path class="st3" d="M114-24.9c0-24.3-19.9-43.8-44.3-43.8S25.2-49.2,25.2-24.9s19.9,43.8,44.3,43.8S114-0.7,114-24.9z"/>
			<path class="st3" d="M158.3-24.9c0-48.4-39.8-87.7-88.8-87.7s-88.7,39.3-88.7,87.7s39.8,87.7,88.8,87.7S158.3,23.5,158.3-24.9z"
				/>
			<path class="st3" d="M202.8-24.9c0-72.7-59.6-131.6-133.2-131.6S-63.6-97.6-63.6-24.9S-4.1,106.7,69.5,106.7
				S202.8,47.7,202.8-24.9z"/>
			<path class="st3" d="M247.1-24.9c0-96.9-79.5-175.4-177.5-175.4S-108-121.8-108-24.9c0,0,0,0,0,0.1
				c0,96.9,79.5,175.4,177.5,175.4C167.5,150.5,247.1,72.1,247.1-24.9L247.1-24.9z"/>
			<path class="st3" d="M291.6-24.9c0-121.2-99.4-219.4-222-219.4S-152.5-146.2-152.5-25c0,0,0,0,0,0.1
				c0,121.2,99.4,219.4,222,219.4S291.5,96.2,291.6-24.9L291.6-24.9z"/>
			<path class="st3" d="M335.9-24.9c0-145.3-119.3-263.2-266.4-263.2S-196.8-170.2-196.8-24.9S-77.5,238.3,69.6,238.3
				S335.9,120.4,335.9-24.9z"/>
		</g>
		<g transform="translate(80,168)">
			<g>
				<g>
					<g>
						<g>
							<g>
								<defs>
									<ellipse id="SVGID_1_" cx="211.5" cy="117.1" rx="275.2" ry="272"/>
								</defs>
								<clipPath id="SVGID_2_">
									<use xlink:href="#SVGID_1_"  style="overflow:visible;"/>
								</clipPath>
								<path class="st4" d="M344.8,117.1l-39-93l-94.1-38.5l-94.1,38.5l-39,93l39,93l94.1,38.5l94.1-38.5"/>
							</g>
						</g>
					</g>
				</g>
				<g>
					<g>
						<g>
							<defs>
								<ellipse id="SVGID_3_" cx="211.5" cy="117.1" rx="275.2" ry="272"/>
							</defs>
							<clipPath id="SVGID_4_">
								<use xlink:href="#SVGID_3_"  style="overflow:visible;"/>
							</clipPath>
							<g class="st5">
								<g>
									<path class="st6" d="M244.4,117.1h-32.9V-45.3l-90.6,72.9l-141,89.5L127,200.6l84.5,25.2l135.2,24.8L244.4,117.1z"/>
								</g>
							</g>
						</g>
					</g>
					<g>
						<g>
							<g>
								<defs>
									<ellipse id="SVGID_5_" cx="211.5" cy="117.1" rx="275.2" ry="272"/>
								</defs>
								<clipPath id="SVGID_6_">
									<use xlink:href="#SVGID_5_"  style="overflow:visible;"/>
								</clipPath>
								<path class="st7" d="M244.4,117.1h-32.9V-45.3l-90.6,72.9l-141,89.5L127,200.6l84.5,25.2l135.2,24.8"/>
							</g>
						</g>
					</g>
					<g>
						<path class="st8" d="M237.1,117.1l-3.7-6.3h7.3l3.7-6.3l3.7,6.3h7.3l-3.7,6.3l3.7,6.3h-7.3l-3.7,6.3l-3.7-6.3h-7.3
							L237.1,117.1z"/>
						<path class="st9" d="M204.2,117.1l-3.7-6.3h7.3l3.7-6.3l3.7,6.3h7.3l-3.7,6.3l3.7,6.3h-7.3l-3.7,6.3l-3.7-6.3h-7.3
							L204.2,117.1z"/>
						<path class="st10" d="M221.3-45.3c0,5.3-4.3,9.6-9.7,9.6S202-40,202-45.3s4.3-9.6,9.7-9.6C217-54.9,221.3-50.6,221.3-45.3z"/>
						<path class="st10" d="M130.6,27.5c0,5.3-4.3,9.6-9.7,9.6c-5.3,0-9.7-4.3-9.7-9.6s4.3-9.6,9.7-9.6
							C126.3,18,130.6,22.3,130.6,27.5z"/>
						<path class="st8" d="M-27.5,117.1l-3.7-6.3h7.3l3.7-6.3l3.7,6.3h7.3l-3.7,6.3l3.7,6.3h-7.3l-3.7,6.3l-3.7-6.3h-7.3
							L-27.5,117.1z"/>
						<path class="st10" d="M136.7,200.6c0,5.3-4.3,9.6-9.7,9.6s-9.7-4.3-9.7-9.6s4.3-9.6,9.7-9.6S136.7,195.3,136.7,200.6z"/>
						<path class="st10" d="M221.3,225.7c0,5.3-4.3,9.6-9.7,9.6s-9.7-4.3-9.7-9.6s4.3-9.6,9.7-9.6
							C217,216.2,221.3,220.4,221.3,225.7z"/>
						<path class="st10" d="M356.3,250.6c0,5.3-4.3,9.6-9.7,9.6c-5.3,0-9.7-4.3-9.7-9.6c0-5.3,4.3-9.6,9.7-9.6
							S356.3,245.3,356.3,250.6z"/>
					</g>
				</g>
				<g>
					<g>
						<g>
							<defs>
								<ellipse id="SVGID_7_" cx="211.5" cy="117.1" rx="275.2" ry="272"/>
							</defs>
							<clipPath id="SVGID_8_">
								<use xlink:href="#SVGID_7_"  style="overflow:visible;"/>
							</clipPath>
							<g class="st11">
								<g>
									<path class="st12" d="M322.9,117.1l-71.2-39.5l-40-45.5L51.9-40.7L-51,117.1l217.2,45l45.6-5l183.2,141L322.9,117.1z"/>
								</g>
							</g>
						</g>
					</g>
					<g>
						<g>
							<g>
								<defs>
									<ellipse id="SVGID_9_" cx="211.5" cy="117.1" rx="275.2" ry="272"/>
								</defs>
								<clipPath id="SVGID_10_">
									<use xlink:href="#SVGID_9_"  style="overflow:visible;"/>
								</clipPath>
								<path class="st13" d="M322.9,117.1l-71.2-39.5l-40-45.5L51.9-40.7L-51,117.1l217.2,45l45.6-5l183.2,141"/>
							</g>
						</g>
					</g>
					<g>
						<path class="st14" d="M332.6,117.1c0,5.3-4.3,9.6-9.7,9.6c-5.3,0-9.7-4.3-9.7-9.6s4.3-9.6,9.7-9.6
							C328.2,107.5,332.6,111.8,332.6,117.1z"/>
						<path class="st15" d="M244.2,77.5l-3.7-6.3h7.3l3.7-6.3l3.7,6.3h7.3l-3.7,6.3l3.7,6.3h-7.3l-3.7,6.3l-3.7-6.3h-7.3L244.2,77.5
							z"/>
						<path class="st14" d="M221.3,32c0,5.3-4.3,9.6-9.7,9.6S202,37.3,202,32c0-5.3,4.3-9.6,9.7-9.6S221.3,26.7,221.3,32z"/>
						<path class="st15" d="M44.5-40.8l-3.7-6.3h7.3l3.7-6.3l3.7,6.3h7.3l-3.7,6.3l3.7,6.3h-7.3l-3.7,6.3l-3.7-6.3h-7.3L44.5-40.8z"
							/>
						<path class="st15" d="M-58.5,117.1l-3.8-6.3h7.3l3.7-6.3l3.7,6.3h7.3l-3.7,6.3l3.7,6.3h-7.3l-3.7,6.3l-3.7-6.3h-7.3
							L-58.5,117.1z"/>
						<path class="st15" d="M158.6,162.1l-3.7-6.3h7.3l3.7-6.3l3.7,6.3h7.3l-3.7,6.3l3.7,6.3h-7.3l-3.7,6.3l-3.7-6.3h-7.3
							L158.6,162.1z"/>
						<path class="st15" d="M204.2,157.1l-3.7-6.3h7.3l3.7-6.3l3.7,6.3h7.3l-3.7,6.3l3.7,6.3h-7.3l-3.7,6.3l-3.7-6.3h-7.3
							L204.2,157.1z"/>
						<path class="st15" d="M387.5,298.1l-3.7-6.3h7.3l3.7-6.3l3.7,6.3h7.3l-3.7,6.3l3.7,6.3h-7.3l-3.7,6.3l-3.7-6.3h-7.3
							L387.5,298.1z"/>
					</g>
				</g>
				<g>
					<g>
						<g>
							<defs>
								<ellipse id="SVGID_11_" cx="211.5" cy="117.1" rx="275.2" ry="272"/>
							</defs>
							<clipPath id="SVGID_12_">
								<use xlink:href="#SVGID_11_"  style="overflow:visible;"/>
							</clipPath>
							<g class="st16">
								<g>
									<path class="st17" d="M361.3,117.1l-60.5-88.2l-89.3,59.4L61.6-31.1L-14,117.1l182.8,42.3l42.8,25l91.6,23.3L361.3,117.1z"
										/>
								</g>
							</g>
						</g>
					</g>
					<g>
						<g>
							<g>
								<defs>
									<ellipse id="SVGID_13_" cx="211.5" cy="117.1" rx="275.2" ry="272"/>
								</defs>
								<clipPath id="SVGID_14_">
									<use xlink:href="#SVGID_13_"  style="overflow:visible;"/>
								</clipPath>
								<path class="st18" d="M361.3,117.1l-60.5-88.2l-89.3,59.4L61.6-31.1L-14,117.1l182.8,42.3l42.8,25l91.6,23.3"/>
							</g>
						</g>
					</g>
					<g>
						<path class="st19" d="M371,117.1c0,5.3-4.3,9.6-9.7,9.6c-5.3,0-9.7-4.3-9.7-9.6s4.3-9.6,9.7-9.6
							C366.7,107.5,371,111.8,371,117.1z"/>
						<path class="st19" d="M310.5,28.9c0,5.3-4.3,9.6-9.7,9.6c-5.3,0-9.7-4.3-9.7-9.6c0-5.3,4.3-9.6,9.7-9.6
							C306.2,19.3,310.5,23.6,310.5,28.9z"/>
						<path class="st20" d="M204.2,88.2l-3.7-6.3h7.3l3.7-6.3l3.7,6.3h7.3l-3.7,6.3l3.7,6.3h-7.3l-3.7,6.3l-3.7-6.3h-7.3L204.2,88.2
							z"/>
						<path class="st19" d="M71.2-31.2c0,5.3-4.3,9.6-9.7,9.6s-9.7-4.3-9.7-9.6s4.3-9.6,9.7-9.6S71.2-36.4,71.2-31.2z"/>
						<path class="st20" d="M-21.5,117.1l-3.7-6.3h7.3l3.7-6.3l3.7,6.3h7.3l-3.7,6.3l3.7,6.3h-7.3l-3.7,6.3l-3.7-6.3h-7.3
							L-21.5,117.1z"/>
						<path class="st19" d="M178.5,159.4c0,5.3-4.3,9.6-9.7,9.6c-5.3,0-9.7-4.3-9.7-9.6s4.3-9.6,9.7-9.6
							C174.2,149.8,178.5,154.1,178.5,159.4z"/>
						<path class="st19" d="M221.3,184.4c0,5.3-4.3,9.6-9.7,9.6s-9.7-4.3-9.7-9.6s4.3-9.6,9.7-9.6S221.3,179.1,221.3,184.4z"/>
						<path class="st19" d="M312.9,207.6c0,5.3-4.3,9.6-9.7,9.6c-5.3,0-9.7-4.3-9.7-9.6s4.3-9.6,9.7-9.6
							C308.5,198,312.9,202.3,312.9,207.6z"/>
					</g>
				</g>
			</g>
		</g>
		<g>
			<path class="st3" d="M566.8,285.1c0-150.2-123.3-272-275.2-272S16.3,134.9,16.3,285.1s123.3,272,275.2,272
				S566.8,435.3,566.8,285.1z"/>
		</g>
		<g>
			<line class="st21" x1="291.5" y1="285.1" x2="566.8" y2="285.1"/>
		</g>
		<g transform="translate(222,310)">
			<g>
				<text transform="matrix(1.0121 0 0 1 48.9492 -10.312)" class="st22 st23 st24">0.35</text>
			</g>
			<g>
				<text transform="matrix(1.0121 0 0 1 98.2686 -10.312)" class="st22 st23 st24">0.4</text>
			</g>
			<g>
				<text transform="matrix(1.0121 0 0 1 137.749 -10.312)" class="st22 st23 st24">0.45</text>
			</g>
			<g>
				<text transform="matrix(1.0121 0 0 1 187.0693 -10.312)" class="st22 st23 st24">0.5</text>
			</g>
			<g>
				<text transform="matrix(1.0121 0 0 1 226.5293 -10.312)" class="st22 st23 st24">0.55</text>
			</g>
			<g>
				<text transform="matrix(1.0121 0 0 1 275.8652 -10.312)" class="st22 st23 st24">0.6</text>
			</g>
			<g>
				<text transform="matrix(1.0121 0 0 1 315.3262 -10.312)" class="st22 st23 st24">0.65</text>
			</g>
		</g>
		<g>
			<g>
				<g pointer-events="none" transform="translate(364,310)translate(21.1640625,0)">
					<g transform="matrix(1 0 0 -1 0 0)">
						<g>
							<path id="MJMATHI-3B2" class="st25" d="M200.3,7.3c-0.2,0.2-0.2,0.3-0.2,0.3s0.9,4.3,3,12.7c2,8.4,3.1,12.9,3.1,13.2
								c0.6,1.8,1.3,3.5,2.2,4.8c0.9,1.3,1.7,2.3,2.5,3c1.4,1.3,3,1.8,4.6,1.8l0,0c1.6,0,2.8-0.5,3.9-1.5c1.1-1,1.6-2.3,1.6-3.8
								c0-2.8-1.3-5.1-3.9-6.9l0.5-0.5c1.3-1.3,1.9-3.1,1.9-5.3c0-3-1.1-5.4-3.3-7.4c-2.2-2-4.6-3-7.2-3c-0.8,0-1.4,0.2-2,0.3
								c-0.6,0.2-1.1,0.5-1.4,0.8c-0.3,0.3-0.6,0.7-0.8,1c-0.2,0.3-0.3,0.5-0.5,0.8c-0.2,0.2-0.2,0.3-0.2,0.2l-2.5-10.1
								c0-0.2-0.3-0.2-0.8-0.2h-0.5V7.3z M212.7,32.2c0.9,0,1.9-0.2,2.8-0.5l0.2,0.2c0.2,0.2,0.2,0.2,0.3,0.3c0,0,0.2,0.2,0.3,0.3
								s0.3,0.3,0.5,0.5c0.2,0.2,0.3,0.5,0.5,0.7c0.2,0.3,0.3,0.7,0.5,1c0.2,0.3,0.3,0.7,0.3,1.2s0.2,0.8,0.3,1.5c0,0.2,0,0.7,0,1.3
								c0,0.5,0,0.8,0,1c-0.3,1.3-1.4,2-2.8,2c-1.1,0-2-0.3-3-1c-0.9-0.7-1.7-1.5-2.4-2.5c-0.6-1-1.1-1.8-1.4-2.6
								c-0.3-0.8-0.6-1.6-0.9-2.3c-0.2-0.5-0.6-2.3-1.4-5.9c-0.8-3.5-1.3-5.3-1.3-5.6c0-0.2,0-0.3,0-0.8c0-1.3,0.3-2.3,0.8-3.1
								c0.8-1.2,1.9-1.6,3.3-1.6c1.1,0,2.2,0.3,3.5,1c1.3,0.7,2.2,1.8,2.8,3.5c0.5,0.8,0.8,2,0.9,3.1c0.2,1.2,0.3,2,0.3,2.6
								c0,1.5-0.5,2.8-1.4,3.6c-1.1-0.3-2-0.5-2.8-0.5h-0.3c-2,0-3,0.3-3,1.2c0,0.2,0,0.3,0.2,0.5C209.5,31.9,210.6,32.2,212.7,32.2
								z"/>
						</g>
						<g transform="translate(566,-150)" class="st26">
							<g transform="scale(0.707)" class="st27">
								<path id="MJMATHI-6D" class="st28" d="M-253.9,147.2c0,0.2,0,0.3,0.2,0.5s0.2,0.5,0.3,1c0.2,0.5,0.3,1,0.5,1.3
									c0.2,0.3,0.5,0.7,0.8,1c0.3,0.3,0.8,0.5,1.3,0.5c0.5,0,0.8-0.2,1.1-0.2c0.3-0.2,0.6-0.3,0.8-0.5c0.2-0.2,0.3-0.5,0.5-0.7
									c0.2-0.2,0.2-0.3,0.2-0.5v-0.2l0,0l0.3,0.3c1.1,1.2,2.4,1.8,3.8,1.8c0.3,0,0.6,0,0.8,0c0.3,0,0.5-0.2,0.6-0.2
									c0.2-0.2,0.3-0.2,0.5-0.3c0.2-0.2,0.3-0.2,0.5-0.3s0.2-0.3,0.3-0.3s0.2-0.2,0.2-0.3c0.2-0.2,0.2-0.2,0.2-0.3
									c0-0.2,0-0.2,0.2-0.3c0.2,0,0.2-0.2,0-0.2l0.2,0.3c1.1,1.5,2.5,2.1,4.1,2.1c0.9,0,1.7-0.3,2.4-0.8c0.6-0.5,0.9-1.3,0.9-2.3
									c0-1-0.3-2.5-1.1-4.5c-0.6-2-1.1-3.1-1.1-3.6c0-0.3,0-0.5,0.2-0.5c0-0.2,0.2-0.2,0.5-0.2c0.5,0,0.9,0.3,1.4,0.8
									s0.8,1.3,1.1,2.3c0,0.2,0.2,0.3,0.2,0.3s0.2,0,0.5,0c0.3,0,0.5,0,0.5-0.2c0,0,0-0.2-0.2-0.5c-0.2-0.5-0.3-1.2-0.6-1.6
									c-0.3-0.5-0.6-1-1.3-1.6c-0.6-0.5-1.3-0.8-1.9-0.8c-0.8,0-1.4,0.3-1.9,0.8c-0.5,0.5-0.6,1-0.6,1.6c0,0.3,0.3,1.5,0.9,3.5
									c0.6,2,0.9,3.3,0.9,4.3c0,1.2-0.5,1.6-1.3,1.6h-0.2c-1.6,0-2.8-1-3.9-2.8l-0.2-0.3l-0.9-3.8c-0.6-2.5-0.9-3.8-1.1-4
									c-0.2-0.5-0.6-0.8-1.1-0.8c-0.2,0-0.5,0-0.6,0.2c-0.2,0.2-0.3,0.2-0.3,0.3s-0.2,0.2-0.2,0.3c0,0.2,0.3,1.5,0.9,4l0.9,4.1
									c0,0.3,0.2,0.7,0.2,1c0,1.2-0.5,1.6-1.3,1.6h-0.2c-1.6,0-2.8-1-3.9-2.8l-0.2-0.3l-0.9-3.8c-0.6-2.5-0.9-3.8-1.1-4
									c-0.2-0.5-0.6-0.8-1.1-0.8c-0.2,0-0.5,0-0.6,0.2s-0.3,0.2-0.3,0.3c0,0.2,0,0.2,0,0.3s0.3,1.8,1.1,4.6c0.6,3,1.1,4.5,1.1,4.6
									c0,0.3,0.2,0.5,0.2,0.8c0,0.7-0.2,1-0.6,1c-0.5,0-0.8-0.3-0.9-0.8c-0.3-0.5-0.5-1.2-0.6-1.6c-0.2-0.5-0.3-1-0.3-1
									s-0.2,0-0.5,0h-0.3C-253.7,147-253.9,147-253.9,147.2z"/>
							</g>
							<g transform="scale(0.707)" class="st27">
								<path id="MJMATHI-65" class="st28" d="M-229.7,143.7c0,1,0.2,2,0.5,3c0.3,1,0.8,1.6,1.3,2.1c0.5,0.5,1.1,1,1.9,1.5
									c0.6,0.3,1.3,0.7,1.9,0.8c0.6,0.2,1.1,0.3,1.7,0.3h0.2c0.8,0,1.6-0.2,2-0.7c0.6-0.5,0.9-1,0.9-1.8c0-1.6-0.9-2.8-3-3.3
									c-0.9-0.2-2-0.3-3.6-0.3c-0.6,0-0.9,0-1.1,0c0,0,0-0.3-0.2-1c-0.2-0.7-0.2-1.2-0.2-1.6c0-0.8,0.2-1.6,0.6-2.1
									c0.3-0.5,0.9-0.8,1.7-0.8s1.6,0.2,2.5,0.5s1.7,1,2.5,1.8c0.2,0.2,0.3,0.3,0.3,0.3s0.2-0.2,0.3-0.3s0.3-0.3,0.3-0.3
									c0-0.2,0-0.2-0.3-0.5c-0.2-0.2-0.5-0.5-0.8-0.8s-0.8-0.7-1.3-0.8c-0.5-0.3-1.1-0.5-1.7-0.7s-1.4-0.3-2-0.3
									c-1.4,0-2.5,0.5-3.3,1.5C-229.2,141.1-229.7,142.4-229.7,143.7z M-220.6,149c-0.2,1-0.8,1.5-1.9,1.5c-0.6,0-1.1-0.2-1.6-0.3
									c-0.5-0.3-0.9-0.7-1.3-1c-0.3-0.3-0.6-0.8-0.8-1.2c-0.2-0.3-0.3-0.7-0.5-1c0-0.3-0.2-0.5-0.2-0.5s0.2,0,0.5,0
									c2,0,3.5,0.2,4.2,0.7C-221,147.5-220.6,148.2-220.6,149z"/>
							</g>
							<g transform="scale(0.707)" class="st27">
								<path id="MJMATHI-61" class="st28" d="M-217.1,143.4c0,2,0.6,3.6,2,5.4c1.4,1.6,3,2.6,4.6,2.6c0.9,0,1.7-0.5,2.4-1.3
									c0.3,0.5,0.6,0.8,1.3,0.8c0.2,0,0.5,0,0.6-0.2s0.3-0.3,0.3-0.5c0-0.2-0.3-1.8-0.9-4.5c-0.6-2.8-0.9-4.3-1.1-4.6
									c0-0.5,0-0.8,0.2-1c0.2-0.2,0.3-0.2,0.6-0.3c0.2,0,0.3,0.2,0.5,0.3c0.3,0.3,0.8,1.3,1.1,2.6c0.2,0.3,0.2,0.5,0.3,0.7
									c0,0,0.2,0,0.3,0h0.2c0.3,0,0.5-0.2,0.5-0.3c0-0.2,0-0.3-0.2-0.8c-0.2-0.3-0.3-0.8-0.5-1.5c-0.3-0.7-0.6-1.2-0.8-1.5
									c-0.2-0.2-0.5-0.5-0.8-0.7c-0.2,0-0.3,0-0.6,0c-0.6,0-1.1,0.2-1.6,0.5c-0.5,0.3-0.6,0.5-0.8,0.8l-0.2,0.5c0,0,0,0-0.2,0
									c0,0,0,0-0.2-0.2c-1.1-1-2.2-1.6-3.3-1.6c-0.9,0-1.9,0.3-2.7,1.2C-216.8,140.6-217.1,141.7-217.1,143.4z M-208.6,148.3
									c0,0.2,0,0.3-0.2,0.7c-0.2,0.3-0.3,0.7-0.6,1c-0.3,0.3-0.8,0.5-1.3,0.5c-0.6,0-1.3-0.3-1.9-0.8c-0.6-0.7-1.1-1.3-1.4-2.3
									c-0.5-1.5-0.9-3-1.1-4.6c0,0,0-0.2,0-0.3s0-0.3,0-0.3c0-0.8,0.2-1.5,0.5-1.8c0.3-0.3,0.8-0.5,1.1-0.5c0.6,0,1.4,0.3,2,1
									c0.6,0.7,1.1,1.2,1.3,1.5c0,0,0.3,1.2,0.8,3C-208.8,147-208.6,148.2-208.6,148.3z"/>
							</g>
							<g transform="scale(0.707)" class="st27">
								<path id="MJMATHI-6E" class="st28" d="M-203.3,147.2c0,0.2,0,0.3,0.2,0.5s0.2,0.5,0.3,1c0.2,0.5,0.3,1,0.5,1.3
									c0.2,0.3,0.5,0.7,0.9,1c0.5,0.3,0.8,0.5,1.3,0.5c0.6,0,1.3-0.2,1.6-0.5c0.5-0.3,0.6-0.7,0.8-1c0.2-0.3,0.2-0.5,0.2-0.7l0,0
									l0.3,0.3c1.1,1.2,2.4,1.8,3.8,1.8c0.9,0,1.7-0.3,2.4-0.8c0.6-0.5,0.9-1.3,0.9-2.3c0-1-0.3-2.5-1.1-4.5
									c-0.6-2-1.1-3.1-1.1-3.6c0-0.5,0.2-0.7,0.5-0.7c0.2,0,0.2,0,0.3,0c0.5,0.2,0.9,0.5,1.4,1c0.5,0.7,0.8,1.3,0.9,2.3
									c0,0.2,0.2,0.2,0.5,0.2c0.3,0,0.5,0,0.5-0.2c0,0,0-0.2-0.2-0.5c-0.2-0.5-0.3-1.2-0.6-1.6c-0.3-0.5-0.6-1-1.3-1.6
									c-0.6-0.7-1.3-0.8-1.9-0.8c-0.8,0-1.4,0.3-1.9,0.8c-0.3,0.5-0.6,1-0.6,1.6c0,0.3,0.3,1.5,0.9,3.5c0.6,2,0.9,3.3,0.9,4.3
									c0,1.2-0.5,1.6-1.3,1.6h-0.2c-1.6,0-2.8-1-3.9-2.8l-0.2-0.3l-0.9-3.8c-0.6-2.5-0.9-3.8-1.1-4c-0.2-0.5-0.6-0.8-1.1-0.8
									c-0.2,0-0.5,0-0.6,0.2c-0.2,0.2-0.3,0.2-0.3,0.3c0,0.2,0,0.2,0,0.3s0.3,1.8,1.1,4.6c0.8,2.8,1.1,4.3,1.1,4.6
									c0,0.2,0,0.3,0,0.7c0,0.7-0.2,1.2-0.6,1.2c-0.6,0-1.3-1-1.7-2.8c-0.2-0.3-0.2-0.5-0.2-0.7c0-0.2-0.2-0.2-0.5-0.2h-0.3
									C-203.1,147-203.3,147-203.3,147.2z"/>
							</g>
						</g>
					</g>
				</g>
			</g>
			<g>
				<g pointer-events="none" transform="translate(322.40916292848976,209.59083707151026)translate(25.51220703125,0)">
					<g transform="matrix(1 0 0 -1 0 0)">
						<g>
							<path id="MJMAIN-7C" class="st29" d="M148.8,123.1L148.8,123.1c-0.3,0-0.6,0.2-0.7,0.5V142v18.5c0.3,0.3,0.4,0.5,0.7,0.5
								s0.6-0.2,0.7-0.6v-36.8C149.3,123.2,149.1,123.1,148.8,123.1L148.8,123.1z"/>
						</g>
						<g>
							<path id="MJMATHI-3B2_1_" class="st29" d="M154.5,125.1c-0.1,0.2-0.1,0.3-0.1,0.3s0.8,4.1,2.7,12.1s2.8,12.2,2.8,12.5
								c0.6,1.7,1.1,3.3,2,4.5c0.8,1.3,1.5,2.2,2.2,2.8c1.3,1.3,2.7,1.7,4,1.7l0,0c1.4,0,2.5-0.5,3.5-1.4c0.8-0.9,1.4-2.2,1.4-3.6
								c0-2.7-1.1-4.9-3.5-6.6l0.4-0.5c1.1-1.3,1.7-3,1.7-5c0-2.8-1-5.2-2.9-7.1s-4-2.8-6.4-2.8c-0.7,0-1.3,0.2-1.8,0.3
								c-0.6,0.2-1,0.5-1.3,0.8s-0.6,0.6-0.7,0.9c-0.1,0.3-0.3,0.5-0.4,0.8c-0.1,0.2-0.1,0.3-0.1,0.2l-2.2-9.6
								c0-0.2-0.3-0.2-0.7-0.2h-0.4V125.1z M165.5,148.8c0.8,0,1.7-0.2,2.5-0.5l0.1,0.2c0.1,0.2,0.1,0.2,0.3,0.3
								c0,0,0.1,0.2,0.3,0.3c0.1,0.2,0.3,0.3,0.4,0.5c0.1,0.2,0.3,0.5,0.4,0.6c0.1,0.3,0.3,0.6,0.4,0.9c0.1,0.3,0.3,0.6,0.3,1.1
								c0,0.5,0.1,0.8,0.3,1.4c0,0.2,0,0.6,0,1.3c0,0.5,0,0.8,0,0.9c-0.3,1.3-1.3,1.9-2.5,1.9c-1,0-1.8-0.3-2.7-0.9
								c-0.8-0.6-1.5-1.4-2.1-2.4c-0.6-0.9-1-1.7-1.3-2.5s-0.6-1.6-0.8-2.2c-0.1-0.5-0.6-2.2-1.3-5.6c-0.7-3.3-1.1-5-1.1-5.3
								c0-0.2,0-0.3,0-0.8c0-1.3,0.3-2.2,0.7-3c0.7-1.1,1.7-1.6,2.9-1.6c1,0,2,0.3,3.1,0.9s2,1.7,2.5,3.3c0.4,0.8,0.7,1.9,0.8,3
								c0.1,1.1,0.3,1.9,0.3,2.5c0,1.4-0.4,2.7-1.3,3.4c-1-0.3-1.8-0.5-2.5-0.5h-0.3c-1.8,0-2.7,0.3-2.7,1.1c0,0.2,0,0.3,0.1,0.5
								C162.7,148.4,163.7,148.8,165.5,148.8z"/>
						</g>
						<g transform="translate(852,0)">
							<g>
								<path id="MJMAIN-7C_1_" class="st29" d="M-674.3,123.1L-674.3,123.1c-0.3,0-0.6,0.2-0.7,0.5V142v18.5
									c0.3,0.3,0.4,0.5,0.7,0.5c0.3,0,0.6-0.2,0.7-0.6v-36.8C-673.8,123.2-674.1,123.1-674.3,123.1L-674.3,123.1z"/>
							</g>
							<g transform="translate(278,-286)" class="st26">
								<g transform="scale(0.707)" class="st27">
									<path id="MJMATHI-6D_1_" class="st30" d="M-791.5,358.4c0,0.2,0,0.3,0.1,0.5c0,0.2,0.1,0.5,0.3,0.9
										c0.1,0.5,0.3,0.9,0.4,1.3c0.1,0.3,0.4,0.6,0.7,0.9c0.3,0.3,0.7,0.5,1.1,0.5s0.7-0.2,1-0.2c0.3-0.2,0.6-0.3,0.7-0.5
										c0.1-0.2,0.3-0.5,0.4-0.6c0.1-0.2,0.1-0.3,0.1-0.5v-0.2l0,0l0.3,0.3c1,1.1,2.1,1.7,3.3,1.7c0.3,0,0.6,0,0.7,0
										c0.3,0,0.4-0.2,0.6-0.2c0.1-0.2,0.3-0.2,0.4-0.3c0.1-0.2,0.3-0.2,0.4-0.3s0.1-0.3,0.3-0.3c0-0.2,0.1-0.2,0.1-0.3
										c0.1-0.2,0.1-0.2,0.1-0.3c0-0.2,0-0.2,0.1-0.3c0.1,0,0.1-0.2,0-0.2l0.1,0.3c1,1.4,2.2,2,3.6,2c0.8,0,1.5-0.3,2.1-0.8
										c0.6-0.5,0.8-1.3,0.8-2.2c0-0.9-0.3-2.4-1-4.2s-1-3-1-3.4c0-0.3,0-0.5,0.1-0.5s0.1-0.2,0.4-0.2c0.4,0,0.8,0.3,1.3,0.8
										c0.4,0.5,0.7,1.3,1,2.2c0,0.2,0.1,0.3,0.1,0.3s0.1,0,0.4,0c0.3,0,0.4,0,0.4-0.2c0,0,0-0.2-0.1-0.5
										c-0.1-0.5-0.3-1.1-0.6-1.6c-0.3-0.5-0.6-0.9-1.1-1.6c-0.6-0.5-1.1-0.8-1.7-0.8c-0.7,0-1.3,0.3-1.7,0.8
										c-0.3,0.5-0.6,0.9-0.6,1.6c0,0.3,0.3,1.4,0.8,3.3c0.6,1.9,0.8,3.1,0.8,4.1c0,1.1-0.4,1.6-1.1,1.6h-0.1
										c-1.4,0-2.5-0.9-3.5-2.7l-0.1-0.3l-0.8-3.6c-0.6-2.4-0.8-3.6-1-3.8c-0.1-0.5-0.6-0.8-1-0.8c-0.1,0-0.4,0-0.6,0.2
										c-0.1,0.2-0.3,0.2-0.3,0.3c0,0.2-0.1,0.2-0.1,0.3s0.3,1.4,0.8,3.8l0.8,3.9c0,0.3,0.1,0.6,0.1,0.9c0,1.1-0.4,1.6-1.1,1.6
										h-0.1c-1.4,0-2.5-0.9-3.5-2.7l-0.1-0.3l-0.8-3.6c-0.6-2.4-0.8-3.6-1-3.8c-0.1-0.5-0.6-0.8-1-0.8c-0.1,0-0.4,0-0.6,0.2
										c-0.1,0.2-0.3,0.2-0.3,0.3c0,0.2,0,0.2,0,0.3s0.3,1.7,1,4.4c0.6,2.8,1,4.2,1,4.4c0,0.3,0.1,0.5,0.1,0.8
										c0,0.6-0.1,0.9-0.6,0.9c-0.4,0-0.7-0.3-0.8-0.8c-0.3-0.5-0.4-1.1-0.6-1.6c-0.1-0.6-0.3-0.9-0.3-0.9s-0.1,0-0.4,0h-0.3
										C-791.5,358.3-791.5,358.3-791.5,358.4z"/>
								</g>
								<g transform="scale(0.707)" class="st27">
									<path id="MJMATHI-65_1_" class="st30" d="M-770,355.1c0,0.9,0.1,1.9,0.4,2.8c0.3,0.8,0.7,1.6,1.1,2c0.4,0.6,1,0.9,1.7,1.4
										c0.6,0.3,1.1,0.6,1.7,0.8c0.6,0.2,1,0.3,1.5,0.3h0.1c0.7,0,1.4-0.2,1.8-0.6c0.6-0.5,0.8-0.9,0.8-1.7c0-1.6-0.8-2.7-2.7-3.1
										c-0.8-0.2-1.8-0.3-3.2-0.3c-0.6,0-0.8,0-1,0c0,0,0-0.3-0.1-0.9c-0.1-0.6-0.1-1.1-0.1-1.6c0-0.8,0.1-1.6,0.6-2
										c0.4-0.5,0.8-0.8,1.5-0.8c0.7,0,1.4,0.2,2.2,0.5c0.8,0.3,1.5,0.9,2.2,1.7c0.1,0.2,0.3,0.3,0.3,0.3s0.1-0.2,0.3-0.3
										c0.1-0.2,0.3-0.3,0.3-0.3c0-0.2,0-0.2-0.3-0.5c-0.1-0.2-0.4-0.5-0.7-0.8c-0.3-0.3-0.7-0.6-1.1-0.8c-0.4-0.3-1-0.5-1.5-0.6
										c-0.6-0.2-1.3-0.3-1.8-0.3c-1.3,0-2.2,0.5-2.9,1.4C-769.6,352.6-770,353.9-770,355.1z M-762.1,360.1
										c-0.1,0.9-0.7,1.4-1.7,1.4c-0.6,0-1-0.2-1.4-0.3s-0.8-0.6-1.1-0.9c-0.3-0.3-0.6-0.8-0.7-1.1c-0.1-0.3-0.3-0.6-0.4-0.9
										c0-0.3-0.1-0.5-0.1-0.5s0.1,0,0.4,0c1.8,0,3.1,0.2,3.8,0.6C-762.5,358.7-762.1,359.4-762.1,360.1z"/>
								</g>
								<g transform="scale(0.707)" class="st27">
									<path id="MJMATHI-61_1_" class="st30" d="M-759,354.8c0,1.9,0.6,3.4,1.8,5.2c1.3,1.7,2.7,2.5,4,2.5c0.8,0,1.5-0.5,2.1-1.3
										c0.3,0.5,0.6,0.8,1.1,0.8c0.1,0,0.4,0,0.6-0.2c0.1-0.2,0.3-0.3,0.3-0.5c0-0.2-0.3-1.7-0.8-4.2c-0.6-2.7-0.8-4.1-1-4.4
										c0-0.5,0-0.8,0.1-0.9s0.3-0.2,0.6-0.3c0.1,0,0.3,0.2,0.4,0.3c0.3,0.3,0.7,1.3,1,2.5c0.1,0.3,0.1,0.5,0.3,0.6
										c0,0,0.1,0,0.3,0h0.1c0.3,0,0.4-0.2,0.4-0.3c0-0.2,0-0.3-0.1-0.8c-0.1-0.3-0.3-0.8-0.4-1.4c-0.3-0.6-0.6-1.1-0.7-1.4
										c-0.1-0.2-0.4-0.5-0.7-0.6c-0.1,0-0.3,0-0.6,0c-0.6,0-1,0.2-1.4,0.5c-0.4,0.3-0.6,0.5-0.7,0.8l-0.1,0.5c0,0,0,0-0.1,0
										c0,0,0,0-0.1-0.2c-1-0.9-2-1.6-2.9-1.6c-0.8,0-1.7,0.3-2.4,1.1C-758.7,352.2-759,353.4-759,354.8z M-751.5,359.5
										c0,0.2,0,0.3-0.1,0.6c-0.1,0.3-0.3,0.6-0.6,0.9s-0.7,0.5-1.1,0.5c-0.6,0-1.1-0.3-1.7-0.8c-0.6-0.6-1-1.3-1.3-2.2
										c-0.4-1.4-0.8-2.8-1-4.4c0,0,0-0.2,0-0.3c0-0.2,0-0.3,0-0.3c0-0.8,0.1-1.4,0.4-1.7c0.3-0.3,0.7-0.5,1-0.5
										c0.6,0,1.3,0.3,1.8,0.9c0.6,0.6,1,1.1,1.1,1.4c0,0,0.3,1.1,0.7,2.8C-751.6,358.3-751.5,359.4-751.5,359.5z"/>
								</g>
								<g transform="scale(0.707)" class="st27">
									<path id="MJMATHI-6E_1_" class="st30" d="M-746.6,358.4c0,0.2,0,0.3,0.1,0.5c0,0.2,0.1,0.5,0.3,0.9
										c0.1,0.5,0.3,0.9,0.4,1.3c0.1,0.3,0.4,0.6,0.8,0.9c0.4,0.3,0.7,0.5,1.1,0.5c0.6,0,1.1-0.2,1.4-0.5c0.4-0.3,0.6-0.6,0.7-0.9
										c0.1-0.3,0.1-0.5,0.1-0.6l0,0l0.3,0.3c1,1.1,2.1,1.7,3.3,1.7c0.8,0,1.5-0.3,2.1-0.8c0.6-0.5,0.8-1.3,0.8-2.2
										c0-0.9-0.3-2.4-1-4.2c-0.7-1.9-1-3-1-3.4c0-0.5,0.1-0.6,0.4-0.6c0.1,0,0.1,0,0.3,0c0.4,0.2,0.8,0.5,1.3,0.9
										c0.4,0.6,0.7,1.3,0.8,2.2c0,0.2,0.1,0.2,0.4,0.2s0.4,0,0.4-0.2c0,0,0-0.2-0.1-0.5c-0.1-0.5-0.3-1.1-0.6-1.6
										c-0.3-0.5-0.6-0.9-1.1-1.6c-0.6-0.5-1.1-0.8-1.7-0.8c-0.7,0-1.3,0.3-1.7,0.8c-0.3,0.5-0.6,0.9-0.6,1.6
										c0,0.3,0.3,1.4,0.8,3.3c0.6,1.9,0.8,3.1,0.8,4.1c0,1.1-0.4,1.6-1.1,1.6h-0.1c-1.4,0-2.5-0.9-3.5-2.7l-0.1-0.3l-0.8-3.6
										c-0.6-2.4-0.8-3.6-1-3.8c-0.1-0.5-0.6-0.8-1-0.8c-0.1,0-0.4,0-0.6,0.2c-0.1,0.2-0.3,0.2-0.3,0.3s0,0.2,0,0.3
										c0,0.2,0.3,1.7,1,4.4c0.7,2.7,1,4.1,1,4.4c0,0.2,0,0.3,0,0.6c0,0.6-0.1,1.1-0.6,1.1c-0.6,0-1.1-0.9-1.5-2.7
										c-0.1-0.3-0.1-0.5-0.1-0.6c0-0.2-0.1-0.2-0.4-0.2h-0.3C-746.6,358.3-746.6,358.3-746.6,358.4z"/>
								</g>
							</g>
						</g>
					</g>
				</g>
			</g>
			<g>
				<g pointer-events="none" transform="translate(222,168)">
					<g transform="matrix(1 0 0 -1 0 0)">
						<g>
							<path id="MJMAIN-7C_2_" class="st31" d="M52.8,159.4L52.8,159.4c-0.3,0-0.6,0.2-0.7,0.5v19v19c0.3,0.3,0.4,0.5,0.7,0.5
								c0.3,0,0.6-0.2,0.7-0.6v-37.9C53.4,159.6,53.1,159.4,52.8,159.4L52.8,159.4z"/>
						</g>
						<g>
							<path id="MJMATHI-3B3" class="st31" d="M59,178.8c-0.4,0-0.7,0.2-0.7,0.3c0,0.5,0.1,1,0.6,1.8c0.3,0.8,0.9,1.6,1.5,2.4
								c0.6,0.8,1.3,1.5,2.2,2.1c0.9,0.5,1.8,0.8,2.8,1c0.6,0,1,0,1.2,0c1.2-0.3,2.1-1,2.8-2.1s1.3-2.7,1.9-5.2
								c0.3-1.6,0.4-2.7,0.4-3.4c0-0.2,0-0.2,0-0.2l0.4,1.1c0.4,1.3,1,2.7,1.6,4.2c0.6,1.5,1.2,2.6,1.5,3.5s0.7,1.5,0.7,1.5
								s0.3,0,0.6,0h0.4c0.1-0.2,0.1-0.3,0.1-0.3c0-0.2-0.3-0.6-0.7-1.8c-0.4-1.1-1.2-2.7-2.1-5c-0.9-2.3-1.8-4.7-2.5-7.1
								c-0.1-0.5-0.3-1.3-0.4-2.6c-0.1-1.3-0.4-2.6-0.7-4.2c-0.4-1.6-0.7-2.9-1-3.5c-0.3-0.6-0.6-1-1-1s-0.6,0.3-0.6,1.1
								c0,1.3,0.6,4.2,1.9,8.6l0.1,0.8v0.6c0,0.3,0,0.6,0,1.1c0,4-0.7,6.9-2.1,8.4c-0.9,1-2.1,1.5-3.4,1.5c-1.2,0-2.2-0.3-3.1-1
								c-0.9-0.6-1.6-1.6-2.1-2.7c0-0.2-0.1-0.3-0.1-0.3C59.5,178.8,59.3,178.8,59,178.8z"/>
						</g>
						<g transform="translate(822,0)">
							<g>
								<path id="MJMAIN-7C_3_" class="st31" d="M-739.6,159.4L-739.6,159.4c-0.3,0-0.6,0.2-0.7,0.5v19v19c0.3,0.3,0.4,0.5,0.7,0.5
									s0.6-0.2,0.7-0.6v-37.9C-739,159.6-739.3,159.4-739.6,159.4L-739.6,159.4z"/>
							</g>
							<g transform="translate(278,-286)" class="st26">
								<g transform="scale(0.707)" class="st27">
									<path id="MJMATHI-6D_2_" class="st32" d="M-807.6,374.2c0,0.2,0,0.3,0.1,0.5c0,0.2,0.1,0.5,0.3,1c0.1,0.5,0.3,1,0.4,1.3
										s0.4,0.6,0.7,1c0.4,0.3,0.7,0.5,1.2,0.5s0.7-0.2,1-0.2s0.6-0.3,0.7-0.5c0.1-0.2,0.3-0.5,0.4-0.6c0.1-0.2,0.1-0.3,0.1-0.5
										v-0.2l0,0l0.3,0.3c1,1.1,2.2,1.8,3.6,1.8c0.3,0,0.6,0,0.7,0c0.3,0,0.4-0.2,0.6-0.2c0.1-0.2,0.3-0.2,0.4-0.3
										c0.1-0.2,0.3-0.2,0.4-0.3c0.1-0.2,0.1-0.3,0.3-0.3c0-0.2,0.1-0.2,0.1-0.3c0.1-0.2,0.1-0.2,0.1-0.3s0-0.2,0.1-0.3
										c0.1,0,0.1-0.2,0-0.2l0.1,0.3c1,1.5,2.4,2.1,3.8,2.1c0.9,0,1.6-0.3,2.2-0.8s0.9-1.3,0.9-2.3c0-1-0.3-2.4-1-4.4
										c-0.6-1.9-1-3.1-1-3.5c0-0.3,0-0.5,0.1-0.5c0-0.2,0.1-0.2,0.4-0.2c0.4,0,0.9,0.3,1.3,0.8c0.4,0.5,0.7,1.3,1,2.3
										c0,0.2,0.1,0.3,0.1,0.3s0.1,0,0.4,0s0.4,0,0.4-0.2c0,0,0-0.2-0.1-0.5c-0.1-0.5-0.3-1.1-0.6-1.6c-0.3-0.5-0.6-1-1.2-1.6
										c-0.6-0.5-1.2-0.8-1.8-0.8c-0.7,0-1.3,0.3-1.8,0.8c-0.4,0.5-0.6,1-0.6,1.6c0,0.3,0.3,1.5,0.9,3.4c0.6,1.9,0.9,3.2,0.9,4.2
										c0,1.1-0.4,1.6-1.2,1.6h-0.1c-1.5,0-2.7-1-3.7-2.7l-0.1-0.3l-0.9-3.7c-0.6-2.4-0.9-3.7-1-3.9c-0.1-0.5-0.6-0.8-1-0.8
										c-0.1,0-0.4,0-0.6,0.2s-0.3,0.2-0.3,0.3c0,0.2-0.1,0.2-0.1,0.3s0.3,1.5,0.9,3.9l0.9,4c0,0.3,0.1,0.6,0.1,1
										c0,1.1-0.4,1.6-1.2,1.6h-0.1c-1.5,0-2.7-1-3.7-2.7l-0.1-0.3l-0.9-3.7c-0.6-2.4-0.9-3.7-1-3.9c-0.1-0.5-0.6-0.8-1-0.8
										c-0.1,0-0.4,0-0.6,0.2c-0.1,0.2-0.3,0.2-0.3,0.3c0,0.2,0,0.2,0,0.3s0.3,1.8,1,4.5c0.6,2.9,1,4.4,1,4.5
										c0,0.3,0.1,0.5,0.1,0.8c0,0.6-0.1,1-0.6,1c-0.4,0-0.7-0.3-0.9-0.8c-0.3-0.5-0.4-1.1-0.6-1.6c-0.1-0.6-0.3-1-0.3-1
										s-0.1,0-0.4,0h-0.3C-807.5,374.1-807.6,374.1-807.6,374.2z"/>
								</g>
								<g transform="scale(0.707)" class="st27">
									<path id="MJMATHI-65_2_" class="st32" d="M-784.8,370.8c0,1,0.1,1.9,0.4,2.9c0.3,0.8,0.7,1.6,1.2,2.1c0.4,0.5,1,1,1.8,1.5
										c0.6,0.3,1.2,0.6,1.8,0.8c0.6,0.2,1,0.3,1.6,0.3h0.1c0.7,0,1.5-0.2,1.9-0.6c0.6-0.5,0.9-1,0.9-1.8c0-1.6-0.9-2.7-2.8-3.2
										c-0.9-0.2-1.9-0.3-3.4-0.3c-0.6,0-0.9,0-1,0c0,0,0-0.3-0.1-1c-0.1-0.6-0.1-1.1-0.1-1.6c0-0.8,0.1-1.6,0.6-2.1
										c0.3-0.5,0.9-0.8,1.6-0.8s1.5,0.2,2.4,0.5c0.9,0.3,1.6,1,2.4,1.8c0.1,0.2,0.3,0.3,0.3,0.3s0.1-0.2,0.3-0.3
										c0.1-0.2,0.3-0.3,0.3-0.3c0-0.2,0-0.2-0.3-0.5c-0.3-0.3-0.4-0.5-0.7-0.8c-0.3-0.3-0.7-0.6-1.2-0.8s-1-0.5-1.6-0.6
										c-0.6-0.2-1.3-0.3-1.9-0.3c-1.3,0-2.4,0.5-3.1,1.5C-784.4,368.3-784.7,369.6-784.8,370.8z M-776.2,376
										c-0.1,1-0.7,1.5-1.8,1.5c-0.6,0-1-0.2-1.5-0.3c-0.4-0.2-0.9-0.6-1.2-1c-0.3-0.3-0.6-0.8-0.7-1.1c-0.1-0.3-0.3-0.6-0.4-1
										c-0.1-0.3-0.1-0.5-0.1-0.5s0.1,0,0.4,0c1.9,0,3.3,0.2,4,0.6C-776.7,374.6-776.2,375.2-776.2,376z"/>
								</g>
								<g transform="scale(0.707)" class="st27">
									<path id="MJMATHI-61_2_" class="st32" d="M-773,370.7c0,1.9,0.6,3.5,1.9,5.3c1.3,1.6,2.7,2.6,4.3,2.6
										c0.9,0,1.6-0.5,2.2-1.3c0.3,0.5,0.6,0.8,1.2,0.8c0.1,0,0.4,0,0.6-0.2s0.3-0.3,0.3-0.5c0-0.2-0.3-1.8-0.9-4.4
										c-0.6-2.7-0.9-4.2-1-4.5c0-0.5,0-0.8,0.1-1c0.1-0.2,0.3-0.2,0.6-0.3c0.1,0,0.3,0.2,0.4,0.3c0.3,0.3,0.7,1.3,1,2.6
										c0.1,0.3,0.1,0.5,0.3,0.6c0,0,0.1,0,0.3,0h0.1c0.3,0,0.4-0.2,0.4-0.3c0-0.2,0-0.3-0.1-0.8c-0.1-0.3-0.3-0.8-0.4-1.5
										c-0.1-0.6-0.6-1.1-0.7-1.5c-0.1-0.2-0.4-0.5-0.7-0.6c-0.1,0-0.3,0-0.6,0c-0.6,0-1,0.2-1.5,0.5c-0.4,0.3-0.6,0.5-0.7,0.8
										l-0.1,0.5c0,0,0,0-0.1,0c0,0,0,0-0.1-0.2c-1-1-2.1-1.6-3.1-1.6c-0.9,0-1.8,0.3-2.5,1.1C-772.7,367.8-773,369.1-773,370.7z
										 M-765,375.4c0,0.2,0,0.3-0.1,0.6c-0.1,0.3-0.3,0.6-0.6,1c-0.3,0.3-0.7,0.5-1.2,0.5c-0.6,0-1.2-0.3-1.8-0.8
										c-0.6-0.6-1-1.3-1.3-2.3c-0.4-1.5-0.9-2.9-1-4.5c0,0,0-0.2,0-0.3s0-0.3,0-0.3c0-0.8,0.1-1.5,0.4-1.8c0.3-0.3,0.7-0.5,1-0.5
										c0.6,0,1.3,0.3,1.9,1c0.6,0.6,1,1.1,1.2,1.5c0,0,0.3,1.1,0.7,2.9S-765,375.2-765,375.4z"/>
								</g>
								<g transform="scale(0.707)" class="st27">
									<path id="MJMATHI-6E_2_" class="st32" d="M-759.9,374.2c0,0.2,0,0.3,0.1,0.5c0,0.2,0.1,0.5,0.3,1c0.1,0.5,0.3,1,0.4,1.3
										s0.4,0.6,0.9,1c0.4,0.3,0.7,0.5,1.2,0.5c0.6,0,1.2-0.2,1.5-0.5c0.4-0.3,0.6-0.6,0.7-1c0.1-0.3,0.1-0.5,0.1-0.6l0,0l0.3,0.3
										c1,1.1,2.2,1.8,3.6,1.8c0.9,0,1.6-0.3,2.2-0.8c0.6-0.5,0.9-1.3,0.9-2.3s-0.3-2.4-1-4.4c-0.7-1.9-1-3.1-1-3.5
										c0-0.5,0.1-0.6,0.4-0.6c0.1,0,0.1,0,0.3,0c0.4,0.2,0.9,0.5,1.3,1c0.4,0.6,0.7,1.3,0.9,2.3c0,0.2,0.1,0.2,0.4,0.2
										s0.4,0,0.4-0.2c0,0,0-0.2-0.1-0.5c-0.1-0.5-0.3-1.1-0.6-1.6c-0.3-0.5-0.6-1-1.2-1.6c-0.6-0.5-1.2-0.8-1.8-0.8
										c-0.7,0-1.3,0.3-1.8,0.8s-0.6,1-0.6,1.6c0,0.3,0.3,1.5,0.9,3.4c0.6,1.9,0.9,3.2,0.9,4.2c0,1.1-0.4,1.6-1.2,1.6h-0.1
										c-1.5,0-2.7-1-3.7-2.7l-0.1-0.3l-0.9-3.7c-0.6-2.4-0.9-3.7-1-3.9c-0.1-0.5-0.6-0.8-1-0.8c-0.1,0-0.4,0-0.6,0.2
										c-0.1,0.2-0.3,0.2-0.3,0.3s0,0.2,0,0.3c0,0.2,0.3,1.8,1,4.5c0.6,2.7,1,4.2,1,4.5c0,0.2,0,0.3,0,0.6c0,0.6-0.1,1.1-0.6,1.1
										c-0.6,0-1.2-1-1.6-2.7c-0.1-0.3-0.1-0.5-0.1-0.6c0-0.2-0.1-0.2-0.4-0.2h-0.3C-759.8,374.1-759.9,374.1-759.9,374.2z"/>
								</g>
							</g>
						</g>
					</g>
				</g>
			</g>
			<g>
				<g pointer-events="none" transform="translate(121.59083707151026,209.59083707151024)translate(-20.14892578125,0)">
					<g transform="matrix(1 0 0 -1 0 0)">
						<g>
							<path id="MJMATHI-3B8" class="st33" d="M-28.3,120.3c0,2.6,0.6,5.5,1.8,8.3c1.2,2.9,2.9,5.5,5.1,7.5c2.1,2.1,4.3,3.4,6.6,3.7
								c0,0,0.2,0,0.4,0c0.2,0,0.4,0,0.6,0c1.8-0.2,3.1-0.8,3.9-1.9c1.2-1.6,1.8-3.7,1.8-6.3c0-3.1-0.8-5.9-2.1-9.2
								c-1.4-3.1-3.3-5.6-5.5-7.5c-2.1-1.9-4.3-2.9-6.4-2.9h-0.4c-1.2,0-2.1,0.3-2.9,0.8c-0.8,0.5-1.4,1.1-1.8,2.1
								c-0.4,0.8-0.8,1.8-1,2.6C-28.3,118.5-28.3,119.3-28.3,120.3z M-11.9,134.6c0,2.6-0.8,4-2.5,4c-1.2,0-2.3-0.6-3.3-1.8
								c-1.2-1.1-2-2.4-2.7-4c-0.8-1.4-1.2-2.7-1.6-3.9c-0.4-1.1-0.6-1.8-0.6-1.9c1.6,0,3.1,0,4.7,0h4.7c0,0,0.2,0.5,0.4,1.3
								c0.2,0.8,0.4,1.9,0.8,3.1C-11.9,132.6-11.7,133.6-11.9,134.6z M-24.6,117.7c0-2.7,0.8-4.2,2.5-4.2c0.4,0,1,0.2,1.6,0.3
								c0.6,0.2,1.2,0.8,2,1.4c0.8,0.8,1.6,1.9,2.3,3.4c0.8,1.6,1.6,3.4,2.3,5.6l0.2,0.6h-9.2c0,0-0.2-0.6-0.4-1.4
								c-0.2-1-0.6-1.9-0.8-3.1C-24.6,119.5-24.6,118.5-24.6,117.7z"/>
						</g>
						<g transform="translate(469,-150)" class="st26">
							<g transform="scale(0.707)" class="st27">
								<path id="MJMATHI-6D_3_" class="st34" d="M-449.2,286.8c0,0.1,0,0.2,0.1,0.3c0,0.1,0.1,0.3,0.2,0.7c0.1,0.3,0.2,0.7,0.3,0.9
									c0.1,0.2,0.3,0.4,0.6,0.7c0.3,0.2,0.6,0.3,0.9,0.3s0.6-0.1,0.8-0.1c0.2-0.1,0.4-0.2,0.6-0.3c0.1-0.1,0.2-0.3,0.3-0.4
									c0.1-0.1,0.1-0.2,0.1-0.3v-0.1l0,0l0.2,0.2c0.8,0.8,1.7,1.2,2.7,1.2c0.2,0,0.4,0,0.6,0c0.2,0,0.3-0.1,0.4-0.1
									c0.1,0,0.2-0.1,0.3-0.2c0.1-0.1,0.2-0.1,0.3-0.2c0.1-0.1,0.1-0.2,0.2-0.2c0-0.1,0.1-0.1,0.1-0.2c0.1-0.1,0.1-0.1,0.1-0.2
									s0-0.1,0.1-0.2c0.1,0,0.1-0.1,0-0.1l0.1,0.2c0.8,1,1.8,1.4,2.9,1.4c0.7,0,1.2-0.2,1.7-0.6c0.4-0.3,0.7-0.9,0.7-1.5
									c0-0.7-0.2-1.7-0.8-3c-0.4-1.3-0.8-2.1-0.8-2.4c0-0.2,0-0.3,0.1-0.3c0-0.1,0.1-0.1,0.3-0.1c0.3,0,0.7,0.2,1,0.6
									s0.6,0.9,0.8,1.5c0,0.1,0.1,0.2,0.1,0.2s0.1,0,0.3,0c0.2,0,0.3,0,0.3-0.1c0,0,0-0.1-0.1-0.3c-0.1-0.3-0.2-0.8-0.4-1.1
									c-0.2-0.3-0.4-0.7-0.9-1.1c-0.4-0.4-0.9-0.6-1.3-0.6c-0.6,0-1,0.2-1.3,0.6c-0.2,0.3-0.4,0.7-0.4,1.1c0,0.2,0.2,1,0.7,2.3
									c0.4,1.3,0.7,2.2,0.7,2.9c0,0.8-0.3,1.1-0.9,1.1h-0.1c-1.1,0-2-0.7-2.8-1.9l-0.1-0.2l-0.7-2.5c-0.4-1.7-0.7-2.5-0.8-2.6
									c-0.1-0.3-0.4-0.6-0.8-0.6c-0.1,0-0.3,0-0.4,0.1s-0.2,0.1-0.2,0.2c0,0.1-0.1,0.1-0.1,0.2s0.2,1,0.7,2.6l0.7,2.8
									c0,0.2,0.1,0.4,0.1,0.7c0,0.8-0.3,1.1-0.9,1.1h-0.1c-1.1,0-2-0.7-2.8-1.9l-0.1-0.2l-0.7-2.5c-0.4-1.7-0.7-2.5-0.8-2.6
									c-0.1-0.3-0.4-0.6-0.8-0.6c-0.1,0-0.3,0-0.4,0.1c-0.1,0.1-0.2,0.1-0.2,0.2c0,0.1,0,0.1,0,0.2c0,0.1,0.2,1.2,0.8,3.1
									c0.4,2,0.8,3,0.8,3.1c0,0.2,0.1,0.3,0.1,0.6c0,0.4-0.1,0.7-0.4,0.7s-0.6-0.2-0.7-0.6c-0.2-0.3-0.3-0.8-0.4-1.1
									c-0.1-0.4-0.2-0.7-0.2-0.7s-0.1,0-0.3,0h-0.2C-449.2,286.7-449.2,286.7-449.2,286.8z"/>
							</g>
							<g transform="scale(0.707)" class="st27">
								<path id="MJMATHI-65_3_" class="st34" d="M-432,284.5c0,0.7,0.1,1.3,0.3,2s0.6,1.1,0.9,1.4c0.3,0.4,0.8,0.7,1.3,1
									c0.4,0.2,0.9,0.4,1.3,0.6c0.4,0.1,0.8,0.2,1.2,0.2h0.1c0.6,0,1.1-0.1,1.4-0.4c0.4-0.3,0.7-0.7,0.7-1.2
									c0-1.1-0.7-1.9-2.1-2.2c-0.7-0.1-1.4-0.2-2.6-0.2c-0.4,0-0.7,0-0.8,0c0,0,0-0.2-0.1-0.7c-0.1-0.4-0.1-0.8-0.1-1.1
									c0-0.6,0.1-1.1,0.4-1.4c0.3-0.3,0.7-0.6,1.2-0.6s1.1,0.1,1.8,0.3s1.2,0.7,1.8,1.2c0.1,0.1,0.2,0.2,0.2,0.2s0.1-0.1,0.2-0.2
									c0.1-0.1,0.2-0.2,0.2-0.2c0-0.1,0-0.1-0.2-0.3c-0.2-0.2-0.3-0.3-0.6-0.6s-0.6-0.4-0.9-0.6c-0.3-0.2-0.8-0.3-1.2-0.4
									c-0.4-0.1-1-0.2-1.4-0.2c-1,0-1.8,0.3-2.3,1C-431.8,282.8-432,283.6-432,284.5z M-425.7,288c-0.1,0.7-0.6,1-1.3,1
									c-0.4,0-0.8-0.1-1.1-0.2c-0.3-0.2-0.7-0.4-0.9-0.7c-0.2-0.2-0.4-0.6-0.6-0.8c-0.1-0.2-0.2-0.4-0.3-0.7s-0.1-0.3-0.1-0.3
									s0.1,0,0.3,0c1.4,0,2.4,0.1,3,0.4C-426,287-425.7,287.4-425.7,288z"/>
							</g>
							<g transform="scale(0.707)" class="st27">
								<path id="MJMATHI-61_3_" class="st34" d="M-423.3,284.2c0,1.3,0.4,2.4,1.4,3.6c1,1.2,2,1.8,3.2,1.8c0.7,0,1.2-0.3,1.7-0.9
									c0.2,0.3,0.4,0.6,0.9,0.6c0.1,0,0.3,0,0.4-0.1c0.1-0.1,0.2-0.2,0.2-0.3s-0.2-1.2-0.7-3c-0.4-1.9-0.7-2.9-0.8-3.1
									c0-0.3,0-0.6,0.1-0.7c0.1-0.1,0.2-0.1,0.4-0.2c0.1,0,0.2,0.1,0.3,0.2c0.2,0.2,0.6,0.9,0.8,1.8c0.1,0.2,0.1,0.3,0.2,0.4
									c0,0,0.1,0,0.2,0h0.1c0.2,0,0.3-0.1,0.3-0.2c0-0.1,0-0.2-0.1-0.6c-0.1-0.2-0.2-0.6-0.3-1c-0.2-0.4-0.4-0.8-0.6-1
									c-0.1-0.1-0.3-0.3-0.6-0.4c-0.1,0-0.2,0-0.4,0c-0.4,0-0.8,0.1-1.1,0.3c-0.3,0.2-0.4,0.3-0.6,0.6l-0.1,0.3c0,0,0,0-0.1,0
									c0,0,0,0-0.1-0.1c-0.8-0.7-1.6-1.1-2.3-1.1c-0.7,0-1.3,0.2-1.9,0.8S-423.3,283.1-423.3,284.2z M-417.2,287.5
									c0,0.1,0,0.2-0.1,0.4c-0.1,0.2-0.2,0.4-0.4,0.7c-0.2,0.2-0.6,0.3-0.9,0.3c-0.4,0-0.9-0.2-1.3-0.6c-0.4-0.4-0.8-0.9-1-1.5
									c-0.3-1-0.7-2-0.8-3.1c0,0,0-0.1,0-0.2c0-0.1,0-0.2,0-0.2c0-0.6,0.1-1,0.3-1.2c0.2-0.2,0.6-0.3,0.8-0.3c0.4,0,1,0.2,1.4,0.7
									c0.4,0.4,0.8,0.8,0.9,1c0,0,0.2,0.8,0.6,2C-417.4,286.7-417.2,287.4-417.2,287.5z"/>
							</g>
							<g transform="scale(0.707)" class="st27">
								<path id="MJMATHI-6E_3_" class="st34" d="M-413.4,286.8c0,0.1,0,0.2,0.1,0.3c0,0.1,0.1,0.3,0.2,0.7c0.1,0.3,0.2,0.7,0.3,0.9
									c0.1,0.2,0.3,0.4,0.7,0.7c0.3,0.2,0.6,0.3,0.9,0.3c0.4,0,0.9-0.1,1.1-0.3c0.3-0.2,0.4-0.4,0.6-0.7c0.1-0.2,0.1-0.3,0.1-0.4
									l0,0l0.2,0.2c0.8,0.8,1.7,1.2,2.7,1.2c0.7,0,1.2-0.2,1.7-0.6c0.4-0.3,0.7-0.9,0.7-1.5c0-0.7-0.2-1.7-0.8-3
									c-0.4-1.3-0.8-2.1-0.8-2.4s0.1-0.4,0.3-0.4c0.1,0,0.1,0,0.2,0c0.3,0.1,0.7,0.3,1,0.7c0.3,0.4,0.6,0.9,0.7,1.5
									c0,0.1,0.1,0.1,0.3,0.1c0.2,0,0.3,0,0.3-0.1c0,0,0-0.1-0.1-0.3c-0.1-0.3-0.2-0.8-0.4-1.1c-0.2-0.3-0.4-0.7-0.9-1.1
									c-0.4-0.4-0.9-0.6-1.3-0.6c-0.6,0-1,0.2-1.3,0.6c-0.3,0.3-0.4,0.7-0.4,1.1c0,0.2,0.2,1,0.7,2.3c0.4,1.3,0.7,2.2,0.7,2.9
									c0,0.8-0.3,1.1-0.9,1.1h-0.1c-1.1,0-2-0.7-2.8-1.9l-0.1-0.2l-0.7-2.5c-0.4-1.7-0.7-2.5-0.8-2.6c-0.1-0.3-0.4-0.6-0.8-0.6
									c-0.1,0-0.3,0-0.4,0.1c-0.1,0.1-0.2,0.1-0.2,0.2c0,0.1,0,0.1,0,0.2c0,0.1,0.2,1.2,0.8,3.1c0.4,1.9,0.8,2.9,0.8,3.1
									c0,0.1,0,0.2,0,0.4c0,0.4-0.1,0.8-0.4,0.8c-0.4,0-0.9-0.7-1.2-1.9c-0.1-0.2-0.1-0.3-0.1-0.4c0-0.1-0.1-0.1-0.3-0.1h-0.2
									C-413.4,286.7-413.4,286.7-413.4,286.8z"/>
							</g>
						</g>
					</g>
				</g>
			</g>
			<g>
				<g pointer-events="none" transform="translate(80,310)translate(-24.5439453125,0)">
					<g transform="matrix(1 0 0 -1 0 0)">
						<g>
							<path id="MJMAIN-7C_4_" class="st35" d="M-83.1,6.2L-83.1,6.2c-0.3,0-0.6,0.2-0.7,0.5v17.8v17.8c0.3,0.3,0.6,0.5,0.7,0.5
								c0.3,0,0.6-0.2,0.7-0.6V6.6C-82.5,6.3-82.8,6.2-83.1,6.2L-83.1,6.2z"/>
						</g>
						<g>
							<path id="MJMATHI-3B8_1_" class="st35" d="M-77.5,20c0,2.6,0.6,5.6,1.7,8.6c1.2,3,2.9,5.6,5,7.8c2.1,2.1,4.2,3.5,6.5,3.8
								c0,0,0.2,0,0.4,0c0.2,0,0.4,0,0.6,0c1.7-0.2,3.1-0.8,3.8-2c1.2-1.7,1.7-3.8,1.7-6.4c0-3.1-0.8-6.1-2.1-9.4
								c-1.3-3.3-3.3-5.8-5.4-7.8c-2.1-2-4.2-3-6.3-3h-0.4c-1.2,0-2.1,0.3-2.9,0.8c-0.8,0.5-1.3,1.2-1.7,2.1c-0.4,0.8-0.8,1.8-1,2.6
								C-77.5,18-77.5,19-77.5,20z M-61.4,34.5c0,2.6-0.8,4.1-2.5,4.1c-1.2,0-2.3-0.7-3.3-1.8c-1.2-1.2-1.9-2.5-2.7-4.1
								c-0.8-1.7-1.2-2.8-1.5-4s-0.6-1.8-0.6-2c1.5,0,3.1,0,4.6,0h4.6c0,0,0.2,0.5,0.4,1.3c0.2,0.8,0.4,2,0.8,3.1
								C-61.4,32.5-61.4,33.7-61.4,34.5z M-74.1,17.2c0-2.8,0.8-4.3,2.5-4.3c0.4,0,1,0.2,1.5,0.3c0.6,0.3,1.2,0.8,1.9,1.5
								c0.8,0.8,1.5,2,2.3,3.5c0.8,1.7,1.5,3.5,2.3,5.8l0.2,0.7h-9c0,0-0.2-0.7-0.4-1.5c-0.2-1-0.6-2-0.8-3.1S-74.1,18.2-74.1,17.2z
								"/>
						</g>
						<g transform="translate(748,0)">
							<g>
								<path id="MJMAIN-7C_5_" class="st35" d="M-801.7,6.2L-801.7,6.2c-0.3,0-0.6,0.2-0.7,0.5v17.8v17.8c0.3,0.3,0.4,0.5,0.7,0.5
									c0.3,0,0.6-0.2,0.7-0.6V6.6C-801.1,6.3-801.4,6.2-801.7,6.2L-801.7,6.2z"/>
							</g>
							<g transform="translate(278,-286)" class="st26">
								<g transform="scale(0.707)" class="st27">
									<path id="MJMATHI-6D_4_" class="st36" d="M-871.5,256.2c0,0.2,0,0.3,0.1,0.5c0,0.2,0.1,0.5,0.3,0.9
										c0.1,0.5,0.3,0.9,0.4,1.2c0.1,0.3,0.4,0.6,0.7,0.9c0.4,0.3,0.7,0.5,1.2,0.5s0.7-0.2,1-0.2c0.3,0,0.6-0.3,0.7-0.5
										c0.1-0.2,0.3-0.5,0.4-0.6c0.1-0.2,0.1-0.3,0.1-0.5v-0.2l0,0l0.3,0.3c1,1.1,2.2,1.7,3.5,1.7c0.3,0,0.6,0,0.7,0
										c0.3,0,0.4-0.2,0.6-0.2c0.1-0.2,0.3-0.2,0.4-0.3c0.1-0.2,0.3-0.2,0.4-0.3c0.1-0.2,0.1-0.3,0.3-0.3c0-0.2,0.1-0.2,0.1-0.3
										c0-0.2,0.1-0.2,0.1-0.3c0-0.2,0-0.2,0.1-0.3c0.1,0,0.1-0.2,0-0.2l0.1,0.3c1,1.4,2.3,2,3.8,2c0.9,0,1.6-0.3,2.2-0.8
										c0.6-0.5,0.9-1.2,0.9-2.1c0-0.9-0.3-2.3-1-4.1c-0.6-1.8-1-2.9-1-3.3c0-0.3,0-0.5,0.1-0.5s0.1-0.2,0.4-0.2
										c0.4,0,0.9,0.3,1.3,0.8s0.7,1.2,1,2.1c0,0.2,0.1,0.3,0.1,0.3s0.1,0,0.4,0c0.3,0,0.4,0,0.4-0.2c0,0,0-0.2-0.1-0.5
										c-0.1-0.5-0.3-1.1-0.6-1.5s-0.6-0.9-1.2-1.5c-0.6-0.5-1.2-0.8-1.7-0.8c-0.7,0-1.3,0.3-1.7,0.8c-0.3,0.5-0.6,0.9-0.6,1.5
										c0,0.3,0.3,1.4,0.9,3.2s0.9,3,0.9,3.9c0,1.1-0.4,1.5-1.2,1.5h-0.1c-1.5,0-2.6-0.9-3.6-2.6l-0.1-0.3l-0.9-3.5
										c-0.6-2.3-0.9-3.5-1-3.6c-0.1-0.5-0.6-0.8-1-0.8c-0.1,0-0.4,0-0.6,0.2c-0.1,0.2-0.3,0.2-0.3,0.3s-0.1,0.2-0.1,0.3
										s0.3,1.4,0.9,3.6l0.9,3.8c0,0.3,0.1,0.6,0.1,0.9c0,1.1-0.4,1.5-1.2,1.5h-0.1c-1.5,0-2.6-0.9-3.6-2.6l-0.1-0.3l-0.9-3.5
										c-0.6-2.3-0.9-3.5-1-3.6c-0.1-0.5-0.6-0.8-1-0.8c-0.1,0-0.4,0-0.6,0.2s-0.3,0.2-0.3,0.3s0,0.2,0,0.3s0.3,1.7,1,4.2
										c0.6,2.7,1,4.1,1,4.2c0,0.3,0.1,0.5,0.1,0.8c0,0.6-0.1,0.9-0.6,0.9c-0.4,0-0.7-0.3-0.9-0.8c-0.3-0.5-0.4-1.1-0.6-1.5
										c-0.1-0.6-0.3-0.9-0.3-0.9s-0.1,0-0.4,0h-0.3C-871.4,256.1-871.5,256.2-871.5,256.2z"/>
								</g>
								<g transform="scale(0.707)" class="st27">
									<path id="MJMATHI-65_4_" class="st36" d="M-849.1,253.2c0,0.9,0.1,1.8,0.4,2.7c0.3,0.8,0.7,1.5,1.2,2s1,0.9,1.7,1.4
										c0.7,0.5,1.2,0.6,1.7,0.8c0.6,0.2,1,0.3,1.6,0.3h0.1c0.7,0,1.5-0.2,1.9-0.6c0.6-0.5,0.9-0.9,0.9-1.7c0-1.5-0.9-2.6-2.8-3
										c-0.9-0.2-1.9-0.3-3.3-0.3c-0.6,0-0.9,0-1,0c0,0,0-0.3-0.1-0.9s-0.1-1.1-0.1-1.5c0-0.8,0.1-1.5,0.6-2
										c0.3-0.5,0.9-0.8,1.6-0.8c0.7,0,1.5,0.2,2.3,0.5c0.9,0.3,1.6,0.9,2.3,1.7c0.1,0.2,0.3,0.3,0.3,0.3s0.1-0.2,0.3-0.3
										s0.3-0.3,0.3-0.3c0-0.2,0-0.2-0.3-0.5c-0.1-0.2-0.4-0.5-0.7-0.8s-0.7-0.6-1.2-0.8c-0.4-0.2-1-0.5-1.6-0.6
										c-0.6-0.2-1.3-0.3-1.9-0.3c-1.3,0-2.3,0.5-3.1,1.4C-848.7,250.8-849.1,252-849.1,253.2z M-840.7,258
										c-0.1,0.9-0.7,1.4-1.7,1.4c-0.6,0-1-0.2-1.5-0.3c-0.4-0.3-0.9-0.6-1.2-0.9c-0.3-0.3-0.6-0.8-0.7-1.1s-0.3-0.6-0.4-0.9
										c0-0.3-0.1-0.5-0.1-0.5s0.1,0,0.4,0c1.9,0,3.2,0.2,3.9,0.6C-841.1,256.5-840.7,257.1-840.7,258z"/>
								</g>
								<g transform="scale(0.707)" class="st27">
									<path id="MJMATHI-61_4_" class="st36" d="M-837.5,252.9c0,1.8,0.6,3.3,1.9,5c1.3,1.5,2.6,2.4,4.2,2.4
										c0.9,0,1.6-0.5,2.2-1.2c0.3,0.5,0.6,0.8,1.2,0.8c0.1,0,0.4,0,0.6-0.2c0.1-0.2,0.3-0.3,0.3-0.5c0-0.2-0.3-1.7-0.9-4.1
										c-0.6-2.4-0.9-3.9-1-4.2c0-0.5,0-0.8,0.1-0.9s0.3-0.2,0.6-0.3c0.1,0,0.3,0.2,0.4,0.3c0.3,0.3,0.7,1.2,1,2.4
										c0.1,0.3,0.1,0.5,0.3,0.6c0,0,0.1,0,0.3,0h0.1c0.3,0,0.4-0.2,0.4-0.3s0-0.3-0.1-0.8c-0.1-0.5-0.3-0.8-0.4-1.4
										c-0.3-0.6-0.6-1.1-0.7-1.4c-0.1-0.2-0.4-0.5-0.7-0.6c-0.1,0-0.3,0-0.6,0c-0.6,0-1,0.2-1.5,0.5s-0.6,0.5-0.7,0.8l-0.1,0.5
										c0,0,0,0-0.1,0c0,0,0,0-0.1-0.2c-1-0.9-2-1.5-3.1-1.5c-0.9,0-1.7,0.3-2.5,1.1C-837.2,250.3-837.5,251.4-837.5,252.9z
										 M-829.7,257.3c0,0.2,0,0.3-0.1,0.6c-0.1,0.3-0.3,0.6-0.6,0.9s-0.7,0.5-1.2,0.5c-0.6,0-1.2-0.3-1.7-0.8
										c-0.6-0.6-1-1.2-1.3-2.1c-0.4-1.4-0.9-2.7-1-4.2c0,0,0-0.2,0-0.3c0-0.2,0-0.3,0-0.3c0-0.8,0.1-1.4,0.4-1.7s0.7-0.5,1-0.5
										c0.6,0,1.3,0.3,1.9,0.9c0.6,0.6,1,1.1,1.2,1.4c0,0,0.3,1.1,0.7,2.7C-829.8,256.2-829.7,257.1-829.7,257.3z"/>
								</g>
								<g transform="scale(0.707)" class="st27">
									<path id="MJMATHI-6E_4_" class="st36" d="M-824.7,256.2c0,0.2,0,0.3,0.1,0.5c0,0.2,0.1,0.5,0.3,0.9
										c0.1,0.5,0.3,0.9,0.4,1.2c0.1,0.3,0.4,0.6,0.9,0.9c0.4,0.3,0.7,0.5,1.2,0.5c0.6,0,1.2-0.2,1.5-0.5c0.4-0.3,0.6-0.6,0.7-0.9
										s0.1-0.5,0.1-0.6l0,0l0.3,0.3c1,1.1,2.2,1.7,3.5,1.7c0.9,0,1.6-0.3,2.2-0.8s0.9-1.2,0.9-2.1s-0.3-2.3-1-4.1
										c-0.6-1.8-1-2.9-1-3.3c0-0.5,0.1-0.6,0.4-0.6c0.1,0,0.1,0,0.3,0c0.4,0.2,0.9,0.5,1.3,0.9c0.4,0.6,0.7,1.2,0.9,2.1
										c0,0.2,0.1,0.2,0.4,0.2c0.3,0,0.4,0,0.4-0.2c0,0,0-0.2-0.1-0.5c-0.1-0.5-0.3-1.1-0.6-1.5s-0.6-0.9-1.2-1.5
										c-0.6-0.5-1.2-0.8-1.7-0.8c-0.7,0-1.3,0.3-1.7,0.8c-0.3,0.5-0.6,0.9-0.6,1.5c0,0.3,0.3,1.4,0.9,3.2c0.6,1.8,0.9,3,0.9,3.9
										c0,1.1-0.4,1.5-1.2,1.5h-0.1c-1.5,0-2.6-0.9-3.6-2.6l-0.1-0.3l-0.9-3.5c-0.6-2.3-0.9-3.5-1-3.6c-0.1-0.5-0.6-0.8-1-0.8
										c-0.1,0-0.4,0-0.6,0.2s-0.3,0.2-0.3,0.3s0,0.2,0,0.3s0.3,1.7,1,4.2c0.6,2.6,1,3.9,1,4.2c0,0.2,0,0.3,0,0.6
										c0,0.6-0.1,1.1-0.6,1.1c-0.6,0-1.2-0.9-1.6-2.6c-0.1-0.3-0.1-0.5-0.1-0.6c0-0.2-0.1-0.2-0.4-0.2h-0.3
										C-824.6,256.1-824.7,256.2-824.7,256.2z"/>
								</g>
							</g>
						</g>
					</g>
				</g>
			</g>
			<g>
				<g pointer-events="none" transform="translate(121.59083707151022,410.40916292848976)translate(-26.13232421875,0)">
					<g transform="matrix(1 0 0 -1 0 0)">
						<g>
							<path id="MJMAIN-7C_6_" class="st37" d="M-27.5-113.4L-27.5-113.4c-0.3,0-0.6,0.2-0.7,0.5v18.7v18.7c0.3,0.3,0.4,0.5,0.7,0.5
								s0.6-0.2,0.7-0.6v-37.3C-27.1-113.1-27.2-113.4-27.5-113.4L-27.5-113.4z"/>
						</g>
						<g>
							<path id="MJMATHI-3B1" class="st37" d="M-21.7-97.8c0,2.9,1,5.6,2.9,7.6c1.9,2.1,4,3.3,6.3,3.3c1.5,0,2.8-0.5,3.7-1.6
								c1-1,1.5-2.2,1.9-3.8c0.1-0.8,0.3-1.6,0.3-2.5v-1.1c1.1,1.9,1.9,4,2.5,6.4C-4-89.2-4-88.9-4-88.9s0.3,0.2,0.6,0.2
								c0.4,0,0.7-0.2,0.7-0.3c0-0.2-0.1-0.8-0.3-1.4c-0.1-0.8-0.6-1.9-1.2-3.3c-0.6-1.4-1.2-2.7-2.1-3.8l-0.4-0.5v-1
								c0-1.4,0.1-2.4,0.3-2.9c0.1-0.5,0.4-0.8,0.7-0.8c0.3,0,0.6,0.2,0.8,0.5c0.3,0.2,0.4,0.5,0.6,1c0,0.2,0.1,0.3,0.1,0.3
								s0.3,0,0.6,0c0.4,0,0.7-0.2,0.7-0.3c0-0.2,0-0.3-0.1-0.8c-0.3-0.6-0.7-1.1-1.2-1.4c-0.6-0.3-1-0.5-1.5-0.6h-0.3
								c-1.5,0-2.5,1-3,2.7l-0.1,0.3l-0.4-0.3c-0.3-0.2-0.6-0.5-1-0.8c-0.4-0.3-1-0.6-1.5-1c-0.6-0.3-1.2-0.5-1.9-0.8
								c-0.7-0.2-1.5-0.3-2.2-0.3c-1.8,0-3.2,0.6-4.1,1.9C-21.2-101-21.7-99.4-21.7-97.8z M-15.9-102.7c1.1,0,2.2,0.3,3.3,0.8
								c1.1,0.5,1.9,1.1,2.5,1.6l0.8,0.8c0,3.7-0.1,5.9-0.3,6.8c-0.3,3-1.4,4.4-3,4.4c-1.5,0-2.9-1-4-2.9c-0.6-1-1.1-2.4-1.5-4.1
								s-0.6-3-0.6-4c0-1.3,0.3-2.2,0.8-2.7C-17.5-102.4-16.8-102.7-15.9-102.7z"/>
						</g>
						<g transform="translate(919,0)">
							<g>
								<path id="MJMAIN-7C_7_" class="st37" d="M-915.8-113.4L-915.8-113.4c-0.3,0-0.6,0.2-0.7,0.5v18.7v18.7
									c0.3,0.3,0.4,0.5,0.7,0.5c0.3,0,0.6-0.2,0.7-0.6v-37.3C-915.3-113.1-915.5-113.4-915.8-113.4L-915.8-113.4z"/>
							</g>
							<g transform="translate(278,-286)" class="st26">
								<g transform="scale(0.707)" class="st27">
									<path id="MJMATHI-6D_5_" class="st38" d="M-932.1,189.9c0,0.2,0,0.2,0,0.5c0,0.2,0.1,0.5,0.3,1s0.3,0.8,0.4,1.3
										c0.1,0.5,0.4,0.6,0.7,1c0.3,0.3,0.7,0.5,1,0.5s0.7,0,1-0.2c0.3-0.2,0.6-0.3,0.7-0.5c0.1-0.2,0.3-0.3,0.4-0.6
										c0.1-0.2,0.1-0.3,0.1-0.5v-0.2l0,0l0.3,0.3c1,1.1,1.9,1.6,3.2,1.6c0.3,0,0.6,0,0.7,0c0.3,0,0.4-0.2,0.6-0.2
										c0.1,0,0.3-0.2,0.4-0.3c0.1-0.2,0.3-0.2,0.3-0.3c0.1-0.2,0.1-0.2,0.3-0.3c0-0.2,0.1-0.2,0.1-0.3c0.1-0.2,0.1-0.2,0.1-0.3
										c0-0.2,0-0.2,0-0.2c0.1,0,0.1-0.2,0-0.2l0.1,0.3c1,1.3,2.1,1.9,3.3,1.9c0.8,0,1.5-0.2,1.9-0.6c0.6-0.5,0.7-1.1,0.8-2.1
										c0-0.8-0.3-2.2-0.8-4c-0.6-1.7-0.8-2.9-0.8-3.2c0-0.2,0-0.5,0.1-0.5c0-0.2,0.1-0.2,0.3-0.2c0.4,0,0.8,0.3,1.1,0.8
										c0.4,0.5,0.7,1.3,0.8,2.1c0,0.2,0.1,0.3,0.1,0.3s0.1,0,0.4,0c0.3,0,0.4,0,0.4-0.2c0,0,0-0.2-0.1-0.3
										c-0.1-0.5-0.3-1-0.6-1.4c-0.3-0.5-0.6-1-1.1-1.4c-0.4-0.5-1-0.6-1.5-0.6c-0.7,0-1.2,0.2-1.5,0.6c-0.3,0.5-0.4,1-0.4,1.4
										c0,0.3,0.3,1.3,0.8,3c0.6,1.7,0.8,3,0.8,3.8c0,1-0.3,1.4-1,1.4h-0.1c-1.2,0-2.3-0.8-3.3-2.5l-0.1-0.3l-0.7-3.3
										c-0.6-2.2-0.8-3.3-0.8-3.7c-0.1-0.5-0.6-0.6-1-0.6c-0.1,0-0.4,0-0.4,0.2s-0.1,0.2-0.3,0.3c-0.1,0.2,0,0.2,0,0.3
										c0,0.2,0.3,1.4,0.8,3.7l0.8,3.7c0,0.3,0,0.6,0,1c0,1-0.3,1.4-1,1.4h-0.1c-1.2,0-2.3-0.8-3.3-2.5l-0.1-0.3l-0.7-3.3
										c-0.6-2.2-0.8-3.3-0.8-3.7c-0.1-0.5-0.6-0.6-1-0.6c-0.1,0-0.4,0-0.4,0.2c-0.1,0.2-0.1,0.2-0.3,0.3c0,0.2,0,0.2,0,0.3
										c0,0.2,0.3,1.6,0.8,4.1c0.6,2.5,0.8,4,0.8,4.1c0,0.3,0,0.5,0,0.6c0,0.6-0.1,1-0.6,1c-0.3,0-0.6-0.2-0.8-0.6
										c-0.3-0.5-0.4-1-0.6-1.6c-0.1-0.6-0.3-0.8-0.3-1c0,0-0.1,0-0.4,0h-0.3C-931.9,189.7-932.1,189.9-932.1,189.9z"/>
								</g>
								<g transform="scale(0.707)" class="st27">
									<path id="MJMATHI-65_5_" class="st38" d="M-911.8,186.9c0,1,0.1,1.9,0.4,2.7s0.7,1.4,1.1,1.9s1,1,1.5,1.3
										c0.6,0.3,1.1,0.6,1.5,0.8c0.6,0.2,1,0.3,1.4,0.2l0,0c0.7,0,1.2-0.2,1.8-0.6c0.6-0.3,0.7-1,0.7-1.6c0-1.6-0.8-2.5-2.5-3
										c-0.7-0.2-1.8-0.3-3-0.3c-0.6,0-0.8,0-0.8,0s0-0.3-0.1-1s-0.1-1.1-0.1-1.4c0-0.8,0.1-1.4,0.4-1.9s0.8-0.6,1.4-0.6
										c0.7,0,1.4,0.2,2.1,0.5c0.7,0.3,1.5,1,2.1,1.7c0.1,0.2,0.3,0.3,0.3,0.3s0.1,0,0.3-0.2c0.1-0.2,0.3-0.3,0.3-0.3
										s0-0.2-0.1-0.5c-0.1-0.2-0.4-0.5-0.7-0.6c-0.3-0.3-0.7-0.5-1.1-0.8c-0.4-0.3-0.8-0.5-1.4-0.6c-0.6-0.2-1.1-0.3-1.7-0.3
										c-1.2,0-2.1,0.5-2.8,1.3C-911.6,184.6-911.8,185.6-911.8,186.9z M-904.4,191.6c-0.1,1-0.6,1.3-1.5,1.3
										c-0.6,0-1-0.2-1.4-0.3c-0.4-0.2-0.7-0.5-1-0.8s-0.4-0.6-0.7-1.1c-0.1-0.3-0.3-0.6-0.4-1c0-0.3-0.1-0.5-0.1-0.5s0.1,0,0.4,0
										c1.7,0,2.9,0.2,3.6,0.6C-904.8,190.2-904.4,190.8-904.4,191.6z"/>
								</g>
								<g transform="scale(0.707)" class="st27">
									<path id="MJMATHI-61_5_" class="st38" d="M-901.5,186.5c0,1.7,0.6,3.3,1.7,4.9c1.1,1.6,2.5,2.4,3.9,2.4
										c0.8,0,1.4-0.5,2.1-1.3c0.3,0.5,0.6,0.8,1.1,0.8c0.1,0,0.4,0,0.6-0.2c0.1-0.2,0.3-0.3,0.3-0.5c0-0.2-0.3-1.6-0.8-4.1
										c-0.6-2.5-0.8-4-0.8-4.3c0-0.5,0-0.6,0.1-0.8c0.1-0.2,0.3-0.2,0.4-0.2c0.1,0,0.3,0.2,0.4,0.2c0.3,0.3,0.7,1.1,1,2.4
										c0.1,0.3,0.1,0.5,0.3,0.5c0,0,0.1,0,0.3,0h0.1c0.3,0,0.4,0,0.4-0.2c0-0.2,0-0.3-0.1-0.6s-0.3-0.8-0.4-1.4
										c-0.3-0.6-0.4-1-0.7-1.3c-0.1-0.2-0.4-0.5-0.7-0.5c-0.1,0-0.3,0-0.6,0c-0.6,0-1,0.2-1.2,0.3c-0.4,0.3-0.6,0.5-0.7,0.8
										l-0.1,0.3c0,0,0,0-0.1,0c0,0,0,0-0.1-0.2c-0.8-1-1.8-1.4-2.8-1.4c-0.8,0-1.5,0.3-2.2,1C-901.2,184-901.5,185.1-901.5,186.5
										z M-894.4,191c0,0.2,0,0.3-0.1,0.6s-0.3,0.6-0.6,1c-0.3,0.3-0.6,0.5-1.1,0.5c-0.6,0-1-0.3-1.5-0.8
										c-0.4-0.5-0.8-1.3-1.1-2.1c-0.4-1.3-0.7-2.7-1-4.1c0,0,0-0.2,0-0.3s0-0.2,0-0.3c0-0.8,0.1-1.3,0.4-1.6
										c0.3-0.3,0.6-0.5,1-0.5c0.6,0,1.1,0.3,1.7,0.8c0.6,0.6,0.8,1,1,1.3c0,0,0.3,1,0.6,2.7C-894.6,189.9-894.4,190.8-894.4,191z
										"/>
								</g>
								<g transform="scale(0.707)" class="st27">
									<path id="MJMATHI-6E_5_" class="st38" d="M-889.9,189.9c0,0.2,0,0.2,0,0.5c0,0.2,0.1,0.5,0.3,1c0.1,0.5,0.3,0.8,0.4,1.3
										c0.1,0.5,0.4,0.6,0.7,1c0.4,0.3,0.7,0.5,1.1,0.5c0.6,0,1-0.2,1.4-0.5s0.6-0.6,0.7-0.8c0.1-0.3,0.1-0.5,0.1-0.5l0,0l0.3,0.3
										c1,1.1,1.9,1.6,3.2,1.6c0.8,0,1.5-0.2,1.9-0.6c0.6-0.5,0.7-1.1,0.8-2.1c0.1-1-0.3-2.2-0.8-4s-0.8-2.9-0.8-3.2
										c0-0.5,0.1-0.6,0.4-0.6c0.1,0,0.1,0,0.1,0c0.4,0.2,0.8,0.5,1.1,1c0.4,0.6,0.6,1.3,0.8,2.1c0,0.2,0.1,0.2,0.4,0.2
										c0.3,0,0.4,0,0.4-0.2c0,0,0-0.2-0.1-0.3c-0.1-0.5-0.3-1-0.6-1.4c-0.3-0.5-0.6-1-1.1-1.4c-0.4-0.5-1-0.6-1.5-0.6
										c-0.7,0-1.2,0.2-1.5,0.6c-0.3,0.5-0.4,1-0.4,1.4c0,0.3,0.3,1.3,0.8,3s0.8,3,0.8,3.8c0,1-0.3,1.4-1,1.4h-0.1
										c-1.2,0-2.3-0.8-3.3-2.5l-0.1-0.3l-0.7-3.3c-0.6-2.2-0.8-3.3-0.8-3.7c-0.1-0.5-0.6-0.6-1-0.6c-0.1,0-0.4,0-0.4,0.2
										c-0.1,0.2-0.1,0.2-0.3,0.3c0,0.2,0,0.2,0,0.3c0,0.2,0.3,1.6,0.8,4.1c0.6,2.5,0.8,4,1,4.1c0,0.2,0,0.3,0,0.6
										c0,0.6-0.1,1-0.6,1c-0.6,0-1.1-0.8-1.4-2.5c-0.1-0.3-0.1-0.5-0.1-0.5c0-0.2-0.1-0.2-0.4-0.2h-0.3
										C-889.9,189.7-889.9,189.9-889.9,189.9z"/>
								</g>
							</g>
						</g>
					</g>
				</g>
			</g>
			<g>
				<g pointer-events="none" transform="translate(221.99999999999997,452)">
					<g transform="matrix(1 0 0 -1 0 0)">
						<g>
							<path id="MJMATHI-43" class="st39" d="M25-139.1c4.4,29.9,19.7,14.5,25.9,20.7c1.4,0.4-3.3-19.7-3.7-11.5
								c-11.5,40-32.2-50.8-1.5-8.8C50.1-150.7,23.8-158.6,25-139.1z"/>
						</g>
						<g>
							<path id="MJMATHI-4E" class="st39" d="M59.9-121.4c-1.6-0.5-2,1-1.1,2.1c10.7,4.9,14.9-26.4,15.2-23.3
								c-0.1,5.5,7.5,22.3,1.5,21.2c-4,3.2,6.9,2.6,8.2,1.9c-7.2-0.2-6.7-27.9-11.3-30.6c-0.1,0.2-7.8,22.6-9.4,27.2
								c0.1-6.3-9-27-2-25.4c1.2-4.2-5.6-1.6-7.8-2.3c-4.2,1.3,3.2,2.1,3.2,3.6C55.5-147,64.3-121.4,59.9-121.4z"/>
						</g>
						<g transform="translate(1649,0)">
							<g>
								<path id="MJMATHI-56" class="st39" d="M-1562.9-121c0,2.7,11.2,1.7,10.5,0.4c-5-2.6-3.1-0.8-2.3-13.2
									c1.6-12.5-0.2-13.8,3.8-6.2c2,6.3,11.5,16.1,5.9,19.5c0.8,2.2,6.6,0.3,8.2,0.9c-5.9-3.9-16.3-33.2-20.1-31.7
									C-1558-149.3-1557.4-117.1-1562.9-121z"/>
							</g>
							<g transform="translate(583,-150)" class="st26">
								<g transform="scale(0.707)" class="st27">
									<path id="MJMATHI-6D_6_" class="st40" d="M-2056,24.7c1.3,5.2,3.1,1,6.9,3c1,0.1,1.7-0.7,2.1-1.4c0.3,0.6,2,1.8,3.2,1.5
										c5.3,0.7-2.8-13.1,2.7-5.8c2.7-0.2-3.8-5.7-3.8-1.3c1.9,3.6,1.3,9.4-2.6,4.1c-1.3-7.6-4.1-6.3-1.6,0.4
										c-2.6,6.9-4.5-7.2-6.5-6c-1,0.7,2.8,7.8,0.9,7.8C-2055.3,26.6-2056,23.8-2056,24.7z"/>
								</g>
								<g transform="scale(0.707)" class="st27">
									<path id="MJMATHI-65_6_" class="st40" d="M-2038.9,22.5c-0.7,3.5,6,7.6,7.3,3.5c0.1-2.5-3.4-2.5-5.4-2.4
										c-1.5-3.8,2.7-4.9,5-2.2C-2030.1,19.3-2039.7,17.4-2038.9,22.5z M-2032.4,26c-0.9,2.4-4.1,0.1-4.3-1.7
										C-2034.8,24.5-2032.7,24.2-2032.4,26z"/>
								</g>
								<g transform="scale(0.707)" class="st27">
									<path id="MJMATHI-61_6_" class="st40" d="M-2030,22.3c-0.1,4.6,5.2,6.3,7.9,4.6c0.3-0.5-2.8-8.1-0.6-6.7
										c3.2,6.4,0.5-4.8-2.3,0.2C-2026.9,18.3-2030.2,19-2030,22.3z M-2024,25.5c-1.9,5.1-6.9-4.8-3.4-5.7
										C-2025,19.7-2024.4,23.8-2024,25.5z"/>
								</g>
								<g transform="scale(0.707)" class="st27">
									<path id="MJMATHI-6E_6_" class="st40" d="M-2020.2,24.7c0,2.2,3.2,4.3,4,1.4c1.5,2,5.5,1.9,5.2-0.9
										c-0.8-2.9-2.9-8.8,1.1-3.3c0.8-1.3-2.5-4.7-4-2.5c-0.5,2.5,3.1,11.3-2.8,5.4c-0.7-1.7-1.4-8-3-5.4
										C-2018.8,22.4-2017,29.8-2020.2,24.7z"/>
								</g>
							</g>
						</g>
					</g>
				</g>
			</g>
			<g>
				<g pointer-events="none" transform="translate(322.4091629284897,410.40916292848976)translate(27.4345703125,0)">
					<g transform="matrix(1 0 0 -1 0 0)">
						<g>
							<path id="MJMATHI-50" class="st41" d="M146.7-78.6c0,0.2-0.8,0.4-2.2,0.4c-0.6,0-0.9,0-1.2,0c-0.2,0-0.3,0.2-0.3,0.4
								c0,0,0,0.2,0,0.5c0.2,0.5,0.3,0.9,0.3,0.9s2.5,0,7.3,0c4.8,0,7.3,0,7.6-0.2c1.5-0.4,2.9-1.1,4-2.2c1.1-1.1,1.7-2.5,1.7-4.3
								c0-2.2-0.8-4.3-2.5-6.1c-1.7-2-4-3.2-6.6-3.8c-0.2,0-1.5,0-4,0h-3.6l-1.1-5.2c-0.8-3.4-1.1-5.2-1.1-5.4s0-0.2,0-0.2
								s0.2,0,0.3-0.2c0.2,0,0.3-0.2,0.6,0c0.3,0,0.6,0,1.2,0h1.2c0.2-0.2,0.2-0.4,0.2-0.5c0-0.5-0.2-0.9-0.3-1.3
								c-0.2-0.2-0.3-0.2-0.6-0.2c0,0-0.5,0-1.4,0c-0.9,0-2.2,0-3.7,0c-1.5,0-2.8,0-3.6,0c-0.8,0-1.2,0-1.4,0
								c-0.5,0-0.6,0.2-0.6,0.4c0,0,0,0.2,0.2,0.5c0.2,0.5,0.2,0.7,0.3,0.7c0.2,0,0.5,0.2,0.9,0.2c0.6,0,1.4,0,2.3,0.2
								c0.3,0,0.6,0.2,0.8,0.5c0,0.2,0.9,4.1,2.6,12C145.8-83.5,146.7-79.2,146.7-78.6z M160.2-81.9c0,0.4,0,0.7,0,0.9
								s-0.2,0.5-0.3,0.9c-0.2,0.4-0.5,0.7-0.9,0.9c-0.5,0.2-1.1,0.5-1.9,0.7c-0.2,0-1.2,0-2.9,0c-0.5,0-0.9,0-1.4,0
								c-0.5,0-0.8,0-1.1,0c-0.3,0-0.5,0-0.5,0c-0.3,0-0.6-0.2-0.6-0.4s-0.3-1.3-0.8-3.4c-0.5-2.2-0.9-4.1-1.4-5.9
								c-0.5-2-0.6-2.9-0.6-2.9s1.1,0,3.1,0h0.5h0.9c2.8,0,4.8,0.7,6,2.2c0.6,0.7,1.2,2,1.5,3.4C160-84,160.2-82.8,160.2-81.9z"/>
						</g>
						<g transform="translate(751,0)">
							<g>
								<path id="MJMAIN-31" class="st41" d="M-578.7-81l-0.5-0.2c-0.3-0.2-0.9-0.4-1.5-0.4s-1.4-0.2-2.2-0.4h-0.8v2h0.8
									c1.2,0,2.3,0.4,3.2,0.7c0.9,0.4,1.7,0.7,2.2,1.1c0.5,0.4,0.8,0.7,1.1,0.9c0,0,0.2,0.2,0.5,0.2c0.2,0,0.5,0,0.6-0.2v-12.9
									v-13.1c0.2-0.2,0.3-0.4,0.5-0.4s0.5-0.2,0.9-0.2s1.2,0,2.3,0h0.9v-2h-0.5c-0.5,0-2.5,0.2-6,0.2c-3.4,0-5.4,0-5.9-0.2h-0.5v2
									h0.9c0.6,0,1.1,0,1.4,0c0.3,0,0.8,0,0.9,0s0.5,0,0.6,0.2c0.2,0,0.3,0,0.3,0s0.2,0,0.2,0.2c0.2,0.2,0.2,0.2,0.2,0.2V-81
									H-578.7z"/>
							</g>
							<g transform="translate(500,-150)" class="st26">
								<g transform="scale(0.707)" class="st27">
									<path id="MJMATHI-6D_7_" class="st42" d="M-1036.5,50.9c0,0.1,0,0.2,0.1,0.3c0,0.1,0.1,0.3,0.2,0.7
										c0.1,0.3,0.2,0.7,0.3,0.9s0.3,0.4,0.6,0.7c0.3,0.2,0.6,0.3,0.9,0.3s0.6-0.1,0.8-0.1s0.4-0.2,0.6-0.3s0.2-0.3,0.3-0.4
										c0.1-0.1,0.1-0.2,0.1-0.3v-0.1l0,0l0.2,0.2c0.8,0.8,1.7,1.2,2.7,1.2c0.2,0,0.4,0,0.6,0c0.2,0,0.3-0.1,0.4-0.1
										c0.1,0,0.2-0.1,0.3-0.2c0.1-0.1,0.2-0.1,0.3-0.2c0.1-0.1,0.1-0.2,0.2-0.2c0-0.1,0.1-0.1,0.1-0.2c0.1-0.1,0.1-0.1,0.1-0.2
										s0-0.1,0.1-0.2c0.1,0,0.1-0.1,0-0.1l0.1,0.2c0.8,1,1.8,1.4,2.9,1.4c0.7,0,1.2-0.2,1.7-0.6c0.4-0.3,0.7-0.9,0.7-1.5
										c0-0.7-0.2-1.7-0.8-3c-0.6-1.3-0.8-2.1-0.8-2.4c0-0.2,0-0.3,0.1-0.3c0.1,0,0.1-0.1,0.3-0.1c0.3,0,0.7,0.2,1,0.6
										c0.3,0.3,0.6,0.9,0.8,1.5c0,0.1,0.1,0.2,0.1,0.2s0.1,0,0.3,0c0.2,0,0.3,0,0.3-0.1c0,0,0-0.1-0.1-0.3
										c-0.1-0.3-0.2-0.8-0.4-1.1c-0.2-0.3-0.4-0.7-0.9-1.1c-0.4-0.3-0.9-0.6-1.3-0.6c-0.6,0-1,0.2-1.3,0.6
										c-0.2,0.3-0.4,0.7-0.4,1.1c0,0.2,0.2,1,0.7,2.3c0.4,1.3,0.7,2.2,0.7,2.9c0,0.8-0.3,1.1-0.9,1.1h-0.1c-1.1,0-2-0.7-2.8-1.9
										l-0.1-0.2l-0.7-2.5c-0.4-1.7-0.7-2.5-0.8-2.6c-0.1-0.3-0.4-0.6-0.8-0.6c-0.1,0-0.3,0-0.4,0.1c-0.1,0.1-0.2,0.1-0.2,0.2
										s-0.1,0.1-0.1,0.2c0,0.1,0.2,1,0.7,2.6l0.7,2.8c0,0.2,0.1,0.4,0.1,0.7c0,0.8-0.3,1.1-0.9,1.1h-0.1c-1.1,0-2-0.7-2.8-1.9
										l-0.1-0.2l-0.7-2.5c-0.4-1.7-0.7-2.5-0.8-2.6c-0.1-0.3-0.4-0.6-0.8-0.6c-0.1,0-0.3,0-0.4,0.1s-0.2,0.1-0.2,0.2
										c0,0.1,0,0.1,0,0.2s0.2,1.2,0.8,3.1c0.4,2,0.8,3,0.8,3.1c0,0.2,0.1,0.3,0.1,0.6c0,0.4-0.1,0.7-0.4,0.7s-0.6-0.2-0.7-0.6
										c-0.2-0.3-0.3-0.8-0.4-1.1c-0.1-0.4-0.2-0.7-0.2-0.7s-0.1,0-0.3,0h-0.2C-1036.5,50.9-1036.5,50.9-1036.5,50.9z"/>
								</g>
								<g transform="scale(0.707)" class="st27">
									<path id="MJMATHI-65_7_" class="st42" d="M-1019.4,48.7c0,0.7,0.1,1.3,0.3,2c0.2,0.7,0.6,1.1,0.9,1.4
										c0.3,0.3,0.8,0.7,1.3,1c0.4,0.2,0.9,0.4,1.3,0.6c0.4,0.1,0.8,0.2,1.2,0.2h0.1c0.6,0,1.1-0.1,1.4-0.4
										c0.4-0.3,0.7-0.7,0.7-1.2c0-1.1-0.7-1.9-2.1-2.2c-0.7-0.1-1.4-0.2-2.6-0.2c-0.4,0-0.7,0-0.8,0c0,0,0-0.2-0.1-0.7
										c-0.1-0.4-0.1-0.8-0.1-1.1c0-0.6,0.1-1.1,0.4-1.4c0.2-0.3,0.7-0.6,1.2-0.6c0.6,0,1.1,0.1,1.8,0.3s1.2,0.7,1.8,1.2
										c0.1,0.1,0.2,0.2,0.2,0.2s0.1-0.1,0.2-0.2c0.1-0.1,0.2-0.2,0.2-0.2s0-0.1-0.2-0.3c-0.1-0.1-0.3-0.3-0.6-0.6
										c-0.2-0.2-0.6-0.4-0.9-0.6c-0.3-0.1-0.8-0.3-1.2-0.4c-0.4-0.1-1-0.2-1.4-0.2c-1,0-1.8,0.3-2.3,1
										C-1019.1,47.1-1019.4,47.8-1019.4,48.7z M-1013,52.3c-0.1,0.7-0.6,1-1.3,1c-0.4,0-0.8-0.1-1.1-0.2
										c-0.3-0.2-0.7-0.4-0.9-0.7c-0.2-0.2-0.4-0.6-0.6-0.8c-0.1-0.2-0.2-0.4-0.3-0.7c0-0.2-0.1-0.3-0.1-0.3s0.1,0,0.3,0
										c1.4,0,2.4,0.1,3,0.4C-1013.5,51.4-1013,51.7-1013,52.3z"/>
								</g>
								<g transform="scale(0.707)" class="st27">
									<path id="MJMATHI-61_7_" class="st42" d="M-1010.6,48.5c0,1.3,0.4,2.4,1.4,3.6c1,1.1,2,1.8,3.2,1.8c0.7,0,1.2-0.3,1.7-0.9
										c0.2,0.3,0.4,0.6,0.9,0.6c0.1,0,0.3,0,0.4-0.1c0.1-0.1,0.2-0.2,0.2-0.3s-0.2-1.2-0.7-3s-0.7-2.9-0.8-3.1
										c0-0.3,0-0.6,0.1-0.7c0.1-0.1,0.2-0.1,0.4-0.2c0.1,0,0.2,0.1,0.3,0.2c0.2,0.2,0.6,0.9,0.8,1.8c0.1,0.2,0.1,0.3,0.2,0.4
										c0,0,0.1,0,0.2,0h0.1c0.2,0,0.3-0.1,0.3-0.2c0-0.1,0-0.2-0.1-0.6c-0.1-0.3-0.2-0.6-0.3-1c-0.2-0.4-0.4-0.8-0.6-1
										c-0.1-0.1-0.3-0.3-0.6-0.4c-0.1,0-0.2,0-0.4,0c-0.4,0-0.8,0.1-1.1,0.3c-0.3,0.2-0.4,0.3-0.6,0.6l-0.1,0.3c0,0,0,0-0.1,0
										c0,0,0,0-0.1-0.1c-0.8-0.7-1.6-1.1-2.3-1.1c-0.7,0-1.3,0.2-1.9,0.8C-1010.4,46.7-1010.6,47.4-1010.6,48.5z M-1004.5,51.7
										c0,0.1,0,0.2-0.1,0.4c-0.1,0.2-0.2,0.4-0.4,0.7c-0.2,0.2-0.6,0.3-0.9,0.3c-0.4,0-0.9-0.2-1.3-0.6c-0.4-0.3-0.8-0.9-1-1.5
										c-0.3-1-0.7-2-0.8-3.1c0,0,0-0.1,0-0.2c0-0.1,0-0.2,0-0.2c0-0.6,0.1-1,0.3-1.2c0.2-0.2,0.6-0.3,0.8-0.3
										c0.4,0,1,0.2,1.4,0.7c0.4,0.4,0.8,0.8,0.9,1c0,0,0.2,0.8,0.6,2C-1004.7,50.9-1004.5,51.7-1004.5,51.7z"/>
								</g>
								<g transform="scale(0.707)" class="st27">
									<path id="MJMATHI-6E_7_" class="st42" d="M-1000.7,50.9c0,0.1,0,0.2,0.1,0.3c0.1,0.1,0.1,0.3,0.2,0.7
										c0.1,0.3,0.2,0.7,0.3,0.9c0.1,0.2,0.3,0.4,0.7,0.7c0.3,0.2,0.6,0.3,0.9,0.3c0.4,0,0.9-0.1,1.1-0.3s0.4-0.4,0.6-0.7
										c0.1-0.2,0.1-0.3,0.1-0.4l0,0l0.2,0.2c0.8,0.8,1.7,1.2,2.7,1.2c0.7,0,1.2-0.2,1.7-0.6c0.4-0.3,0.7-0.9,0.7-1.5
										s-0.2-1.7-0.8-3c-0.4-1.3-0.8-2.1-0.8-2.4c0-0.3,0.1-0.4,0.3-0.4c0.1,0,0.1,0,0.2,0c0.3,0.1,0.7,0.3,1,0.7
										c0.3,0.4,0.6,0.9,0.7,1.5c0,0.1,0.1,0.1,0.3,0.1c0.2,0,0.3,0,0.3-0.1c0,0,0-0.1-0.1-0.3c-0.1-0.3-0.2-0.8-0.4-1.1
										c-0.2-0.3-0.4-0.7-0.9-1.1c-0.4-0.3-0.9-0.6-1.3-0.6c-0.6,0-1,0.2-1.3,0.6c-0.2,0.3-0.4,0.7-0.4,1.1c0,0.2,0.2,1,0.7,2.3
										s0.7,2.2,0.7,2.9c0,0.8-0.3,1.1-0.9,1.1h-0.1c-1.1,0-2-0.7-2.8-1.9l-0.1-0.2l-0.7-2.5c-0.4-1.7-0.7-2.5-0.8-2.6
										c-0.1-0.3-0.4-0.6-0.8-0.6c-0.1,0-0.3,0-0.4,0.1c-0.1,0.1-0.2,0.1-0.2,0.2s0,0.1,0,0.2c0,0.1,0.2,1.2,0.8,3.1
										c0.4,1.9,0.8,2.9,0.8,3.1c0,0.1,0,0.2,0,0.4c0,0.4-0.1,0.8-0.4,0.8c-0.4,0-0.9-0.7-1.2-1.9c-0.1-0.2-0.1-0.3-0.1-0.4
										c0-0.1-0.1-0.1-0.3-0.1h-0.2C-1000.7,50.9-1000.7,50.9-1000.7,50.9z"/>
								</g>
							</g>
						</g>
					</g>
				</g>
			</g>
		</g>
	</g>
</g>
<g>
	<g pointer-events="all" transform="translate(369.68,100)">
		<rect x="48.6" y="476.4" shape-rendering="crispEdges" class="st0" width="218" height="86"/>
		<g>
			<g>
				<g transform="">
					<g>
						<g transform="translate(0,14.5)">
							<text transform="matrix(1.0182 0 0 1 63.2824 480.7437)" class="st43 st23 st24">Chance level classification</text>
							<g>
								<g>
									<path class="st44" d="M24.6,476.4h30"/>
								</g>
							</g>
							<rect x="19.6" y="466.9" class="st45" width="212.2" height="19"/>
						</g>
						<g transform="translate(0,33.5)">
							<text transform="matrix(1.0182 0 0 1 63.2824 480.0083)" class="st43 st23 st24">On-task vs intentional MW</text>
							<g>
								<g>
									<path class="st6" d="M24.6,476.4h30v6h-30V476.4z"/>
								</g>
								<g>
									<path class="st46" d="M24.6,476.4h30"/>
								</g>
								<g class="st26">
									<g class="st27">
										<path class="st8" d="M35.8,532.1l-1.9,3.5h3.8l1.9,3.5l1.9-3.5h3.8l-1.9-3.5l1.9-3.5h-3.8l-1.9-3.5l-1.9,3.5h-3.8
											L35.8,532.1z"/>
									</g>
								</g>
							</g>
							<rect x="19.6" y="466.9" class="st45" width="212.2" height="19"/>
						</g>
						<g transform="translate(0,52.5)">
							<text id="On-task_vs_unintentional_MW" transform="matrix(1.0182 0 0 1 63.2824 479.2729)" class="st43 st23 st24">On-task vs unintentional MW</text>
							<g>
								<g>
									<path class="st12" d="M24.6,476.4h30v6h-30V476.4z"/>
								</g>
								<g>
									<path class="st47" d="M24.6,476.4h30"/>
								</g>
								<g class="st26">
									<g class="st27">
										<path class="st48" d="M44.6,476.4c0,2.8-2.2,5-5,5s-5-2.2-5-5s2.2-5,5-5S44.6,473.7,44.6,476.4z"/>
									</g>
								</g>
							</g>
							<rect x="19.6" y="466.9" class="st45" width="212.2" height="19"/>
						</g>
						<g transform="translate(0,71.5)">
							<text transform="matrix(1 0 0 1 65.63 481.1443)" class="st43 st23 st24">uninten. MW vs inten. MW</text>
							<g>
								<g>
									<path class="st17" d="M24.6,476.4h30v6h-30V476.4z"/>
								</g>
								<g>
									<path class="st49" d="M24.6,476.4h30"/>
								</g>
								<g class="st26">
									<g class="st27">
										<path class="st50" d="M44.6,476.4c0,2.8-2.2,5-5,5s-5-2.2-5-5s2.2-5,5-5S44.6,473.7,44.6,476.4z"/>
									</g>
								</g>
							</g>
						</g>
					</g>
				</g>
			</g>
		</g>
		<text transform="matrix(1.0182 0 0 1 64.858 573.415)" class="st43 st23 st24">Signifcant classification</text>
		<polygon class="st51" points="48.6,476.4 48.6,476.4 48.6,476.4 48.6,476.4 48.6,476.4 48.6,476.4 48.6,476.4 		"/>
		<text transform="matrix(1.0182 0 0 1 64.8579 594.0479)" class="st43 st23 st24">Not significant classification</text>
	</g>
	<g>
		<g>
			<path class="st52" d="M405.5,666.4l-1.9,3.5h3.8l1.9,3.5l1.9-3.5h3.8l-1.9-3.5l1.9-3.5h-3.8l-1.9-3.5l-1.9,3.5h-3.8L405.5,666.4z
				"/>
		</g>
	</g>
	<text transform="matrix(1.0182 0 0 1 -71.69 695.647)" class="st55 st23 st24">Spectral normalized markers</text>
	<text transform="matrix(1.0182 0 0 1 -71.69 653.4155)" class="st54 st23 st24">Evoked Related potential (ERP) markers</text>
	<text transform="matrix(1.0182 0 0 1 -71.6901 674.4155)" class="st56 st23 st24">Spectral markers</text>
</g>
<g>
	<g>
		<path class="st53" d="M414.1,688.6c0,2.8-2.2,5-5,5s-5-2.2-5-5s2.2-5,5-5C411.9,683.6,414.1,685.9,414.1,688.6z"/>
	</g>
</g>
<rect x="-89.8" y="641.4" class="st54" width="9.2" height="7.9"/>
<rect x="-89.8" y="687.6" class="st55" width="9.2" height="7.9"/>
<rect x="-89.8" y="665.1" class="st56" width="9.2" height="7.9"/>
<text transform="matrix(1.0182 0 0 1 404.0998 317.5668)" class="st57 st23 st24">AUC</text>
</svg>
