<svg class="main-svg" xmlns="http://www.w3.org/2000/svg" xmlns:xlink="http://www.w3.org/1999/xlink" width="650" height="1100" style="" viewBox="0 0 650 1100"><rect x="0" y="0" width="650" height="1100" style="fill: rgb(255, 255, 255); fill-opacity: 1;"/><defs id="defs-55707b"><g class="clips"><clipPath id="clip55707bxyplot" class="plotclip"><rect width="432" height="881"/></clipPath><clipPath class="axesclip" id="clip55707bx"><rect x="168" y="0" width="432" height="1100"/></clipPath><clipPath class="axesclip" id="clip55707by"><rect x="0" y="150" width="650" height="881"/></clipPath><clipPath class="axesclip" id="clip55707bxy"><rect x="168" y="150" width="432" height="881"/></clipPath></g><g class="gradients"/><g class="patterns"/></defs><g class="bglayer"/><g class="layer-below"><g class="imagelayer"/><g class="shapelayer"/></g><g class="cartesianlayer"><g class="subplot xy"><g class="layer-subplot"><g class="shapelayer"/><g class="imagelayer"/></g><g class="minor-gridlayer"><g class="x"/><g class="y"/></g><g class="gridlayer"><g class="x"><path class="xgrid crisp" transform="translate(264,0)" d="M0,150v881" style="stroke: rgb(235, 240, 248); stroke-opacity: 1; stroke-width: 1px;"/><path class="xgrid crisp" transform="translate(360,0)" d="M0,150v881" style="stroke: rgb(235, 240, 248); stroke-opacity: 1; stroke-width: 1px;"/><path class="xgrid crisp" transform="translate(456,0)" d="M0,150v881" style="stroke: rgb(235, 240, 248); stroke-opacity: 1; stroke-width: 1px;"/><path class="xgrid crisp" transform="translate(552,0)" d="M0,150v881" style="stroke: rgb(235, 240, 248); stroke-opacity: 1; stroke-width: 1px;"/></g><g class="y"/></g><g class="zerolinelayer"><path class="xzl zl crisp" transform="translate(168,0)" d="M0,150v881" style="stroke: rgb(235, 240, 248); stroke-opacity: 1; stroke-width: 2px;"/></g><path class="xlines-below"/><path class="ylines-below"/><g class="overlines-below"/><g class="xaxislayer-below"/><g class="yaxislayer-below"/><g class="overaxes-below"/><g class="plot" transform="translate(168,150)" clip-path="url(#clip55707bxyplot)"><g class="boxlayer mlayer"><g class="trace boxes" style="opacity: 1;"><path class="box" d="M0,868.91V861.06M0,868.91V861.06H0V868.91ZM0,864.98H0M0,864.98H0M0,866.94V863.02M0,866.94V863.02" style="vector-effect: none; stroke-width: 2px; stroke: rgb(66, 185, 178); stroke-opacity: 1; fill: rgb(66, 185, 178); fill-opacity: 0.5;"/><path class="box" d="M0,852.89V845.04M0,852.89V845.04H0V852.89ZM0,848.96H0M0,848.96H0M0,850.93V847M0,850.93V847" style="vector-effect: none; stroke-width: 2px; stroke: rgb(66, 185, 178); stroke-opacity: 1; fill: rgb(66, 185, 178); fill-opacity: 0.5;"/><path class="box" d="M0.07000000000000006,836.87V829.02M0,836.87V829.02H1.07V836.87ZM0,832.95H0M1.07,832.95H2.07M0,834.91V830.98M2.07,834.91V830.98" style="vector-effect: none; stroke-width: 2px; stroke: rgb(66, 185, 178); stroke-opacity: 1; fill: rgb(66, 185, 178); fill-opacity: 0.5;"/><path class="box" d="M0.45999999999999996,820.85V813M0,820.85V813H1.46V820.85ZM0,816.93H0M1.46,816.93H2.06M0,818.89V814.97M2.06,818.89V814.97" style="vector-effect: none; stroke-width: 2px; stroke: rgb(66, 185, 178); stroke-opacity: 1; fill: rgb(66, 185, 178); fill-opacity: 0.5;"/><path class="box" d="M0.5700000000000001,804.83V796.98M0,804.83V796.98H1.57V804.83ZM0,800.91H0M1.57,800.91H3.3M0,802.87V798.95M3.3,802.87V798.95" style="vector-effect: none; stroke-width: 2px; stroke: rgb(66, 185, 178); stroke-opacity: 1; fill: rgb(66, 185, 178); fill-opacity: 0.5;"/><path class="box" d="M0.33000000000000007,788.82V780.97M0,788.82V780.97H1.33V788.82ZM0,784.89H0M1.33,784.89H2.65M0,786.85V782.93M2.65,786.85V782.93" style="vector-effect: none; stroke-width: 2px; stroke: rgb(66, 185, 178); stroke-opacity: 1; fill: rgb(66, 185, 178); fill-opacity: 0.5;"/><path class="box" d="M1.19,772.8V764.95M0.55,772.8V764.95H1.48V772.8ZM0.55,768.87H0M1.48,768.87H1.61M0,770.83V766.91M1.61,770.83V766.91" style="vector-effect: none; stroke-width: 2px; stroke: rgb(66, 185, 178); stroke-opacity: 1; fill: rgb(66, 185, 178); fill-opacity: 0.5;"/><path class="box" d="M1,756.78V748.93M0,756.78V748.93H3.44V756.78ZM0,752.85H0M3.44,752.85H6.95M0,754.82V750.89M6.95,754.82V750.89" style="vector-effect: none; stroke-width: 2px; stroke: rgb(66, 185, 178); stroke-opacity: 1; fill: rgb(66, 185, 178); fill-opacity: 0.5;"/><path class="box" d="M1.7200000000000002,740.76V732.91M1.03,740.76V732.91H2.72V740.76ZM1.03,736.84H0M2.72,736.84H3.16M0,738.8V734.87M3.16,738.8V734.87" style="vector-effect: none; stroke-width: 2px; stroke: rgb(66, 185, 178); stroke-opacity: 1; fill: rgb(66, 185, 178); fill-opacity: 0.5;"/><path class="box" d="M1,724.74V716.89M0,724.74V716.89H4.9V724.74ZM0,720.82H0M4.9,720.82H7.42M0,722.78V718.86M7.42,722.78V718.86" style="vector-effect: none; stroke-width: 2px; stroke: rgb(66, 185, 178); stroke-opacity: 1; fill: rgb(66, 185, 178); fill-opacity: 0.5;"/><path class="box" d="M1,708.72V700.88M0,708.72V700.88H2.67V708.72ZM0,704.8H0M2.67,704.8H2.67M0,706.76V702.84M2.67,706.76V702.84" style="vector-effect: none; stroke-width: 2px; stroke: rgb(66, 185, 178); stroke-opacity: 1; fill: rgb(66, 185, 178); fill-opacity: 0.5;"/><path class="box" d="M2.67,692.71V684.86M0,692.71V684.86H3.67V692.71ZM0,688.78H0M3.67,688.78H4.66M0,690.74V686.82M4.66,690.74V686.82" style="vector-effect: none; stroke-width: 2px; stroke: rgb(66, 185, 178); stroke-opacity: 1; fill: rgb(66, 185, 178); fill-opacity: 0.5;"/><path class="box" d="M1,676.69V668.84M0,676.69V668.84H6.55V676.69ZM0,672.76H0M6.55,672.76H7.66M0,674.73V670.8M7.66,674.73V670.8" style="vector-effect: none; stroke-width: 2px; stroke: rgb(66, 185, 178); stroke-opacity: 1; fill: rgb(66, 185, 178); fill-opacity: 0.5;"/><path class="box" d="M0.74,660.67V652.82M0,660.67V652.82H1.74V660.67ZM0,656.75H0M1.74,656.75H1.74M0,658.71V654.78M1.74,658.71V654.78" style="vector-effect: none; stroke-width: 2px; stroke: rgb(66, 185, 178); stroke-opacity: 1; fill: rgb(66, 185, 178); fill-opacity: 0.5;"/><path class="box" d="M2.7,644.65V636.8M1.7,644.65V636.8H4.16V644.65ZM1.7,640.73H0M4.16,640.73H4.8M0,642.69V638.77M4.8,642.69V638.77" style="vector-effect: none; stroke-width: 2px; stroke: rgb(66, 185, 178); stroke-opacity: 1; fill: rgb(66, 185, 178); fill-opacity: 0.5;"/><path class="box" d="M1.35,628.63V620.78M0,628.63V620.78H2.66V628.63ZM0,624.71H0M2.66,624.71H2.66M0,626.67V622.75M2.66,626.67V622.75" style="vector-effect: none; stroke-width: 2px; stroke: rgb(66, 185, 178); stroke-opacity: 1; fill: rgb(66, 185, 178); fill-opacity: 0.5;"/><path class="box" d="M2.68,612.62V604.77M2.05,612.62V604.77H3.68V612.62ZM2.05,608.69H0M3.68,608.69H5.81M0,610.65V606.73M5.81,610.65V606.73" style="vector-effect: none; stroke-width: 2px; stroke: rgb(66, 185, 178); stroke-opacity: 1; fill: rgb(66, 185, 178); fill-opacity: 0.5;"/><path class="box" d="M1,596.6V588.75M0,596.6V588.75H8.54V596.6ZM0,592.67H0M8.54,592.67H9.83M0,594.63V590.71M9.83,594.63V590.71" style="vector-effect: none; stroke-width: 2px; stroke: rgb(66, 185, 178); stroke-opacity: 1; fill: rgb(66, 185, 178); fill-opacity: 0.5;"/><path class="box" d="M1.36,580.58V572.73M0,580.58V572.73H3.84V580.58ZM0,576.65H0M3.84,576.65H6.65M0,578.62V574.69M6.65,578.62V574.69" style="vector-effect: none; stroke-width: 2px; stroke: rgb(66, 185, 178); stroke-opacity: 1; fill: rgb(66, 185, 178); fill-opacity: 0.5;"/><path class="box" d="M1,564.56V556.71M0,564.56V556.71H6.24V564.56ZM0,560.64H0M6.24,560.64H13.93M0,562.6V558.67M13.93,562.6V558.67" style="vector-effect: none; stroke-width: 2px; stroke: rgb(66, 185, 178); stroke-opacity: 1; fill: rgb(66, 185, 178); fill-opacity: 0.5;"/><path class="box" d="M3.22,548.54V540.69M1.97,548.54V540.69H4.36V548.54ZM1.97,544.62H0M4.36,544.62H7.6M0,546.58V542.66M7.6,546.58V542.66" style="vector-effect: none; stroke-width: 2px; stroke: rgb(66, 185, 178); stroke-opacity: 1; fill: rgb(66, 185, 178); fill-opacity: 0.5;"/><path class="box" d="M2.92,532.52V524.68M1.92,532.52V524.68H4.52V532.52ZM1.92,528.6H1.54M4.52,528.6H4.52M1.54,530.56V526.64M4.52,530.56V526.64" style="vector-effect: none; stroke-width: 2px; stroke: rgb(66, 185, 178); stroke-opacity: 1; fill: rgb(66, 185, 178); fill-opacity: 0.5;"/><path class="box" d="M3.75,516.51V508.66M2.73,516.51V508.66H5.32V516.51ZM2.73,512.58H1.66M5.32,512.58H6.51M1.66,514.54V510.62M6.51,514.54V510.62" style="vector-effect: none; stroke-width: 2px; stroke: rgb(66, 185, 178); stroke-opacity: 1; fill: rgb(66, 185, 178); fill-opacity: 0.5;"/><path class="box" d="M4.04,500.49V492.64M0,500.49V492.64H5.15V500.49ZM0,496.56H0M5.15,496.56H10.43M0,498.53V494.6M10.43,498.53V494.6" style="vector-effect: none; stroke-width: 2px; stroke: rgb(66, 185, 178); stroke-opacity: 1; fill: rgb(66, 185, 178); fill-opacity: 0.5;"/><path class="box" d="M3.73,484.47V476.62M2.37,484.47V476.62H8.66V484.47ZM2.37,480.55H1.35M8.66,480.55H9.95M1.35,482.51V478.58M9.95,482.51V478.58" style="vector-effect: none; stroke-width: 2px; stroke: rgb(66, 185, 178); stroke-opacity: 1; fill: rgb(66, 185, 178); fill-opacity: 0.5;"/><path class="box" d="M3.68,468.45V460.6M1.81,468.45V460.6H8.87V468.45ZM1.81,464.53H0M8.87,464.53H11.77M0,466.49V462.57M11.77,466.49V462.57" style="vector-effect: none; stroke-width: 2px; stroke: rgb(66, 185, 178); stroke-opacity: 1; fill: rgb(66, 185, 178); fill-opacity: 0.5;"/><path class="box" d="M4.78,452.43V444.58M3.53,452.43V444.58H6.74V452.43ZM3.53,448.51H0M6.74,448.51H7.62M0,450.47V446.55M7.62,450.47V446.55" style="vector-effect: none; stroke-width: 2px; stroke: rgb(66, 185, 178); stroke-opacity: 1; fill: rgb(66, 185, 178); fill-opacity: 0.5;"/><path class="box" d="M5.66,436.42V428.57M4,436.42V428.57H6.93V436.42ZM4,432.49H2.93M6.93,432.49H10.81M2.93,434.45V430.53M10.81,434.45V430.53" style="vector-effect: none; stroke-width: 2px; stroke: rgb(66, 185, 178); stroke-opacity: 1; fill: rgb(66, 185, 178); fill-opacity: 0.5;"/><path class="box" d="M6.77,420.4V412.55M4.29,420.4V412.55H8.21V420.4ZM4.29,416.47H0M8.21,416.47H13.15M0,418.43V414.51M13.15,418.43V414.51" style="vector-effect: none; stroke-width: 2px; stroke: rgb(66, 185, 178); stroke-opacity: 1; fill: rgb(66, 185, 178); fill-opacity: 0.5;"/><path class="box" d="M7.58,404.38V396.53M5.93,404.38V396.53H9.43V404.38ZM5.93,400.45H3.08M9.43,400.45H12.52M3.08,402.42V398.49M12.52,402.42V398.49" style="vector-effect: none; stroke-width: 2px; stroke: rgb(66, 185, 178); stroke-opacity: 1; fill: rgb(66, 185, 178); fill-opacity: 0.5;"/><path class="box" d="M7.35,388.36V380.51M4.29,388.36V380.51H8.85V388.36ZM4.29,384.44H3.53M8.85,384.44H11.59M3.53,386.4V382.47M11.59,386.4V382.47" style="vector-effect: none; stroke-width: 2px; stroke: rgb(66, 185, 178); stroke-opacity: 1; fill: rgb(66, 185, 178); fill-opacity: 0.5;"/><path class="box" d="M8.35,372.34V364.49M5.27,372.34V364.49H10.89V372.34ZM5.27,368.42H0M10.89,368.42H13.71M0,370.38V366.46M13.71,370.38V366.46" style="vector-effect: none; stroke-width: 2px; stroke: rgb(66, 185, 178); stroke-opacity: 1; fill: rgb(66, 185, 178); fill-opacity: 0.5;"/><path class="box" d="M8.82,356.32V348.48M5.96,356.32V348.48H10.89V356.32ZM5.96,352.4H1.7M10.89,352.4H12.88M1.7,354.36V350.44M12.88,354.36V350.44" style="vector-effect: none; stroke-width: 2px; stroke: rgb(66, 185, 178); stroke-opacity: 1; fill: rgb(66, 185, 178); fill-opacity: 0.5;"/><path class="box" d="M7.9,340.31V332.46M5.93,340.31V332.46H9.08V340.31ZM5.93,336.38H2.94M9.08,336.38H9.08M2.94,338.34V334.42M9.08,338.34V334.42" style="vector-effect: none; stroke-width: 2px; stroke: rgb(66, 185, 178); stroke-opacity: 1; fill: rgb(66, 185, 178); fill-opacity: 0.5;"/><path class="box" d="M7.43,324.29V316.44M4,324.29V316.44H15.09V324.29ZM4,320.36H0M15.09,320.36H16.23M0,322.33V318.4M16.23,322.33V318.4" style="vector-effect: none; stroke-width: 2px; stroke: rgb(66, 185, 178); stroke-opacity: 1; fill: rgb(66, 185, 178); fill-opacity: 0.5;"/><path class="box" d="M8.13,308.27V300.42M6.32,308.27V300.42H11.91V308.27ZM6.32,304.35H3.87M11.91,304.35H15.36M3.87,306.31V302.38M15.36,306.31V302.38" style="vector-effect: none; stroke-width: 2px; stroke: rgb(66, 185, 178); stroke-opacity: 1; fill: rgb(66, 185, 178); fill-opacity: 0.5;"/><path class="box" d="M10.05,292.25V284.4M9.05,292.25V284.4H10.91V292.25ZM9.05,288.33H7.95M10.91,288.33H10.91M7.95,290.29V286.37M10.91,290.29V286.37" style="vector-effect: none; stroke-width: 2px; stroke: rgb(66, 185, 178); stroke-opacity: 1; fill: rgb(66, 185, 178); fill-opacity: 0.5;"/><path class="box" d="M6.29,276.23V268.38M4.35,276.23V268.38H19.02V276.23ZM4.35,272.31H4M19.02,272.31H24.17M4,274.27V270.35M24.17,274.27V270.35" style="vector-effect: none; stroke-width: 2px; stroke: rgb(66, 185, 178); stroke-opacity: 1; fill: rgb(66, 185, 178); fill-opacity: 0.5;"/><path class="box" d="M11.99,260.22V252.37M4.85,260.22V252.37H15.55V260.22ZM4.85,256.29H3.87M15.55,256.29H19.96M3.87,258.25V254.33M19.96,258.25V254.33" style="vector-effect: none; stroke-width: 2px; stroke: rgb(66, 185, 178); stroke-opacity: 1; fill: rgb(66, 185, 178); fill-opacity: 0.5;"/><path class="box" d="M11.94,244.2V236.35M5.37,244.2V236.35H13.55V244.2ZM5.37,240.27H1.26M13.55,240.27H25.2M1.26,242.23V238.31M25.2,242.23V238.31" style="vector-effect: none; stroke-width: 2px; stroke: rgb(66, 185, 178); stroke-opacity: 1; fill: rgb(66, 185, 178); fill-opacity: 0.5;"/><path class="box" d="M12.86,228.18V220.33M8.62,228.18V220.33H15.79V228.18ZM8.62,224.25H6.78M15.79,224.25H18.81M6.78,226.22V222.29M18.81,226.22V222.29" style="vector-effect: none; stroke-width: 2px; stroke: rgb(66, 185, 178); stroke-opacity: 1; fill: rgb(66, 185, 178); fill-opacity: 0.5;"/><path class="box" d="M11.89,212.16V204.31M8.98,212.16V204.31H15.88V212.16ZM8.98,208.24H6.61M15.88,208.24H21.51M6.61,210.2V206.27M21.51,210.2V206.27" style="vector-effect: none; stroke-width: 2px; stroke: rgb(66, 185, 178); stroke-opacity: 1; fill: rgb(66, 185, 178); fill-opacity: 0.5;"/><path class="box" d="M13.46,196.14V188.29M9.83,196.14V188.29H15.88V196.14ZM9.83,192.22H8.53M15.88,192.22H19.68M8.53,194.18V190.26M19.68,194.18V190.26" style="vector-effect: none; stroke-width: 2px; stroke: rgb(66, 185, 178); stroke-opacity: 1; fill: rgb(66, 185, 178); fill-opacity: 0.5;"/><path class="box" d="M13.62,180.12V172.28M12.62,180.12V172.28H16.97V180.12ZM12.62,176.2H7.52M16.97,176.2H22.55M7.52,178.16V174.24M22.55,178.16V174.24" style="vector-effect: none; stroke-width: 2px; stroke: rgb(66, 185, 178); stroke-opacity: 1; fill: rgb(66, 185, 178); fill-opacity: 0.5;"/><path class="box" d="M19.31,164.11V156.26M13.99,164.11V156.26H22.06V164.11ZM13.99,160.18H11.81M22.06,160.18H24.2M11.81,162.14V158.22M24.2,162.14V158.22" style="vector-effect: none; stroke-width: 2px; stroke: rgb(66, 185, 178); stroke-opacity: 1; fill: rgb(66, 185, 178); fill-opacity: 0.5;"/><path class="box" d="M18.99,148.09V140.24M14.32,148.09V140.24H24.99V148.09ZM14.32,144.16H10.46M24.99,144.16H25.6M10.46,146.13V142.2M25.6,146.13V142.2" style="vector-effect: none; stroke-width: 2px; stroke: rgb(66, 185, 178); stroke-opacity: 1; fill: rgb(66, 185, 178); fill-opacity: 0.5;"/><path class="box" d="M20.87,132.07V124.22M17.36,132.07V124.22H22.36V132.07ZM17.36,128.15H12.77M22.36,128.15H25.81M12.77,130.11V126.18M25.81,130.11V126.18" style="vector-effect: none; stroke-width: 2px; stroke: rgb(66, 185, 178); stroke-opacity: 1; fill: rgb(66, 185, 178); fill-opacity: 0.5;"/><path class="box" d="M19.27,116.05V108.2M17.08,116.05V108.2H24V116.05ZM17.08,112.13H12.64M24,112.13H34.08M12.64,114.09V110.17M34.08,114.09V110.17" style="vector-effect: none; stroke-width: 2px; stroke: rgb(66, 185, 178); stroke-opacity: 1; fill: rgb(66, 185, 178); fill-opacity: 0.5;"/><path class="box" d="M22.97,100.03V92.18M19.64,100.03V92.18H27.26V100.03ZM19.64,96.11H10.25M27.26,96.11H29.11M10.25,98.07V94.15M29.11,98.07V94.15" style="vector-effect: none; stroke-width: 2px; stroke: rgb(66, 185, 178); stroke-opacity: 1; fill: rgb(66, 185, 178); fill-opacity: 0.5;"/><path class="box" d="M23.73,84.02V76.17M16.16,84.02V76.17H24.88V84.02ZM16.16,80.09H14.5M24.88,80.09H34.68M14.5,82.05V78.13M34.68,82.05V78.13" style="vector-effect: none; stroke-width: 2px; stroke: rgb(66, 185, 178); stroke-opacity: 1; fill: rgb(66, 185, 178); fill-opacity: 0.5;"/><path class="box" d="M22.77,68V60.15M18.21,68V60.15H28.43V68ZM18.21,64.07H14.89M28.43,64.07H31.11M14.89,66.03V62.11M31.11,66.03V62.11" style="vector-effect: none; stroke-width: 2px; stroke: rgb(66, 185, 178); stroke-opacity: 1; fill: rgb(66, 185, 178); fill-opacity: 0.5;"/><path class="box" d="M23.85,51.98V44.13M18.98,51.98V44.13H30V51.98ZM18.98,48.05H14.48M30,48.05H33.8M14.48,50.02V46.09M33.8,50.02V46.09" style="vector-effect: none; stroke-width: 2px; stroke: rgb(66, 185, 178); stroke-opacity: 1; fill: rgb(66, 185, 178); fill-opacity: 0.5;"/><path class="box" d="M32.26,35.96V28.11M27.59,35.96V28.11H37.32V35.96ZM27.59,32.04H25.63M37.32,32.04H42.83M25.63,34V30.07M42.83,34V30.07" style="vector-effect: none; stroke-width: 2px; stroke: rgb(66, 185, 178); stroke-opacity: 1; fill: rgb(66, 185, 178); fill-opacity: 0.5;"/><path class="box" d="M40.04,19.94V12.09M35.31,19.94V12.09H54.23V19.94ZM35.31,16.02H29.59M54.23,16.02H56.05M29.59,17.98V14.06M56.05,17.98V14.06" style="vector-effect: none; stroke-width: 2px; stroke: rgb(66, 185, 178); stroke-opacity: 1; fill: rgb(66, 185, 178); fill-opacity: 0.5;"/><g class="points"><path class="point" transform="translate(2.1,864.98)" d="M4,0A4,4 0 1,1 0,-4A4,4 0 0,1 4,0Z" style="opacity: 1; stroke-width: 0px; fill: rgb(66, 185, 178); fill-opacity: 1;"/></g><g class="points"><path class="point" transform="translate(0.71,848.96)" d="M4,0A4,4 0 1,1 0,-4A4,4 0 0,1 4,0Z" style="opacity: 1; stroke-width: 0px; fill: rgb(66, 185, 178); fill-opacity: 1;"/><path class="point" transform="translate(4.64,848.96)" d="M4,0A4,4 0 1,1 0,-4A4,4 0 0,1 4,0Z" style="opacity: 1; stroke-width: 0px; fill: rgb(66, 185, 178); fill-opacity: 1;"/></g><g class="points"/><g class="points"/><g class="points"><path class="point" transform="translate(4.06,800.91)" d="M4,0A4,4 0 1,1 0,-4A4,4 0 0,1 4,0Z" style="opacity: 1; stroke-width: 0px; fill: rgb(66, 185, 178); fill-opacity: 1;"/></g><g class="points"><path class="point" transform="translate(6.07,784.89)" d="M4,0A4,4 0 1,1 0,-4A4,4 0 0,1 4,0Z" style="opacity: 1; stroke-width: 0px; fill: rgb(66, 185, 178); fill-opacity: 1;"/></g><g class="points"><path class="point" transform="translate(8.3,768.87)" d="M4,0A4,4 0 1,1 0,-4A4,4 0 0,1 4,0Z" style="opacity: 1; stroke-width: 0px; fill: rgb(66, 185, 178); fill-opacity: 1;"/></g><g class="points"/><g class="points"/><g class="points"/><g class="points"><path class="point" transform="translate(6.88,704.8)" d="M4,0A4,4 0 1,1 0,-4A4,4 0 0,1 4,0Z" style="opacity: 1; stroke-width: 0px; fill: rgb(66, 185, 178); fill-opacity: 1;"/><path class="point" transform="translate(7.37,704.8)" d="M4,0A4,4 0 1,1 0,-4A4,4 0 0,1 4,0Z" style="opacity: 1; stroke-width: 0px; fill: rgb(66, 185, 178); fill-opacity: 1;"/></g><g class="points"/><g class="points"/><g class="points"><path class="point" transform="translate(9,656.75)" d="M4,0A4,4 0 1,1 0,-4A4,4 0 0,1 4,0Z" style="opacity: 1; stroke-width: 0px; fill: rgb(66, 185, 178); fill-opacity: 1;"/><path class="point" transform="translate(11.87,656.75)" d="M4,0A4,4 0 1,1 0,-4A4,4 0 0,1 4,0Z" style="opacity: 1; stroke-width: 0px; fill: rgb(66, 185, 178); fill-opacity: 1;"/></g><g class="points"/><g class="points"><path class="point" transform="translate(9.42,624.71)" d="M4,0A4,4 0 1,1 0,-4A4,4 0 0,1 4,0Z" style="opacity: 1; stroke-width: 0px; fill: rgb(66, 185, 178); fill-opacity: 1;"/><path class="point" transform="translate(10.39,624.71)" d="M4,0A4,4 0 1,1 0,-4A4,4 0 0,1 4,0Z" style="opacity: 1; stroke-width: 0px; fill: rgb(66, 185, 178); fill-opacity: 1;"/></g><g class="points"/><g class="points"/><g class="points"><path class="point" transform="translate(16.3,576.65)" d="M4,0A4,4 0 1,1 0,-4A4,4 0 0,1 4,0Z" style="opacity: 1; stroke-width: 0px; fill: rgb(66, 185, 178); fill-opacity: 1;"/></g><g class="points"/><g class="points"/><g class="points"><path class="point" transform="translate(8.75,528.6)" d="M4,0A4,4 0 1,1 0,-4A4,4 0 0,1 4,0Z" style="opacity: 1; stroke-width: 0px; fill: rgb(66, 185, 178); fill-opacity: 1;"/><path class="point" transform="translate(9.06,528.6)" d="M4,0A4,4 0 1,1 0,-4A4,4 0 0,1 4,0Z" style="opacity: 1; stroke-width: 0px; fill: rgb(66, 185, 178); fill-opacity: 1;"/></g><g class="points"/><g class="points"><path class="point" transform="translate(13.68,496.56)" d="M4,0A4,4 0 1,1 0,-4A4,4 0 0,1 4,0Z" style="opacity: 1; stroke-width: 0px; fill: rgb(66, 185, 178); fill-opacity: 1;"/></g><g class="points"/><g class="points"/><g class="points"><path class="point" transform="translate(17,448.51)" d="M4,0A4,4 0 1,1 0,-4A4,4 0 0,1 4,0Z" style="opacity: 1; stroke-width: 0px; fill: rgb(66, 185, 178); fill-opacity: 1;"/></g><g class="points"><path class="point" transform="translate(11.8,432.49)" d="M4,0A4,4 0 1,1 0,-4A4,4 0 0,1 4,0Z" style="opacity: 1; stroke-width: 0px; fill: rgb(66, 185, 178); fill-opacity: 1;"/></g><g class="points"><path class="point" transform="translate(15.07,416.47)" d="M4,0A4,4 0 1,1 0,-4A4,4 0 0,1 4,0Z" style="opacity: 1; stroke-width: 0px; fill: rgb(66, 185, 178); fill-opacity: 1;"/></g><g class="points"/><g class="points"><path class="point" transform="translate(18.14,384.44)" d="M4,0A4,4 0 1,1 0,-4A4,4 0 0,1 4,0Z" style="opacity: 1; stroke-width: 0px; fill: rgb(66, 185, 178); fill-opacity: 1;"/></g><g class="points"/><g class="points"/><g class="points"><path class="point" transform="translate(13.9,336.38)" d="M4,0A4,4 0 1,1 0,-4A4,4 0 0,1 4,0Z" style="opacity: 1; stroke-width: 0px; fill: rgb(66, 185, 178); fill-opacity: 1;"/><path class="point" transform="translate(18.45,336.38)" d="M4,0A4,4 0 1,1 0,-4A4,4 0 0,1 4,0Z" style="opacity: 1; stroke-width: 0px; fill: rgb(66, 185, 178); fill-opacity: 1;"/></g><g class="points"/><g class="points"/><g class="points"><path class="point" transform="translate(0,288.33)" d="M4,0A4,4 0 1,1 0,-4A4,4 0 0,1 4,0Z" style="opacity: 1; stroke-width: 0px; fill: rgb(66, 185, 178); fill-opacity: 1;"/><path class="point" transform="translate(14.79,288.33)" d="M4,0A4,4 0 1,1 0,-4A4,4 0 0,1 4,0Z" style="opacity: 1; stroke-width: 0px; fill: rgb(66, 185, 178); fill-opacity: 1;"/><path class="point" transform="translate(15.92,288.33)" d="M4,0A4,4 0 1,1 0,-4A4,4 0 0,1 4,0Z" style="opacity: 1; stroke-width: 0px; fill: rgb(66, 185, 178); fill-opacity: 1;"/></g><g class="points"/><g class="points"/><g class="points"/><g class="points"/><g class="points"/><g class="points"/><g class="points"/><g class="points"/><g class="points"/><g class="points"><path class="point" transform="translate(8.52,128.15)" d="M4,0A4,4 0 1,1 0,-4A4,4 0 0,1 4,0Z" style="opacity: 1; stroke-width: 0px; fill: rgb(66, 185, 178); fill-opacity: 1;"/></g><g class="points"/><g class="points"/><g class="points"/><g class="points"/><g class="points"/><g class="points"/><g class="points"/></g></g></g><g class="overplot"/><path class="xlines-above crisp" d="M0,0" style="fill: none;"/><path class="ylines-above crisp" d="M0,0" style="fill: none;"/><g class="overlines-above"/><g class="xaxislayer-above"><g class="xtick"><text text-anchor="middle" x="0" y="1052" transform="translate(168,0)" style="font-family: 'Times new roman'; font-size: 20px; fill: rgb(0, 0, 0); fill-opacity: 1; white-space: pre; opacity: 1;">0</text></g><g class="xtick"><text text-anchor="middle" x="0" y="1052" style="font-family: 'Times new roman'; font-size: 20px; fill: rgb(0, 0, 0); fill-opacity: 1; white-space: pre; opacity: 1;" transform="translate(264,0)">0.2</text></g><g class="xtick"><text text-anchor="middle" x="0" y="1052" style="font-family: 'Times new roman'; font-size: 20px; fill: rgb(0, 0, 0); fill-opacity: 1; white-space: pre; opacity: 1;" transform="translate(360,0)">0.4</text></g><g class="xtick"><text text-anchor="middle" x="0" y="1052" style="font-family: 'Times new roman'; font-size: 20px; fill: rgb(0, 0, 0); fill-opacity: 1; white-space: pre; opacity: 1;" transform="translate(456,0)">0.6</text></g><g class="xtick"><text text-anchor="middle" x="0" y="1052" style="font-family: 'Times new roman'; font-size: 20px; fill: rgb(0, 0, 0); fill-opacity: 1; white-space: pre; opacity: 1;" transform="translate(552,0)">0.8</text></g></g><g class="yaxislayer-above"><g class="ytick"><text text-anchor="end" x="167" y="7" transform="translate(0,1014.98)" style="font-family: 'Times new roman'; font-size: 20px; fill: rgb(0, 0, 0); fill-opacity: 1; white-space: pre; opacity: 1;">d_n_mean</text></g><g class="ytick"><text text-anchor="end" x="167" y="7" transform="translate(0,998.96)" style="font-family: 'Times new roman'; font-size: 20px; fill: rgb(0, 0, 0); fill-opacity: 1; white-space: pre; opacity: 1;">wSMI_4_std</text></g><g class="ytick"><text text-anchor="end" x="167" y="7" transform="translate(0,982.95)" style="font-family: 'Times new roman'; font-size: 20px; fill: rgb(0, 0, 0); fill-opacity: 1; white-space: pre; opacity: 1;">wSMI_4_mean</text></g><g class="ytick"><text text-anchor="end" x="167" y="7" transform="translate(0,966.93)" style="font-family: 'Times new roman'; font-size: 20px; fill: rgb(0, 0, 0); fill-opacity: 1; white-space: pre; opacity: 1;">p_e_2_std</text></g><g class="ytick"><text text-anchor="end" x="167" y="7" transform="translate(0,950.91)" style="font-family: 'Times new roman'; font-size: 20px; fill: rgb(0, 0, 0); fill-opacity: 1; white-space: pre; opacity: 1;">P3a_std</text></g><g class="ytick"><text text-anchor="end" x="167" y="7" transform="translate(0,934.89)" style="font-family: 'Times new roman'; font-size: 20px; fill: rgb(0, 0, 0); fill-opacity: 1; white-space: pre; opacity: 1;">g_n_std</text></g><g class="ytick"><text text-anchor="end" x="167" y="7" transform="translate(0,918.87)" style="font-family: 'Times new roman'; font-size: 20px; fill: rgb(0, 0, 0); fill-opacity: 1; white-space: pre; opacity: 1;">P3b_std</text></g><g class="ytick"><text text-anchor="end" x="167" y="7" transform="translate(0,902.85)" style="font-family: 'Times new roman'; font-size: 20px; fill: rgb(0, 0, 0); fill-opacity: 1; white-space: pre; opacity: 1;">d_std</text></g><g class="ytick"><text text-anchor="end" x="167" y="7" transform="translate(0,886.84)" style="font-family: 'Times new roman'; font-size: 20px; fill: rgb(0, 0, 0); fill-opacity: 1; white-space: pre; opacity: 1;">wSMI_8_mean</text></g><g class="ytick"><text text-anchor="end" x="167" y="7" transform="translate(0,870.82)" style="font-family: 'Times new roman'; font-size: 20px; fill: rgb(0, 0, 0); fill-opacity: 1; white-space: pre; opacity: 1;">P3b_mean</text></g><g class="ytick"><text text-anchor="end" x="167" y="7" transform="translate(0,854.8)" style="font-family: 'Times new roman'; font-size: 20px; fill: rgb(0, 0, 0); fill-opacity: 1; white-space: pre; opacity: 1;">wSMI_1_mean</text></g><g class="ytick"><text text-anchor="end" x="167" y="7" transform="translate(0,838.78)" style="font-family: 'Times new roman'; font-size: 20px; fill: rgb(0, 0, 0); fill-opacity: 1; white-space: pre; opacity: 1;">d_n_std</text></g><g class="ytick"><text text-anchor="end" x="167" y="7" transform="translate(0,822.76)" style="font-family: 'Times new roman'; font-size: 20px; fill: rgb(0, 0, 0); fill-opacity: 1; white-space: pre; opacity: 1;">wSMI_2_mean</text></g><g class="ytick"><text text-anchor="end" x="167" y="7" transform="translate(0,806.75)" style="font-family: 'Times new roman'; font-size: 20px; fill: rgb(0, 0, 0); fill-opacity: 1; white-space: pre; opacity: 1;">b_mean</text></g><g class="ytick"><text text-anchor="end" x="167" y="7" transform="translate(0,790.73)" style="font-family: 'Times new roman'; font-size: 20px; fill: rgb(0, 0, 0); fill-opacity: 1; white-space: pre; opacity: 1;">t_n_std</text></g><g class="ytick"><text text-anchor="end" x="167" y="7" transform="translate(0,774.71)" style="font-family: 'Times new roman'; font-size: 20px; fill: rgb(0, 0, 0); fill-opacity: 1; white-space: pre; opacity: 1;">p_e_4_mean</text></g><g class="ytick"><text text-anchor="end" x="167" y="7" transform="translate(0,758.69)" style="font-family: 'Times new roman'; font-size: 20px; fill: rgb(0, 0, 0); fill-opacity: 1; white-space: pre; opacity: 1;">wSMI_8_std</text></g><g class="ytick"><text text-anchor="end" x="167" y="7" transform="translate(0,742.67)" style="font-family: 'Times new roman'; font-size: 20px; fill: rgb(0, 0, 0); fill-opacity: 1; white-space: pre; opacity: 1;">sef95_mean</text></g><g class="ytick"><text text-anchor="end" x="167" y="7" transform="translate(0,726.65)" style="font-family: 'Times new roman'; font-size: 20px; fill: rgb(0, 0, 0); fill-opacity: 1; white-space: pre; opacity: 1;">se_mean</text></g><g class="ytick"><text text-anchor="end" x="167" y="7" transform="translate(0,710.64)" style="font-family: 'Times new roman'; font-size: 20px; fill: rgb(0, 0, 0); fill-opacity: 1; white-space: pre; opacity: 1;">P3a_mean</text></g><g class="ytick"><text text-anchor="end" x="167" y="7" transform="translate(0,694.62)" style="font-family: 'Times new roman'; font-size: 20px; fill: rgb(0, 0, 0); fill-opacity: 1; white-space: pre; opacity: 1;">t_std</text></g><g class="ytick"><text text-anchor="end" x="167" y="7" transform="translate(0,678.6)" style="font-family: 'Times new roman'; font-size: 20px; fill: rgb(0, 0, 0); fill-opacity: 1; white-space: pre; opacity: 1;">wSMI_1_std</text></g><g class="ytick"><text text-anchor="end" x="167" y="7" transform="translate(0,662.58)" style="font-family: 'Times new roman'; font-size: 20px; fill: rgb(0, 0, 0); fill-opacity: 1; white-space: pre; opacity: 1;">P1_std</text></g><g class="ytick"><text text-anchor="end" x="167" y="7" transform="translate(0,646.56)" style="font-family: 'Times new roman'; font-size: 20px; fill: rgb(0, 0, 0); fill-opacity: 1; white-space: pre; opacity: 1;">p_e_8_mean</text></g><g class="ytick"><text text-anchor="end" x="167" y="7" transform="translate(0,630.55)" style="font-family: 'Times new roman'; font-size: 20px; fill: rgb(0, 0, 0); fill-opacity: 1; white-space: pre; opacity: 1;">a_mean</text></g><g class="ytick"><text text-anchor="end" x="167" y="7" transform="translate(0,614.53)" style="font-family: 'Times new roman'; font-size: 20px; fill: rgb(0, 0, 0); fill-opacity: 1; white-space: pre; opacity: 1;">wSMI_2_std</text></g><g class="ytick"><text text-anchor="end" x="167" y="7" transform="translate(0,598.51)" style="font-family: 'Times new roman'; font-size: 20px; fill: rgb(0, 0, 0); fill-opacity: 1; white-space: pre; opacity: 1;">b_n_mean</text></g><g class="ytick"><text text-anchor="end" x="167" y="7" transform="translate(0,582.49)" style="font-family: 'Times new roman'; font-size: 20px; fill: rgb(0, 0, 0); fill-opacity: 1; white-space: pre; opacity: 1;">d_mean</text></g><g class="ytick"><text text-anchor="end" x="167" y="7" transform="translate(0,566.47)" style="font-family: 'Times new roman'; font-size: 20px; fill: rgb(0, 0, 0); fill-opacity: 1; white-space: pre; opacity: 1;">g_std</text></g><g class="ytick"><text text-anchor="end" x="167" y="7" transform="translate(0,550.45)" style="font-family: 'Times new roman'; font-size: 20px; fill: rgb(0, 0, 0); fill-opacity: 1; white-space: pre; opacity: 1;">b_n_std</text></g><g class="ytick"><text text-anchor="end" x="167" y="7" transform="translate(0,534.44)" style="font-family: 'Times new roman'; font-size: 20px; fill: rgb(0, 0, 0); fill-opacity: 1; white-space: pre; opacity: 1;">b_std</text></g><g class="ytick"><text text-anchor="end" x="167" y="7" transform="translate(0,518.4200000000001)" style="font-family: 'Times new roman'; font-size: 20px; fill: rgb(0, 0, 0); fill-opacity: 1; white-space: pre; opacity: 1;">sef95_std</text></g><g class="ytick"><text text-anchor="end" x="167" y="7" transform="translate(0,502.4)" style="font-family: 'Times new roman'; font-size: 20px; fill: rgb(0, 0, 0); fill-opacity: 1; white-space: pre; opacity: 1;">p_e_8_std</text></g><g class="ytick"><text text-anchor="end" x="167" y="7" transform="translate(0,486.38)" style="font-family: 'Times new roman'; font-size: 20px; fill: rgb(0, 0, 0); fill-opacity: 1; white-space: pre; opacity: 1;">P1_mean</text></g><g class="ytick"><text text-anchor="end" x="167" y="7" transform="translate(0,470.36)" style="font-family: 'Times new roman'; font-size: 20px; fill: rgb(0, 0, 0); fill-opacity: 1; white-space: pre; opacity: 1;">se_std</text></g><g class="ytick"><text text-anchor="end" x="167" y="7" transform="translate(0,454.35)" style="font-family: 'Times new roman'; font-size: 20px; fill: rgb(0, 0, 0); fill-opacity: 1; white-space: pre; opacity: 1;">sef90_mean</text></g><g class="ytick"><text text-anchor="end" x="167" y="7" transform="translate(0,438.33)" style="font-family: 'Times new roman'; font-size: 20px; fill: rgb(0, 0, 0); fill-opacity: 1; white-space: pre; opacity: 1;">k_std</text></g><g class="ytick"><text text-anchor="end" x="167" y="7" transform="translate(0,422.31)" style="font-family: 'Times new roman'; font-size: 20px; fill: rgb(0, 0, 0); fill-opacity: 1; white-space: pre; opacity: 1;">sef90_std</text></g><g class="ytick"><text text-anchor="end" x="167" y="7" transform="translate(0,406.29)" style="font-family: 'Times new roman'; font-size: 20px; fill: rgb(0, 0, 0); fill-opacity: 1; white-space: pre; opacity: 1;">p_e_1_mean</text></g><g class="ytick"><text text-anchor="end" x="167" y="7" transform="translate(0,390.27)" style="font-family: 'Times new roman'; font-size: 20px; fill: rgb(0, 0, 0); fill-opacity: 1; white-space: pre; opacity: 1;">a_std</text></g><g class="ytick"><text text-anchor="end" x="167" y="7" transform="translate(0,374.25)" style="font-family: 'Times new roman'; font-size: 20px; fill: rgb(0, 0, 0); fill-opacity: 1; white-space: pre; opacity: 1;">p_e_4_std</text></g><g class="ytick"><text text-anchor="end" x="167" y="7" transform="translate(0,358.24)" style="font-family: 'Times new roman'; font-size: 20px; fill: rgb(0, 0, 0); fill-opacity: 1; white-space: pre; opacity: 1;">p_e_1_std</text></g><g class="ytick"><text text-anchor="end" x="167" y="7" transform="translate(0,342.22)" style="font-family: 'Times new roman'; font-size: 20px; fill: rgb(0, 0, 0); fill-opacity: 1; white-space: pre; opacity: 1;">g_mean</text></g><g class="ytick"><text text-anchor="end" x="167" y="7" transform="translate(0,326.2)" style="font-family: 'Times new roman'; font-size: 20px; fill: rgb(0, 0, 0); fill-opacity: 1; white-space: pre; opacity: 1;">CNV_std</text></g><g class="ytick"><text text-anchor="end" x="167" y="7" transform="translate(0,310.18)" style="font-family: 'Times new roman'; font-size: 20px; fill: rgb(0, 0, 0); fill-opacity: 1; white-space: pre; opacity: 1;">CNV_mean</text></g><g class="ytick"><text text-anchor="end" x="167" y="7" transform="translate(0,294.15999999999997)" style="font-family: 'Times new roman'; font-size: 20px; fill: rgb(0, 0, 0); fill-opacity: 1; white-space: pre; opacity: 1;">a_n_std</text></g><g class="ytick"><text text-anchor="end" x="167" y="7" transform="translate(0,278.15)" style="font-family: 'Times new roman'; font-size: 20px; fill: rgb(0, 0, 0); fill-opacity: 1; white-space: pre; opacity: 1;">p_e_2_mean</text></g><g class="ytick"><text text-anchor="end" x="167" y="7" transform="translate(0,262.13)" style="font-family: 'Times new roman'; font-size: 20px; fill: rgb(0, 0, 0); fill-opacity: 1; white-space: pre; opacity: 1;">g_n_mean</text></g><g class="ytick"><text text-anchor="end" x="167" y="7" transform="translate(0,246.11)" style="font-family: 'Times new roman'; font-size: 20px; fill: rgb(0, 0, 0); fill-opacity: 1; white-space: pre; opacity: 1;">t_mean</text></g><g class="ytick"><text text-anchor="end" x="167" y="7" transform="translate(0,230.09)" style="font-family: 'Times new roman'; font-size: 20px; fill: rgb(0, 0, 0); fill-opacity: 1; white-space: pre; opacity: 1;">a_n_mean</text></g><g class="ytick"><text text-anchor="end" x="167" y="7" transform="translate(0,214.07)" style="font-family: 'Times new roman'; font-size: 20px; fill: rgb(0, 0, 0); fill-opacity: 1; white-space: pre; opacity: 1;">msf_mean</text></g><g class="ytick"><text text-anchor="end" x="167" y="7" transform="translate(0,198.05)" style="font-family: 'Times new roman'; font-size: 20px; fill: rgb(0, 0, 0); fill-opacity: 1; white-space: pre; opacity: 1;">msf_std</text></g><g class="ytick"><text text-anchor="end" x="167" y="7" transform="translate(0,182.04)" style="font-family: 'Times new roman'; font-size: 20px; fill: rgb(0, 0, 0); fill-opacity: 1; white-space: pre; opacity: 1;">k_mean</text></g><g class="ytick"><text text-anchor="end" x="167" y="7" transform="translate(0,166.02)" style="font-family: 'Times new roman'; font-size: 20px; fill: rgb(0, 0, 0); fill-opacity: 1; white-space: pre; opacity: 1;">t_n_mean</text></g></g><g class="overaxes-above"/></g></g><g class="polarlayer"/><g class="smithlayer"/><g class="ternarylayer"/><g class="geolayer"/><g class="funnelarealayer"/><g class="pielayer"/><g class="iciclelayer"/><g class="treemaplayer"/><g class="sunburstlayer"/><g class="glimages"/><defs id="topdefs-55707b"><g class="clips"/></defs><g class="layer-above"><g class="imagelayer"/><g class="shapelayer"/></g><g class="infolayer"><g class="g-gtitle"><text class="gtitle" x="32.5" y="75" text-anchor="start" dy="0em" style="font-family: 'Times new roman'; font-size: 28px; fill: rgb(0, 0, 0); opacity: 1; font-weight: normal; white-space: pre;"><tspan class="line" dy="0em" x="32.5" y="75">FI of Top 10 Models dMW_vs_sMW </tspan><tspan class="line" dy="1.3em" x="32.5" y="75"> Average AUC 0.673 </tspan><tspan class="line" dy="2.6em" x="32.5" y="75"> Best AUC 0.717</tspan></text></g><g class="g-xtitle"><text class="xtitle" x="384" y="1087.3" text-anchor="middle" style="font-family: 'Times new roman'; font-size: 24px; fill: rgb(0, 0, 0); opacity: 1; font-weight: normal; white-space: pre;">Feature Importance</text></g><g class="g-ytitle" transform="translate(8.6279296875,0)"><text class="ytitle" transform="rotate(-90,12.371874999999989,590.5)" x="12.371874999999989" y="590.5" text-anchor="middle" style="font-family: 'Times new roman'; font-size: 24px; fill: rgb(0, 0, 0); opacity: 1; font-weight: normal; white-space: pre;">Feature</text></g></g></svg>