<svg class="main-svg" xmlns="http://www.w3.org/2000/svg" xmlns:xlink="http://www.w3.org/1999/xlink" width="650" height="1100" style="" viewBox="0 0 650 1100"><rect x="0" y="0" width="650" height="1100" style="fill: rgb(255, 255, 255); fill-opacity: 1;"/><defs id="defs-858754"><g class="clips"><clipPath id="clip858754xyplot" class="plotclip"><rect width="432" height="881"/></clipPath><clipPath class="axesclip" id="clip858754x"><rect x="168" y="0" width="432" height="1100"/></clipPath><clipPath class="axesclip" id="clip858754y"><rect x="0" y="150" width="650" height="881"/></clipPath><clipPath class="axesclip" id="clip858754xy"><rect x="168" y="150" width="432" height="881"/></clipPath></g><g class="gradients"/><g class="patterns"/></defs><g class="bglayer"/><g class="layer-below"><g class="imagelayer"/><g class="shapelayer"/></g><g class="cartesianlayer"><g class="subplot xy"><g class="layer-subplot"><g class="shapelayer"/><g class="imagelayer"/></g><g class="minor-gridlayer"><g class="x"/><g class="y"/></g><g class="gridlayer"><g class="x"><path class="xgrid crisp" transform="translate(254.4,0)" d="M0,150v881" style="stroke: rgb(235, 240, 248); stroke-opacity: 1; stroke-width: 1px;"/><path class="xgrid crisp" transform="translate(340.8,0)" d="M0,150v881" style="stroke: rgb(235, 240, 248); stroke-opacity: 1; stroke-width: 1px;"/><path class="xgrid crisp" transform="translate(427.2,0)" d="M0,150v881" style="stroke: rgb(235, 240, 248); stroke-opacity: 1; stroke-width: 1px;"/><path class="xgrid crisp" transform="translate(513.6,0)" d="M0,150v881" style="stroke: rgb(235, 240, 248); stroke-opacity: 1; stroke-width: 1px;"/></g><g class="y"/></g><g class="zerolinelayer"><path class="xzl zl crisp" transform="translate(168,0)" d="M0,150v881" style="stroke: rgb(235, 240, 248); stroke-opacity: 1; stroke-width: 2px;"/></g><path class="xlines-below"/><path class="ylines-below"/><g class="overlines-below"/><g class="xaxislayer-below"/><g class="yaxislayer-below"/><g class="overaxes-below"/><g class="plot" transform="translate(168,150)" clip-path="url(#clip858754xyplot)"><g class="boxlayer mlayer"><g class="trace boxes" style="opacity: 1;"><path class="box" d="M0,868.91V861.06M0,868.91V861.06H0V868.91ZM0,864.98H0M0,864.98H0M0,866.94V863.02M0,866.94V863.02" style="vector-effect: none; stroke-width: 2px; stroke: rgb(66, 185, 178); stroke-opacity: 1; fill: rgb(66, 185, 178); fill-opacity: 0.5;"/><path class="box" d="M0,852.89V845.04M0,852.89V845.04H0V852.89ZM0,848.96H0M0,848.96H0M0,850.93V847M0,850.93V847" style="vector-effect: none; stroke-width: 2px; stroke: rgb(66, 185, 178); stroke-opacity: 1; fill: rgb(66, 185, 178); fill-opacity: 0.5;"/><path class="box" d="M0,836.87V829.02M0,836.87V829.02H0V836.87ZM0,832.95H0M0,832.95H0M0,834.91V830.98M0,834.91V830.98" style="vector-effect: none; stroke-width: 2px; stroke: rgb(66, 185, 178); stroke-opacity: 1; fill: rgb(66, 185, 178); fill-opacity: 0.5;"/><path class="box" d="M0,820.85V813M0,820.85V813H0V820.85ZM0,816.93H0M0,816.93H0M0,818.89V814.97M0,818.89V814.97" style="vector-effect: none; stroke-width: 2px; stroke: rgb(66, 185, 178); stroke-opacity: 1; fill: rgb(66, 185, 178); fill-opacity: 0.5;"/><path class="box" d="M0,804.83V796.98M0,804.83V796.98H0V804.83ZM0,800.91H0M0,800.91H0M0,802.87V798.95M0,802.87V798.95" style="vector-effect: none; stroke-width: 2px; stroke: rgb(66, 185, 178); stroke-opacity: 1; fill: rgb(66, 185, 178); fill-opacity: 0.5;"/><path class="box" d="M1,788.82V780.97M0,788.82V780.97H4.01V788.82ZM0,784.89H0M4.01,784.89H5.46M0,786.85V782.93M5.46,786.85V782.93" style="vector-effect: none; stroke-width: 2px; stroke: rgb(66, 185, 178); stroke-opacity: 1; fill: rgb(66, 185, 178); fill-opacity: 0.5;"/><path class="box" d="M0,772.8V764.95M0,772.8V764.95H0V772.8ZM0,768.87H0M0,768.87H0M0,770.83V766.91M0,770.83V766.91" style="vector-effect: none; stroke-width: 2px; stroke: rgb(66, 185, 178); stroke-opacity: 1; fill: rgb(66, 185, 178); fill-opacity: 0.5;"/><path class="box" d="M1,756.78V748.93M0,756.78V748.93H3.98V756.78ZM0,752.85H0M3.98,752.85H8.63M0,754.82V750.89M8.63,754.82V750.89" style="vector-effect: none; stroke-width: 2px; stroke: rgb(66, 185, 178); stroke-opacity: 1; fill: rgb(66, 185, 178); fill-opacity: 0.5;"/><path class="box" d="M0,740.76V732.91M0,740.76V732.91H0V740.76ZM0,736.84H0M0,736.84H0M0,738.8V734.87M0,738.8V734.87" style="vector-effect: none; stroke-width: 2px; stroke: rgb(66, 185, 178); stroke-opacity: 1; fill: rgb(66, 185, 178); fill-opacity: 0.5;"/><path class="box" d="M1,724.74V716.89M0,724.74V716.89H4.62V724.74ZM0,720.82H0M4.62,720.82H11.11M0,722.78V718.86M11.11,722.78V718.86" style="vector-effect: none; stroke-width: 2px; stroke: rgb(66, 185, 178); stroke-opacity: 1; fill: rgb(66, 185, 178); fill-opacity: 0.5;"/><path class="box" d="M1,708.72V700.88M0,708.72V700.88H5.38V708.72ZM0,704.8H0M5.38,704.8H5.99M0,706.76V702.84M5.99,706.76V702.84" style="vector-effect: none; stroke-width: 2px; stroke: rgb(66, 185, 178); stroke-opacity: 1; fill: rgb(66, 185, 178); fill-opacity: 0.5;"/><path class="box" d="M1,692.71V684.86M0,692.71V684.86H7.78V692.71ZM0,688.78H0M7.78,688.78H10.34M0,690.74V686.82M10.34,690.74V686.82" style="vector-effect: none; stroke-width: 2px; stroke: rgb(66, 185, 178); stroke-opacity: 1; fill: rgb(66, 185, 178); fill-opacity: 0.5;"/><path class="box" d="M1,676.69V668.84M0,676.69V668.84H15.43V676.69ZM0,672.76H0M15.43,672.76H18.78M0,674.73V670.8M18.78,674.73V670.8" style="vector-effect: none; stroke-width: 2px; stroke: rgb(66, 185, 178); stroke-opacity: 1; fill: rgb(66, 185, 178); fill-opacity: 0.5;"/><path class="box" d="M5.14,660.67V652.82M0,660.67V652.82H10.8V660.67ZM0,656.75H0M10.8,656.75H11.68M0,658.71V654.78M11.68,658.71V654.78" style="vector-effect: none; stroke-width: 2px; stroke: rgb(66, 185, 178); stroke-opacity: 1; fill: rgb(66, 185, 178); fill-opacity: 0.5;"/><path class="box" d="M6.14,644.65V636.8M5.79,644.65V636.8H6.37V644.65ZM5.79,640.73H5.78M6.37,640.73H6.54M5.78,642.69V638.77M6.54,642.69V638.77" style="vector-effect: none; stroke-width: 2px; stroke: rgb(66, 185, 178); stroke-opacity: 1; fill: rgb(66, 185, 178); fill-opacity: 0.5;"/><path class="box" d="M2.87,628.63V620.78M0,628.63V620.78H13.59V628.63ZM0,624.71H0M13.59,624.71H17.99M0,626.67V622.75M17.99,626.67V622.75" style="vector-effect: none; stroke-width: 2px; stroke: rgb(66, 185, 178); stroke-opacity: 1; fill: rgb(66, 185, 178); fill-opacity: 0.5;"/><path class="box" d="M10.08,612.62V604.77M0,612.62V604.77H11.08V612.62ZM0,608.69H0M11.08,608.69H11.37M0,610.65V606.73M11.37,610.65V606.73" style="vector-effect: none; stroke-width: 2px; stroke: rgb(66, 185, 178); stroke-opacity: 1; fill: rgb(66, 185, 178); fill-opacity: 0.5;"/><path class="box" d="M10.94,596.6V588.75M10.29,596.6V588.75H11.08V596.6ZM10.29,592.67H9.39M11.08,592.67H11.68M9.39,594.63V590.71M11.68,594.63V590.71" style="vector-effect: none; stroke-width: 2px; stroke: rgb(66, 185, 178); stroke-opacity: 1; fill: rgb(66, 185, 178); fill-opacity: 0.5;"/><path class="box" d="M11.08,580.58V572.73M0,580.58V572.73H18.34V580.58ZM0,576.65H0M18.34,576.65H31.19M0,578.62V574.69M31.19,578.62V574.69" style="vector-effect: none; stroke-width: 2px; stroke: rgb(66, 185, 178); stroke-opacity: 1; fill: rgb(66, 185, 178); fill-opacity: 0.5;"/><path class="box" d="M10.36,564.56V556.71M5.91,564.56V556.71H14.65V564.56ZM5.91,560.64H0M14.65,560.64H21.74M0,562.6V558.67M21.74,562.6V558.67" style="vector-effect: none; stroke-width: 2px; stroke: rgb(66, 185, 178); stroke-opacity: 1; fill: rgb(66, 185, 178); fill-opacity: 0.5;"/><path class="box" d="M14.15,548.54V540.69M0,548.54V540.69H17.28V548.54ZM0,544.62H0M17.28,544.62H29.92M0,546.58V542.66M29.92,546.58V542.66" style="vector-effect: none; stroke-width: 2px; stroke: rgb(66, 185, 178); stroke-opacity: 1; fill: rgb(66, 185, 178); fill-opacity: 0.5;"/><path class="box" d="M18.46,532.52V524.68M0,532.52V524.68H21.6V532.52ZM0,528.6H0M21.6,528.6H25.41M0,530.56V526.64M25.41,530.56V526.64" style="vector-effect: none; stroke-width: 2px; stroke: rgb(66, 185, 178); stroke-opacity: 1; fill: rgb(66, 185, 178); fill-opacity: 0.5;"/><path class="box" d="M16.46,516.51V508.66M6.79,516.51V508.66H17.46V516.51ZM6.79,512.58H0M17.46,512.58H20.7M0,514.54V510.62M20.7,514.54V510.62" style="vector-effect: none; stroke-width: 2px; stroke: rgb(66, 185, 178); stroke-opacity: 1; fill: rgb(66, 185, 178); fill-opacity: 0.5;"/><path class="box" d="M13.85,500.49V492.64M5.55,500.49V492.64H17.97V500.49ZM5.55,496.56H3.57M17.97,496.56H22.18M3.57,498.53V494.6M22.18,498.53V494.6" style="vector-effect: none; stroke-width: 2px; stroke: rgb(66, 185, 178); stroke-opacity: 1; fill: rgb(66, 185, 178); fill-opacity: 0.5;"/><path class="box" d="M11.8,484.47V476.62M10.8,484.47V476.62H18.27V484.47ZM10.8,480.55H10.29M18.27,480.55H21.36M10.29,482.51V478.58M21.36,482.51V478.58" style="vector-effect: none; stroke-width: 2px; stroke: rgb(66, 185, 178); stroke-opacity: 1; fill: rgb(66, 185, 178); fill-opacity: 0.5;"/><path class="box" d="M9.96,468.45V460.6M0,468.45V460.6H26.73V468.45ZM0,464.53H0M26.73,464.53H59.78M0,466.49V462.57M59.78,466.49V462.57" style="vector-effect: none; stroke-width: 2px; stroke: rgb(66, 185, 178); stroke-opacity: 1; fill: rgb(66, 185, 178); fill-opacity: 0.5;"/><path class="box" d="M12.8,452.43V444.58M0,452.43V444.58H27V452.43ZM0,448.51H0M27,448.51H42.78M0,450.47V446.55M42.78,450.47V446.55" style="vector-effect: none; stroke-width: 2px; stroke: rgb(66, 185, 178); stroke-opacity: 1; fill: rgb(66, 185, 178); fill-opacity: 0.5;"/><path class="box" d="M10.61,436.42V428.57M0,436.42V428.57H22.74V436.42ZM0,432.49H0M22.74,432.49H49.28M0,434.45V430.53M49.28,434.45V430.53" style="vector-effect: none; stroke-width: 2px; stroke: rgb(66, 185, 178); stroke-opacity: 1; fill: rgb(66, 185, 178); fill-opacity: 0.5;"/><path class="box" d="M15.88,420.4V412.55M10.54,420.4V412.55H26.98V420.4ZM10.54,416.47H0M26.98,416.47H36.25M0,418.43V414.51M36.25,418.43V414.51" style="vector-effect: none; stroke-width: 2px; stroke: rgb(66, 185, 178); stroke-opacity: 1; fill: rgb(66, 185, 178); fill-opacity: 0.5;"/><path class="box" d="M23.04,404.38V396.53M9.66,404.38V396.53H27.87V404.38ZM9.66,400.45H5.96M27.87,400.45H31.19M5.96,402.42V398.49M31.19,402.42V398.49" style="vector-effect: none; stroke-width: 2px; stroke: rgb(66, 185, 178); stroke-opacity: 1; fill: rgb(66, 185, 178); fill-opacity: 0.5;"/><path class="box" d="M22.17,388.36V380.51M18.78,388.36V380.51H24V388.36ZM18.78,384.44H17.28M24,384.44H25.41M17.28,386.4V382.47M25.41,386.4V382.47" style="vector-effect: none; stroke-width: 2px; stroke: rgb(66, 185, 178); stroke-opacity: 1; fill: rgb(66, 185, 178); fill-opacity: 0.5;"/><path class="box" d="M22.35,372.34V364.49M21.6,372.34V364.49H23.35V372.34ZM21.6,368.42H20.57M23.35,368.42H25.09M20.57,370.38V366.46M25.09,370.38V366.46" style="vector-effect: none; stroke-width: 2px; stroke: rgb(66, 185, 178); stroke-opacity: 1; fill: rgb(66, 185, 178); fill-opacity: 0.5;"/><path class="box" d="M24.42,356.32V348.48M14.75,356.32V348.48H32.3V356.32ZM14.75,352.4H11.08M32.3,352.4H47.09M11.08,354.36V350.44M47.09,354.36V350.44" style="vector-effect: none; stroke-width: 2px; stroke: rgb(66, 185, 178); stroke-opacity: 1; fill: rgb(66, 185, 178); fill-opacity: 0.5;"/><path class="box" d="M31.63,340.31V332.46M7.61,340.31V332.46H41.14V340.31ZM7.61,336.38H0M41.14,336.38H44.19M0,338.34V334.42M44.19,338.34V334.42" style="vector-effect: none; stroke-width: 2px; stroke: rgb(66, 185, 178); stroke-opacity: 1; fill: rgb(66, 185, 178); fill-opacity: 0.5;"/><path class="box" d="M32.34,324.29V316.44M19.64,324.29V316.44H41.14V324.29ZM19.64,320.36H0M41.14,320.36H43.2M0,322.33V318.4M43.2,322.33V318.4" style="vector-effect: none; stroke-width: 2px; stroke: rgb(66, 185, 178); stroke-opacity: 1; fill: rgb(66, 185, 178); fill-opacity: 0.5;"/><path class="box" d="M26.23,308.27V300.42M24,308.27V300.42H31.05V308.27ZM24,304.35H18.78M31.05,304.35H41.28M18.78,306.31V302.38M41.28,306.31V302.38" style="vector-effect: none; stroke-width: 2px; stroke: rgb(66, 185, 178); stroke-opacity: 1; fill: rgb(66, 185, 178); fill-opacity: 0.5;"/><path class="box" d="M32.2,292.25V284.4M15.16,292.25V284.4H45.57V292.25ZM15.16,288.33H0M45.57,288.33H49.54M0,290.29V286.37M49.54,290.29V286.37" style="vector-effect: none; stroke-width: 2px; stroke: rgb(66, 185, 178); stroke-opacity: 1; fill: rgb(66, 185, 178); fill-opacity: 0.5;"/><path class="box" d="M24.07,276.23V268.38M20.57,276.23V268.38H39.27V276.23ZM20.57,272.31H17.28M39.27,272.31H61.71M17.28,274.27V270.35M61.71,274.27V270.35" style="vector-effect: none; stroke-width: 2px; stroke: rgb(66, 185, 178); stroke-opacity: 1; fill: rgb(66, 185, 178); fill-opacity: 0.5;"/><path class="box" d="M32.36,260.22V252.37M26.53,260.22V252.37H43.98V260.22ZM26.53,256.29H4.81M43.98,256.29H48.21M4.81,258.25V254.33M48.21,258.25V254.33" style="vector-effect: none; stroke-width: 2px; stroke: rgb(66, 185, 178); stroke-opacity: 1; fill: rgb(66, 185, 178); fill-opacity: 0.5;"/><path class="box" d="M35.64,244.2V236.35M27,244.2V236.35H42.62V244.2ZM27,240.27H17.28M42.62,240.27H48.93M17.28,242.23V238.31M48.93,242.23V238.31" style="vector-effect: none; stroke-width: 2px; stroke: rgb(66, 185, 178); stroke-opacity: 1; fill: rgb(66, 185, 178); fill-opacity: 0.5;"/><path class="box" d="M36.1,228.18V220.33M19.64,228.18V220.33H48.72V228.18ZM19.64,224.25H9.09M48.72,224.25H72.79M9.09,226.22V222.29M72.79,226.22V222.29" style="vector-effect: none; stroke-width: 2px; stroke: rgb(66, 185, 178); stroke-opacity: 1; fill: rgb(66, 185, 178); fill-opacity: 0.5;"/><path class="box" d="M35.33,212.16V204.31M24,212.16V204.31H48.82V212.16ZM24,208.24H0M48.82,208.24H59.51M0,210.2V206.27M59.51,210.2V206.27" style="vector-effect: none; stroke-width: 2px; stroke: rgb(66, 185, 178); stroke-opacity: 1; fill: rgb(66, 185, 178); fill-opacity: 0.5;"/><path class="box" d="M39.85,196.14V188.29M27.49,196.14V188.29H52.23V196.14ZM27.49,192.22H6M52.23,192.22H59.27M6,194.18V190.26M59.27,194.18V190.26" style="vector-effect: none; stroke-width: 2px; stroke: rgb(66, 185, 178); stroke-opacity: 1; fill: rgb(66, 185, 178); fill-opacity: 0.5;"/><path class="box" d="M44.46,180.12V172.28M21.6,180.12V172.28H55.64V180.12ZM21.6,176.2H4.11M55.64,176.2H63.12M4.11,178.16V174.24M63.12,178.16V174.24" style="vector-effect: none; stroke-width: 2px; stroke: rgb(66, 185, 178); stroke-opacity: 1; fill: rgb(66, 185, 178); fill-opacity: 0.5;"/><path class="box" d="M41.68,164.11V156.26M35.27,164.11V156.26H46.15V164.11ZM35.27,160.18H25.71M46.15,160.18H46.74M25.71,162.14V158.22M46.74,162.14V158.22" style="vector-effect: none; stroke-width: 2px; stroke: rgb(66, 185, 178); stroke-opacity: 1; fill: rgb(66, 185, 178); fill-opacity: 0.5;"/><path class="box" d="M59.17,148.09V140.24M56.44,148.09V140.24H62.64V148.09ZM56.44,144.16H56.44M62.64,144.16H65.51M56.44,146.13V142.2M65.51,146.13V142.2" style="vector-effect: none; stroke-width: 2px; stroke: rgb(66, 185, 178); stroke-opacity: 1; fill: rgb(66, 185, 178); fill-opacity: 0.5;"/><path class="box" d="M60.66,132.07V124.22M53.44,132.07V124.22H64.65V132.07ZM53.44,128.15H39.24M64.65,128.15H67.88M39.24,130.11V126.18M67.88,130.11V126.18" style="vector-effect: none; stroke-width: 2px; stroke: rgb(66, 185, 178); stroke-opacity: 1; fill: rgb(66, 185, 178); fill-opacity: 0.5;"/><path class="box" d="M67.53,116.05V108.2M48.35,116.05V108.2H69.6V116.05ZM48.35,112.13H39.84M69.6,112.13H93.26M39.84,114.09V110.17M93.26,114.09V110.17" style="vector-effect: none; stroke-width: 2px; stroke: rgb(66, 185, 178); stroke-opacity: 1; fill: rgb(66, 185, 178); fill-opacity: 0.5;"/><path class="box" d="M91.48,100.03V92.18M66.96,100.03V92.18H103.62V100.03ZM66.96,96.11H50.48M103.62,96.11H110.78M50.48,98.07V94.15M110.78,98.07V94.15" style="vector-effect: none; stroke-width: 2px; stroke: rgb(66, 185, 178); stroke-opacity: 1; fill: rgb(66, 185, 178); fill-opacity: 0.5;"/><path class="box" d="M98.63,84.02V76.17M66.15,84.02V76.17H137.8V84.02ZM66.15,80.09H56.1M137.8,80.09H164.94M56.1,82.05V78.13M164.94,82.05V78.13" style="vector-effect: none; stroke-width: 2px; stroke: rgb(66, 185, 178); stroke-opacity: 1; fill: rgb(66, 185, 178); fill-opacity: 0.5;"/><path class="box" d="M112.61,68V60.15M102.93,68V60.15H128.2V68ZM102.93,64.07H68.07M128.2,64.07H157.31M68.07,66.03V62.11M157.31,66.03V62.11" style="vector-effect: none; stroke-width: 2px; stroke: rgb(66, 185, 178); stroke-opacity: 1; fill: rgb(66, 185, 178); fill-opacity: 0.5;"/><path class="box" d="M128.48,51.98V44.13M111.84,51.98V44.13H139.9V51.98ZM111.84,48.05H102.71M139.9,48.05H143.73M102.71,50.02V46.09M143.73,50.02V46.09" style="vector-effect: none; stroke-width: 2px; stroke: rgb(66, 185, 178); stroke-opacity: 1; fill: rgb(66, 185, 178); fill-opacity: 0.5;"/><path class="box" d="M139.38,35.96V28.11M127.44,35.96V28.11H150.76V35.96ZM127.44,32.04H119.54M150.76,32.04H157.71M119.54,34V30.07M157.71,34V30.07" style="vector-effect: none; stroke-width: 2px; stroke: rgb(66, 185, 178); stroke-opacity: 1; fill: rgb(66, 185, 178); fill-opacity: 0.5;"/><path class="box" d="M263.04,19.94V12.09M252.59,19.94V12.09H290.76V19.94ZM252.59,16.02H212.44M290.76,16.02H304.42M212.44,17.98V14.06M304.42,17.98V14.06" style="vector-effect: none; stroke-width: 2px; stroke: rgb(66, 185, 178); stroke-opacity: 1; fill: rgb(66, 185, 178); fill-opacity: 0.5;"/><g class="points"/><g class="points"/><g class="points"/><g class="points"><path class="point" transform="translate(4.73,816.93)" d="M4,0A4,4 0 1,1 0,-4A4,4 0 0,1 4,0Z" style="opacity: 1; stroke-width: 0px; fill: rgb(66, 185, 178); fill-opacity: 1;"/><path class="point" transform="translate(5.73,816.93)" d="M4,0A4,4 0 1,1 0,-4A4,4 0 0,1 4,0Z" style="opacity: 1; stroke-width: 0px; fill: rgb(66, 185, 178); fill-opacity: 1;"/></g><g class="points"><path class="point" transform="translate(5.37,800.91)" d="M4,0A4,4 0 1,1 0,-4A4,4 0 0,1 4,0Z" style="opacity: 1; stroke-width: 0px; fill: rgb(66, 185, 178); fill-opacity: 1;"/><path class="point" transform="translate(9.39,800.91)" d="M4,0A4,4 0 1,1 0,-4A4,4 0 0,1 4,0Z" style="opacity: 1; stroke-width: 0px; fill: rgb(66, 185, 178); fill-opacity: 1;"/></g><g class="points"/><g class="points"><path class="point" transform="translate(17.28,768.87)" d="M4,0A4,4 0 1,1 0,-4A4,4 0 0,1 4,0Z" style="opacity: 1; stroke-width: 0px; fill: rgb(66, 185, 178); fill-opacity: 1;"/></g><g class="points"/><g class="points"><path class="point" transform="translate(5.34,736.84)" d="M4,0A4,4 0 1,1 0,-4A4,4 0 0,1 4,0Z" style="opacity: 1; stroke-width: 0px; fill: rgb(66, 185, 178); fill-opacity: 1;"/><path class="point" transform="translate(17.52,736.84)" d="M4,0A4,4 0 1,1 0,-4A4,4 0 0,1 4,0Z" style="opacity: 1; stroke-width: 0px; fill: rgb(66, 185, 178); fill-opacity: 1;"/></g><g class="points"/><g class="points"><path class="point" transform="translate(17.28,704.8)" d="M4,0A4,4 0 1,1 0,-4A4,4 0 0,1 4,0Z" style="opacity: 1; stroke-width: 0px; fill: rgb(66, 185, 178); fill-opacity: 1;"/></g><g class="points"/><g class="points"/><g class="points"/><g class="points"><path class="point" transform="translate(0,640.73)" d="M4,0A4,4 0 1,1 0,-4A4,4 0 0,1 4,0Z" style="opacity: 1; stroke-width: 0px; fill: rgb(66, 185, 178); fill-opacity: 1;"/><path class="point" transform="translate(10.54,640.73)" d="M4,0A4,4 0 1,1 0,-4A4,4 0 0,1 4,0Z" style="opacity: 1; stroke-width: 0px; fill: rgb(66, 185, 178); fill-opacity: 1;"/></g><g class="points"/><g class="points"/><g class="points"/><g class="points"/><g class="points"/><g class="points"/><g class="points"/><g class="points"/><g class="points"/><g class="points"/><g class="points"/><g class="points"/><g class="points"/><g class="points"/><g class="points"/><g class="points"/><g class="points"><path class="point" transform="translate(28.17,368.42)" d="M4,0A4,4 0 1,1 0,-4A4,4 0 0,1 4,0Z" style="opacity: 1; stroke-width: 0px; fill: rgb(66, 185, 178); fill-opacity: 1;"/></g><g class="points"/><g class="points"/><g class="points"/><g class="points"><path class="point" transform="translate(54,304.35)" d="M4,0A4,4 0 1,1 0,-4A4,4 0 0,1 4,0Z" style="opacity: 1; stroke-width: 0px; fill: rgb(66, 185, 178); fill-opacity: 1;"/></g><g class="points"/><g class="points"/><g class="points"/><g class="points"/><g class="points"/><g class="points"/><g class="points"/><g class="points"/><g class="points"><path class="point" transform="translate(65.08,160.18)" d="M4,0A4,4 0 1,1 0,-4A4,4 0 0,1 4,0Z" style="opacity: 1; stroke-width: 0px; fill: rgb(66, 185, 178); fill-opacity: 1;"/></g><g class="points"><path class="point" transform="translate(22.74,144.16)" d="M4,0A4,4 0 1,1 0,-4A4,4 0 0,1 4,0Z" style="opacity: 1; stroke-width: 0px; fill: rgb(66, 185, 178); fill-opacity: 1;"/><path class="point" transform="translate(41.14,144.16)" d="M4,0A4,4 0 1,1 0,-4A4,4 0 0,1 4,0Z" style="opacity: 1; stroke-width: 0px; fill: rgb(66, 185, 178); fill-opacity: 1;"/><path class="point" transform="translate(76.15,144.16)" d="M4,0A4,4 0 1,1 0,-4A4,4 0 0,1 4,0Z" style="opacity: 1; stroke-width: 0px; fill: rgb(66, 185, 178); fill-opacity: 1;"/></g><g class="points"/><g class="points"/><g class="points"><path class="point" transform="translate(186.31,96.11)" d="M4,0A4,4 0 1,1 0,-4A4,4 0 0,1 4,0Z" style="opacity: 1; stroke-width: 0px; fill: rgb(66, 185, 178); fill-opacity: 1;"/></g><g class="points"/><g class="points"/><g class="points"/><g class="points"><path class="point" transform="translate(218.88,32.04)" d="M4,0A4,4 0 1,1 0,-4A4,4 0 0,1 4,0Z" style="opacity: 1; stroke-width: 0px; fill: rgb(66, 185, 178); fill-opacity: 1;"/></g><g class="points"/></g></g></g><g class="overplot"/><path class="xlines-above crisp" d="M0,0" style="fill: none;"/><path class="ylines-above crisp" d="M0,0" style="fill: none;"/><g class="overlines-above"/><g class="xaxislayer-above"><g class="xtick"><text text-anchor="middle" x="0" y="1052" transform="translate(168,0)" style="font-family: 'Times new roman'; font-size: 20px; fill: rgb(0, 0, 0); fill-opacity: 1; white-space: pre; opacity: 1;">0</text></g><g class="xtick"><text text-anchor="middle" x="0" y="1052" style="font-family: 'Times new roman'; font-size: 20px; fill: rgb(0, 0, 0); fill-opacity: 1; white-space: pre; opacity: 1;" transform="translate(254.4,0)">0.05</text></g><g class="xtick"><text text-anchor="middle" x="0" y="1052" style="font-family: 'Times new roman'; font-size: 20px; fill: rgb(0, 0, 0); fill-opacity: 1; white-space: pre; opacity: 1;" transform="translate(340.8,0)">0.1</text></g><g class="xtick"><text text-anchor="middle" x="0" y="1052" style="font-family: 'Times new roman'; font-size: 20px; fill: rgb(0, 0, 0); fill-opacity: 1; white-space: pre; opacity: 1;" transform="translate(427.2,0)">0.15</text></g><g class="xtick"><text text-anchor="middle" x="0" y="1052" style="font-family: 'Times new roman'; font-size: 20px; fill: rgb(0, 0, 0); fill-opacity: 1; white-space: pre; opacity: 1;" transform="translate(513.6,0)">0.2</text></g><g class="xtick"><text text-anchor="middle" x="0" y="1052" style="font-family: 'Times new roman'; font-size: 20px; fill: rgb(0, 0, 0); fill-opacity: 1; white-space: pre; opacity: 1;" transform="translate(600,0)">0.25</text></g></g><g class="yaxislayer-above"><g class="ytick"><text text-anchor="end" x="167" y="7" transform="translate(0,1014.98)" style="font-family: 'Times new roman'; font-size: 20px; fill: rgb(0, 0, 0); fill-opacity: 1; white-space: pre; opacity: 1;">wSMI_8_std</text></g><g class="ytick"><text text-anchor="end" x="167" y="7" transform="translate(0,998.96)" style="font-family: 'Times new roman'; font-size: 20px; fill: rgb(0, 0, 0); fill-opacity: 1; white-space: pre; opacity: 1;">t_n_std</text></g><g class="ytick"><text text-anchor="end" x="167" y="7" transform="translate(0,982.95)" style="font-family: 'Times new roman'; font-size: 20px; fill: rgb(0, 0, 0); fill-opacity: 1; white-space: pre; opacity: 1;">a_mean</text></g><g class="ytick"><text text-anchor="end" x="167" y="7" transform="translate(0,966.93)" style="font-family: 'Times new roman'; font-size: 20px; fill: rgb(0, 0, 0); fill-opacity: 1; white-space: pre; opacity: 1;">P3a_std</text></g><g class="ytick"><text text-anchor="end" x="167" y="7" transform="translate(0,950.91)" style="font-family: 'Times new roman'; font-size: 20px; fill: rgb(0, 0, 0); fill-opacity: 1; white-space: pre; opacity: 1;">d_n_std</text></g><g class="ytick"><text text-anchor="end" x="167" y="7" transform="translate(0,934.89)" style="font-family: 'Times new roman'; font-size: 20px; fill: rgb(0, 0, 0); fill-opacity: 1; white-space: pre; opacity: 1;">p_e_4_std</text></g><g class="ytick"><text text-anchor="end" x="167" y="7" transform="translate(0,918.87)" style="font-family: 'Times new roman'; font-size: 20px; fill: rgb(0, 0, 0); fill-opacity: 1; white-space: pre; opacity: 1;">wSMI_4_std</text></g><g class="ytick"><text text-anchor="end" x="167" y="7" transform="translate(0,902.85)" style="font-family: 'Times new roman'; font-size: 20px; fill: rgb(0, 0, 0); fill-opacity: 1; white-space: pre; opacity: 1;">P3b_std</text></g><g class="ytick"><text text-anchor="end" x="167" y="7" transform="translate(0,886.84)" style="font-family: 'Times new roman'; font-size: 20px; fill: rgb(0, 0, 0); fill-opacity: 1; white-space: pre; opacity: 1;">b_mean</text></g><g class="ytick"><text text-anchor="end" x="167" y="7" transform="translate(0,870.82)" style="font-family: 'Times new roman'; font-size: 20px; fill: rgb(0, 0, 0); fill-opacity: 1; white-space: pre; opacity: 1;">P3a_mean</text></g><g class="ytick"><text text-anchor="end" x="167" y="7" transform="translate(0,854.8)" style="font-family: 'Times new roman'; font-size: 20px; fill: rgb(0, 0, 0); fill-opacity: 1; white-space: pre; opacity: 1;">sef95_std</text></g><g class="ytick"><text text-anchor="end" x="167" y="7" transform="translate(0,838.78)" style="font-family: 'Times new roman'; font-size: 20px; fill: rgb(0, 0, 0); fill-opacity: 1; white-space: pre; opacity: 1;">g_n_std</text></g><g class="ytick"><text text-anchor="end" x="167" y="7" transform="translate(0,822.76)" style="font-family: 'Times new roman'; font-size: 20px; fill: rgb(0, 0, 0); fill-opacity: 1; white-space: pre; opacity: 1;">wSMI_8_mean</text></g><g class="ytick"><text text-anchor="end" x="167" y="7" transform="translate(0,806.75)" style="font-family: 'Times new roman'; font-size: 20px; fill: rgb(0, 0, 0); fill-opacity: 1; white-space: pre; opacity: 1;">wSMI_1_mean</text></g><g class="ytick"><text text-anchor="end" x="167" y="7" transform="translate(0,790.73)" style="font-family: 'Times new roman'; font-size: 20px; fill: rgb(0, 0, 0); fill-opacity: 1; white-space: pre; opacity: 1;">p_e_1_mean</text></g><g class="ytick"><text text-anchor="end" x="167" y="7" transform="translate(0,774.71)" style="font-family: 'Times new roman'; font-size: 20px; fill: rgb(0, 0, 0); fill-opacity: 1; white-space: pre; opacity: 1;">g_std</text></g><g class="ytick"><text text-anchor="end" x="167" y="7" transform="translate(0,758.69)" style="font-family: 'Times new roman'; font-size: 20px; fill: rgb(0, 0, 0); fill-opacity: 1; white-space: pre; opacity: 1;">sef90_mean</text></g><g class="ytick"><text text-anchor="end" x="167" y="7" transform="translate(0,742.67)" style="font-family: 'Times new roman'; font-size: 20px; fill: rgb(0, 0, 0); fill-opacity: 1; white-space: pre; opacity: 1;">p_e_2_mean</text></g><g class="ytick"><text text-anchor="end" x="167" y="7" transform="translate(0,726.65)" style="font-family: 'Times new roman'; font-size: 20px; fill: rgb(0, 0, 0); fill-opacity: 1; white-space: pre; opacity: 1;">p_e_4_mean</text></g><g class="ytick"><text text-anchor="end" x="167" y="7" transform="translate(0,710.64)" style="font-family: 'Times new roman'; font-size: 20px; fill: rgb(0, 0, 0); fill-opacity: 1; white-space: pre; opacity: 1;">se_mean</text></g><g class="ytick"><text text-anchor="end" x="167" y="7" transform="translate(0,694.62)" style="font-family: 'Times new roman'; font-size: 20px; fill: rgb(0, 0, 0); fill-opacity: 1; white-space: pre; opacity: 1;">p_e_8_std</text></g><g class="ytick"><text text-anchor="end" x="167" y="7" transform="translate(0,678.6)" style="font-family: 'Times new roman'; font-size: 20px; fill: rgb(0, 0, 0); fill-opacity: 1; white-space: pre; opacity: 1;">wSMI_2_mean</text></g><g class="ytick"><text text-anchor="end" x="167" y="7" transform="translate(0,662.58)" style="font-family: 'Times new roman'; font-size: 20px; fill: rgb(0, 0, 0); fill-opacity: 1; white-space: pre; opacity: 1;">t_n_mean</text></g><g class="ytick"><text text-anchor="end" x="167" y="7" transform="translate(0,646.56)" style="font-family: 'Times new roman'; font-size: 20px; fill: rgb(0, 0, 0); fill-opacity: 1; white-space: pre; opacity: 1;">g_mean</text></g><g class="ytick"><text text-anchor="end" x="167" y="7" transform="translate(0,630.55)" style="font-family: 'Times new roman'; font-size: 20px; fill: rgb(0, 0, 0); fill-opacity: 1; white-space: pre; opacity: 1;">wSMI_1_std</text></g><g class="ytick"><text text-anchor="end" x="167" y="7" transform="translate(0,614.53)" style="font-family: 'Times new roman'; font-size: 20px; fill: rgb(0, 0, 0); fill-opacity: 1; white-space: pre; opacity: 1;">CNV_std</text></g><g class="ytick"><text text-anchor="end" x="167" y="7" transform="translate(0,598.51)" style="font-family: 'Times new roman'; font-size: 20px; fill: rgb(0, 0, 0); fill-opacity: 1; white-space: pre; opacity: 1;">b_n_std</text></g><g class="ytick"><text text-anchor="end" x="167" y="7" transform="translate(0,582.49)" style="font-family: 'Times new roman'; font-size: 20px; fill: rgb(0, 0, 0); fill-opacity: 1; white-space: pre; opacity: 1;">k_std</text></g><g class="ytick"><text text-anchor="end" x="167" y="7" transform="translate(0,566.47)" style="font-family: 'Times new roman'; font-size: 20px; fill: rgb(0, 0, 0); fill-opacity: 1; white-space: pre; opacity: 1;">P1_mean</text></g><g class="ytick"><text text-anchor="end" x="167" y="7" transform="translate(0,550.45)" style="font-family: 'Times new roman'; font-size: 20px; fill: rgb(0, 0, 0); fill-opacity: 1; white-space: pre; opacity: 1;">P1_std</text></g><g class="ytick"><text text-anchor="end" x="167" y="7" transform="translate(0,534.44)" style="font-family: 'Times new roman'; font-size: 20px; fill: rgb(0, 0, 0); fill-opacity: 1; white-space: pre; opacity: 1;">t_mean</text></g><g class="ytick"><text text-anchor="end" x="167" y="7" transform="translate(0,518.4200000000001)" style="font-family: 'Times new roman'; font-size: 20px; fill: rgb(0, 0, 0); fill-opacity: 1; white-space: pre; opacity: 1;">sef95_mean</text></g><g class="ytick"><text text-anchor="end" x="167" y="7" transform="translate(0,502.4)" style="font-family: 'Times new roman'; font-size: 20px; fill: rgb(0, 0, 0); fill-opacity: 1; white-space: pre; opacity: 1;">a_n_std</text></g><g class="ytick"><text text-anchor="end" x="167" y="7" transform="translate(0,486.38)" style="font-family: 'Times new roman'; font-size: 20px; fill: rgb(0, 0, 0); fill-opacity: 1; white-space: pre; opacity: 1;">d_mean</text></g><g class="ytick"><text text-anchor="end" x="167" y="7" transform="translate(0,470.36)" style="font-family: 'Times new roman'; font-size: 20px; fill: rgb(0, 0, 0); fill-opacity: 1; white-space: pre; opacity: 1;">b_std</text></g><g class="ytick"><text text-anchor="end" x="167" y="7" transform="translate(0,454.35)" style="font-family: 'Times new roman'; font-size: 20px; fill: rgb(0, 0, 0); fill-opacity: 1; white-space: pre; opacity: 1;">t_std</text></g><g class="ytick"><text text-anchor="end" x="167" y="7" transform="translate(0,438.33)" style="font-family: 'Times new roman'; font-size: 20px; fill: rgb(0, 0, 0); fill-opacity: 1; white-space: pre; opacity: 1;">wSMI_4_mean</text></g><g class="ytick"><text text-anchor="end" x="167" y="7" transform="translate(0,422.31)" style="font-family: 'Times new roman'; font-size: 20px; fill: rgb(0, 0, 0); fill-opacity: 1; white-space: pre; opacity: 1;">d_std</text></g><g class="ytick"><text text-anchor="end" x="167" y="7" transform="translate(0,406.29)" style="font-family: 'Times new roman'; font-size: 20px; fill: rgb(0, 0, 0); fill-opacity: 1; white-space: pre; opacity: 1;">wSMI_2_std</text></g><g class="ytick"><text text-anchor="end" x="167" y="7" transform="translate(0,390.27)" style="font-family: 'Times new roman'; font-size: 20px; fill: rgb(0, 0, 0); fill-opacity: 1; white-space: pre; opacity: 1;">se_std</text></g><g class="ytick"><text text-anchor="end" x="167" y="7" transform="translate(0,374.25)" style="font-family: 'Times new roman'; font-size: 20px; fill: rgb(0, 0, 0); fill-opacity: 1; white-space: pre; opacity: 1;">msf_std</text></g><g class="ytick"><text text-anchor="end" x="167" y="7" transform="translate(0,358.24)" style="font-family: 'Times new roman'; font-size: 20px; fill: rgb(0, 0, 0); fill-opacity: 1; white-space: pre; opacity: 1;">sef90_std</text></g><g class="ytick"><text text-anchor="end" x="167" y="7" transform="translate(0,342.22)" style="font-family: 'Times new roman'; font-size: 20px; fill: rgb(0, 0, 0); fill-opacity: 1; white-space: pre; opacity: 1;">P3b_mean</text></g><g class="ytick"><text text-anchor="end" x="167" y="7" transform="translate(0,326.2)" style="font-family: 'Times new roman'; font-size: 20px; fill: rgb(0, 0, 0); fill-opacity: 1; white-space: pre; opacity: 1;">CNV_mean</text></g><g class="ytick"><text text-anchor="end" x="167" y="7" transform="translate(0,310.18)" style="font-family: 'Times new roman'; font-size: 20px; fill: rgb(0, 0, 0); fill-opacity: 1; white-space: pre; opacity: 1;">b_n_mean</text></g><g class="ytick"><text text-anchor="end" x="167" y="7" transform="translate(0,294.15999999999997)" style="font-family: 'Times new roman'; font-size: 20px; fill: rgb(0, 0, 0); fill-opacity: 1; white-space: pre; opacity: 1;">g_n_mean</text></g><g class="ytick"><text text-anchor="end" x="167" y="7" transform="translate(0,278.15)" style="font-family: 'Times new roman'; font-size: 20px; fill: rgb(0, 0, 0); fill-opacity: 1; white-space: pre; opacity: 1;">k_mean</text></g><g class="ytick"><text text-anchor="end" x="167" y="7" transform="translate(0,262.13)" style="font-family: 'Times new roman'; font-size: 20px; fill: rgb(0, 0, 0); fill-opacity: 1; white-space: pre; opacity: 1;">msf_mean</text></g><g class="ytick"><text text-anchor="end" x="167" y="7" transform="translate(0,246.11)" style="font-family: 'Times new roman'; font-size: 20px; fill: rgb(0, 0, 0); fill-opacity: 1; white-space: pre; opacity: 1;">p_e_8_mean</text></g><g class="ytick"><text text-anchor="end" x="167" y="7" transform="translate(0,230.09)" style="font-family: 'Times new roman'; font-size: 20px; fill: rgb(0, 0, 0); fill-opacity: 1; white-space: pre; opacity: 1;">d_n_mean</text></g><g class="ytick"><text text-anchor="end" x="167" y="7" transform="translate(0,214.07)" style="font-family: 'Times new roman'; font-size: 20px; fill: rgb(0, 0, 0); fill-opacity: 1; white-space: pre; opacity: 1;">p_e_1_std</text></g><g class="ytick"><text text-anchor="end" x="167" y="7" transform="translate(0,198.05)" style="font-family: 'Times new roman'; font-size: 20px; fill: rgb(0, 0, 0); fill-opacity: 1; white-space: pre; opacity: 1;">a_n_mean</text></g><g class="ytick"><text text-anchor="end" x="167" y="7" transform="translate(0,182.04)" style="font-family: 'Times new roman'; font-size: 20px; fill: rgb(0, 0, 0); fill-opacity: 1; white-space: pre; opacity: 1;">p_e_2_std</text></g><g class="ytick"><text text-anchor="end" x="167" y="7" transform="translate(0,166.02)" style="font-family: 'Times new roman'; font-size: 20px; fill: rgb(0, 0, 0); fill-opacity: 1; white-space: pre; opacity: 1;">a_std</text></g></g><g class="overaxes-above"/></g></g><g class="polarlayer"/><g class="smithlayer"/><g class="ternarylayer"/><g class="geolayer"/><g class="funnelarealayer"/><g class="pielayer"/><g class="iciclelayer"/><g class="treemaplayer"/><g class="sunburstlayer"/><g class="glimages"/><defs id="topdefs-858754"><g class="clips"/></defs><g class="layer-above"><g class="imagelayer"/><g class="shapelayer"/></g><g class="infolayer"><g class="g-gtitle"><text class="gtitle" x="32.5" y="75" text-anchor="start" dy="0em" style="font-family: 'Times new roman'; font-size: 28px; fill: rgb(0, 0, 0); opacity: 1; font-weight: normal; white-space: pre;"><tspan class="line" dy="0em" x="32.5" y="75">FI of Top 10 Models dMW_vs_sMW </tspan><tspan class="line" dy="1.3em" x="32.5" y="75"> Average AUC 0.66 </tspan><tspan class="line" dy="2.6em" x="32.5" y="75"> Best AUC 0.682</tspan></text></g><g class="g-xtitle"><text class="xtitle" x="384" y="1087.3" text-anchor="middle" style="font-family: 'Times new roman'; font-size: 24px; fill: rgb(0, 0, 0); opacity: 1; font-weight: normal; white-space: pre;">Feature Importance</text></g><g class="g-ytitle" transform="translate(8.6279296875,0)"><text class="ytitle" transform="rotate(-90,12.371874999999989,590.5)" x="12.371874999999989" y="590.5" text-anchor="middle" style="font-family: 'Times new roman'; font-size: 24px; fill: rgb(0, 0, 0); opacity: 1; font-weight: normal; white-space: pre;">Feature</text></g></g></svg>