<svg class="main-svg" xmlns="http://www.w3.org/2000/svg" xmlns:xlink="http://www.w3.org/1999/xlink" width="650" height="1100" style="" viewBox="0 0 650 1100"><rect x="0" y="0" width="650" height="1100" style="fill: rgb(255, 255, 255); fill-opacity: 1;"/><defs id="defs-c74b99"><g class="clips"><clipPath id="clipc74b99xyplot" class="plotclip"><rect width="432" height="881"/></clipPath><clipPath class="axesclip" id="clipc74b99x"><rect x="168" y="0" width="432" height="1100"/></clipPath><clipPath class="axesclip" id="clipc74b99y"><rect x="0" y="150" width="650" height="881"/></clipPath><clipPath class="axesclip" id="clipc74b99xy"><rect x="168" y="150" width="432" height="881"/></clipPath></g><g class="gradients"/><g class="patterns"/></defs><g class="bglayer"/><g class="layer-below"><g class="imagelayer"/><g class="shapelayer"/></g><g class="cartesianlayer"><g class="subplot xy"><g class="layer-subplot"><g class="shapelayer"/><g class="imagelayer"/></g><g class="minor-gridlayer"><g class="x"/><g class="y"/></g><g class="gridlayer"><g class="x"><path class="xgrid crisp" transform="translate(254.4,0)" d="M0,150v881" style="stroke: rgb(235, 240, 248); stroke-opacity: 1; stroke-width: 1px;"/><path class="xgrid crisp" transform="translate(340.8,0)" d="M0,150v881" style="stroke: rgb(235, 240, 248); stroke-opacity: 1; stroke-width: 1px;"/><path class="xgrid crisp" transform="translate(427.2,0)" d="M0,150v881" style="stroke: rgb(235, 240, 248); stroke-opacity: 1; stroke-width: 1px;"/><path class="xgrid crisp" transform="translate(513.6,0)" d="M0,150v881" style="stroke: rgb(235, 240, 248); stroke-opacity: 1; stroke-width: 1px;"/></g><g class="y"/></g><g class="zerolinelayer"><path class="xzl zl crisp" transform="translate(168,0)" d="M0,150v881" style="stroke: rgb(235, 240, 248); stroke-opacity: 1; stroke-width: 2px;"/></g><path class="xlines-below"/><path class="ylines-below"/><g class="overlines-below"/><g class="xaxislayer-below"/><g class="yaxislayer-below"/><g class="overaxes-below"/><g class="plot" transform="translate(168,150)" clip-path="url(#clipc74b99xyplot)"><g class="boxlayer mlayer"><g class="trace boxes" style="opacity: 1;"><path class="box" d="M1,868.91V861.06M0,868.91V861.06H2.03V868.91ZM0,864.98H0M2.03,864.98H3.31M0,866.94V863.02M3.31,866.94V863.02" style="vector-effect: none; stroke-width: 2px; stroke: rgb(154, 197, 41); stroke-opacity: 1; fill: rgb(154, 197, 41); fill-opacity: 0.5;"/><path class="box" d="M0,852.89V845.04M0,852.89V845.04H0.8V852.89ZM0,848.96H0M0.8,848.96H0.8M0,850.93V847M0.8,850.93V847" style="vector-effect: none; stroke-width: 2px; stroke: rgb(154, 197, 41); stroke-opacity: 1; fill: rgb(154, 197, 41); fill-opacity: 0.5;"/><path class="box" d="M0,836.87V829.02M0,836.87V829.02H0V836.87ZM0,832.95H0M0,832.95H0M0,834.91V830.98M0,834.91V830.98" style="vector-effect: none; stroke-width: 2px; stroke: rgb(154, 197, 41); stroke-opacity: 1; fill: rgb(154, 197, 41); fill-opacity: 0.5;"/><path class="box" d="M1,820.85V813M0,820.85V813H6.77V820.85ZM0,816.93H0M6.77,816.93H7.17M0,818.89V814.97M7.17,818.89V814.97" style="vector-effect: none; stroke-width: 2px; stroke: rgb(154, 197, 41); stroke-opacity: 1; fill: rgb(154, 197, 41); fill-opacity: 0.5;"/><path class="box" d="M1.14,804.83V796.98M0,804.83V796.98H5.08V804.83ZM0,800.91H0M5.08,800.91H5.8M0,802.87V798.95M5.8,802.87V798.95" style="vector-effect: none; stroke-width: 2px; stroke: rgb(154, 197, 41); stroke-opacity: 1; fill: rgb(154, 197, 41); fill-opacity: 0.5;"/><path class="box" d="M5.29,788.82V780.97M2.59,788.82V780.97H7.14V788.82ZM2.59,784.89H0M7.14,784.89H8.31M0,786.85V782.93M8.31,786.85V782.93" style="vector-effect: none; stroke-width: 2px; stroke: rgb(154, 197, 41); stroke-opacity: 1; fill: rgb(154, 197, 41); fill-opacity: 0.5;"/><path class="box" d="M4.02,772.8V764.95M1.3,772.8V764.95H12.4V772.8ZM1.3,768.87H0M12.4,768.87H13.1M0,770.83V766.91M13.1,770.83V766.91" style="vector-effect: none; stroke-width: 2px; stroke: rgb(154, 197, 41); stroke-opacity: 1; fill: rgb(154, 197, 41); fill-opacity: 0.5;"/><path class="box" d="M4.88,756.78V748.93M2.92,756.78V748.93H9.25V756.78ZM2.92,752.85H1.45M9.25,752.85H13.7M1.45,754.82V750.89M13.7,754.82V750.89" style="vector-effect: none; stroke-width: 2px; stroke: rgb(154, 197, 41); stroke-opacity: 1; fill: rgb(154, 197, 41); fill-opacity: 0.5;"/><path class="box" d="M8.56,740.76V732.91M8.31,740.76V732.91H8.64V740.76ZM8.31,736.84H8.31M8.64,736.84H8.64M8.31,738.8V734.87M8.64,738.8V734.87" style="vector-effect: none; stroke-width: 2px; stroke: rgb(154, 197, 41); stroke-opacity: 1; fill: rgb(154, 197, 41); fill-opacity: 0.5;"/><path class="box" d="M6.48,724.74V716.89M5.26,724.74V716.89H8.66V724.74ZM5.26,720.82H5.06M8.66,720.82H10.8M5.06,722.78V718.86M10.8,722.78V718.86" style="vector-effect: none; stroke-width: 2px; stroke: rgb(154, 197, 41); stroke-opacity: 1; fill: rgb(154, 197, 41); fill-opacity: 0.5;"/><path class="box" d="M9.24,708.72V700.88M5.87,708.72V700.88H10.82V708.72ZM5.87,704.8H0M10.82,704.8H16.66M0,706.76V702.84M16.66,706.76V702.84" style="vector-effect: none; stroke-width: 2px; stroke: rgb(154, 197, 41); stroke-opacity: 1; fill: rgb(154, 197, 41); fill-opacity: 0.5;"/><path class="box" d="M11.74,692.71V684.86M0,692.71V684.86H14.23V692.71ZM0,688.78H0M14.23,688.78H14.75M0,690.74V686.82M14.75,690.74V686.82" style="vector-effect: none; stroke-width: 2px; stroke: rgb(154, 197, 41); stroke-opacity: 1; fill: rgb(154, 197, 41); fill-opacity: 0.5;"/><path class="box" d="M9,676.69V668.84M8,676.69V668.84H12.18V676.69ZM8,672.76H8M12.18,672.76H17.78M8,674.73V670.8M17.78,674.73V670.8" style="vector-effect: none; stroke-width: 2px; stroke: rgb(154, 197, 41); stroke-opacity: 1; fill: rgb(154, 197, 41); fill-opacity: 0.5;"/><path class="box" d="M9.15,660.67V652.82M8.15,660.67V652.82H10.56V660.67ZM8.15,656.75H8.15M10.56,656.75H10.56M8.15,658.71V654.78M10.56,658.71V654.78" style="vector-effect: none; stroke-width: 2px; stroke: rgb(154, 197, 41); stroke-opacity: 1; fill: rgb(154, 197, 41); fill-opacity: 0.5;"/><path class="box" d="M9.26,644.65V636.8M8.31,644.65V636.8H10.26V644.65ZM8.31,640.73H8.15M10.26,640.73H10.26M8.15,642.69V638.77M10.26,642.69V638.77" style="vector-effect: none; stroke-width: 2px; stroke: rgb(154, 197, 41); stroke-opacity: 1; fill: rgb(154, 197, 41); fill-opacity: 0.5;"/><path class="box" d="M11.69,628.63V620.78M5.93,628.63V620.78H13.6V628.63ZM5.93,624.71H5.47M13.6,624.71H14.62M5.47,626.67V622.75M14.62,626.67V622.75" style="vector-effect: none; stroke-width: 2px; stroke: rgb(154, 197, 41); stroke-opacity: 1; fill: rgb(154, 197, 41); fill-opacity: 0.5;"/><path class="box" d="M13.74,612.62V604.77M8,612.62V604.77H16.79V612.62ZM8,608.69H5.15M16.79,608.69H24.95M5.15,610.65V606.73M24.95,610.65V606.73" style="vector-effect: none; stroke-width: 2px; stroke: rgb(154, 197, 41); stroke-opacity: 1; fill: rgb(154, 197, 41); fill-opacity: 0.5;"/><path class="box" d="M13.74,596.6V588.75M12.74,596.6V588.75H15.16V596.6ZM12.74,592.67H10.29M15.16,592.67H16.65M10.29,594.63V590.71M16.65,594.63V590.71" style="vector-effect: none; stroke-width: 2px; stroke: rgb(154, 197, 41); stroke-opacity: 1; fill: rgb(154, 197, 41); fill-opacity: 0.5;"/><path class="box" d="M13.3,580.58V572.73M9.29,580.58V572.73H18.82V580.58ZM9.29,576.65H3.46M18.82,576.65H28.74M3.46,578.62V574.69M28.74,578.62V574.69" style="vector-effect: none; stroke-width: 2px; stroke: rgb(154, 197, 41); stroke-opacity: 1; fill: rgb(154, 197, 41); fill-opacity: 0.5;"/><path class="box" d="M15.17,564.56V556.71M12.55,564.56V556.71H16.57V564.56ZM12.55,560.64H9M16.57,560.64H18.69M9,562.6V558.67M18.69,562.6V558.67" style="vector-effect: none; stroke-width: 2px; stroke: rgb(154, 197, 41); stroke-opacity: 1; fill: rgb(154, 197, 41); fill-opacity: 0.5;"/><path class="box" d="M17.84,548.54V540.69M10.8,548.54V540.69H18.84V548.54ZM10.8,544.62H9.39M18.84,544.62H25.41M9.39,546.58V542.66M25.41,546.58V542.66" style="vector-effect: none; stroke-width: 2px; stroke: rgb(154, 197, 41); stroke-opacity: 1; fill: rgb(154, 197, 41); fill-opacity: 0.5;"/><path class="box" d="M17.53,532.52V524.68M13.95,532.52V524.68H19.24V532.52ZM13.95,528.6H12.51M19.24,528.6H22.36M12.51,530.56V526.64M22.36,530.56V526.64" style="vector-effect: none; stroke-width: 2px; stroke: rgb(154, 197, 41); stroke-opacity: 1; fill: rgb(154, 197, 41); fill-opacity: 0.5;"/><path class="box" d="M18.46,516.51V508.66M14.93,516.51V508.66H20.44V516.51ZM14.93,512.58H8.19M20.44,512.58H27.72M8.19,514.54V510.62M27.72,514.54V510.62" style="vector-effect: none; stroke-width: 2px; stroke: rgb(154, 197, 41); stroke-opacity: 1; fill: rgb(154, 197, 41); fill-opacity: 0.5;"/><path class="box" d="M18.41,500.49V492.64M14.81,500.49V492.64H22.96V500.49ZM14.81,496.56H14.49M22.96,496.56H24.73M14.49,498.53V494.6M24.73,498.53V494.6" style="vector-effect: none; stroke-width: 2px; stroke: rgb(154, 197, 41); stroke-opacity: 1; fill: rgb(154, 197, 41); fill-opacity: 0.5;"/><path class="box" d="M19.77,484.47V476.62M12.72,484.47V476.62H25.82V484.47ZM12.72,480.55H8.87M25.82,480.55H27.85M8.87,482.51V478.58M27.85,482.51V478.58" style="vector-effect: none; stroke-width: 2px; stroke: rgb(154, 197, 41); stroke-opacity: 1; fill: rgb(154, 197, 41); fill-opacity: 0.5;"/><path class="box" d="M21.57,468.45V460.6M10.97,468.45V460.6H26.19V468.45ZM10.97,464.53H7.69M26.19,464.53H32.4M7.69,466.49V462.57M32.4,466.49V462.57" style="vector-effect: none; stroke-width: 2px; stroke: rgb(154, 197, 41); stroke-opacity: 1; fill: rgb(154, 197, 41); fill-opacity: 0.5;"/><path class="box" d="M23.74,452.43V444.58M18.52,452.43V444.58H28.09V452.43ZM18.52,448.51H11.12M28.09,448.51H28.6M11.12,450.47V446.55M28.6,450.47V446.55" style="vector-effect: none; stroke-width: 2px; stroke: rgb(154, 197, 41); stroke-opacity: 1; fill: rgb(154, 197, 41); fill-opacity: 0.5;"/><path class="box" d="M22.52,436.42V428.57M17.47,436.42V428.57H25.3V436.42ZM17.47,432.49H16.78M25.3,432.49H30.3M16.78,434.45V430.53M30.3,434.45V430.53" style="vector-effect: none; stroke-width: 2px; stroke: rgb(154, 197, 41); stroke-opacity: 1; fill: rgb(154, 197, 41); fill-opacity: 0.5;"/><path class="box" d="M28.32,420.4V412.55M12.27,420.4V412.55H29.56V420.4ZM12.27,416.47H4.99M29.56,416.47H38.06M4.99,418.43V414.51M38.06,418.43V414.51" style="vector-effect: none; stroke-width: 2px; stroke: rgb(154, 197, 41); stroke-opacity: 1; fill: rgb(154, 197, 41); fill-opacity: 0.5;"/><path class="box" d="M27.61,404.38V396.53M18,404.38V396.53H29.15V404.38ZM18,400.45H10.8M29.15,400.45H30.09M10.8,402.42V398.49M30.09,402.42V398.49" style="vector-effect: none; stroke-width: 2px; stroke: rgb(154, 197, 41); stroke-opacity: 1; fill: rgb(154, 197, 41); fill-opacity: 0.5;"/><path class="box" d="M19.86,388.36V380.51M18.5,388.36V380.51H37.27V388.36ZM18.5,384.44H12.44M37.27,384.44H40.58M12.44,386.4V382.47M40.58,386.4V382.47" style="vector-effect: none; stroke-width: 2px; stroke: rgb(154, 197, 41); stroke-opacity: 1; fill: rgb(154, 197, 41); fill-opacity: 0.5;"/><path class="box" d="M26.42,372.34V364.49M16.94,372.34V364.49H31.96V372.34ZM16.94,368.42H10.54M31.96,368.42H35.87M10.54,370.38V366.46M35.87,370.38V366.46" style="vector-effect: none; stroke-width: 2px; stroke: rgb(154, 197, 41); stroke-opacity: 1; fill: rgb(154, 197, 41); fill-opacity: 0.5;"/><path class="box" d="M26.31,356.32V348.48M19.51,356.32V348.48H31.06V356.32ZM19.51,352.4H18.61M31.06,352.4H35.97M18.61,354.36V350.44M35.97,354.36V350.44" style="vector-effect: none; stroke-width: 2px; stroke: rgb(154, 197, 41); stroke-opacity: 1; fill: rgb(154, 197, 41); fill-opacity: 0.5;"/><path class="box" d="M25.73,340.31V332.46M20.97,340.31V332.46H33.27V340.31ZM20.97,336.38H17.82M33.27,336.38H45.32M17.82,338.34V334.42M45.32,338.34V334.42" style="vector-effect: none; stroke-width: 2px; stroke: rgb(154, 197, 41); stroke-opacity: 1; fill: rgb(154, 197, 41); fill-opacity: 0.5;"/><path class="box" d="M30.15,324.29V316.44M25.12,324.29V316.44H32.6V324.29ZM25.12,320.36H18.97M32.6,320.36H38.51M18.97,322.33V318.4M38.51,322.33V318.4" style="vector-effect: none; stroke-width: 2px; stroke: rgb(154, 197, 41); stroke-opacity: 1; fill: rgb(154, 197, 41); fill-opacity: 0.5;"/><path class="box" d="M30.31,308.27V300.42M27,308.27V300.42H35.35V308.27ZM27,304.35H18.88M35.35,304.35H42.83M18.88,306.31V302.38M42.83,306.31V302.38" style="vector-effect: none; stroke-width: 2px; stroke: rgb(154, 197, 41); stroke-opacity: 1; fill: rgb(154, 197, 41); fill-opacity: 0.5;"/><path class="box" d="M31.47,292.25V284.4M26.33,292.25V284.4H36.06V292.25ZM26.33,288.33H24.12M36.06,288.33H37M24.12,290.29V286.37M37,290.29V286.37" style="vector-effect: none; stroke-width: 2px; stroke: rgb(154, 197, 41); stroke-opacity: 1; fill: rgb(154, 197, 41); fill-opacity: 0.5;"/><path class="box" d="M29.68,276.23V268.38M26.01,276.23V268.38H38.18V276.23ZM26.01,272.31H21.5M38.18,272.31H45.2M21.5,274.27V270.35M45.2,274.27V270.35" style="vector-effect: none; stroke-width: 2px; stroke: rgb(154, 197, 41); stroke-opacity: 1; fill: rgb(154, 197, 41); fill-opacity: 0.5;"/><path class="box" d="M34.57,260.22V252.37M31.28,260.22V252.37H35.84V260.22ZM31.28,256.29H27.33M35.84,256.29H40.6M27.33,258.25V254.33M40.6,258.25V254.33" style="vector-effect: none; stroke-width: 2px; stroke: rgb(154, 197, 41); stroke-opacity: 1; fill: rgb(154, 197, 41); fill-opacity: 0.5;"/><path class="box" d="M34.25,244.2V236.35M30.7,244.2V236.35H46.09V244.2ZM30.7,240.27H26.34M46.09,240.27H48.89M26.34,242.23V238.31M48.89,242.23V238.31" style="vector-effect: none; stroke-width: 2px; stroke: rgb(154, 197, 41); stroke-opacity: 1; fill: rgb(154, 197, 41); fill-opacity: 0.5;"/><path class="box" d="M45.18,228.18V220.33M36.73,228.18V220.33H48.64V228.18ZM36.73,224.25H30.94M48.64,224.25H53.01M30.94,226.22V222.29M53.01,226.22V222.29" style="vector-effect: none; stroke-width: 2px; stroke: rgb(154, 197, 41); stroke-opacity: 1; fill: rgb(154, 197, 41); fill-opacity: 0.5;"/><path class="box" d="M55.49,212.16V204.31M34.42,212.16V204.31H57.72V212.16ZM34.42,208.24H20.38M57.72,208.24H68.33M20.38,210.2V206.27M68.33,210.2V206.27" style="vector-effect: none; stroke-width: 2px; stroke: rgb(154, 197, 41); stroke-opacity: 1; fill: rgb(154, 197, 41); fill-opacity: 0.5;"/><path class="box" d="M48,196.14V188.29M35.71,196.14V188.29H54.72V196.14ZM35.71,192.22H27.33M54.72,192.22H71.39M27.33,194.18V190.26M71.39,194.18V190.26" style="vector-effect: none; stroke-width: 2px; stroke: rgb(154, 197, 41); stroke-opacity: 1; fill: rgb(154, 197, 41); fill-opacity: 0.5;"/><path class="box" d="M49.41,180.12V172.28M46.09,180.12V172.28H59V180.12ZM46.09,176.2H42.08M59,176.2H72.88M42.08,178.16V174.24M72.88,178.16V174.24" style="vector-effect: none; stroke-width: 2px; stroke: rgb(154, 197, 41); stroke-opacity: 1; fill: rgb(154, 197, 41); fill-opacity: 0.5;"/><path class="box" d="M55.02,164.11V156.26M46.42,164.11V156.26H63.72V164.11ZM46.42,160.18H39.81M63.72,160.18H68.56M39.81,162.14V158.22M68.56,162.14V158.22" style="vector-effect: none; stroke-width: 2px; stroke: rgb(154, 197, 41); stroke-opacity: 1; fill: rgb(154, 197, 41); fill-opacity: 0.5;"/><path class="box" d="M56.97,148.09V140.24M46.78,148.09V140.24H61.52V148.09ZM46.78,144.16H42.43M61.52,144.16H66.19M42.43,146.13V142.2M66.19,146.13V142.2" style="vector-effect: none; stroke-width: 2px; stroke: rgb(154, 197, 41); stroke-opacity: 1; fill: rgb(154, 197, 41); fill-opacity: 0.5;"/><path class="box" d="M54.66,132.07V124.22M50.19,132.07V124.22H61.7V132.07ZM50.19,128.15H40.53M61.7,128.15H65.3M40.53,130.11V126.18M65.3,130.11V126.18" style="vector-effect: none; stroke-width: 2px; stroke: rgb(154, 197, 41); stroke-opacity: 1; fill: rgb(154, 197, 41); fill-opacity: 0.5;"/><path class="box" d="M62.6,116.05V108.2M58.66,116.05V108.2H64.53V116.05ZM58.66,112.13H50.41M64.53,112.13H65.94M50.41,114.09V110.17M65.94,114.09V110.17" style="vector-effect: none; stroke-width: 2px; stroke: rgb(154, 197, 41); stroke-opacity: 1; fill: rgb(154, 197, 41); fill-opacity: 0.5;"/><path class="box" d="M68.06,100.03V92.18M59.61,100.03V92.18H71.08V100.03ZM59.61,96.11H51.86M71.08,96.11H71.45M51.86,98.07V94.15M71.45,98.07V94.15" style="vector-effect: none; stroke-width: 2px; stroke: rgb(154, 197, 41); stroke-opacity: 1; fill: rgb(154, 197, 41); fill-opacity: 0.5;"/><path class="box" d="M77.78,84.02V76.17M67.41,84.02V76.17H95.83V84.02ZM67.41,80.09H54.28M95.83,80.09H105.57M54.28,82.05V78.13M105.57,82.05V78.13" style="vector-effect: none; stroke-width: 2px; stroke: rgb(154, 197, 41); stroke-opacity: 1; fill: rgb(154, 197, 41); fill-opacity: 0.5;"/><path class="box" d="M84.76,68V60.15M62.4,68V60.15H106.7V68ZM62.4,64.07H53.14M106.7,64.07H122.33M53.14,66.03V62.11M122.33,66.03V62.11" style="vector-effect: none; stroke-width: 2px; stroke: rgb(154, 197, 41); stroke-opacity: 1; fill: rgb(154, 197, 41); fill-opacity: 0.5;"/><path class="box" d="M81.25,51.98V44.13M79.47,51.98V44.13H98.33V51.98ZM79.47,48.05H73.16M98.33,48.05H105.19M73.16,50.02V46.09M105.19,50.02V46.09" style="vector-effect: none; stroke-width: 2px; stroke: rgb(154, 197, 41); stroke-opacity: 1; fill: rgb(154, 197, 41); fill-opacity: 0.5;"/><path class="box" d="M143.48,35.96V28.11M137.2,35.96V28.11H174.96V35.96ZM137.2,32.04H133.04M174.96,32.04H187.86M133.04,34V30.07M187.86,34V30.07" style="vector-effect: none; stroke-width: 2px; stroke: rgb(154, 197, 41); stroke-opacity: 1; fill: rgb(154, 197, 41); fill-opacity: 0.5;"/><path class="box" d="M190.05,19.94V12.09M181.31,19.94V12.09H205.04V19.94ZM181.31,16.02H151.36M205.04,16.02H218.33M151.36,17.98V14.06M218.33,17.98V14.06" style="vector-effect: none; stroke-width: 2px; stroke: rgb(154, 197, 41); stroke-opacity: 1; fill: rgb(154, 197, 41); fill-opacity: 0.5;"/><g class="points"/><g class="points"><path class="point" transform="translate(2.71,848.96)" d="M4,0A4,4 0 1,1 0,-4A4,4 0 0,1 4,0Z" style="opacity: 1; stroke-width: 0px; fill: rgb(154, 197, 41); fill-opacity: 1;"/><path class="point" transform="translate(5.06,848.96)" d="M4,0A4,4 0 1,1 0,-4A4,4 0 0,1 4,0Z" style="opacity: 1; stroke-width: 0px; fill: rgb(154, 197, 41); fill-opacity: 1;"/></g><g class="points"><path class="point" transform="translate(9.39,832.95)" d="M4,0A4,4 0 1,1 0,-4A4,4 0 0,1 4,0Z" style="opacity: 1; stroke-width: 0px; fill: rgb(154, 197, 41); fill-opacity: 1;"/></g><g class="points"/><g class="points"/><g class="points"/><g class="points"/><g class="points"/><g class="points"><path class="point" transform="translate(0,736.84)" d="M4,0A4,4 0 1,1 0,-4A4,4 0 0,1 4,0Z" style="opacity: 1; stroke-width: 0px; fill: rgb(154, 197, 41); fill-opacity: 1;"/><path class="point" transform="translate(0,736.84)" d="M4,0A4,4 0 1,1 0,-4A4,4 0 0,1 4,0Z" style="opacity: 1; stroke-width: 0px; fill: rgb(154, 197, 41); fill-opacity: 1;"/><path class="point" transform="translate(9.19,736.84)" d="M4,0A4,4 0 1,1 0,-4A4,4 0 0,1 4,0Z" style="opacity: 1; stroke-width: 0px; fill: rgb(154, 197, 41); fill-opacity: 1;"/><path class="point" transform="translate(10.54,736.84)" d="M4,0A4,4 0 1,1 0,-4A4,4 0 0,1 4,0Z" style="opacity: 1; stroke-width: 0px; fill: rgb(154, 197, 41); fill-opacity: 1;"/></g><g class="points"/><g class="points"/><g class="points"/><g class="points"><path class="point" transform="translate(1.53,672.76)" d="M4,0A4,4 0 1,1 0,-4A4,4 0 0,1 4,0Z" style="opacity: 1; stroke-width: 0px; fill: rgb(154, 197, 41); fill-opacity: 1;"/><path class="point" transform="translate(1.57,672.76)" d="M4,0A4,4 0 1,1 0,-4A4,4 0 0,1 4,0Z" style="opacity: 1; stroke-width: 0px; fill: rgb(154, 197, 41); fill-opacity: 1;"/></g><g class="points"><path class="point" transform="translate(2.22,656.75)" d="M4,0A4,4 0 1,1 0,-4A4,4 0 0,1 4,0Z" style="opacity: 1; stroke-width: 0px; fill: rgb(154, 197, 41); fill-opacity: 1;"/><path class="point" transform="translate(17.53,656.75)" d="M4,0A4,4 0 1,1 0,-4A4,4 0 0,1 4,0Z" style="opacity: 1; stroke-width: 0px; fill: rgb(154, 197, 41); fill-opacity: 1;"/><path class="point" transform="translate(20.88,656.75)" d="M4,0A4,4 0 1,1 0,-4A4,4 0 0,1 4,0Z" style="opacity: 1; stroke-width: 0px; fill: rgb(154, 197, 41); fill-opacity: 1;"/></g><g class="points"><path class="point" transform="translate(13.22,640.73)" d="M4,0A4,4 0 1,1 0,-4A4,4 0 0,1 4,0Z" style="opacity: 1; stroke-width: 0px; fill: rgb(154, 197, 41); fill-opacity: 1;"/><path class="point" transform="translate(18.57,640.73)" d="M4,0A4,4 0 1,1 0,-4A4,4 0 0,1 4,0Z" style="opacity: 1; stroke-width: 0px; fill: rgb(154, 197, 41); fill-opacity: 1;"/></g><g class="points"/><g class="points"/><g class="points"/><g class="points"/><g class="points"/><g class="points"/><g class="points"/><g class="points"/><g class="points"/><g class="points"/><g class="points"/><g class="points"/><g class="points"><path class="point" transform="translate(42.64,432.49)" d="M4,0A4,4 0 1,1 0,-4A4,4 0 0,1 4,0Z" style="opacity: 1; stroke-width: 0px; fill: rgb(154, 197, 41); fill-opacity: 1;"/></g><g class="points"/><g class="points"/><g class="points"/><g class="points"/><g class="points"/><g class="points"/><g class="points"><path class="point" transform="translate(53.95,320.36)" d="M4,0A4,4 0 1,1 0,-4A4,4 0 0,1 4,0Z" style="opacity: 1; stroke-width: 0px; fill: rgb(154, 197, 41); fill-opacity: 1;"/></g><g class="points"/><g class="points"/><g class="points"/><g class="points"><path class="point" transform="translate(19.58,256.29)" d="M4,0A4,4 0 1,1 0,-4A4,4 0 0,1 4,0Z" style="opacity: 1; stroke-width: 0px; fill: rgb(154, 197, 41); fill-opacity: 1;"/></g><g class="points"/><g class="points"/><g class="points"/><g class="points"/><g class="points"><path class="point" transform="translate(78.4,176.2)" d="M4,0A4,4 0 1,1 0,-4A4,4 0 0,1 4,0Z" style="opacity: 1; stroke-width: 0px; fill: rgb(154, 197, 41); fill-opacity: 1;"/></g><g class="points"/><g class="points"/><g class="points"/><g class="points"><path class="point" transform="translate(48.67,112.13)" d="M4,0A4,4 0 1,1 0,-4A4,4 0 0,1 4,0Z" style="opacity: 1; stroke-width: 0px; fill: rgb(154, 197, 41); fill-opacity: 1;"/></g><g class="points"/><g class="points"/><g class="points"/><g class="points"/><g class="points"/><g class="points"/></g></g></g><g class="overplot"/><path class="xlines-above crisp" d="M0,0" style="fill: none;"/><path class="ylines-above crisp" d="M0,0" style="fill: none;"/><g class="overlines-above"/><g class="xaxislayer-above"><g class="xtick"><text text-anchor="middle" x="0" y="1052" transform="translate(168,0)" style="font-family: 'Times new roman'; font-size: 20px; fill: rgb(0, 0, 0); fill-opacity: 1; white-space: pre; opacity: 1;">0</text></g><g class="xtick"><text text-anchor="middle" x="0" y="1052" style="font-family: 'Times new roman'; font-size: 20px; fill: rgb(0, 0, 0); fill-opacity: 1; white-space: pre; opacity: 1;" transform="translate(254.4,0)">0.05</text></g><g class="xtick"><text text-anchor="middle" x="0" y="1052" style="font-family: 'Times new roman'; font-size: 20px; fill: rgb(0, 0, 0); fill-opacity: 1; white-space: pre; opacity: 1;" transform="translate(340.8,0)">0.1</text></g><g class="xtick"><text text-anchor="middle" x="0" y="1052" style="font-family: 'Times new roman'; font-size: 20px; fill: rgb(0, 0, 0); fill-opacity: 1; white-space: pre; opacity: 1;" transform="translate(427.2,0)">0.15</text></g><g class="xtick"><text text-anchor="middle" x="0" y="1052" style="font-family: 'Times new roman'; font-size: 20px; fill: rgb(0, 0, 0); fill-opacity: 1; white-space: pre; opacity: 1;" transform="translate(513.6,0)">0.2</text></g><g class="xtick"><text text-anchor="middle" x="0" y="1052" style="font-family: 'Times new roman'; font-size: 20px; fill: rgb(0, 0, 0); fill-opacity: 1; white-space: pre; opacity: 1;" transform="translate(600,0)">0.25</text></g></g><g class="yaxislayer-above"><g class="ytick"><text text-anchor="end" x="167" y="7" transform="translate(0,1014.98)" style="font-family: 'Times new roman'; font-size: 20px; fill: rgb(0, 0, 0); fill-opacity: 1; white-space: pre; opacity: 1;">wSMI_1_std</text></g><g class="ytick"><text text-anchor="end" x="167" y="7" transform="translate(0,998.96)" style="font-family: 'Times new roman'; font-size: 20px; fill: rgb(0, 0, 0); fill-opacity: 1; white-space: pre; opacity: 1;">P3a_std</text></g><g class="ytick"><text text-anchor="end" x="167" y="7" transform="translate(0,982.95)" style="font-family: 'Times new roman'; font-size: 20px; fill: rgb(0, 0, 0); fill-opacity: 1; white-space: pre; opacity: 1;">d_n_std</text></g><g class="ytick"><text text-anchor="end" x="167" y="7" transform="translate(0,966.93)" style="font-family: 'Times new roman'; font-size: 20px; fill: rgb(0, 0, 0); fill-opacity: 1; white-space: pre; opacity: 1;">p_e_8_mean</text></g><g class="ytick"><text text-anchor="end" x="167" y="7" transform="translate(0,950.91)" style="font-family: 'Times new roman'; font-size: 20px; fill: rgb(0, 0, 0); fill-opacity: 1; white-space: pre; opacity: 1;">se_mean</text></g><g class="ytick"><text text-anchor="end" x="167" y="7" transform="translate(0,934.89)" style="font-family: 'Times new roman'; font-size: 20px; fill: rgb(0, 0, 0); fill-opacity: 1; white-space: pre; opacity: 1;">sef90_mean</text></g><g class="ytick"><text text-anchor="end" x="167" y="7" transform="translate(0,918.87)" style="font-family: 'Times new roman'; font-size: 20px; fill: rgb(0, 0, 0); fill-opacity: 1; white-space: pre; opacity: 1;">wSMI_2_std</text></g><g class="ytick"><text text-anchor="end" x="167" y="7" transform="translate(0,902.85)" style="font-family: 'Times new roman'; font-size: 20px; fill: rgb(0, 0, 0); fill-opacity: 1; white-space: pre; opacity: 1;">msf_mean</text></g><g class="ytick"><text text-anchor="end" x="167" y="7" transform="translate(0,886.84)" style="font-family: 'Times new roman'; font-size: 20px; fill: rgb(0, 0, 0); fill-opacity: 1; white-space: pre; opacity: 1;">P3b_std</text></g><g class="ytick"><text text-anchor="end" x="167" y="7" transform="translate(0,870.82)" style="font-family: 'Times new roman'; font-size: 20px; fill: rgb(0, 0, 0); fill-opacity: 1; white-space: pre; opacity: 1;">sef95_std</text></g><g class="ytick"><text text-anchor="end" x="167" y="7" transform="translate(0,854.8)" style="font-family: 'Times new roman'; font-size: 20px; fill: rgb(0, 0, 0); fill-opacity: 1; white-space: pre; opacity: 1;">a_std</text></g><g class="ytick"><text text-anchor="end" x="167" y="7" transform="translate(0,838.78)" style="font-family: 'Times new roman'; font-size: 20px; fill: rgb(0, 0, 0); fill-opacity: 1; white-space: pre; opacity: 1;">p_e_2_mean</text></g><g class="ytick"><text text-anchor="end" x="167" y="7" transform="translate(0,822.76)" style="font-family: 'Times new roman'; font-size: 20px; fill: rgb(0, 0, 0); fill-opacity: 1; white-space: pre; opacity: 1;">g_n_std</text></g><g class="ytick"><text text-anchor="end" x="167" y="7" transform="translate(0,806.75)" style="font-family: 'Times new roman'; font-size: 20px; fill: rgb(0, 0, 0); fill-opacity: 1; white-space: pre; opacity: 1;">p_e_4_std</text></g><g class="ytick"><text text-anchor="end" x="167" y="7" transform="translate(0,790.73)" style="font-family: 'Times new roman'; font-size: 20px; fill: rgb(0, 0, 0); fill-opacity: 1; white-space: pre; opacity: 1;">g_std</text></g><g class="ytick"><text text-anchor="end" x="167" y="7" transform="translate(0,774.71)" style="font-family: 'Times new roman'; font-size: 20px; fill: rgb(0, 0, 0); fill-opacity: 1; white-space: pre; opacity: 1;">sef95_mean</text></g><g class="ytick"><text text-anchor="end" x="167" y="7" transform="translate(0,758.69)" style="font-family: 'Times new roman'; font-size: 20px; fill: rgb(0, 0, 0); fill-opacity: 1; white-space: pre; opacity: 1;">b_std</text></g><g class="ytick"><text text-anchor="end" x="167" y="7" transform="translate(0,742.67)" style="font-family: 'Times new roman'; font-size: 20px; fill: rgb(0, 0, 0); fill-opacity: 1; white-space: pre; opacity: 1;">p_e_1_mean</text></g><g class="ytick"><text text-anchor="end" x="167" y="7" transform="translate(0,726.65)" style="font-family: 'Times new roman'; font-size: 20px; fill: rgb(0, 0, 0); fill-opacity: 1; white-space: pre; opacity: 1;">a_mean</text></g><g class="ytick"><text text-anchor="end" x="167" y="7" transform="translate(0,710.64)" style="font-family: 'Times new roman'; font-size: 20px; fill: rgb(0, 0, 0); fill-opacity: 1; white-space: pre; opacity: 1;">wSMI_1_mean</text></g><g class="ytick"><text text-anchor="end" x="167" y="7" transform="translate(0,694.62)" style="font-family: 'Times new roman'; font-size: 20px; fill: rgb(0, 0, 0); fill-opacity: 1; white-space: pre; opacity: 1;">p_e_8_std</text></g><g class="ytick"><text text-anchor="end" x="167" y="7" transform="translate(0,678.6)" style="font-family: 'Times new roman'; font-size: 20px; fill: rgb(0, 0, 0); fill-opacity: 1; white-space: pre; opacity: 1;">d_mean</text></g><g class="ytick"><text text-anchor="end" x="167" y="7" transform="translate(0,662.58)" style="font-family: 'Times new roman'; font-size: 20px; fill: rgb(0, 0, 0); fill-opacity: 1; white-space: pre; opacity: 1;">wSMI_2_mean</text></g><g class="ytick"><text text-anchor="end" x="167" y="7" transform="translate(0,646.56)" style="font-family: 'Times new roman'; font-size: 20px; fill: rgb(0, 0, 0); fill-opacity: 1; white-space: pre; opacity: 1;">d_std</text></g><g class="ytick"><text text-anchor="end" x="167" y="7" transform="translate(0,630.55)" style="font-family: 'Times new roman'; font-size: 20px; fill: rgb(0, 0, 0); fill-opacity: 1; white-space: pre; opacity: 1;">p_e_2_std</text></g><g class="ytick"><text text-anchor="end" x="167" y="7" transform="translate(0,614.53)" style="font-family: 'Times new roman'; font-size: 20px; fill: rgb(0, 0, 0); fill-opacity: 1; white-space: pre; opacity: 1;">msf_std</text></g><g class="ytick"><text text-anchor="end" x="167" y="7" transform="translate(0,598.51)" style="font-family: 'Times new roman'; font-size: 20px; fill: rgb(0, 0, 0); fill-opacity: 1; white-space: pre; opacity: 1;">k_mean</text></g><g class="ytick"><text text-anchor="end" x="167" y="7" transform="translate(0,582.49)" style="font-family: 'Times new roman'; font-size: 20px; fill: rgb(0, 0, 0); fill-opacity: 1; white-space: pre; opacity: 1;">a_n_std</text></g><g class="ytick"><text text-anchor="end" x="167" y="7" transform="translate(0,566.47)" style="font-family: 'Times new roman'; font-size: 20px; fill: rgb(0, 0, 0); fill-opacity: 1; white-space: pre; opacity: 1;">t_std</text></g><g class="ytick"><text text-anchor="end" x="167" y="7" transform="translate(0,550.45)" style="font-family: 'Times new roman'; font-size: 20px; fill: rgb(0, 0, 0); fill-opacity: 1; white-space: pre; opacity: 1;">P1_std</text></g><g class="ytick"><text text-anchor="end" x="167" y="7" transform="translate(0,534.44)" style="font-family: 'Times new roman'; font-size: 20px; fill: rgb(0, 0, 0); fill-opacity: 1; white-space: pre; opacity: 1;">P3b_mean</text></g><g class="ytick"><text text-anchor="end" x="167" y="7" transform="translate(0,518.4200000000001)" style="font-family: 'Times new roman'; font-size: 20px; fill: rgb(0, 0, 0); fill-opacity: 1; white-space: pre; opacity: 1;">wSMI_8_mean</text></g><g class="ytick"><text text-anchor="end" x="167" y="7" transform="translate(0,502.4)" style="font-family: 'Times new roman'; font-size: 20px; fill: rgb(0, 0, 0); fill-opacity: 1; white-space: pre; opacity: 1;">P3a_mean</text></g><g class="ytick"><text text-anchor="end" x="167" y="7" transform="translate(0,486.38)" style="font-family: 'Times new roman'; font-size: 20px; fill: rgb(0, 0, 0); fill-opacity: 1; white-space: pre; opacity: 1;">CNV_mean</text></g><g class="ytick"><text text-anchor="end" x="167" y="7" transform="translate(0,470.36)" style="font-family: 'Times new roman'; font-size: 20px; fill: rgb(0, 0, 0); fill-opacity: 1; white-space: pre; opacity: 1;">CNV_std</text></g><g class="ytick"><text text-anchor="end" x="167" y="7" transform="translate(0,454.35)" style="font-family: 'Times new roman'; font-size: 20px; fill: rgb(0, 0, 0); fill-opacity: 1; white-space: pre; opacity: 1;">sef90_std</text></g><g class="ytick"><text text-anchor="end" x="167" y="7" transform="translate(0,438.33)" style="font-family: 'Times new roman'; font-size: 20px; fill: rgb(0, 0, 0); fill-opacity: 1; white-space: pre; opacity: 1;">wSMI_8_std</text></g><g class="ytick"><text text-anchor="end" x="167" y="7" transform="translate(0,422.31)" style="font-family: 'Times new roman'; font-size: 20px; fill: rgb(0, 0, 0); fill-opacity: 1; white-space: pre; opacity: 1;">wSMI_4_std</text></g><g class="ytick"><text text-anchor="end" x="167" y="7" transform="translate(0,406.29)" style="font-family: 'Times new roman'; font-size: 20px; fill: rgb(0, 0, 0); fill-opacity: 1; white-space: pre; opacity: 1;">P1_mean</text></g><g class="ytick"><text text-anchor="end" x="167" y="7" transform="translate(0,390.27)" style="font-family: 'Times new roman'; font-size: 20px; fill: rgb(0, 0, 0); fill-opacity: 1; white-space: pre; opacity: 1;">g_n_mean</text></g><g class="ytick"><text text-anchor="end" x="167" y="7" transform="translate(0,374.25)" style="font-family: 'Times new roman'; font-size: 20px; fill: rgb(0, 0, 0); fill-opacity: 1; white-space: pre; opacity: 1;">b_n_std</text></g><g class="ytick"><text text-anchor="end" x="167" y="7" transform="translate(0,358.24)" style="font-family: 'Times new roman'; font-size: 20px; fill: rgb(0, 0, 0); fill-opacity: 1; white-space: pre; opacity: 1;">a_n_mean</text></g><g class="ytick"><text text-anchor="end" x="167" y="7" transform="translate(0,342.22)" style="font-family: 'Times new roman'; font-size: 20px; fill: rgb(0, 0, 0); fill-opacity: 1; white-space: pre; opacity: 1;">se_std</text></g><g class="ytick"><text text-anchor="end" x="167" y="7" transform="translate(0,326.2)" style="font-family: 'Times new roman'; font-size: 20px; fill: rgb(0, 0, 0); fill-opacity: 1; white-space: pre; opacity: 1;">p_e_4_mean</text></g><g class="ytick"><text text-anchor="end" x="167" y="7" transform="translate(0,310.18)" style="font-family: 'Times new roman'; font-size: 20px; fill: rgb(0, 0, 0); fill-opacity: 1; white-space: pre; opacity: 1;">t_mean</text></g><g class="ytick"><text text-anchor="end" x="167" y="7" transform="translate(0,294.15999999999997)" style="font-family: 'Times new roman'; font-size: 20px; fill: rgb(0, 0, 0); fill-opacity: 1; white-space: pre; opacity: 1;">t_n_mean</text></g><g class="ytick"><text text-anchor="end" x="167" y="7" transform="translate(0,278.15)" style="font-family: 'Times new roman'; font-size: 20px; fill: rgb(0, 0, 0); fill-opacity: 1; white-space: pre; opacity: 1;">g_mean</text></g><g class="ytick"><text text-anchor="end" x="167" y="7" transform="translate(0,262.13)" style="font-family: 'Times new roman'; font-size: 20px; fill: rgb(0, 0, 0); fill-opacity: 1; white-space: pre; opacity: 1;">k_std</text></g><g class="ytick"><text text-anchor="end" x="167" y="7" transform="translate(0,246.11)" style="font-family: 'Times new roman'; font-size: 20px; fill: rgb(0, 0, 0); fill-opacity: 1; white-space: pre; opacity: 1;">t_n_std</text></g><g class="ytick"><text text-anchor="end" x="167" y="7" transform="translate(0,230.09)" style="font-family: 'Times new roman'; font-size: 20px; fill: rgb(0, 0, 0); fill-opacity: 1; white-space: pre; opacity: 1;">b_n_mean</text></g><g class="ytick"><text text-anchor="end" x="167" y="7" transform="translate(0,214.07)" style="font-family: 'Times new roman'; font-size: 20px; fill: rgb(0, 0, 0); fill-opacity: 1; white-space: pre; opacity: 1;">p_e_1_std</text></g><g class="ytick"><text text-anchor="end" x="167" y="7" transform="translate(0,198.05)" style="font-family: 'Times new roman'; font-size: 20px; fill: rgb(0, 0, 0); fill-opacity: 1; white-space: pre; opacity: 1;">d_n_mean</text></g><g class="ytick"><text text-anchor="end" x="167" y="7" transform="translate(0,182.04)" style="font-family: 'Times new roman'; font-size: 20px; fill: rgb(0, 0, 0); fill-opacity: 1; white-space: pre; opacity: 1;">b_mean</text></g><g class="ytick"><text text-anchor="end" x="167" y="7" transform="translate(0,166.02)" style="font-family: 'Times new roman'; font-size: 20px; fill: rgb(0, 0, 0); fill-opacity: 1; white-space: pre; opacity: 1;">wSMI_4_mean</text></g></g><g class="overaxes-above"/></g></g><g class="polarlayer"/><g class="smithlayer"/><g class="ternarylayer"/><g class="geolayer"/><g class="funnelarealayer"/><g class="pielayer"/><g class="iciclelayer"/><g class="treemaplayer"/><g class="sunburstlayer"/><g class="glimages"/><defs id="topdefs-c74b99"><g class="clips"/></defs><g class="layer-above"><g class="imagelayer"/><g class="shapelayer"/></g><g class="infolayer"><g class="g-gtitle"><text class="gtitle" x="32.5" y="75" text-anchor="start" dy="0em" style="font-family: 'Times new roman'; font-size: 28px; fill: rgb(0, 0, 0); opacity: 1; font-weight: normal; white-space: pre;"><tspan class="line" dy="0em" x="32.5" y="75">FI of Top 10 Models on-task_vs_dMW </tspan><tspan class="line" dy="1.3em" x="32.5" y="75"> Average AUC 0.639 </tspan><tspan class="line" dy="2.6em" x="32.5" y="75"> Best AUC 0.646</tspan></text></g><g class="g-xtitle"><text class="xtitle" x="384" y="1087.3" text-anchor="middle" style="font-family: 'Times new roman'; font-size: 24px; fill: rgb(0, 0, 0); opacity: 1; font-weight: normal; white-space: pre;">Feature Importance</text></g><g class="g-ytitle" transform="translate(8.6279296875,0)"><text class="ytitle" transform="rotate(-90,12.371874999999989,590.5)" x="12.371874999999989" y="590.5" text-anchor="middle" style="font-family: 'Times new roman'; font-size: 24px; fill: rgb(0, 0, 0); opacity: 1; font-weight: normal; white-space: pre;">Feature</text></g></g></svg>