<svg class="main-svg" xmlns="http://www.w3.org/2000/svg" xmlns:xlink="http://www.w3.org/1999/xlink" width="650" height="1100" style="" viewBox="0 0 650 1100"><rect x="0" y="0" width="650" height="1100" style="fill: rgb(255, 255, 255); fill-opacity: 1;"/><defs id="defs-7e407f"><g class="clips"><clipPath id="clip7e407fxyplot" class="plotclip"><rect width="432" height="881"/></clipPath><clipPath class="axesclip" id="clip7e407fx"><rect x="168" y="0" width="432" height="1100"/></clipPath><clipPath class="axesclip" id="clip7e407fy"><rect x="0" y="150" width="650" height="881"/></clipPath><clipPath class="axesclip" id="clip7e407fxy"><rect x="168" y="150" width="432" height="881"/></clipPath></g><g class="gradients"/><g class="patterns"/></defs><g class="bglayer"/><g class="layer-below"><g class="imagelayer"/><g class="shapelayer"/></g><g class="cartesianlayer"><g class="subplot xy"><g class="layer-subplot"><g class="shapelayer"/><g class="imagelayer"/></g><g class="minor-gridlayer"><g class="x"/><g class="y"/></g><g class="gridlayer"><g class="x"><path class="xgrid crisp" transform="translate(254.4,0)" d="M0,150v881" style="stroke: rgb(235, 240, 248); stroke-opacity: 1; stroke-width: 1px;"/><path class="xgrid crisp" transform="translate(340.8,0)" d="M0,150v881" style="stroke: rgb(235, 240, 248); stroke-opacity: 1; stroke-width: 1px;"/><path class="xgrid crisp" transform="translate(427.2,0)" d="M0,150v881" style="stroke: rgb(235, 240, 248); stroke-opacity: 1; stroke-width: 1px;"/><path class="xgrid crisp" transform="translate(513.6,0)" d="M0,150v881" style="stroke: rgb(235, 240, 248); stroke-opacity: 1; stroke-width: 1px;"/></g><g class="y"/></g><g class="zerolinelayer"><path class="xzl zl crisp" transform="translate(168,0)" d="M0,150v881" style="stroke: rgb(235, 240, 248); stroke-opacity: 1; stroke-width: 2px;"/></g><path class="xlines-below"/><path class="ylines-below"/><g class="overlines-below"/><g class="xaxislayer-below"/><g class="yaxislayer-below"/><g class="overaxes-below"/><g class="plot" transform="translate(168,150)" clip-path="url(#clip7e407fxyplot)"><g class="boxlayer mlayer"><g class="trace boxes" style="opacity: 1;"><path class="box" d="M0,868.91V861.06M0,868.91V861.06H0V868.91ZM0,864.98H0M0,864.98H0M0,866.94V863.02M0,866.94V863.02" style="vector-effect: none; stroke-width: 2px; stroke: rgb(222, 35, 123); stroke-opacity: 1; fill: rgb(222, 35, 123); fill-opacity: 0.5;"/><path class="box" d="M0,852.89V845.04M0,852.89V845.04H0V852.89ZM0,848.96H0M0,848.96H0M0,850.93V847M0,850.93V847" style="vector-effect: none; stroke-width: 2px; stroke: rgb(222, 35, 123); stroke-opacity: 1; fill: rgb(222, 35, 123); fill-opacity: 0.5;"/><path class="box" d="M0,836.87V829.02M0,836.87V829.02H0V836.87ZM0,832.95H0M0,832.95H0M0,834.91V830.98M0,834.91V830.98" style="vector-effect: none; stroke-width: 2px; stroke: rgb(222, 35, 123); stroke-opacity: 1; fill: rgb(222, 35, 123); fill-opacity: 0.5;"/><path class="box" d="M0,820.85V813M0,820.85V813H0V820.85ZM0,816.93H0M0,816.93H0M0,818.89V814.97M0,818.89V814.97" style="vector-effect: none; stroke-width: 2px; stroke: rgb(222, 35, 123); stroke-opacity: 1; fill: rgb(222, 35, 123); fill-opacity: 0.5;"/><path class="box" d="M0,804.83V796.98M0,804.83V796.98H0V804.83ZM0,800.91H0M0,800.91H0M0,802.87V798.95M0,802.87V798.95" style="vector-effect: none; stroke-width: 2px; stroke: rgb(222, 35, 123); stroke-opacity: 1; fill: rgb(222, 35, 123); fill-opacity: 0.5;"/><path class="box" d="M0,788.82V780.97M0,788.82V780.97H0V788.82ZM0,784.89H0M0,784.89H0M0,786.85V782.93M0,786.85V782.93" style="vector-effect: none; stroke-width: 2px; stroke: rgb(222, 35, 123); stroke-opacity: 1; fill: rgb(222, 35, 123); fill-opacity: 0.5;"/><path class="box" d="M0,772.8V764.95M0,772.8V764.95H0V772.8ZM0,768.87H0M0,768.87H0M0,770.83V766.91M0,770.83V766.91" style="vector-effect: none; stroke-width: 2px; stroke: rgb(222, 35, 123); stroke-opacity: 1; fill: rgb(222, 35, 123); fill-opacity: 0.5;"/><path class="box" d="M0,756.78V748.93M0,756.78V748.93H0V756.78ZM0,752.85H0M0,752.85H0M0,754.82V750.89M0,754.82V750.89" style="vector-effect: none; stroke-width: 2px; stroke: rgb(222, 35, 123); stroke-opacity: 1; fill: rgb(222, 35, 123); fill-opacity: 0.5;"/><path class="box" d="M0,740.76V732.91M0,740.76V732.91H0V740.76ZM0,736.84H0M0,736.84H0M0,738.8V734.87M0,738.8V734.87" style="vector-effect: none; stroke-width: 2px; stroke: rgb(222, 35, 123); stroke-opacity: 1; fill: rgb(222, 35, 123); fill-opacity: 0.5;"/><path class="box" d="M0,724.74V716.89M0,724.74V716.89H0V724.74ZM0,720.82H0M0,720.82H0M0,722.78V718.86M0,722.78V718.86" style="vector-effect: none; stroke-width: 2px; stroke: rgb(222, 35, 123); stroke-opacity: 1; fill: rgb(222, 35, 123); fill-opacity: 0.5;"/><path class="box" d="M0,708.72V700.88M0,708.72V700.88H0V708.72ZM0,704.8H0M0,704.8H0M0,706.76V702.84M0,706.76V702.84" style="vector-effect: none; stroke-width: 2px; stroke: rgb(222, 35, 123); stroke-opacity: 1; fill: rgb(222, 35, 123); fill-opacity: 0.5;"/><path class="box" d="M0,692.71V684.86M0,692.71V684.86H0V692.71ZM0,688.78H0M0,688.78H0M0,690.74V686.82M0,690.74V686.82" style="vector-effect: none; stroke-width: 2px; stroke: rgb(222, 35, 123); stroke-opacity: 1; fill: rgb(222, 35, 123); fill-opacity: 0.5;"/><path class="box" d="M0,676.69V668.84M0,676.69V668.84H0V676.69ZM0,672.76H0M0,672.76H0M0,674.73V670.8M0,674.73V670.8" style="vector-effect: none; stroke-width: 2px; stroke: rgb(222, 35, 123); stroke-opacity: 1; fill: rgb(222, 35, 123); fill-opacity: 0.5;"/><path class="box" d="M0,660.67V652.82M0,660.67V652.82H0V660.67ZM0,656.75H0M0,656.75H0M0,658.71V654.78M0,658.71V654.78" style="vector-effect: none; stroke-width: 2px; stroke: rgb(222, 35, 123); stroke-opacity: 1; fill: rgb(222, 35, 123); fill-opacity: 0.5;"/><path class="box" d="M0,644.65V636.8M0,644.65V636.8H0V644.65ZM0,640.73H0M0,640.73H0M0,642.69V638.77M0,642.69V638.77" style="vector-effect: none; stroke-width: 2px; stroke: rgb(222, 35, 123); stroke-opacity: 1; fill: rgb(222, 35, 123); fill-opacity: 0.5;"/><path class="box" d="M0,628.63V620.78M0,628.63V620.78H0V628.63ZM0,624.71H0M0,624.71H0M0,626.67V622.75M0,626.67V622.75" style="vector-effect: none; stroke-width: 2px; stroke: rgb(222, 35, 123); stroke-opacity: 1; fill: rgb(222, 35, 123); fill-opacity: 0.5;"/><path class="box" d="M0,612.62V604.77M0,612.62V604.77H0V612.62ZM0,608.69H0M0,608.69H0M0,610.65V606.73M0,610.65V606.73" style="vector-effect: none; stroke-width: 2px; stroke: rgb(222, 35, 123); stroke-opacity: 1; fill: rgb(222, 35, 123); fill-opacity: 0.5;"/><path class="box" d="M0,596.6V588.75M0,596.6V588.75H0V596.6ZM0,592.67H0M0,592.67H0M0,594.63V590.71M0,594.63V590.71" style="vector-effect: none; stroke-width: 2px; stroke: rgb(222, 35, 123); stroke-opacity: 1; fill: rgb(222, 35, 123); fill-opacity: 0.5;"/><path class="box" d="M0,580.58V572.73M0,580.58V572.73H0V580.58ZM0,576.65H0M0,576.65H0M0,578.62V574.69M0,578.62V574.69" style="vector-effect: none; stroke-width: 2px; stroke: rgb(222, 35, 123); stroke-opacity: 1; fill: rgb(222, 35, 123); fill-opacity: 0.5;"/><path class="box" d="M0,564.56V556.71M0,564.56V556.71H0V564.56ZM0,560.64H0M0,560.64H0M0,562.6V558.67M0,562.6V558.67" style="vector-effect: none; stroke-width: 2px; stroke: rgb(222, 35, 123); stroke-opacity: 1; fill: rgb(222, 35, 123); fill-opacity: 0.5;"/><path class="box" d="M0,548.54V540.69M0,548.54V540.69H0V548.54ZM0,544.62H0M0,544.62H0M0,546.58V542.66M0,546.58V542.66" style="vector-effect: none; stroke-width: 2px; stroke: rgb(222, 35, 123); stroke-opacity: 1; fill: rgb(222, 35, 123); fill-opacity: 0.5;"/><path class="box" d="M0,532.52V524.68M0,532.52V524.68H0V532.52ZM0,528.6H0M0,528.6H0M0,530.56V526.64M0,530.56V526.64" style="vector-effect: none; stroke-width: 2px; stroke: rgb(222, 35, 123); stroke-opacity: 1; fill: rgb(222, 35, 123); fill-opacity: 0.5;"/><path class="box" d="M4.24,516.51V508.66M0,516.51V508.66H8.47V516.51ZM0,512.58H0M8.47,512.58H8.82M0,514.54V510.62M8.82,514.54V510.62" style="vector-effect: none; stroke-width: 2px; stroke: rgb(222, 35, 123); stroke-opacity: 1; fill: rgb(222, 35, 123); fill-opacity: 0.5;"/><path class="box" d="M1,500.49V492.64M0,500.49V492.64H14.9V500.49ZM0,496.56H0M14.9,496.56H16.62M0,498.53V494.6M16.62,498.53V494.6" style="vector-effect: none; stroke-width: 2px; stroke: rgb(222, 35, 123); stroke-opacity: 1; fill: rgb(222, 35, 123); fill-opacity: 0.5;"/><path class="box" d="M8.47,484.47V476.62M8.15,484.47V476.62H8.64V484.47ZM8.15,480.55H8.15M8.64,480.55H8.82M8.15,482.51V478.58M8.82,482.51V478.58" style="vector-effect: none; stroke-width: 2px; stroke: rgb(222, 35, 123); stroke-opacity: 1; fill: rgb(222, 35, 123); fill-opacity: 0.5;"/><path class="box" d="M8.45,468.45V460.6M7.45,468.45V460.6H8.64V468.45ZM7.45,464.53H7.45M8.64,464.53H8.82M7.45,466.49V462.57M8.82,466.49V462.57" style="vector-effect: none; stroke-width: 2px; stroke: rgb(222, 35, 123); stroke-opacity: 1; fill: rgb(222, 35, 123); fill-opacity: 0.5;"/><path class="box" d="M8.45,452.43V444.58M7.45,452.43V444.58H8.64V452.43ZM7.45,448.51H7.45M8.64,448.51H8.82M7.45,450.47V446.55M8.82,450.47V446.55" style="vector-effect: none; stroke-width: 2px; stroke: rgb(222, 35, 123); stroke-opacity: 1; fill: rgb(222, 35, 123); fill-opacity: 0.5;"/><path class="box" d="M8.47,436.42V428.57M8.15,436.42V428.57H8.64V436.42ZM8.15,432.49H7.45M8.64,432.49H8.82M7.45,434.45V430.53M8.82,434.45V430.53" style="vector-effect: none; stroke-width: 2px; stroke: rgb(222, 35, 123); stroke-opacity: 1; fill: rgb(222, 35, 123); fill-opacity: 0.5;"/><path class="box" d="M8.47,420.4V412.55M8.15,420.4V412.55H8.64V420.4ZM8.15,416.47H7.45M8.64,416.47H8.82M7.45,418.43V414.51M8.82,418.43V414.51" style="vector-effect: none; stroke-width: 2px; stroke: rgb(222, 35, 123); stroke-opacity: 1; fill: rgb(222, 35, 123); fill-opacity: 0.5;"/><path class="box" d="M15.940000000000001,404.38V396.53M14.9,404.38V396.53H16.94V404.38ZM14.9,400.45H14.9M16.94,400.45H17.28M14.9,402.42V398.49M17.28,402.42V398.49" style="vector-effect: none; stroke-width: 2px; stroke: rgb(222, 35, 123); stroke-opacity: 1; fill: rgb(222, 35, 123); fill-opacity: 0.5;"/><path class="box" d="M16.94,388.36V380.51M16.3,388.36V380.51H17.28V388.36ZM16.3,384.44H14.9M17.28,384.44H17.63M14.9,386.4V382.47M17.63,386.4V382.47" style="vector-effect: none; stroke-width: 2px; stroke: rgb(222, 35, 123); stroke-opacity: 1; fill: rgb(222, 35, 123); fill-opacity: 0.5;"/><path class="box" d="M16.94,372.34V364.49M16.3,372.34V364.49H17.28V372.34ZM16.3,368.42H14.9M17.28,368.42H17.63M14.9,370.38V366.46M17.63,370.38V366.46" style="vector-effect: none; stroke-width: 2px; stroke: rgb(222, 35, 123); stroke-opacity: 1; fill: rgb(222, 35, 123); fill-opacity: 0.5;"/><path class="box" d="M21.6,356.32V348.48M21.6,356.32V348.48H21.6V356.32ZM21.6,352.4H21.6M21.6,352.4H21.6M21.6,354.36V350.44M21.6,354.36V350.44" style="vector-effect: none; stroke-width: 2px; stroke: rgb(222, 35, 123); stroke-opacity: 1; fill: rgb(222, 35, 123); fill-opacity: 0.5;"/><path class="box" d="M22.53,340.31V332.46M21.6,340.31V332.46H23.53V340.31ZM21.6,336.38H21.6M23.53,336.38H24M21.6,338.34V334.42M24,338.34V334.42" style="vector-effect: none; stroke-width: 2px; stroke: rgb(222, 35, 123); stroke-opacity: 1; fill: rgb(222, 35, 123); fill-opacity: 0.5;"/><path class="box" d="M25.41,324.29V316.44M24.45,324.29V316.44H25.92V324.29ZM24.45,320.36H22.34M25.92,320.36H26.45M22.34,322.33V318.4M26.45,322.33V318.4" style="vector-effect: none; stroke-width: 2px; stroke: rgb(222, 35, 123); stroke-opacity: 1; fill: rgb(222, 35, 123); fill-opacity: 0.5;"/><path class="box" d="M25.41,308.27V300.42M24.45,308.27V300.42H25.92V308.27ZM24.45,304.35H22.34M25.92,304.35H26.45M22.34,306.31V302.38M26.45,306.31V302.38" style="vector-effect: none; stroke-width: 2px; stroke: rgb(222, 35, 123); stroke-opacity: 1; fill: rgb(222, 35, 123); fill-opacity: 0.5;"/><path class="box" d="M37.86,292.25V284.4M36.5,292.25V284.4H38.88V292.25ZM36.5,288.33H36.5M38.88,288.33H39.23M36.5,290.29V286.37M39.23,290.29V286.37" style="vector-effect: none; stroke-width: 2px; stroke: rgb(222, 35, 123); stroke-opacity: 1; fill: rgb(222, 35, 123); fill-opacity: 0.5;"/><path class="box" d="M34.45,276.23V268.38M33.45,276.23V268.38H37.17V276.23ZM33.45,272.31H31.85M37.17,272.31H37.17M31.85,274.27V270.35M37.17,274.27V270.35" style="vector-effect: none; stroke-width: 2px; stroke: rgb(222, 35, 123); stroke-opacity: 1; fill: rgb(222, 35, 123); fill-opacity: 0.5;"/><path class="box" d="M42.2,260.22V252.37M41.14,260.22V252.37H43.2V260.22ZM41.14,256.29H41.14M43.2,256.29H43.2M41.14,258.25V254.33M43.2,258.25V254.33" style="vector-effect: none; stroke-width: 2px; stroke: rgb(222, 35, 123); stroke-opacity: 1; fill: rgb(222, 35, 123); fill-opacity: 0.5;"/><path class="box" d="M39.54,244.2V236.35M38.54,244.2V236.35H50.17V244.2ZM38.54,240.27H37.51M50.17,240.27H50.17M37.51,242.23V238.31M50.17,242.23V238.31" style="vector-effect: none; stroke-width: 2px; stroke: rgb(222, 35, 123); stroke-opacity: 1; fill: rgb(222, 35, 123); fill-opacity: 0.5;"/><path class="box" d="M48,228.18V220.33M48,228.18V220.33H48V228.18ZM48,224.25H48M48,224.25H48M48,226.22V222.29M48,226.22V222.29" style="vector-effect: none; stroke-width: 2px; stroke: rgb(222, 35, 123); stroke-opacity: 1; fill: rgb(222, 35, 123); fill-opacity: 0.5;"/><path class="box" d="M48,212.16V204.31M48,212.16V204.31H48V212.16ZM48,208.24H48M48,208.24H48M48,210.2V206.27M48,210.2V206.27" style="vector-effect: none; stroke-width: 2px; stroke: rgb(222, 35, 123); stroke-opacity: 1; fill: rgb(222, 35, 123); fill-opacity: 0.5;"/><path class="box" d="M55,196.14V188.29M54,196.14V188.29H61.71V196.14ZM54,192.22H54M61.71,192.22H61.71M54,194.18V190.26M61.71,194.18V190.26" style="vector-effect: none; stroke-width: 2px; stroke: rgb(222, 35, 123); stroke-opacity: 1; fill: rgb(222, 35, 123); fill-opacity: 0.5;"/><path class="box" d="M70.8,180.12V172.28M69.6,180.12V172.28H72.25V180.12ZM69.6,176.2H68.57M72.25,176.2H72.25M68.57,178.16V174.24M72.25,178.16V174.24" style="vector-effect: none; stroke-width: 2px; stroke: rgb(222, 35, 123); stroke-opacity: 1; fill: rgb(222, 35, 123); fill-opacity: 0.5;"/><path class="box" d="M78.7,164.11V156.26M78.07,164.11V156.26H79.7V164.11ZM78.07,160.18H77.04M79.7,160.18H80.64M77.04,162.14V158.22M80.64,162.14V158.22" style="vector-effect: none; stroke-width: 2px; stroke: rgb(222, 35, 123); stroke-opacity: 1; fill: rgb(222, 35, 123); fill-opacity: 0.5;"/><path class="box" d="M86.31,148.09V140.24M84.74,148.09V140.24H87.89V148.09ZM84.74,144.16H83.5M87.89,144.16H91.2M83.5,146.13V142.2M91.2,146.13V142.2" style="vector-effect: none; stroke-width: 2px; stroke: rgb(222, 35, 123); stroke-opacity: 1; fill: rgb(222, 35, 123); fill-opacity: 0.5;"/><path class="box" d="M91.2,132.07V124.22M86.4,132.07V124.22H93.47V132.07ZM86.4,128.15H81.23M93.47,128.15H96M81.23,130.11V126.18M96,130.11V126.18" style="vector-effect: none; stroke-width: 2px; stroke: rgb(222, 35, 123); stroke-opacity: 1; fill: rgb(222, 35, 123); fill-opacity: 0.5;"/><path class="box" d="M94.26,116.05V108.2M92.54,116.05V108.2H105.66V116.05ZM92.54,112.13H87.56M105.66,112.13H108.9M87.56,114.09V110.17M108.9,114.09V110.17" style="vector-effect: none; stroke-width: 2px; stroke: rgb(222, 35, 123); stroke-opacity: 1; fill: rgb(222, 35, 123); fill-opacity: 0.5;"/><path class="box" d="M97.64,100.03V92.18M96.35,100.03V92.18H98.96V100.03ZM96.35,96.11H96.35M98.96,96.11H102.47M96.35,98.07V94.15M102.47,98.07V94.15" style="vector-effect: none; stroke-width: 2px; stroke: rgb(222, 35, 123); stroke-opacity: 1; fill: rgb(222, 35, 123); fill-opacity: 0.5;"/><path class="box" d="M103.64,84.02V76.17M93.85,84.02V76.17H104.64V84.02ZM93.85,80.09H93.85M104.64,80.09H104.82M93.85,82.05V78.13M104.82,82.05V78.13" style="vector-effect: none; stroke-width: 2px; stroke: rgb(222, 35, 123); stroke-opacity: 1; fill: rgb(222, 35, 123); fill-opacity: 0.5;"/><path class="box" d="M117.42,68V60.15M111.04,68V60.15H120.04V68ZM111.04,64.07H111.04M120.04,64.07H124.11M111.04,66.03V62.11M124.11,66.03V62.11" style="vector-effect: none; stroke-width: 2px; stroke: rgb(222, 35, 123); stroke-opacity: 1; fill: rgb(222, 35, 123); fill-opacity: 0.5;"/><path class="box" d="M119.55,51.98V44.13M114.48,51.98V44.13H121.53V51.98ZM114.48,48.05H113.87M121.53,48.05H124.1M113.87,50.02V46.09M124.1,50.02V46.09" style="vector-effect: none; stroke-width: 2px; stroke: rgb(222, 35, 123); stroke-opacity: 1; fill: rgb(222, 35, 123); fill-opacity: 0.5;"/><path class="box" d="M163.64,35.96V28.11M134.71,35.96V28.11H164.64V35.96ZM134.71,32.04H126.02M164.64,32.04H173.28M126.02,34V30.07M173.28,34V30.07" style="vector-effect: none; stroke-width: 2px; stroke: rgb(222, 35, 123); stroke-opacity: 1; fill: rgb(222, 35, 123); fill-opacity: 0.5;"/><path class="box" d="M210.91,19.94V12.09M207.36,19.94V12.09H217.47V19.94ZM207.36,16.02H204.81M217.47,16.02H219.8M204.81,17.98V14.06M219.8,17.98V14.06" style="vector-effect: none; stroke-width: 2px; stroke: rgb(222, 35, 123); stroke-opacity: 1; fill: rgb(222, 35, 123); fill-opacity: 0.5;"/><g class="points"/><g class="points"/><g class="points"/><g class="points"/><g class="points"/><g class="points"/><g class="points"/><g class="points"/><g class="points"/><g class="points"/><g class="points"/><g class="points"/><g class="points"/><g class="points"/><g class="points"/><g class="points"/><g class="points"/><g class="points"/><g class="points"/><g class="points"><path class="point" transform="translate(7.45,560.64)" d="M4,0A4,4 0 1,1 0,-4A4,4 0 0,1 4,0Z" style="opacity: 1; stroke-width: 0px; fill: rgb(222, 35, 123); fill-opacity: 1;"/><path class="point" transform="translate(7.45,560.64)" d="M4,0A4,4 0 1,1 0,-4A4,4 0 0,1 4,0Z" style="opacity: 1; stroke-width: 0px; fill: rgb(222, 35, 123); fill-opacity: 1;"/></g><g class="points"><path class="point" transform="translate(16.62,544.62)" d="M4,0A4,4 0 1,1 0,-4A4,4 0 0,1 4,0Z" style="opacity: 1; stroke-width: 0px; fill: rgb(222, 35, 123); fill-opacity: 1;"/></g><g class="points"><path class="point" transform="translate(16.62,528.6)" d="M4,0A4,4 0 1,1 0,-4A4,4 0 0,1 4,0Z" style="opacity: 1; stroke-width: 0px; fill: rgb(222, 35, 123); fill-opacity: 1;"/></g><g class="points"/><g class="points"/><g class="points"><path class="point" transform="translate(0,480.55)" d="M4,0A4,4 0 1,1 0,-4A4,4 0 0,1 4,0Z" style="opacity: 1; stroke-width: 0px; fill: rgb(222, 35, 123); fill-opacity: 1;"/><path class="point" transform="translate(0,480.55)" d="M4,0A4,4 0 1,1 0,-4A4,4 0 0,1 4,0Z" style="opacity: 1; stroke-width: 0px; fill: rgb(222, 35, 123); fill-opacity: 1;"/></g><g class="points"><path class="point" transform="translate(0,464.53)" d="M4,0A4,4 0 1,1 0,-4A4,4 0 0,1 4,0Z" style="opacity: 1; stroke-width: 0px; fill: rgb(222, 35, 123); fill-opacity: 1;"/></g><g class="points"><path class="point" transform="translate(0,448.51)" d="M4,0A4,4 0 1,1 0,-4A4,4 0 0,1 4,0Z" style="opacity: 1; stroke-width: 0px; fill: rgb(222, 35, 123); fill-opacity: 1;"/></g><g class="points"/><g class="points"/><g class="points"><path class="point" transform="translate(8.82,400.45)" d="M4,0A4,4 0 1,1 0,-4A4,4 0 0,1 4,0Z" style="opacity: 1; stroke-width: 0px; fill: rgb(222, 35, 123); fill-opacity: 1;"/></g><g class="points"/><g class="points"><path class="point" transform="translate(33.56,368.42)" d="M4,0A4,4 0 1,1 0,-4A4,4 0 0,1 4,0Z" style="opacity: 1; stroke-width: 0px; fill: rgb(222, 35, 123); fill-opacity: 1;"/></g><g class="points"><path class="point" transform="translate(16.62,352.4)" d="M4,0A4,4 0 1,1 0,-4A4,4 0 0,1 4,0Z" style="opacity: 1; stroke-width: 0px; fill: rgb(222, 35, 123); fill-opacity: 1;"/><path class="point" transform="translate(20.57,352.4)" d="M4,0A4,4 0 1,1 0,-4A4,4 0 0,1 4,0Z" style="opacity: 1; stroke-width: 0px; fill: rgb(222, 35, 123); fill-opacity: 1;"/><path class="point" transform="translate(22.74,352.4)" d="M4,0A4,4 0 1,1 0,-4A4,4 0 0,1 4,0Z" style="opacity: 1; stroke-width: 0px; fill: rgb(222, 35, 123); fill-opacity: 1;"/><path class="point" transform="translate(24,352.4)" d="M4,0A4,4 0 1,1 0,-4A4,4 0 0,1 4,0Z" style="opacity: 1; stroke-width: 0px; fill: rgb(222, 35, 123); fill-opacity: 1;"/></g><g class="points"><path class="point" transform="translate(29.13,336.38)" d="M4,0A4,4 0 1,1 0,-4A4,4 0 0,1 4,0Z" style="opacity: 1; stroke-width: 0px; fill: rgb(222, 35, 123); fill-opacity: 1;"/></g><g class="points"/><g class="points"/><g class="points"><path class="point" transform="translate(16.94,288.33)" d="M4,0A4,4 0 1,1 0,-4A4,4 0 0,1 4,0Z" style="opacity: 1; stroke-width: 0px; fill: rgb(222, 35, 123); fill-opacity: 1;"/><path class="point" transform="translate(17.28,288.33)" d="M4,0A4,4 0 1,1 0,-4A4,4 0 0,1 4,0Z" style="opacity: 1; stroke-width: 0px; fill: rgb(222, 35, 123); fill-opacity: 1;"/></g><g class="points"><path class="point" transform="translate(25.8,272.31)" d="M4,0A4,4 0 1,1 0,-4A4,4 0 0,1 4,0Z" style="opacity: 1; stroke-width: 0px; fill: rgb(222, 35, 123); fill-opacity: 1;"/><path class="point" transform="translate(43.2,272.31)" d="M4,0A4,4 0 1,1 0,-4A4,4 0 0,1 4,0Z" style="opacity: 1; stroke-width: 0px; fill: rgb(222, 35, 123); fill-opacity: 1;"/><path class="point" transform="translate(43.2,272.31)" d="M4,0A4,4 0 1,1 0,-4A4,4 0 0,1 4,0Z" style="opacity: 1; stroke-width: 0px; fill: rgb(222, 35, 123); fill-opacity: 1;"/></g><g class="points"><path class="point" transform="translate(22.74,256.29)" d="M4,0A4,4 0 1,1 0,-4A4,4 0 0,1 4,0Z" style="opacity: 1; stroke-width: 0px; fill: rgb(222, 35, 123); fill-opacity: 1;"/><path class="point" transform="translate(24,256.29)" d="M4,0A4,4 0 1,1 0,-4A4,4 0 0,1 4,0Z" style="opacity: 1; stroke-width: 0px; fill: rgb(222, 35, 123); fill-opacity: 1;"/><path class="point" transform="translate(49.85,256.29)" d="M4,0A4,4 0 1,1 0,-4A4,4 0 0,1 4,0Z" style="opacity: 1; stroke-width: 0px; fill: rgb(222, 35, 123); fill-opacity: 1;"/></g><g class="points"><path class="point" transform="translate(79.7,240.27)" d="M4,0A4,4 0 1,1 0,-4A4,4 0 0,1 4,0Z" style="opacity: 1; stroke-width: 0px; fill: rgb(222, 35, 123); fill-opacity: 1;"/><path class="point" transform="translate(79.7,240.27)" d="M4,0A4,4 0 1,1 0,-4A4,4 0 0,1 4,0Z" style="opacity: 1; stroke-width: 0px; fill: rgb(222, 35, 123); fill-opacity: 1;"/></g><g class="points"><path class="point" transform="translate(43.2,224.25)" d="M4,0A4,4 0 1,1 0,-4A4,4 0 0,1 4,0Z" style="opacity: 1; stroke-width: 0px; fill: rgb(222, 35, 123); fill-opacity: 1;"/><path class="point" transform="translate(43.2,224.25)" d="M4,0A4,4 0 1,1 0,-4A4,4 0 0,1 4,0Z" style="opacity: 1; stroke-width: 0px; fill: rgb(222, 35, 123); fill-opacity: 1;"/><path class="point" transform="translate(61.71,224.25)" d="M4,0A4,4 0 1,1 0,-4A4,4 0 0,1 4,0Z" style="opacity: 1; stroke-width: 0px; fill: rgb(222, 35, 123); fill-opacity: 1;"/></g><g class="points"><path class="point" transform="translate(43.2,208.24)" d="M4,0A4,4 0 1,1 0,-4A4,4 0 0,1 4,0Z" style="opacity: 1; stroke-width: 0px; fill: rgb(222, 35, 123); fill-opacity: 1;"/><path class="point" transform="translate(43.2,208.24)" d="M4,0A4,4 0 1,1 0,-4A4,4 0 0,1 4,0Z" style="opacity: 1; stroke-width: 0px; fill: rgb(222, 35, 123); fill-opacity: 1;"/><path class="point" transform="translate(61.71,208.24)" d="M4,0A4,4 0 1,1 0,-4A4,4 0 0,1 4,0Z" style="opacity: 1; stroke-width: 0px; fill: rgb(222, 35, 123); fill-opacity: 1;"/></g><g class="points"/><g class="points"><path class="point" transform="translate(64.62,176.2)" d="M4,0A4,4 0 1,1 0,-4A4,4 0 0,1 4,0Z" style="opacity: 1; stroke-width: 0px; fill: rgb(222, 35, 123); fill-opacity: 1;"/><path class="point" transform="translate(78.89,176.2)" d="M4,0A4,4 0 1,1 0,-4A4,4 0 0,1 4,0Z" style="opacity: 1; stroke-width: 0px; fill: rgb(222, 35, 123); fill-opacity: 1;"/><path class="point" transform="translate(83.31,176.2)" d="M4,0A4,4 0 1,1 0,-4A4,4 0 0,1 4,0Z" style="opacity: 1; stroke-width: 0px; fill: rgb(222, 35, 123); fill-opacity: 1;"/></g><g class="points"><path class="point" transform="translate(73.09,160.18)" d="M4,0A4,4 0 1,1 0,-4A4,4 0 0,1 4,0Z" style="opacity: 1; stroke-width: 0px; fill: rgb(222, 35, 123); fill-opacity: 1;"/><path class="point" transform="translate(91.62,160.18)" d="M4,0A4,4 0 1,1 0,-4A4,4 0 0,1 4,0Z" style="opacity: 1; stroke-width: 0px; fill: rgb(222, 35, 123); fill-opacity: 1;"/></g><g class="points"><path class="point" transform="translate(75.58,144.16)" d="M4,0A4,4 0 1,1 0,-4A4,4 0 0,1 4,0Z" style="opacity: 1; stroke-width: 0px; fill: rgb(222, 35, 123); fill-opacity: 1;"/></g><g class="points"><path class="point" transform="translate(104.91,128.15)" d="M4,0A4,4 0 1,1 0,-4A4,4 0 0,1 4,0Z" style="opacity: 1; stroke-width: 0px; fill: rgb(222, 35, 123); fill-opacity: 1;"/></g><g class="points"/><g class="points"><path class="point" transform="translate(103.25,96.11)" d="M4,0A4,4 0 1,1 0,-4A4,4 0 0,1 4,0Z" style="opacity: 1; stroke-width: 0px; fill: rgb(222, 35, 123); fill-opacity: 1;"/></g><g class="points"><path class="point" transform="translate(70.02,80.09)" d="M4,0A4,4 0 1,1 0,-4A4,4 0 0,1 4,0Z" style="opacity: 1; stroke-width: 0px; fill: rgb(222, 35, 123); fill-opacity: 1;"/></g><g class="points"><path class="point" transform="translate(68.12,64.07)" d="M4,0A4,4 0 1,1 0,-4A4,4 0 0,1 4,0Z" style="opacity: 1; stroke-width: 0px; fill: rgb(222, 35, 123); fill-opacity: 1;"/></g><g class="points"/><g class="points"/><g class="points"/></g></g></g><g class="overplot"/><path class="xlines-above crisp" d="M0,0" style="fill: none;"/><path class="ylines-above crisp" d="M0,0" style="fill: none;"/><g class="overlines-above"/><g class="xaxislayer-above"><g class="xtick"><text text-anchor="middle" x="0" y="1052" transform="translate(168,0)" style="font-family: 'Times new roman'; font-size: 20px; fill: rgb(0, 0, 0); fill-opacity: 1; white-space: pre; opacity: 1;">0</text></g><g class="xtick"><text text-anchor="middle" x="0" y="1052" style="font-family: 'Times new roman'; font-size: 20px; fill: rgb(0, 0, 0); fill-opacity: 1; white-space: pre; opacity: 1;" transform="translate(254.4,0)">0.05</text></g><g class="xtick"><text text-anchor="middle" x="0" y="1052" style="font-family: 'Times new roman'; font-size: 20px; fill: rgb(0, 0, 0); fill-opacity: 1; white-space: pre; opacity: 1;" transform="translate(340.8,0)">0.1</text></g><g class="xtick"><text text-anchor="middle" x="0" y="1052" style="font-family: 'Times new roman'; font-size: 20px; fill: rgb(0, 0, 0); fill-opacity: 1; white-space: pre; opacity: 1;" transform="translate(427.2,0)">0.15</text></g><g class="xtick"><text text-anchor="middle" x="0" y="1052" style="font-family: 'Times new roman'; font-size: 20px; fill: rgb(0, 0, 0); fill-opacity: 1; white-space: pre; opacity: 1;" transform="translate(513.6,0)">0.2</text></g><g class="xtick"><text text-anchor="middle" x="0" y="1052" style="font-family: 'Times new roman'; font-size: 20px; fill: rgb(0, 0, 0); fill-opacity: 1; white-space: pre; opacity: 1;" transform="translate(600,0)">0.25</text></g></g><g class="yaxislayer-above"><g class="ytick"><text text-anchor="end" x="167" y="7" transform="translate(0,1014.98)" style="font-family: 'Times new roman'; font-size: 20px; fill: rgb(0, 0, 0); fill-opacity: 1; white-space: pre; opacity: 1;">wSMI_1_mean</text></g><g class="ytick"><text text-anchor="end" x="167" y="7" transform="translate(0,998.96)" style="font-family: 'Times new roman'; font-size: 20px; fill: rgb(0, 0, 0); fill-opacity: 1; white-space: pre; opacity: 1;">wSMI_2_std</text></g><g class="ytick"><text text-anchor="end" x="167" y="7" transform="translate(0,982.95)" style="font-family: 'Times new roman'; font-size: 20px; fill: rgb(0, 0, 0); fill-opacity: 1; white-space: pre; opacity: 1;">wSMI_8_std</text></g><g class="ytick"><text text-anchor="end" x="167" y="7" transform="translate(0,966.93)" style="font-family: 'Times new roman'; font-size: 20px; fill: rgb(0, 0, 0); fill-opacity: 1; white-space: pre; opacity: 1;">p_e_2_std</text></g><g class="ytick"><text text-anchor="end" x="167" y="7" transform="translate(0,950.91)" style="font-family: 'Times new roman'; font-size: 20px; fill: rgb(0, 0, 0); fill-opacity: 1; white-space: pre; opacity: 1;">p_e_4_mean</text></g><g class="ytick"><text text-anchor="end" x="167" y="7" transform="translate(0,934.89)" style="font-family: 'Times new roman'; font-size: 20px; fill: rgb(0, 0, 0); fill-opacity: 1; white-space: pre; opacity: 1;">p_e_4_std</text></g><g class="ytick"><text text-anchor="end" x="167" y="7" transform="translate(0,918.87)" style="font-family: 'Times new roman'; font-size: 20px; fill: rgb(0, 0, 0); fill-opacity: 1; white-space: pre; opacity: 1;">p_e_8_std</text></g><g class="ytick"><text text-anchor="end" x="167" y="7" transform="translate(0,902.85)" style="font-family: 'Times new roman'; font-size: 20px; fill: rgb(0, 0, 0); fill-opacity: 1; white-space: pre; opacity: 1;">k_mean</text></g><g class="ytick"><text text-anchor="end" x="167" y="7" transform="translate(0,886.84)" style="font-family: 'Times new roman'; font-size: 20px; fill: rgb(0, 0, 0); fill-opacity: 1; white-space: pre; opacity: 1;">se_mean</text></g><g class="ytick"><text text-anchor="end" x="167" y="7" transform="translate(0,870.82)" style="font-family: 'Times new roman'; font-size: 20px; fill: rgb(0, 0, 0); fill-opacity: 1; white-space: pre; opacity: 1;">se_std</text></g><g class="ytick"><text text-anchor="end" x="167" y="7" transform="translate(0,854.8)" style="font-family: 'Times new roman'; font-size: 20px; fill: rgb(0, 0, 0); fill-opacity: 1; white-space: pre; opacity: 1;">sef90_mean</text></g><g class="ytick"><text text-anchor="end" x="167" y="7" transform="translate(0,838.78)" style="font-family: 'Times new roman'; font-size: 20px; fill: rgb(0, 0, 0); fill-opacity: 1; white-space: pre; opacity: 1;">sef95_mean</text></g><g class="ytick"><text text-anchor="end" x="167" y="7" transform="translate(0,822.76)" style="font-family: 'Times new roman'; font-size: 20px; fill: rgb(0, 0, 0); fill-opacity: 1; white-space: pre; opacity: 1;">g_mean</text></g><g class="ytick"><text text-anchor="end" x="167" y="7" transform="translate(0,806.75)" style="font-family: 'Times new roman'; font-size: 20px; fill: rgb(0, 0, 0); fill-opacity: 1; white-space: pre; opacity: 1;">g_n_mean</text></g><g class="ytick"><text text-anchor="end" x="167" y="7" transform="translate(0,790.73)" style="font-family: 'Times new roman'; font-size: 20px; fill: rgb(0, 0, 0); fill-opacity: 1; white-space: pre; opacity: 1;">g_n_std</text></g><g class="ytick"><text text-anchor="end" x="167" y="7" transform="translate(0,774.71)" style="font-family: 'Times new roman'; font-size: 20px; fill: rgb(0, 0, 0); fill-opacity: 1; white-space: pre; opacity: 1;">d_mean</text></g><g class="ytick"><text text-anchor="end" x="167" y="7" transform="translate(0,758.69)" style="font-family: 'Times new roman'; font-size: 20px; fill: rgb(0, 0, 0); fill-opacity: 1; white-space: pre; opacity: 1;">d_n_std</text></g><g class="ytick"><text text-anchor="end" x="167" y="7" transform="translate(0,742.67)" style="font-family: 'Times new roman'; font-size: 20px; fill: rgb(0, 0, 0); fill-opacity: 1; white-space: pre; opacity: 1;">a_n_std</text></g><g class="ytick"><text text-anchor="end" x="167" y="7" transform="translate(0,726.65)" style="font-family: 'Times new roman'; font-size: 20px; fill: rgb(0, 0, 0); fill-opacity: 1; white-space: pre; opacity: 1;">P3a_std</text></g><g class="ytick"><text text-anchor="end" x="167" y="7" transform="translate(0,710.64)" style="font-family: 'Times new roman'; font-size: 20px; fill: rgb(0, 0, 0); fill-opacity: 1; white-space: pre; opacity: 1;">sef95_std</text></g><g class="ytick"><text text-anchor="end" x="167" y="7" transform="translate(0,694.62)" style="font-family: 'Times new roman'; font-size: 20px; fill: rgb(0, 0, 0); fill-opacity: 1; white-space: pre; opacity: 1;">a_n_mean</text></g><g class="ytick"><text text-anchor="end" x="167" y="7" transform="translate(0,678.6)" style="font-family: 'Times new roman'; font-size: 20px; fill: rgb(0, 0, 0); fill-opacity: 1; white-space: pre; opacity: 1;">P3a_mean</text></g><g class="ytick"><text text-anchor="end" x="167" y="7" transform="translate(0,662.58)" style="font-family: 'Times new roman'; font-size: 20px; fill: rgb(0, 0, 0); fill-opacity: 1; white-space: pre; opacity: 1;">wSMI_2_mean</text></g><g class="ytick"><text text-anchor="end" x="167" y="7" transform="translate(0,646.56)" style="font-family: 'Times new roman'; font-size: 20px; fill: rgb(0, 0, 0); fill-opacity: 1; white-space: pre; opacity: 1;">t_mean</text></g><g class="ytick"><text text-anchor="end" x="167" y="7" transform="translate(0,630.55)" style="font-family: 'Times new roman'; font-size: 20px; fill: rgb(0, 0, 0); fill-opacity: 1; white-space: pre; opacity: 1;">sef90_std</text></g><g class="ytick"><text text-anchor="end" x="167" y="7" transform="translate(0,614.53)" style="font-family: 'Times new roman'; font-size: 20px; fill: rgb(0, 0, 0); fill-opacity: 1; white-space: pre; opacity: 1;">a_mean</text></g><g class="ytick"><text text-anchor="end" x="167" y="7" transform="translate(0,598.51)" style="font-family: 'Times new roman'; font-size: 20px; fill: rgb(0, 0, 0); fill-opacity: 1; white-space: pre; opacity: 1;">P1_std</text></g><g class="ytick"><text text-anchor="end" x="167" y="7" transform="translate(0,582.49)" style="font-family: 'Times new roman'; font-size: 20px; fill: rgb(0, 0, 0); fill-opacity: 1; white-space: pre; opacity: 1;">t_std</text></g><g class="ytick"><text text-anchor="end" x="167" y="7" transform="translate(0,566.47)" style="font-family: 'Times new roman'; font-size: 20px; fill: rgb(0, 0, 0); fill-opacity: 1; white-space: pre; opacity: 1;">P3b_std</text></g><g class="ytick"><text text-anchor="end" x="167" y="7" transform="translate(0,550.45)" style="font-family: 'Times new roman'; font-size: 20px; fill: rgb(0, 0, 0); fill-opacity: 1; white-space: pre; opacity: 1;">b_std</text></g><g class="ytick"><text text-anchor="end" x="167" y="7" transform="translate(0,534.44)" style="font-family: 'Times new roman'; font-size: 20px; fill: rgb(0, 0, 0); fill-opacity: 1; white-space: pre; opacity: 1;">a_std</text></g><g class="ytick"><text text-anchor="end" x="167" y="7" transform="translate(0,518.4200000000001)" style="font-family: 'Times new roman'; font-size: 20px; fill: rgb(0, 0, 0); fill-opacity: 1; white-space: pre; opacity: 1;">wSMI_4_std</text></g><g class="ytick"><text text-anchor="end" x="167" y="7" transform="translate(0,502.4)" style="font-family: 'Times new roman'; font-size: 20px; fill: rgb(0, 0, 0); fill-opacity: 1; white-space: pre; opacity: 1;">msf_mean</text></g><g class="ytick"><text text-anchor="end" x="167" y="7" transform="translate(0,486.38)" style="font-family: 'Times new roman'; font-size: 20px; fill: rgb(0, 0, 0); fill-opacity: 1; white-space: pre; opacity: 1;">wSMI_8_mean</text></g><g class="ytick"><text text-anchor="end" x="167" y="7" transform="translate(0,470.36)" style="font-family: 'Times new roman'; font-size: 20px; fill: rgb(0, 0, 0); fill-opacity: 1; white-space: pre; opacity: 1;">p_e_8_mean</text></g><g class="ytick"><text text-anchor="end" x="167" y="7" transform="translate(0,454.35)" style="font-family: 'Times new roman'; font-size: 20px; fill: rgb(0, 0, 0); fill-opacity: 1; white-space: pre; opacity: 1;">CNV_mean</text></g><g class="ytick"><text text-anchor="end" x="167" y="7" transform="translate(0,438.33)" style="font-family: 'Times new roman'; font-size: 20px; fill: rgb(0, 0, 0); fill-opacity: 1; white-space: pre; opacity: 1;">g_std</text></g><g class="ytick"><text text-anchor="end" x="167" y="7" transform="translate(0,422.31)" style="font-family: 'Times new roman'; font-size: 20px; fill: rgb(0, 0, 0); fill-opacity: 1; white-space: pre; opacity: 1;">d_n_mean</text></g><g class="ytick"><text text-anchor="end" x="167" y="7" transform="translate(0,406.29)" style="font-family: 'Times new roman'; font-size: 20px; fill: rgb(0, 0, 0); fill-opacity: 1; white-space: pre; opacity: 1;">b_n_std</text></g><g class="ytick"><text text-anchor="end" x="167" y="7" transform="translate(0,390.27)" style="font-family: 'Times new roman'; font-size: 20px; fill: rgb(0, 0, 0); fill-opacity: 1; white-space: pre; opacity: 1;">wSMI_4_mean</text></g><g class="ytick"><text text-anchor="end" x="167" y="7" transform="translate(0,374.25)" style="font-family: 'Times new roman'; font-size: 20px; fill: rgb(0, 0, 0); fill-opacity: 1; white-space: pre; opacity: 1;">p_e_1_mean</text></g><g class="ytick"><text text-anchor="end" x="167" y="7" transform="translate(0,358.24)" style="font-family: 'Times new roman'; font-size: 20px; fill: rgb(0, 0, 0); fill-opacity: 1; white-space: pre; opacity: 1;">d_std</text></g><g class="ytick"><text text-anchor="end" x="167" y="7" transform="translate(0,342.22)" style="font-family: 'Times new roman'; font-size: 20px; fill: rgb(0, 0, 0); fill-opacity: 1; white-space: pre; opacity: 1;">b_mean</text></g><g class="ytick"><text text-anchor="end" x="167" y="7" transform="translate(0,326.2)" style="font-family: 'Times new roman'; font-size: 20px; fill: rgb(0, 0, 0); fill-opacity: 1; white-space: pre; opacity: 1;">b_n_mean</text></g><g class="ytick"><text text-anchor="end" x="167" y="7" transform="translate(0,310.18)" style="font-family: 'Times new roman'; font-size: 20px; fill: rgb(0, 0, 0); fill-opacity: 1; white-space: pre; opacity: 1;">P3b_mean</text></g><g class="ytick"><text text-anchor="end" x="167" y="7" transform="translate(0,294.15999999999997)" style="font-family: 'Times new roman'; font-size: 20px; fill: rgb(0, 0, 0); fill-opacity: 1; white-space: pre; opacity: 1;">k_std</text></g><g class="ytick"><text text-anchor="end" x="167" y="7" transform="translate(0,278.15)" style="font-family: 'Times new roman'; font-size: 20px; fill: rgb(0, 0, 0); fill-opacity: 1; white-space: pre; opacity: 1;">msf_std</text></g><g class="ytick"><text text-anchor="end" x="167" y="7" transform="translate(0,262.13)" style="font-family: 'Times new roman'; font-size: 20px; fill: rgb(0, 0, 0); fill-opacity: 1; white-space: pre; opacity: 1;">p_e_2_mean</text></g><g class="ytick"><text text-anchor="end" x="167" y="7" transform="translate(0,246.11)" style="font-family: 'Times new roman'; font-size: 20px; fill: rgb(0, 0, 0); fill-opacity: 1; white-space: pre; opacity: 1;">P1_mean</text></g><g class="ytick"><text text-anchor="end" x="167" y="7" transform="translate(0,230.09)" style="font-family: 'Times new roman'; font-size: 20px; fill: rgb(0, 0, 0); fill-opacity: 1; white-space: pre; opacity: 1;">CNV_std</text></g><g class="ytick"><text text-anchor="end" x="167" y="7" transform="translate(0,214.07)" style="font-family: 'Times new roman'; font-size: 20px; fill: rgb(0, 0, 0); fill-opacity: 1; white-space: pre; opacity: 1;">p_e_1_std</text></g><g class="ytick"><text text-anchor="end" x="167" y="7" transform="translate(0,198.05)" style="font-family: 'Times new roman'; font-size: 20px; fill: rgb(0, 0, 0); fill-opacity: 1; white-space: pre; opacity: 1;">wSMI_1_std</text></g><g class="ytick"><text text-anchor="end" x="167" y="7" transform="translate(0,182.04)" style="font-family: 'Times new roman'; font-size: 20px; fill: rgb(0, 0, 0); fill-opacity: 1; white-space: pre; opacity: 1;">t_n_mean</text></g><g class="ytick"><text text-anchor="end" x="167" y="7" transform="translate(0,166.02)" style="font-family: 'Times new roman'; font-size: 20px; fill: rgb(0, 0, 0); fill-opacity: 1; white-space: pre; opacity: 1;">t_n_std</text></g></g><g class="overaxes-above"/></g></g><g class="polarlayer"/><g class="smithlayer"/><g class="ternarylayer"/><g class="geolayer"/><g class="funnelarealayer"/><g class="pielayer"/><g class="iciclelayer"/><g class="treemaplayer"/><g class="sunburstlayer"/><g class="glimages"/><defs id="topdefs-7e407f"><g class="clips"/></defs><g class="layer-above"><g class="imagelayer"/><g class="shapelayer"/></g><g class="infolayer"><g class="g-gtitle"><text class="gtitle" x="32.5" y="75" text-anchor="start" dy="0em" style="font-family: 'Times new roman'; font-size: 28px; fill: rgb(0, 0, 0); opacity: 1; font-weight: normal; white-space: pre;"><tspan class="line" dy="0em" x="32.5" y="75">FI of Top 10 Models on-task_vs_mw </tspan><tspan class="line" dy="1.3em" x="32.5" y="75"> Average AUC 0.642 </tspan><tspan class="line" dy="2.6em" x="32.5" y="75"> Best AUC 0.649</tspan></text></g><g class="g-xtitle"><text class="xtitle" x="384" y="1087.3" text-anchor="middle" style="font-family: 'Times new roman'; font-size: 24px; fill: rgb(0, 0, 0); opacity: 1; font-weight: normal; white-space: pre;">Feature Importance</text></g><g class="g-ytitle" transform="translate(8.6279296875,0)"><text class="ytitle" transform="rotate(-90,12.371874999999989,590.5)" x="12.371874999999989" y="590.5" text-anchor="middle" style="font-family: 'Times new roman'; font-size: 24px; fill: rgb(0, 0, 0); opacity: 1; font-weight: normal; white-space: pre;">Feature</text></g></g></svg>