<svg class="main-svg" xmlns="http://www.w3.org/2000/svg" xmlns:xlink="http://www.w3.org/1999/xlink" width="650" height="1100" style="" viewBox="0 0 650 1100"><rect x="0" y="0" width="650" height="1100" style="fill: rgb(255, 255, 255); fill-opacity: 1;"/><defs id="defs-a5164b"><g class="clips"><clipPath id="clipa5164bxyplot" class="plotclip"><rect width="432" height="881"/></clipPath><clipPath class="axesclip" id="clipa5164bx"><rect x="168" y="0" width="432" height="1100"/></clipPath><clipPath class="axesclip" id="clipa5164by"><rect x="0" y="150" width="650" height="881"/></clipPath><clipPath class="axesclip" id="clipa5164bxy"><rect x="168" y="150" width="432" height="881"/></clipPath></g><g class="gradients"/><g class="patterns"/></defs><g class="bglayer"/><g class="layer-below"><g class="imagelayer"/><g class="shapelayer"/></g><g class="cartesianlayer"><g class="subplot xy"><g class="layer-subplot"><g class="shapelayer"/><g class="imagelayer"/></g><g class="minor-gridlayer"><g class="x"/><g class="y"/></g><g class="gridlayer"><g class="x"><path class="xgrid crisp" transform="translate(264,0)" d="M0,150v881" style="stroke: rgb(235, 240, 248); stroke-opacity: 1; stroke-width: 1px;"/><path class="xgrid crisp" transform="translate(360,0)" d="M0,150v881" style="stroke: rgb(235, 240, 248); stroke-opacity: 1; stroke-width: 1px;"/><path class="xgrid crisp" transform="translate(456,0)" d="M0,150v881" style="stroke: rgb(235, 240, 248); stroke-opacity: 1; stroke-width: 1px;"/><path class="xgrid crisp" transform="translate(552,0)" d="M0,150v881" style="stroke: rgb(235, 240, 248); stroke-opacity: 1; stroke-width: 1px;"/></g><g class="y"/></g><g class="zerolinelayer"><path class="xzl zl crisp" transform="translate(168,0)" d="M0,150v881" style="stroke: rgb(235, 240, 248); stroke-opacity: 1; stroke-width: 2px;"/></g><path class="xlines-below"/><path class="ylines-below"/><g class="overlines-below"/><g class="xaxislayer-below"/><g class="yaxislayer-below"/><g class="overaxes-below"/><g class="plot" transform="translate(168,150)" clip-path="url(#clipa5164bxyplot)"><g class="boxlayer mlayer"><g class="trace boxes" style="opacity: 1;"><path class="box" d="M0,868.91V861.06M0,868.91V861.06H0V868.91ZM0,864.98H0M0,864.98H0M0,866.94V863.02M0,866.94V863.02" style="vector-effect: none; stroke-width: 2px; stroke: rgb(154, 197, 41); stroke-opacity: 1; fill: rgb(154, 197, 41); fill-opacity: 0.5;"/><path class="box" d="M0,852.89V845.04M0,852.89V845.04H0V852.89ZM0,848.96H0M0,848.96H0M0,850.93V847M0,850.93V847" style="vector-effect: none; stroke-width: 2px; stroke: rgb(154, 197, 41); stroke-opacity: 1; fill: rgb(154, 197, 41); fill-opacity: 0.5;"/><path class="box" d="M0,836.87V829.02M0,836.87V829.02H0V836.87ZM0,832.95H0M0,832.95H0M0,834.91V830.98M0,834.91V830.98" style="vector-effect: none; stroke-width: 2px; stroke: rgb(154, 197, 41); stroke-opacity: 1; fill: rgb(154, 197, 41); fill-opacity: 0.5;"/><path class="box" d="M0,820.85V813M0,820.85V813H0V820.85ZM0,816.93H0M0,816.93H0M0,818.89V814.97M0,818.89V814.97" style="vector-effect: none; stroke-width: 2px; stroke: rgb(154, 197, 41); stroke-opacity: 1; fill: rgb(154, 197, 41); fill-opacity: 0.5;"/><path class="box" d="M0,804.83V796.98M0,804.83V796.98H0V804.83ZM0,800.91H0M0,800.91H0M0,802.87V798.95M0,802.87V798.95" style="vector-effect: none; stroke-width: 2px; stroke: rgb(154, 197, 41); stroke-opacity: 1; fill: rgb(154, 197, 41); fill-opacity: 0.5;"/><path class="box" d="M0,788.82V780.97M0,788.82V780.97H0V788.82ZM0,784.89H0M0,784.89H0M0,786.85V782.93M0,786.85V782.93" style="vector-effect: none; stroke-width: 2px; stroke: rgb(154, 197, 41); stroke-opacity: 1; fill: rgb(154, 197, 41); fill-opacity: 0.5;"/><path class="box" d="M0,772.8V764.95M0,772.8V764.95H0V772.8ZM0,768.87H0M0,768.87H0M0,770.83V766.91M0,770.83V766.91" style="vector-effect: none; stroke-width: 2px; stroke: rgb(154, 197, 41); stroke-opacity: 1; fill: rgb(154, 197, 41); fill-opacity: 0.5;"/><path class="box" d="M0,756.78V748.93M0,756.78V748.93H0V756.78ZM0,752.85H0M0,752.85H0M0,754.82V750.89M0,754.82V750.89" style="vector-effect: none; stroke-width: 2px; stroke: rgb(154, 197, 41); stroke-opacity: 1; fill: rgb(154, 197, 41); fill-opacity: 0.5;"/><path class="box" d="M0,740.76V732.91M0,740.76V732.91H0V740.76ZM0,736.84H0M0,736.84H0M0,738.8V734.87M0,738.8V734.87" style="vector-effect: none; stroke-width: 2px; stroke: rgb(154, 197, 41); stroke-opacity: 1; fill: rgb(154, 197, 41); fill-opacity: 0.5;"/><path class="box" d="M0,724.74V716.89M0,724.74V716.89H0V724.74ZM0,720.82H0M0,720.82H0M0,722.78V718.86M0,722.78V718.86" style="vector-effect: none; stroke-width: 2px; stroke: rgb(154, 197, 41); stroke-opacity: 1; fill: rgb(154, 197, 41); fill-opacity: 0.5;"/><path class="box" d="M0,708.72V700.88M0,708.72V700.88H0V708.72ZM0,704.8H0M0,704.8H0M0,706.76V702.84M0,706.76V702.84" style="vector-effect: none; stroke-width: 2px; stroke: rgb(154, 197, 41); stroke-opacity: 1; fill: rgb(154, 197, 41); fill-opacity: 0.5;"/><path class="box" d="M0,692.71V684.86M0,692.71V684.86H0V692.71ZM0,688.78H0M0,688.78H0M0,690.74V686.82M0,690.74V686.82" style="vector-effect: none; stroke-width: 2px; stroke: rgb(154, 197, 41); stroke-opacity: 1; fill: rgb(154, 197, 41); fill-opacity: 0.5;"/><path class="box" d="M0,676.69V668.84M0,676.69V668.84H0V676.69ZM0,672.76H0M0,672.76H0M0,674.73V670.8M0,674.73V670.8" style="vector-effect: none; stroke-width: 2px; stroke: rgb(154, 197, 41); stroke-opacity: 1; fill: rgb(154, 197, 41); fill-opacity: 0.5;"/><path class="box" d="M0,660.67V652.82M0,660.67V652.82H0V660.67ZM0,656.75H0M0,656.75H0M0,658.71V654.78M0,658.71V654.78" style="vector-effect: none; stroke-width: 2px; stroke: rgb(154, 197, 41); stroke-opacity: 1; fill: rgb(154, 197, 41); fill-opacity: 0.5;"/><path class="box" d="M0,644.65V636.8M0,644.65V636.8H0V644.65ZM0,640.73H0M0,640.73H0M0,642.69V638.77M0,642.69V638.77" style="vector-effect: none; stroke-width: 2px; stroke: rgb(154, 197, 41); stroke-opacity: 1; fill: rgb(154, 197, 41); fill-opacity: 0.5;"/><path class="box" d="M0,628.63V620.78M0,628.63V620.78H0V628.63ZM0,624.71H0M0,624.71H0M0,626.67V622.75M0,626.67V622.75" style="vector-effect: none; stroke-width: 2px; stroke: rgb(154, 197, 41); stroke-opacity: 1; fill: rgb(154, 197, 41); fill-opacity: 0.5;"/><path class="box" d="M0,612.62V604.77M0,612.62V604.77H0V612.62ZM0,608.69H0M0,608.69H0M0,610.65V606.73M0,610.65V606.73" style="vector-effect: none; stroke-width: 2px; stroke: rgb(154, 197, 41); stroke-opacity: 1; fill: rgb(154, 197, 41); fill-opacity: 0.5;"/><path class="box" d="M0,596.6V588.75M0,596.6V588.75H0V596.6ZM0,592.67H0M0,592.67H0M0,594.63V590.71M0,594.63V590.71" style="vector-effect: none; stroke-width: 2px; stroke: rgb(154, 197, 41); stroke-opacity: 1; fill: rgb(154, 197, 41); fill-opacity: 0.5;"/><path class="box" d="M0,580.58V572.73M0,580.58V572.73H0V580.58ZM0,576.65H0M0,576.65H0M0,578.62V574.69M0,578.62V574.69" style="vector-effect: none; stroke-width: 2px; stroke: rgb(154, 197, 41); stroke-opacity: 1; fill: rgb(154, 197, 41); fill-opacity: 0.5;"/><path class="box" d="M0,564.56V556.71M0,564.56V556.71H0V564.56ZM0,560.64H0M0,560.64H0M0,562.6V558.67M0,562.6V558.67" style="vector-effect: none; stroke-width: 2px; stroke: rgb(154, 197, 41); stroke-opacity: 1; fill: rgb(154, 197, 41); fill-opacity: 0.5;"/><path class="box" d="M0,548.54V540.69M0,548.54V540.69H0V548.54ZM0,544.62H0M0,544.62H0M0,546.58V542.66M0,546.58V542.66" style="vector-effect: none; stroke-width: 2px; stroke: rgb(154, 197, 41); stroke-opacity: 1; fill: rgb(154, 197, 41); fill-opacity: 0.5;"/><path class="box" d="M0,532.52V524.68M0,532.52V524.68H0V532.52ZM0,528.6H0M0,528.6H0M0,530.56V526.64M0,530.56V526.64" style="vector-effect: none; stroke-width: 2px; stroke: rgb(154, 197, 41); stroke-opacity: 1; fill: rgb(154, 197, 41); fill-opacity: 0.5;"/><path class="box" d="M0,516.51V508.66M0,516.51V508.66H0V516.51ZM0,512.58H0M0,512.58H0M0,514.54V510.62M0,514.54V510.62" style="vector-effect: none; stroke-width: 2px; stroke: rgb(154, 197, 41); stroke-opacity: 1; fill: rgb(154, 197, 41); fill-opacity: 0.5;"/><path class="box" d="M0,500.49V492.64M0,500.49V492.64H0V500.49ZM0,496.56H0M0,496.56H0M0,498.53V494.6M0,498.53V494.6" style="vector-effect: none; stroke-width: 2px; stroke: rgb(154, 197, 41); stroke-opacity: 1; fill: rgb(154, 197, 41); fill-opacity: 0.5;"/><path class="box" d="M1,484.47V476.62M0,484.47V476.62H2.86V484.47ZM0,480.55H0M2.86,480.55H3.43M0,482.51V478.58M3.43,482.51V478.58" style="vector-effect: none; stroke-width: 2px; stroke: rgb(154, 197, 41); stroke-opacity: 1; fill: rgb(154, 197, 41); fill-opacity: 0.5;"/><path class="box" d="M1,468.45V460.6M0,468.45V460.6H2.86V468.45ZM0,464.53H0M2.86,464.53H3.43M0,466.49V462.57M3.43,466.49V462.57" style="vector-effect: none; stroke-width: 2px; stroke: rgb(154, 197, 41); stroke-opacity: 1; fill: rgb(154, 197, 41); fill-opacity: 0.5;"/><path class="box" d="M1,452.43V444.58M0,452.43V444.58H4.44V452.43ZM0,448.51H0M4.44,448.51H5.45M0,450.47V446.55M5.45,450.47V446.55" style="vector-effect: none; stroke-width: 2px; stroke: rgb(154, 197, 41); stroke-opacity: 1; fill: rgb(154, 197, 41); fill-opacity: 0.5;"/><path class="box" d="M1.43,436.42V428.57M0,436.42V428.57H3.43V436.42ZM0,432.49H0M3.43,432.49H4.8M0,434.45V430.53M4.8,434.45V430.53" style="vector-effect: none; stroke-width: 2px; stroke: rgb(154, 197, 41); stroke-opacity: 1; fill: rgb(154, 197, 41); fill-opacity: 0.5;"/><path class="box" d="M3.14,420.4V412.55M0,420.4V412.55H4.44V420.4ZM0,416.47H0M4.44,416.47H5.45M0,418.43V414.51M5.45,418.43V414.51" style="vector-effect: none; stroke-width: 2px; stroke: rgb(154, 197, 41); stroke-opacity: 1; fill: rgb(154, 197, 41); fill-opacity: 0.5;"/><path class="box" d="M3.13,404.38V396.53M0,404.38V396.53H4.13V404.38ZM0,400.45H0M4.13,400.45H6.77M0,402.42V398.49M6.77,402.42V398.49" style="vector-effect: none; stroke-width: 2px; stroke: rgb(154, 197, 41); stroke-opacity: 1; fill: rgb(154, 197, 41); fill-opacity: 0.5;"/><path class="box" d="M0,388.36V380.51M0,388.36V380.51H0V388.36ZM0,384.44H0M0,384.44H0M0,386.4V382.47M0,386.4V382.47" style="vector-effect: none; stroke-width: 2px; stroke: rgb(154, 197, 41); stroke-opacity: 1; fill: rgb(154, 197, 41); fill-opacity: 0.5;"/><path class="box" d="M3.8,372.34V364.49M2.86,372.34V364.49H4.8V372.34ZM2.86,368.42H0M4.8,368.42H5.45M0,370.38V366.46M5.45,370.38V366.46" style="vector-effect: none; stroke-width: 2px; stroke: rgb(154, 197, 41); stroke-opacity: 1; fill: rgb(154, 197, 41); fill-opacity: 0.5;"/><path class="box" d="M4.45,356.32V348.48M3.43,356.32V348.48H5.45V356.32ZM3.43,352.4H2.86M5.45,352.4H6M2.86,354.36V350.44M6,354.36V350.44" style="vector-effect: none; stroke-width: 2px; stroke: rgb(154, 197, 41); stroke-opacity: 1; fill: rgb(154, 197, 41); fill-opacity: 0.5;"/><path class="box" d="M5.58,340.31V332.46M4.44,340.31V332.46H6.86V340.31ZM4.44,336.38H4.44M6.86,336.38H9.6M4.44,338.34V334.42M9.6,338.34V334.42" style="vector-effect: none; stroke-width: 2px; stroke: rgb(154, 197, 41); stroke-opacity: 1; fill: rgb(154, 197, 41); fill-opacity: 0.5;"/><path class="box" d="M5.58,324.29V316.44M0,324.29V316.44H6.86V324.29ZM0,320.36H0M6.86,320.36H6.86M0,322.33V318.4M6.86,322.33V318.4" style="vector-effect: none; stroke-width: 2px; stroke: rgb(154, 197, 41); stroke-opacity: 1; fill: rgb(154, 197, 41); fill-opacity: 0.5;"/><path class="box" d="M5.86,308.27V300.42M5.45,308.27V300.42H6.86V308.27ZM5.45,304.35H4.8M6.86,304.35H8.89M4.8,306.31V302.38M8.89,306.31V302.38" style="vector-effect: none; stroke-width: 2px; stroke: rgb(154, 197, 41); stroke-opacity: 1; fill: rgb(154, 197, 41); fill-opacity: 0.5;"/><path class="box" d="M5.23,292.25V284.4M4.44,292.25V284.4H5.71V292.25ZM4.44,288.33H3.43M5.71,288.33H5.71M3.43,290.29V286.37M5.71,290.29V286.37" style="vector-effect: none; stroke-width: 2px; stroke: rgb(154, 197, 41); stroke-opacity: 1; fill: rgb(154, 197, 41); fill-opacity: 0.5;"/><path class="box" d="M6.86,276.23V268.38M5.71,276.23V268.38H9.6V276.23ZM5.71,272.31H5.45M9.6,272.31H10.91M5.45,274.27V270.35M10.91,274.27V270.35" style="vector-effect: none; stroke-width: 2px; stroke: rgb(154, 197, 41); stroke-opacity: 1; fill: rgb(154, 197, 41); fill-opacity: 0.5;"/><path class="box" d="M9.29,260.22V252.37M6,260.22V252.37H10.29V260.22ZM6,256.29H4.8M10.29,256.29H16.07M4.8,258.25V254.33M16.07,258.25V254.33" style="vector-effect: none; stroke-width: 2px; stroke: rgb(154, 197, 41); stroke-opacity: 1; fill: rgb(154, 197, 41); fill-opacity: 0.5;"/><path class="box" d="M9.79,244.2V236.35M3.43,244.2V236.35H15V244.2ZM3.43,240.27H0M15,240.27H20M0,242.23V238.31M20,242.23V238.31" style="vector-effect: none; stroke-width: 2px; stroke: rgb(154, 197, 41); stroke-opacity: 1; fill: rgb(154, 197, 41); fill-opacity: 0.5;"/><path class="box" d="M15,228.18V220.33M0,228.18V220.33H18.46V228.18ZM0,224.25H0M18.46,224.25H22.86M0,226.22V222.29M22.86,226.22V222.29" style="vector-effect: none; stroke-width: 2px; stroke: rgb(154, 197, 41); stroke-opacity: 1; fill: rgb(154, 197, 41); fill-opacity: 0.5;"/><path class="box" d="M14.23,212.16V204.31M10.36,212.16V204.31H15.23V212.16ZM10.36,208.24H5M15.23,208.24H20M5,210.2V206.27M20,210.2V206.27" style="vector-effect: none; stroke-width: 2px; stroke: rgb(154, 197, 41); stroke-opacity: 1; fill: rgb(154, 197, 41); fill-opacity: 0.5;"/><path class="box" d="M17.8,196.14V188.29M15,196.14V188.29H20V196.14ZM15,192.22H15M20,192.22H20M15,194.18V190.26M20,194.18V190.26" style="vector-effect: none; stroke-width: 2px; stroke: rgb(154, 197, 41); stroke-opacity: 1; fill: rgb(154, 197, 41); fill-opacity: 0.5;"/><path class="box" d="M18.24,180.12V172.28M10.36,180.12V172.28H25.45V180.12ZM10.36,176.2H3.43M25.45,176.2H46.87M3.43,178.16V174.24M46.87,178.16V174.24" style="vector-effect: none; stroke-width: 2px; stroke: rgb(154, 197, 41); stroke-opacity: 1; fill: rgb(154, 197, 41); fill-opacity: 0.5;"/><path class="box" d="M13.87,164.11V156.26M10.91,164.11V156.26H16.36V164.11ZM10.91,160.18H10.29M16.36,160.18H16.36M10.29,162.14V158.22M16.36,162.14V158.22" style="vector-effect: none; stroke-width: 2px; stroke: rgb(154, 197, 41); stroke-opacity: 1; fill: rgb(154, 197, 41); fill-opacity: 0.5;"/><path class="box" d="M17.14,148.09V140.24M10,148.09V140.24H28.8V148.09ZM10,144.16H5.45M28.8,144.16H36M5.45,146.13V142.2M36,146.13V142.2" style="vector-effect: none; stroke-width: 2px; stroke: rgb(154, 197, 41); stroke-opacity: 1; fill: rgb(154, 197, 41); fill-opacity: 0.5;"/><path class="box" d="M24.45,132.07V124.22M19.44,132.07V124.22H25.45V132.07ZM19.44,128.15H18.43M25.45,128.15H31.17M18.43,130.11V126.18M31.17,130.11V126.18" style="vector-effect: none; stroke-width: 2px; stroke: rgb(154, 197, 41); stroke-opacity: 1; fill: rgb(154, 197, 41); fill-opacity: 0.5;"/><path class="box" d="M27,116.05V108.2M20,116.05V108.2H30V116.05ZM20,112.13H20M30,112.13H32.86M20,114.09V110.17M32.86,114.09V110.17" style="vector-effect: none; stroke-width: 2px; stroke: rgb(154, 197, 41); stroke-opacity: 1; fill: rgb(154, 197, 41); fill-opacity: 0.5;"/><path class="box" d="M10.6,100.03V92.18M9.6,100.03V92.18H64.44V100.03ZM9.6,96.11H8.57M64.44,96.11H65.45M8.57,98.07V94.15M65.45,98.07V94.15" style="vector-effect: none; stroke-width: 2px; stroke: rgb(154, 197, 41); stroke-opacity: 1; fill: rgb(154, 197, 41); fill-opacity: 0.5;"/><path class="box" d="M29,84.02V76.17M24,84.02V76.17H30V84.02ZM24,80.09H20M30,80.09H30M20,82.05V78.13M30,82.05V78.13" style="vector-effect: none; stroke-width: 2px; stroke: rgb(154, 197, 41); stroke-opacity: 1; fill: rgb(154, 197, 41); fill-opacity: 0.5;"/><path class="box" d="M34.17,68V60.15M25.45,68V60.15H35.71V68ZM25.45,64.07H25M35.71,64.07H36.86M25,66.03V62.11M36.86,66.03V62.11" style="vector-effect: none; stroke-width: 2px; stroke: rgb(154, 197, 41); stroke-opacity: 1; fill: rgb(154, 197, 41); fill-opacity: 0.5;"/><path class="box" d="M38.23,51.98V44.13M30.47,51.98V44.13H60V51.98ZM30.47,48.05H26.67M60,48.05H100M26.67,50.02V46.09M100,50.02V46.09" style="vector-effect: none; stroke-width: 2px; stroke: rgb(154, 197, 41); stroke-opacity: 1; fill: rgb(154, 197, 41); fill-opacity: 0.5;"/><path class="box" d="M59,35.96V28.11M40,35.96V28.11H60V35.96ZM40,32.04H40M60,32.04H60M40,34V30.07M60,34V30.07" style="vector-effect: none; stroke-width: 2px; stroke: rgb(154, 197, 41); stroke-opacity: 1; fill: rgb(154, 197, 41); fill-opacity: 0.5;"/><path class="box" d="M81.43,19.94V12.09M28.44,19.94V12.09H93.43V19.94ZM28.44,16.02H25M93.43,16.02H164.8M25,17.98V14.06M164.8,17.98V14.06" style="vector-effect: none; stroke-width: 2px; stroke: rgb(154, 197, 41); stroke-opacity: 1; fill: rgb(154, 197, 41); fill-opacity: 0.5;"/><g class="points"/><g class="points"/><g class="points"/><g class="points"/><g class="points"/><g class="points"/><g class="points"/><g class="points"/><g class="points"/><g class="points"/><g class="points"/><g class="points"/><g class="points"/><g class="points"/><g class="points"/><g class="points"/><g class="points"/><g class="points"/><g class="points"/><g class="points"/><g class="points"><path class="point" transform="translate(4.44,544.62)" d="M4,0A4,4 0 1,1 0,-4A4,4 0 0,1 4,0Z" style="opacity: 1; stroke-width: 0px; fill: rgb(154, 197, 41); fill-opacity: 1;"/></g><g class="points"><path class="point" transform="translate(2.86,528.6)" d="M4,0A4,4 0 1,1 0,-4A4,4 0 0,1 4,0Z" style="opacity: 1; stroke-width: 0px; fill: rgb(154, 197, 41); fill-opacity: 1;"/><path class="point" transform="translate(2.86,528.6)" d="M4,0A4,4 0 1,1 0,-4A4,4 0 0,1 4,0Z" style="opacity: 1; stroke-width: 0px; fill: rgb(154, 197, 41); fill-opacity: 1;"/></g><g class="points"><path class="point" transform="translate(2.86,512.58)" d="M4,0A4,4 0 1,1 0,-4A4,4 0 0,1 4,0Z" style="opacity: 1; stroke-width: 0px; fill: rgb(154, 197, 41); fill-opacity: 1;"/><path class="point" transform="translate(2.86,512.58)" d="M4,0A4,4 0 1,1 0,-4A4,4 0 0,1 4,0Z" style="opacity: 1; stroke-width: 0px; fill: rgb(154, 197, 41); fill-opacity: 1;"/></g><g class="points"><path class="point" transform="translate(5.45,496.56)" d="M4,0A4,4 0 1,1 0,-4A4,4 0 0,1 4,0Z" style="opacity: 1; stroke-width: 0px; fill: rgb(154, 197, 41); fill-opacity: 1;"/><path class="point" transform="translate(6,496.56)" d="M4,0A4,4 0 1,1 0,-4A4,4 0 0,1 4,0Z" style="opacity: 1; stroke-width: 0px; fill: rgb(154, 197, 41); fill-opacity: 1;"/></g><g class="points"/><g class="points"/><g class="points"/><g class="points"/><g class="points"/><g class="points"/><g class="points"><path class="point" transform="translate(10.77,384.44)" d="M4,0A4,4 0 1,1 0,-4A4,4 0 0,1 4,0Z" style="opacity: 1; stroke-width: 0px; fill: rgb(154, 197, 41); fill-opacity: 1;"/><path class="point" transform="translate(17.93,384.44)" d="M4,0A4,4 0 1,1 0,-4A4,4 0 0,1 4,0Z" style="opacity: 1; stroke-width: 0px; fill: rgb(154, 197, 41); fill-opacity: 1;"/></g><g class="points"/><g class="points"/><g class="points"><path class="point" transform="translate(0,336.38)" d="M4,0A4,4 0 1,1 0,-4A4,4 0 0,1 4,0Z" style="opacity: 1; stroke-width: 0px; fill: rgb(154, 197, 41); fill-opacity: 1;"/><path class="point" transform="translate(0,336.38)" d="M4,0A4,4 0 1,1 0,-4A4,4 0 0,1 4,0Z" style="opacity: 1; stroke-width: 0px; fill: rgb(154, 197, 41); fill-opacity: 1;"/></g><g class="points"><path class="point" transform="translate(23.89,320.36)" d="M4,0A4,4 0 1,1 0,-4A4,4 0 0,1 4,0Z" style="opacity: 1; stroke-width: 0px; fill: rgb(154, 197, 41); fill-opacity: 1;"/></g><g class="points"><path class="point" transform="translate(0,304.35)" d="M4,0A4,4 0 1,1 0,-4A4,4 0 0,1 4,0Z" style="opacity: 1; stroke-width: 0px; fill: rgb(154, 197, 41); fill-opacity: 1;"/><path class="point" transform="translate(10,304.35)" d="M4,0A4,4 0 1,1 0,-4A4,4 0 0,1 4,0Z" style="opacity: 1; stroke-width: 0px; fill: rgb(154, 197, 41); fill-opacity: 1;"/></g><g class="points"><path class="point" transform="translate(10.91,288.33)" d="M4,0A4,4 0 1,1 0,-4A4,4 0 0,1 4,0Z" style="opacity: 1; stroke-width: 0px; fill: rgb(154, 197, 41); fill-opacity: 1;"/><path class="point" transform="translate(12,288.33)" d="M4,0A4,4 0 1,1 0,-4A4,4 0 0,1 4,0Z" style="opacity: 1; stroke-width: 0px; fill: rgb(154, 197, 41); fill-opacity: 1;"/></g><g class="points"/><g class="points"/><g class="points"/><g class="points"/><g class="points"/><g class="points"><path class="point" transform="translate(0,192.22)" d="M4,0A4,4 0 1,1 0,-4A4,4 0 0,1 4,0Z" style="opacity: 1; stroke-width: 0px; fill: rgb(154, 197, 41); fill-opacity: 1;"/><path class="point" transform="translate(0,192.22)" d="M4,0A4,4 0 1,1 0,-4A4,4 0 0,1 4,0Z" style="opacity: 1; stroke-width: 0px; fill: rgb(154, 197, 41); fill-opacity: 1;"/><path class="point" transform="translate(30,192.22)" d="M4,0A4,4 0 1,1 0,-4A4,4 0 0,1 4,0Z" style="opacity: 1; stroke-width: 0px; fill: rgb(154, 197, 41); fill-opacity: 1;"/><path class="point" transform="translate(30,192.22)" d="M4,0A4,4 0 1,1 0,-4A4,4 0 0,1 4,0Z" style="opacity: 1; stroke-width: 0px; fill: rgb(154, 197, 41); fill-opacity: 1;"/></g><g class="points"/><g class="points"><path class="point" transform="translate(45.71,160.18)" d="M4,0A4,4 0 1,1 0,-4A4,4 0 0,1 4,0Z" style="opacity: 1; stroke-width: 0px; fill: rgb(154, 197, 41); fill-opacity: 1;"/><path class="point" transform="translate(45.71,160.18)" d="M4,0A4,4 0 1,1 0,-4A4,4 0 0,1 4,0Z" style="opacity: 1; stroke-width: 0px; fill: rgb(154, 197, 41); fill-opacity: 1;"/></g><g class="points"/><g class="points"/><g class="points"><path class="point" transform="translate(0,112.13)" d="M4,0A4,4 0 1,1 0,-4A4,4 0 0,1 4,0Z" style="opacity: 1; stroke-width: 0px; fill: rgb(154, 197, 41); fill-opacity: 1;"/></g><g class="points"/><g class="points"><path class="point" transform="translate(40,80.09)" d="M4,0A4,4 0 1,1 0,-4A4,4 0 0,1 4,0Z" style="opacity: 1; stroke-width: 0px; fill: rgb(154, 197, 41); fill-opacity: 1;"/></g><g class="points"><path class="point" transform="translate(4.8,64.07)" d="M4,0A4,4 0 1,1 0,-4A4,4 0 0,1 4,0Z" style="opacity: 1; stroke-width: 0px; fill: rgb(154, 197, 41); fill-opacity: 1;"/></g><g class="points"/><g class="points"><path class="point" transform="translate(0,32.04)" d="M4,0A4,4 0 1,1 0,-4A4,4 0 0,1 4,0Z" style="opacity: 1; stroke-width: 0px; fill: rgb(154, 197, 41); fill-opacity: 1;"/></g><g class="points"/></g></g></g><g class="overplot"/><path class="xlines-above crisp" d="M0,0" style="fill: none;"/><path class="ylines-above crisp" d="M0,0" style="fill: none;"/><g class="overlines-above"/><g class="xaxislayer-above"><g class="xtick"><text text-anchor="middle" x="0" y="1052" transform="translate(168,0)" style="font-family: 'Times new roman'; font-size: 20px; fill: rgb(0, 0, 0); fill-opacity: 1; white-space: pre; opacity: 1;">0</text></g><g class="xtick"><text text-anchor="middle" x="0" y="1052" style="font-family: 'Times new roman'; font-size: 20px; fill: rgb(0, 0, 0); fill-opacity: 1; white-space: pre; opacity: 1;" transform="translate(264,0)">0.2</text></g><g class="xtick"><text text-anchor="middle" x="0" y="1052" style="font-family: 'Times new roman'; font-size: 20px; fill: rgb(0, 0, 0); fill-opacity: 1; white-space: pre; opacity: 1;" transform="translate(360,0)">0.4</text></g><g class="xtick"><text text-anchor="middle" x="0" y="1052" style="font-family: 'Times new roman'; font-size: 20px; fill: rgb(0, 0, 0); fill-opacity: 1; white-space: pre; opacity: 1;" transform="translate(456,0)">0.6</text></g><g class="xtick"><text text-anchor="middle" x="0" y="1052" style="font-family: 'Times new roman'; font-size: 20px; fill: rgb(0, 0, 0); fill-opacity: 1; white-space: pre; opacity: 1;" transform="translate(552,0)">0.8</text></g></g><g class="yaxislayer-above"><g class="ytick"><text text-anchor="end" x="167" y="7" transform="translate(0,1014.98)" style="font-family: 'Times new roman'; font-size: 20px; fill: rgb(0, 0, 0); fill-opacity: 1; white-space: pre; opacity: 1;">wSMI_2_mean</text></g><g class="ytick"><text text-anchor="end" x="167" y="7" transform="translate(0,998.96)" style="font-family: 'Times new roman'; font-size: 20px; fill: rgb(0, 0, 0); fill-opacity: 1; white-space: pre; opacity: 1;">wSMI_2_std</text></g><g class="ytick"><text text-anchor="end" x="167" y="7" transform="translate(0,982.95)" style="font-family: 'Times new roman'; font-size: 20px; fill: rgb(0, 0, 0); fill-opacity: 1; white-space: pre; opacity: 1;">p_e_1_mean</text></g><g class="ytick"><text text-anchor="end" x="167" y="7" transform="translate(0,966.93)" style="font-family: 'Times new roman'; font-size: 20px; fill: rgb(0, 0, 0); fill-opacity: 1; white-space: pre; opacity: 1;">p_e_8_std</text></g><g class="ytick"><text text-anchor="end" x="167" y="7" transform="translate(0,950.91)" style="font-family: 'Times new roman'; font-size: 20px; fill: rgb(0, 0, 0); fill-opacity: 1; white-space: pre; opacity: 1;">k_mean</text></g><g class="ytick"><text text-anchor="end" x="167" y="7" transform="translate(0,934.89)" style="font-family: 'Times new roman'; font-size: 20px; fill: rgb(0, 0, 0); fill-opacity: 1; white-space: pre; opacity: 1;">k_std</text></g><g class="ytick"><text text-anchor="end" x="167" y="7" transform="translate(0,918.87)" style="font-family: 'Times new roman'; font-size: 20px; fill: rgb(0, 0, 0); fill-opacity: 1; white-space: pre; opacity: 1;">se_mean</text></g><g class="ytick"><text text-anchor="end" x="167" y="7" transform="translate(0,902.85)" style="font-family: 'Times new roman'; font-size: 20px; fill: rgb(0, 0, 0); fill-opacity: 1; white-space: pre; opacity: 1;">msf_mean</text></g><g class="ytick"><text text-anchor="end" x="167" y="7" transform="translate(0,886.84)" style="font-family: 'Times new roman'; font-size: 20px; fill: rgb(0, 0, 0); fill-opacity: 1; white-space: pre; opacity: 1;">msf_std</text></g><g class="ytick"><text text-anchor="end" x="167" y="7" transform="translate(0,870.82)" style="font-family: 'Times new roman'; font-size: 20px; fill: rgb(0, 0, 0); fill-opacity: 1; white-space: pre; opacity: 1;">sef90_mean</text></g><g class="ytick"><text text-anchor="end" x="167" y="7" transform="translate(0,854.8)" style="font-family: 'Times new roman'; font-size: 20px; fill: rgb(0, 0, 0); fill-opacity: 1; white-space: pre; opacity: 1;">sef95_mean</text></g><g class="ytick"><text text-anchor="end" x="167" y="7" transform="translate(0,838.78)" style="font-family: 'Times new roman'; font-size: 20px; fill: rgb(0, 0, 0); fill-opacity: 1; white-space: pre; opacity: 1;">sef95_std</text></g><g class="ytick"><text text-anchor="end" x="167" y="7" transform="translate(0,822.76)" style="font-family: 'Times new roman'; font-size: 20px; fill: rgb(0, 0, 0); fill-opacity: 1; white-space: pre; opacity: 1;">b_n_std</text></g><g class="ytick"><text text-anchor="end" x="167" y="7" transform="translate(0,806.75)" style="font-family: 'Times new roman'; font-size: 20px; fill: rgb(0, 0, 0); fill-opacity: 1; white-space: pre; opacity: 1;">t_n_mean</text></g><g class="ytick"><text text-anchor="end" x="167" y="7" transform="translate(0,790.73)" style="font-family: 'Times new roman'; font-size: 20px; fill: rgb(0, 0, 0); fill-opacity: 1; white-space: pre; opacity: 1;">d_mean</text></g><g class="ytick"><text text-anchor="end" x="167" y="7" transform="translate(0,774.71)" style="font-family: 'Times new roman'; font-size: 20px; fill: rgb(0, 0, 0); fill-opacity: 1; white-space: pre; opacity: 1;">a_n_std</text></g><g class="ytick"><text text-anchor="end" x="167" y="7" transform="translate(0,758.69)" style="font-family: 'Times new roman'; font-size: 20px; fill: rgb(0, 0, 0); fill-opacity: 1; white-space: pre; opacity: 1;">CNV_std</text></g><g class="ytick"><text text-anchor="end" x="167" y="7" transform="translate(0,742.67)" style="font-family: 'Times new roman'; font-size: 20px; fill: rgb(0, 0, 0); fill-opacity: 1; white-space: pre; opacity: 1;">P1_std</text></g><g class="ytick"><text text-anchor="end" x="167" y="7" transform="translate(0,726.65)" style="font-family: 'Times new roman'; font-size: 20px; fill: rgb(0, 0, 0); fill-opacity: 1; white-space: pre; opacity: 1;">P3a_std</text></g><g class="ytick"><text text-anchor="end" x="167" y="7" transform="translate(0,710.64)" style="font-family: 'Times new roman'; font-size: 20px; fill: rgb(0, 0, 0); fill-opacity: 1; white-space: pre; opacity: 1;">P3b_std</text></g><g class="ytick"><text text-anchor="end" x="167" y="7" transform="translate(0,694.62)" style="font-family: 'Times new roman'; font-size: 20px; fill: rgb(0, 0, 0); fill-opacity: 1; white-space: pre; opacity: 1;">g_n_mean</text></g><g class="ytick"><text text-anchor="end" x="167" y="7" transform="translate(0,678.6)" style="font-family: 'Times new roman'; font-size: 20px; fill: rgb(0, 0, 0); fill-opacity: 1; white-space: pre; opacity: 1;">p_e_4_std</text></g><g class="ytick"><text text-anchor="end" x="167" y="7" transform="translate(0,662.58)" style="font-family: 'Times new roman'; font-size: 20px; fill: rgb(0, 0, 0); fill-opacity: 1; white-space: pre; opacity: 1;">P3a_mean</text></g><g class="ytick"><text text-anchor="end" x="167" y="7" transform="translate(0,646.56)" style="font-family: 'Times new roman'; font-size: 20px; fill: rgb(0, 0, 0); fill-opacity: 1; white-space: pre; opacity: 1;">P3b_mean</text></g><g class="ytick"><text text-anchor="end" x="167" y="7" transform="translate(0,630.55)" style="font-family: 'Times new roman'; font-size: 20px; fill: rgb(0, 0, 0); fill-opacity: 1; white-space: pre; opacity: 1;">p_e_2_mean</text></g><g class="ytick"><text text-anchor="end" x="167" y="7" transform="translate(0,614.53)" style="font-family: 'Times new roman'; font-size: 20px; fill: rgb(0, 0, 0); fill-opacity: 1; white-space: pre; opacity: 1;">t_std</text></g><g class="ytick"><text text-anchor="end" x="167" y="7" transform="translate(0,598.51)" style="font-family: 'Times new roman'; font-size: 20px; fill: rgb(0, 0, 0); fill-opacity: 1; white-space: pre; opacity: 1;">p_e_1_std</text></g><g class="ytick"><text text-anchor="end" x="167" y="7" transform="translate(0,582.49)" style="font-family: 'Times new roman'; font-size: 20px; fill: rgb(0, 0, 0); fill-opacity: 1; white-space: pre; opacity: 1;">se_std</text></g><g class="ytick"><text text-anchor="end" x="167" y="7" transform="translate(0,566.47)" style="font-family: 'Times new roman'; font-size: 20px; fill: rgb(0, 0, 0); fill-opacity: 1; white-space: pre; opacity: 1;">sef90_std</text></g><g class="ytick"><text text-anchor="end" x="167" y="7" transform="translate(0,550.45)" style="font-family: 'Times new roman'; font-size: 20px; fill: rgb(0, 0, 0); fill-opacity: 1; white-space: pre; opacity: 1;">d_std</text></g><g class="ytick"><text text-anchor="end" x="167" y="7" transform="translate(0,534.44)" style="font-family: 'Times new roman'; font-size: 20px; fill: rgb(0, 0, 0); fill-opacity: 1; white-space: pre; opacity: 1;">p_e_4_mean</text></g><g class="ytick"><text text-anchor="end" x="167" y="7" transform="translate(0,518.4200000000001)" style="font-family: 'Times new roman'; font-size: 20px; fill: rgb(0, 0, 0); fill-opacity: 1; white-space: pre; opacity: 1;">g_mean</text></g><g class="ytick"><text text-anchor="end" x="167" y="7" transform="translate(0,502.4)" style="font-family: 'Times new roman'; font-size: 20px; fill: rgb(0, 0, 0); fill-opacity: 1; white-space: pre; opacity: 1;">d_n_std</text></g><g class="ytick"><text text-anchor="end" x="167" y="7" transform="translate(0,486.38)" style="font-family: 'Times new roman'; font-size: 20px; fill: rgb(0, 0, 0); fill-opacity: 1; white-space: pre; opacity: 1;">wSMI_4_mean</text></g><g class="ytick"><text text-anchor="end" x="167" y="7" transform="translate(0,470.36)" style="font-family: 'Times new roman'; font-size: 20px; fill: rgb(0, 0, 0); fill-opacity: 1; white-space: pre; opacity: 1;">g_std</text></g><g class="ytick"><text text-anchor="end" x="167" y="7" transform="translate(0,454.35)" style="font-family: 'Times new roman'; font-size: 20px; fill: rgb(0, 0, 0); fill-opacity: 1; white-space: pre; opacity: 1;">wSMI_4_std</text></g><g class="ytick"><text text-anchor="end" x="167" y="7" transform="translate(0,438.33)" style="font-family: 'Times new roman'; font-size: 20px; fill: rgb(0, 0, 0); fill-opacity: 1; white-space: pre; opacity: 1;">a_mean</text></g><g class="ytick"><text text-anchor="end" x="167" y="7" transform="translate(0,422.31)" style="font-family: 'Times new roman'; font-size: 20px; fill: rgb(0, 0, 0); fill-opacity: 1; white-space: pre; opacity: 1;">t_mean</text></g><g class="ytick"><text text-anchor="end" x="167" y="7" transform="translate(0,406.29)" style="font-family: 'Times new roman'; font-size: 20px; fill: rgb(0, 0, 0); fill-opacity: 1; white-space: pre; opacity: 1;">a_std</text></g><g class="ytick"><text text-anchor="end" x="167" y="7" transform="translate(0,390.27)" style="font-family: 'Times new roman'; font-size: 20px; fill: rgb(0, 0, 0); fill-opacity: 1; white-space: pre; opacity: 1;">b_n_mean</text></g><g class="ytick"><text text-anchor="end" x="167" y="7" transform="translate(0,374.25)" style="font-family: 'Times new roman'; font-size: 20px; fill: rgb(0, 0, 0); fill-opacity: 1; white-space: pre; opacity: 1;">wSMI_1_mean</text></g><g class="ytick"><text text-anchor="end" x="167" y="7" transform="translate(0,358.24)" style="font-family: 'Times new roman'; font-size: 20px; fill: rgb(0, 0, 0); fill-opacity: 1; white-space: pre; opacity: 1;">p_e_8_mean</text></g><g class="ytick"><text text-anchor="end" x="167" y="7" transform="translate(0,342.22)" style="font-family: 'Times new roman'; font-size: 20px; fill: rgb(0, 0, 0); fill-opacity: 1; white-space: pre; opacity: 1;">t_n_std</text></g><g class="ytick"><text text-anchor="end" x="167" y="7" transform="translate(0,326.2)" style="font-family: 'Times new roman'; font-size: 20px; fill: rgb(0, 0, 0); fill-opacity: 1; white-space: pre; opacity: 1;">d_n_mean</text></g><g class="ytick"><text text-anchor="end" x="167" y="7" transform="translate(0,310.18)" style="font-family: 'Times new roman'; font-size: 20px; fill: rgb(0, 0, 0); fill-opacity: 1; white-space: pre; opacity: 1;">P1_mean</text></g><g class="ytick"><text text-anchor="end" x="167" y="7" transform="translate(0,294.15999999999997)" style="font-family: 'Times new roman'; font-size: 20px; fill: rgb(0, 0, 0); fill-opacity: 1; white-space: pre; opacity: 1;">b_mean</text></g><g class="ytick"><text text-anchor="end" x="167" y="7" transform="translate(0,278.15)" style="font-family: 'Times new roman'; font-size: 20px; fill: rgb(0, 0, 0); fill-opacity: 1; white-space: pre; opacity: 1;">CNV_mean</text></g><g class="ytick"><text text-anchor="end" x="167" y="7" transform="translate(0,262.13)" style="font-family: 'Times new roman'; font-size: 20px; fill: rgb(0, 0, 0); fill-opacity: 1; white-space: pre; opacity: 1;">g_n_std</text></g><g class="ytick"><text text-anchor="end" x="167" y="7" transform="translate(0,246.11)" style="font-family: 'Times new roman'; font-size: 20px; fill: rgb(0, 0, 0); fill-opacity: 1; white-space: pre; opacity: 1;">a_n_mean</text></g><g class="ytick"><text text-anchor="end" x="167" y="7" transform="translate(0,230.09)" style="font-family: 'Times new roman'; font-size: 20px; fill: rgb(0, 0, 0); fill-opacity: 1; white-space: pre; opacity: 1;">p_e_2_std</text></g><g class="ytick"><text text-anchor="end" x="167" y="7" transform="translate(0,214.07)" style="font-family: 'Times new roman'; font-size: 20px; fill: rgb(0, 0, 0); fill-opacity: 1; white-space: pre; opacity: 1;">wSMI_8_std</text></g><g class="ytick"><text text-anchor="end" x="167" y="7" transform="translate(0,198.05)" style="font-family: 'Times new roman'; font-size: 20px; fill: rgb(0, 0, 0); fill-opacity: 1; white-space: pre; opacity: 1;">wSMI_1_std</text></g><g class="ytick"><text text-anchor="end" x="167" y="7" transform="translate(0,182.04)" style="font-family: 'Times new roman'; font-size: 20px; fill: rgb(0, 0, 0); fill-opacity: 1; white-space: pre; opacity: 1;">b_std</text></g><g class="ytick"><text text-anchor="end" x="167" y="7" transform="translate(0,166.02)" style="font-family: 'Times new roman'; font-size: 20px; fill: rgb(0, 0, 0); fill-opacity: 1; white-space: pre; opacity: 1;">wSMI_8_mean</text></g></g><g class="overaxes-above"/></g></g><g class="polarlayer"/><g class="smithlayer"/><g class="ternarylayer"/><g class="geolayer"/><g class="funnelarealayer"/><g class="pielayer"/><g class="iciclelayer"/><g class="treemaplayer"/><g class="sunburstlayer"/><g class="glimages"/><defs id="topdefs-a5164b"><g class="clips"/></defs><g class="layer-above"><g class="imagelayer"/><g class="shapelayer"/></g><g class="infolayer"><g class="g-gtitle"><text class="gtitle" x="32.5" y="75" text-anchor="start" dy="0em" style="font-family: 'Times new roman'; font-size: 28px; fill: rgb(0, 0, 0); opacity: 1; font-weight: normal; white-space: pre;"><tspan class="line" dy="0em" x="32.5" y="75">FI of Top 10 Models on-task_vs_dMW </tspan><tspan class="line" dy="1.3em" x="32.5" y="75"> Average AUC 0.578 </tspan><tspan class="line" dy="2.6em" x="32.5" y="75"> Best AUC 0.582</tspan></text></g><g class="g-xtitle"><text class="xtitle" x="384" y="1087.3" text-anchor="middle" style="font-family: 'Times new roman'; font-size: 24px; fill: rgb(0, 0, 0); opacity: 1; font-weight: normal; white-space: pre;">Feature Importance</text></g><g class="g-ytitle" transform="translate(8.6279296875,0)"><text class="ytitle" transform="rotate(-90,12.371874999999989,590.5)" x="12.371874999999989" y="590.5" text-anchor="middle" style="font-family: 'Times new roman'; font-size: 24px; fill: rgb(0, 0, 0); opacity: 1; font-weight: normal; white-space: pre;">Feature</text></g></g></svg>